<svg xmlns="http://www.w3.org/2000/svg" viewBox="0 0 1130.65 279.28"><defs><style>.cls-1{fill:#f1f1f1;}</style></defs><title>Asset 19</title><g id="Layer_2" data-name="Layer 2"><g id="Layer_2-2" data-name="Layer 2"><polygon class="cls-1" points="617.69 79.5 617.69 151.83 680.33 188 742.97 151.83 742.97 79.5 680.33 43.34 617.69 79.5"/><polygon class="cls-1" points="235.85 80.5 235.85 152.83 298.49 189 361.13 152.83 361.13 80.5 298.49 44.34 235.85 80.5"/><path class="cls-1" d="M868.13,177l-39.34-22.72-39.52,22.81v45.63l39.52,22.81,39.34-22.72Zm-32.23-10.91-35.67,20.59a2.32,2.32,0,0,1-2.32-4l35.67-20.59a2.32,2.32,0,1,1,2.32,4Z"/><path class="cls-1" d="M492.58,177.09v45.63l39.52,22.81,39.52-22.81V177.09L532.1,154.27Zm73.15,35.67a2.32,2.32,0,0,1-.85,3.17l-35.67,20.59a2.32,2.32,0,1,1-2.32-4l35.67-20.59A2.32,2.32,0,0,1,565.73,212.76Z"/><circle class="cls-1" cx="16.75" cy="180.4" r="8.19"/><path class="cls-1" d="M487.94,177.09l-39.52-22.81L408.9,177.09v45.63l39.52,22.81,39.52-22.81Zm-5.17,38.84L447.1,236.52a2.32,2.32,0,1,1-2.32-4l35.67-20.59a2.32,2.32,0,1,1,2.32,4Z"/><path class="cls-1" d="M112.72,177.09v45.63l39.52,22.81,39.52-22.81V177.09l-39.52-22.81Zm44.1-14.18a2.32,2.32,0,0,1-.85,3.17L120.3,186.68a2.32,2.32,0,1,1-2.32-4l35.67-20.59A2.32,2.32,0,0,1,156.82,162.91Z"/><path class="cls-1" d="M872.94,177v45.83l39.34,22.72,39.52-22.81V177.09l-39.52-22.81Zm46.31-14.08a2.32,2.32,0,0,1-.85,3.17l-35.67,20.59a2.32,2.32,0,1,1-2.32-4l35.67-20.59A2.32,2.32,0,0,1,919.26,162.91Z"/><path class="cls-1" d="M0,0V279.28H1130.65V0ZM1126.73,153.26,1059.58,192l-64.35-37.16-38.55,22.26-.22-.39v47.31a2.32,2.32,0,0,1-1.16,2l-41.84,24.16a2.32,2.32,0,0,1-2.32,0l-40.59-23.44-40.59,23.44a2.32,2.32,0,0,1-2.32,0l-41.84-24.16a2.32,2.32,0,0,1-1.16-2V176.45l-37.83-21.84L680.33,193l-65.65-37.9-38.2,22.05-.22-.39v47.31a2.32,2.32,0,0,1-1.16,2l-41.84,24.16a2.32,2.32,0,0,1-2.32,0l-40.68-23.48-40.68,23.48a2.32,2.32,0,0,1-2.32,0l-41.84-24.16a2.32,2.32,0,0,1-1.16-2V176.37L364.78,155l-66.12,38.17L232.56,155,196.4,175.87v48.19a2.32,2.32,0,0,1-1.16,2L153.4,250.22a2.32,2.32,0,0,1-2.32,0l-41.84-24.16a2.32,2.32,0,0,1-1.16-2V176L69.41,153.69,29.1,177a12.88,12.88,0,1,1-2-4.18l42.36-24.46,41.28,23.83-.63,1.09,41-23.68a2.32,2.32,0,0,1,2.32,0L193,172.46l39.33-22.71V78.3L298.66,40,365,78.3v71.51l42.25,22.89,40-23.11a2.32,2.32,0,0,1,2.32,0l40.68,23.48,39.68-22.91V104.6L489.26,81.12a2.32,2.32,0,1,1,2.32-4l41.84,24.16a2.32,2.32,0,0,1,1.16,2v47.08l39.65,22.89-.07-.13,39.22-22.64V77l67-38.66,67,38.66v72.52l40.21,23.22,39-22.5V103.59a2.32,2.32,0,0,1,1.16-2l41.84-24.16a2.32,2.32,0,1,1,2.32,4l-40.68,23.49v45.32L870.54,173l40.59-23.44a2.32,2.32,0,0,1,2.32,0l41,23.66-.07-.13,38.08-22V75.71l67.15-38.77,67.15,38.77Z"/><polygon class="cls-1" points="996.76 78.21 996.76 149.94 997.47 151.16 1059.58 187.03 1122.4 150.76 1122.4 78.21 1059.58 41.94 996.76 78.21"/></g></g></svg>