<svg id="Layer_1" data-name="Layer 1" xmlns="http://www.w3.org/2000/svg" viewBox="0 0 283 710.95">
    <defs>
        <style>.cls-1{fill:#f1f1f1;}</style>
    </defs>
    <title>Mobile_2</title>
    <path class="cls-1"
          d="M66.77,100.18H33L16.13,129.42l16.71,28.94a2,2,0,0,1,.47.19l.14.1H66.77l16.88-29.24Zm7.41,31.24a2,2,0,0,1-2.73-.75h0L61,112.17a2,2,0,0,1,3.48-2L75,128.67a2,2,0,0,1-.76,2.73Z"/>
    <path class="cls-1"
          d="M66.71,305.52H33L16.07,334.75,33,364H66.71l16.88-29.24ZM38.07,354.73a2,2,0,0,1-2.73-.75h0l-10.5-18.5a2,2,0,0,1,3.48-2L38.82,352a2,2,0,0,1-.75,2.73Z"/>
    <path class="cls-1"
          d="M0,0V711H283V0ZM164.27,667.93,113.75,697.1,63.23,667.93V609.6l22.94-13.24-19.24-25.3H31.85a2,2,0,0,1-1.73-1l-18-31.24a2,2,0,0,1,0-2l18-31.24a2,2,0,0,1,1.73-1H67.53l18.63-25.1L63.23,466.24V408.07l23-13.25L66.85,368h-35a2,2,0,0,1-1.73-1L12,335.75a2,2,0,0,1,0-2l18-31.24a2,2,0,0,1,1.73-1h35L86.2,272.39l-23-13.31V201.61l22.94-13.24L66.93,162.66H33.2L16,191.83a2,2,0,0,1-3.44-2l17.11-29-17.55-30.4a2,2,0,0,1,0-2l18-31.24a2,2,0,0,1,1.73-1H66.79L82.92,68.25l-16-27.66a9.91,9.91,0,1,1,3.49-2L87.54,68.24l-17.3,30,17.45,30.22a2,2,0,0,1,0,2L70.32,160.51l19.34,25.85L113,172.88l49.78,28.74V259.1L113,287.83,89.75,274.4,70.22,303.6l17.41,30.16a2,2,0,0,1,0,2L70.25,365.87,89.67,392.8,113.61,379,164,408.07v58.17l-50.38,29.09-24-13.83-19,25.68,17.11,29.63a2,2,0,0,1,0,2L70.32,568.9l19.34,25.44,24.09-13.91,50.52,29.17Z"/>
    <path class="cls-1"
          d="M66.77,508.58H33L16.13,537.82,33,567H66.77l16.88-29.24Zm7.41,29.15a2,2,0,0,1-2.73-.75h0L61,518.48a2,2,0,0,1,3.48-2h0L74.93,535a2,2,0,0,1-.75,2.73Z"/>
    <circle class="cls-1" cx="63.94" cy="31.19" r="5.85"/>
</svg>