<?xml version="1.0" encoding="utf-8"?>
<!-- Generator: Adobe Illustrator 21.1.0, SVG Export Plug-In . SVG Version: 6.00 Build 0)  -->
<svg version="1.1" id="Layer_1" xmlns="http://www.w3.org/2000/svg" xmlns:xlink="http://www.w3.org/1999/xlink" x="0px" y="0px"
	 viewBox="0 0 700.3 247.4" style="enable-background:new 0 0 700.3 247.4;" xml:space="preserve">
<style type="text/css">
	.st0{fill:#F1F1F1;}
</style>
<title>Ipad_1</title>
<path class="st0" d="M0,0v247.4h700.3V0H0z M681.3,131.6L635,158.3l-44.8-25.9l-26.1,15.7v32.4c0,0.5-0.3,1-0.8,1.3l-28.8,16.6
	c-0.5,0.3-1,0.3-1.5,0l-28.8-16.6c-0.5-0.3-0.8-0.8-0.8-1.3v-32.4l-28-15.7l-44.7,25.8l-44.7-25.8L359,148.2v32.4
	c0,0.5-0.3,1-0.8,1.3l-28.8,16.6c-0.5,0.3-1,0.3-1.5,0l-28.8-16.6c-0.5-0.3-0.8-0.8-0.8-1.3v-32.4l-29.2-15.7l-44.1,25.5L181,132.5
	l-27.2,15.7v32.4c0,0.5-0.3,1-0.8,1.3l-28.8,16.6c-0.5,0.3-1,0.3-1.5,0l-28.8-16.7c-0.5-0.3-0.8-0.8-0.8-1.3v-33.2L66.4,132
	l-26.7,15.4c1.7,4.5-0.6,9.6-5.1,11.3s-9.6-0.6-11.3-5.1c-1.7-4.5,0.6-9.6,5.1-11.3c3.5-1.3,7.4-0.3,9.8,2.5l28.3-16.3l28.4,16.4
	l-0.5,0.8l28.4-16.4c0.5-0.3,1-0.3,1.5,0l28.1,16.2l27.2-15.7V79l45.6-26.3L270.7,79v50.9l29.2,15.7l27.4-15.8V98.2L299.1,82
	c-0.7-0.4-1-1.3-0.5-2c0.4-0.7,1.3-1,2-0.6l28.8,16.7c0.5,0.3,0.8,0.8,0.8,1.3v32.4l27.3,15.8l27.2-15.7V78.3l46.1-26.7L477,78.3
	v51.5l28,15.7l27.3-15.8V97.4c0-0.5,0.3-1,0.8-1.3L562,79.6c0.7-0.4,1.6-0.2,2,0.6s0.2,1.6-0.6,2l-28.1,16v31.6l27.3,15.8l26.1-15.7
	V78.2L635,51.5l46.3,26.7L681.3,131.6z"/>
<path class="st0" d="M301.4,148.2v31.6l27.3,15.8l27.3-15.8v-31.6l-27.3-15.8L301.4,148.2z M350.5,174c0.4,0.7,0.1,1.6-0.5,2
	l-20,11.5c-0.7,0.4-1.6,0.2-2.1-0.6c-0.4-0.7-0.2-1.6,0.6-2.1l20-11.5C349.2,173,350.1,173.3,350.5,174
	C350.5,174,350.5,174,350.5,174z"/>
<path class="st0" d="M96.1,148.2v31.6l27.3,15.8l27.3-15.8v-31.6l-27.3-15.8L96.1,148.2z M124,140c0.4,0.7,0.1,1.6-0.6,2l-20,11.5
	c-0.7,0.4-1.6,0.2-2.1-0.6s-0.2-1.6,0.6-2.1l20-11.5C122.7,139,123.6,139.3,124,140C124,140,124,140,124,140z"/>
<path class="st0" d="M506.5,148.2v31.6l27.3,15.8l27.3-15.8v-31.6l-27.3-15.8L506.5,148.2z M537,140c0.4,0.7,0.1,1.6-0.5,2l-20,11.5
	c-0.7,0.4-1.6,0.2-2-0.6c-0.4-0.7-0.2-1.6,0.5-2.1l20-11.5C535.7,139,536.6,139.3,537,140C537,140,537,140,537,140z"/>
<circle class="st0" cx="31.5" cy="150.5" r="5.7"/>
</svg>
