<svg xmlns="http://www.w3.org/2000/svg" viewBox="0 0 700.15 213.64"><defs><style>.cls-1{fill:#f1f1f1;}</style></defs><title>Ipad</title><g id="Layer_2" data-name="Layer 2"><g id="Layer_2-2" data-name="Layer 2"><polygon class="cls-1" points="386.51 64.94 386.51 114.78 429.68 139.7 472.84 114.78 472.84 64.94 429.68 40.01 386.51 64.94"/><polygon class="cls-1" points="179.38 65.94 179.38 115.78 222.54 140.7 265.71 115.78 265.71 65.94 222.54 41.01 179.38 65.94"/><path class="cls-1" d="M300.29,132.18v31.45l27.23,15.72,27.23-15.72V132.18l-27.23-15.72Zm50.41,24.58a1.6,1.6,0,0,1-.59,2.19l-24.58,14.19a1.6,1.6,0,1,1-1.6-2.77l24.58-14.19A1.6,1.6,0,0,1,350.7,156.77Z"/><path class="cls-1" d="M94.33,132.18v31.45l27.23,15.72,27.23-15.72V132.18l-27.23-15.72Zm30.39-9.77a1.6,1.6,0,0,1-.59,2.19L99.56,138.79A1.6,1.6,0,1,1,98,136l24.58-14.19A1.6,1.6,0,0,1,124.72,122.41Z"/><circle class="cls-1" cx="29.57" cy="134.47" r="5.64"/><polygon class="cls-1" points="589.85 64.05 589.85 113.48 590.34 114.32 633.14 139.03 676.44 114.04 676.44 64.05 633.14 39.05 589.85 64.05"/><path class="cls-1" d="M0,0V213.64H700.15V0ZM222.47,143.26,176.92,117,152,131.35v33.21a1.6,1.6,0,0,1-.8,1.39l-28.83,16.65a1.6,1.6,0,0,1-1.6,0L91.93,165.94a1.6,1.6,0,0,1-.8-1.39V131.45L64.49,116.06,37.86,131.43a8.87,8.87,0,1,1-1.63-2.76l28.25-16.31,28.45,16.42-.44.75,28.26-16.32a1.59,1.59,0,0,1,1.6,0L149.67,129l27.1-15.65V64.11l45.7-26.38,45.7,26.38v49.28l29.66,16.07-1.52,2.81L268,117Zm456.95-27.5-46.28,26.72-44.35-25.61L562.42,132.1v32.45a1.6,1.6,0,0,1-.8,1.39l-28.83,16.65a1.6,1.6,0,0,1-1.6,0l-28.83-16.65a1.6,1.6,0,0,1-.8-1.39V131.74l-26.07-15.05-45.8,26.44L384.43,117l-26.32,15.2-.15-.27v32.61a1.6,1.6,0,0,1-.8,1.39l-28.83,16.65a1.6,1.6,0,0,1-1.6,0l-28.83-16.65a1.6,1.6,0,0,1-.8-1.39V131.26a1.6,1.6,0,0,1,.8-1.39L326,113.62V82.23L298,66a1.6,1.6,0,1,1,1.6-2.77l28.83,16.65a1.6,1.6,0,0,1,.8,1.39v32.45l27.32,15.77-.05-.09,27-15.6V63.22l46.14-26.64,46.14,26.64v50l27.71,16,26.85-15.5V81.53a1.6,1.6,0,0,1,.8-1.39L560,63.5a1.6,1.6,0,1,1,1.6,2.77l-28,16.18v31.23l27.16,15.68,26.12-15.08v-52L633.14,35.6l46.28,26.72Z"/><path class="cls-1" d="M504.75,132.18v31.45L532,179.35l27.23-15.72V132.18L532,116.46Zm32.72-9.77a1.6,1.6,0,0,1-.59,2.19L512.3,138.79a1.6,1.6,0,1,1-1.6-2.77l24.58-14.19A1.6,1.6,0,0,1,537.47,122.41Z"/></g></g></svg>