<?xml version="1.0" encoding="utf-8"?>
<!-- Generator: Adobe Illustrator 21.1.0, SVG Export Plug-In . SVG Version: 6.00 Build 0)  -->
<svg version="1.1" id="Layer_1" xmlns="http://www.w3.org/2000/svg" xmlns:xlink="http://www.w3.org/1999/xlink" x="0px" y="0px"
	 viewBox="0 0 1140.3 344.2" style="enable-background:new 0 0 1140.3 344.2;" xml:space="preserve">
<style type="text/css">
	.st0{fill:#F1F1F1;}
</style>
<title>Desktop_1</title>
<path class="st0" d="M413,204.6V250l39.3,22.7l39.3-22.7v-45.4l-39.3-22.7L413,204.6z M483.4,243.4c0.7,1.2,0.3,2.7-0.9,3.4
	c0,0,0,0,0,0l-28.2,16.5c-1.2,0.7-2.7,0.3-3.4-0.9c-0.7-1.2-0.3-2.7,0.9-3.4l28.2-16.5C481.1,241.9,482.6,242.3,483.4,243.4
	L483.4,243.4z"/>
<path class="st0" d="M496.6,204.6V250l39.4,22.8l39.3-22.8v-45.4L536,181.9L496.6,204.6z M566.2,243.4c0.7,1.2,0.3,2.7-0.9,3.4
	c0,0,0,0,0,0l-28.2,16.5c-1.2,0.7-2.7,0.3-3.4-0.9c-0.7-1.2-0.3-2.7,0.9-3.4l28.2-16.5C564,241.9,565.5,242.3,566.2,243.4
	C566.2,243.4,566.2,243.4,566.2,243.4z"/>
<path class="st0" d="M20.6,199.6c-4.5,0-8.2,3.7-8.2,8.2s3.7,8.2,8.2,8.2s8.2-3.7,8.2-8.2C28.8,203.3,25.2,199.6,20.6,199.6z"/>
<path class="st0" d="M116.8,204.6V250l39.3,22.7l39.3-22.7v-45.4l-39.3-22.7L116.8,204.6z M159,193.3c0.7,1.2,0.3,2.7-0.9,3.4
	c0,0,0,0,0,0l-28.2,16.5c-1.2,0.7-2.7,0.3-3.4-0.9c-0.7-1.2-0.3-2.7,0.9-3.4l28.3-16.5C156.8,191.7,158.3,192.1,159,193.3
	C159,193.3,159,193.3,159,193.3z"/>
<path class="st0" d="M0,0v344.2h1140.3V0H0z M1132.5,180.3l-67.5,39l-65-37.5l-39.3,22.7v48.3l-44.3,25.6l-41.8-24.2l-41.8,24.1
	l-44.3-25.6v-48.1L749,181.7l-64.8,37.4l-64.8-37.4l-39.1,22.9v48.3L536,278.5l-41.8-24.2l-41.9,24.2L408,252.9v-49l-41.4-22.2
	l-64,37l-64-36.9l-38.1,21.7V253l-44.3,25.6L111.9,253v-48.6l-38.6-22.6L33,204.6c1.8,6.9-2.3,13.9-9.2,15.7S9.9,218,8.1,211.1
	s2.3-13.9,9.2-15.7c5-1.3,10.4,0.5,13.5,4.7l42.5-24.1l41.2,24.1l41.6-24l40.8,23.6l39.1-22.3v-73.9l66.5-38.4l66.5,38.4v73.8
	l42.1,22.6l41.2-23.8l41.8,24.2l39.5-22.8v-45.3l-40.5-23.4c-1.2-0.7-1.6-2.2-0.9-3.4c0.7-1.2,2.2-1.6,3.4-0.9l43.1,24.9v48.4
	l39.2,22.6l39.1-22.9v-74.8l67.3-38.8l67.3,38.8v74.8l39.2,22.8l39.5-22.8v-48.3l43.1-24.9c1.2-0.7,2.7-0.3,3.4,0.9
	c0.7,1.2,0.3,2.7-0.9,3.4L835.2,132v45.4l39.3,22.7l41.8-24.1l41.8,24.2l39.3-22.7v-75l67.5-39l67.5,39L1132.5,180.3z"/>
<path class="st0" d="M877,204.4v45.4l39.3,22.7l39.3-22.7v-45.4l-39.3-22.7L877,204.4z M922.2,193.3c0.7,1.2,0.3,2.7-0.9,3.4
	c0,0,0,0,0,0l-28.2,16.5c-1.2,0.7-2.7,0.3-3.4-0.9c-0.7-1.2-0.3-2.7,0.9-3.4l0,0l28.2-16.5C920,191.7,921.5,192.1,922.2,193.3
	C922.2,193.3,922.2,193.3,922.2,193.3z"/>
<path class="st0" d="M793.3,204.4v45.4l39.3,22.7l39.3-22.7v-45.4l-39.3-22.7L793.3,204.4z M838.3,193.3c0.7,1.2,0.3,2.7-0.9,3.4
	c0,0,0,0,0,0l-28.2,16.5c-1.2,0.7-2.7,0.3-3.4-0.9c-0.7-1.2-0.3-2.7,0.9-3.4l0,0l28.2-16.5C836.1,191.7,837.6,192.1,838.3,193.3
	L838.3,193.3z"/>
</svg>
