<svg xmlns="http://www.w3.org/2000/svg" viewBox="0 0 635.61 1561.1"><defs><style>.cls-1{fill:#f1f1f1;}</style></defs><title>Mobile</title><g id="Layer_2" data-name="Layer 2"><g id="Layer_2-2" data-name="Layer 2"><polygon class="cls-1" points="352.28 545.52 352.28 426.02 248.79 366.27 145.3 426.02 145.3 545.52 248.79 605.27 352.28 545.52"/><path class="cls-1" d="M147.17,765.17a3.87,3.87,0,0,1,1.28-.47l37.66-65.23-38.29-66.31H71.24L33,699.47l38.29,66.31H146.4A3.87,3.87,0,0,1,147.17,765.17Zm-59.22-7.07a3.9,3.9,0,0,1-5.32-1.43L48.06,696.82a3.9,3.9,0,1,1,6.75-3.9l34.56,59.86A3.9,3.9,0,0,1,87.94,758.11Z"/><path class="cls-1" d="M0,0V1561.1H635.61V0ZM367.23,994.51l-112.36,64.87-64.63-37.31-35,64.69L194,1154a3.9,3.9,0,0,1,0,3.9L154.62,1226l38.84,61.69,60.69-35,112.69,65.06v130.13l-112.69,65.06-112.69-65.06V1317.74l45.25-26.13L147.91,1230H69a3.9,3.9,0,0,1-3.38-1.95l-40.54-70.21a3.9,3.9,0,0,1,0-3.9l40.54-70.21a3.9,3.9,0,0,1,3.38-1.95h80l34.46-63.62-41-23.66V864.77l44.33-25.6-39.18-65.59H69a3.9,3.9,0,0,1-3.38-1.95L25.08,701.42a3.9,3.9,0,0,1,0-3.9l40.54-70.21A3.9,3.9,0,0,1,69,625.36h80L177.37,573l-39.86-23V421.52l48.66-28.09-36.39-63H72.19L32.78,397.13a3.9,3.9,0,0,1-6.71-4l39.38-66.68L36.17,275.76h0L24.92,256.29l12.42-21.51,30.37-52.6h82l37.38-64.74L148,49.79a21.61,21.61,0,1,1,7-3.44l41,71.09-40,69.28-.26-.15,40.26,69.72-40,69.36,36.89,63.89,55.88-32.26,111.28,64.25V550L248.79,614.27l-64.67-37.34-28.93,53.4L194,697.52a3.9,3.9,0,0,1,0,3.9l-39.49,68.4,39.1,65.45,61.28-35.38,112.36,64.87Z"/><path class="cls-1" d="M156,29.06A13.74,13.74,0,1,0,142.25,42.8,13.76,13.76,0,0,0,156,29.06Z"/><path class="cls-1" d="M148.79,322.61l38.29-66.31L148.79,190H72.21L44.09,238.68,33.92,256.29l9,15.57,29.29,50.74ZM133.47,197.52a3.9,3.9,0,0,1,5.32,1.43l34.56,59.86a3.9,3.9,0,1,1-6.75,3.9L132,202.84A3.9,3.9,0,0,1,133.47,197.52Z"/><polygon class="cls-1" points="148.72 1443.68 254.15 1504.55 359.58 1443.68 359.58 1321.94 254.15 1261.07 148.72 1321.94 148.72 1443.68"/><path class="cls-1" d="M195.1,842.77a3.79,3.79,0,0,1-2.46,1.42L149.74,869V990.33L254.86,1051,360,990.33V869L254.86,808.26Z"/><path class="cls-1" d="M71.24,1089.59,33,1155.9l38.29,66.32h76.57l38.29-66.32-38.29-66.31Zm101.28,73.36a3.9,3.9,0,0,1-5.32-1.43l-34.56-59.86a3.9,3.9,0,0,1,6.75-3.9l34.56,59.86A3.9,3.9,0,0,1,172.52,1162.94Z"/></g></g></svg>