<svg xmlns="http://www.w3.org/2000/svg" viewBox="0 0 14.01 13"><defs><style>.cls-1{fill:#b2b2b1;}</style></defs><title>Asset 20</title><g id="Layer_2" data-name="Layer 2"><g id="Layer_2-2" data-name="Layer 2"><path class="cls-1" d="M13.15,6.12.88,6.18a.49.49,0,0,0-.49.63l1.34,5.56a.86.86,0,0,0,.8.62l9.05,0a.86.86,0,0,0,.79-.63l1.28-5.58A.49.49,0,0,0,13.15,6.12Z"/><path class="cls-1" d="M13.75,3.84H12.24a.24.24,0,0,1-.18-.07L8.32.08a.28.28,0,0,0-.4,0L7.64.37a.28.28,0,0,0,0,.4l3,3s.11.1-.05.1l-7.27,0c-.09,0,0-.07,0-.07l3-3.06a.28.28,0,0,0,0-.4L6,.09a.28.28,0,0,0-.4,0L1.95,3.84a.22.22,0,0,1-.16.07H.26A.25.25,0,0,0,0,4.23L.17,5a.41.41,0,0,0,.39.31l12.92-.07a.41.41,0,0,0,.38-.32L14,4.15A.25.25,0,0,0,13.75,3.84Z"/></g></g></svg>