<svg xmlns="http://www.w3.org/2000/svg" viewBox="0 0 53.24 31.2"><defs><style>.cls-1{fill:none;stroke:#000;stroke-miterlimit:10;stroke-width:1.93px;opacity:0.07;}</style></defs><title>Asset 6</title><g id="Layer_2" data-name="Layer 2"><g id="Layer_2-2" data-name="Layer 2"><path class="cls-1" d="M26.07,30.11h3.07a2.59,2.59,0,0,0,1.4-.61A2.25,2.25,0,0,0,31,28.16S30.9,24,32.81,23.43s4.3,4,6.86,5.74a4.86,4.86,0,0,0,3.41,1l6.85-.1s3.58-.22,1.88-3c-.14-.23-1-2.08-5.1-5.89-4.3-4-3.72-3.34,1.45-10.24,3.15-4.2,4.41-6.77,4-7.86s-2.69-.77-2.69-.77l-7.72,0a1.75,1.75,0,0,0-1,.18,2.15,2.15,0,0,0-.68.83,44.76,44.76,0,0,1-2.85,6c-3.44,5.83-4.81,6.14-5.37,5.78-1.31-.84-1-3.39-1-5.2,0-5.65.86-8-1.67-8.62A13.19,13.19,0,0,0,25.64,1c-2.75,0-5.08,0-6.4.65-.88.43-1.55,1.39-1.14,1.44a3.46,3.46,0,0,1,2.28,1.14c.79,1.08.76,3.49.76,3.49s.45,6.66-1.06,7.48c-1,.57-2.47-.59-5.53-5.88A49.23,49.23,0,0,1,11.79,3.6a2.29,2.29,0,0,0-.64-.86A3.19,3.19,0,0,0,10,2.26l-7.33,0s-1.1,0-1.5.51,0,1.31,0,1.31,5.74,13.43,12.24,20.2c6,6.21,12.73,5.8,12.73,5.8Z"/></g></g></svg>