<svg xmlns="http://www.w3.org/2000/svg" viewBox="0 0 47.9 63.81"><defs><style>.cls-1{opacity:0.07;}.cls-2{fill:none;stroke:#000;stroke-linejoin:round;stroke-width:2px;}</style></defs><title>Asset 10</title><g id="Layer_2" data-name="Layer 2"><g id="Layer_2-2" data-name="Layer 2"><g class="cls-1"><path class="cls-2" d="M46.9,44.88l-5.14,7.4H38c0-.25,0-.49,0-.74a14.08,14.08,0,1,0-28.17,0c0,.25,0,.49,0,.74H6.27L1,44.88C1,38.35,14.63,32.4,18.27,31.81c1.13-.17,1.16-3.26,1.16-3.26a15.68,15.68,0,0,1-4.06-7.66c-1.95,0-3.15-4.66-1.2-6.3C14.1,12.85,11.66,1,23.94,1s9.86,11.85,9.78,13.59c2,1.64.76,6.3-1.2,6.3a15.59,15.59,0,0,1-4,7.66,9.4,9.4,0,0,0,.15,1.57c.15.8.43,1.61,1,1.69C33.27,32.4,46.9,38.35,46.9,44.88Z"/><path class="cls-2" d="M23.94,40.25A11.29,11.29,0,0,0,12.67,51.53c0,.25,0,.5,0,.74a11.28,11.28,0,0,0,22.51,0c0-.24,0-.49,0-.74A11.29,11.29,0,0,0,23.94,40.25Zm5,12.63H25.3v3.66a.64.64,0,0,1-.63.63H23.23a.64.64,0,0,1-.63-.63V52.88H18.94a.64.64,0,0,1-.63-.6V50.81a.64.64,0,0,1,.63-.63H22.6V46.53a.64.64,0,0,1,.63-.64h1.44a.64.64,0,0,1,.63.64v3.64h3.64a.64.64,0,0,1,.64.63v1.47A.64.64,0,0,1,28.94,52.88Z"/></g></g></g></svg>