<?xml version="1.0" encoding="utf-8"?>
<!-- Generator: Adobe Illustrator 19.2.0, SVG Export Plug-In . SVG Version: 6.00 Build 0)  -->
<svg version="1.1" id="Слой_1" xmlns="http://www.w3.org/2000/svg" xmlns:xlink="http://www.w3.org/1999/xlink" x="0px" y="0px"
	 viewBox="0 0 81.3 81.3" style="enable-background:new 0 0 81.3 81.3;" xml:space="preserve">
<style type="text/css">
	.st0{fill:none;stroke:#68A5B7;stroke-width:2.4424;stroke-miterlimit:10;}
</style>
<path class="st0" d="M80.1,40.6c0,13.7-7,25.8-17.6,32.9V61.5c0-6.2-12.9-11.8-16.4-12.4C45,48.9,44.9,46,44.9,46s3.2-3.1,3.8-7.3
	c1.9,0,3-4.4,1.1-6c0.1-1.6,2.4-12.9-9.3-12.9c-11.7,0-9.4,11.2-9.3,12.9c-1.9,1.6-0.7,6,1.1,6c0.7,4.2,3.8,7.3,3.8,7.3
	s0,2.9-1.1,3.1c-3.5,0.5-16.4,6.2-16.4,12.4v12.1C8.2,66.5,1.2,54.4,1.2,40.6c0-21.8,17.6-39.4,39.4-39.4
	C62.4,1.2,80.1,18.9,80.1,40.6z"/>
<path class="st0" d="M62.4,61.5v12.1c-6.2,4.1-13.7,6.6-21.8,6.6s-15.5-2.4-21.8-6.6V61.5c0-6.2,12.9-11.8,16.4-12.4
	c1.1-0.2,1.1-3.1,1.1-3.1s-3.2-3.1-3.8-7.3c-1.9,0-3-4.4-1.1-6c-0.1-1.6-2.4-12.9,9.3-12.9c11.7,0,9.4,11.2,9.3,12.9
	c1.9,1.6,0.7,6-1.1,6c-0.7,4.2-3.8,7.3-3.8,7.3s0,2.9,1.1,3.1C49.5,49.6,62.4,55.3,62.4,61.5z"/>
</svg>
