<?xml version="1.0" encoding="utf-8"?>
<!-- Generator: Adobe Illustrator 19.2.0, SVG Export Plug-In . SVG Version: 6.00 Build 0)  -->
<svg version="1.1" id="Слой_1" xmlns="http://www.w3.org/2000/svg" xmlns:xlink="http://www.w3.org/1999/xlink" x="0px" y="0px"
	 viewBox="0 0 31.1 31.1" style="enable-background:new 0 0 31.1 31.1;" xml:space="preserve">
<style type="text/css">
	.st0{fill:#6A95C6;enable-background:new    ;}
	.st1{fill:#FFFFFF;}
</style>
<title>Asset 11</title>
<g id="Layer_2">
	<g id="Layer_2-2">
		<circle class="st0" cx="15.6" cy="15.6" r="15.6"/>
		<path class="st1" d="M16.3,19.8c-0.9,0.9-2.1,1.5-3.4,1.6c-3.2,0.4-6.1-1.8-6.5-5c-0.4-3.1,1.8-6,4.9-6.5C13,9.5,14.7,10,16,11.1
			l0.1,0.1L14.4,13c-0.4-0.4-0.9-0.7-1.4-0.8c-1.9-0.4-3.7,0.9-4,2.8c-0.4,1.9,0.9,3.7,2.8,4c1.5,0.4,3-0.4,3.5-1.9
			c0-0.1,0.1-0.2,0.1-0.4h-3.1c0-0.8,0-1.5,0-2.2c0,0,0.1-0.1,0.2-0.1c0.4,0,0.7,0,1.1,0c1.3,0,2.5,0,3.8,0c0.3,0,0.4,0.1,0.5,0.4
			C18.1,16.6,17.5,18.4,16.3,19.8z"/>
		<path class="st1" d="M24.7,16h-2v2h-1.5v-2h-0.9h-1.1c0-0.4,0-0.7,0-1.1c0-0.1,0-0.2,0-0.4h2v-2c0.5,0,0.9,0,1.4,0
			c0,0,0.1,0.1,0.1,0.2c0,0.5,0,1,0,1.5v0.3h2L24.7,16z"/>
	</g>
</g>
</svg>
