<svg xmlns="http://www.w3.org/2000/svg" viewBox="0 0 31.15 31.15"><defs><style>.cls-1{opacity:0.2;}.cls-2{fill:#fff;}</style></defs><title>Asset 11</title><g id="Layer_2" data-name="Layer 2"><g id="Layer_2-2" data-name="Layer 2"><circle class="cls-1" cx="15.58" cy="15.58" r="15.58"/><path class="cls-2" d="M16.32,19.79a5.24,5.24,0,0,1-3.38,1.58A5.83,5.83,0,0,1,11.28,9.83,5.6,5.6,0,0,1,16,11.12l.14.11L14.44,13A3.27,3.27,0,0,0,13,12.19,3.45,3.45,0,1,0,11.73,19a3,3,0,0,0,3.51-1.86c0-.11.06-.22.1-.37H12.23c0-.77,0-1.5,0-2.24,0,0,.12-.13.19-.13.36,0,.73,0,1.09,0,1.27,0,2.54,0,3.81,0,.29,0,.42.06.46.37A6,6,0,0,1,16.32,19.79Z"/><path class="cls-2" d="M24.74,16h-2v2H21.26V16h-.94l-1.08,0c0-.37,0-.74,0-1.11,0-.1,0-.21,0-.36h2v-2c.47,0,.92,0,1.36,0,0,0,.13.15.13.23,0,.49,0,1,0,1.46v.34h2Z"/></g></g></svg>