<?xml version="1.0" encoding="utf-8"?>
<!-- Generator: Adobe Illustrator 19.2.0, SVG Export Plug-In . SVG Version: 6.00 Build 0)  -->
<svg version="1.1" id="Слой_1" xmlns="http://www.w3.org/2000/svg" xmlns:xlink="http://www.w3.org/1999/xlink" x="0px" y="0px"
	 viewBox="0 0 31.1 31.1" style="enable-background:new 0 0 31.1 31.1;" xml:space="preserve">
<style type="text/css">
	.st0{fill:#6A95C6;enable-background:new    ;}
	.st1{fill:#FFFFFF;}
</style>
<title>Asset 9</title>
<g id="Layer_2">
	<g id="Layer_2-2">
		<circle class="st0" cx="15.6" cy="15.6" r="15.6"/>
		<path class="st1" d="M15.4,21h1.2c0.2,0,0.4-0.1,0.5-0.2c0.1-0.1,0.2-0.3,0.2-0.5c0,0,0-1.5,0.7-1.8s1.6,1.5,2.6,2.1
			c0.4,0.3,0.8,0.4,1.3,0.4h2.6c0,0,1.3-0.1,0.7-1.1c-0.5-0.8-1.2-1.6-1.9-2.2c-1.6-1.5-1.4-1.2,0.5-3.8c1.2-1.6,1.6-2.5,1.5-2.9
			s-1-0.3-1-0.3h-2.9c-0.1,0-0.3,0-0.4,0.1c-0.1,0.1-0.2,0.2-0.3,0.3c-0.3,0.8-0.7,1.5-1.1,2.2c-1.3,2.2-1.8,2.3-2,2.2
			c-0.5-0.3-0.4-1.3-0.4-1.9c0-2.1,0.3-3-0.6-3.2c-0.4-0.1-0.9-0.1-1.4-0.1c-0.8-0.1-1.6,0-2.4,0.2c-0.3,0.2-0.6,0.5-0.4,0.5
			c0.3,0,0.6,0.2,0.9,0.4c0.2,0.4,0.3,0.9,0.3,1.3c0,0,0.2,2.5-0.4,2.8c-0.4,0.2-0.9-0.2-2.1-2.2c-0.4-0.7-0.7-1.4-1-2.1
			C10,11,9.9,10.9,9.8,10.8c-0.1-0.1-0.3-0.2-0.4-0.2H6.6c0,0-0.4,0-0.6,0.2s0,0.5,0,0.5s2.2,5,4.6,7.6C11.9,20.2,13.6,20.9,15.4,21
			z"/>
	</g>
</g>
</svg>
