<svg xmlns="http://www.w3.org/2000/svg" viewBox="0 0 31.15 31.15"><defs><style>.cls-1{opacity:0.2;}.cls-2{fill:#fff;fill-rule:evenodd;}</style></defs><title>Asset 9</title><g id="Layer_2" data-name="Layer 2"><g id="Layer_2-2" data-name="Layer 2"><circle class="cls-1" cx="15.58" cy="15.58" r="15.58"/><path class="cls-2" d="M15.37,21h1.15a1,1,0,0,0,.52-.23.84.84,0,0,0,.16-.5s0-1.54.69-1.77,1.61,1.49,2.57,2.15a1.82,1.82,0,0,0,1.28.39l2.57,0s1.34-.08.71-1.14a8.58,8.58,0,0,0-1.91-2.21c-1.61-1.49-1.39-1.25.55-3.84,1.18-1.57,1.65-2.53,1.51-2.95s-1-.29-1-.29l-2.89,0a.66.66,0,0,0-.37.07.81.81,0,0,0-.26.31,16.77,16.77,0,0,1-1.07,2.25c-1.29,2.19-1.8,2.3-2,2.17-.49-.32-.37-1.27-.37-1.95,0-2.12.32-3-.63-3.23a4.94,4.94,0,0,0-1.35-.13,6.23,6.23,0,0,0-2.4.25c-.33.16-.58.52-.43.54a1.3,1.3,0,0,1,.85.43,2.79,2.79,0,0,1,.29,1.31s.17,2.49-.4,2.8c-.39.21-.92-.22-2.07-2.2a18.44,18.44,0,0,1-1-2.14.86.86,0,0,0-.24-.32,1.19,1.19,0,0,0-.44-.18l-2.75,0s-.41,0-.56.19,0,.49,0,.49,2.15,5,4.59,7.57A6.6,6.6,0,0,0,15.37,21Z"/></g></g></svg>