<svg xmlns="http://www.w3.org/2000/svg" viewBox="0 0 60.98 63.97"><defs><style>.cls-1{fill:#68a5b7;}.cls-2,.cls-3,.cls-4{fill:none;stroke:#68a5b7;stroke-linecap:round;stroke-linejoin:round;}.cls-2,.cls-3{stroke-width:2.08px;}.cls-2{fill-rule:evenodd;}.cls-4{stroke-width:2px;}</style></defs><title>Asset 6</title><g id="Layer_2" data-name="Layer 2"><g id="Layer_2-2" data-name="Layer 2"><path class="cls-1" d="M53.49,43.18a5.66,5.66,0,0,1,5.24,7.27C57.5,54.73,52.46,58,48.41,60.56l-1.58,1-1.61-1C41.11,58.11,36,55,34.65,50.76a5.56,5.56,0,0,1,.8-5.08,5.5,5.5,0,0,1,4.37-2.33c2,0,3.72,1.17,5.1,3.39l1.75,2.81,1.68-2.85c1.35-2.31,3.13-3.52,5.14-3.52m0-2c-2.43,0-5,1.3-6.87,4.51-1.92-3.08-4.42-4.33-6.8-4.33a7.65,7.65,0,0,0-7.08,10c1.91,6,9.46,9.56,14.12,12.61,4.58-3.17,12-6.91,13.79-13a7.66,7.66,0,0,0-7.16-9.82Z"/><path class="cls-2" d="M27.45,55.65H2.54A1.51,1.51,0,0,1,1,54.15V2.54A1.51,1.51,0,0,1,2.54,1H45.17a1.51,1.51,0,0,1,1.5,1.5V38.45"/><line class="cls-3" x1="7.29" y1="14.28" x2="39.71" y2="14.28"/><line class="cls-3" x1="7.29" y1="22.62" x2="39.71" y2="22.62"/><line class="cls-4" x1="7.29" y1="30.96" x2="23.86" y2="30.96"/></g></g></svg>