<svg xmlns="http://www.w3.org/2000/svg" viewBox="0 0 14.02 15.39"><defs><style>.cls-1{fill:#6eb1ba;}</style></defs><title>Asset 21</title><g id="Layer_2" data-name="Layer 2"><g id="Layer_2-2" data-name="Layer 2"><path class="cls-1" d="M7.65,15.37l3.67,0A1.69,1.69,0,0,0,13,13.64l0-5.74a.51.51,0,0,0-.51-.5l-4.86,0Zm0,0"/><path class="cls-1" d="M1.1,13.71a1.69,1.69,0,0,0,1.7,1.68l3.89,0,0-7.94-5.07,0a.51.51,0,0,0-.5.51Zm0,0"/><path class="cls-1" d="M0,6a.51.51,0,0,0,.51.5l6.13,0,0-2.85-4.94,0A1.69,1.69,0,0,0,0,5.37ZM0,6"/><path class="cls-1" d="M7.59,3.64l0,2.85,5.91,0a.51.51,0,0,0,.5-.51V5.29a1.69,1.69,0,0,0-1.7-1.68Zm0,0"/><path class="cls-1" d="M12,2.44C12,1,11.16,0,9.93,0A4,4,0,0,0,7.09,1.6,4.18,4.18,0,0,0,4.15,0,2.2,2.2,0,0,0,2.06,2.49a.51.51,0,0,0,.51.5l8.89,0a.51.51,0,0,0,.5-.51ZM3.16,2a1,1,0,0,1,1-.92A3.12,3.12,0,0,1,6,2Zm5,0A3.12,3.12,0,0,1,10,1a1,1,0,0,1,1,.91Zm0,0"/></g></g></svg>