<svg xmlns="http://www.w3.org/2000/svg" viewBox="0 0 35.73 56.08"><defs><style>.cls-1{fill:none;stroke:#000;stroke-miterlimit:10;stroke-width:2px;fill-rule:evenodd;opacity:0.07;}</style></defs><title>Asset 7</title><g id="Layer_2" data-name="Layer 2"><g id="Layer_2-2" data-name="Layer 2"><path class="cls-1" d="M34.23,29.12c-.8-1.61-3-2.95-6-.62-4,3.14-10.39,3.14-10.39,3.14s-6.4,0-10.39-3.14c-2.95-2.32-5.17-1-6,.62-1.4,2.81.18,4.16,3.74,6.45,3,2,7.22,2.68,9.92,3l-2.25,2.25L4.55,49.14a3.25,3.25,0,0,0,0,4.6l.38.38a3.24,3.24,0,0,0,2.3,1h0a3.24,3.24,0,0,0,2.3-1l8.36-8.36,8.36,8.36a3.25,3.25,0,0,0,4.6,0l.38-.38a3.25,3.25,0,0,0,0-4.6l-8.36-8.36-2.26-2.26c2.7-.28,6.84-1,9.85-2.95,3.56-2.29,5.14-3.64,3.74-6.45ZM17.87,6.21a7,7,0,1,1-7,7,7,7,0,0,1,7-7Zm0,21.18A14.19,14.19,0,1,0,3.67,13.19,14.19,14.19,0,0,0,17.87,27.39Z"/></g></g></svg>