<?xml version="1.0" encoding="utf-8"?>
<!-- Generator: Adobe Illustrator 19.2.0, SVG Export Plug-In . SVG Version: 6.00 Build 0)  -->
<svg version="1.1" id="Слой_1" xmlns="http://www.w3.org/2000/svg" xmlns:xlink="http://www.w3.org/1999/xlink" x="0px" y="0px"
	 viewBox="0 0 31.1 31.1" style="enable-background:new 0 0 31.1 31.1;" xml:space="preserve">
<style type="text/css">
	.st0{fill:#6A95C6;enable-background:new    ;}
	.st1{fill:#FFFFFF;}
</style>
<title>Asset 12</title>
<g id="Layer_2">
	<g id="Layer_2-2">
		<circle class="st0" cx="15.6" cy="15.6" r="15.6"/>
		<path class="st1" d="M24.4,10.4c-0.6,0.3-1.3,0.5-2,0.5c0.7-0.4,1.3-1.1,1.5-1.9c-0.7,0.4-1.4,0.7-2.2,0.8
			c-1.3-1.4-3.5-1.5-4.8-0.2c-0.9,0.9-1.3,2.1-1,3.3c-2.8-0.1-5.3-1.4-7.1-3.6C7.9,11,8.4,13,9.9,14c-0.5,0-1.1-0.2-1.6-0.4l0,0
			c0,1.7,1.1,3.1,2.8,3.4c-0.5,0.1-1,0.1-1.6,0c0.4,1.4,1.7,2.4,3.2,2.4c-1.2,1-2.7,1.5-4.3,1.5c-0.3,0-0.5,0-0.8,0
			c4.5,2.9,10.6,1.6,13.5-3c1-1.6,1.5-3.4,1.5-5.2c0-0.1,0-0.3,0-0.4C23.3,11.7,23.9,11.1,24.4,10.4L24.4,10.4z"/>
	</g>
</g>
</svg>
