<svg xmlns="http://www.w3.org/2000/svg" viewBox="0 0 31.15 31.15"><defs><style>.cls-1{opacity:0.2;}.cls-2{fill:#fff;}</style></defs><title>Asset 12</title><g id="Layer_2" data-name="Layer 2"><g id="Layer_2-2" data-name="Layer 2"><circle class="cls-1" cx="15.58" cy="15.58" r="15.58"/><path class="cls-2" d="M24.36,10.4a6.85,6.85,0,0,1-2,.54A3.44,3.44,0,0,0,23.9,9a6.86,6.86,0,0,1-2.18.83A3.43,3.43,0,0,0,15.88,13,9.73,9.73,0,0,1,8.82,9.42,3.43,3.43,0,0,0,9.88,14a3.41,3.41,0,0,1-1.55-.43v0A3.43,3.43,0,0,0,11.08,17,3.43,3.43,0,0,1,9.53,17a3.43,3.43,0,0,0,3.2,2.38,6.88,6.88,0,0,1-4.26,1.47,7,7,0,0,1-.82,0,9.75,9.75,0,0,0,15-8.21q0-.22,0-.44a7,7,0,0,0,1.71-1.77Z"/></g></g></svg>