<!-- Generator: Adobe Illustrator 19.1.1, SVG Export Plug-In  -->
<svg version="1.1"
	 xmlns="http://www.w3.org/2000/svg" xmlns:xlink="http://www.w3.org/1999/xlink" xmlns:a="http://ns.adobe.com/AdobeSVGViewerExtensions/3.0/"
	 x="0px" y="0px" width="177px" height="178px" viewBox="0 0 177 178" style="enable-background:new 0 0 177 178;"
	 xml:space="preserve">
<style type="text/css">
	.st0{fill:#F2F2F2;}
	.st1{opacity:7.000000e-002;}
</style>
<defs>
</defs>
<circle class="st0" cx="88.5" cy="88.5" r="88.5"/>
<g class="st1">
	<path d="M88.5,133.7l-38.7-22.4V66.6l38.7-22.4l38.7,22.4v44.7L88.5,133.7z M51.1,110.6l37.4,21.6l37.4-21.6V67.4L88.5,45.8
		L51.1,67.4V110.6z"/>
	<g>
		<g>
			<rect x="87.8" y="0.6" width="1.3" height="44.4"/>
			<rect x="87.8" y="133" width="1.3" height="44.4"/>
		</g>
		<g>
			<rect x="127.1" y="88.3" width="49.8" height="1.3"/>
			<rect x="0.1" y="88.3" width="50.2" height="1.3"/>
		</g>
	</g>
	<g>
		<g>
			<rect x="9" y="55.2" transform="matrix(0.866 0.5 -0.5 0.866 32.1347 -8.1046)" width="44.4" height="1.3"/>
			<rect x="123.6" y="121.4" transform="matrix(0.866 0.5 -0.5 0.866 80.5798 -56.5497)" width="44.4" height="1.3"/>
		</g>
		<g>
			<rect x="119.6" y="9.1" transform="matrix(0.866 0.5 -0.5 0.866 33.1092 -55.5757)" width="1.3" height="49.8"/>
			<rect x="56.2" y="118.7" transform="matrix(0.866 0.5 -0.5 0.866 79.5289 -9.1566)" width="1.3" height="50.2"/>
		</g>
	</g>
	<g>
		<g>
			<rect x="30.5" y="99.9" transform="matrix(0.5 0.866 -0.866 0.5 121.3275 34.0323)" width="1.3" height="44.4"/>
			<rect x="145.2" y="33.7" transform="matrix(0.5 0.866 -0.866 0.5 121.3265 -98.3218)" width="1.3" height="44.4"/>
		</g>
		<g>
			<rect x="31.9" y="33.3" transform="matrix(0.5 0.866 -0.866 0.5 57.8121 -32.1446)" width="49.8" height="1.3"/>
			<rect x="95.1" y="143.2" transform="matrix(0.5 0.866 -0.866 0.5 184.6304 -32.1447)" width="50.2" height="1.3"/>
		</g>
	</g>
	<g>
		<g>
			<rect x="41.4" y="21.7" transform="matrix(0.8872 0.4613 -0.4613 0.8872 23.4347 -14.8522)" width="1.3" height="37.6"/>
			
				<rect x="50.8" y="23.9" transform="matrix(0.9991 4.150978e-002 -4.150978e-002 0.9991 1.0816 -2.8696)" width="37.8" height="1.3"/>
			
				<rect x="50.6" y="38.5" transform="matrix(4.600053e-002 0.9989 -0.9989 4.600053e-002 105.2498 2.5241)" width="1.3" height="35.8"/>
			<rect x="78.2" y="22.6" transform="matrix(0.8419 0.5396 -0.5396 0.8419 34.3051 -36.1519)" width="1.3" height="35.8"/>
			<rect x="30.7" y="12.2" transform="matrix(0.4754 0.8798 -0.8798 0.4754 46.6392 -9.5872)" width="1.3" height="44.1"/>
			<rect x="69" y="-9.9" transform="matrix(0.5241 0.8516 -0.8516 0.5241 43.5408 -53.4931)" width="1.3" height="44.3"/>
		</g>
		<g>
			<rect x="116.1" y="39.8" transform="matrix(0.4614 0.8872 -0.8872 0.4614 108.6168 -97.891)" width="37.6" height="1.3"/>
			
				<rect x="106.7" y="5.7" transform="matrix(4.151075e-002 0.9991 -0.9991 4.151075e-002 127.5129 -83.702)" width="1.3" height="37.8"/>
			
				<rect x="107.8" y="55.7" transform="matrix(0.9989 4.594887e-002 -4.594887e-002 0.9989 2.7227 -5.7171)" width="35.8" height="1.3"/>
			<rect x="80.3" y="39.8" transform="matrix(0.5396 0.8419 -0.8419 0.5396 79.2649 -64.0226)" width="35.8" height="1.3"/>
			<rect x="123.6" y="33.7" transform="matrix(0.8798 0.4754 -0.4754 0.8798 33.8202 -65.1172)" width="44.1" height="1.3"/>
			<rect x="85.2" y="11.6" transform="matrix(0.8516 0.5242 -0.5242 0.8516 22.3357 -54.4752)" width="44.3" height="1.3"/>
		</g>
	</g>
	<g>
		<g>
			<rect x="23.1" y="54.3" transform="matrix(0.8431 0.5377 -0.5377 0.8431 43.0045 -1.2986)" width="1.3" height="37.6"/>
			<rect x="4.8" y="104.2" transform="matrix(0.5355 0.8445 -0.8445 0.5355 99.582 28.6636)" width="37.8" height="1.3"/>
			<rect x="24.2" y="72.4" transform="matrix(0.4597 0.8881 -0.8881 0.4597 87.651 2.1407)" width="35.8" height="1.3"/>
			<rect x="41.4" y="87" transform="matrix(0.8883 0.4593 -0.4593 0.8883 52.8808 -7.6035)" width="1.3" height="35.8"/>
			
				<rect x="-9.1" y="66.2" transform="matrix(2.823394e-002 0.9996 -0.9996 2.823394e-002 79.4585 51.9784)" width="44.1" height="1.3"/>
			
				<rect x="12.3" y="88.9" transform="matrix(0.9996 2.811985e-002 -2.811985e-002 0.9996 3.128 -0.3215)" width="1.3" height="44.3"/>
		</g>
	</g>
	<g>
		<g>
			<rect x="134.9" y="72.4" transform="matrix(0.5377 0.8432 -0.8432 0.5377 132.6596 -95.8173)" width="37.6" height="1.3"/>
			<rect x="153" y="86" transform="matrix(0.8445 0.5355 -0.5355 0.8445 80.0558 -66.0057)" width="1.3" height="37.8"/>
			<rect x="134.7" y="55.2" transform="matrix(0.8881 0.4597 -0.4597 0.8881 48.7518 -54.0416)" width="1.3" height="35.8"/>
			<rect x="117.5" y="104.2" transform="matrix(0.4593 0.8883 -0.8883 0.4593 166.3793 -63.5129)" width="35.8" height="1.3"/>
			
				<rect x="163.8" y="44.8" transform="matrix(0.9996 2.821977e-002 -2.821977e-002 0.9996 1.9522 -4.6137)" width="1.3" height="44.1"/>
			
				<rect x="142.3" y="110.4" transform="matrix(2.812047e-002 0.9996 -0.9996 2.812047e-002 270.8219 -56.4365)" width="44.3" height="1.3"/>
		</g>
	</g>
	<g>
		<g>
			<rect x="23.3" y="136.8" transform="matrix(0.4614 0.8872 -0.8872 0.4614 144.6516 36.73)" width="37.6" height="1.3"/>
			
				<rect x="69" y="134.5" transform="matrix(4.150077e-002 0.9991 -0.9991 4.150077e-002 219.9919 77.4643)" width="1.3" height="37.8"/>
			
				<rect x="33.4" y="121" transform="matrix(0.9989 4.595043e-002 -4.595043e-002 0.9989 5.6434 -2.228)" width="35.8" height="1.3"/>
			<rect x="60.9" y="136.9" transform="matrix(0.5396 0.8419 -0.8419 0.5396 152.0768 -3.0522)" width="35.8" height="1.3"/>
			<rect x="9.3" y="143" transform="matrix(0.8798 0.4754 -0.4754 0.8798 72.069 2.3746)" width="44.1" height="1.3"/>
			<rect x="47.5" y="165.1" transform="matrix(0.8516 0.5242 -0.5242 0.8516 97.2278 -11.8909)" width="44.3" height="1.3"/>
		</g>
		<g>
			<rect x="134.2" y="118.7" transform="matrix(0.8872 0.4613 -0.4613 0.8872 78.6455 -46.7323)" width="1.3" height="37.6"/>
			
				<rect x="88.5" y="152.7" transform="matrix(0.9991 4.150803e-002 -4.150803e-002 0.9991 6.4595 -4.3242)" width="37.8" height="1.3"/>
			
				<rect x="125" y="103.7" transform="matrix(4.595109e-002 0.9989 -0.9989 4.595109e-002 241.4311 -9.522)" width="1.3" height="35.8"/>
			<rect x="97.5" y="119.6" transform="matrix(0.8419 0.5396 -0.5396 0.8419 89.7389 -31.2242)" width="1.3" height="35.8"/>
			<rect x="145" y="121.6" transform="matrix(0.4754 0.8798 -0.8798 0.4754 202.8204 -52.7551)" width="1.3" height="44.1"/>
			<rect x="106.7" y="143.6" transform="matrix(0.5241 0.8516 -0.8516 0.5241 192.2875 -12.5437)" width="1.3" height="44.3"/>
		</g>
	</g>
</g>
</svg>
