<!-- Generator: Adobe Illustrator 19.1.1, SVG Export Plug-In  -->
<svg version="1.1"
	 xmlns="http://www.w3.org/2000/svg" xmlns:xlink="http://www.w3.org/1999/xlink" xmlns:a="http://ns.adobe.com/AdobeSVGViewerExtensions/3.0/"
	 x="0px" y="0px" width="64.3px" height="114.2px" viewBox="0 0 64.3 114.2" style="enable-background:new 0 0 64.3 114.2;"
	 xml:space="preserve">
<style type="text/css">
	.st0{fill:#D463C1;}
</style>
<defs>
</defs>
<g>
	<g>
		<g>
			<g>
				<path class="st0" d="M32.2,30.2L32.2,30.2c-1.7,0-3.1-1.4-3.1-3v-3.3c0-1.7,1.4-3,3-3c1.7,0,3.1,1.4,3.1,3v3.3
					C35.2,28.9,33.8,30.2,32.2,30.2z M32.2,22.7c-0.7,0-1.2,0.5-1.2,1.2v3.3c0,0.6,0.5,1.2,1.2,1.2h0c0.6,0,1.2-0.5,1.2-1.2v-3.3
					C33.3,23.2,32.8,22.7,32.2,22.7z"/>
			</g>
			<g>
				<path class="st0" d="M32.1,38.8c-2.6,0-4.7-2.1-4.7-4.7c0-2.6,2.1-4.7,4.7-4.7c2.6,0,4.7,2.1,4.7,4.7
					C36.9,36.7,34.8,38.8,32.1,38.8z M32.1,31.2c-1.6,0-2.9,1.3-2.9,2.9c0,1.6,1.3,2.9,2.9,2.9c1.6,0,2.9-1.3,2.9-2.9
					C35,32.5,33.7,31.2,32.1,31.2z"/>
			</g>
			<g>
				<path class="st0" d="M7.2,48l-0.5-1.8l0.3,0.9l-0.3-0.9c0.3-0.1,8.4-2.7,7.4-15.1c-0.6-6.8-1.4-29.2,11.1-30.9
					c4.4-0.6,7.8,0.2,10.1,2.3c2.1,2,3.1,5.2,2.7,9c-0.3,3.7-2.1,6-3.5,7.6c-0.8,1-1.5,1.8-1.4,2.5l-1.8,0.3
					C31,20.5,31.9,19.3,33,18c1.2-1.5,2.8-3.5,3.1-6.6c0.2-1.9,0.1-5.4-2.2-7.5c-1.8-1.7-4.7-2.3-8.5-1.8
					c-8.6,1.2-10.6,15.7-9.5,28.9C17.1,44.9,7.3,48,7.2,48z"/>
			</g>
		</g>
		<g>
			<path class="st0" d="M32.1,102.1c-12,0-21.8-9.8-21.8-21.8C10.4,68.4,20,38,32.1,38c12.1,0,21.7,30.4,21.7,42.3
				C53.9,92.3,44.1,102.1,32.1,102.1z M32.1,39.9c-10.9,0-19.9,29.4-19.9,40.4c0,11,8.9,19.9,19.9,19.9c11,0,19.9-8.9,19.9-19.9
				C52,69.2,43,39.9,32.1,39.9z"/>
		</g>
		<g>
			<path class="st0" d="M32.1,96.5c-8.9,0-16.1-7.2-16.1-16.1c0-12.6,9.7-36.7,16.1-36.7c6.5,0,16.1,24.1,16.1,36.7
				C48.3,89.2,41.1,96.5,32.1,96.5z M32.1,45.5c-4.4,0-14.3,22.2-14.3,34.8c0,7.9,6.4,14.3,14.3,14.3c7.9,0,14.3-6.4,14.3-14.3
				C46.4,67.7,36.6,45.5,32.1,45.5z"/>
		</g>
		<g>
			<g>
				<path class="st0" d="M7,96.5c-3.9,0-7-3.1-7-7c0-3.9,3.1-7,7-7c3.9,0,7,3.1,7,7C14,93.3,10.9,96.5,7,96.5z M7,84.3
					c-2.8,0-5.1,2.3-5.1,5.1c0,2.8,2.3,5.1,5.1,5.1s5.1-2.3,5.1-5.1C12.1,86.6,9.8,84.3,7,84.3z"/>
			</g>
			<g>
				<path class="st0" d="M57.3,96.5c-3.9,0-7-3.1-7-7c0-3.9,3.1-7,7-7c3.9,0,7,3.1,7,7C64.3,93.3,61.2,96.5,57.3,96.5z M57.3,84.3
					c-2.8,0-5.1,2.3-5.1,5.1c0,2.8,2.3,5.1,5.1,5.1s5.1-2.3,5.1-5.1C62.4,86.6,60.1,84.3,57.3,84.3z"/>
			</g>
		</g>
		<g>
			<g>
				<path class="st0" d="M48.2,109.1c-3.9,0-7-3.1-7-7c0-3.9,3.1-7,7-7c3.9,0,7,3.1,7,7C55.2,106,52,109.1,48.2,109.1z M48.2,97
					c-2.8,0-5.1,2.3-5.1,5.1c0,2.8,2.3,5.1,5.1,5.1c2.8,0,5.1-2.3,5.1-5.1C53.3,99.3,51,97,48.2,97z"/>
			</g>
			<g>
				<path class="st0" d="M16.1,109.1c-3.9,0-7-3.1-7-7c0-3.9,3.1-7,7-7c3.9,0,7,3.1,7,7C23.1,106,20,109.1,16.1,109.1z M16.1,97
					c-2.8,0-5.1,2.3-5.1,5.1c0,2.8,2.3,5.1,5.1,5.1s5.1-2.3,5.1-5.1C21.3,99.3,19,97,16.1,97z"/>
			</g>
		</g>
		<g>
			<path class="st0" d="M32.1,114.2c-3.9,0-7-3.1-7-7c0-3.9,3.1-7,7-7c3.9,0,7,3.1,7,7C39.2,111.1,36,114.2,32.1,114.2z M32.1,102.1
				c-2.8,0-5.1,2.3-5.1,5.1s2.3,5.1,5.1,5.1s5.1-2.3,5.1-5.1S35,102.1,32.1,102.1z"/>
		</g>
	</g>
</g>
</svg>
