<!-- Generator: Adobe Illustrator 19.1.1, SVG Export Plug-In  -->
<svg version="1.1"
	 xmlns="http://www.w3.org/2000/svg" xmlns:xlink="http://www.w3.org/1999/xlink" xmlns:a="http://ns.adobe.com/AdobeSVGViewerExtensions/3.0/"
	 x="0px" y="0px" width="74px" height="95px" viewBox="0 0 74 95" style="enable-background:new 0 0 74 95;" xml:space="preserve">
<style type="text/css">
	.st0{fill:none;}
	.st1{fill:#D463C1;}
</style>
<defs>
</defs>
<g>
	<path class="st0" d="M41.8,45.8c-0.1,0-0.1,0-0.2,0c-1.4-0.2-2.9-0.5-4.6-0.5c-1.9,0-3.4,0.3-4.8,0.5c-0.1,0-0.1,0-0.2,0
		C26.6,48.8,21.7,56.9,19,68.2c-1.5,6.4-0.3,12.8,3.5,17.8c3.5,4.5,8.6,7.1,14.5,7.3c5.8-0.1,11-2.7,14.5-7.3
		c3.8-4.9,5.1-11.4,3.5-17.8C52.3,56.9,47.4,48.8,41.8,45.8z"/>
	<path class="st0" d="M28.9,42.7c-0.3,0.5-0.4,0.9-0.2,1.1c0.1,0.2,0.2,0.5,1,0.5c0.6,0,1.4-0.1,2.4-0.3c1.4-0.2,3-0.5,4.9-0.5
		c2,0,3.7,0.3,5.1,0.5c0.9,0.2,1.7,0.3,2.4,0.3c0.8,0,0.9-0.2,1-0.4c0.2-0.3,0.1-0.7-0.2-1.2c-1-1.7-4.1-3.4-8.1-3.4
		C33,39.3,29.9,41,28.9,42.7z"/>
	<g>
		<path class="st1" d="M35.8,32.2c0,0,0.1-0.1,0.1-0.1c0,0-0.1-0.1-0.1-0.1V32.2z"/>
		<path class="st1" d="M38.5,32.2v-0.4c-0.1,0.1-0.1,0.1-0.2,0.2C38.4,32.1,38.4,32.2,38.5,32.2z"/>
		<path class="st1" d="M30.3,28.9c-0.8-0.2-1.6,0.1-2.4,0.6c-0.5-0.8-1-1.5-1.7-1.7c-0.8-0.3-1.8,0-2.8,0.3c-0.4-1-0.8-1.8-1.6-2.3
			c-0.7-0.4-1.6-0.3-2.5-0.1c-0.2-0.9-0.5-1.7-1.2-2.2c-0.7-0.5-1.7-0.5-2.8-0.5c-0.1-1-0.2-2-0.9-2.6c-0.6-0.6-1.4-0.7-2.3-0.8
			c0-0.9,0-1.8-0.5-2.5c-0.5-0.7-1.5-1-2.5-1.2c0.2-1,0.3-1.9-0.1-2.7c-0.4-0.7-1.1-1.1-1.9-1.4c0.3-0.9,0.5-1.8,0.2-2.6
			C7,8.4,6.2,7.8,5.3,7.4c0.5-0.9,0.8-1.7,0.6-2.6C5.7,4,5.1,3.4,4.4,2.9c0.6-0.8,1-1.6,1-2.5L3.7,0.6c0,0.3-0.3,0.8-0.7,1.3
			C2.4,1.4,1.8,0.9,1.7,0.6L0,0.7c0.1,1.1,1,1.8,1.9,2.5C1.3,4.1,0.7,5.1,0.9,6c0.2,0.9,1,1.5,1.9,2c-0.5,1-0.9,2-0.6,2.9
			c0.4,1,1.4,1.5,2.6,1.9c-0.4,1.1-0.7,2.1-0.2,3c0.5,0.8,1.4,1.2,2.4,1.4c-0.2,1.1-0.3,2.1,0.3,2.9c0.6,0.9,1.8,1,3,1.1
			c-0.1,1.2-0.1,2.3,0.7,3c0.7,0.7,1.7,0.7,2.7,0.7c0.1,1.1,0.3,2.1,1.1,2.7c0.9,0.6,2,0.5,3.1,0.2c0.2,1.2,0.6,2.2,1.5,2.7
			c0.8,0.5,1.8,0.2,2.8-0.1c0.4,1,0.9,1.9,1.8,2.2c1,0.4,2-0.1,3-0.7c0.6,1.1,1.2,2,2.2,2.2c1,0.2,1.8-0.3,2.7-1
			c0.6,0.7,1.2,1.3,2,1.5v-2v-1v-1.9c-0.6,0.2-1.1,0.5-1.6,0.9C31.8,29.9,31.2,29.1,30.3,28.9z"/>
		<path class="st1" d="M74,0.4l-1.7-0.1c0,0.3-0.6,0.8-1.2,1.2c-0.4-0.5-0.8-1.1-0.7-1.4L68.6,0c-0.1,0.9,0.5,1.7,1.1,2.5
			c-0.7,0.6-1.4,1.2-1.5,2c-0.2,0.8,0.1,1.6,0.6,2.4c-0.9,0.5-1.7,1-2,1.9c-0.3,0.8-0.1,1.8,0.3,2.7c-0.8,0.3-1.6,0.8-2,1.5
			c-0.4,0.7-0.3,1.6-0.1,2.5c-1,0.2-2,0.5-2.5,1.2c-0.5,0.7-0.6,1.7-0.5,2.6c-0.9,0.1-1.7,0.3-2.3,0.8c-0.6,0.6-0.8,1.5-0.8,2.4
			c-1-0.1-2-0.1-2.8,0.5c-0.7,0.5-1,1.4-1.2,2.4c-0.9-0.2-1.7-0.2-2.4,0.2c-0.7,0.4-1.2,1.2-1.5,2.2c-1-0.4-1.9-0.6-2.8-0.3
			c-0.8,0.3-1.3,1-1.8,1.9c-0.8-0.4-1.6-0.7-2.4-0.5c-0.8,0.2-1.5,0.9-2.1,1.7c-0.5-0.4-1.1-0.8-1.7-0.9v1.9v1.2v2
			c0.8-0.2,1.4-0.9,2-1.7c0.8,0.6,1.7,1.1,2.6,0.9c1-0.2,1.6-1.1,2.2-2.1c1,0.6,2.1,1.1,3.1,0.7c0.9-0.4,1.4-1.3,1.8-2.4
			c1,0.4,2,0.5,2.8,0.1c0.9-0.5,1.2-1.5,1.4-2.6c1.2,0.3,2.3,0.4,3.2-0.2c0.8-0.6,1-1.7,1.1-2.8c1.1,0.1,2,0,2.7-0.7
			c0.7-0.7,0.7-1.8,0.7-2.9c1.2-0.1,2.3-0.2,3-1.1c0.6-0.8,0.5-1.9,0.2-3.1c1-0.2,2-0.6,2.4-1.4c0.5-0.9,0.2-1.9-0.2-2.9
			c1.1-0.4,2.1-0.9,2.5-1.9c0.4-1-0.1-2-0.7-3c0.9-0.5,1.8-1.1,2-2.1c0.2-0.9-0.3-1.8-0.9-2.7C73.1,2.2,73.9,1.4,74,0.4z"/>
	</g>
	<path class="st1" d="M56.7,67.7c-2-8.4-5.9-17.2-11.4-21.8c0.8-0.2,1.3-0.6,1.6-1.3c0.4-0.8,0.3-1.8-0.3-2.8
		c-0.9-1.5-3.2-3.1-6.3-3.8v-3.2v-2v-1.2v-1.9v-1.2c0-1.2-1.2-2-3.1-2c-1.9,0-3.1,0.8-3.1,2v1.3v1.9v1v2v3.2
		c-3.3,0.7-5.7,2.3-6.6,3.9c-0.6,1-0.7,2-0.3,2.8c0.3,0.7,0.8,1.2,1.6,1.4c-5.5,4.6-9.4,13.4-11.4,21.8C15.6,74.6,17,81.6,21.1,87
		c3.8,5,9.5,7.8,15.8,8c0,0,0,0,0,0c0,0,0,0,0,0c6.4-0.1,12-3,15.8-8C57,81.6,58.4,74.6,56.7,67.7z M37.2,28.3
		c0.8,0,1.3,0.2,1.4,0.2v1.3v2.1v0.4v2.2v3.2c-0.5,0-1-0.1-1.5-0.1c-0.4,0-0.8,0-1.2,0.1l0-3.2l0-2.2v-0.2l0-2.1l0-1.2
		C35.9,28.5,36.4,28.3,37.2,28.3z M28.7,43.8c-0.1-0.3,0-0.7,0.2-1.1c1-1.7,4.1-3.4,8.1-3.4c3.9,0,7,1.7,8.1,3.4
		c0.3,0.5,0.4,0.9,0.2,1.2c-0.1,0.2-0.2,0.4-1,0.4c-0.6,0-1.4-0.1-2.4-0.3c-1.4-0.2-3-0.5-5.1-0.5c-1.9,0-3.6,0.3-4.9,0.5
		c-0.9,0.2-1.7,0.3-2.4,0.3C28.8,44.3,28.8,44.1,28.7,43.8z M51.5,85.9c-3.5,4.6-8.6,7.1-14.5,7.3c-5.8-0.1-11-2.7-14.5-7.3
		C18.7,81,17.4,74.5,19,68.2c2.7-11.2,7.6-19.3,13.2-22.4c0.1,0,0.1,0,0.2,0c1.4-0.2,2.9-0.5,4.8-0.5c1.7,0,3.3,0.3,4.6,0.5
		c0.1,0,0.1,0,0.2,0c5.5,3.1,10.4,11.2,13.1,22.4C56.5,74.5,55.2,81,51.5,85.9z"/>
</g>
</svg>
