<!-- Generator: Adobe Illustrator 19.1.1, SVG Export Plug-In  -->
<svg version="1.1"
	 xmlns="http://www.w3.org/2000/svg" xmlns:xlink="http://www.w3.org/1999/xlink" xmlns:a="http://ns.adobe.com/AdobeSVGViewerExtensions/3.0/"
	 x="0px" y="0px" width="100px" height="94.4px" viewBox="0 0 100 94.4" style="enable-background:new 0 0 100 94.4;"
	 xml:space="preserve">
<style type="text/css">
	.st0{fill:#D463C1;}
</style>
<defs>
</defs>
<g>
	<path class="st0" d="M58.6,0c-1.7-0.2-3.2,1.1-3.3,2.7l0,0v28.9c0,1.6,1.2,2.8,2.7,3c11,1.1,21,4.5,28.4,9.6
		C78,51.2,64.3,55.4,50,55.4c-14.2,0-28-4.3-36.3-11.2c7.4-5.1,17.4-8.5,28.4-9.6c1.6-0.2,2.7-1.4,2.7-3V2.7l0,0
		c-0.2-1.6-1.6-2.9-3.3-2.7C17.4,2.6,0,15.4,0,30.5c0,0,0,0,0,0v32.9c0,1.1,0.1,2.2,0.3,3.2c1.4,8.2,7.8,15.6,18.2,20.8
		c1.8,0.9,3.8,1.8,5.7,2.5l0.2,0.1c1.3,0.5,2.7,0.9,4,1.3l0.5,0.1c0.6,0.2,1.1,0.3,1.7,0.5l0.4,0.1c0.6,0.2,1.3,0.3,1.9,0.5
		c0.5,0.1,1.1,0.2,1.7,0.4l1.7,0.3c1.2,0.2,2.4,0.4,3.7,0.6l0.6,0.1c1.5,0.2,2.9,0.3,4.3,0.4c0.3,0,0.7,0,1,0l0.4,0
		c1.2,0.1,2.5,0.1,3.7,0.1c1.2,0,2.5,0,3.7-0.1l0.4,0c0.3,0,0.7,0,1,0c1.4-0.1,2.8-0.2,4.3-0.4l0.6-0.1c1.2-0.2,2.5-0.3,3.7-0.6
		l1.8-0.3c0.5-0.1,1-0.2,1.6-0.3c0.6-0.1,1.3-0.3,2-0.5l0.2-0.1c0.6-0.1,1.1-0.3,1.7-0.5l0.5-0.1c1.3-0.4,2.7-0.8,4-1.3l0.2-0.1
		c2-0.7,3.9-1.6,5.9-2.6c10.1-5.1,16.4-12.2,18-20.3l0.1-0.5c0.2-1.1,0.3-2.2,0.3-3.2V30.5C100,15.4,82.6,2.6,58.6,0z M75,83.2
		c-1.3,0.5-2.6,0.9-3.9,1.3l-0.5,0.1c-0.5,0.2-1.1,0.3-1.7,0.5l-0.4,0.1c-0.6,0.2-1.2,0.3-1.8,0.4c-0.5,0.1-1,0.2-1.7,0.3l-1.7,0.3
		c-1.2,0.2-2.4,0.4-3.6,0.5l-0.6,0.1c-1.5,0.2-2.9,0.3-4.2,0.4c-0.3,0-0.6,0-1,0l-0.4,0c-2.4,0.1-4.8,0.1-7.2,0l-0.4,0
		c-0.3,0-0.6,0-1,0c-1.3-0.1-2.7-0.2-4.2-0.4l-0.6-0.1c-1.2-0.2-2.4-0.3-3.6-0.5L34.9,86c-0.5-0.1-1.1-0.2-1.6-0.3
		c-0.6-0.1-1.2-0.3-1.8-0.4l-0.4-0.1c-0.6-0.1-1.1-0.3-1.7-0.5L29,84.5c-1.3-0.4-2.6-0.8-3.9-1.3l-0.2-0.1c-1.9-0.7-3.8-1.5-5.7-2.5
		C9.4,75.7,3,68.8,1.7,61.2l0,0V43.6c2.7,6.2,8.4,11.7,16.7,15.9c1.8,0.9,3.8,1.8,5.7,2.5l0.2,0.1c1.3,0.5,2.7,0.9,4,1.3l0.5,0.1
		c0.6,0.2,1.1,0.3,1.7,0.5l0.4,0.1c0.6,0.2,1.3,0.3,1.9,0.5c0.5,0.1,1.1,0.2,1.7,0.4l1.7,0.3c1.2,0.2,2.4,0.4,3.7,0.6l0.6,0.1
		c1.5,0.2,2.9,0.3,4.3,0.4c0.3,0,0.7,0,1,0l0.4,0c1.2,0.1,2.5,0.1,3.7,0.1c1.2,0,2.5,0,3.7-0.1l0.4,0c0.3,0,0.7,0,1,0
		c1.4-0.1,2.8-0.2,4.3-0.4l0.6-0.1c1.2-0.2,2.5-0.3,3.7-0.6l1.8-0.3c0.5-0.1,1-0.2,1.6-0.3c0.6-0.1,1.3-0.3,2-0.5l0.2-0.1
		c0.6-0.1,1.1-0.3,1.7-0.5l0.5-0.1c1.3-0.4,2.7-0.8,4-1.3l0.2-0.1c2-0.7,3.9-1.6,5.9-2.6c8.2-4.1,13.9-9.7,16.6-15.8v17.6l0,0
		c-1.3,7.6-7.6,14.5-17.5,19.5c-1.8,0.9-3.6,1.7-5.6,2.4L75,83.2z M41.9,32.9C30.4,34,20,37.6,12.3,43.1c-0.2-0.2-0.4-0.4-0.6-0.5
		c-0.2-0.2-0.5-0.5-0.7-0.7c-0.3-0.3-0.5-0.6-0.7-0.8c-0.2-0.2-0.4-0.5-0.6-0.7c-0.2-0.3-0.4-0.6-0.6-0.9C9,39.2,8.8,39,8.7,38.7
		c-0.2-0.3-0.4-0.6-0.5-0.9c-0.1-0.2-0.3-0.5-0.4-0.7c-0.2-0.3-0.3-0.6-0.4-0.9C7.2,36,7.1,35.7,7,35.5c-0.1-0.3-0.2-0.7-0.3-1
		c-0.1-0.2-0.1-0.4-0.2-0.7c-0.1-0.4-0.2-0.7-0.2-1.1c0-0.2-0.1-0.4-0.1-0.5c-0.1-0.6-0.1-1.1-0.1-1.7c0-0.7,0.1-1.5,0.2-2.2
		c0.1-0.5,0.2-1,0.3-1.4c0.1-0.2,0.1-0.5,0.2-0.7C10,16.3,24.1,8,42.1,6.1c0.3,0,0.7-0.1,1-0.3v25.8C43.1,32.3,42.6,32.8,41.9,32.9z
		 M43.1,3.1c0,0.6-0.5,1.2-1.2,1.3C20.5,6.7,4.3,17.9,4.3,30.5c0,5,2.5,10,7.3,14.3c8.5,7.6,23.2,12.3,38.3,12.3
		c15.2,0,29.9-4.7,38.3-12.3c4.8-4.3,7.3-9.3,7.3-14.3c0-12.6-16.2-23.9-37.6-26.2c-0.7-0.1-1.2-0.6-1.2-1.3c0-0.7,0.6-1.3,1.4-1.3
		c0,0,0,0,0,0c23.1,2.5,39.9,14.6,39.9,28.8c0,5.6-2.7,11.1-7.7,15.8c-9,8.4-24.1,13.4-40.5,13.4c-16.4,0-31.6-5-40.5-13.4
		c-5.1-4.7-7.7-10.2-7.7-15.8c0-14.2,16.8-26.3,40-28.8C42.5,1.7,43.1,2.3,43.1,3.1z M56.9,31.6V5.8c0.3,0.1,0.6,0.2,1,0.3
		c18,2,32,10.2,35.3,20.1c0.1,0.2,0.1,0.5,0.2,0.7c0.1,0.5,0.3,1,0.4,1.4c0.1,0.7,0.2,1.5,0.2,2.2c0,0.6,0,1.1-0.1,1.7
		c0,0.2-0.1,0.4-0.1,0.5c-0.1,0.4-0.1,0.7-0.2,1.1c-0.1,0.2-0.1,0.4-0.2,0.6c-0.1,0.3-0.2,0.7-0.3,1c-0.1,0.2-0.2,0.5-0.3,0.7
		c-0.1,0.3-0.3,0.6-0.4,0.9c-0.1,0.2-0.3,0.5-0.4,0.7c-0.2,0.3-0.3,0.6-0.5,0.9c-0.2,0.2-0.3,0.5-0.5,0.7c-0.2,0.3-0.4,0.6-0.6,0.9
		c-0.2,0.2-0.4,0.5-0.6,0.7c-0.2,0.3-0.5,0.6-0.7,0.8c-0.2,0.2-0.4,0.5-0.7,0.7c-0.2,0.2-0.4,0.4-0.6,0.5c-7.6-5.4-18.1-9-29.6-10.2
		C57.4,32.8,56.9,32.3,56.9,31.6z M93.7,45.6c0.2-0.2,0.4-0.5,0.6-0.7c0.4-0.5,0.8-0.9,1.2-1.4c0.2-0.3,0.4-0.6,0.6-0.9
		c0.3-0.4,0.6-0.9,0.9-1.3c0.2-0.3,0.3-0.6,0.5-0.9c0.1-0.2,0.2-0.4,0.3-0.6c-1.7,7.1-7.7,13.5-17,18.2c-1.8,0.9-3.6,1.7-5.6,2.4
		L75,60.5c-1.3,0.5-2.6,0.9-3.9,1.3l-0.5,0.1c-0.5,0.2-1.1,0.3-1.7,0.5l-0.4,0.1c-0.6,0.2-1.2,0.3-1.8,0.4c-0.5,0.1-1,0.2-1.7,0.3
		l-1.7,0.3c-1.2,0.2-2.4,0.4-3.6,0.5l-0.6,0.1c-1.5,0.2-2.9,0.3-4.2,0.4c-0.3,0-0.6,0-1,0l-0.4,0c-2.4,0.1-4.8,0.1-7.2,0l-0.4,0
		c-0.3,0-0.6,0-1,0c-1.3-0.1-2.7-0.2-4.2-0.4l-0.6-0.1c-1.2-0.2-2.4-0.3-3.6-0.5l-1.7-0.3c-0.5-0.1-1.1-0.2-1.6-0.3
		c-0.6-0.1-1.2-0.3-1.8-0.4l-0.4-0.1c-0.6-0.1-1.1-0.3-1.7-0.5L29,61.8c-1.3-0.4-2.6-0.8-3.9-1.3l-0.2-0.1c-1.9-0.7-3.8-1.5-5.7-2.5
		C9.9,53.3,4,46.9,2.3,39.8c0.1,0.2,0.2,0.4,0.3,0.6c0.2,0.3,0.3,0.6,0.5,0.9c0.3,0.5,0.6,0.9,0.9,1.4c0.2,0.3,0.4,0.6,0.6,0.8
		c0.4,0.5,0.8,1,1.2,1.4c0.2,0.2,0.4,0.5,0.6,0.7c0.6,0.7,1.3,1.4,2,2c9.3,8.7,24.9,13.9,41.7,13.9s32.4-5.2,41.7-13.9
		C92.4,47,93.1,46.3,93.7,45.6z M75,88.4c-1.3,0.5-2.6,0.9-3.9,1.3l-0.5,0.1c-0.5,0.2-1.1,0.3-1.7,0.5l-0.4,0.1
		c-0.6,0.2-1.2,0.3-1.8,0.4c-0.5,0.1-1,0.2-1.7,0.3l-1.7,0.3c-1.2,0.2-2.4,0.4-3.6,0.5l-0.6,0.1c-1.5,0.2-2.9,0.3-4.2,0.4
		c-0.3,0-0.6,0-1,0l-0.4,0c-2.4,0.1-4.8,0.1-7.2,0l-0.4,0c-0.3,0-0.6,0-1,0c-1.3-0.1-2.7-0.2-4.2-0.4l-0.6-0.1
		c-1.2-0.2-2.4-0.3-3.6-0.5l-1.7-0.3c-0.5-0.1-1.1-0.2-1.6-0.3c-0.6-0.1-1.2-0.3-1.8-0.4l-0.4-0.1c-0.6-0.1-1.1-0.3-1.7-0.5L29,89.7
		c-1.3-0.4-2.6-0.8-3.9-1.3c0,0-4-1.6-5.9-2.5c-9.4-4.8-15.4-11.3-17-18.6c2.9,5.8,8.4,11,16.3,15c1.8,0.9,3.8,1.8,5.7,2.5l0.2,0.1
		c1.3,0.5,2.7,0.9,4,1.3l0.5,0.1c0.6,0.2,1.1,0.3,1.7,0.5l0.4,0.1c0.6,0.2,1.3,0.3,1.9,0.5c0.5,0.1,1.1,0.2,1.7,0.4l1.7,0.3
		c1.2,0.2,2.4,0.4,3.7,0.6l0.6,0.1c1.5,0.2,2.9,0.3,4.3,0.4c0.3,0,0.7,0,1,0l0.4,0c1.2,0.1,2.5,0.1,3.7,0.1c1.2,0,2.5,0,3.7-0.1
		l0.4,0c0.3,0,0.7,0,1,0c1.4-0.1,2.8-0.2,4.3-0.4l0.6-0.1c1.2-0.2,2.5-0.3,3.7-0.6l1.8-0.3c0.5-0.1,1-0.2,1.6-0.3
		c0.6-0.1,1.3-0.3,2-0.5l0.2-0.1c0.6-0.1,1.1-0.3,1.7-0.5l0.5-0.1c1.3-0.4,2.7-0.8,4-1.3l0.2-0.1c2-0.7,3.9-1.6,5.9-2.6
		c7.8-3.9,13.3-9.1,16.2-14.9c-1.6,7.3-7.6,13.8-17.1,18.6c-1.8,0.9-3.6,1.7-5.6,2.4L75,88.4z"/>
</g>
</svg>
