<!-- Generator: Adobe Illustrator 19.1.1, SVG Export Plug-In  -->
<svg version="1.1"
	 xmlns="http://www.w3.org/2000/svg" xmlns:xlink="http://www.w3.org/1999/xlink" xmlns:a="http://ns.adobe.com/AdobeSVGViewerExtensions/3.0/"
	 x="0px" y="0px" width="29.2px" height="48.8px" viewBox="0 0 29.2 48.8" style="enable-background:new 0 0 29.2 48.8;"
	 xml:space="preserve">
<style type="text/css">
	.st0{fill:#FFFFFF;}
</style>
<defs>
</defs>
<path class="st0" d="M28.7,26c-0.7-1.4-2.6-2.5-5.2-0.5c-3.4,2.7-9,2.7-9,2.7s-5.5,0-9-2.7c-2.6-2-4.5-0.9-5.2,0.5
	c-1.2,2.4,0.2,3.6,3.2,5.6c2.6,1.7,6.2,2.3,8.6,2.6l-1.9,1.9c-2.7,2.7-5.4,5.4-7.2,7.2c-1.1,1.1-1.1,2.9,0,4l0.3,0.5
	c0.5,0.5,1.3,1,2,1h0c0.7,0,1.4-0.4,2-1l7.2-7.3c2.7,2.7,5.4,5.4,7.2,7.2c1.1,1.1,2.9,1.1,4,0l0.3-0.3c1.1-1.1,1.1-2.9,0-4l-7.2-7.2
	l-2-2c2.3-0.2,5.9-0.9,8.5-2.6C28.6,29.6,29.9,28.5,28.7,26L28.7,26z M14.6,6.2c3.3,0,6,2.7,6,6c0,3.3-2.7,6-6,6s-6-2.7-6-6
	C8.5,8.9,11.2,6.2,14.6,6.2L14.6,6.2z M14.6,24.5c6.8,0,12.3-5.5,12.3-12.3C26.9,5.5,21.4,0,14.6,0C7.8,0,2.3,5.5,2.3,12.3
	C2.3,19.1,7.8,24.5,14.6,24.5L14.6,24.5z"/>
</svg>
