<!-- Generator: Adobe Illustrator 19.1.1, SVG Export Plug-In  -->
<svg version="1.1"
	 xmlns="http://www.w3.org/2000/svg" xmlns:xlink="http://www.w3.org/1999/xlink" xmlns:a="http://ns.adobe.com/AdobeSVGViewerExtensions/3.0/"
	 x="0px" y="0px" width="49.1px" height="38px" viewBox="0 0 49.1 38" style="enable-background:new 0 0 49.1 38;"
	 xml:space="preserve">
<style type="text/css">
	.st0{fill:none;stroke:#D463C1;stroke-miterlimit:10;}
</style>
<defs>
</defs>
<path class="st0" d="M47.7,4.9c-1.7,0.7-3.5,1.2-5.4,1.5c1.9-1.2,3.4-3,4.1-5.2c-1.8,1.1-3.8,1.8-5.9,2.3c-1.7-1.8-4.1-3-6.8-3
	c-5.2,0-9.3,4.2-9.3,9.3c0,0.7,0.1,1.4,0.2,2.1C16.8,11.6,9.9,7.9,5.3,2.2C4.5,3.6,4,5.2,4,6.9c0,3.2,1.1,6.1,3.6,7.8
	c-1.5,0-3.8-0.5-4.8-1.2c0,0,0,0.1,0,0.1c0,4.5,3.8,8.3,8.1,9.2c-0.8,0.2-1.3,0.3-2.2,0.3c-0.6,0-1-0.1-1.6-0.2
	c1.2,3.7,4.7,6.4,8.8,6.5c-3.2,2.5-7.2,4-11.6,4c-0.8,0-1.5,0-2.2-0.1c4.1,2.7,9.1,4.2,14.3,4.2C33.6,37.5,43,23.3,43,10.9
	c0-0.4,0-0.8,0-1.2C44.8,8.4,46.4,6.8,47.7,4.9L47.7,4.9z"/>
</svg>
