<!-- Generator: Adobe Illustrator 19.1.1, SVG Export Plug-In  -->
<svg version="1.1"
	 xmlns="http://www.w3.org/2000/svg" xmlns:xlink="http://www.w3.org/1999/xlink" xmlns:a="http://ns.adobe.com/AdobeSVGViewerExtensions/3.0/"
	 x="0px" y="0px" width="58.7px" height="34.9px" viewBox="0 0 58.7 34.9" style="enable-background:new 0 0 58.7 34.9;"
	 xml:space="preserve">
<style type="text/css">
	.st0{fill:none;stroke:#D463C1;stroke-miterlimit:10;}
</style>
<defs>
</defs>
<path class="st0" d="M28.7,34.4h3.4c0,0,1-0.7,1.6-1.3c0.5-0.5,0.5-1.8,0.5-1.8s-0.1-4.8,2.1-5.5c2.1-0.7,4.8,4.4,7.7,6.4
	c2.2,1.5,3.8,1.1,3.8,1.1l7.7-0.1c0,0,4-0.3,2.1-3.4c-0.2-0.3-1.1-2.3-5.7-6.6c-4.8-4.5-4.2-3.8,1.6-11.5c3.5-4.7,5-7.6,4.5-8.8
	c-0.4-1.2-3-0.9-3-0.9l-8.7,0.1c0,0-0.6-0.1-1.1,0.2c-0.5,0.3-0.8,0.9-0.8,0.9s-1.4,3.7-3.2,6.8c-3.9,6.6-5.4,6.9-6,6.5
	c-1.5-0.9-1.1-3.8-1.1-5.8c0-6.4,1-9-1.9-9.7c-0.9-0.2-1.6-0.4-4-0.4c-3.1,0-5.7,0-7.2,0.7c-1,0.5-1.7,1.6-1.3,1.6
	c0.6,0.1,1.9,0.4,2.6,1.3c0.9,1.2,0.9,3.9,0.9,3.9s0.5,7.5-1.2,8.4c-1.2,0.6-2.8-0.7-6.2-6.6c-1.8-3-3.1-6.4-3.1-6.4s-0.3-0.6-0.7-1
	C11.4,2.1,10.6,2,10.6,2L2.4,2c0,0-1.2,0-1.7,0.6C0.3,3.1,0.7,4,0.7,4s6.5,15.7,13.8,23.3C21.1,34.3,28.7,34.4,28.7,34.4L28.7,34.4z
	"/>
</svg>
