<!-- Generator: Adobe Illustrator 19.1.1, SVG Export Plug-In  -->
<svg version="1.1"
	 xmlns="http://www.w3.org/2000/svg" xmlns:xlink="http://www.w3.org/1999/xlink" xmlns:a="http://ns.adobe.com/AdobeSVGViewerExtensions/3.0/"
	 x="0px" y="0px" width="45.9px" height="59.5px" viewBox="0 0 45.9 59.5" style="enable-background:new 0 0 45.9 59.5;"
	 xml:space="preserve">
<style type="text/css">
	.st0{fill:none;stroke:#D463C1;stroke-miterlimit:10;}
</style>
<defs>
</defs>
<path class="st0" d="M11.6,50H5.6l-5.1-6.9c0-6.4,13.3-12,16.9-12.6c1.1-0.2,1.1-3.1,1.1-3.1s-3.3-3.1-4-7.4c-1.9,0-3.1-4.5-1.2-6.1
	c-0.1-1.7-2.5-13.3,9.6-13.3c12,0,9.6,11.6,9.6,13.3c1.9,1.6,0.7,6.2-1.2,6.2c-0.7,4.3-4,7.5-4,7.5s0,0.8,0.2,1.5
	c0.2,0.8,0.4,1.6,1,1.7c3.6,0.6,16.9,6.1,16.9,12.4l-5,6.9h-6.8"/>
<path class="st0" d="M30.1,53h-6v4.4c0,0.5,0.5,1.6-0.1,1.6h-3.5c-0.5,0-0.4-1.1-0.4-1.6V53h-6.3c-0.5,0-0.7-0.7-0.7-1.2
	c0,0,0,0,0,0v-2.1c0-0.5,2-0.6,2.5-0.6h4.5v-5.7c0-0.5,0.8-0.3,1.3-0.3h2.1c0.5,0,0.6-0.3,0.6,0.3V49h6C31.1,49,31.1,53,30.1,53z"/>
</svg>
