<!-- Generator: Adobe Illustrator 19.1.1, SVG Export Plug-In  -->
<svg version="1.1"
	 xmlns="http://www.w3.org/2000/svg" xmlns:xlink="http://www.w3.org/1999/xlink" xmlns:a="http://ns.adobe.com/AdobeSVGViewerExtensions/3.0/"
	 x="0px" y="0px" width="44.9px" height="58.5px" viewBox="0 0 44.9 58.5" style="enable-background:new 0 0 44.9 58.5;"
	 xml:space="preserve">
<style type="text/css">
	.st0{fill:#FFFFFF;}
</style>
<defs>
</defs>
<path class="st0" d="M11.1,49.5H5.1L0,42.6c0-6.4,13.3-12,16.9-12.6c1.1-0.2,1.1-3.1,1.1-3.1s-3.3-3.1-4-7.4c-1.9,0-3.1-4.5-1.2-6.1
	C12.8,11.6,10.4,0,22.4,0c12,0,9.6,11.6,9.6,13.3c1.9,1.6,0.7,6.2-1.2,6.2c-0.7,4.3-4,7.5-4,7.5s0,0.8,0.2,1.5
	c0.2,0.8,0.4,1.6,1,1.7c3.6,0.6,16.9,6.1,16.9,12.4l-5,6.9h-6.8"/>
<path class="st0" d="M29.6,52.5h-6v4.4c0,0.5,0.5,1.6-0.1,1.6H20c-0.5,0-0.4-1.1-0.4-1.6v-4.4h-6.3c-0.5,0-0.7-0.7-0.7-1.2
	c0,0,0,0,0,0v-2.1c0-0.5,2-0.6,2.5-0.6h4.5v-5.7c0-0.5,0.8-0.3,1.3-0.3H23c0.5,0,0.6-0.3,0.6,0.3v5.7h6
	C30.6,48.5,30.6,52.5,29.6,52.5z"/>
</svg>
