<!-- Generator: Adobe Illustrator 19.1.1, SVG Export Plug-In  -->
<svg version="1.1"
	 xmlns="http://www.w3.org/2000/svg" xmlns:xlink="http://www.w3.org/1999/xlink" xmlns:a="http://ns.adobe.com/AdobeSVGViewerExtensions/3.0/"
	 x="0px" y="0px" width="30.2px" height="48.8px" viewBox="0 0 30.2 48.8" style="enable-background:new 0 0 30.2 48.8;"
	 xml:space="preserve">
<style type="text/css">
	.st0{fill:none;stroke:#D463C1;stroke-miterlimit:10;}
</style>
<defs>
</defs>
<path class="st0" d="M29.2,25.5c-0.7-1.4-2.6-2.5-5.2-0.5c-3.4,2.7-9,2.7-9,2.7s-5.5,0-9-2.7c-2.6-2-4.5-0.9-5.2,0.5
	c-1.2,2.4,0.2,3.6,3.2,5.6c2.6,1.7,6.2,2.3,8.6,2.6l-1.9,1.9c-2.7,2.7-5.4,5.4-7.2,7.2c-1.1,1.1-1.1,2.9,0,4l0.3,0.5
	c0.5,0.5,1.3,1,2,1h0c0.7,0,1.4-0.4,2-1l7.2-7.3c2.7,2.7,5.4,5.4,7.2,7.2c1.1,1.1,2.9,1.1,4,0l0.3-0.3c1.1-1.1,1.1-2.9,0-4l-7.2-7.2
	l-2-2c2.3-0.2,5.9-0.9,8.5-2.6C29.1,29.1,30.4,28,29.2,25.5L29.2,25.5z M15.1,5.7c3.3,0,6,2.7,6,6c0,3.3-2.7,6-6,6s-6-2.7-6-6
	C9,8.4,11.7,5.7,15.1,5.7L15.1,5.7z M15.1,24c6.8,0,12.3-5.5,12.3-12.3c0-6.8-5.5-12.3-12.3-12.3C8.3-0.5,2.8,5,2.8,11.8
	C2.8,18.6,8.3,24,15.1,24L15.1,24z"/>
</svg>
