<?xml version="1.0" standalone="no"?>
<!DOCTYPE svg PUBLIC "-//W3C//DTD SVG 1.1//EN" "http://www.w3.org/Graphics/SVG/1.1/DTD/svg11.dtd" >
<svg xmlns="http://www.w3.org/2000/svg">
<metadata></metadata>
<defs>
<font id="trebuchet_msregular" horiz-adv-x="1074" >
<font-face units-per-em="2048" ascent="1638" descent="-410" />
<missing-glyph horiz-adv-x="617" />
<glyph horiz-adv-x="2048" />
<glyph horiz-adv-x="2048" />
<glyph unicode="&#xd;" horiz-adv-x="2048" />
<glyph unicode=" "  horiz-adv-x="617" />
<glyph unicode="&#x09;" horiz-adv-x="617" />
<glyph unicode="&#xa0;" horiz-adv-x="617" />
<glyph unicode="!" horiz-adv-x="752" d="M234 131q0 62 44 106t106 44t106 -44t44 -106t-44 -106.5t-106 -44.5t-106 44.5t-44 106.5zM265 1081v410h226v-409q0 -191 -78 -700h-71q-77 503 -77 699z" />
<glyph unicode="&#x22;" horiz-adv-x="665" d="M72 1467h184l-27 -381h-133zM402 1467h184l-27 -381h-133z" />
<glyph unicode="#" d="M37 426v128h188l99 393h-172v128h205l102 412h131l-103 -412h297l103 412h127l-103 -412h175v-128h-207l-99 -393h161v-128h-194l-124 -446h-127l124 446h-297l-124 -446h-130l123 446h-155zM356 554h297l99 393h-297z" />
<glyph unicode="$" d="M136 1110q0 139 87.5 242t234.5 130v160h139v-153q215 -9 291 -78l-59 -174q-40 29 -122 56t-152 27q-102 0 -160.5 -58t-58.5 -149q0 -56 21 -102t60 -78t152 -86l92 -43q156 -73 228 -178.5t72 -270.5q0 -136 -96.5 -238.5t-267.5 -131.5v-231h-139v221q-69 4 -174 35 t-144 57l72 184q52 -38 137.5 -67t152.5 -29q117 0 188 64t71 163q0 62 -20.5 110t-56 77.5t-161.5 88.5l-118 55q-150 70 -209.5 166t-59.5 231z" />
<glyph unicode="%" horiz-adv-x="1229" d="M61 1162q0 147 81 238t206 91q123 0 196.5 -90t73.5 -258q0 -156 -78 -247.5t-201 -91.5q-278 0 -278 358zM91 -20l883 1511h126l-882 -1511h-127zM187 1152q0 -117 39.5 -181.5t103.5 -64.5q162 0 162 245q0 238 -147 238q-73 0 -115.5 -64t-42.5 -173zM601 338 q0 147 81 238t206 91q123 0 196.5 -90t73.5 -258q0 -156 -78 -247.5t-201 -91.5q-278 0 -278 358zM727 328q0 -117 39.5 -181.5t103.5 -64.5q162 0 162 245q0 238 -147 238q-73 0 -115.5 -64t-42.5 -173z" />
<glyph unicode="&#x26;" horiz-adv-x="1446" d="M142 453q0 116 34.5 201t126.5 176q-141 140 -141 291q0 153 115.5 261.5t309.5 108.5q206 0 318 -91l-83 -154q-114 95 -204 95q-266 0 -266 -240q0 -130 116 -220h372v183l190 73v-259h249v-160h-249v-330q0 -138 37 -188t128 -50q54 0 127 37l27 -177 q-105 -30 -240 -30q-93 0 -180 71q-145 -71 -350 -71q-209 0 -323 123.5t-114 349.5zM342 462q0 -312 305 -312q136 0 204 49q-11 46 -11 115v404h-403q-95 -122 -95 -256z" />
<glyph unicode="'" horiz-adv-x="327" d="M72 1467h184l-27 -381h-133z" />
<glyph unicode="(" horiz-adv-x="752" d="M193 559q0 272 127 549.5t298 366.5v-83q-198 -286 -198 -835q0 -652 198 -880v-105q-202 141 -313.5 404.5t-111.5 582.5z" />
<glyph unicode=")" horiz-adv-x="752" d="M193 -323q198 228 198 880q0 549 -198 835v83q171 -89 298 -366.5t127 -549.5q0 -319 -111.5 -582.5t-313.5 -404.5v105z" />
<glyph unicode="*" horiz-adv-x="752" d="M48 1168l72 150l96 -37l125 -95l-63 205v79h176v-76l-60 -211l158 107l74 27l57 -161l-86 -29l-173 -3l158 -105l47 -62l-122 -104l-54 70l-82 159l-91 -162l-43 -64l-131 101l50 69l158 83l-176 27z" />
<glyph unicode="+" d="M122 565v141h348v343h141v-343h349v-141h-349v-345h-141v345h-348z" />
<glyph unicode="," horiz-adv-x="752" d="M173 -291q172 141 172 240q0 44 -30 88q-86 41 -86 118q0 53 41 87.5t103 34.5q55 0 98.5 -48t43.5 -112q0 -133 -55.5 -239.5t-235.5 -240.5z" />
<glyph unicode="-" horiz-adv-x="752" d="M159 506v175h428v-175h-428z" />
<glyph unicode="." horiz-adv-x="752" d="M204 131q0 62 44 106t106 44t106 -44t44 -106t-44 -106.5t-106 -44.5t-106 44.5t-44 106.5z" />
<glyph unicode="/" d="M189 0l531 1471h159l-529 -1471h-161z" />
<glyph unicode="0" d="M64 777q0 316 128 515t360 199q230 0 345.5 -166t115.5 -580q0 -356 -121 -560.5t-354 -204.5t-353.5 165t-120.5 632zM264 759q0 -609 260 -609q149 0 219 135t70 473q0 233 -27 342t-87 165t-152 56q-283 0 -283 -562z" />
<glyph unicode="1" d="M200 937v187q113 57 240.5 157t197.5 190h60v-1471h-200v1123z" />
<glyph unicode="2" d="M59 1277q34 98 133.5 156t240.5 58q211 0 330 -97.5t119 -275.5q0 -165 -158 -416l-329 -522h574v-180h-900v40l459 703q144 221 144 375q0 203 -229 203q-81 0 -152 -42.5t-103 -107.5z" />
<glyph unicode="3" d="M109 104l96 154q98 -108 248 -108q278 0 278 272q0 124 -81 201.5t-215 77.5h-16v162h9q254 0 254 224q0 234 -239 234q-130 0 -207 -87l-89 136q93 121 311 121q192 0 313 -102.5t121 -262.5q0 -122 -67.5 -216t-158.5 -126q126 -41 200.5 -139.5t74.5 -238.5 q0 -204 -129 -315t-362 -111q-98 0 -192 36.5t-149 87.5z" />
<glyph unicode="4" d="M25 399v114l787 958h70v-918h148v-154h-148v-399h-190v399h-667zM262 553h430v519z" />
<glyph unicode="5" d="M130 94l77 167q136 -111 262 -111q282 0 282 352q0 328 -278 328q-134 0 -241 -115l-68 47v709h729v-170h-539v-356q74 55 188 55q204 0 311.5 -122t107.5 -347q0 -551 -491 -551q-205 0 -340 114z" />
<glyph unicode="6" d="M84 614q0 266 188.5 544.5t399.5 332.5l97 -107q-88 -35 -254.5 -236.5t-184.5 -310.5q83 80 231 80q194 0 311 -124t117 -341q0 -215 -120.5 -346t-302.5 -131q-482 0 -482 639zM294 458q0 -313 257 -313q108 0 170.5 81.5t62.5 215.5q0 139 -66 222t-170 83 q-254 0 -254 -289z" />
<glyph unicode="7" d="M84 1281v190h950v-78l-129 -254q-65 -129 -136 -283t-139 -314t-119 -297t-83 -245h-222q74 235 249 621.5t320 659.5h-691z" />
<glyph unicode="8" d="M89 406q0 123 76 242t188 167q-93 50 -152 139t-59 184q0 163 110.5 258t285.5 95q189 0 293 -95t104 -259q0 -96 -63 -195.5t-146 -146.5q264 -148 264 -389q0 -203 -122 -314.5t-335 -111.5q-444 0 -444 426zM289 406q0 -109 68 -182.5t176 -73.5q112 0 184.5 72 t72.5 184q0 81 -50 152.5t-231 169.5q-220 -119 -220 -322zM342 1140q0 -134 256 -263q136 128 136 265q0 82 -54.5 130.5t-141.5 48.5q-196 0 -196 -181z" />
<glyph unicode="9" d="M74 1014q0 215 120.5 346t302.5 131q482 0 482 -639q0 -266 -188.5 -544.5t-399.5 -332.5l-97 107q87 35 254.5 236t184.5 310q-82 -79 -231 -79q-194 0 -311 124t-117 341zM279 1024q0 -139 66 -222t170 -83q254 0 254 289q0 313 -257 313q-108 0 -170.5 -81.5 t-62.5 -215.5z" />
<glyph unicode=":" horiz-adv-x="752" d="M204 131q0 62 44 106t106 44t106 -44t44 -106t-44 -106.5t-106 -44.5t-106 44.5t-44 106.5zM204 941q0 62 44 106t106 44t106 -44t44 -106t-44 -106.5t-106 -44.5t-106 44.5t-44 106.5z" />
<glyph unicode=";" horiz-adv-x="752" d="M173 -291q172 141 172 240q0 44 -30 88q-86 41 -86 118q0 53 41 87.5t103 34.5q55 0 98.5 -48t43.5 -112q0 -133 -55.5 -239.5t-235.5 -240.5zM204 941q0 62 44 106t106 44t106 -44t44 -106t-44 -106.5t-106 -44.5t-106 44.5t-44 106.5z" />
<glyph unicode="&#x3c;" d="M150 576v123l739 354v-161l-571 -255l571 -258v-161z" />
<glyph unicode="=" d="M122 395v141h838v-141h-838zM122 735v141h838v-141h-838z" />
<glyph unicode="&#x3e;" d="M150 218v161l571 258l-571 255v161l739 -354v-123z" />
<glyph unicode="?" horiz-adv-x="752" d="M40 1408q101 83 301 83q150 0 249.5 -85t99.5 -227q0 -72 -25.5 -138.5t-78.5 -122.5l-146 -156q-88 -108 -88 -242q0 -21 14 -91h-132q-34 95 -34 137q0 72 26.5 147t120 179.5t125.5 160.5t32 109q0 176 -213 176q-102 0 -178 -73zM174 131q0 62 44 106t106 44t106 -44 t44 -106t-44 -106.5t-106 -44.5t-106 44.5t-44 106.5z" />
<glyph unicode="@" horiz-adv-x="1578" d="M100 581q0 326 195 535t510 209q303 0 488 -181t185 -483q0 -170 -89.5 -288.5t-236.5 -118.5q-159 0 -230 70q-85 -78 -201 -78q-107 0 -173 58.5t-66 157.5q0 126 108 192t292 66q-15 147 -118 147q-105 0 -166 -56l-48 99q82 61 200 61q278 0 278 -319v-239 q72 -53 122 -53q186 0 186 304q0 231 -150 385t-381 154q-253 0 -408 -175t-155 -447q0 -267 153.5 -430t409.5 -163q231 0 371 128q46 -17 135 -58q-192 -192 -506 -192q-320 0 -512.5 197t-192.5 518zM636 467q0 -54 38 -89t95 -35q63 0 113 50v234h-51q-195 0 -195 -160z " />
<glyph unicode="A" horiz-adv-x="1208" d="M4 0l595 1485h53l552 -1485h-222l-101 309h-545l-108 -309h-224zM389 456h435l-208 645z" />
<glyph unicode="B" horiz-adv-x="1159" d="M150 0v1465q267 13 385 13q217 0 336 -93.5t119 -267.5q0 -102 -76 -186t-168 -105q174 -42 253.5 -139t79.5 -264q0 -193 -141.5 -308t-369.5 -115h-418zM350 170q103 -10 158 -10q188 0 274.5 70.5t86.5 224.5q0 143 -82.5 211t-275.5 68l-161 -5v-559zM350 884 q63 -6 156 -6q284 0 284 231q0 203 -261 203q-100 0 -179 -7v-421z" />
<glyph unicode="C" horiz-adv-x="1225" d="M80 728q0 328 176 545t455 217q239 0 374 -79l-67 -171q-96 70 -302 70q-193 0 -309.5 -166t-116.5 -428q0 -250 119.5 -405.5t308.5 -155.5q206 0 317 146l110 -153q-174 -173 -448 -173q-287 0 -452 207t-165 546z" />
<glyph unicode="D" horiz-adv-x="1256" d="M150 0v1465q282 10 361 10q307 0 486 -186.5t179 -496.5q0 -792 -731 -792h-295zM350 190q67 -10 166 -10q210 0 330 157.5t120 437.5q0 520 -467 520q-28 0 -149 -10v-1095z" />
<glyph unicode="E" horiz-adv-x="1097" d="M150 0v1465h875v-180h-675v-407h484v-170h-484v-528h664v-180h-864z" />
<glyph unicode="F" horiz-adv-x="1075" d="M150 0v1465h905v-180h-705v-407h515v-170h-515v-708h-200z" />
<glyph unicode="G" horiz-adv-x="1385" d="M80 727q0 340 192.5 551.5t519.5 211.5q229 0 373 -127l-83 -165q-151 112 -296 112q-230 0 -363 -162t-133 -429q0 -254 130.5 -409t355.5 -155q160 0 259 96v343h-203v170h403v-638q-80 -68 -223 -109.5t-278 -41.5q-303 0 -478.5 205.5t-175.5 546.5z" />
<glyph unicode="H" horiz-adv-x="1340" d="M150 0v1465h200v-587h640v587h200v-1465h-200v708h-640v-708h-200z" />
<glyph unicode="I" horiz-adv-x="570" d="M185 0v1465h200v-1465h-200z" />
<glyph unicode="J" horiz-adv-x="976" d="M49 293h175q24 -133 159 -133q134 0 188.5 57.5t54.5 321.5v926h200v-918q0 -300 -97 -433.5t-345 -133.5q-143 0 -234.5 85t-100.5 228z" />
<glyph unicode="K" horiz-adv-x="1179" d="M150 0v1465h200v-797l544 797h223l-438 -635l500 -830h-221l-413 674l-195 -277v-397h-200z" />
<glyph unicode="L" horiz-adv-x="1037" d="M150 0v1465h200v-1285h662v-180h-862z" />
<glyph unicode="M" horiz-adv-x="1453" d="M20 0l274 1465h91l349 -1069l322 1069h90l297 -1465h-190l-174 941l-320 -961h-50l-329 961l-170 -941h-190z" />
<glyph unicode="N" horiz-adv-x="1307" d="M150 0v1465h80l737 -1013v1013h190v-1485h-60l-757 1071v-1051h-190z" />
<glyph unicode="O" horiz-adv-x="1380" d="M80 745q0 318 159.5 532t430.5 214q305 0 467.5 -197t162.5 -549q0 -361 -163 -565.5t-467 -204.5q-277 0 -433.5 216t-156.5 554zM290 745q0 -252 99.5 -421t280.5 -169q205 0 312.5 155t107.5 435q0 566 -420 566q-186 0 -283 -152t-97 -414z" />
<glyph unicode="P" horiz-adv-x="1142" d="M150 0v1465q227 10 274 10q638 0 638 -427q0 -494 -564 -494q-34 0 -148 10v-564h-200zM350 744q127 -10 134 -10q372 0 372 293q0 268 -397 268q-40 0 -109 -10v-541z" />
<glyph unicode="Q" horiz-adv-x="1384" d="M80 745q0 317 159 531.5t431 214.5q305 0 467.5 -197t162.5 -549q0 -505 -302 -693q109 -160 366 -160h156l-30 -195q-524 0 -687 291q-31 -13 -133 -13q-277 0 -433.5 216t-156.5 554zM290 745q0 -252 99.5 -421t280.5 -169q206 0 313 156.5t107 433.5q0 566 -420 566 q-186 0 -283 -152t-97 -414z" />
<glyph unicode="R" horiz-adv-x="1192" d="M160 0v1465q11 0 155.5 7.5t210.5 7.5q528 0 528 -420q0 -138 -85 -248.5t-202 -137.5l425 -674h-229l-391 629q-67 0 -212 10v-639h-200zM360 809q72 -10 140 -10q180 0 262 58t82 207q0 123 -88 177t-278 54q-30 0 -118 -10v-476z" />
<glyph unicode="S" horiz-adv-x="985" d="M80 1110q0 164 116 272t298 108q243 0 338 -79l-59 -174q-40 29 -122 56t-152 27q-102 0 -160.5 -58t-58.5 -149q0 -56 21 -102t58.5 -77t153.5 -87l120 -57q150 -71 210.5 -169.5t60.5 -250.5q0 -165 -132.5 -280t-354.5 -115q-195 0 -333 92l73 184q56 -41 139.5 -68.5 t149.5 -27.5q117 0 188 64t71 163q0 74 -39.5 137.5t-198.5 138.5l-118 55q-150 70 -209.5 166t-59.5 231z" />
<glyph unicode="T" horiz-adv-x="1189" d="M18 1285v180h1153v-180h-487v-1285h-200v1285h-466z" />
<glyph unicode="U" horiz-adv-x="1328" d="M150 447v1018h200v-1003q0 -134 85 -220.5t225 -86.5q148 0 233 84t85 228v998h200v-1019q0 -222 -138.5 -346.5t-377.5 -124.5q-246 0 -379 122t-133 350z" />
<glyph unicode="V" horiz-adv-x="1203" d="M13 1465h222l377 -1079l363 1079h215l-530 -1485h-101z" />
<glyph unicode="W" horiz-adv-x="1745" d="M13 1465h208l294 -1023l322 1023h70l318 -1021l299 1021h208l-456 -1485h-63l-349 1010l-326 -1010h-63z" />
<glyph unicode="X" horiz-adv-x="1140" d="M13 0l432 760l-397 706l197 -1l313 -554l345 554h201l-455 -709l478 -756h-212l-364 588l-336 -588h-202z" />
<glyph unicode="Y" horiz-adv-x="1168" d="M13 1465h206l365 -640l365 640h206l-470 -809v-656h-200v656z" />
<glyph unicode="Z" horiz-adv-x="1127" d="M100 0v50l630 1235h-620v180h895v-50l-632 -1235h654v-180h-927z" />
<glyph unicode="[" horiz-adv-x="752" d="M202 -420v1930h463v-170h-263v-1590h263v-170h-463z" />
<glyph unicode="\" horiz-adv-x="728" d="M-3 1471h142l516 -1471h-143z" />
<glyph unicode="]" horiz-adv-x="752" d="M87 -250h263v1590h-263v170h463v-1930h-463v170z" />
<glyph unicode="^" d="M149 903l318 568h107l316 -564h-127l-244 448l-248 -452h-122z" />
<glyph unicode="_" d="M-8 -125h1085v-129h-1085v129z" />
<glyph unicode="`" d="M333 1618h197l169 -333h-140z" />
<glyph unicode="a" horiz-adv-x="1076" d="M80 299q0 163 142.5 275.5t363.5 112.5q60 0 136 -26q0 260 -232 260q-178 0 -274 -96l-80 159q54 44 149.5 75.5t182.5 31.5q233 0 338.5 -106t105.5 -337v-384q0 -141 84 -188v-95q-116 0 -173.5 33t-82.5 109q-114 -143 -349 -143q-126 0 -218.5 91.5t-92.5 227.5z M270 297q0 -167 197 -167q144 0 255 137v259q-90 20 -126 20q-144 0 -235 -74t-91 -175z" />
<glyph unicode="b" horiz-adv-x="1141" d="M135 -20v1530h190v-518q27 37 101.5 68t146.5 31q220 0 356.5 -152t136.5 -384q0 -268 -137 -421.5t-371 -153.5q-76 0 -149.5 28.5t-111.5 68.5l-67 -97h-95zM325 229q0 -16 71 -52.5t108 -36.5q194 0 278 93t84 312q0 182 -98 284t-264 102q-35 0 -97.5 -30t-81.5 -54 v-618z" />
<glyph unicode="c" horiz-adv-x="1014" d="M65 525q0 256 148.5 411t406.5 155q83 0 180 -35t143 -72l-94 -134q-29 29 -102.5 55t-144.5 26q-155 0 -246 -108.5t-91 -297.5q0 -188 93 -286.5t258 -98.5q128 0 258 99l75 -160q-153 -99 -379 -99q-219 0 -362 147t-143 398z" />
<glyph unicode="d" horiz-adv-x="1141" d="M75 509q0 241 144 411.5t343 170.5q166 0 252 -78v497h190v-1509h-190v79q-99 -99 -288 -99q-201 0 -326 144t-125 384zM275 527q0 -387 352 -387q45 0 108 28.5t79 60.5v594q-72 108 -197 108q-153 0 -247.5 -114t-94.5 -290z" />
<glyph unicode="e" horiz-adv-x="1117" d="M65 523q0 265 161 425q144 143 341 143q229 0 359 -129q126 -124 126 -329q0 -63 -15 -116h-772q0 -188 103 -289q91 -88 234 -88q163 0 272 95l80 -137q-44 -44 -135 -76q-114 -42 -254 -42q-202 0 -343 137q-157 151 -157 406zM270 655h593q0 115 -72 192 q-79 84 -215 84q-127 0 -213 -82q-82 -78 -93 -194z" />
<glyph unicode="f" horiz-adv-x="757" d="M65 911v160h156q0 205 101 322t267 117q83 0 178 -30l-53 -140q-58 20 -108 20q-87 0 -143.5 -66t-56.5 -167q0 -27 5 -56h218v-160h-218v-911h-190v911h-156z" />
<glyph unicode="g" horiz-adv-x="1028" d="M80 699q0 168 117 280t289 112q158 0 247 -65l95 114l124 -117l-114 -86q73 -95 73 -248q0 -162 -101 -272t-265 -126l-157 -16q-28 -3 -75 -21.5t-47 -48.5q0 -41 98 -41q43 0 134 15.5t135 15.5q158 0 246.5 -75.5t88.5 -209.5q0 -148 -132.5 -239t-335.5 -91 q-104 0 -219 37t-185 90l103 152q166 -111 306 -111q129 0 203.5 44.5t74.5 110.5q0 130 -188 130q-32 0 -116 -16t-131 -16q-228 0 -228 172q0 53 53.5 96t132.5 62q-226 106 -226 368zM275 698q0 -112 60.5 -185.5t163.5 -73.5q101 0 158 71.5t57 187.5q0 100 -61.5 170 t-153.5 70q-99 0 -161.5 -70t-62.5 -170z" />
<glyph unicode="h" horiz-adv-x="1119" d="M135 0v1510h190v-557q38 59 122.5 98.5t174.5 39.5q170 0 266.5 -112t96.5 -306v-673h-190v673q0 120 -59 189t-166 69q-69 0 -138.5 -40.5t-106.5 -94.5v-796h-190z" />
<glyph unicode="i" horiz-adv-x="584" d="M80 911v160h337v-1071h-190v911h-147zM214 1359q0 49 34 83t83 34t83.5 -34.5t34.5 -82.5q0 -49 -34.5 -83.5t-83.5 -34.5q-48 0 -82.5 34.5t-34.5 83.5z" />
<glyph unicode="j" horiz-adv-x="751" d="M18 -250q196 0 268.5 59.5t72.5 195.5v906h-213v160h403v-1062q0 -221 -130 -325t-401 -104v170zM311 1359q0 49 34 83t83 34t83.5 -34.5t34.5 -82.5q0 -49 -34.5 -83.5t-83.5 -34.5t-83 34.5t-34 83.5z" />
<glyph unicode="k" horiz-adv-x="1033" d="M135 0v1510h190v-937l410 498h222l-343 -407l419 -664h-206l-336 536l-166 -171v-365h-190z" />
<glyph unicode="l" horiz-adv-x="604" d="M150 303v1207h190v-1175q0 -86 49.5 -135.5t129.5 -49.5v-170q-369 0 -369 323z" />
<glyph unicode="m" horiz-adv-x="1700" d="M135 0v1071h124l63 -124q110 144 275 144q230 0 322 -143q32 61 119 102t179 41q166 0 257 -98.5t91 -276.5v-716h-190v678q0 253 -219 253q-69 0 -129 -42.5t-82 -96.5v-792h-190v761q0 79 -59.5 124.5t-157.5 45.5q-57 0 -121.5 -44t-91.5 -97v-790h-190z" />
<glyph unicode="n" horiz-adv-x="1119" d="M135 0v1071h130l60 -138q94 158 307 158q352 0 352 -428v-663h-190v623q0 171 -51.5 239.5t-172.5 68.5q-65 0 -136 -39t-109 -96v-796h-190z" />
<glyph unicode="o" horiz-adv-x="1099" d="M65 538q0 248 133.5 400.5t351.5 152.5q230 0 357 -146.5t127 -406.5q0 -259 -130 -408.5t-354 -149.5q-229 0 -357 151t-128 407zM265 538q0 -403 285 -403q133 0 208.5 108t75.5 295q0 398 -284 398q-130 0 -207.5 -106t-77.5 -292z" />
<glyph unicode="p" horiz-adv-x="1141" d="M135 -420v1491h190v-88q108 108 261 108q228 0 355 -142t127 -416q0 -244 -128 -398.5t-370 -154.5q-68 0 -145.5 24t-99.5 55v-479h-190zM325 216q18 -27 76 -51.5t113 -24.5q354 0 354 400q0 203 -84 297t-269 94q-40 0 -98 -28t-92 -63v-624z" />
<glyph unicode="q" horiz-adv-x="1141" d="M75 533q0 257 142.5 407.5t366.5 150.5q140 0 261 -101l51 81h115v-1491h-190v483q-83 -83 -278 -83q-219 0 -343.5 146.5t-124.5 406.5zM275 533q0 -186 90 -289.5t243 -103.5q137 0 213 70v639q-82 82 -205 82q-161 0 -251 -109t-90 -289z" />
<glyph unicode="r" horiz-adv-x="796" d="M150 0v1071h190v-171q104 191 309 191q51 0 147 -18l-79 -185q-62 43 -125 43q-101 0 -176.5 -93t-75.5 -224v-614h-190z" />
<glyph unicode="s" horiz-adv-x="829" d="M65 64l67 180q159 -104 256 -104q176 0 176 148q0 106 -170 182q-131 60 -176.5 91t-79 70.5t-50 84t-16.5 95.5q0 132 96 206t251 74q117 0 295 -74l-54 -176q-113 90 -227 90q-68 0 -114.5 -32t-46.5 -81q0 -103 117 -156l136 -62q125 -57 182 -130t57 -183 q0 -144 -101 -225.5t-280 -81.5q-169 0 -318 84z" />
<glyph unicode="t" horiz-adv-x="812" d="M79 921v150h124v224l190 73v-297h294v-150h-294v-532q0 -135 45.5 -192t146.5 -57q73 0 151 37l28 -167q-118 -30 -259 -30q-127 0 -214.5 94.5t-87.5 238.5v608h-124z" />
<glyph unicode="u" horiz-adv-x="1119" d="M125 368v703h190v-683q0 -248 215 -248q94 0 172 54t103 125v752h190v-1071h-190v148q-32 -63 -128.5 -115.5t-188.5 -52.5q-176 0 -269.5 101t-93.5 287z" />
<glyph unicode="v" horiz-adv-x="1003" d="M12 1074h208l283 -750l289 750h199l-470 -1094h-50z" />
<glyph unicode="w" horiz-adv-x="1524" d="M15 1074h203l229 -703l285 703h50l294 -703l246 703h187l-384 -1094h-50l-314 729l-313 -729h-50z" />
<glyph unicode="x" horiz-adv-x="1026" d="M12 0l389 548l-357 523h214l240 -368l269 368h210l-389 -523l426 -548h-227l-292 390l-261 -390h-222z" />
<glyph unicode="y" horiz-adv-x="1010" d="M12 1071h194l315 -828l283 828h194l-454 -1253q-37 -102 -155.5 -170t-264.5 -68v170q119 0 204 55.5t85 135.5q0 88 -31 173.5t-80 211.5z" />
<glyph unicode="z" horiz-adv-x="972" d="M40 0v50l609 851h-599v170h876v-54l-588 -847h594v-170h-892z" />
<glyph unicode="{" horiz-adv-x="752" d="M38 523v84q99 8 154 69.5t55 159.5q0 68 -37 193.5t-37 186.5q0 128 111.5 207t274.5 79h148v-133h-175q-164 0 -164 -184q0 -65 31.5 -167t31.5 -163q0 -158 -225 -288q105 -43 165 -112t60 -138q0 -65 -31.5 -180t-31.5 -189q0 -228 263 -228h76v-140h-139 q-171 0 -283 82t-112 216q0 70 37 214t37 219q0 198 -209 212z" />
<glyph unicode="|" d="M462 -276v1681h146v-1681h-146z" />
<glyph unicode="}" horiz-adv-x="752" d="M38 -280h76q263 0 263 228q0 74 -31.5 189t-31.5 180q0 69 60 138t165 112q-225 130 -225 288q0 61 31.5 163t31.5 167q0 184 -164 184h-175v133h148q163 0 274.5 -79t111.5 -207q0 -61 -37 -186.5t-37 -193.5q0 -98 55 -159.5t154 -69.5v-84q-209 -14 -209 -212 q0 -74 37 -216.5t37 -216.5q0 -134 -112 -216t-283 -82h-139v140z" />
<glyph unicode="~" d="M158 509q14 84 64.5 145.5t119.5 61.5q87 0 202.5 -38.5t163.5 -38.5q81 0 108 77h88q-53 -207 -192 -207q-79 0 -203 38.5t-152 38.5q-71 0 -108 -77h-91z" />
<glyph unicode="&#xa1;" horiz-adv-x="752" d="M234 940q0 62 44 106.5t106 44.5t106 -44.5t44 -106.5t-44 -106t-106 -44t-106 44t-44 106zM265 -10q0 196 77 699h71q78 -512 78 -700v-409h-226v410z" />
<glyph unicode="&#xa2;" d="M193 527q0 202 115 325.5t316 127.5l70 237h102l-71 -248q109 -26 170 -75l-78 -113q-38 38 -130 56l-169 -590q53 -20 116 -20q102 0 206 79l60 -136q-122 -79 -303 -79q-62 0 -119 15l-74 -258h-115l88 300q-184 110 -184 379zM353 527q0 -140 72 -218l158 532 q-101 -16 -165.5 -103t-64.5 -211z" />
<glyph unicode="&#xa3;" d="M132 0v139q90 30 90 129v439h-82v149h82v148q0 233 112 360t295 127q205 0 293 -121l-94 -133q-64 86 -222 86q-184 0 -184 -311v-156h199v-149h-199v-527h223q152 0 234 113l142 -111q-102 -182 -445 -182h-444z" />
<glyph unicode="&#xa4;" d="M56 334l143 140q-82 127 -82 252q0 124 82 251l-143 140l84 88l143 -143q122 83 253 83q132 0 253 -83l143 143l85 -88l-143 -140q82 -127 82 -251q0 -125 -82 -252l143 -140l-85 -88l-143 144q-121 -84 -253 -84q-131 0 -253 84l-143 -144zM236 726q0 -125 87 -212.5 t212 -87.5q124 0 211.5 88t87.5 212q0 125 -87 212t-212 87t-212 -87t-87 -212z" />
<glyph unicode="&#xa5;" horiz-adv-x="1168" d="M39 1465h206l332 -640l368 640h197l-464 -809v-50h254v-131h-254v-475h-200v475h-243v131h243v50z" />
<glyph unicode="&#xa6;" d="M472 -276v723h146v-723h-146zM472 694v723h146v-723h-146z" />
<glyph unicode="&#xa7;" horiz-adv-x="929" d="M85 1180q0 137 118 223.5t274 86.5q64 0 152.5 -29.5t136.5 -69.5l-62 -184q-108 103 -222 103q-187 0 -187 -127q0 -44 30.5 -83t187 -78t226 -109.5t69.5 -187.5q0 -98 -81 -182q123 -82 123 -221q0 -167 -108 -256t-292 -89q-222 0 -349 92l68 186q109 -100 270 -100 q201 0 201 147q0 135 -229 182q-136 28 -220 103t-84 153q0 136 97 197q-119 68 -119 243zM291 788q0 -31 29.5 -68.5t84.5 -57.5t191 -50q18 36 18 95q0 45 -24 77.5t-67.5 52t-69.5 22.5t-98 22q-64 -42 -64 -93z" />
<glyph unicode="&#xa8;" d="M189 1401q0 47 33 79.5t80 32.5t79.5 -32.5t32.5 -79.5t-32.5 -80t-79.5 -33t-80 33t-33 80zM662 1401q0 47 32.5 79.5t79.5 32.5t80 -32.5t33 -79.5t-33 -80t-80 -33t-79.5 33t-32.5 80z" />
<glyph unicode="&#xa9;" horiz-adv-x="1460" d="M105 661q0 279 198 476.5t477 197.5t476.5 -197.5t197.5 -476.5t-197.5 -477t-476.5 -198t-477 198t-198 477zM215 661q0 -234 165.5 -399.5t399.5 -165.5t399 165.5t165 399.5t-165 399t-399 165t-399.5 -165t-165.5 -399zM434 663q0 187 100 309.5t258 122.5 q137 0 212 -44l-38 -97q-54 39 -172 39q-110 0 -175.5 -94t-65.5 -242q0 -142 68 -230t175 -88q117 0 179 82l63 -86q-100 -99 -254 -99q-162 0 -256 116.5t-94 310.5z" />
<glyph unicode="&#xaa;" horiz-adv-x="752" d="M87 1002q0 115 93.5 182t242.5 67h39l35 -1q-3 127 -138 127q-109 0 -175 -62l-58 108q91 68 219 68q288 0 288 -267v-225q0 -79 53 -107v-67q-139 0 -173 77q-75 -78 -216 -78q-89 0 -149.5 50.5t-60.5 127.5zM221 1017q0 -38 35.5 -61t87.5 -23q92 0 154 69v155h-72 q-92 0 -148.5 -40t-56.5 -100z" />
<glyph unicode="&#xab;" d="M129 535v64l355 244v-125l-212 -157l212 -138v-125zM528 535v64l355 244v-125l-212 -157l212 -138v-125z" />
<glyph unicode="&#xac;" d="M122 745v141h838v-486h-141v345h-697z" />
<glyph unicode="&#xad;" horiz-adv-x="752" d="M159 506v175h428v-175h-428z" />
<glyph unicode="&#xae;" horiz-adv-x="1460" d="M105 661q0 279 198 476.5t477 197.5t476.5 -197.5t197.5 -476.5t-197.5 -477t-476.5 -198t-477 198t-198 477zM215 661q0 -234 165.5 -399.5t399.5 -165.5t399 165.5t165 399.5t-165 399t-399 165t-399.5 -165t-165.5 -399zM540 254v831h213q300 0 300 -230 q0 -160 -161 -226l227 -375h-129l-211 357h-120v-357h-119zM659 707q15 -2 78 -2q116 0 156 29.5t40 112.5q0 137 -180 137h-47l-47 -1v-276z" />
<glyph unicode="&#xaf;" d="M-8 1546v129h1085v-129h-1085z" />
<glyph unicode="&#xb0;" d="M296 1282q0 87 62 148t150 61t149.5 -61t61.5 -148t-62 -148.5t-149 -61.5q-88 0 -150 61.5t-62 148.5zM369 1282q0 -57 41 -98t98 -41t98 41t41 98t-41 98t-98 41t-98 -41t-41 -98z" />
<glyph unicode="&#xb1;" d="M122 -20v141h838v-141h-838zM122 565v141h348v343h141v-343h349v-141h-349v-345h-141v345h-348z" />
<glyph unicode="&#xb2;" horiz-adv-x="924" d="M162 1317q26 74 93 123.5t147 49.5q264 0 264 -224q0 -120 -93 -266l-183 -287h334v-118h-540v24l266 414q86 134 86 223q0 122 -128 122q-107 0 -169 -124z" />
<glyph unicode="&#xb3;" horiz-adv-x="929" d="M185 657l59 102q49 -54 148 -54q163 0 163 142q0 73 -46 118t-128 45h-10v102h6q148 0 148 139q0 119 -139 119q-85 0 -124 -44l-54 91q56 73 187 73q116 0 188 -62.5t72 -157.5q0 -73 -39.5 -128.5t-95.5 -76.5q165 -54 165 -227q0 -253 -295 -253q-129 0 -205 72z" />
<glyph unicode="&#xb4;" d="M378 1285l169 333h197l-226 -333h-140z" />
<glyph unicode="&#xb5;" horiz-adv-x="1119" d="M135 -420v1491h190v-623q0 -302 235 -302q84 0 148 43.5t87 105.5v776h190v-1071h-190v148q-34 -75 -112 -121.5t-175 -46.5q-108 0 -183 38v-438h-190z" />
<glyph unicode="&#xb6;" d="M118 1077q0 176 81 294t226 118h507v-1739h-154v1616h-158v-1616h-154v893q-348 0 -348 434z" />
<glyph unicode="&#xb7;" horiz-adv-x="752" d="M205 651q0 62 44 106t106 44t106 -44t44 -106t-44 -106.5t-106 -44.5t-106 44.5t-44 106.5z" />
<glyph unicode="&#xb8;" d="M331 -356q78 0 130 27t52 75q0 74 -90 74v119q99 0 154 -56t55 -137q0 -94 -73 -147.5t-204 -53.5z" />
<glyph unicode="&#xb9;" horiz-adv-x="924" d="M251 1157v113q197 99 282 208h36v-883h-130v674z" />
<glyph unicode="&#xba;" horiz-adv-x="752" d="M66 1159q0 148 86 240t227 92q149 0 230.5 -89t81.5 -243q0 -153 -82.5 -244t-229.5 -91t-230 90.5t-83 244.5zM207 1159q0 -221 172 -221q171 0 171 221q0 218 -171 218q-172 0 -172 -218z" />
<glyph unicode="&#xbb;" d="M169 298v125l212 138l-212 157v125l355 -244v-64zM568 298v125l212 138l-212 157v125l355 -244v-64z" />
<glyph unicode="&#xbc;" horiz-adv-x="1668" d="M81 1157v113q197 99 282 208h36v-883h-140v664zM221 -35l974 1526h126l-972 -1526h-128zM866 210v68l492 605h42v-571h89v-102h-89v-210h-130v210h-404zM1018 312h252v311z" />
<glyph unicode="&#xbd;" horiz-adv-x="1668" d="M101 1157v113q197 99 282 208h36v-883h-130v674zM208 -35l974 1526h126l-972 -1526h-128zM1002 722q26 74 93 123.5t147 49.5q264 0 264 -224q0 -120 -93 -266l-183 -287h334v-118h-540v24l266 414q86 134 86 223q0 122 -128 122q-107 0 -169 -124z" />
<glyph unicode="&#xbe;" horiz-adv-x="1668" d="M125 657l59 102q49 -54 148 -54q163 0 163 142q0 73 -46 118t-128 45h-10v102h6q148 0 148 139q0 119 -139 119q-85 0 -124 -44l-54 91q56 73 187 73q116 0 188 -62.5t72 -157.5q0 -73 -39.5 -128.5t-95.5 -76.5q165 -54 165 -227q0 -253 -295 -253q-129 0 -205 72z M301 -35l974 1526h126l-972 -1526h-128zM896 210v68l492 605h42v-571h89v-102h-89v-210h-130v210h-404zM1048 312h252v311z" />
<glyph unicode="&#xbf;" horiz-adv-x="752" d="M40 -108q0 72 25.5 138.5t78.5 122.5l146 156q88 108 88 242q0 21 -14 91h132q34 -95 34 -137q0 -72 -26.5 -147t-120 -179.5t-125.5 -160.5t-32 -109q0 -176 213 -176q102 0 178 73l73 -143q-101 -83 -301 -83q-150 0 -249.5 85t-99.5 227zM256 940q0 62 44 106.5 t106 44.5t106 -44.5t44 -106.5t-44 -106t-106 -44t-106 44t-44 106z" />
<glyph unicode="&#xc0;" horiz-adv-x="1208" d="M4 0l595 1485h53l552 -1485h-222l-101 309h-545l-108 -309h-224zM352 1918h197l169 -333h-140zM389 456h435l-208 645z" />
<glyph unicode="&#xc1;" horiz-adv-x="1208" d="M4 0l595 1485h53l552 -1485h-222l-101 309h-545l-108 -309h-224zM389 456h435l-208 645zM493 1585l169 333h197l-226 -333h-140z" />
<glyph unicode="&#xc2;" horiz-adv-x="1208" d="M4 0l595 1485h53l552 -1485h-222l-101 309h-545l-108 -309h-224zM265 1585l298 338h107l305 -338h-197l-163 189l-178 -189h-172zM389 456h435l-208 645z" />
<glyph unicode="&#xc3;" horiz-adv-x="1208" d="M4 0l595 1485h53l552 -1485h-222l-101 309h-545l-108 -309h-224zM296 1585q14 84 64.5 145.5t119.5 61.5q82 0 151.5 -38.5t104.5 -38.5q81 0 108 77h88q-53 -207 -192 -207q-63 0 -138.5 38.5t-106.5 38.5q-71 0 -108 -77h-91zM389 456h435l-208 645z" />
<glyph unicode="&#xc4;" horiz-adv-x="1208" d="M4 0l595 1485h53l552 -1485h-222l-101 309h-545l-108 -309h-224zM273 1701q0 47 33 79.5t80 32.5t79.5 -32.5t32.5 -79.5t-32.5 -80t-79.5 -33t-80 33t-33 80zM389 456h435l-208 645zM746 1701q0 47 32.5 79.5t79.5 32.5t80 -32.5t33 -79.5t-33 -80t-80 -33t-79.5 33 t-32.5 80z" />
<glyph unicode="&#xc5;" horiz-adv-x="1208" d="M4 0l562 1404q-66 20 -108.5 75.5t-42.5 125.5q0 87 62 148t150 61t149.5 -61t61.5 -148q0 -72 -43.5 -128.5t-111.5 -74.5l521 -1402h-222l-101 309h-549l-104 -309h-224zM389 456h435l-208 645zM525 1605q0 -41 30 -70.5t72 -29.5t71.5 29.5t29.5 70.5t-29.5 70 t-71.5 29t-72 -29t-30 -70z" />
<glyph unicode="&#xc6;" horiz-adv-x="1775" d="M17 0l705 1465h981v-180h-675v-407h484v-170h-484v-528h664v-180h-864v307h-448l-139 -307h-224zM444 456h384v829z" />
<glyph unicode="&#xc7;" horiz-adv-x="1225" d="M80 728q0 328 176 545t455 217q239 0 374 -79l-67 -171q-96 70 -302 70q-193 0 -309.5 -166t-116.5 -428q0 -250 119.5 -405.5t308.5 -155.5q206 0 317 146l110 -153q-174 -173 -448 -173q-287 0 -452 207t-165 546zM443 -356q78 0 130 27t52 75q0 74 -90 74v119 q99 0 154 -56t55 -137q0 -94 -73 -147.5t-204 -53.5z" />
<glyph unicode="&#xc8;" horiz-adv-x="1097" d="M150 0v1465h875v-180h-675v-407h484v-170h-484v-528h664v-180h-864zM366 1918h197l169 -333h-140z" />
<glyph unicode="&#xc9;" horiz-adv-x="1097" d="M150 0v1465h875v-180h-675v-407h484v-170h-484v-528h664v-180h-864zM436 1585l169 333h197l-226 -333h-140z" />
<glyph unicode="&#xca;" horiz-adv-x="1097" d="M150 0v1465h875v-180h-675v-407h484v-170h-484v-528h664v-180h-864zM205 1585l298 338h107l305 -338h-197l-163 189l-178 -189h-172z" />
<glyph unicode="&#xcb;" horiz-adv-x="1097" d="M150 0v1465h875v-180h-675v-407h484v-170h-484v-528h664v-180h-864zM230 1701q0 47 33 79.5t80 32.5t79.5 -32.5t32.5 -79.5t-32.5 -80t-79.5 -33t-80 33t-33 80zM703 1701q0 47 32.5 79.5t79.5 32.5t80 -32.5t33 -79.5t-33 -80t-80 -33t-79.5 33t-32.5 80z" />
<glyph unicode="&#xcc;" horiz-adv-x="570" d="M103 1918h197l169 -333h-140zM185 0v1465h200v-1465h-200z" />
<glyph unicode="&#xcd;" horiz-adv-x="570" d="M185 0v1465h200v-1465h-200zM211 1585l169 333h197l-226 -333h-140z" />
<glyph unicode="&#xce;" horiz-adv-x="570" d="M-80 1585l298 338h107l305 -338h-197l-163 189l-178 -189h-172zM185 0v1465h200v-1465h-200z" />
<glyph unicode="&#xcf;" horiz-adv-x="570" d="M-31 1701q0 47 33 79.5t80 32.5t79.5 -32.5t32.5 -79.5t-32.5 -80t-79.5 -33t-80 33t-33 80zM185 0v1465h200v-1465h-200zM442 1701q0 47 32.5 79.5t79.5 32.5t80 -32.5t33 -79.5t-33 -80t-80 -33t-79.5 33t-32.5 80z" />
<glyph unicode="&#xd0;" horiz-adv-x="1256" d="M15 691v160h135v614q282 10 361 10q307 0 486 -186.5t179 -496.5q0 -792 -731 -792h-295v691h-135zM350 190q67 -10 166 -10q210 0 330 157.5t120 437.5q0 520 -467 520q-28 0 -149 -10v-434h149v-160h-149v-501z" />
<glyph unicode="&#xd1;" horiz-adv-x="1307" d="M150 0v1465h80l737 -1013v1013h190v-1485h-60l-757 1071v-1051h-190zM294 1585q14 84 64.5 145.5t119.5 61.5q82 0 151.5 -38.5t104.5 -38.5q81 0 108 77h88q-53 -207 -192 -207q-63 0 -138.5 38.5t-106.5 38.5q-71 0 -108 -77h-91z" />
<glyph unicode="&#xd2;" horiz-adv-x="1380" d="M80 745q0 318 159.5 532t430.5 214q305 0 467.5 -197t162.5 -549q0 -361 -163 -565.5t-467 -204.5q-277 0 -433.5 216t-156.5 554zM290 745q0 -252 99.5 -421t280.5 -169q205 0 312.5 155t107.5 435q0 566 -420 566q-186 0 -283 -152t-97 -414zM492 1918h197l169 -333 h-140z" />
<glyph unicode="&#xd3;" horiz-adv-x="1380" d="M80 745q0 318 159.5 532t430.5 214q305 0 467.5 -197t162.5 -549q0 -361 -163 -565.5t-467 -204.5q-277 0 -433.5 216t-156.5 554zM290 745q0 -252 99.5 -421t280.5 -169q205 0 312.5 155t107.5 435q0 566 -420 566q-186 0 -283 -152t-97 -414zM523 1585l169 333h197 l-226 -333h-140z" />
<glyph unicode="&#xd4;" horiz-adv-x="1380" d="M80 745q0 318 159.5 532t430.5 214q305 0 467.5 -197t162.5 -549q0 -361 -163 -565.5t-467 -204.5q-277 0 -433.5 216t-156.5 554zM290 745q0 -252 99.5 -421t280.5 -169q205 0 312.5 155t107.5 435q0 566 -420 566q-186 0 -283 -152t-97 -414zM315 1585l298 338h107 l305 -338h-197l-163 189l-178 -189h-172z" />
<glyph unicode="&#xd5;" horiz-adv-x="1380" d="M80 745q0 318 159.5 532t430.5 214q305 0 467.5 -197t162.5 -549q0 -361 -163 -565.5t-467 -204.5q-277 0 -433.5 216t-156.5 554zM290 745q0 -252 99.5 -421t280.5 -169q205 0 312.5 155t107.5 435q0 566 -420 566q-186 0 -283 -152t-97 -414zM364 1585 q14 84 64.5 145.5t119.5 61.5q82 0 151.5 -38.5t104.5 -38.5q81 0 108 77h88q-53 -207 -192 -207q-63 0 -138.5 38.5t-106.5 38.5q-71 0 -108 -77h-91z" />
<glyph unicode="&#xd6;" horiz-adv-x="1380" d="M80 745q0 318 159.5 532t430.5 214q305 0 467.5 -197t162.5 -549q0 -361 -163 -565.5t-467 -204.5q-277 0 -433.5 216t-156.5 554zM290 745q0 -252 99.5 -421t280.5 -169q205 0 312.5 155t107.5 435q0 566 -420 566q-186 0 -283 -152t-97 -414zM337 1701q0 47 33 79.5 t80 32.5t79.5 -32.5t32.5 -79.5t-32.5 -80t-79.5 -33t-80 33t-33 80zM810 1701q0 47 32.5 79.5t79.5 32.5t80 -32.5t33 -79.5t-33 -80t-80 -33t-79.5 33t-32.5 80z" />
<glyph unicode="&#xd7;" d="M123 949l100 100l321 -321l317 317l100 -99l-317 -317l314 -315l-100 -100l-314 315l-317 -317l-100 99l317 317z" />
<glyph unicode="&#xd8;" horiz-adv-x="1345" d="M67 -25l160 211q-160 214 -160 559q0 318 159.5 532t430.5 214q214 0 361 -100l67 100h202l-144 -220q144 -194 144 -526q0 -361 -163 -565.5t-467 -204.5q-176 0 -307 91l-67 -91h-216zM277 745q0 -217 77 -378l559 862q-99 82 -256 82q-186 0 -283 -152t-97 -414z M457 227q84 -72 200 -72q206 0 313 156t107 434q0 205 -58 338z" />
<glyph unicode="&#xd9;" horiz-adv-x="1328" d="M150 447v1018h200v-1003q0 -134 85 -220.5t225 -86.5q148 0 233 84t85 228v998h200v-1019q0 -222 -138.5 -346.5t-377.5 -124.5q-246 0 -379 122t-133 350zM433 1918h197l169 -333h-140z" />
<glyph unicode="&#xda;" horiz-adv-x="1328" d="M150 447v1018h200v-1003q0 -134 85 -220.5t225 -86.5q148 0 233 84t85 228v998h200v-1019q0 -222 -138.5 -346.5t-377.5 -124.5q-246 0 -379 122t-133 350zM488 1585l169 333h197l-226 -333h-140z" />
<glyph unicode="&#xdb;" horiz-adv-x="1328" d="M150 447v1018h200v-1003q0 -134 85 -220.5t225 -86.5q148 0 233 84t85 228v998h200v-1019q0 -222 -138.5 -346.5t-377.5 -124.5q-246 0 -379 122t-133 350zM279 1585l298 338h107l305 -338h-197l-163 189l-178 -189h-172z" />
<glyph unicode="&#xdc;" horiz-adv-x="1328" d="M150 447v1018h200v-1003q0 -134 85 -220.5t225 -86.5q148 0 233 84t85 228v998h200v-1019q0 -222 -138.5 -346.5t-377.5 -124.5q-246 0 -379 122t-133 350zM289 1701q0 47 33 79.5t80 32.5t79.5 -32.5t32.5 -79.5t-32.5 -80t-79.5 -33t-80 33t-33 80zM762 1701 q0 47 32.5 79.5t79.5 32.5t80 -32.5t33 -79.5t-33 -80t-80 -33t-79.5 33t-32.5 80z" />
<glyph unicode="&#xdd;" horiz-adv-x="1168" d="M13 1465h206l365 -640l365 640h206l-470 -809v-656h-200v656zM453 1585l169 333h197l-226 -333h-140z" />
<glyph unicode="&#xde;" horiz-adv-x="1138" d="M150 0v1465h201v-190h74q638 0 638 -447q0 -245 -148.5 -379.5t-415.5 -134.5h-148v-314h-201zM351 494h134q372 0 372 313q0 150 -92 219t-305 69h-109v-601z" />
<glyph unicode="&#xdf;" horiz-adv-x="1119" d="M135 0v1115q0 184 92 289.5t247 105.5q176 0 273 -75t97 -203t-95 -237q-33 -38 -33 -50q0 -21 13 -32t79 -45q231 -120 231 -422q0 -219 -97 -342.5t-279 -123.5q-76 0 -141 23l36 151l56 -9q18 -3 59.5 5.5t72.5 30.5t51.5 57.5t31 84t10.5 110.5q0 83 -29.5 145 t-57.5 85.5t-152 125.5q-84 68 -84 146q0 22 50.5 65t76.5 81.5t26 96.5q0 162 -169 162q-96 0 -135.5 -75t-39.5 -249v-1016h-190z" />
<glyph unicode="&#xe0;" horiz-adv-x="1076" d="M80 299q0 163 142.5 275.5t363.5 112.5q60 0 136 -26q0 260 -232 260q-178 0 -274 -96l-80 159q54 44 149.5 75.5t182.5 31.5q233 0 338.5 -106t105.5 -337v-384q0 -141 84 -188v-95q-116 0 -173.5 33t-82.5 109q-114 -143 -349 -143q-126 0 -218.5 91.5t-92.5 227.5z M270 297q0 -167 197 -167q144 0 255 137v259q-90 20 -126 20q-144 0 -235 -74t-91 -175zM279 1618h197l169 -333h-140z" />
<glyph unicode="&#xe1;" horiz-adv-x="1076" d="M80 299q0 163 142.5 275.5t363.5 112.5q60 0 136 -26q0 260 -232 260q-178 0 -274 -96l-80 159q54 44 149.5 75.5t182.5 31.5q233 0 338.5 -106t105.5 -337v-384q0 -141 84 -188v-95q-116 0 -173.5 33t-82.5 109q-114 -143 -349 -143q-126 0 -218.5 91.5t-92.5 227.5z M270 297q0 -167 197 -167q144 0 255 137v259q-90 20 -126 20q-144 0 -235 -74t-91 -175zM399 1285l169 333h197l-226 -333h-140z" />
<glyph unicode="&#xe2;" horiz-adv-x="1076" d="M80 299q0 163 142.5 275.5t363.5 112.5q60 0 136 -26q0 260 -232 260q-178 0 -274 -96l-80 159q54 44 149.5 75.5t182.5 31.5q233 0 338.5 -106t105.5 -337v-384q0 -141 84 -188v-95q-116 0 -173.5 33t-82.5 109q-114 -143 -349 -143q-126 0 -218.5 91.5t-92.5 227.5z M167 1285l298 338h107l305 -338h-197l-163 189l-178 -189h-172zM270 297q0 -167 197 -167q144 0 255 137v259q-90 20 -126 20q-144 0 -235 -74t-91 -175z" />
<glyph unicode="&#xe3;" horiz-adv-x="1076" d="M80 299q0 163 142.5 275.5t363.5 112.5q60 0 136 -26q0 260 -232 260q-178 0 -274 -96l-80 159q54 44 149.5 75.5t182.5 31.5q233 0 338.5 -106t105.5 -337v-384q0 -141 84 -188v-95q-116 0 -173.5 33t-82.5 109q-114 -143 -349 -143q-126 0 -218.5 91.5t-92.5 227.5z M197 1285q14 84 64.5 145.5t119.5 61.5q82 0 151.5 -38.5t104.5 -38.5q81 0 108 77h88q-53 -207 -192 -207q-63 0 -138.5 38.5t-106.5 38.5q-71 0 -108 -77h-91zM270 297q0 -167 197 -167q144 0 255 137v259q-90 20 -126 20q-144 0 -235 -74t-91 -175z" />
<glyph unicode="&#xe4;" horiz-adv-x="1076" d="M80 299q0 163 142.5 275.5t363.5 112.5q60 0 136 -26q0 260 -232 260q-178 0 -274 -96l-80 159q54 44 149.5 75.5t182.5 31.5q233 0 338.5 -106t105.5 -337v-384q0 -141 84 -188v-95q-116 0 -173.5 33t-82.5 109q-114 -143 -349 -143q-126 0 -218.5 91.5t-92.5 227.5z M163 1401q0 47 33 79.5t80 32.5t79.5 -32.5t32.5 -79.5t-32.5 -80t-79.5 -33t-80 33t-33 80zM270 297q0 -167 197 -167q144 0 255 137v259q-90 20 -126 20q-144 0 -235 -74t-91 -175zM636 1401q0 47 32.5 79.5t79.5 32.5t80 -32.5t33 -79.5t-33 -80t-80 -33t-79.5 33 t-32.5 80z" />
<glyph unicode="&#xe5;" horiz-adv-x="1076" d="M80 299q0 163 142.5 275.5t363.5 112.5q60 0 136 -26q0 260 -232 260q-178 0 -274 -96l-80 159q54 44 149.5 75.5t182.5 31.5q233 0 338.5 -106t105.5 -337v-384q0 -141 84 -188v-95q-116 0 -173.5 33t-82.5 109q-114 -143 -349 -143q-126 0 -218.5 91.5t-92.5 227.5z M270 297q0 -167 197 -167q144 0 255 137v259q-90 20 -126 20q-144 0 -235 -74t-91 -175zM302 1495q0 87 62 148t150 61t149.5 -61t61.5 -148t-62 -148.5t-149 -61.5q-88 0 -150 61.5t-62 148.5zM412 1495q0 -41 30 -70.5t72 -29.5t71.5 29.5t29.5 70.5t-29.5 70t-71.5 29 t-72 -29t-30 -70z" />
<glyph unicode="&#xe6;" horiz-adv-x="1788" d="M80 281q0 182 141.5 292t370.5 110q56 0 132 -22q0 260 -233 260q-178 0 -274 -96l-80 159q54 44 149.5 75.5t182.5 31.5q293 0 389 -173q148 173 368 173q222 0 353.5 -133t131.5 -345q0 -46 -15 -96h-762q0 -170 89 -273.5t238 -103.5q175 0 274 109l80 -152 q-78 -69 -169 -93t-222 -24q-170 0 -298 95q5 -50 11 -95h-161q-11 47 -35 143q-114 -143 -339 -143q-133 0 -227.5 87.5t-94.5 213.5zM270 297q0 -167 198 -167q145 0 256 137v259q-60 20 -127 20q-142 0 -234.5 -79.5t-92.5 -169.5zM934 655h598q0 123 -84.5 199.5 t-222.5 76.5q-123 0 -207 -90t-84 -186z" />
<glyph unicode="&#xe7;" horiz-adv-x="1014" d="M65 525q0 256 148.5 411t406.5 155q83 0 180 -35t143 -72l-94 -134q-29 29 -102.5 55t-144.5 26q-155 0 -246 -108.5t-91 -297.5q0 -188 93 -286.5t258 -98.5q128 0 258 99l75 -160q-153 -99 -379 -99q-219 0 -362 147t-143 398zM383 -356q78 0 130 27t52 75q0 74 -90 74 v119q99 0 154 -56t55 -137q0 -94 -73 -147.5t-204 -53.5z" />
<glyph unicode="&#xe8;" horiz-adv-x="1117" d="M65 523q0 265 161 425q144 143 341 143q229 0 359 -129q126 -124 126 -329q0 -63 -15 -116h-772q0 -188 103 -289q91 -88 234 -88q163 0 272 95l80 -137q-44 -44 -135 -76q-114 -42 -254 -42q-202 0 -343 137q-157 151 -157 406zM270 655h593q0 115 -72 192 q-79 84 -215 84q-127 0 -213 -82q-82 -78 -93 -194zM361 1618h197l169 -333h-140z" />
<glyph unicode="&#xe9;" horiz-adv-x="1117" d="M65 523q0 265 161 425q144 143 341 143q229 0 359 -129q126 -124 126 -329q0 -63 -15 -116h-772q0 -188 103 -289q91 -88 234 -88q163 0 272 95l80 -137q-44 -44 -135 -76q-114 -42 -254 -42q-202 0 -343 137q-157 151 -157 406zM270 655h593q0 115 -72 192 q-79 84 -215 84q-127 0 -213 -82q-82 -78 -93 -194zM458 1285l169 333h197l-226 -333h-140z" />
<glyph unicode="&#xea;" horiz-adv-x="1117" d="M65 523q0 265 161 425q144 143 341 143q229 0 359 -129q126 -124 126 -329q0 -63 -15 -116h-772q0 -188 103 -289q91 -88 234 -88q163 0 272 95l80 -137q-44 -44 -135 -76q-114 -42 -254 -42q-202 0 -343 137q-157 151 -157 406zM216 1285l298 338h107l305 -338h-197 l-163 189l-178 -189h-172zM270 655h593q0 115 -72 192q-79 84 -215 84q-127 0 -213 -82q-82 -78 -93 -194z" />
<glyph unicode="&#xeb;" horiz-adv-x="1117" d="M65 523q0 265 161 425q144 143 341 143q229 0 359 -129q126 -124 126 -329q0 -63 -15 -116h-772q0 -188 103 -289q91 -88 234 -88q163 0 272 95l80 -137q-44 -44 -135 -76q-114 -42 -254 -42q-202 0 -343 137q-157 151 -157 406zM214 1401q0 47 33 79.5t80 32.5 t79.5 -32.5t32.5 -79.5t-32.5 -80t-79.5 -33t-80 33t-33 80zM270 655h593q0 115 -72 192q-79 84 -215 84q-127 0 -213 -82q-82 -78 -93 -194zM687 1401q0 47 32.5 79.5t79.5 32.5t80 -32.5t33 -79.5t-33 -80t-80 -33t-79.5 33t-32.5 80z" />
<glyph unicode="&#xec;" horiz-adv-x="584" d="M62 1618h197l169 -333h-140zM80 911v160h340v-1071h-193v911h-147z" />
<glyph unicode="&#xed;" horiz-adv-x="584" d="M80 911v160h340v-1071h-193v911h-147zM174 1285l169 333h197l-226 -333h-140z" />
<glyph unicode="&#xee;" horiz-adv-x="584" d="M-70 1285l298 338h107l305 -338h-197l-163 189l-178 -189h-172zM80 911v160h340v-1071h-193v911h-147z" />
<glyph unicode="&#xef;" horiz-adv-x="584" d="M-60 1401q0 47 33 79.5t80 32.5t79.5 -32.5t32.5 -79.5t-32.5 -80t-79.5 -33t-80 33t-33 80zM80 911v160h340v-1071h-193v911h-147zM413 1401q0 47 32.5 79.5t79.5 32.5t80 -32.5t33 -79.5t-33 -80t-80 -33t-79.5 33t-32.5 80z" />
<glyph unicode="&#xf0;" horiz-adv-x="1125" d="M61 538q0 243 131.5 398t353.5 155q77 0 146 -18q-64 112 -115 183l-174 -94l-46 90l159 84q-91 110 -176 174h251q29 -30 80 -92l173 92l46 -85l-159 -86q184 -283 241.5 -456.5t57.5 -344.5q0 -254 -128 -406t-356 -152q-229 0 -357 152t-128 406zM251 538 q0 -388 295 -388q141 0 217.5 106t76.5 282q0 383 -294 383q-141 0 -218 -105t-77 -278z" />
<glyph unicode="&#xf1;" horiz-adv-x="1119" d="M135 0v1071h130l60 -138q94 158 307 158q352 0 352 -428v-663h-190v623q0 171 -51.5 239.5t-172.5 68.5q-65 0 -136 -39t-109 -96v-796h-190zM214 1285q14 84 64.5 145.5t119.5 61.5q82 0 151.5 -38.5t104.5 -38.5q81 0 108 77h88q-53 -207 -192 -207q-63 0 -138.5 38.5 t-106.5 38.5q-71 0 -108 -77h-91z" />
<glyph unicode="&#xf2;" horiz-adv-x="1099" d="M65 538q0 248 133.5 400.5t351.5 152.5q230 0 357 -146.5t127 -406.5q0 -259 -130 -408.5t-354 -149.5q-229 0 -357 151t-128 407zM265 538q0 -403 285 -403q133 0 208.5 108t75.5 295q0 398 -284 398q-130 0 -207.5 -106t-77.5 -292zM339 1618h197l169 -333h-140z" />
<glyph unicode="&#xf3;" horiz-adv-x="1099" d="M65 538q0 248 133.5 400.5t351.5 152.5q230 0 357 -146.5t127 -406.5q0 -259 -130 -408.5t-354 -149.5q-229 0 -357 151t-128 407zM265 538q0 -403 285 -403q133 0 208.5 108t75.5 295q0 398 -284 398q-130 0 -207.5 -106t-77.5 -292zM408 1285l169 333h197l-226 -333 h-140z" />
<glyph unicode="&#xf4;" horiz-adv-x="1099" d="M65 538q0 248 133.5 400.5t351.5 152.5q230 0 357 -146.5t127 -406.5q0 -259 -130 -408.5t-354 -149.5q-229 0 -357 151t-128 407zM196 1285l298 338h107l305 -338h-197l-163 189l-178 -189h-172zM265 538q0 -403 285 -403q133 0 208.5 108t75.5 295q0 398 -284 398 q-130 0 -207.5 -106t-77.5 -292z" />
<glyph unicode="&#xf5;" horiz-adv-x="1099" d="M65 538q0 248 133.5 400.5t351.5 152.5q230 0 357 -146.5t127 -406.5q0 -259 -130 -408.5t-354 -149.5q-229 0 -357 151t-128 407zM244 1285q14 84 64.5 145.5t119.5 61.5q82 0 151.5 -38.5t104.5 -38.5q81 0 108 77h88q-53 -207 -192 -207q-63 0 -138.5 38.5 t-106.5 38.5q-71 0 -108 -77h-91zM265 538q0 -403 285 -403q133 0 208.5 108t75.5 295q0 398 -284 398q-130 0 -207.5 -106t-77.5 -292z" />
<glyph unicode="&#xf6;" horiz-adv-x="1099" d="M65 538q0 248 133.5 400.5t351.5 152.5q230 0 357 -146.5t127 -406.5q0 -259 -130 -408.5t-354 -149.5q-229 0 -357 151t-128 407zM215 1401q0 47 33 79.5t80 32.5t79.5 -32.5t32.5 -79.5t-32.5 -80t-79.5 -33t-80 33t-33 80zM265 538q0 -403 285 -403q133 0 208.5 108 t75.5 295q0 398 -284 398q-130 0 -207.5 -106t-77.5 -292zM688 1401q0 47 32.5 79.5t79.5 32.5t80 -32.5t33 -79.5t-33 -80t-80 -33t-79.5 33t-32.5 80z" />
<glyph unicode="&#xf7;" d="M122 564v141h838v-141h-838zM394 250q0 62 44 106t106 44t106 -44t44 -106t-44 -106.5t-106 -44.5t-106 44.5t-44 106.5zM394 1000q0 62 44 106t106 44t106 -44t44 -106t-44 -106.5t-106 -44.5t-106 44.5t-44 106.5z" />
<glyph unicode="&#xf8;" horiz-adv-x="1117" d="M61 -20l119 162q-119 149 -119 396q0 248 133.5 400.5t351.5 152.5q165 0 278 -76l56 76h150l-117 -159q117 -146 117 -394q0 -259 -130 -408.5t-354 -149.5q-162 0 -276 78l-58 -78h-151zM251 538q0 -148 44 -241l424 575q-75 54 -173 54q-134 0 -214.5 -103t-80.5 -285 zM373 199q69 -64 173 -64q134 0 214 108.5t80 294.5q0 146 -43 237z" />
<glyph unicode="&#xf9;" horiz-adv-x="1119" d="M125 368v703h190v-683q0 -248 215 -248q94 0 172 54t103 125v752h190v-1071h-190v148q-32 -63 -128.5 -115.5t-188.5 -52.5q-176 0 -269.5 101t-93.5 287zM321 1618h197l169 -333h-140z" />
<glyph unicode="&#xfa;" horiz-adv-x="1119" d="M125 368v703h190v-683q0 -248 215 -248q94 0 172 54t103 125v752h190v-1071h-190v148q-32 -63 -128.5 -115.5t-188.5 -52.5q-176 0 -269.5 101t-93.5 287zM374 1285l169 333h197l-226 -333h-140z" />
<glyph unicode="&#xfb;" horiz-adv-x="1119" d="M125 368v703h190v-683q0 -248 215 -248q94 0 172 54t103 125v752h190v-1071h-190v148q-32 -63 -128.5 -115.5t-188.5 -52.5q-176 0 -269.5 101t-93.5 287zM166 1285l298 338h107l305 -338h-197l-163 189l-178 -189h-172z" />
<glyph unicode="&#xfc;" horiz-adv-x="1119" d="M125 368v703h190v-683q0 -248 215 -248q94 0 172 54t103 125v752h190v-1071h-190v148q-32 -63 -128.5 -115.5t-188.5 -52.5q-176 0 -269.5 101t-93.5 287zM181 1401q0 47 33 79.5t80 32.5t79.5 -32.5t32.5 -79.5t-32.5 -80t-79.5 -33t-80 33t-33 80zM654 1401 q0 47 32.5 79.5t79.5 32.5t80 -32.5t33 -79.5t-33 -80t-80 -33t-79.5 33t-32.5 80z" />
<glyph unicode="&#xfd;" horiz-adv-x="1010" d="M12 1071h194l315 -828l283 828h194l-454 -1253q-37 -102 -155.5 -170t-264.5 -68v170q119 0 204 55.5t85 135.5q0 88 -31 173.5t-80 211.5zM389 1285l169 333h197l-226 -333h-140z" />
<glyph unicode="&#xfe;" horiz-adv-x="1133" d="M135 -420v1930h190v-527q108 108 261 108q228 0 355 -142t127 -416q0 -244 -128 -398.5t-370 -154.5q-166 0 -245 79v-479h-190zM325 226q89 -76 189 -76q186 0 270 93.5t84 296.5q0 200 -83 290.5t-270 90.5q-40 0 -98 -28t-92 -63v-604z" />
<glyph unicode="&#xff;" horiz-adv-x="1010" d="M12 1071h194l315 -828l283 828h194l-454 -1253q-37 -102 -155.5 -170t-264.5 -68v170q119 0 204 55.5t85 135.5q0 88 -31 173.5t-80 211.5zM151 1401q0 47 33 79.5t80 32.5t79.5 -32.5t32.5 -79.5t-32.5 -80t-79.5 -33t-80 33t-33 80zM624 1401q0 47 32.5 79.5t79.5 32.5 t80 -32.5t33 -79.5t-33 -80t-80 -33t-79.5 33t-32.5 80z" />
<glyph unicode="&#x192;" horiz-adv-x="795" d="M-176 -253q81 16 156 68t85 112l166 999q-44 0 -151 -13l30 158l147 1q88 438 439 438q53 0 142 -30l-36 -148q-76 28 -118 28q-199 0 -237 -288q34 -2 70 -2q84 0 181 10l-13 -116q-167 -24 -265 -29l-165 -1008q-24 -144 -125.5 -231t-251.5 -104q-1 -1 -3 5t-7.5 20.5 t-11.5 33.5l-19 57q-13 37 -13 39z" />
<glyph unicode="&#x2c6;" d="M169 1285l298 338h107l305 -338h-197l-163 189l-178 -189h-172z" />
<glyph unicode="&#x2da;" d="M296 1495q0 87 62 148t150 61t149.5 -61t61.5 -148t-62 -148.5t-149 -61.5q-88 0 -150 61.5t-62 148.5zM406 1495q0 -41 30 -70.5t72 -29.5t71.5 29.5t29.5 70.5t-29.5 70t-71.5 29t-72 -29t-30 -70z" />
<glyph unicode="&#x2dc;" d="M204 1285q14 84 64.5 145.5t119.5 61.5q82 0 151.5 -38.5t104.5 -38.5q81 0 108 77h88q-53 -207 -192 -207q-63 0 -138.5 38.5t-106.5 38.5q-71 0 -108 -77h-91z" />
<glyph unicode="&#x401;" horiz-adv-x="1112" d="M150 0v1464h874v-180h-674v-405h484v-170h-484v-529h664v-180h-864zM287 1700q0 46 33 79t79 33q47 0 80 -32.5t33 -79.5q0 -46 -32 -79.5t-81 -33.5t-80.5 34.5t-31.5 78.5zM686 1700q0 54 36.5 83t76.5 29q44 0 78 -31.5t34 -80.5q0 -47 -32.5 -80t-79.5 -33 q-50 0 -81.5 34.5t-31.5 78.5z" />
<glyph unicode="&#x402;" horiz-adv-x="1493" d="M57 1288v176h1078v-176h-473v-414q115 25 245 25q245 0 379.5 -116.5t134.5 -331.5v-15q0 -138 -53 -238.5t-148.5 -154t-207.5 -53.5q-69 0 -127 8v166q67 -8 106 -8q103 0 163 70t60 198v29q0 136 -79.5 209t-225.5 73q-127 0 -247 -24v-711h-199v1288h-406z" />
<glyph unicode="&#x403;" horiz-adv-x="1065" d="M150 0v1464h854v-180h-652v-1284h-202zM504 1585l168 334h196l-225 -334h-139z" />
<glyph unicode="&#x404;" horiz-adv-x="1198" d="M80 727q0 321 173.5 542.5t473.5 221.5q195 0 358 -80l-67 -170q-134 76 -299 76q-173 0 -284 -121t-142 -340h545v-162h-555q10 -250 126 -397t308 -147q201 0 317 149l111 -152q-173 -172 -449 -172q-290 0 -453 209t-163 543z" />
<glyph unicode="&#x405;" horiz-adv-x="993" d="M84 1110q0 173 119.5 277t294.5 104q241 0 338 -80l-60 -174q-50 36 -131.5 60t-140.5 24q-98 0 -158.5 -57t-60.5 -152q0 -76 34.5 -126.5t86 -81t141.5 -70.5q116 -51 187.5 -98t122 -135.5t50.5 -229.5q0 -181 -141 -288.5t-344 -107.5q-195 0 -334 93l74 184 q58 -43 140 -69.5t149 -26.5q112 0 185 61.5t73 165.5q0 79 -36.5 131.5t-90 84.5t-146.5 74q-114 51 -184 96.5t-119 128t-49 212.5z" />
<glyph unicode="&#x406;" horiz-adv-x="569" d="M184 0v1464h201v-1464h-201z" />
<glyph unicode="&#x407;" horiz-adv-x="569" d="M-29 1702q0 44 32.5 77t82.5 33q46 0 78.5 -32t32.5 -78q0 -49 -34.5 -82t-76.5 -33q-46 0 -80.5 33.5t-34.5 81.5zM184 0v1464h201v-1464h-201zM371 1702q0 44 32.5 77t79.5 33q46 0 79.5 -31.5t33.5 -78.5q0 -44 -31.5 -79.5t-81.5 -35.5q-44 0 -78 33.5t-34 81.5z" />
<glyph unicode="&#x408;" horiz-adv-x="961" d="M45 293h174q25 -133 160 -133q142 0 193 62.5t51 316.5v925h198v-917q0 -323 -104.5 -445t-335.5 -122q-142 0 -234.5 84t-101.5 229z" />
<glyph unicode="&#x409;" horiz-adv-x="1989" d="M31 -12v182q80 0 139 44.5t136.5 210.5t141 416.5t140.5 622.5h610v-555q110 11 170 11q254 0 395.5 -118t141.5 -337q0 -216 -143.5 -340.5t-372.5 -124.5h-388v1288h-270q-68 -377 -155 -669.5t-172.5 -421.5t-170 -169t-202.5 -40zM1196 170q82 -10 152 -10 q356 0 356 309q0 140 -90 213.5t-254 73.5q-74 0 -164 -11v-575z" />
<glyph unicode="&#x40a;" horiz-adv-x="1870" d="M150 0v1464h196v-585h537v585h196v-555q110 11 170 11q254 0 395.5 -118t141.5 -337q0 -216 -143 -340.5t-373 -124.5h-387v709h-537v-709h-196zM1077 170q82 -10 152 -10q356 0 356 309q0 138 -89 212.5t-255 74.5q-74 0 -164 -11v-575z" />
<glyph unicode="&#x40b;" horiz-adv-x="1520" d="M57 1288v176h1073v-176h-468v-414q118 25 227 25q238 0 371 -115.5t133 -328.5v-455h-203v457q0 136 -77 207t-222 71q-102 0 -229 -24v-711h-199v1288h-406z" />
<glyph unicode="&#x40c;" horiz-adv-x="1253" d="M150 0v1464h200v-606h19q187 0 300.5 86.5t141.5 251.5q25 147 81.5 212t176.5 65q39 0 70 -5v-172q-7 2 -41 2q-38 0 -58.5 -25.5t-38.5 -113.5q-28 -141 -119 -243.5t-229 -141.5q302 -105 367 -450q19 -100 41.5 -128t56.5 -28q21 0 43 4v-178q-15 -4 -74 -4 q-125 0 -183 64.5t-85 221.5q-36 215 -148 313.5t-313 98.5h-8v-688h-200zM543 1585l168 334h196l-225 -334h-139z" />
<glyph unicode="&#x40e;" horiz-adv-x="1182" d="M14 1464h228l397 -893q205 417 313 893h217q-129 -488 -301 -839.5t-339.5 -495t-395.5 -143.5v194q242 0 383 230zM256 1888l170 39q37 -205 188 -205q170 0 197 203l162 -37q-67 -307 -359 -307q-291 0 -358 307z" />
<glyph unicode="&#x40f;" horiz-adv-x="1300" d="M150 0v1464h200v-1286h600v1286h201v-1464h-408v-420h-186v420h-407z" />
<glyph unicode="&#x410;" horiz-adv-x="1217" d="M8 0l594 1485h53l553 -1485h-223l-100 309h-545l-109 -309h-223zM393 457h434l-206 645z" />
<glyph unicode="&#x411;" horiz-adv-x="1165" d="M150 0v1464h829v-174h-629v-405q112 10 191 10q259 0 399.5 -114t140.5 -328q0 -213 -142.5 -333t-377.5 -120h-411zM350 170q137 -10 168 -10q352 0 352 299q0 274 -342 274q-89 0 -178 -10v-553z" />
<glyph unicode="&#x412;" horiz-adv-x="1163" d="M150 0v1464q249 15 385 15q212 0 333 -92.5t121 -270.5q0 -99 -75.5 -184t-168.5 -107q334 -74 334 -401q0 -194 -141 -309t-371 -115h-417zM350 170q112 -10 158 -10q182 0 271 68.5t89 226.5q0 148 -85.5 213.5t-245.5 65.5q-9 0 -187 -5v-559zM350 885q62 -6 156 -6 q285 0 285 231q0 203 -263 203q-74 0 -178 -8v-420z" />
<glyph unicode="&#x413;" horiz-adv-x="1065" d="M150 0v1464h854v-180h-652v-1284h-202z" />
<glyph unicode="&#x414;" horiz-adv-x="1415" d="M29 168h86q141 186 233 377.5t147.5 382.5t129.5 536h589v-1296h156v-588h-182v420h-977v-420h-182v588zM322 168h700v1128h-260q-133 -703 -440 -1128z" />
<glyph unicode="&#x415;" horiz-adv-x="1112" d="M150 0v1464h874v-180h-674v-405h484v-170h-484v-529h664v-180h-864z" />
<glyph unicode="&#x416;" horiz-adv-x="1829" d="M88 -6v178q23 -4 43 -4q45 0 66 43t32 113q30 176 110.5 282.5t219.5 163.5q-262 68 -315 389q-11 66 -28.5 102.5t-65.5 36.5q-36 0 -44 -2v172q33 5 68 5q119 0 176.5 -66.5t81.5 -212.5q29 -177 121.5 -257.5t267.5 -80.5v608h197v-608q169 0 262 82.5t121 255.5 q24 147 80 213t174 66q35 0 67 -5v-172q-8 2 -45 2q-32 0 -53.5 -25t-38.5 -114q-27 -144 -110 -245.5t-209 -139.5q145 -60 226.5 -165.5t111.5 -284.5q10 -67 29.5 -111.5t64.5 -44.5q20 0 43 4v-178q-16 -4 -68 -4q-122 0 -178 64.5t-82 224.5q-36 224 -130.5 318.5 t-264.5 94.5v-692h-197v692q-179 0 -276.5 -95.5t-132.5 -317.5q-25 -155 -81.5 -222t-172.5 -67q-55 0 -70 4z" />
<glyph unicode="&#x417;" horiz-adv-x="1075" d="M53 72l74 182q156 -107 346 -107q145 0 230 75t85 198q0 137 -96.5 213t-265.5 76q-51 0 -125 -4v167q79 -4 143 -4q141 0 224.5 66t83.5 180q0 100 -72.5 156.5t-190.5 56.5q-151 0 -321 -92l-62 166q182 90 394 90q208 0 326 -98.5t118 -280.5q0 -102 -70.5 -193 t-185.5 -128q147 -39 225 -133.5t78 -229.5q0 -209 -144 -331t-390 -122q-255 0 -404 97z" />
<glyph unicode="&#x418;" horiz-adv-x="1376" d="M150 -20v1484h200v-1050l824 1071h53v-1485h-201v1051l-823 -1071h-53z" />
<glyph unicode="&#x419;" horiz-adv-x="1376" d="M150 -20v1484h200v-1050l824 1071h53v-1485h-201v1051l-823 -1071h-53zM369 1888l170 39q37 -205 188 -205q169 0 197 203l161 -37q-67 -307 -358 -307t-358 307z" />
<glyph unicode="&#x41a;" horiz-adv-x="1253" d="M150 0v1464h200v-606h19q187 0 300.5 86.5t141.5 251.5q25 147 81.5 212t176.5 65q39 0 70 -5v-172q-7 2 -41 2q-38 0 -58.5 -25.5t-38.5 -113.5q-28 -141 -119 -243.5t-229 -141.5q302 -105 367 -450q19 -100 41.5 -128t56.5 -28q21 0 43 4v-178q-15 -4 -74 -4 q-125 0 -183 64.5t-85 221.5q-36 215 -148 313.5t-313 98.5h-8v-688h-200z" />
<glyph unicode="&#x41b;" horiz-adv-x="1376" d="M31 -14v188q69 0 118.5 24.5t104 100t119 259.5t104.5 409.5t72 496.5h678v-1464h-201v1288h-324q-31 -288 -79.5 -533t-124.5 -411.5t-141.5 -237.5t-139 -95.5t-186.5 -24.5z" />
<glyph unicode="&#x41c;" horiz-adv-x="1522" d="M49 0l285 1464h88l340 -1067l338 1067h86l287 -1464h-191l-176 946l-324 -966h-51l-319 966l-172 -946h-191z" />
<glyph unicode="&#x41d;" horiz-adv-x="1339" d="M150 0v1464h200v-585h639v585h201v-1464h-201v709h-639v-709h-200z" />
<glyph unicode="&#x41e;" horiz-adv-x="1380" d="M80 745q0 319 159.5 532.5t430.5 213.5q307 0 468.5 -199t161.5 -547q0 -358 -162.5 -564t-467.5 -206q-280 0 -435 216t-155 554zM291 745q0 -254 98.5 -421.5t280.5 -167.5q206 0 313 153.5t107 435.5q0 566 -420 566q-182 0 -280.5 -148.5t-98.5 -417.5z" />
<glyph unicode="&#x41f;" horiz-adv-x="1300" d="M150 0v1464h1001v-1464h-201v1284h-600v-1284h-200z" />
<glyph unicode="&#x420;" horiz-adv-x="1143" d="M150 0v1464q189 11 274 11q639 0 639 -426q0 -494 -565 -494q-47 0 -148 8v-563h-200zM350 743l133 -10q373 0 373 293q0 268 -397 268q-52 0 -109 -10v-541z" />
<glyph unicode="&#x421;" horiz-adv-x="1206" d="M80 727q0 320 172.5 542t458.5 222q235 0 374 -80l-67 -172q-95 72 -301 72q-201 0 -313.5 -171.5t-112.5 -422.5q0 -238 114 -399.5t314 -161.5q204 0 315 145l111 -154q-175 -172 -449 -172q-290 0 -453 209t-163 543z" />
<glyph unicode="&#x422;" horiz-adv-x="1268" d="M57 1284v180h1153v-180h-487v-1284h-201v1284h-465z" />
<glyph unicode="&#x423;" horiz-adv-x="1182" d="M14 1464h228l397 -893q205 417 313 893h217q-129 -488 -301 -839.5t-339.5 -495t-395.5 -143.5v194q242 0 383 230z" />
<glyph unicode="&#x424;" horiz-adv-x="1511" d="M74 733q0 244 157.5 412t425.5 180v170h197v-170q263 -12 423.5 -171.5t160.5 -399.5q0 -245 -158 -414.5t-426 -181.5v-178h-197v178q-262 12 -422.5 173t-160.5 402zM268 739q0 -179 104 -299.5t287 -128.5v860q-184 -7 -287.5 -126t-103.5 -306zM852 311 q184 8 287.5 128.5t103.5 308.5q0 178 -104 297t-287 126v-860z" />
<glyph unicode="&#x425;" horiz-adv-x="1155" d="M20 0l433 760l-398 706l199 -2l311 -553l346 553h201l-455 -708l478 -756h-211l-365 588l-336 -588h-203z" />
<glyph unicode="&#x426;" horiz-adv-x="1333" d="M150 0v1464h200v-1286h578v1286h200v-1286h160v-598h-182v420h-956z" />
<glyph unicode="&#x427;" horiz-adv-x="1223" d="M119 1024v440h203v-417q0 -160 76.5 -242t222.5 -82q125 0 253 33v708h199v-1464h-199v590q-142 -33 -268 -33q-231 0 -359 121.5t-128 345.5z" />
<glyph unicode="&#x428;" horiz-adv-x="1831" d="M150 0v1464h192v-1294h477v1294h193v-1294h477v1294h192v-1464h-1531z" />
<glyph unicode="&#x429;" horiz-adv-x="1884" d="M150 0v1464h192v-1294h477v1294h193v-1294h477v1294h192v-1294h158v-590h-180v420h-1509z" />
<glyph unicode="&#x42a;" horiz-adv-x="1516" d="M57 1286v178h641v-557q113 11 195 11q257 0 398 -117t141 -336q0 -217 -144 -341t-377 -124h-413v1286h-441zM698 170q138 -10 170 -10q353 0 353 309q0 140 -88 212.5t-252 72.5q-93 0 -183 -11v-573z" />
<glyph unicode="&#x42b;" horiz-adv-x="1602" d="M150 0v1464h196v-555q110 11 186 11q254 0 395.5 -118t141.5 -337q0 -216 -143 -340.5t-373 -124.5h-403zM344 168q89 -10 168 -10q356 0 356 311q0 139 -89 214t-255 75q-91 0 -180 -10v-580zM1255 0v1464h197v-1464h-197z" />
<glyph unicode="&#x42c;" horiz-adv-x="1180" d="M150 0v1464h200v-557q113 11 207 11q257 0 398 -117t141 -336q0 -217 -144 -341t-377 -124h-425zM350 170q84 -10 182 -10q353 0 353 309q0 139 -87.5 212t-252.5 73q-104 0 -195 -11v-573z" />
<glyph unicode="&#x42d;" horiz-adv-x="1202" d="M53 113l88 176q148 -139 326 -139q204 0 323 143.5t130 400.5h-558v162h551q-20 208 -135 334.5t-284 126.5q-165 0 -304 -92l-84 168q172 98 392 98q292 0 458 -208t166 -542q0 -333 -167.5 -549.5t-467.5 -216.5q-260 0 -434 138z" />
<glyph unicode="&#x42e;" horiz-adv-x="1810" d="M150 0v1464h194v-585h244q34 283 181.5 447.5t373.5 164.5q286 0 437 -202.5t151 -543.5q0 -237 -73 -411t-201 -266.5t-320 -92.5q-254 0 -401.5 197t-155.5 539h-236v-711h-194zM780 745q0 -281 98 -438t263 -157q190 0 287.5 153t97.5 442q0 280 -98 426t-289 146 q-175 0 -267 -157t-92 -415z" />
<glyph unicode="&#x42f;" horiz-adv-x="1225" d="M59 -6v178q21 -4 33 -4q33 0 53 25t37 112q58 298 297 387q-192 51 -262 141t-70 216q0 194 140 313t422 119q146 0 366 -19v-1462h-198v635l-86 2q-183 0 -282 -87t-136 -294q-28 -156 -82 -211t-172 -55q-45 0 -60 4zM352 1067q0 -264 367 -268l158 -2v497 q-106 13 -213 13q-173 0 -242.5 -72t-69.5 -168z" />
<glyph unicode="&#x430;" horiz-adv-x="1051" d="M70 299q0 163 141.5 275t363.5 112q61 0 138 -24q0 260 -234 260q-175 0 -274 -97l-80 158q48 41 145.5 75t188.5 34q226 0 334 -103t108 -342v-383q0 -141 84 -188v-94q-124 0 -179.5 37t-76.5 104q-116 -143 -348 -143q-127 0 -219 92t-92 227zM260 297 q0 -168 197 -168q141 0 256 137v260q-102 21 -127 21q-144 0 -235 -75t-91 -175z" />
<glyph unicode="&#x431;" horiz-adv-x="1128" d="M78 612q0 194 34 344t99 244t167 153t266 97l343 78l41 -176q-373 -81 -460 -104t-161.5 -73t-117 -143.5t-60.5 -259.5q68 116 168.5 177t216.5 61q209 0 329 -133t120 -359q0 -241 -131 -389.5t-357 -148.5q-234 0 -365.5 170.5t-131.5 461.5zM281 498 q0 -160 82 -260.5t221 -100.5q133 0 204.5 98t71.5 263q0 174 -70.5 265t-203.5 91q-136 0 -220.5 -104t-84.5 -252z" />
<glyph unicode="&#x432;" horiz-adv-x="1057" d="M135 0v1069q226 12 418 12q181 0 281 -73.5t100 -214.5q0 -71 -43 -130t-117 -88q205 -66 205 -270q0 -132 -102 -218.5t-306 -86.5h-436zM315 152q113 -7 234 -7q239 0 239 174q0 84 -62 129.5t-181 45.5q-153 0 -230 -5v-337zM315 635q16 -2 230 -2q203 0 203 158 q0 68 -47.5 106.5t-133.5 38.5q-165 0 -252 -8v-293z" />
<glyph unicode="&#x433;" horiz-adv-x="887" d="M135 0v1071h690v-160h-499v-911h-191z" />
<glyph unicode="&#x434;" horiz-adv-x="1184" d="M41 152h82q124 145 191 354.5t67 425.5v139h633v-919h121v-502h-168v350h-758v-350h-168v502zM307 152h524v768h-292q0 -211 -60.5 -419t-171.5 -349z" />
<glyph unicode="&#x435;" horiz-adv-x="1120" d="M66 522q0 255 147.5 412.5t353.5 157.5q222 0 354 -124.5t132 -334.5q0 -42 -17 -117h-772q0 -118 40 -200t115.5 -129.5t182.5 -47.5q161 0 272 97l78 -154q-75 -59 -165 -80.5t-222 -21.5q-218 0 -358.5 149.5t-140.5 392.5zM270 655h592q0 122 -78 199.5t-209 77.5 q-125 0 -210.5 -81.5t-94.5 -195.5z" />
<glyph unicode="&#x436;" horiz-adv-x="1509" d="M82 -6v166q19 -4 43 -4q51 0 61 59q53 284 267 350q-106 26 -168.5 93t-87.5 198q-11 59 -56 59q-40 0 -45 -2v164q29 4 68 4q167 0 198 -182q26 -145 96.5 -201.5t211.5 -56.5v430h180v-430q138 0 208 60t93 196q32 184 197 184q37 0 65 -4v-164q-5 2 -47 2 q-43 0 -55 -61q-43 -228 -246 -289q107 -38 169.5 -118.5t90.5 -233.5q10 -57 59 -57q28 0 43 4v-166q-28 -4 -67 -4q-177 0 -203 186q-24 168 -96 239.5t-211 71.5v-487h-180v487q-148 0 -221.5 -68.5t-98.5 -242.5q-27 -186 -203 -186q-37 0 -65 4z" />
<glyph unicode="&#x437;" horiz-adv-x="930" d="M51 100l96 152q127 -117 306 -117q97 0 154 44.5t57 117.5q0 192 -240 192q-68 0 -119 -6v152q18 -2 125 -2q98 0 152.5 38.5t54.5 106.5q0 75 -49.5 116.5t-138.5 41.5q-135 0 -281 -82l-70 154q184 84 361 84q158 0 265 -83.5t107 -222.5q0 -165 -169 -227 q200 -73 200 -262q0 -149 -112.5 -233t-305.5 -84q-213 0 -393 120z" />
<glyph unicode="&#x438;" horiz-adv-x="1171" d="M135 -29v1100h191v-733l667 762h43v-1100h-190v733l-668 -762h-43z" />
<glyph unicode="&#x439;" horiz-adv-x="1171" d="M135 -29v1100h191v-733l667 762h43v-1100h-190v733l-668 -762h-43zM246 1589l170 39q37 -205 188 -205q169 0 197 203l162 -37q-67 -307 -359 -307q-291 0 -358 307z" />
<glyph unicode="&#x43a;" horiz-adv-x="1057" d="M135 0v1071h191v-428h26q149 0 229 61.5t103 190.5q32 186 211 186q34 0 66 -4v-164q-13 2 -50 2q-45 0 -57 -61q-45 -224 -266 -289q231 -79 284 -352q13 -57 56 -57q39 0 51 4v-166q-28 -4 -70 -4q-188 0 -215 188q-23 160 -108 234.5t-244 74.5h-16v-487h-191z" />
<glyph unicode="&#x43b;" horiz-adv-x="1153" d="M41 -12v174q179 0 253.5 277.5t74.5 531.5v100h655v-1071h-190v920h-287q-5 -226 -46 -417.5t-111 -316t-152 -161.5t-197 -37z" />
<glyph unicode="&#x43c;" horiz-adv-x="1397" d="M53 0l205 1090h51l396 -799l391 799h49l201 -1090h-191l-113 645l-323 -663h-51l-322 653l-110 -635h-183z" />
<glyph unicode="&#x43d;" horiz-adv-x="1145" d="M135 0v1071h191v-430h493v430h191v-1071h-191v483h-493v-483h-191z" />
<glyph unicode="&#x43e;" horiz-adv-x="1100" d="M66 539q0 247 134 400t351 153q230 0 356.5 -148.5t126.5 -404.5q0 -263 -132 -411t-351 -148q-229 0 -357 150t-128 409zM264 539q0 -404 287 -404q134 0 208.5 111t74.5 293q0 397 -283 397q-134 0 -210.5 -108t-76.5 -289z" />
<glyph unicode="&#x43f;" horiz-adv-x="1118" d="M135 0v1071h848v-1071h-190v911h-467v-911h-191z" />
<glyph unicode="&#x440;" horiz-adv-x="1141" d="M135 -420v1491h191v-88q108 109 260 109q227 0 354 -143.5t127 -416.5q0 -246 -128.5 -399t-369.5 -153q-66 0 -143.5 24t-99.5 55v-479h-191zM326 215q22 -29 78 -52.5t110 -23.5q354 0 354 402q0 208 -86 299.5t-268 91.5q-39 0 -99 -30t-89 -62v-625z" />
<glyph unicode="&#x441;" horiz-adv-x="1018" d="M68 524q0 263 150.5 415.5t404.5 152.5q87 0 183 -36t138 -73l-92 -133q-35 31 -105.5 56.5t-142.5 25.5q-156 0 -247 -110t-91 -298q0 -182 91 -283.5t261 -101.5q128 0 259 101l73 -160q-149 -100 -379 -100q-218 0 -360.5 147.5t-142.5 396.5z" />
<glyph unicode="&#x442;" horiz-adv-x="928" d="M61 911v160h805v-160h-307v-911h-190v911h-308z" />
<glyph unicode="&#x443;" horiz-adv-x="1018" d="M16 1077h195l313 -827l285 827h192l-452 -1253q-37 -101 -155 -169.5t-265 -68.5v170q117 0 203 55.5t86 135.5q0 95 -31 174z" />
<glyph unicode="&#x444;" horiz-adv-x="1591" d="M76 528q0 253 123 408.5t342 155.5q79 0 166 -52v469h184v-467q82 50 158 50q226 0 346.5 -145.5t120.5 -409.5q0 -267 -125 -412t-318 -145q-92 0 -182 45v-445h-184v445q-91 -45 -183 -45q-214 0 -331 149.5t-117 398.5zM264 541q0 -188 76.5 -299t239.5 -111 q56 0 127 29v743q-85 37 -150 37q-140 0 -216.5 -104t-76.5 -295zM891 166q72 -35 133 -35q303 0 303 410q0 186 -81 292.5t-220 106.5q-61 0 -135 -29v-745z" />
<glyph unicode="&#x445;" horiz-adv-x="1042" d="M20 0l398 549l-365 522h223l240 -377l254 377h215l-377 -514l414 -557h-236l-274 410l-266 -410h-226z" />
<glyph unicode="&#x446;" horiz-adv-x="1128" d="M135 0v1071h191v-913h438v913h190v-913h125v-504h-172v346h-772z" />
<glyph unicode="&#x447;" horiz-adv-x="1087" d="M109 782v289h190v-285q0 -119 60.5 -181t175.5 -62t229 24v504h188v-1071h-190v420q-130 -33 -277 -33q-176 0 -276 101t-100 294z" />
<glyph unicode="&#x448;" horiz-adv-x="1552" d="M135 0v1071h180v-917h371v917h180v-917h371v917h180v-1071h-1282z" />
<glyph unicode="&#x449;" horiz-adv-x="1581" d="M135 0v1071h180v-917h367v917h178v-917h367v917h180v-917h125v-504h-168v350h-1229z" />
<glyph unicode="&#x44a;" horiz-adv-x="1247" d="M57 915v156h498v-395q124 14 203 14q205 0 312.5 -89t107.5 -263q0 -136 -104 -237t-322 -101h-383v915h-312zM555 156q71 -6 201 -6q107 0 169 49.5t62 142.5q0 97 -63 148t-179 51q-61 0 -190 -15v-370z" />
<glyph unicode="&#x44b;" horiz-adv-x="1403" d="M135 0v1071h187v-393q82 12 182 12q206 0 314 -89t108 -263q0 -87 -49 -169.5t-143 -125.5t-234 -43h-365zM322 154q68 -7 182 -7q106 0 169.5 51t63.5 144q0 101 -66.5 151t-176.5 50q-60 0 -172 -13v-376zM1081 0v1071h187v-1071h-187z" />
<glyph unicode="&#x44c;" horiz-adv-x="1036" d="M135 0v1071h189v-397q137 16 223 16q205 0 312.5 -89t107.5 -263q0 -136 -104 -237t-322 -101h-406zM324 156q70 -6 225 -6q106 0 166.5 49.5t60.5 142.5q0 199 -237 199q-82 0 -215 -17v-368z" />
<glyph unicode="&#x44d;" horiz-adv-x="1018" d="M63 94l93 146q118 -107 268 -107q152 0 239.5 90t96.5 258h-434v148h430q-22 149 -109 229t-225 80q-139 0 -256 -88l-80 141q157 101 360 101q231 0 367.5 -152.5t136.5 -400.5q0 -260 -142 -409.5t-400 -149.5q-205 0 -345 114z" />
<glyph unicode="&#x44e;" horiz-adv-x="1479" d="M135 0v1071h182v-432h203q28 212 147.5 332.5t295.5 120.5q209 0 327.5 -146.5t118.5 -406.5q0 -251 -121.5 -405t-324.5 -154q-199 0 -315.5 132t-131.5 373h-199v-485h-182zM702 543q0 -201 68.5 -307.5t194.5 -106.5q128 0 192 110.5t64 297.5q0 405 -258 405 q-126 0 -193.5 -108.5t-67.5 -290.5z" />
<glyph unicode="&#x44f;" horiz-adv-x="1073" d="M72 -6v166q15 -4 39 -4q46 0 57 59q40 203 233 277q-121 20 -189.5 93.5t-68.5 170.5q0 107 60 188t155 110t234 29q168 0 346 -16v-1067h-182v436h-88q-150 0 -228 -62t-104 -212q-30 -172 -199 -172q-37 0 -65 4zM332 764q0 -96 75.5 -142.5t190.5 -48.5l158 -2v357 q-100 10 -189 10q-119 0 -177 -50.5t-58 -123.5z" />
<glyph unicode="&#x451;" horiz-adv-x="1120" d="M66 522q0 255 147.5 412.5t353.5 157.5q222 0 354 -124.5t132 -334.5q0 -42 -17 -117h-772q0 -118 40 -200t115.5 -129.5t182.5 -47.5q161 0 272 97l78 -154q-75 -59 -165 -80.5t-222 -21.5q-218 0 -358.5 149.5t-140.5 392.5zM270 655h592q0 122 -78 199.5t-209 77.5 q-125 0 -210.5 -81.5t-94.5 -195.5zM281 1360q0 54 36.5 83.5t75.5 29.5q47 0 80 -33t33 -80q0 -45 -31.5 -79t-81.5 -34q-49 0 -80.5 34.5t-31.5 78.5zM680 1360q0 46 33 79.5t80 33.5q43 0 77.5 -32t34.5 -81q0 -47 -32.5 -80t-79.5 -33q-50 0 -81.5 34.5t-31.5 78.5z" />
<glyph unicode="&#x452;" horiz-adv-x="1122" d="M-4 1190v139h145v180h193v-180h373v-139h-373v-293q110 139 297 139q170 0 266 -111t96 -302v-623q0 -424 -479 -424v168q138 0 212.5 49.5t74.5 206.5v623q0 251 -221 251q-137 0 -246 -139v-735h-193v1190h-145z" />
<glyph unicode="&#x453;" horiz-adv-x="887" d="M135 0v1071h690v-160h-499v-911h-191zM410 1284l170 334h196l-227 -334h-139z" />
<glyph unicode="&#x454;" horiz-adv-x="1018" d="M68 524q0 259 148 413.5t407 154.5q188 0 321 -109l-94 -133q-103 88 -246 88q-135 0 -227.5 -84t-114.5 -227h430v-148h-434q12 -167 106.5 -256.5t253.5 -89.5q135 0 263 96l69 -149q-143 -100 -379 -100q-227 0 -365 152.5t-138 391.5z" />
<glyph unicode="&#x455;" horiz-adv-x="840" d="M70 63l65 181q161 -105 256 -105q176 0 176 150q0 47 -34.5 89.5t-172.5 109.5q-91 44 -147.5 80.5t-96.5 96.5t-40 146q0 133 96.5 207t251.5 74q116 0 295 -74l-55 -176q-113 90 -228 90q-63 0 -111.5 -31t-48.5 -84q0 -50 34 -93t172 -104q92 -41 148.5 -76t97 -98 t40.5 -159q0 -148 -103.5 -227.5t-277.5 -79.5q-164 0 -317 83z" />
<glyph unicode="&#x456;" horiz-adv-x="578" d="M84 911v160h338v-1071h-191v911h-147zM174 1358q0 54 38.5 93.5t94.5 39.5q55 0 94 -38t39 -95q0 -62 -41 -96.5t-92 -34.5q-59 0 -96 38.5t-37 92.5z" />
<glyph unicode="&#x457;" horiz-adv-x="578" d="M-33 1360q0 46 33 79.5t80 33.5t80 -33t33 -80q0 -46 -32.5 -79.5t-80.5 -33.5q-50 0 -81.5 34.5t-31.5 78.5zM84 911v160h338v-1071h-191v911h-147zM367 1360q0 46 33 79.5t79 33.5q44 0 78.5 -32t34.5 -81q0 -47 -33 -80t-80 -33q-49 0 -80.5 34.5t-31.5 78.5z" />
<glyph unicode="&#x458;" horiz-adv-x="625" d="M-55 -250q193 0 266.5 58.5t73.5 195.5v907h-213v160h403v-1063q0 -229 -135 -328.5t-395 -99.5v170zM223 1358q0 52 37.5 92.5t95.5 40.5q55 0 94 -38t39 -95t-38.5 -94t-94.5 -37q-59 0 -96 38.5t-37 92.5z" />
<glyph unicode="&#x459;" horiz-adv-x="1688" d="M41 -12v174q71 0 124 40.5t100 153t75.5 284.5t28.5 327v104h647v-393q82 12 182 12q205 0 312.5 -89t107.5 -263q0 -88 -47.5 -170t-142 -125t-234.5 -43h-365v920h-286q-10 -243 -49.5 -424t-108 -305.5t-152 -163.5t-192.5 -39zM1016 156q69 -6 182 -6 q107 0 169.5 49.5t62.5 142.5q0 97 -63 148t-179 51q-60 0 -172 -13v-372z" />
<glyph unicode="&#x45a;" horiz-adv-x="1616" d="M135 0v1071h191v-430h432v430h186v-393q82 12 182 12q206 0 313 -89t107 -263q0 -88 -47.5 -170t-141.5 -125t-235 -43h-364v483h-432v-483h-191zM944 156q69 -6 182 -6q107 0 169.5 49.5t62.5 142.5q0 97 -63 148t-179 51q-60 0 -172 -13v-372z" />
<glyph unicode="&#x45b;" horiz-adv-x="1122" d="M-4 1190v139h145v180h193v-180h373v-139h-373v-293q110 139 297 139q170 0 266 -111t96 -302v-623h-192v623q0 251 -221 251q-137 0 -246 -139v-735h-193v1190h-145z" />
<glyph unicode="&#x45c;" horiz-adv-x="1057" d="M135 0v1071h191v-428h26q149 0 229 61.5t103 190.5q32 186 211 186q34 0 66 -4v-164q-13 2 -50 2q-45 0 -57 -61q-45 -224 -266 -289q231 -79 284 -352q13 -57 56 -57q39 0 51 4v-166q-28 -4 -70 -4q-188 0 -215 188q-23 160 -108 234.5t-244 74.5h-16v-487h-191z M451 1284l170 334h196l-227 -334h-139z" />
<glyph unicode="&#x45e;" horiz-adv-x="1018" d="M12 1071h195l313 -827l285 827h192l-452 -1253q-37 -101 -155 -169.5t-265 -68.5v170q117 0 203 55.5t86 135.5q0 94 -31 174zM174 1591l170 39q37 -205 188 -205q170 0 197 203l162 -37q-67 -307 -359 -307q-291 0 -358 307z" />
<glyph unicode="&#x45f;" horiz-adv-x="1118" d="M135 0v1071h191v-913h467v913h190v-1071h-340v-350h-168v350h-340z" />
<glyph unicode="&#x490;" horiz-adv-x="1065" d="M150 0v1464h688v318h166v-498h-652v-1284h-202z" />
<glyph unicode="&#x491;" horiz-adv-x="887" d="M135 0v1071h533v268h157v-428h-499v-911h-191z" />
<glyph unicode="&#x2000;" horiz-adv-x="963" />
<glyph unicode="&#x2001;" horiz-adv-x="1927" />
<glyph unicode="&#x2002;" horiz-adv-x="963" />
<glyph unicode="&#x2003;" horiz-adv-x="1927" />
<glyph unicode="&#x2004;" horiz-adv-x="642" />
<glyph unicode="&#x2005;" horiz-adv-x="481" />
<glyph unicode="&#x2006;" horiz-adv-x="321" />
<glyph unicode="&#x2007;" horiz-adv-x="321" />
<glyph unicode="&#x2008;" horiz-adv-x="240" />
<glyph unicode="&#x2009;" horiz-adv-x="385" />
<glyph unicode="&#x200a;" horiz-adv-x="107" />
<glyph unicode="&#x2010;" horiz-adv-x="752" d="M159 506v175h428v-175h-428z" />
<glyph unicode="&#x2011;" horiz-adv-x="752" d="M159 506v175h428v-175h-428z" />
<glyph unicode="&#x2012;" horiz-adv-x="752" d="M159 506v175h428v-175h-428z" />
<glyph unicode="&#x2013;" horiz-adv-x="752" d="M93 532v96h521v-96h-521z" />
<glyph unicode="&#x2014;" horiz-adv-x="1504" d="M93 532v96h1309v-96h-1309z" />
<glyph unicode="&#x2015;" horiz-adv-x="1504" d="M93 532v96h1309v-96h-1309z" />
<glyph unicode="&#x2017;" d="M-8 -125h1085v-129h-1085v129zM-8 -375h1085v-129h-1085v129z" />
<glyph unicode="&#x2018;" horiz-adv-x="752" d="M221 1078q0 265 265 432l67 -89l-75 -64q-55 -47 -55 -115q0 -41 49 -95t49 -99q0 -147 -145 -147q-155 0 -155 177z" />
<glyph unicode="&#x2019;" horiz-adv-x="752" d="M199 990l75 64q55 47 55 115q0 41 -49 95t-49 99q0 147 145 147q155 0 155 -177q0 -265 -265 -432z" />
<glyph unicode="&#x201a;" horiz-adv-x="752" d="M199 -243l75 64q55 47 55 115q0 41 -49 95t-49 99q0 147 145 147q155 0 155 -177q0 -265 -265 -432z" />
<glyph unicode="&#x201b;" horiz-adv-x="752" d="M221 1333q0 177 155 177q145 0 145 -147q0 -45 -49 -99t-49 -95q0 -68 55 -115l75 -64l-67 -89q-265 167 -265 432z" />
<glyph unicode="&#x201c;" d="M167 1078q0 265 265 432l67 -89l-75 -64q-55 -47 -55 -115q0 -41 49 -95t49 -99q0 -147 -145 -147q-155 0 -155 177zM617 1078q0 265 265 432l67 -89l-75 -64q-55 -47 -55 -115q0 -41 49 -95t49 -99q0 -147 -145 -147q-155 0 -155 177z" />
<glyph unicode="&#x201d;" d="M164 990l75 64q55 47 55 115q0 41 -49 95t-49 99q0 147 145 147q155 0 155 -177q0 -265 -265 -432zM623 990l75 64q55 47 55 115q0 41 -49 95t-49 99q0 147 145 147q155 0 155 -177q0 -265 -265 -432z" />
<glyph unicode="&#x201e;" d="M164 -243l75 64q55 47 55 115q0 41 -49 95t-49 99q0 147 145 147q155 0 155 -177q0 -265 -265 -432zM623 -243l75 64q55 47 55 115q0 41 -49 95t-49 99q0 147 145 147q155 0 155 -177q0 -265 -265 -432z" />
<glyph unicode="&#x2020;" horiz-adv-x="940" d="M25 931v140h370v314h150v-314h370v-140h-370v-1181l-74 -88l-76 88v1181h-370z" />
<glyph unicode="&#x2021;" horiz-adv-x="940" d="M25 241v140h370v550h-370v140h370v314h150v-314h370v-140h-370v-550h370v-140h-370v-491l-76 -94l-74 94v491h-370z" />
<glyph unicode="&#x2022;" d="M253 574q0 120 84.5 204.5t204.5 84.5t204.5 -84.5t84.5 -204.5t-84.5 -204.5t-204.5 -84.5t-204.5 84.5t-84.5 204.5z" />
<glyph unicode="&#x2026;" horiz-adv-x="1504" d="M100 131q0 62 44 106t106 44t106 -44t44 -106t-44 -106.5t-106 -44.5t-106 44.5t-44 106.5zM602 131q0 62 44 106t106 44t106 -44t44 -106t-44 -106.5t-106 -44.5t-106 44.5t-44 106.5zM1104 131q0 62 44 106t106 44t106 -44t44 -106t-44 -106.5t-106 -44.5t-106 44.5 t-44 106.5z" />
<glyph unicode="&#x202f;" horiz-adv-x="385" />
<glyph unicode="&#x2030;" horiz-adv-x="1869" d="M61 1162q0 147 81 238t206 91q123 0 196.5 -90t73.5 -258q0 -156 -78 -247.5t-201 -91.5q-278 0 -278 358zM91 -20l883 1511h126l-882 -1511h-127zM187 1152q0 -117 39.5 -181.5t103.5 -64.5q162 0 162 245q0 238 -147 238q-73 0 -115.5 -64t-42.5 -173zM601 338 q0 147 81 238t206 91q123 0 196.5 -90t73.5 -258q0 -156 -78 -247.5t-201 -91.5q-278 0 -278 358zM727 328q0 -117 39.5 -181.5t103.5 -64.5q162 0 162 245q0 238 -147 238q-73 0 -115.5 -64t-42.5 -173zM1251 338q0 147 81 238t206 91q123 0 196.5 -90t73.5 -258 q0 -156 -78 -247.5t-201 -91.5q-278 0 -278 358zM1377 328q0 -117 39.5 -181.5t103.5 -64.5q162 0 162 245q0 238 -147 238q-73 0 -115.5 -64t-42.5 -173z" />
<glyph unicode="&#x2032;" horiz-adv-x="327" d="M56 1056l116 411h184l-167 -411h-133z" />
<glyph unicode="&#x2033;" horiz-adv-x="694" d="M56 1056l116 411h184l-167 -411h-133zM356 1056l116 411h184l-167 -411h-133z" />
<glyph unicode="&#x2039;" horiz-adv-x="752" d="M171 535v64l355 244v-125l-212 -157l212 -138v-125z" />
<glyph unicode="&#x203a;" horiz-adv-x="752" d="M211 298v125l212 138l-212 157v125l355 -244v-64z" />
<glyph unicode="&#x203c;" horiz-adv-x="1248" d="M234 131q0 62 44 106t106 44t106 -44t44 -106t-44 -106.5t-106 -44.5t-106 44.5t-44 106.5zM265 1081v410h226v-409q0 -191 -78 -700h-71q-77 503 -77 699zM726 131q0 62 44 106t106 44t106 -44t44 -106t-44 -106.5t-106 -44.5t-106 44.5t-44 106.5zM757 1081v410h226 v-409q0 -191 -78 -700h-71q-77 503 -77 699z" />
<glyph unicode="&#x203e;" d="M-6 1349v122h791v-122h-791z" />
<glyph unicode="&#x2044;" horiz-adv-x="1083" d="M4 -35l973 1526h126l-972 -1526h-127z" />
<glyph unicode="&#x205f;" horiz-adv-x="481" />
<glyph unicode="&#x20a3;" horiz-adv-x="1075" d="M15 341v160h135v964h905v-180h-705v-407h515v-170h-515v-207h149v-160h-149v-341h-200v341h-135z" />
<glyph unicode="&#x20a4;" d="M132 0v139q90 30 90 129v254h-90v135h90v156h-90v135h90v56q0 210 97 340q109 147 311 147q206 0 293 -121l-95 -133q-64 86 -221 86q-184 0 -184 -311v-64h303v-135h-303v-156h303v-135h-303v-342h223q155 0 234 113l143 -111q-105 -182 -447 -182h-444z" />
<glyph unicode="&#x20a7;" horiz-adv-x="2281" d="M139 0v1465q165 11 260 11q545 0 560 -405h128v223l189 74v-297h229v-147h-229v-543q0 -139 35 -188q40 -56 114 -56q100 0 181 129q125 -129 260 -129q157 0 157 152q0 89 -115 154l-212 122q-115 91 -115 241q0 141 97 217q87 68 225 68q98 0 270 -72l-53 -178 q-110 90 -211 90q-57 0 -94 -29q-41 -32 -41 -90q0 -94 115 -160l212 -122q115 -91 115 -243q0 -158 -107 -237q-94 -70 -254 -70q-147 0 -262 81q-84 -81 -213 -81q-136 0 -214.5 91.5t-78.5 247.5v605h-138q-66 -367 -512 -367q-17 0 -78 6l-25 2v-565h-195zM334 743 q43 -10 96 -10q332 0 332 293q0 271 -342 271q-49 0 -86 -8v-546z" />
<glyph unicode="&#x20ac;" d="M31 515v141h98q-5 68 -1 131h-97v141h115q37 233 175 389q154 173 378 173q250 0 353 -93l-89 -164q-101 77 -259 77q-152 0 -250 -118q-84 -103 -108 -264h459l-58 -141h-414q-3 -37 -3 -71q0 -28 2 -60h347l-49 -141h-283q14 -133 109 -242q103 -118 231 -118 q89 0 187 40t157 103v-217q-140 -106 -365 -106q-216 0 -359 167q-124 145 -160 373h-116z" />
<glyph unicode="&#x2122;" horiz-adv-x="1300" d="M191 1381v90h527v-90h-219v-643h-100v643h-208zM638 739l112 732h75l169 -567l167 567h75l113 -732h-95l-83 498l-147 -503h-59l-155 510l-77 -505h-95z" />
<glyph unicode="&#x25ca;" horiz-adv-x="1012" d="M47 709l391 713h111l418 -713l-418 -709h-111zM155 709l340 -615l359 615l-359 616z" />
<glyph unicode="&#x25fc;" horiz-adv-x="1070" d="M0 0v1070h1070v-1070h-1070z" />
<glyph unicode="&#xfb01;" horiz-adv-x="1187" d="M53 911v160h156q0 205 101 322t267 117q83 0 178 -30l-53 -140q-58 20 -108 20q-87 0 -143.5 -66t-56.5 -167q0 -27 5 -56h637v-1071h-193v911h-444v-911h-190v911h-156zM800 1359q0 49 34 83t83 34t83.5 -34.5t34.5 -82.5q0 -49 -34.5 -83.5t-83.5 -34.5 q-48 0 -82.5 34.5t-34.5 83.5z" />
<glyph unicode="&#xfb02;" horiz-adv-x="1230" d="M65 911v160h156q0 205 101 322t267 117q147 0 227 -47v27h190v-1155q0 -185 139 -185v-170q-176 0 -252.5 73t-76.5 250v982q-26 30 -87 52.5t-123 22.5q-87 0 -143.5 -66t-56.5 -167q0 -27 5 -56h188v-160h-188v-911h-190v911h-156z" />
</font>
</defs>
</svg>
