<!-- Generator: Adobe Illustrator 19.0.0, SVG Export Plug-In  -->
<svg version="1.1"
	 xmlns="http://www.w3.org/2000/svg" xmlns:xlink="http://www.w3.org/1999/xlink" xmlns:a="http://ns.adobe.com/AdobeSVGViewerExtensions/3.0/"
	 x="0px" y="0px" width="37.2px" height="37.7px" viewBox="0 0 37.2 37.7" style="enable-background:new 0 0 37.2 37.7;"
	 xml:space="preserve">
<style type="text/css">
	.st0{opacity:7.000000e-002;}
</style>
<defs>
</defs>
<path class="st0" d="M31.4,0H6.6C3.1,0,0,3.1,0,6.6v19.3c0,3.5,2.9,6.5,6.1,6.5c3.2,0,5.9,0,5.9,0h1.4l5.2,5.2l5-5.2h7.7
	c3.5,0,5.8-3,5.8-6.5V6.6C37.2,3.1,34.9,0,31.4,0z M14.5,25.6c-0.9,0-1.6-0.7-1.6-1.6c0-0.9,0.7-1.6,1.6-1.6c0.9,0,1.6,0.7,1.6,1.6
	C16.1,24.8,15.4,25.6,14.5,25.6z M23.7,25.6c-0.9,0-1.6-0.7-1.6-1.6c0-0.9,0.7-1.6,1.6-1.6c0.9,0,1.6,0.7,1.6,1.6
	C25.3,24.9,24.6,25.6,23.7,25.6z M28,15.2c0,0.6-0.1,1.1-0.4,1.6c-0.2,0.3-0.5,0.5-0.9,0.6c-3.5,1-7,1.9-10.6,2.9c0,0-0.1,0-0.1,0
	c-0.1-0.4-0.3-0.8-0.4-1.1c-1.2-3.4-2.4-6.7-3.6-10.1c-0.1-0.2-0.1-0.2-0.3-0.2c-0.7,0-1.5,0-2.2,0c-0.2,0-0.2-0.1-0.2-0.3
	c0-0.5,0-1,0-1.5c0-0.2,0.1-0.2,0.2-0.2c1.3,0,2.6,0,3.9,0c0.2,0,0.2,0.1,0.3,0.2c0.4,1,0.8,2,1.1,3.1c0.1,0.2,0.2,0.3,0.4,0.3
	c4.2,0,8.3,0,12.5,0c0.3,0,0.3,0,0.3,0.3C28,12.2,28,13.7,28,15.2z"/>
</svg>
