<!-- Generator: Adobe Illustrator 19.0.0, SVG Export Plug-In  -->
<svg version="1.1"
	 xmlns="http://www.w3.org/2000/svg" xmlns:xlink="http://www.w3.org/1999/xlink" xmlns:a="http://ns.adobe.com/AdobeSVGViewerExtensions/3.0/"
	 x="0px" y="0px" width="43.4px" height="40.2px" viewBox="0 0 43.4 40.2" style="enable-background:new 0 0 43.4 40.2;"
	 xml:space="preserve">
<style type="text/css">
	.st0{opacity:7.000000e-002;}
</style>
<defs>
</defs>
<path class="st0" d="M42.9,2c-0.8-1.2-2.5-1.6-3.7-0.8c-2,1.3-3.8,2.7-5.5,4.1C30.2,2,25.4,0,20.1,0C9,0,0,9,0,20.1
	s9,20.1,20.1,20.1s20.1-9,20.1-20.1c0-3.1-0.7-6.1-2-8.8c-1.2,0.9-2.2,1.9-3.3,2.9c0.7,1.8,1.1,3.8,1.1,5.9
	c0,8.8-7.2,15.9-15.9,15.9S4.2,28.9,4.2,20.1S11.3,4.2,20.1,4.2c4,0,7.7,1.5,10.6,4c-5.8,5.7-9.7,11.8-11.9,15.7l-5.6-7.3
	c-0.9-1.2-2.6-1.4-3.7-0.5C8.3,17,8,18.6,8.9,19.8l8.2,10.7c0.5,0.7,1.3,1,2.1,1c0.1,0,0.2,0,0.3,0c0.9-0.1,1.7-0.7,2.1-1.6
	c0.1-0.2,6.8-15.4,20.4-24.2C43.4,4.9,43.7,3.3,42.9,2z"/>
</svg>
