<!-- Generator: Adobe Illustrator 19.0.0, SVG Export Plug-In  -->
<svg version="1.1"
	 xmlns="http://www.w3.org/2000/svg" xmlns:xlink="http://www.w3.org/1999/xlink" xmlns:a="http://ns.adobe.com/AdobeSVGViewerExtensions/3.0/"
	 x="0px" y="0px" width="39.4px" height="37.7px" viewBox="0 0 39.4 37.7" style="enable-background:new 0 0 39.4 37.7;"
	 xml:space="preserve">
<style type="text/css">
	.st0{opacity:7.000000e-002;}
</style>
<defs>
</defs>
<path class="st0" d="M33.2,0h-27C2.8,0,0,2.8,0,6.2v19.2c0,3.4,2.8,6.2,6.2,6.2h27c0,0,0.1,0,0.1,0l6.1,6.1V25.4v-4.1v-15
	C39.4,2.8,36.6,0,33.2,0z M28.1,14.9c-1.1,3.7-5.5,5.9-8.3,7.8c-2.8-1.8-7.4-4-8.5-7.6c-1.5-4.8,5-8.9,8.4-3.4
	C22.9,6.1,29.5,10,28.1,14.9z"/>
</svg>
