<!-- Generator: Adobe Illustrator 19.0.0, SVG Export Plug-In  -->
<svg version="1.1"
	 xmlns="http://www.w3.org/2000/svg" xmlns:xlink="http://www.w3.org/1999/xlink" xmlns:a="http://ns.adobe.com/AdobeSVGViewerExtensions/3.0/"
	 x="0px" y="0px" width="698.4px" height="169.2px" viewBox="0 0 698.4 169.2" style="enable-background:new 0 0 698.4 169.2;"
	 xml:space="preserve">
<style type="text/css">
	.st0{fill:none;stroke:#C4CCCC;stroke-width:3.7453;stroke-linecap:round;stroke-linejoin:round;stroke-miterlimit:10;}
	.st1{fill:none;stroke:#F9A300;stroke-width:3.7453;stroke-miterlimit:10;}
	.st2{fill:none;stroke:#C4CCCC;stroke-width:3.7453;stroke-miterlimit:10;}
	.st3{fill:none;stroke:#F9A300;stroke-width:2.2472;stroke-miterlimit:10;}
</style>
<defs>
</defs>
<polygon class="st0" points="289.6,108.9 323.4,89.4 357.1,108.9 357.1,147.9 323.4,167.3 289.6,147.9 "/>
<polyline class="st1" points="128,162 119.5,166.9 110.1,161.4 "/>
<polyline class="st1" points="110.1,161.4 85.8,147.4 85.8,108.4 119.5,89 153.3,108.4 153.3,147.4 128,162 "/>
<polyline class="st1" points="19.1,108.4 52.8,89 85.2,107.6 "/>
<line class="st1" x1="253.9" y1="89" x2="289.9" y2="108.4"/>
<line class="st1" x1="186.3" y1="88.9" x2="152.5" y2="108.4"/>
<line class="st0" x1="385.3" y1="92.2" x2="356.5" y2="109.3"/>
<line class="st0" x1="349.9" y1="139.7" x2="321.1" y2="156.3"/>
<line class="st2" x1="477.7" y1="91.5" x2="508.9" y2="108.9"/>
<polygon class="st0" points="508.9,108.9 542.7,89.4 576.4,108.9 576.4,147.9 542.7,167.3 508.9,147.9 "/>
<line class="st0" x1="608.1" y1="88.9" x2="576.4" y2="108.9"/>
<line class="st0" x1="544.4" y1="99.1" x2="515.7" y2="115.7"/>
<line class="st3" x1="121.7" y1="99.3" x2="92.9" y2="115.9"/>
<circle class="st1" cx="10.3" cy="112.7" r="8.5"/>
<line class="st1" x1="153.3" y1="147.4" x2="186.3" y2="166.9"/>
<polyline class="st1" points="221.7,1.6 273.3,31.4 273.3,91 221.7,120.8 170.1,91 170.1,31.4 221.7,1.6 "/>
<polyline class="st1" points="435.1,1.6 486.7,31.4 486.7,91 435.1,120.8 383.5,91 383.5,31.4 435.1,1.6 "/>
<polyline class="st1" points="697.5,91 645.9,120.8 594.3,91 594.3,31.4 645.9,1.6 "/>
</svg>
