<!-- Generator: Adobe Illustrator 19.0.0, SVG Export Plug-In  -->
<svg version="1.1"
	 xmlns="http://www.w3.org/2000/svg" xmlns:xlink="http://www.w3.org/1999/xlink" xmlns:a="http://ns.adobe.com/AdobeSVGViewerExtensions/3.0/"
	 x="0px" y="0px" width="40px" height="22.8px" viewBox="0 0 40 22.8" style="enable-background:new 0 0 40 22.8;"
	 xml:space="preserve">
<style type="text/css">
	.st0{opacity:7.000000e-002;fill-rule:evenodd;clip-rule:evenodd;}
</style>
<defs>
</defs>
<path class="st0" d="M19.6,22.7H22c0,0,0.7-0.1,1.1-0.5c0.3-0.4,0.3-1.1,0.3-1.1s0-3.2,1.4-3.7c1.5-0.5,3.4,3.1,5.4,4.5
	c1.5,1,2.7,0.8,2.7,0.8l5.3-0.1c0,0,2.8-0.2,1.5-2.4c-0.1-0.2-0.8-1.6-4-4.6c-3.4-3.1-2.9-2.6,1.1-8c2.5-3.3,3.4-5.3,3.1-6.1
	C39.7,0.8,37.9,1,37.9,1l-6,0c0,0-0.4-0.1-0.8,0.1c-0.3,0.2-0.5,0.6-0.5,0.6s-1,2.5-2.2,4.7c-2.7,4.6-3.8,4.8-4.2,4.5
	c-1-0.7-0.8-2.6-0.8-4.1c0-4.4,0.7-6.3-1.3-6.7C21.4,0.1,20.9,0,19.3,0c-2.1,0-4,0-5,0.5c-0.7,0.3-1.2,1.1-0.9,1.1
	c0.4,0.1,1.3,0.2,1.8,0.9c0.6,0.8,0.6,2.7,0.6,2.7s0.4,5.2-0.8,5.8c-0.8,0.4-1.9-0.5-4.3-4.6C9.4,4.4,8.4,2.1,8.4,2.1
	S8.3,1.6,7.9,1.4C7.6,1.1,7,1,7,1L1.3,1c0,0-0.9,0-1.2,0.4c-0.3,0.3,0,1,0,1s4.5,10.5,9.5,15.8C14.3,23.1,19.6,22.7,19.6,22.7
	L19.6,22.7z"/>
</svg>
