<!-- Generator: Adobe Illustrator 19.1.1, SVG Export Plug-In  -->
<svg version="1.1"
	 xmlns="http://www.w3.org/2000/svg" xmlns:xlink="http://www.w3.org/1999/xlink" xmlns:a="http://ns.adobe.com/AdobeSVGViewerExtensions/3.0/"
	 x="0px" y="0px" width="46.3px" height="46.3px" viewBox="0 0 46.3 46.3" style="enable-background:new 0 0 46.3 46.3;"
	 xml:space="preserve">
<style type="text/css">
	.st0{fill:#A7A7A6;}
	.st1{fill-rule:evenodd;clip-rule:evenodd;fill:#F9FAFA;}
</style>
<defs>
</defs>
<circle class="st0" cx="23.2" cy="23.2" r="23.2"/>
<path class="st1" d="M22.9,31.2h1.7c0,0,0.5-0.1,0.8-0.3c0.2-0.3,0.2-0.7,0.2-0.7s0-2.3,1-2.6c1-0.3,2.4,2.2,3.8,3.2
	c1.1,0.7,1.9,0.6,1.9,0.6l3.8-0.1c0,0,2-0.1,1-1.7c-0.1-0.1-0.5-1.2-2.8-3.3c-2.4-2.2-2.1-1.8,0.8-5.7c1.7-2.3,2.4-3.7,2.2-4.3
	c-0.2-0.6-1.5-0.4-1.5-0.4l-4.3,0c0,0-0.3,0-0.6,0.1c-0.2,0.1-0.4,0.5-0.4,0.5s-0.7,1.8-1.6,3.3c-1.9,3.2-2.7,3.4-3,3.2
	c-0.7-0.5-0.5-1.9-0.5-2.9c0-3.1,0.5-4.4-0.9-4.8c-0.5-0.1-0.8-0.2-2-0.2c-1.5,0-2.8,0-3.5,0.4c-0.5,0.2-0.9,0.8-0.6,0.8
	c0.3,0,0.9,0.2,1.3,0.6c0.4,0.6,0.4,1.9,0.4,1.9s0.3,3.7-0.6,4.1c-0.6,0.3-1.4-0.3-3.1-3.3c-0.9-1.5-1.5-3.2-1.5-3.2
	s-0.1-0.3-0.4-0.5c-0.3-0.2-0.7-0.3-0.7-0.3l-4.1,0c0,0-0.6,0-0.8,0.3c-0.2,0.2,0,0.7,0,0.7s3.2,7.4,6.8,11.2
	C19.1,31.4,22.9,31.2,22.9,31.2L22.9,31.2z"/>
</svg>
