<!-- Generator: Adobe Illustrator 19.1.1, SVG Export Plug-In  -->
<svg version="1.1"
	 xmlns="http://www.w3.org/2000/svg" xmlns:xlink="http://www.w3.org/1999/xlink" xmlns:a="http://ns.adobe.com/AdobeSVGViewerExtensions/3.0/"
	 x="0px" y="0px" width="40.3px" height="39.4px" viewBox="0 0 40.3 39.4" style="enable-background:new 0 0 40.3 39.4;"
	 xml:space="preserve">
<style type="text/css">
	.st0{fill:#A7A7A6;}
</style>
<defs>
</defs>
<g>
	<path class="st0" d="M18.4,22.5C18.4,22.5,18.5,22.4,18.4,22.5l1.1-4.2c0-0.1,0-0.1,0.1-0.2c0,0,0,0,0,0c0-0.1,0.1-0.2,0.1-0.3
		c0,0,0,0,0,0c0.1-0.1,0.1-0.2,0.2-0.2L30.8,6.8l0.1-0.1L32,5.5V1.8c0-1-0.8-1.8-1.8-1.8H1.8C0.8,0,0,0.8,0,1.8v35.9
		c0,1,0.8,1.8,1.8,1.8h28.5c1,0,1.8-0.8,1.8-1.8v-18l-5,5c-0.1,0-0.1,0.1-0.2,0.1c-0.1,0.1-0.2,0.1-0.3,0.2c-0.1,0-0.2,0.1-0.3,0.1
		l-0.2,0l-4,1.1c0,0-0.1,0-0.1,0l-2.5,0.6c-0.1,0-0.3,0.1-0.4,0.1c-0.4,0-0.8-0.2-1.1-0.5c-0.4-0.4-0.5-0.9-0.4-1.5L18.4,22.5z"/>
	<path class="st0" d="M39.6,9.8l-3.1,3.1l-4.7,4.8l-5,5c0,0,0,0,0,0l-2.3-2.3l-2.6-2.6L31.7,8l0.1-0.1l0.1-0.1l2.9-2.9
		c0.5-0.5,1.1-0.7,1.7-0.7c0.6,0,1.2,0.2,1.7,0.7l1.6,1.6C40.6,7.4,40.6,8.9,39.6,9.8z"/>
	<polygon class="st0" points="25.9,23.6 25.1,23.8 24.2,24 21.8,24.7 19.3,25.4 19.9,22.8 20.6,20.4 20.8,19.5 21,18.7 	"/>
</g>
</svg>
