<!-- Generator: Adobe Illustrator 19.1.1, SVG Export Plug-In  -->
<svg version="1.1"
	 xmlns="http://www.w3.org/2000/svg" xmlns:xlink="http://www.w3.org/1999/xlink" xmlns:a="http://ns.adobe.com/AdobeSVGViewerExtensions/3.0/"
	 x="0px" y="0px" width="35px" height="41px" viewBox="0 0 35 41" style="enable-background:new 0 0 35 41;" xml:space="preserve">
<style type="text/css">
	.st0{fill:#A7A7A6;}
</style>
<defs>
</defs>
<g>
	<path class="st0" d="M8.4,36.3"/>
	<path class="st0" d="M31.5,0H3.8C1.6,0,0,2.1,0,4.4v32.4C0,39.1,1.6,41,3.8,41h27.7c2.3,0,3.5-1.9,3.5-4.2V4.4
		C35,2.1,33.8,0,31.5,0z M8,29.8c-1.1,0-1.9-0.9-1.9-1.9C6.1,26.8,7,26,8,26c1.1,0,1.9,0.9,1.9,1.9C10,29,9.1,29.8,8,29.8z M8,23
		c-1.1,0-1.9-0.9-1.9-1.9C6.1,20,7,19.1,8,19.1c1.1,0,1.9,0.9,1.9,1.9C10,22.1,9.1,23,8,23z M8,15.4c-1.1,0-1.9-0.9-1.9-1.9
		S7,11.6,8,11.6c1.1,0,1.9,0.9,1.9,1.9S9.1,15.4,8,15.4z M25.5,29H14.2c-1,0-1.9-0.5-1.9-1.5c0-1,0.8-1.5,1.9-1.5h11.3
		c1,0,1.9,0.5,1.9,1.5C27.3,28.5,26.5,29,25.5,29z M25.5,22H14.2c-1,0-1.9-0.5-1.9-1.5c0-1,0.8-1.5,1.9-1.5h11.3
		c1,0,1.9,0.5,1.9,1.5C27.3,21.5,26.5,22,25.5,22z M25.5,15H14.2c-1,0-1.9-1-1.9-2c0-1,0.8-2,1.9-2h11.3c1,0,1.9,1,1.9,2
		C27.3,14,26.5,15,25.5,15z"/>
	<path class="st0" d="M24.9,12.1"/>
	<path class="st0" d="M24.9,20"/>
	<path class="st0" d="M24.9,28"/>
</g>
</svg>
