<!-- Generator: Adobe Illustrator 19.1.1, SVG Export Plug-In  -->
<svg version="1.1"
	 xmlns="http://www.w3.org/2000/svg" xmlns:xlink="http://www.w3.org/1999/xlink" xmlns:a="http://ns.adobe.com/AdobeSVGViewerExtensions/3.0/"
	 x="0px" y="0px" width="22.8px" height="45.5px" viewBox="0 0 22.8 45.5" style="enable-background:new 0 0 22.8 45.5;"
	 xml:space="preserve">
<style type="text/css">
	.st0{fill-rule:evenodd;clip-rule:evenodd;fill:#A7A7A6;}
	.st1{fill:#A7A7A6;}
</style>
<defs>
</defs>
<g>
	<path class="st0" d="M11.4,17.1c4,0,7.1-4.2,7.1-8.5V7.3c0-4.3-3.1-7.3-7.1-7.3c-4,0-7.1,3-7.1,7.3v1.3C4.3,13,7.4,17.1,11.4,17.1
		L11.4,17.1z"/>
	<g>
		<path class="st1" d="M12.5,29.8c-4.3,0-7.9,3.5-7.9,7.9c0,0.2,0,0.4,0,0.5c0.3,4.1,3.7,7.3,7.8,7.3c4.2,0,7.6-3.2,7.8-7.3
			c0-0.2,0-0.3,0-0.5C20.4,33.3,16.9,29.8,12.5,29.8z M16,38.6h-2.5v2.5c0,0.2-0.2,0.4-0.4,0.4h-1c-0.2,0-0.4-0.2-0.4-0.4v-2.5H9
			c-0.2,0-0.4-0.2-0.4-0.4c0,0,0,0,0,0v-1c0-0.2,0.2-0.4,0.4-0.4h2.5v-2.5c0-0.2,0.2-0.4,0.4-0.4h1c0.2,0,0.4,0.2,0.4,0.4v2.5H16
			c0.2,0,0.4,0.2,0.4,0.4v1c0,0,0,0,0,0C16.4,38.4,16.2,38.6,16,38.6z"/>
	</g>
	<g>
		<path class="st0" d="M13.1,32.9h-1.2c-0.3,0-0.5,0.2-0.5,0.5v0.8h2.3v-0.8C13.7,33.2,13.4,32.9,13.1,32.9z"/>
		<path class="st0" d="M22.8,25.1c0-0.3,0-0.6,0-0.9c0,0,0,0,0-0.1c0-0.3-0.1-0.5-0.2-0.8c0,0,0,0,0,0c-0.1-0.5-0.4-1.1-0.8-1.6v0
			c-0.6-0.9-1.5-1.7-3.1-2.6c-0.8-0.4-1.2-0.7-1.6-0.7c-0.8,0-1.5,0.6-2.6,1.7h0l-1.1,1c0,0-1.2,1.6-2,1.6c-0.8,0-2-1.6-2-1.6
			l-1.1-1h0c-1.2-1.1-1.8-1.7-2.6-1.7c-0.5,0-0.9,0.2-1.6,0.7c-1.5,0.9-2.4,1.7-3.1,2.6l0,0c0,0,0,0,0,0c-0.4,0.5-0.6,1-0.8,1.6
			c0,0,0,0,0,0c-0.1,0.3-0.1,0.5-0.2,0.8c0,0,0,0,0,0.1c0,0.3,0,0.6,0,0.9c0,0,0,6.3,0,6.3c0,2,0.8,2.9,2.9,2.9h0.9
			c1.4-3.5,4.8-6,8.8-6c4,0,7.3,2.4,8.7,5.9c1.1-0.3,1.6-1.1,1.6-2.7C22.8,31.4,22.8,25.2,22.8,25.1z"/>
	</g>
</g>
</svg>
