<?xml version="1.0" standalone="no"?>
<!DOCTYPE svg PUBLIC "-//W3C//DTD SVG 1.1//EN" "http://www.w3.org/Graphics/SVG/1.1/DTD/svg11.dtd" >
<svg xmlns="http://www.w3.org/2000/svg">
<metadata></metadata>
<defs>
<font id="carisma_classicRgOb" horiz-adv-x="1155" >
<font-face units-per-em="2048" ascent="1638" descent="-410" />
<missing-glyph horiz-adv-x="548" />
<glyph unicode="&#xfb01;" horiz-adv-x="1030" d="M758 0h-152l152 858h-396l-151 -858h-152l152 858h-154l17 90h153l47 269q13 77 46 137t79 96.5t99.5 55t111.5 18.5q92 0 168 -56l-49 -67q-47 37 -113 37q-69 0 -120 -54.5t-72 -171.5l-45 -264h547zM1010 1286q-7 -41 -41.5 -69.5t-75.5 -28.5t-63.5 28.5t-14.5 69.5 q6 40 39 69t74 29t64.5 -28.5t17.5 -69.5z" />
<glyph unicode="&#xfb02;" horiz-adv-x="1021" d="M729 1401q-47 37 -113 37q-69 0 -120 -54.5t-72 -171.5l-45 -264h223l-16 -90h-224l-151 -858h-152l152 858h-154l17 90h153l47 269q13 77 46 137t79 96.5t99.5 55t111.5 18.5q92 0 168 -56zM756 0h-152l268 1524h152z" />
<glyph unicode="&#xfb03;" horiz-adv-x="1617" d="M1348 0h-152l152 858h-396l-151 -858h-152l152 858h-439l-151 -858h-152l152 858h-154l17 90h153l47 269q13 77 46 137t79 96.5t99.5 55t111.5 18.5q92 0 168 -56l-49 -67q-47 37 -113 37q-69 0 -120 -54.5t-72 -171.5l-45 -264h438l47 269q18 103 69.5 173.5t119 102 t147.5 31.5q92 0 168 -56l-51 -67q-45 37 -111 37q-69 0 -120 -54.5t-72 -171.5l-45 -264h547zM1599 1286q-7 -41 -41 -69.5t-75 -28.5q-42 0 -65 28t-15 70q6 40 39.5 69t73.5 29q41 0 65 -28.5t18 -69.5z" />
<glyph unicode="&#xfb04;" horiz-adv-x="1611" d="M1317 1401q-45 37 -111 37q-69 0 -120 -54.5t-72 -171.5l-45 -264h223l-16 -90h-224l-151 -858h-152l152 858h-439l-151 -858h-152l152 858h-154l17 90h153l47 269q13 77 46 137t79 96.5t99.5 55t111.5 18.5q92 0 168 -56l-49 -67q-47 37 -113 37q-69 0 -120 -54.5 t-72 -171.5l-45 -264h438l47 269q18 103 69.5 173.5t119 102t147.5 31.5q92 0 168 -56zM1346 0h-152l268 1524h152z" />
<glyph horiz-adv-x="0" />
<glyph horiz-adv-x="682" />
<glyph unicode=" "  horiz-adv-x="548" />
<glyph unicode="&#x09;" horiz-adv-x="548" />
<glyph unicode="&#xa0;" horiz-adv-x="548" />
<glyph unicode="!" horiz-adv-x="444" d="M410 1270l-209 -846h-66l96 852q3 25 5 38t7 37t13.5 38t20.5 29.5t31 22.5t44 7q76 0 76 -76q0 -15 -4.5 -40.5t-9.5 -43.5zM211 100q0 -45 -36 -80.5t-83 -35.5q-38 0 -61 22t-23 57q0 49 36.5 85t84.5 36q37 0 59.5 -23.5t22.5 -60.5z" />
<glyph unicode="&#x22;" horiz-adv-x="647" d="M297 1452q65 0 65 -70q0 -42 -40 -172l-86 -270h-64l12 299q2 43 3.5 66t8 56t18 49.5t32.5 29t51 12.5zM563 1452q66 0 66 -70q0 -39 -41 -172l-86 -270h-64l13 289q1 34 2 51.5t4 45t7 42.5t12.5 33.5t19.5 28t28 16t39 6.5z" />
<glyph unicode="#" horiz-adv-x="1210" d="M180 842l21 114h245l144 408h121l-146 -408h266l144 408h121l-144 -408h213l-20 -114h-234l-98 -287h221l-20 -115h-242l-154 -440h-120l155 440h-266l-154 -440h-120l153 440h-217l21 115h237l101 287h-228zM526 842l-98 -287h264l101 287h-267z" />
<glyph unicode="$" horiz-adv-x="1007" d="M403 -193h-100l35 197q-257 0 -373 189l64 63q100 -145 321 -145h6l99 561q-44 19 -71 32.5t-66 35.5t-62.5 44.5t-47.5 53t-35 68t-11 81.5q0 171 124 296.5t302 139.5l37 215h100l-39 -219q64 -11 118.5 -43t82.5 -63t47 -64l-64 -63q-23 31 -42 50.5t-63 45t-97 33.5 l-88 -504q53 -23 86.5 -40.5t78 -48.5t70 -62.5t44 -79t18.5 -103.5q0 -187 -126.5 -313t-312.5 -154zM459 123q109 28 181.5 108t72.5 191q0 71 -43.5 119t-122.5 88zM567 1315q-104 -13 -177 -88t-73 -185q0 -65 43.5 -109t124.5 -83z" />
<glyph unicode="%" horiz-adv-x="2056" d="M1954 543q0 -73 -19.5 -150.5t-59.5 -151.5t-94 -132t-129 -93.5t-159 -35.5q-133 0 -213 92.5t-80 251.5q0 75 20.5 154.5t61 154t94.5 134t128.5 95t156.5 35.5q130 0 211.5 -99t81.5 -255zM856 1116q0 -73 -19.5 -150.5t-59 -151.5t-93 -132t-128.5 -93.5t-159 -35.5 q-133 0 -214 93t-81 253q0 95 33 195t91 184t146.5 138t188.5 54q131 0 213 -99t82 -255zM1507 57q64 0 118 34.5t89 89t60 122.5t36 134t11 126q0 118 -44.5 186t-129.5 68q-91 0 -165 -73t-113.5 -188t-39.5 -245q0 -116 44.5 -185t133.5 -69zM410 631q79 0 142.5 52 t99.5 131.5t54.5 164t18.5 160.5q0 117 -44 184.5t-128 67.5q-91 0 -165.5 -69.5t-115.5 -184.5t-41 -248q0 -115 46.5 -186.5t132.5 -71.5zM461 -41h-133l1261 1516h133z" />
<glyph unicode="&#x26;" horiz-adv-x="1419" d="M1270 -6h-213l-146 207q-247 -230 -495 -230q-178 0 -290 96t-112 246q0 60 16 115.5t41 98.5t63.5 84t76 71t87 59.5t87.5 48.5t86 41q-66 99 -94.5 162t-28.5 121q0 147 122 247.5t284 100.5q121 0 190.5 -62.5t69.5 -158.5q0 -225 -344 -405l317 -441q99 109 178 275 l82 -25q-33 -63 -56 -104.5t-66.5 -106t-88.5 -115.5zM625 901q53 28 94 57t82 69.5t63.5 91.5t22.5 108q0 70 -44 107.5t-114 37.5q-98 0 -160.5 -65.5t-62.5 -163.5q0 -37 13.5 -74.5t25.5 -56.5t43 -60.5t37 -50.5zM862 276q-40 57 -158.5 224.5t-181.5 259.5 q-57 -31 -101.5 -60.5t-91 -71t-77.5 -84t-50.5 -97.5t-19.5 -115q0 -112 73.5 -185t201.5 -73q101 0 200 54t205 148z" />
<glyph unicode="'" horiz-adv-x="380" d="M297 1452q65 0 65 -70q0 -42 -40 -172l-86 -270h-64l14 307q5 110 27 157.5t84 47.5z" />
<glyph unicode="(" horiz-adv-x="565" d="M270 -193l-65 -28q-51 118 -85 286.5t-34 350.5q0 172 40 355.5t107 343t143 294t159 240.5l57 -29q-157 -240 -263 -643t-106 -776q0 -236 47 -394z" />
<glyph unicode=")" horiz-adv-x="565" d="M29 -221l-56 28q157 245 262 651t105 763q0 228 -47 399l65 29q52 -123 85.5 -291.5t33.5 -351.5q0 -169 -40.5 -351.5t-107.5 -342.5t-143 -294.5t-157 -238.5z" />
<glyph unicode="*" horiz-adv-x="774" d="M748 936q0 -27 -23.5 -44.5t-52.5 -17.5q-30 0 -59.5 26.5t-72.5 76.5t-81 80q-6 -41 -6 -78q0 -23 6 -68.5t6 -66.5q0 -20 -3 -39t-11 -39t-25 -32.5t-41 -12.5q-25 0 -39 15t-14 36q0 45 42.5 134t53.5 151q-56 -29 -102 -66l-28 -24q-29 -24 -41 -32.5t-36 -26 t-41 -24.5t-30 -7q-56 0 -56 59q0 30 44.5 56.5t98 41t110.5 29t69 20.5q-2 1 -32.5 17t-59.5 26q-14 4 -44.5 12.5t-48 14.5t-38.5 16t-31 23.5t-10 30.5q0 35 18 54t49 19q20 0 40.5 -16.5t46 -46.5t40.5 -43l23 -21q5 -5 18.5 -19t25 -23.5t23.5 -14.5q4 32 4 51 q0 25 -5 74t-5 74q0 13 1.5 28.5t8 45t24.5 48.5t46 19q25 0 38 -16.5t13 -38.5q0 -53 -42.5 -148.5t-49.5 -136.5q6 3 64 52.5t119.5 88.5t99.5 39q22 0 34.5 -13.5t12.5 -35.5q0 -39 -51 -65t-141.5 -51t-127.5 -42q11 -7 27.5 -14t28 -11t43.5 -14t49 -16q3 -1 27 -8 t34.5 -12t27.5 -15t24.5 -25t7.5 -34z" />
<glyph unicode="+" d="M106 664v114h410v426h123v-426h410v-114h-410v-441h-123v441h-410z" />
<glyph unicode="," horiz-adv-x="481" d="M227 248q32 0 53 -21.5t21 -52.5q0 -32 -19 -58t-69 -73l-276 -256l-33 25l219 366q42 70 104 70z" />
<glyph unicode="-" horiz-adv-x="647" d="M475 422h-412l23 129h412z" />
<glyph unicode="." horiz-adv-x="423" d="M219 102q0 -46 -34.5 -82t-82.5 -36q-39 0 -62.5 21.5t-23.5 57.5q0 50 36.5 86.5t84.5 36.5q37 0 59.5 -23.5t22.5 -60.5z" />
<glyph unicode="/" horiz-adv-x="890" d="M995 1559l-972 -1659h-127l970 1659h129z" />
<glyph unicode="0" horiz-adv-x="1275" d="M766 1458q111 0 195.5 -42t136.5 -116.5t78 -171.5t26 -213q0 -205 -59.5 -384t-156.5 -299.5t-222.5 -189.5t-257.5 -69q-201 0 -319.5 145t-118.5 392q0 187 51.5 359t141.5 302.5t222 208.5t283 78zM522 74q147 0 266 121.5t184.5 321.5t65.5 433q0 193 -72 300.5 t-214 107.5q-111 0 -209 -72t-165.5 -192t-107 -280t-39.5 -333q0 -189 72.5 -298t218.5 -109z" />
<glyph unicode="1" horiz-adv-x="686" d="M362 0h-161l221 1255l-252 -63l-12 57l460 207z" />
<glyph unicode="2" horiz-adv-x="1175" d="M950 0h-1009l690 610q45 39 79.5 73t76.5 84.5t69 98.5t45.5 110t18.5 124q0 108 -78 179t-193 71q-110 0 -214.5 -65.5t-164.5 -186.5l-75 26q59 141 195.5 237.5t309.5 96.5q179 0 284.5 -94t105.5 -244q0 -79 -27.5 -157t-79 -149.5t-106.5 -130t-129 -124.5 l-521 -459h740z" />
<glyph unicode="3" horiz-adv-x="1052" d="M-8 147l65 64q42 -53 121.5 -95t175.5 -42q165 0 275 118.5t110 274.5q0 115 -69.5 184.5t-192.5 69.5h-45l17 92q44 0 89.5 7.5t98.5 29.5t92.5 56.5t66.5 94.5t27 138q0 94 -63.5 156.5t-167.5 62.5q-199 0 -320 -164l-63 43q169 221 416 221q173 0 267.5 -87 t94.5 -220q0 -132 -89.5 -235t-242.5 -146q118 -26 184 -107t66 -192q0 -103 -45 -196t-120 -158.5t-174 -103.5t-204 -38q-241 0 -370 172z" />
<glyph unicode="4" horiz-adv-x="1249" d="M1130 369h-256l-65 -369h-162l66 369h-717l1077 1130l-182 -1034h256zM729 465l119 674l-635 -674h516z" />
<glyph unicode="5" horiz-adv-x="1150" d="M1020 567q0 -113 -48 -221.5t-129 -190.5t-193.5 -132t-233.5 -50q-78 0 -146.5 21t-118 57t-84 76t-59.5 86l70 49q39 -78 127.5 -133t208.5 -55q60 0 120 18t117.5 57.5t102 95.5t71.5 139t27 181q0 138 -81 219.5t-218 81.5q-167 0 -266 -118l-60 8l217 678h695 l-17 -101h-602l-141 -436q90 66 233 66q185 0 296.5 -113t111.5 -283z" />
<glyph unicode="6" horiz-adv-x="1234" d="M1104 545q0 -151 -83 -282.5t-223 -209.5t-300 -78q-203 0 -316.5 130t-113.5 372q0 201 61.5 384t163.5 313t239 207t285 77q206 0 338 -155l-51 -56q-54 56 -122 83.5t-173 27.5q-112 0 -206.5 -53t-163.5 -149t-117 -222t-76 -281q49 107 175 193t277 86 q186 0 296 -110t110 -277zM518 74q116 0 213.5 63.5t152 168t54.5 224.5q0 130 -76.5 208.5t-208.5 78.5q-71 0 -143 -30t-134 -84.5t-101 -144t-39 -196.5q0 -133 78.5 -210.5t203.5 -77.5z" />
<glyph unicode="7" horiz-adv-x="1146" d="M102 0h-168l1049 1333h-825l16 101h1057z" />
<glyph unicode="8" horiz-adv-x="1146" d="M1001 455q0 -136 -79.5 -247.5t-208 -172t-275.5 -60.5q-181 0 -296 94t-115 250q0 153 104 274.5t272 164.5q-94 35 -152 108t-58 168q0 119 69 217t185 152.5t253 54.5q178 0 278.5 -86t100.5 -219q0 -40 -9 -82t-33 -90t-60 -89t-95 -77t-134 -57 q118 -34 185.5 -114.5t67.5 -188.5zM586 807q138 0 236 94t98 246q0 97 -63 154t-173 57q-141 0 -236.5 -95t-95.5 -241q0 -103 62.5 -159t171.5 -56zM455 74q154 0 266.5 110t112.5 271q0 118 -78.5 185t-188.5 67q-63 0 -127.5 -24.5t-121 -70t-92.5 -119.5t-36 -163 q0 -112 72 -184t193 -72z" />
<glyph unicode="9" horiz-adv-x="1234" d="M129 887q0 153 83 285t222.5 209t300.5 77q202 0 316 -131.5t114 -374.5q0 -201 -62 -383.5t-165.5 -311.5t-241.5 -205.5t-286 -76.5q-113 0 -206 50t-149 118l51 56q125 -125 314 -125q111 0 205.5 53t164 148.5t119 222t76.5 280.5q-47 -107 -174 -192.5t-279 -85.5 q-184 0 -293.5 110t-109.5 277zM713 1358q-176 0 -298 -135t-122 -320q0 -130 77 -209.5t208 -79.5q57 0 115 18t113 56.5t97.5 91t68 128t25.5 161.5q0 133 -79 211t-205 78z" />
<glyph unicode=":" horiz-adv-x="423" d="M307 754q0 -45 -34.5 -81t-82.5 -36q-38 0 -61 22t-23 58q0 51 35 87t84 36q36 0 59 -24.5t23 -61.5zM193 102q0 -46 -34.5 -82t-82.5 -36q-39 0 -62.5 21.5t-23.5 57.5q0 50 36.5 86.5t84.5 36.5q37 0 59.5 -23.5t22.5 -60.5z" />
<glyph unicode=";" horiz-adv-x="491" d="M356 756q0 -46 -35 -82.5t-83 -36.5q-38 0 -61 22t-23 58q0 50 36 86.5t84 36.5q37 0 59.5 -23.5t22.5 -60.5zM195 248q33 0 53 -21t20 -51t-43.5 -79t-158.5 -156l-164 -154l-35 25l211 346q56 90 117 90z" />
<glyph unicode="&#x3c;" d="M999 1192v-135l-739 -336l739 -336v-133l-946 442v58z" />
<glyph unicode="=" d="M102 850v119h951v-119h-951zM102 461v119h951v-119h-951z" />
<glyph unicode="&#x3e;" d="M125 1057v135l946 -440v-58l-946 -442v133l739 336z" />
<glyph unicode="?" horiz-adv-x="804" d="M362 102q0 -45 -35 -81.5t-83 -36.5q-39 0 -61.5 21.5t-22.5 57.5q0 49 36 86t83 37q37 0 60 -23.5t23 -60.5zM471 1368q-144 0 -262 -115l-45 52q145 153 342 153q164 0 250 -70.5t86 -187.5q0 -85 -32 -154t-82.5 -114.5t-112 -84.5t-123 -72t-112 -67.5t-82.5 -81 t-32 -102.5q0 -76 78 -121l-43 -57q-62 31 -94.5 70.5t-32.5 101.5q0 71 28 129t72 98.5t98 76.5t108 71.5t98 74t72 94t28 122.5q0 85 -57 134.5t-150 49.5z" />
<glyph unicode="@" horiz-adv-x="1624" d="M1569 930q0 -84 -24.5 -171.5t-72 -166t-111 -140.5t-149.5 -98.5t-180 -36.5q-40 0 -67 24t-27 73q0 13 4 37q-119 -136 -289 -136q-109 0 -182.5 80.5t-73.5 206.5q0 125 65.5 245t172.5 194.5t221 74.5q72 0 131.5 -42.5t83.5 -135.5l55 145h115l-139 -411 q-2 -6 -9.5 -29t-9.5 -29t-8 -25.5t-8 -27t-5.5 -23.5t-5 -26t-2.5 -23t-1 -26q0 -53 34 -53q32 0 75 18.5t90.5 60t87.5 99t66 144t26 186.5q0 198 -130 326t-356 128q-110 0 -219 -38t-203 -110t-166 -168t-113.5 -220t-41.5 -258q0 -162 71 -281.5t190 -179.5t269 -60 q131 0 247 24.5t185 65.5l29 -63q-108 -60 -217.5 -84.5t-259.5 -24.5q-293 0 -471 165.5t-178 432.5q0 147 49.5 284.5t136 244.5t198.5 188.5t244 124.5t265 43q266 0 437 -149.5t171 -378.5zM680 401q62 0 123.5 42t104.5 104.5t69.5 134.5t26.5 131q0 92 -43 157.5 t-117 65.5q-81 0 -155.5 -60t-119.5 -160t-45 -210q0 -95 43 -150t113 -55z" />
<glyph unicode="A" horiz-adv-x="1308" d="M782 1481l371 -1481h-172l-104 424h-619l-252 -424h-119zM700 1167l-378 -641h528z" />
<glyph unicode="B" horiz-adv-x="1128" d="M1004 467q0 -200 -147.5 -333.5t-371.5 -133.5h-448l252 1434h340q87 0 155 -18.5t109 -48t67.5 -69.5t36 -79.5t9.5 -81.5q0 -124 -77.5 -226t-221.5 -141q137 -20 217 -100.5t80 -202.5zM344 803h170q157 0 244.5 94.5t87.5 247.5q0 96 -64.5 142t-212.5 46h-131z M219 100h213q194 0 300 91t106 278q0 116 -86.5 176t-237.5 60h-188z" />
<glyph unicode="C" horiz-adv-x="1431" d="M1212 238l41 -62q-80 -61 -151.5 -101.5t-178.5 -71t-223 -30.5q-284 0 -456 165t-172 431q0 180 76 346.5t199.5 285t286.5 189t331 70.5q85 0 155.5 -14.5t125 -43t92 -57t79.5 -69.5l-61 -64q-151 148 -395 148q-139 0 -269.5 -61t-228 -164.5t-156.5 -250.5t-59 -309 q0 -227 131.5 -365t351.5 -138q262 0 481 166z" />
<glyph unicode="D" horiz-adv-x="1349" d="M1278 860q0 -116 -31 -226.5t-87.5 -205t-139 -174t-181.5 -135.5t-219 -87.5t-249 -31.5h-334l252 1434h334q158 0 283.5 -43t206 -120.5t123 -181.5t42.5 -229zM219 100h168q211 0 376 102.5t253 274t88 379.5q0 77 -16.5 145t-54 129.5t-94.5 106t-142.5 70.5 t-192.5 26h-166z" />
<glyph unicode="E" horiz-adv-x="1007" d="M762 0h-725l252 1434h723l-17 -101h-557l-92 -516h539l-17 -100h-538l-111 -617h559z" />
<glyph unicode="F" horiz-adv-x="919" d="M926 1333h-488l-90 -502h469l-16 -100h-469l-129 -731h-166l252 1434h653z" />
<glyph unicode="G" horiz-adv-x="1656" d="M1565 733q-37 -169 -116 -309.5t-189.5 -241t-255 -156t-306.5 -55.5q-285 0 -455.5 168t-170.5 434q0 176 74.5 340.5t196.5 284t286.5 191t337.5 71.5q89 0 164 -17t131.5 -48.5t96.5 -65t79 -78.5l-64 -61q-76 86 -176 128t-240 42q-104 0 -207.5 -35t-194 -104 t-160 -163t-110 -220t-40.5 -267q0 -226 130 -362.5t351 -136.5q133 0 248.5 45t200 123.5t143 178.5t88.5 216h-385l16 98h527z" />
<glyph unicode="H" horiz-adv-x="1454" d="M1165 0h-166l129 729h-796l-129 -729h-166l252 1434h166l-107 -605h797l106 605h166z" />
<glyph unicode="I" horiz-adv-x="491" d="M203 0h-166l252 1434h166z" />
<glyph unicode="J" horiz-adv-x="739" d="M725 1434l-197 -1110q-29 -165 -133 -260t-248 -95q-155 0 -249 131l63 56q77 -90 182 -90q172 0 213 225l203 1143h166z" />
<glyph unicode="K" horiz-adv-x="1226" d="M1079 0h-209l-503 700l-48 -41l-116 -659h-166l252 1434h166l-111 -635l758 635h147l-762 -643z" />
<glyph unicode="L" horiz-adv-x="880" d="M713 0h-676l252 1434h166l-236 -1334h510z" />
<glyph unicode="M" horiz-adv-x="1783" d="M1554 0h-163l36 1020l-698 -1051l-303 1055l-350 -1024h-119l506 1470l348 -1181l784 1181z" />
<glyph unicode="N" horiz-adv-x="1572" d="M37 0l260 1475l924 -1158l196 1117h119l-258 -1467l-926 1159l-198 -1126h-117z" />
<glyph unicode="O" horiz-adv-x="1673" d="M74 569q0 174 71 337.5t190.5 285t286 195t347.5 73.5q286 0 458 -167.5t172 -434.5q0 -146 -47 -283t-131.5 -245t-196 -189.5t-245.5 -125.5t-274 -44q-282 0 -456.5 166.5t-174.5 431.5zM950 1360q-148 0 -280 -65t-224 -173.5t-145 -252t-53 -298.5q0 -221 128 -360 t347 -139q141 0 271 62.5t225 168t151.5 251.5t56.5 306q0 225 -128.5 362.5t-348.5 137.5z" />
<glyph unicode="P" horiz-adv-x="1028" d="M1012 1128q0 -211 -150 -340t-387 -129h-156l-116 -659h-166l252 1434h291q211 0 321.5 -79t110.5 -227zM336 758h160q171 0 260.5 96.5t89.5 265.5q0 102 -63 157.5t-189 55.5h-156z" />
<glyph unicode="Q" horiz-adv-x="1679" d="M1227 -35l-94 119q-202 -113 -431 -113q-282 0 -456 166.5t-174 431.5q0 170 71 333t190.5 285.5t286 197.5t347.5 75q286 0 458 -167.5t172 -434.5q0 -214 -97 -398t-263 -308l145 -187h-155zM948 1360q-148 0 -280.5 -68t-223.5 -178.5t-144.5 -253t-53.5 -289.5 q0 -221 128 -360t347 -139q182 0 344 100l-262 338h155l203 -262q123 111 193.5 270.5t70.5 341.5q0 225 -128.5 362.5t-348.5 137.5z" />
<glyph unicode="R" horiz-adv-x="1114" d="M967 0h-189l-295 666h-164l-116 -666h-166l252 1434h323q190 0 284.5 -80.5t94.5 -218.5q0 -96 -31.5 -176.5t-83.5 -133t-109 -85.5t-118 -50zM338 764h147q163 0 252.5 100t89.5 262q0 207 -243 207h-146z" />
<glyph unicode="S" horiz-adv-x="1026" d="M375 76q77 0 141 17t115 51.5t79.5 93t28.5 135.5q0 62 -31.5 114.5t-82 90.5t-111 74.5t-121.5 74.5t-111.5 81.5t-82 105t-31.5 135.5q0 192 126 300.5t316 108.5q70 0 132.5 -18.5t106.5 -47.5t73.5 -57.5t46.5 -56.5l-56 -61q-41 54 -118 97.5t-183 43.5 q-131 0 -209.5 -67t-78.5 -191q0 -57 32 -106.5t83 -86.5t113 -73.5t123.5 -76.5t112.5 -85.5t83 -110t32 -141.5q0 -113 -41.5 -199.5t-115 -139.5t-167.5 -79.5t-206 -26.5q-156 0 -263 57.5t-157 137.5l61 59q47 -63 141 -108t220 -45z" />
<glyph unicode="T" horiz-adv-x="987" d="M1055 1333h-371l-235 -1333h-166l235 1333h-368l16 101h905z" />
<glyph unicode="U" horiz-adv-x="1345" d="M1329 1434l-160 -908q-44 -253 -212 -403t-406 -150q-213 0 -333 112.5t-120 311.5q0 54 13 127l159 910h166l-160 -910q-12 -70 -12 -133q0 -147 74 -231t235 -84q100 0 183 38t141 104t96.5 150.5t55.5 182.5l155 883h125z" />
<glyph unicode="V" horiz-adv-x="1267" d="M487 -55l-356 1489h170l272 -1153l701 1153h125z" />
<glyph unicode="W" horiz-adv-x="2078" d="M426 -55l-283 1489h168l207 -1119l658 1155l278 -1165l623 1129h125l-828 -1489l-278 1173z" />
<glyph unicode="X" horiz-adv-x="1228" d="M1061 0h-184l-287 627l-545 -627h-129l629 727l-326 707h187l266 -586l499 586h129l-587 -684z" />
<glyph unicode="Y" horiz-adv-x="1112" d="M330 0l112 645l-307 789h172l266 -682l537 682h117l-619 -793l-112 -641h-166z" />
<glyph unicode="Z" horiz-adv-x="1200" d="M236 1333l16 101h981l-1053 -1334h815l-16 -100h-1059l1057 1333h-741z" />
<glyph unicode="[" horiz-adv-x="507" d="M233 -195h-280l319 1833h283l-14 -90h-150l-293 -1654h150z" />
<glyph unicode="\" horiz-adv-x="890" d="M573 -100l-387 1659h129l387 -1659h-129z" />
<glyph unicode="]" horiz-adv-x="507" d="M233 -195h-280l14 89h146l293 1654h-148l14 90h283z" />
<glyph unicode="^" d="M150 303h-136l617 952h57l285 -952h-135l-213 748z" />
<glyph unicode="_" horiz-adv-x="999" d="M-6 -373l12 88h1010l-15 -88h-1007z" />
<glyph unicode="`" horiz-adv-x="372" d="M367 1079h-76l-135 142q-39 39 -39 63q0 29 27 54.5t61 25.5q27 0 43 -19t33 -61z" />
<glyph unicode="a" horiz-adv-x="1034" d="M772 0h-147l24 135q-133 -158 -338 -158q-146 0 -232.5 56.5t-86.5 173.5q0 163 118 259.5t314 96.5h301l12 68q4 20 4 55q0 100 -65.5 152.5t-171.5 52.5q-158 0 -303 -117l-39 55q175 148 373 148q155 0 255.5 -71.5t100.5 -207.5q0 -32 -6 -67zM682 319l29 158h-283 q-130 0 -207.5 -68.5t-77.5 -179.5q0 -80 56 -123t145 -43q132 0 225.5 79t112.5 177z" />
<glyph unicode="b" horiz-adv-x="1175" d="M1053 584q0 -107 -41 -214.5t-111.5 -194t-175.5 -141t-223 -54.5q-119 0 -198.5 42t-117.5 140l-28 -162h-152l268 1524h152l-131 -748q67 98 168.5 147.5t210.5 49.5q168 0 273.5 -108.5t105.5 -280.5zM487 68q96 0 175.5 46t129.5 120.5t77.5 164.5t27.5 183 q0 134 -67 217.5t-197 83.5q-117 0 -212.5 -74.5t-146.5 -194t-51 -254.5q0 -136 68 -214t196 -78z" />
<glyph unicode="c" horiz-adv-x="1011" d="M819 141q-181 -164 -389 -164q-190 0 -300 110.5t-110 287.5q0 123 48.5 235t128 191.5t186 126.5t219.5 47q217 0 328 -168l-64 -53q-43 61 -110 97t-152 36q-56 0 -114 -19t-114.5 -61t-100 -100.5t-70.5 -144.5t-27 -187q0 -146 79 -229t206 -83q159 0 311 136z" />
<glyph unicode="d" horiz-adv-x="1171" d="M20 375q0 89 26 176t76 163t117.5 134t155 91.5t183.5 33.5q109 0 192 -48t115 -143l131 742h151l-268 -1524h-151l30 172q-75 -96 -174 -145.5t-209 -49.5q-171 0 -273 109.5t-102 288.5zM584 883q-95 0 -174 -45.5t-129.5 -120t-78.5 -166.5t-28 -189 q0 -135 67.5 -214.5t200.5 -79.5q111 0 204.5 68.5t146.5 186t53 257.5q0 135 -67.5 219t-194.5 84z" />
<glyph unicode="e" horiz-adv-x="1099" d="M967 469h-783q-8 -44 -8 -94q0 -136 72 -224t201 -88q116 0 203 46.5t167 134.5l49 -49q-74 -94 -188.5 -156t-257.5 -62q-185 0 -293.5 106t-108.5 284q0 127 48 241t127.5 193t184 125.5t214.5 46.5q173 0 278 -106t105 -287q0 -46 -10 -111zM836 557q2 14 2 45 q0 128 -68.5 206.5t-189.5 78.5q-131 0 -235.5 -100t-137.5 -230h629z" />
<glyph unicode="f" horiz-adv-x="655" d="M729 1401q-47 37 -113 37q-69 0 -120 -54.5t-72 -171.5l-45 -264h223l-16 -90h-224l-151 -858h-152l152 858h-154l17 90h153l47 269q13 77 46 137t79 96.5t99.5 55t111.5 18.5q92 0 168 -56z" />
<glyph unicode="g" horiz-adv-x="1150" d="M-20 -223l67 49q42 -83 114 -134.5t173 -51.5q86 0 155 28.5t111.5 70.5t74.5 103t48 113.5t27 114.5l24 133q-66 -93 -160 -142t-206 -49q-174 0 -277.5 102.5t-103.5 274.5q0 161 75 296t200.5 211.5t270.5 76.5q117 0 195 -50.5t106 -142.5h3l30 168h152l-156 -885 q-43 -249 -197 -384.5t-376 -135.5q-121 0 -211 63t-139 171zM834 494q6 44 6 86q0 130 -68 216.5t-201 86.5q-73 0 -143.5 -36t-126 -98.5t-89.5 -156t-34 -199.5q0 -137 71.5 -217t188.5 -80q148 0 257 113.5t139 284.5z" />
<glyph unicode="h" horiz-adv-x="1073" d="M811 0h-149l108 621q6 35 6 67q0 89 -47 142t-139 53q-109 0 -209.5 -86t-120.5 -201l-104 -596h-152l268 1524h152l-125 -713q61 76 153 120t185 44q135 0 214 -66t79 -196q0 -43 -8 -84z" />
<glyph unicode="i" horiz-adv-x="430" d="M408 1272q0 -49 -34.5 -82t-82.5 -33q-38 0 -61 23t-23 59q0 48 36 80.5t81 32.5q37 0 60.5 -22.5t23.5 -57.5zM156 0h-152l168 948h152z" />
<glyph unicode="j" horiz-adv-x="432" d="M-281 -455l13 74q122 9 178 89.5t90 268.5l172 971h152l-172 -968q-17 -94 -44.5 -166t-76 -136t-127.5 -98.5t-185 -34.5zM406 1272q0 -47 -34.5 -81t-80.5 -34q-38 0 -61 22t-23 58q0 49 34.5 82t80.5 33q37 0 60.5 -22.5t23.5 -57.5z" />
<glyph unicode="k" horiz-adv-x="931" d="M782 0h-180l-336 475l-30 -24l-80 -451h-152l268 1524h152l-172 -975l489 399h129l-481 -397z" />
<glyph unicode="l" horiz-adv-x="430" d="M156 0h-152l268 1524h152z" />
<glyph unicode="m" horiz-adv-x="1636" d="M1376 0h-151l108 627q6 41 6 71q0 89 -45.5 137t-124.5 48q-100 0 -189.5 -84t-109.5 -199l-104 -600h-152l109 616q6 44 6 78q0 90 -42.5 139.5t-123.5 49.5q-104 0 -193.5 -88t-111.5 -209l-102 -586h-152l166 948h152l-25 -139q62 79 150 122.5t171 43.5 q97 0 167.5 -50t88.5 -145q56 85 152.5 140t194.5 55q124 0 198 -69t74 -197q0 -45 -8 -86z" />
<glyph unicode="n" horiz-adv-x="1067" d="M807 0h-152l111 629q6 38 6 69q0 91 -48.5 135t-133.5 44q-120 0 -215 -85t-115 -194l-104 -598h-152l166 948h152l-25 -137q58 73 150.5 118.5t187.5 45.5q145 0 217 -73t72 -193q0 -23 -9 -84z" />
<glyph unicode="o" horiz-adv-x="1153" d="M1030 573q0 -118 -45.5 -227.5t-123 -190.5t-188 -129.5t-233.5 -48.5q-195 0 -307.5 107t-112.5 287q0 127 49 239.5t130 191.5t190 125t227 46q179 0 296.5 -109t117.5 -291zM455 68q121 0 218.5 77t148 192t50.5 238q0 137 -70.5 222.5t-201.5 85.5 q-120 0 -217.5 -71.5t-150 -187.5t-52.5 -249q0 -136 70.5 -221.5t204.5 -85.5z" />
<glyph unicode="p" horiz-adv-x="1175" d="M1053 573q0 -109 -40.5 -215.5t-111.5 -191.5t-178 -137t-229 -52q-109 0 -191 44.5t-121 140.5l-108 -625h-152l248 1411h152l-29 -162q142 187 383 187q171 0 274 -109.5t103 -290.5zM489 63q78 0 145 31.5t114 84t81 121t50 143t16 149.5q0 136 -66.5 215.5 t-195.5 79.5q-119 0 -213 -68.5t-145.5 -187t-51.5 -264.5q0 -142 68 -223t198 -81z" />
<glyph unicode="q" horiz-adv-x="1148" d="M586 887q-96 0 -175.5 -47.5t-129 -124t-76.5 -168.5t-27 -185q0 -136 65 -217.5t195 -81.5q116 0 212.5 74t150 195.5t53.5 261.5q0 134 -69.5 213.5t-198.5 79.5zM20 365q0 108 41 216t112 195.5t177 142t225 54.5q114 0 195.5 -46.5t118.5 -140.5l29 162h151 l-248 -1411h-151l112 639q-70 -100 -170.5 -149.5t-208.5 -49.5q-173 0 -278 108.5t-105 279.5z" />
<glyph unicode="r" horiz-adv-x="692" d="M645 821q-52 25 -104 25q-102 0 -182.5 -74t-100.5 -190l-102 -582h-152l168 948h152l-29 -160q54 73 132 120.5t177 47.5q46 0 88 -24z" />
<glyph unicode="s" horiz-adv-x="808" d="M270 61q104 0 173 40.5t69 125.5q0 40 -23 73t-60 57.5t-81.5 48.5t-89 52t-81.5 60t-60 80t-23 107q0 122 88.5 196t235.5 74q91 0 160 -41.5t108 -89.5l-47 -58q-95 101 -219 101q-90 0 -141.5 -44.5t-51.5 -113.5q0 -37 23 -68.5t59.5 -55t81 -47t89 -51t81 -60.5 t59.5 -82.5t23 -110.5q0 -139 -99.5 -208t-277.5 -69q-111 0 -192 48t-123 110l59 55q111 -129 260 -129z" />
<glyph unicode="t" horiz-adv-x="624" d="M217 0h-151l151 858h-151l16 90h151l48 275h151l-47 -275h240l-17 -90h-239z" />
<glyph unicode="u" horiz-adv-x="1083" d="M170 948h152l-111 -629q-6 -40 -6 -71q0 -93 48 -137.5t130 -44.5q121 0 217.5 87t116.5 195l104 600h152l-166 -948h-152l25 137q-59 -73 -151.5 -118.5t-186.5 -45.5q-145 0 -217 73.5t-72 193.5q0 45 8 84z" />
<glyph unicode="v" horiz-adv-x="978" d="M989 948l-641 -981l-278 981h159l195 -700l459 700h106z" />
<glyph unicode="w" horiz-adv-x="1527" d="M1528 948l-608 -985l-181 709l-415 -709l-256 985h157l170 -672l410 689l188 -711l428 694h107z" />
<glyph unicode="x" horiz-adv-x="948" d="M821 0h-168l-231 406l-385 -406h-117l457 483l-264 465h176l207 -364l348 364h117l-422 -444z" />
<glyph unicode="y" horiz-adv-x="1026" d="M1026 948l-889 -1411h-117l302 483l-259 928h162l203 -770l487 770h111z" />
<glyph unicode="z" horiz-adv-x="1021" d="M983 948l-827 -860h678l-15 -88h-909l819 858h-614l14 90h854z" />
<glyph unicode="{" horiz-adv-x="622" d="M348 -195q-227 0 -227 162q0 31 4 49l80 453q8 54 8 78q0 120 -107 141l11 64q74 15 116.5 69.5t61.5 157.5l80 453q36 206 295 206l-13 -73q-51 0 -96.5 -37t-54.5 -92l-76 -435q-20 -113 -64 -180.5t-137 -103.5q60 -24 86.5 -64.5t26.5 -103.5q0 -25 -12 -107 l-74 -426q-4 -24 -4 -32q0 -52 30.5 -79.5t77.5 -27.5z" />
<glyph unicode="|" horiz-adv-x="376" d="M92 -205h-129l320 1843h131z" />
<glyph unicode="}" horiz-adv-x="622" d="M-47 -195l12 72q51 0 95 36.5t55 102.5l73 426q20 115 63.5 179t137.5 96q-60 27 -85 70t-25 108q0 41 10 106l76 435q0 3 1 10t1 10q0 48 -31.5 78.5t-75.5 30.5l12 73q230 0 230 -161q0 -13 -4 -45l-80 -453q-8 -41 -8 -82q0 -121 104 -145l-10 -64 q-74 -14 -115.5 -65.5t-60.5 -153.5l-80 -453q-37 -211 -295 -211z" />
<glyph unicode="~" horiz-adv-x="1198" d="M1151 840q-164 -262 -336 -262q-58 0 -118.5 26t-103.5 56.5t-98.5 56.5t-103.5 26q-62 0 -116.5 -47.5t-110.5 -128.5l-76 37q18 28 29.5 45t38.5 53.5t53 60.5t60.5 50t74.5 39.5t82 13.5q49 0 109 -26t107 -58t102 -58t96 -26q38 0 75.5 18t69.5 50.5t51 56.5t41 56z " />
<glyph unicode="&#xa1;" horiz-adv-x="436" d="M152 874q7 41 39.5 69t70.5 28q41 0 64 -28t16 -69q-8 -40 -40 -68t-73 -28q-39 0 -61.5 28.5t-15.5 67.5zM-51 -311l207 846h65l-96 -852q-4 -35 -10 -72q-6 -40 -32 -70t-77 -30q-49 0 -65 30.5t-7 75.5z" />
<glyph unicode="&#xa2;" horiz-adv-x="976" d="M434 -193h-100l76 439q-190 19 -284 157t-58 338q35 200 180.5 339t337.5 159l69 399h101l-70 -399q180 -17 281 -166l-64 -53q-87 120 -233 131l-144 -821q146 10 283 135l45 -57q-160 -148 -344 -162zM225 739q-28 -164 28.5 -269.5t172.5 -131.5l143 807 q-124 -25 -218.5 -128.5t-125.5 -277.5z" />
<glyph unicode="&#xa3;" horiz-adv-x="1060" d="M731 631h-217q22 -107 12 -164q-17 -87 -69 -168t-111 -121q28 -4 127.5 -42t159.5 -38q66 0 139 39.5t107 75.5l41 -51q-16 -18 -44 -43t-72 -57.5t-98.5 -54t-103.5 -21.5q-72 0 -145 24t-141.5 48t-131.5 24q-130 0 -209 -74l-36 53q28 36 115.5 85t176.5 49 q46 33 87.5 96t52.5 129q17 91 -45 211h-252l14 80h188q-56 95 -81 178.5t-7 189.5q29 155 163.5 267t310.5 112q59 0 111.5 -16.5t90 -43.5t63.5 -53.5t44 -54.5l-68 -63q-19 25 -34.5 41.5t-46.5 40.5t-75.5 36.5t-99.5 12.5q-121 0 -202.5 -70t-104.5 -198q-9 -51 4 -103 t34 -88.5t55 -93t52 -94.5h260z" />
<glyph unicode="&#xa4;" horiz-adv-x="1542" d="M1122 565h-760q0 -221 130.5 -357t347.5 -136q253 0 481 170l43 -68q-124 -94 -254.5 -148.5t-300.5 -54.5q-281 0 -452.5 165t-174.5 429h-162l46 90h120q1 9 4.5 29t4.5 29q3 13 8 40t8 40h-152l47 88h138q100 254 331.5 416.5t497.5 162.5q85 0 155.5 -14.5t125.5 -43 t93 -57t81 -69.5l-68 -68q-155 152 -391 152q-214 0 -390 -132t-259 -347h868l-49 -88h-852q-3 -12 -8 -38t-8 -40q-1 -9 -4.5 -32.5t-4.5 -27.5h805z" />
<glyph unicode="&#xa5;" horiz-adv-x="1200" d="M1247 1434l-600 -754l-8 -51h242l-17 -90h-241l-23 -136h242l-17 -90h-241l-56 -313h-163l55 313h-240l17 90h239l23 136h-240l17 90h239l10 53l-325 752h180l276 -635l508 635h123z" />
<glyph unicode="&#xa6;" horiz-adv-x="370" d="M264 819h-125l146 819h125zM104 614h125l-145 -817h-123z" />
<glyph unicode="&#xa7;" horiz-adv-x="1017" d="M891 401q-23 -124 -113 -221.5t-213 -136.5q155 -107 123 -293q-27 -149 -151 -253.5t-293 -104.5q-110 0 -193.5 43.5t-116.5 91.5l54 57q95 -100 266 -100q114 0 192 69t97 179q11 65 -15.5 116.5t-77 87t-114 69t-126 71.5t-111.5 84.5t-72.5 118.5t-8.5 163 q23 126 113 223t213 136q-155 111 -123 295q27 149 151.5 253.5t293.5 104.5q58 0 109 -16.5t87 -44t59.5 -53t39.5 -52.5l-64 -59q-19 27 -33.5 43t-44 40.5t-71 37t-93.5 12.5q-115 0 -192 -69.5t-96 -180.5q-11 -64 15.5 -115.5t77.5 -87t114 -68.5t125.5 -71.5 t111.5 -85.5t72.5 -119.5t7.5 -163.5zM739 381q11 65 -3 115.5t-60 91t-81.5 62t-108.5 59.5q-33 17 -50 26q-103 -21 -175.5 -96.5t-90.5 -173.5q-5 -27 -5 -51.5t4.5 -45.5t12 -40t20 -36t26 -31.5t31.5 -28.5t35 -25.5t39 -24.5t40.5 -23t42.5 -22q35 -18 53 -28 q106 23 179.5 98t90.5 174z" />
<glyph unicode="&#xa8;" horiz-adv-x="622" d="M141 1229q3 35 32.5 61.5t66.5 26.5t59.5 -26t19.5 -62q-4 -38 -33.5 -64t-66.5 -26t-59.5 26t-18.5 64zM459 1229q3 35 32 61.5t66 26.5q38 0 60.5 -26t19.5 -62q-4 -38 -33.5 -64t-66.5 -26t-59.5 26t-18.5 64z" />
<glyph unicode="&#xa9;" horiz-adv-x="1642" d="M82 711q0 205 98 376.5t267.5 271t371.5 99.5q209 0 379.5 -98t266.5 -268.5t96 -378.5q0 -153 -57 -289.5t-155 -235t-236 -156t-294 -57.5q-153 0 -289.5 57t-234.5 155t-155.5 234.5t-57.5 289.5zM209 705q0 -177 76.5 -325.5t217 -236.5t316.5 -88q180 0 320.5 87.5 t216.5 238t76 336.5q0 188 -76.5 338.5t-217 236.5t-319.5 86q-124 0 -234.5 -46.5t-194 -131t-132.5 -213t-49 -282.5zM1161 395q-145 -135 -327 -135q-200 0 -329.5 134t-129.5 333q0 195 133 330t326 135q170 0 313 -125l-47 -59q-114 102 -256 102q-146 0 -239 -109.5 t-93 -275.5q0 -170 94.5 -277.5t237.5 -107.5q146 0 272 113z" />
<glyph unicode="&#xaa;" horiz-adv-x="653" d="M596 834h-115l11 61q-85 -78 -193 -78q-104 0 -162.5 46.5t-40.5 144.5q15 87 87.5 136.5t187.5 49.5h174l6 31q12 72 -26 110.5t-107 38.5q-92 0 -191 -78l-34 47q58 49 116 75t129 26q113 0 180 -55.5t48 -163.5zM516 1036l16 90h-161q-67 0 -108 -32.5t-50 -85.5 q-10 -57 21.5 -89t87.5 -32q79 0 132.5 46t61.5 103z" />
<glyph unicode="&#xab;" horiz-adv-x="825" d="M580 223l-39 -55q-58 23 -108 65t-82 113t-17 152q22 120 114.5 208.5t208.5 127.5l17 -56q-77 -27 -137.5 -104t-79.5 -176q-19 -104 20.5 -177t102.5 -98zM270 223l-39 -55q-58 23 -108 65t-81.5 113t-16.5 152q22 120 114.5 208.5t208.5 127.5l17 -56 q-77 -27 -138 -104t-80 -176q-19 -104 20.5 -177t102.5 -98z" />
<glyph unicode="&#xac;" d="M1016 303h-121v412h-840v119h961v-531z" />
<glyph unicode="&#xad;" horiz-adv-x="616" d="M451 422h-412l22 129h412z" />
<glyph unicode="&#xae;" horiz-adv-x="1642" d="M1198 279h-160l-250 409h-96v-409h-143v905h242q145 0 216.5 -65t71.5 -177q0 -174 -168 -233h2zM944 942q0 70 -37 114t-123 44h-92v-326h92q160 0 160 168zM84 711q0 205 98 376.5t267.5 271t371.5 99.5q209 0 379.5 -98t266.5 -268.5t96 -378.5q0 -153 -57 -289.5 t-155 -235t-236 -156t-294 -57.5q-153 0 -289.5 57t-234.5 155t-155.5 234.5t-57.5 289.5zM211 705q0 -177 76.5 -325.5t217 -236.5t316.5 -88q180 0 320.5 87.5t216.5 238t76 336.5q0 188 -76.5 338.5t-217 236.5t-319.5 86q-124 0 -234.5 -46.5t-194 -131t-132.5 -213 t-49 -282.5z" />
<glyph unicode="&#xaf;" horiz-adv-x="581" d="M586 1169h-449l10 107h449z" />
<glyph unicode="&#xb0;" horiz-adv-x="563" d="M360 1446q88 0 149.5 -60t61.5 -147q0 -88 -61.5 -146.5t-149.5 -58.5q-90 0 -150 58t-60 147q0 87 61 147t149 60zM360 1356q-48 0 -80 -33t-32 -84t32 -84t80 -33q47 0 81 33t34 84q0 50 -33.5 83.5t-81.5 33.5z" />
<glyph unicode="&#xb1;" d="M61 172v119h963v-119h-963zM61 836v118h420v416h123v-416h420v-118h-420v-418h-123v418h-420z" />
<glyph unicode="&#xb2;" horiz-adv-x="778" d="M670 516h-670l473 428q129 117 152 240q12 73 -37 122.5t-129 49.5q-66 0 -131 -41t-105 -121l-71 29q44 95 137 159t209 64q134 0 207 -74.5t53 -189.5q-16 -86 -69 -158t-134 -145l-315 -273h446z" />
<glyph unicode="&#xb3;" horiz-adv-x="724" d="M672 778q-22 -120 -124.5 -199t-236.5 -79q-105 0 -171 51t-89 133l70 37q19 -62 68 -98.5t118 -36.5q92 0 154 55t76 137q14 83 -28 135t-128 52h-41l14 82q209 0 238 161q11 64 -28.5 109t-110.5 45q-57 0 -113.5 -32t-93.5 -91l-62 31q109 176 299 176q128 0 192 -70 t46 -168q-12 -68 -59 -120.5t-125 -79.5q74 -30 111 -91.5t24 -138.5z" />
<glyph unicode="&#xb4;" horiz-adv-x="458" d="M219 1079h-76l162 201q25 28 39 43t35 28t39 13q29 0 45 -19t14 -45q-1 -7 -3 -13.5t-7 -13.5t-7.5 -11t-11.5 -11.5t-11.5 -9.5t-14.5 -11t-14 -11z" />
<glyph unicode="&#xb5;" horiz-adv-x="1081" d="M82 -410h-152l240 1358h152l-111 -629q-24 -129 24 -191t146 -62q122 0 217 86.5t115 195.5l106 600h152l-168 -948h-152l25 137q-54 -72 -148 -118t-190 -46q-65 0 -103.5 17t-72.5 49z" />
<glyph unicode="&#xb6;" horiz-adv-x="995" d="M647 1350l-274 -1555h-129l153 869q-61 2 -112.5 25t-93 69.5t-55.5 119t1 173.5q30 167 153 275t267 108h520l-14 -84h-113l-274 -1555h-131l274 1555h-172z" />
<glyph unicode="&#xb7;" horiz-adv-x="423" d="M291 743q0 -46 -34.5 -82t-82.5 -36q-39 0 -62.5 22t-23.5 58q0 50 36.5 86t84.5 36q37 0 59.5 -23.5t22.5 -60.5z" />
<glyph unicode="&#xb8;" horiz-adv-x="448" d="M23 -139l14 53q30 0 59.5 -5.5t63.5 -20t53 -46.5t14 -78q-6 -62 -55.5 -96.5t-110.5 -34.5q-91 0 -157 72l37 45q16 -16 45.5 -30.5t56.5 -14.5q37 0 61 20t27 52t-25 56.5t-83 27.5z" />
<glyph unicode="&#xb9;" horiz-adv-x="475" d="M262 516h-127l139 795l-161 -47l-11 53l326 143z" />
<glyph unicode="&#xba;" horiz-adv-x="757" d="M752 1130q-23 -138 -127 -224.5t-244 -86.5q-144 0 -215.5 87t-46.5 227q23 136 129.5 223.5t243.5 87.5q131 0 208 -87t52 -227zM631 1133q18 102 -21.5 171.5t-132.5 69.5q-94 0 -156.5 -69t-80.5 -172q-18 -100 21 -171t132 -71q89 0 153.5 69.5t84.5 172.5z" />
<glyph unicode="&#xbb;" horiz-adv-x="825" d="M666 498q-21 -117 -118.5 -205t-203.5 -125l-18 55q70 25 134 98t83 177q18 98 -16 175.5t-103 104.5l35 56q105 -39 167 -127.5t40 -208.5zM356 498q-11 -61 -46 -117.5t-82 -97.5t-96 -70t-97 -45l-19 55q70 25 134 98t83 177q18 98 -15.5 175.5t-102.5 104.5l35 56 q104 -39 166 -127.5t40 -208.5z" />
<glyph unicode="&#xbc;" horiz-adv-x="1652" d="M221 -35h-131l1260 1516h131zM293 516h-127l139 795l-162 -47l-10 53l326 143zM1528 231h-166l-41 -231h-129l41 231h-488l750 746l-119 -664h166zM1247 313l68 377l-375 -377h307z" />
<glyph unicode="&#xbd;" horiz-adv-x="1775" d="M223 -35h-131l1260 1516h131zM293 516h-127l139 795l-162 -47l-10 53l326 143zM1614 0h-670l494 444q127 110 147 230q13 72 -37 123t-129 51q-68 0 -132 -41t-105 -121l-70 27q42 96 135 160.5t211 64.5q134 0 207 -75.5t53 -190.5q-16 -86 -66 -153.5t-132 -139.5 l-336 -289h446z" />
<glyph unicode="&#xbe;" horiz-adv-x="1835" d="M406 -35h-132l1260 1516h131zM1710 231h-166l-41 -231h-129l41 231h-487l749 746l-118 -664h165zM1430 313l67 377l-375 -377h308zM645 778q-22 -120 -124 -199t-236 -79q-105 0 -171 51t-89 133l69 37q19 -61 68.5 -98t118.5 -37q92 0 153.5 55t75.5 137q14 83 -28 135 t-128 52h-41l15 82q208 0 237 161q11 64 -28.5 109t-110.5 45q-57 0 -113.5 -32t-93.5 -91l-61 31q109 176 299 176q128 0 191.5 -70t45.5 -168q-12 -68 -59 -120.5t-125 -79.5q74 -30 111 -91.5t24 -138.5z" />
<glyph unicode="&#xbf;" horiz-adv-x="804" d="M311 -410q80 0 142 30.5t122 84.5l43 -51q-148 -152 -342 -152q-184 0 -268.5 88.5t-58.5 229.5q12 73 48 132.5t83.5 98.5t102.5 72t109.5 61t100.5 57t78.5 68.5t40.5 87.5q11 59 -9 95.5t-65 62.5l43 57q73 -31 105 -83.5t18 -137.5q-10 -59 -40.5 -108t-71.5 -84 t-89 -67t-95.5 -63t-88.5 -64.5t-70.5 -79.5t-39.5 -101q-18 -106 39 -170t163 -64zM426 874q7 40 41 68.5t72 28.5q41 0 63 -28.5t14 -68.5q-6 -40 -38.5 -68t-73.5 -28q-38 0 -61 28t-17 68z" />
<glyph unicode="&#xc0;" horiz-adv-x="1308" d="M786 1481l371 -1481h-172l-104 424h-619l-252 -424h-119zM705 1167l-379 -641h528zM834 1552h-70l-123 62q-61 28 -61 74q0 27 20.5 48t50.5 21q17 0 32.5 -10t25.5 -22.5t32 -41.5z" />
<glyph unicode="&#xc1;" horiz-adv-x="1308" d="M786 1481l371 -1481h-172l-104 424h-619l-252 -424h-119zM705 1167l-379 -641h528zM780 1550h-69l92 131q22 29 32 41.5t25.5 22.5t32.5 10q30 0 51 -21t21 -48q0 -45 -62 -74z" />
<glyph unicode="&#xc2;" horiz-adv-x="1308" d="M786 1481l371 -1481h-172l-104 424h-619l-252 -424h-119zM705 1167l-379 -641h528zM600 1550h-68l132 121q45 42 69 58t49 16q23 0 46 -17.5t59 -56.5l108 -121h-69l-154 88z" />
<glyph unicode="&#xc3;" horiz-adv-x="1308" d="M786 1481l371 -1481h-172l-104 424h-619l-252 -424h-119zM705 1167l-379 -641h528zM981 1706h61q-8 -77 -47.5 -120.5t-103.5 -43.5q-45 0 -116 39t-113 39q-27 0 -46.5 -19t-23.5 -51h-64q5 63 47 113.5t107 50.5q44 0 116 -38t115 -38q26 0 45 17.5t23 50.5z" />
<glyph unicode="&#xc4;" horiz-adv-x="1308" d="M786 1481l371 -1481h-172l-104 424h-619l-252 -424h-119zM705 1167l-379 -641h528zM539 1638q5 34 30.5 57t59.5 23q33 0 53 -23.5t16 -56.5q-3 -32 -29 -54.5t-59 -22.5q-34 0 -54 22.5t-17 54.5zM854 1638q4 34 30 57t58 23q35 0 56 -23t16 -57q-3 -32 -29 -54.5 t-61 -22.5q-32 0 -52.5 22.5t-17.5 54.5z" />
<glyph unicode="&#xc5;" horiz-adv-x="1308" d="M786 1481l371 -1481h-172l-104 424h-619l-252 -424h-119zM705 1167l-379 -641h528zM641 1622q0 69 49.5 120.5t124.5 51.5q61 0 101 -38t40 -99q0 -76 -51 -124t-121 -48q-61 0 -102 37.5t-41 99.5zM809 1726q-38 0 -67 -26.5t-29 -69.5q0 -36 21.5 -56t56.5 -20 q41 0 67.5 26t26.5 71q0 34 -21.5 54.5t-54.5 20.5z" />
<glyph unicode="&#xc6;" horiz-adv-x="1802" d="M1640 0h-725l39 453h-579l-371 -453h-127l1165 1434h723l-8 -101h-557l-47 -516h539l-6 -100h-539l-57 -617h559zM451 547h512l63 708z" />
<glyph unicode="&#xc7;" horiz-adv-x="1431" d="M1212 238l41 -62q-80 -61 -151.5 -101.5t-178.5 -71t-223 -30.5q-284 0 -456 165t-172 431q0 180 76 346.5t199.5 285t286.5 189t331 70.5q85 0 155.5 -14.5t125 -43t92 -57t79.5 -69.5l-61 -64q-151 148 -395 148q-139 0 -269.5 -61t-228 -164.5t-156.5 -250.5t-59 -309 q0 -227 131.5 -365t351.5 -138q262 0 481 166zM629 -139l14 53q30 0 59.5 -5.5t64 -20t53.5 -46.5t14 -78q-6 -62 -55.5 -96.5t-110.5 -34.5q-92 0 -158 72l37 45q16 -16 45.5 -30.5t56.5 -14.5q37 0 61 20t27 52t-25 56.5t-83 27.5z" />
<glyph unicode="&#xc8;" horiz-adv-x="1007" d="M762 0h-725l252 1434h723l-17 -101h-557l-92 -516h539l-17 -100h-538l-111 -617h559zM721 1550h-70l-123 62q-61 28 -61 74q0 27 21 48t51 21q17 0 32.5 -10t25.5 -22.5t32 -41.5z" />
<glyph unicode="&#xc9;" horiz-adv-x="1007" d="M762 0h-725l252 1434h723l-17 -101h-557l-92 -516h539l-17 -100h-538l-111 -617h559zM688 1550h-70l93 131q22 29 32 41.5t25.5 22.5t32.5 10q30 0 50.5 -21t20.5 -48q0 -46 -61 -74z" />
<glyph unicode="&#xca;" horiz-adv-x="1007" d="M762 0h-725l252 1434h723l-17 -101h-557l-92 -516h539l-17 -100h-538l-111 -617h559zM528 1550h-67l131 121q44 41 69 57.5t50 16.5q23 0 45 -17t59 -57l109 -121h-70l-154 88z" />
<glyph unicode="&#xcb;" horiz-adv-x="1007" d="M762 0h-725l252 1434h723l-17 -101h-557l-92 -516h539l-17 -100h-538l-111 -617h559zM455 1638q5 34 30.5 57t59.5 23q33 0 53 -23.5t16 -56.5q-3 -32 -29 -54.5t-59 -22.5q-34 0 -54 22.5t-17 54.5zM770 1638q4 34 30 57t58 23q35 0 56 -23t16 -57q-3 -32 -29 -54.5 t-61 -22.5q-32 0 -52.5 22.5t-17.5 54.5z" />
<glyph unicode="&#xcc;" horiz-adv-x="493" d="M203 0h-166l252 1434h166zM463 1550h-70l-123 62q-61 28 -61 74q0 27 21 48t51 21q17 0 32.5 -10t25.5 -22.5t32 -41.5z" />
<glyph unicode="&#xcd;" horiz-adv-x="493" d="M203 0h-166l252 1434h166zM395 1550h-69l92 131q22 29 32 41.5t25.5 22.5t32.5 10q30 0 51 -21t21 -48q0 -45 -62 -74z" />
<glyph unicode="&#xce;" horiz-adv-x="493" d="M203 0h-166l252 1434h166zM238 1550h-68l131 121q44 41 69 57.5t50 16.5q23 0 45 -17t59 -57l109 -121h-70l-153 88z" />
<glyph unicode="&#xcf;" horiz-adv-x="493" d="M203 0h-166l252 1434h166zM166 1640q5 34 30.5 57t59.5 23q33 0 53.5 -23.5t16.5 -56.5q-3 -32 -29 -54.5t-59 -22.5q-34 0 -54.5 22.5t-17.5 54.5zM481 1640q4 34 30 57t58 23q35 0 56 -23t16 -57q-3 -32 -29 -54.5t-61 -22.5q-32 0 -52.5 22.5t-17.5 54.5z" />
<glyph unicode="&#xd0;" horiz-adv-x="1351" d="M1280 860q0 -116 -31 -226.5t-87.5 -205t-139 -174t-181.5 -135.5t-219 -87.5t-249 -31.5h-334l121 688h-123l16 98h123l115 648h334q158 0 283.5 -43t206 -120.5t123 -181.5t42.5 -229zM670 688h-344l-105 -588h168q148 0 279 55.5t227.5 153.5t152.5 240.5t56 308.5 q0 76 -16.5 144t-54 129.5t-94 105.5t-142 70t-191.5 26h-166l-98 -547h344z" />
<glyph unicode="&#xd1;" horiz-adv-x="1572" d="M35 0l260 1475l924 -1158l196 1117h119l-258 -1467l-926 1159l-198 -1126h-117zM1114 1706h62q-8 -77 -48 -120.5t-104 -43.5q-45 0 -116.5 39t-112.5 39q-27 0 -46.5 -19t-23.5 -51h-63q5 63 46.5 113.5t106.5 50.5q44 0 116.5 -38t115.5 -38q26 0 44.5 17.5t22.5 50.5z " />
<glyph unicode="&#xd2;" horiz-adv-x="1673" d="M74 569q0 174 71 337.5t190.5 285t286 195t347.5 73.5q286 0 458 -167.5t172 -434.5q0 -146 -47 -283t-131.5 -245t-196 -189.5t-245.5 -125.5t-274 -44q-282 0 -456.5 166.5t-174.5 431.5zM950 1360q-148 0 -280 -65t-224 -173.5t-145 -252t-53 -298.5q0 -221 128 -360 t347 -139q141 0 271 62.5t225 168t151.5 251.5t56.5 306q0 225 -128.5 362.5t-348.5 137.5zM1044 1550h-69l-123 62q-61 28 -61 74q0 27 20.5 48t50.5 21q17 0 32.5 -10t25.5 -22.5t32 -41.5z" />
<glyph unicode="&#xd3;" horiz-adv-x="1673" d="M74 569q0 174 71 337.5t190.5 285t286 195t347.5 73.5q286 0 458 -167.5t172 -434.5q0 -146 -47 -283t-131.5 -245t-196 -189.5t-245.5 -125.5t-274 -44q-282 0 -456.5 166.5t-174.5 431.5zM950 1360q-148 0 -280 -65t-224 -173.5t-145 -252t-53 -298.5q0 -221 128 -360 t347 -139q141 0 271 62.5t225 168t151.5 251.5t56.5 306q0 225 -128.5 362.5t-348.5 137.5zM1001 1550h-69l92 131q22 29 32 41.5t25.5 22.5t32.5 10q30 0 51 -21t21 -48q0 -45 -62 -74z" />
<glyph unicode="&#xd4;" horiz-adv-x="1673" d="M74 569q0 174 71 337.5t190.5 285t286 195t347.5 73.5q286 0 458 -167.5t172 -434.5q0 -146 -47 -283t-131.5 -245t-196 -189.5t-245.5 -125.5t-274 -44q-282 0 -456.5 166.5t-174.5 431.5zM950 1360q-148 0 -280 -65t-224 -173.5t-145 -252t-53 -298.5q0 -221 128 -360 t347 -139q141 0 271 62.5t225 168t151.5 251.5t56.5 306q0 225 -128.5 362.5t-348.5 137.5zM838 1550h-68l131 121q44 41 69 57.5t50 16.5q23 0 45 -17t59 -57l109 -121h-70l-153 88z" />
<glyph unicode="&#xd5;" horiz-adv-x="1673" d="M74 569q0 174 71 337.5t190.5 285t286 195t347.5 73.5q286 0 458 -167.5t172 -434.5q0 -146 -47 -283t-131.5 -245t-196 -189.5t-245.5 -125.5t-274 -44q-282 0 -456.5 166.5t-174.5 431.5zM950 1360q-148 0 -280 -65t-224 -173.5t-145 -252t-53 -298.5q0 -221 128 -360 t347 -139q141 0 271 62.5t225 168t151.5 251.5t56.5 306q0 225 -128.5 362.5t-348.5 137.5zM1192 1726h61q-8 -77 -47.5 -120t-103.5 -43q-44 0 -116 38.5t-114 38.5q-27 0 -46 -18.5t-23 -50.5h-64q5 63 47 113.5t107 50.5q44 0 116 -38t115 -38q26 0 45 17.5t23 49.5z" />
<glyph unicode="&#xd6;" horiz-adv-x="1673" d="M74 569q0 174 71 337.5t190.5 285t286 195t347.5 73.5q286 0 458 -167.5t172 -434.5q0 -146 -47 -283t-131.5 -245t-196 -189.5t-245.5 -125.5t-274 -44q-282 0 -456.5 166.5t-174.5 431.5zM950 1360q-148 0 -280 -65t-224 -173.5t-145 -252t-53 -298.5q0 -221 128 -360 t347 -139q141 0 271 62.5t225 168t151.5 251.5t56.5 306q0 225 -128.5 362.5t-348.5 137.5zM760 1638q5 34 30.5 57t59.5 23q33 0 53.5 -23.5t16.5 -56.5q-3 -32 -29.5 -54.5t-59.5 -22.5q-34 0 -54 22.5t-17 54.5zM1075 1638q4 34 30 57t58 23q35 0 56 -23t16 -57 q-3 -32 -29 -54.5t-61 -22.5q-32 0 -52.5 22.5t-17.5 54.5z" />
<glyph unicode="&#xd7;" horiz-adv-x="1071" d="M225 326l-86 82l310 305l-314 313l88 86l312 -311l305 307l86 -82l-310 -309l320 -318l-88 -86l-318 318z" />
<glyph unicode="&#xd8;" horiz-adv-x="1669" d="M1518 1456l-119 -141q96 -80 147 -197.5t51 -259.5q0 -146 -47 -283t-132 -245t-196 -189.5t-245.5 -125.5t-274.5 -44q-198 0 -348 86l-82 -98l-116 16l116 140q-96 80 -148 196.5t-52 257.5q0 170 71 333t190.5 285.5t286 197.5t347.5 75q201 0 352 -88l84 103z M948 1360q-148 0 -280.5 -68t-223.5 -178.5t-144.5 -253t-53.5 -289.5q0 -214 116 -348l875 1051q-122 86 -289 86zM1425 860q0 212 -114 348l-875 -1052q120 -84 285 -84q141 0 271 62.5t225 168t151.5 251.5t56.5 306z" />
<glyph unicode="&#xd9;" horiz-adv-x="1345" d="M1329 1434l-160 -908q-44 -253 -212 -403t-406 -150q-213 0 -333 112.5t-120 311.5q0 54 13 127l159 910h166l-160 -910q-12 -70 -12 -133q0 -147 74 -231t235 -84q100 0 183 38t141 104t96.5 150.5t55.5 182.5l155 883h125zM842 1550h-70l-123 62q-61 28 -61 74 q0 27 20.5 48t50.5 21q24 0 42 -16.5t49 -57.5z" />
<glyph unicode="&#xda;" horiz-adv-x="1345" d="M1329 1434l-160 -908q-44 -253 -212 -403t-406 -150q-213 0 -333 112.5t-120 311.5q0 54 13 127l159 910h166l-160 -910q-12 -70 -12 -133q0 -147 74 -231t235 -84q100 0 183 38t141 104t96.5 150.5t55.5 182.5l155 883h125zM817 1550h-69l92 131q22 29 32 41.5 t25.5 22.5t32.5 10q30 0 50.5 -21t20.5 -48q0 -46 -61 -74z" />
<glyph unicode="&#xdb;" horiz-adv-x="1345" d="M1329 1434l-160 -908q-44 -253 -212 -403t-406 -150q-213 0 -333 112.5t-120 311.5q0 54 13 127l159 910h166l-160 -910q-12 -70 -12 -133q0 -147 74 -231t235 -84q100 0 183 38t141 104t96.5 150.5t55.5 182.5l155 883h125zM666 1550h-68l131 121q44 41 69 57.5t50 16.5 q23 0 45 -17t59 -57l109 -121h-70l-153 88z" />
<glyph unicode="&#xdc;" horiz-adv-x="1345" d="M1329 1434l-160 -908q-44 -253 -212 -403t-406 -150q-213 0 -333 112.5t-120 311.5q0 54 13 127l159 910h166l-160 -910q-12 -70 -12 -133q0 -147 74 -231t235 -84q100 0 183 38t141 104t96.5 150.5t55.5 182.5l155 883h125zM608 1638q5 34 30.5 57t59.5 23 q33 0 53.5 -23.5t16.5 -56.5q-3 -32 -29 -54.5t-59 -22.5q-34 0 -54.5 22.5t-17.5 54.5zM924 1638q4 34 30 57t58 23q35 0 55.5 -23t15.5 -57q-3 -32 -29 -54.5t-61 -22.5q-32 0 -52 22.5t-17 54.5z" />
<glyph unicode="&#xdd;" horiz-adv-x="1112" d="M330 0l112 645l-307 789h172l266 -682l537 682h117l-619 -793l-112 -641h-166zM647 1550h-69l92 131q22 29 32 41.5t25.5 22.5t32.5 10q30 0 50.5 -21t20.5 -48q0 -46 -61 -74z" />
<glyph unicode="&#xde;" horiz-adv-x="1019" d="M203 0h-166l252 1434h166l-56 -314h127q212 0 322 -77t110 -224q0 -215 -148.5 -343t-387.5 -128h-158zM281 446h161q171 0 261 97t90 266q0 101 -63 158t-189 57h-158z" />
<glyph unicode="&#xdf;" horiz-adv-x="1157" d="M631 766q-2 -8 -2 -25q0 -37 22 -66t57.5 -49.5t78.5 -39.5t85.5 -42t78 -50.5t57.5 -71t22 -98.5q0 -159 -111 -254t-298 -95q-56 0 -103 14t-80 39t-53.5 47.5t-40.5 51.5l64 51q29 -46 84.5 -81.5t140.5 -35.5q123 0 190.5 61.5t67.5 151.5q0 40 -22.5 72.5t-59 54.5 t-80.5 42.5t-88 42.5t-80.5 48t-59 65.5t-22.5 88.5q0 67 23.5 117.5t61.5 81t83.5 56t91 50.5t83.5 55.5t61.5 81t23.5 117.5q0 86 -57.5 139.5t-157.5 53.5q-129 0 -207.5 -85.5t-103.5 -228.5l-199 -1126h-151l196 1120q31 177 159.5 295.5t320.5 118.5 q148 0 232.5 -77.5t84.5 -196.5q0 -71 -20 -127.5t-52.5 -93t-72 -65t-80.5 -50.5t-76 -43.5t-60.5 -50.5t-31.5 -64z" />
<glyph unicode="&#xe0;" horiz-adv-x="1034" d="M772 0h-147l24 135q-133 -158 -338 -158q-146 0 -232.5 56.5t-86.5 173.5q0 163 118 259.5t314 96.5h301l12 68q4 20 4 55q0 100 -65.5 152.5t-171.5 52.5q-158 0 -303 -117l-39 55q175 148 373 148q155 0 255.5 -71.5t100.5 -207.5q0 -32 -6 -67zM682 319l29 158h-283 q-130 0 -207.5 -68.5t-77.5 -179.5q0 -80 56 -123t145 -43q132 0 225.5 79t112.5 177zM627 1114h-76l-135 141q-39 39 -39 64q0 29 27 54.5t61 25.5q27 0 43 -19t33 -61z" />
<glyph unicode="&#xe1;" horiz-adv-x="1034" d="M772 0h-147l24 135q-133 -158 -338 -158q-146 0 -232.5 56.5t-86.5 173.5q0 163 118 259.5t314 96.5h301l12 68q4 20 4 55q0 100 -65.5 152.5t-171.5 52.5q-158 0 -303 -117l-39 55q175 148 373 148q155 0 255.5 -71.5t100.5 -207.5q0 -32 -6 -67zM682 319l29 158h-283 q-130 0 -207.5 -68.5t-77.5 -179.5q0 -80 56 -123t145 -43q132 0 225.5 79t112.5 177zM565 1114h-76l162 201q25 28 39 43t35 28t39 13q29 0 45 -19t14 -45q-2 -16 -14.5 -32.5t-19.5 -22.5t-35 -27z" />
<glyph unicode="&#xe2;" horiz-adv-x="1034" d="M772 0h-147l24 135q-133 -158 -338 -158q-146 0 -232.5 56.5t-86.5 173.5q0 163 118 259.5t314 96.5h301l12 68q4 20 4 55q0 100 -65.5 152.5t-171.5 52.5q-158 0 -303 -117l-39 55q175 148 373 148q155 0 255.5 -71.5t100.5 -207.5q0 -32 -6 -67zM682 319l29 158h-283 q-130 0 -207.5 -68.5t-77.5 -179.5q0 -80 56 -123t145 -43q132 0 225.5 79t112.5 177zM371 1112h-72l190 195q72 75 107 75q21 0 39.5 -14.5t54.5 -60.5l150 -195h-72l-186 145z" />
<glyph unicode="&#xe3;" horiz-adv-x="1034" d="M772 0h-147l24 135q-133 -158 -338 -158q-146 0 -232.5 56.5t-86.5 173.5q0 163 118 259.5t314 96.5h301l12 68q4 20 4 55q0 100 -65.5 152.5t-171.5 52.5q-158 0 -303 -117l-39 55q175 148 373 148q155 0 255.5 -71.5t100.5 -207.5q0 -32 -6 -67zM682 319l29 158h-283 q-130 0 -207.5 -68.5t-77.5 -179.5q0 -80 56 -123t145 -43q132 0 225.5 79t112.5 177zM881 1307q-21 -102 -68 -147.5t-121 -45.5q-42 0 -77 15.5t-54.5 33.5t-46.5 33.5t-55 15.5q-72 0 -92 -98h-64q38 193 189 193q42 0 77 -15.5t54 -34t45 -34t53 -15.5q37 0 61 21.5 t35 77.5h64z" />
<glyph unicode="&#xe4;" horiz-adv-x="1034" d="M772 0h-147l24 135q-133 -158 -338 -158q-146 0 -232.5 56.5t-86.5 173.5q0 163 118 259.5t314 96.5h301l12 68q4 20 4 55q0 100 -65.5 152.5t-171.5 52.5q-158 0 -303 -117l-39 55q175 148 373 148q155 0 255.5 -71.5t100.5 -207.5q0 -32 -6 -67zM682 319l29 158h-283 q-130 0 -207.5 -68.5t-77.5 -179.5q0 -80 56 -123t145 -43q132 0 225.5 79t112.5 177zM342 1235q3 35 32 61.5t66 26.5q38 0 60.5 -26t19.5 -62q-4 -38 -33.5 -64t-66.5 -26t-59.5 26t-18.5 64zM659 1235q3 35 32.5 61.5t66.5 26.5q38 0 60.5 -26t19.5 -62q-4 -38 -34 -64 t-67 -26t-59.5 26t-18.5 64z" />
<glyph unicode="&#xe5;" horiz-adv-x="1034" d="M772 0h-147l24 135q-133 -158 -338 -158q-146 0 -232.5 56.5t-86.5 173.5q0 163 118 259.5t314 96.5h301l12 68q4 20 4 55q0 100 -65.5 152.5t-171.5 52.5q-158 0 -303 -117l-39 55q175 148 373 148q155 0 255.5 -71.5t100.5 -207.5q0 -32 -6 -67zM682 319l29 158h-283 q-130 0 -207.5 -68.5t-77.5 -179.5q0 -80 56 -123t145 -43q132 0 225.5 79t112.5 177zM418 1257q0 78 54.5 133.5t133.5 55.5q67 0 109.5 -40.5t42.5 -105.5q0 -80 -57.5 -133t-129.5 -53q-68 0 -110.5 38.5t-42.5 104.5zM598 1374q-40 0 -70 -28t-30 -80q0 -37 21.5 -58.5 t58.5 -21.5q42 0 73 31t31 75q0 38 -23.5 60t-60.5 22z" />
<glyph unicode="&#xe6;" horiz-adv-x="1800" d="M1647 469h-783q-8 -44 -8 -94q0 -136 71.5 -224t200.5 -88q117 0 204 47t165 134l51 -49q-74 -95 -189.5 -157.5t-258.5 -62.5q-124 0 -214.5 49.5t-135.5 139.5q-189 -189 -445 -189q-143 0 -228 57t-85 175q0 163 118 259.5t314 96.5h301l12 68q4 20 4 55 q0 100 -65 150.5t-172 50.5q-164 0 -303 -113l-39 55q175 148 373 148q123 0 213.5 -46.5t123.5 -137.5q78 85 183.5 132.5t218.5 47.5q173 0 278 -106t105 -287q0 -46 -10 -111zM682 319l29 158h-283q-129 0 -207 -68.5t-78 -181.5q0 -79 57 -121.5t150 -42.5q124 0 219 79 t113 177zM1513 557q3 24 3 49q0 125 -68.5 202t-187.5 77q-131 0 -235.5 -99t-139.5 -229h628z" />
<glyph unicode="&#xe7;" horiz-adv-x="1011" d="M819 141q-181 -164 -389 -164q-190 0 -300 110.5t-110 287.5q0 123 48.5 235t128 191.5t186 126.5t219.5 47q217 0 328 -168l-64 -53q-43 61 -110 97t-152 36q-56 0 -114 -19t-114.5 -61t-100 -100.5t-70.5 -144.5t-27 -187q0 -146 79 -229t206 -83q159 0 311 136z M336 -139l14 53q30 0 59.5 -5.5t64 -20t53.5 -46.5t14 -78q-6 -62 -55.5 -96.5t-110.5 -34.5q-92 0 -158 72l37 45q16 -16 45.5 -30.5t56.5 -14.5q37 0 61 20t27 52t-25 56.5t-83 27.5z" />
<glyph unicode="&#xe8;" horiz-adv-x="1099" d="M967 469h-783q-8 -44 -8 -94q0 -136 72 -224t201 -88q116 0 203 46.5t167 134.5l49 -49q-74 -94 -188.5 -156t-257.5 -62q-185 0 -293.5 106t-108.5 284q0 127 48 241t127.5 193t184 125.5t214.5 46.5q173 0 278 -106t105 -287q0 -46 -10 -111zM836 557q2 14 2 45 q0 128 -68.5 206.5t-189.5 78.5q-131 0 -235.5 -100t-137.5 -230h629zM664 1114h-76l-135 141q-39 39 -39 64q0 29 27 54.5t61 25.5q27 0 43 -19t33 -61z" />
<glyph unicode="&#xe9;" horiz-adv-x="1099" d="M967 469h-783q-8 -44 -8 -94q0 -136 72 -224t201 -88q116 0 203 46.5t167 134.5l49 -49q-74 -94 -188.5 -156t-257.5 -62q-185 0 -293.5 106t-108.5 284q0 127 48 241t127.5 193t184 125.5t214.5 46.5q173 0 278 -106t105 -287q0 -46 -10 -111zM836 557q2 14 2 45 q0 128 -68.5 206.5t-189.5 78.5q-131 0 -235.5 -100t-137.5 -230h629zM610 1114h-75l161 201q25 28 39 43t35 28t39 13q29 0 45 -19t14 -45q-2 -16 -14.5 -32.5t-19.5 -22.5t-35 -27z" />
<glyph unicode="&#xea;" horiz-adv-x="1099" d="M967 469h-783q-8 -44 -8 -94q0 -136 72 -224t201 -88q116 0 203 46.5t167 134.5l49 -49q-74 -94 -188.5 -156t-257.5 -62q-185 0 -293.5 106t-108.5 284q0 127 48 241t127.5 193t184 125.5t214.5 46.5q173 0 278 -106t105 -287q0 -46 -10 -111zM836 557q2 14 2 45 q0 128 -68.5 206.5t-189.5 78.5q-131 0 -235.5 -100t-137.5 -230h629zM420 1112h-72l191 195q72 75 106 75q21 0 39.5 -14.5t54.5 -60.5l150 -195h-72l-186 145z" />
<glyph unicode="&#xeb;" horiz-adv-x="1099" d="M967 469h-783q-8 -44 -8 -94q0 -136 72 -224t201 -88q116 0 203 46.5t167 134.5l49 -49q-74 -94 -188.5 -156t-257.5 -62q-185 0 -293.5 106t-108.5 284q0 127 48 241t127.5 193t184 125.5t214.5 46.5q173 0 278 -106t105 -287q0 -46 -10 -111zM836 557q2 14 2 45 q0 128 -68.5 206.5t-189.5 78.5q-131 0 -235.5 -100t-137.5 -230h629zM387 1235q3 35 32 61.5t66 26.5q38 0 60.5 -26t19.5 -62q-4 -38 -33.5 -64t-66.5 -26t-59.5 26t-18.5 64zM705 1235q3 35 32 61.5t66 26.5q38 0 60.5 -26t19.5 -62q-4 -38 -34 -64t-67 -26t-59 26 t-18 64z" />
<glyph unicode="&#xec;" horiz-adv-x="430" d="M338 1092h-76l-135 141q-39 39 -39 63q0 29 27 54.5t61 25.5q27 0 43 -19t33 -61zM154 -20h-152l166 948h151z" />
<glyph unicode="&#xed;" horiz-adv-x="430" d="M305 1112h-76l162 201q25 28 39 43t35 28t39 13q29 0 45 -19t14 -45q-2 -16 -14.5 -32.5t-19.5 -22.5t-35 -27zM158 0h-152l166 948h152z" />
<glyph unicode="&#xee;" horiz-adv-x="430" d="M158 0h-152l166 948h152zM104 1114h-71l190 195q72 75 107 75q21 0 39.5 -14.5t54.5 -60.5l149 -195h-71l-187 146z" />
<glyph unicode="&#xef;" horiz-adv-x="430" d="M66 1235q3 35 32 61.5t66 26.5q38 0 60.5 -26t19.5 -62q-4 -38 -34 -64t-67 -26t-59 26t-18 64zM383 1235q3 35 32 61.5t66 26.5q38 0 60.5 -26t19.5 -62q-4 -38 -33.5 -64t-66.5 -26t-59.5 26t-18.5 64zM158 0h-152l166 948h152z" />
<glyph unicode="&#xf0;" horiz-adv-x="1124" d="M1004 487q-40 -224 -201 -367t-383 -143q-195 0 -307.5 107.5t-112.5 288.5q0 126 49 238.5t131 191t191 124.5t227 46q167 0 256 -113q-29 150 -87 256.5t-146 196.5l-312 -162l-24 68l282 145q-83 73 -227 162l51 67q156 -76 279 -176l315 162l25 -68l-283 -145 q295 -295 295 -688q0 -81 -16 -182zM844 477q8 44 8 98q0 137 -70.5 222.5t-201.5 85.5q-120 0 -217.5 -71t-150 -186.5t-52.5 -248.5q0 -137 71 -223t205 -86q152 0 264 117t144 292z" />
<glyph unicode="&#xf1;" horiz-adv-x="1067" d="M807 0h-152l111 629q6 38 6 69q0 91 -48.5 135t-133.5 44q-120 0 -215 -85t-115 -194l-104 -598h-152l166 948h152l-25 -137q58 73 150.5 118.5t187.5 45.5q145 0 217 -73t72 -193q0 -23 -9 -84zM897 1307q-21 -102 -67.5 -147.5t-120.5 -45.5q-42 0 -77 15.5t-54.5 33.5 t-47 33.5t-55.5 15.5q-72 0 -92 -98h-64q38 193 189 193q42 0 77 -15.5t54 -34t45 -34t53 -15.5q37 0 61.5 21.5t35.5 77.5h63z" />
<glyph unicode="&#xf2;" horiz-adv-x="1153" d="M1030 573q0 -118 -45.5 -227.5t-123 -190.5t-188 -129.5t-233.5 -48.5q-195 0 -307.5 107t-112.5 287q0 127 49 239.5t130 191.5t190 125t227 46q179 0 296.5 -109t117.5 -291zM455 68q121 0 218.5 77t148 192t50.5 238q0 137 -70.5 222.5t-201.5 85.5 q-120 0 -217.5 -71.5t-150 -187.5t-52.5 -249q0 -136 70.5 -221.5t204.5 -85.5zM684 1114h-76l-135 141q-39 39 -39 64q0 29 27 54.5t61 25.5q27 0 43 -19t33 -61z" />
<glyph unicode="&#xf3;" horiz-adv-x="1153" d="M1030 573q0 -118 -45.5 -227.5t-123 -190.5t-188 -129.5t-233.5 -48.5q-195 0 -307.5 107t-112.5 287q0 127 49 239.5t130 191.5t190 125t227 46q179 0 296.5 -109t117.5 -291zM455 68q121 0 218.5 77t148 192t50.5 238q0 137 -70.5 222.5t-201.5 85.5 q-120 0 -217.5 -71.5t-150 -187.5t-52.5 -249q0 -136 70.5 -221.5t204.5 -85.5zM631 1114h-76l162 201q25 29 39 43t34.5 27.5t38.5 13.5q29 0 45.5 -19t14.5 -45q-1 -6 -3 -12.5t-4.5 -11t-7.5 -10.5t-8 -9.5t-11 -10t-11 -9t-12.5 -10t-12.5 -9.5z" />
<glyph unicode="&#xf4;" horiz-adv-x="1153" d="M1030 573q0 -118 -45.5 -227.5t-123 -190.5t-188 -129.5t-233.5 -48.5q-195 0 -307.5 107t-112.5 287q0 127 49 239.5t130 191.5t190 125t227 46q179 0 296.5 -109t117.5 -291zM455 68q121 0 218.5 77t148 192t50.5 238q0 137 -70.5 222.5t-201.5 85.5 q-120 0 -217.5 -71.5t-150 -187.5t-52.5 -249q0 -136 70.5 -221.5t204.5 -85.5zM426 1112h-72l191 195q72 75 106 75q21 0 39.5 -14.5t54.5 -60.5l150 -195h-72l-186 145z" />
<glyph unicode="&#xf5;" horiz-adv-x="1153" d="M1030 573q0 -118 -45.5 -227.5t-123 -190.5t-188 -129.5t-233.5 -48.5q-195 0 -307.5 107t-112.5 287q0 127 49 239.5t130 191.5t190 125t227 46q179 0 296.5 -109t117.5 -291zM455 68q121 0 218.5 77t148 192t50.5 238q0 137 -70.5 222.5t-201.5 85.5 q-120 0 -217.5 -71.5t-150 -187.5t-52.5 -249q0 -136 70.5 -221.5t204.5 -85.5zM940 1307q-21 -102 -67.5 -147.5t-120.5 -45.5q-42 0 -77 15.5t-54.5 33.5t-47 33.5t-55.5 15.5q-72 0 -92 -98h-64q38 193 189 193q42 0 77 -15.5t54 -34t45 -34t53 -15.5q37 0 61.5 21.5 t35.5 77.5h63z" />
<glyph unicode="&#xf6;" horiz-adv-x="1153" d="M1030 573q0 -118 -45.5 -227.5t-123 -190.5t-188 -129.5t-233.5 -48.5q-195 0 -307.5 107t-112.5 287q0 127 49 239.5t130 191.5t190 125t227 46q179 0 296.5 -109t117.5 -291zM455 68q121 0 218.5 77t148 192t50.5 238q0 137 -70.5 222.5t-201.5 85.5 q-120 0 -217.5 -71.5t-150 -187.5t-52.5 -249q0 -136 70.5 -221.5t204.5 -85.5zM395 1235q3 35 32.5 61.5t66.5 26.5t59.5 -26t19.5 -62q-4 -38 -33.5 -64t-66.5 -26t-59.5 26t-18.5 64zM713 1235q3 35 32 61.5t66 26.5q38 0 60.5 -26t19.5 -62q-4 -38 -33.5 -64t-66.5 -26 t-59.5 26t-18.5 64z" />
<glyph unicode="&#xf7;" d="M676 1044q0 -43 -28.5 -71.5t-69.5 -28.5q-43 0 -72 28.5t-29 71.5t29 73t72 30q41 0 69.5 -30t28.5 -73zM676 391q0 -43 -28.5 -71.5t-69.5 -28.5q-44 0 -72.5 28.5t-28.5 71.5t29 73t72 30q41 0 69.5 -30t28.5 -73zM96 655v119h961v-119h-961z" />
<glyph unicode="&#xf8;" horiz-adv-x="1153" d="M1001 1008l-104 -129q133 -114 133 -306q0 -154 -72 -289t-209 -221t-309 -86q-123 0 -225 50q-99 -124 -106 -136l-52 37l105 131q-142 105 -142 312q0 127 49 239.5t130 191.5t190 125t227 46q131 0 228 -60l104 131zM180 375q0 -131 64 -213l530 663q-71 58 -174 58 q-120 0 -217.5 -71.5t-150 -187.5t-52.5 -249zM455 68q121 0 218.5 77t148 192t50.5 238q0 124 -55 203l-528 -661q65 -49 166 -49z" />
<glyph unicode="&#xf9;" horiz-adv-x="1083" d="M170 948h152l-111 -629q-6 -40 -6 -71q0 -93 48 -137.5t130 -44.5q121 0 217.5 87t116.5 195l104 600h152l-166 -948h-152l25 137q-59 -73 -151.5 -118.5t-186.5 -45.5q-145 0 -217 73.5t-72 193.5q0 45 8 84zM637 1114h-76l-135 141q-39 39 -39 64q0 29 27 54.5t61 25.5 q27 0 43 -19t33 -61z" />
<glyph unicode="&#xfa;" horiz-adv-x="1083" d="M170 948h152l-111 -629q-6 -40 -6 -71q0 -93 48 -137.5t130 -44.5q121 0 217.5 87t116.5 195l104 600h152l-166 -948h-152l25 137q-59 -73 -151.5 -118.5t-186.5 -45.5q-145 0 -217 73.5t-72 193.5q0 45 8 84zM602 1114h-76l162 201q25 28 39 43t35 28t39 13q29 0 45 -19 t14 -45q-2 -16 -14.5 -32.5t-19.5 -22.5t-35 -27z" />
<glyph unicode="&#xfb;" horiz-adv-x="1083" d="M170 948h152l-111 -629q-6 -40 -6 -71q0 -93 48 -137.5t130 -44.5q121 0 217.5 87t116.5 195l104 600h152l-166 -948h-152l25 137q-59 -73 -151.5 -118.5t-186.5 -45.5q-145 0 -217 73.5t-72 193.5q0 45 8 84zM393 1112h-71l190 195q72 75 106 75q21 0 40 -14.5t55 -60.5 l149 -195h-71l-187 145z" />
<glyph unicode="&#xfc;" horiz-adv-x="1083" d="M170 948h152l-111 -629q-6 -40 -6 -71q0 -93 48 -137.5t130 -44.5q121 0 217.5 87t116.5 195l104 600h152l-166 -948h-152l25 137q-59 -73 -151.5 -118.5t-186.5 -45.5q-145 0 -217 73.5t-72 193.5q0 45 8 84zM369 1235q3 35 32 61.5t66 26.5q38 0 60.5 -26t19.5 -62 q-4 -38 -34 -64t-67 -26t-59 26t-18 64zM686 1235q3 35 32 61.5t66 26.5q38 0 60.5 -26t19.5 -62q-4 -38 -33.5 -64t-66.5 -26t-59.5 26t-18.5 64z" />
<glyph unicode="&#xfd;" horiz-adv-x="1026" d="M1026 948l-889 -1411h-117l302 483l-259 928h162l203 -770l487 770h111zM557 1114h-76l162 201q25 28 39 43t35 28t39 13q29 0 45 -19t14 -45q-1 -6 -3 -12.5t-4.5 -11t-7.5 -10.5t-8 -9.5t-11 -10t-11 -9t-12.5 -10t-12.5 -9.5z" />
<glyph unicode="&#xfe;" horiz-adv-x="1196" d="M1094 575q0 -110 -39 -216.5t-108.5 -191.5t-177 -137.5t-234.5 -52.5q-237 0 -310 185l-110 -625h-150l348 1987h152l-129 -738q142 187 383 187q170 0 272.5 -109.5t102.5 -288.5zM530 63q76 0 142.5 31.5t114.5 84t82.5 120t51.5 142t17 147.5q0 137 -66.5 218 t-197.5 81q-120 0 -213.5 -69t-144 -187.5t-50.5 -265.5q0 -141 67.5 -221.5t196.5 -80.5z" />
<glyph unicode="&#xff;" horiz-adv-x="1026" d="M1026 948l-889 -1411h-117l302 483l-259 928h162l203 -770l487 770h111zM317 1235q3 35 32.5 61.5t66.5 26.5q38 0 60.5 -26t19.5 -62q-4 -38 -34 -64t-67 -26t-59.5 26t-18.5 64zM635 1235q3 35 32 61.5t66 26.5q38 0 60.5 -26t19.5 -62q-4 -38 -33.5 -64t-66.5 -26 t-59.5 26t-18.5 64z" />
<glyph unicode="&#x152;" horiz-adv-x="1880" d="M1634 0h-645q-39 0 -142.5 -14.5t-148.5 -14.5q-282 0 -456 166.5t-174 431.5q0 188 76 356t200 284t286.5 183.5t332.5 67.5q46 0 145.5 -13t132.5 -13h641l-16 -101h-557l-92 -516h540l-16 -100h-541l-108 -617h561zM717 72q116 0 209 37l215 1214q-85 37 -197 37 q-99 0 -199 -34t-190 -101.5t-160 -160.5t-111.5 -221t-41.5 -272q0 -221 128 -360t347 -139z" />
<glyph unicode="&#x153;" horiz-adv-x="1933" d="M1800 469h-782q-8 -41 -8 -88q0 -137 71.5 -227.5t198.5 -90.5q116 0 204 46.5t169 134.5l47 -49q-72 -94 -187 -156t-260 -62q-134 0 -227 58.5t-135 165.5q-80 -105 -198 -164.5t-253 -59.5q-195 0 -307.5 107t-112.5 287q0 127 49 239.5t130 191.5t190 125t227 46 q129 0 228.5 -60t144.5 -168q80 106 195.5 167t240.5 61q174 0 279.5 -106t105.5 -287q0 -46 -10 -111zM455 68q121 0 218.5 76.5t148 191.5t50.5 239q0 138 -70.5 223t-201.5 85q-120 0 -217.5 -71.5t-150 -187.5t-52.5 -249q0 -136 70.5 -221.5t204.5 -85.5zM1667 557 q2 14 2 45q0 128 -68.5 206.5t-189.5 78.5q-130 0 -235 -100t-138 -230h629z" />
<glyph unicode="&#x178;" horiz-adv-x="1112" d="M330 0l112 645l-307 789h172l266 -682l537 682h117l-619 -793l-112 -641h-166zM455 1618q5 34 30.5 57t59.5 23q33 0 53 -23.5t16 -56.5q-3 -32 -29 -55t-59 -23t-53.5 22.5t-17.5 55.5zM770 1618q4 34 30 57t58 23q35 0 56 -23t16 -57q-3 -32 -29 -55t-61 -23 q-32 0 -52.5 23t-17.5 55z" />
<glyph unicode="&#x2c6;" horiz-adv-x="663" d="M184 1079h-71l190 195q73 76 107 76q21 0 39.5 -15t54.5 -61l149 -195h-71l-187 146z" />
<glyph unicode="&#x2dc;" horiz-adv-x="681" d="M700 1284q-21 -102 -67.5 -147t-120.5 -45q-42 0 -77 15.5t-54.5 33.5t-46.5 33.5t-55 15.5q-73 0 -93 -98h-63q38 192 188 192q42 0 77 -15.5t54.5 -33.5t45.5 -33.5t53 -15.5q37 0 61 21t35 77h63z" />
<glyph unicode="&#x2000;" horiz-adv-x="897" />
<glyph unicode="&#x2001;" horiz-adv-x="1794" />
<glyph unicode="&#x2002;" horiz-adv-x="897" />
<glyph unicode="&#x2003;" horiz-adv-x="1794" />
<glyph unicode="&#x2004;" horiz-adv-x="598" />
<glyph unicode="&#x2005;" horiz-adv-x="448" />
<glyph unicode="&#x2006;" horiz-adv-x="299" />
<glyph unicode="&#x2007;" horiz-adv-x="299" />
<glyph unicode="&#x2008;" horiz-adv-x="224" />
<glyph unicode="&#x2009;" horiz-adv-x="358" />
<glyph unicode="&#x200a;" horiz-adv-x="99" />
<glyph unicode="&#x2010;" horiz-adv-x="647" d="M475 422h-412l23 129h412z" />
<glyph unicode="&#x2011;" horiz-adv-x="647" d="M475 422h-412l23 129h412z" />
<glyph unicode="&#x2012;" horiz-adv-x="647" d="M475 422h-412l23 129h412z" />
<glyph unicode="&#x2013;" horiz-adv-x="1058" d="M961 469h-949l15 131h948z" />
<glyph unicode="&#x2014;" horiz-adv-x="2115" d="M2030 469h-2018l15 131h2017z" />
<glyph unicode="&#x2018;" horiz-adv-x="452" d="M135 1049q5 58 80 159l188 256l41 -18l-118 -332q-25 -70 -54 -105.5t-69 -35.5q-36 0 -53.5 21.5t-14.5 54.5z" />
<glyph unicode="&#x2019;" horiz-adv-x="391" d="M438 1389q-5 -59 -82 -162l-186 -254l-41 16l117 332q50 143 125 143q35 0 52.5 -21.5t14.5 -53.5z" />
<glyph unicode="&#x201a;" horiz-adv-x="452" d="M254 141q-6 -60 -82 -159l-186 -256l-41 18l116 332q50 141 125 141q35 0 53 -22t15 -54z" />
<glyph unicode="&#x201c;" horiz-adv-x="772" d="M135 1049q5 58 80 159l188 256l41 -18l-118 -332q-25 -70 -54 -105.5t-69 -35.5q-36 0 -53.5 21.5t-14.5 54.5zM455 1049q6 60 82 159l186 256l41 -18l-117 -332q-50 -141 -125 -141q-35 0 -52.5 22t-14.5 54z" />
<glyph unicode="&#x201d;" horiz-adv-x="772" d="M758 1389q-5 -56 -80 -162l-189 -254l-40 16l118 332q50 143 123 143q37 0 54 -21t14 -54zM438 1389q-5 -59 -82 -162l-186 -254l-41 16l117 332q50 143 125 143q35 0 52.5 -21.5t14.5 -53.5z" />
<glyph unicode="&#x201e;" horiz-adv-x="772" d="M573 145q-5 -57 -79 -161l-189 -254l-41 16l119 332q50 143 123 143q36 0 53 -21.5t14 -54.5zM254 145q-5 -58 -82 -161l-186 -254l-41 16l116 332q50 143 125 143q35 0 53 -22t15 -54z" />
<glyph unicode="&#x2022;" horiz-adv-x="464" d="M348 719q-6 -48 -43 -82.5t-82 -34.5q-49 0 -80.5 35t-25.5 82q5 46 42.5 80.5t86.5 34.5q46 0 76.5 -34.5t25.5 -80.5z" />
<glyph unicode="&#x2026;" horiz-adv-x="1271" d="M1034 84q-3 -42 -34.5 -71t-73.5 -29t-67.5 28.5t-22.5 71.5q5 43 37 72.5t75 29.5q41 0 66 -29.5t20 -72.5zM610 84q-3 -42 -34.5 -71t-73.5 -29t-67.5 28.5t-22.5 71.5q5 43 37 72.5t75 29.5q41 0 66 -29.5t20 -72.5zM186 84q-3 -42 -34.5 -71t-73.5 -29 q-44 0 -68.5 28.5t-21.5 71.5q5 43 37 72.5t75 29.5q41 0 66 -29.5t20 -72.5z" />
<glyph unicode="&#x202f;" horiz-adv-x="358" />
<glyph unicode="&#x2039;" horiz-adv-x="516" d="M276 223l-34 -55q-43 16 -83.5 45t-77 70t-56 97.5t-13.5 117.5q13 120 99.5 208.5t201.5 127.5l21 -56q-76 -27 -132.5 -104.5t-66.5 -175.5q-10 -104 34 -177t107 -98z" />
<glyph unicode="&#x203a;" horiz-adv-x="516" d="M377 498q-6 -61 -36.5 -117.5t-75 -97.5t-92 -70t-95.5 -45l-23 55q70 25 129.5 98t69.5 177q10 99 -28.5 176t-108.5 104l30 56q106 -39 174.5 -127.5t55.5 -208.5z" />
<glyph unicode="&#x205f;" horiz-adv-x="448" />
<glyph unicode="&#x20ac;" horiz-adv-x="1540" d="M1120 565h-760q0 -221 130.5 -357t347.5 -136q253 0 481 170l43 -68q-124 -94 -254.5 -148.5t-300.5 -54.5q-281 0 -452.5 165t-174.5 429h-162l45 90h121q1 9 4.5 29t4.5 29q3 13 8 40t8 40h-152l47 88h138q100 254 331.5 416.5t497.5 162.5q85 0 155.5 -14.5t125.5 -43 t93 -57t81 -69.5l-68 -68q-155 152 -391 152q-214 0 -390 -132t-259 -347h868l-49 -88h-852q-3 -12 -8 -38t-8 -40q-1 -9 -4.5 -32.5t-4.5 -27.5h805z" />
<glyph unicode="&#x2122;" horiz-adv-x="1294" d="M51 1356v78h432v-78h-164v-529h-104v529h-164zM1098 1446l125 -619h-111l-68 351l-188 -367l-194 371l-70 -355h-80l123 621l231 -444z" />
<glyph unicode="&#x25fc;" horiz-adv-x="952" d="M0 952h952v-952h-952v952z" />
</font>
</defs>
</svg>
