<?xml version="1.0" standalone="no"?>
<!DOCTYPE svg PUBLIC "-//W3C//DTD SVG 1.1//EN" "http://www.w3.org/Graphics/SVG/1.1/DTD/svg11.dtd" >
<svg xmlns="http://www.w3.org/2000/svg">
<metadata></metadata>
<defs>
<font id="carisma_classicdemibold" horiz-adv-x="1198" >
<font-face units-per-em="2048" ascent="1638" descent="-410" />
<missing-glyph horiz-adv-x="614" />
<glyph unicode="&#xfb01;" horiz-adv-x="1202" d="M1081 0h-258v829h-389v-829h-258v829h-156v142h156v184q0 174 100 271.5t254 97.5q113 0 236 -72l-59 -109q-66 41 -140 41q-133 0 -133 -219v-194h647v-971zM1106 1298q0 -62 -42 -103.5t-106 -41.5q-65 0 -105 41t-40 104q0 62 41.5 105t103.5 43q63 0 105.5 -42.5 t42.5 -105.5z" />
<glyph unicode="&#xfb02;" horiz-adv-x="1177" d="M766 1452l-59 -109q-66 41 -140 41q-133 0 -133 -219v-194h232v-142h-232v-829h-258v829h-156v142h156v184q0 174 100.5 271.5t253.5 97.5q113 0 236 -72zM1073 0h-258v1524h258v-1524z" />
<glyph unicode="&#xfb03;" horiz-adv-x="1912" d="M1794 0h-258v829h-391v-829h-258v829h-453v-829h-258v829h-156v142h156v184q0 174 100 271.5t254 97.5q113 0 236 -72l-59 -109q-66 41 -140 41q-133 0 -133 -219v-194h453v184q0 174 100 271.5t254 97.5q49 0 94.5 -11.5t74 -24.5t69.5 -36l-62 -109q-66 41 -137 41 q-135 0 -135 -219v-194h649v-971zM1817 1298q0 -62 -42 -103.5t-106 -41.5q-65 0 -105 41t-40 104q0 62 41.5 105t103.5 43q63 0 105.5 -42.5t42.5 -105.5z" />
<glyph unicode="&#xfb04;" horiz-adv-x="1890" d="M1417 1343q-66 41 -137 41q-135 0 -135 -219v-194h231v-142h-231v-829h-258v829h-453v-829h-258v829h-156v142h156v184q0 174 100 271.5t254 97.5q113 0 236 -72l-59 -109q-66 41 -140 41q-133 0 -133 -219v-194h453v184q0 173 102 271t252 98q49 0 94.5 -11.5t74 -24.5 t69.5 -36zM1784 0h-258v1524h258v-1524z" />
<glyph horiz-adv-x="0" />
<glyph horiz-adv-x="682" />
<glyph unicode=" "  horiz-adv-x="614" />
<glyph unicode="&#x09;" horiz-adv-x="614" />
<glyph unicode="&#xa0;" horiz-adv-x="614" />
<glyph unicode="!" horiz-adv-x="552" d="M430 135q0 -63 -45.5 -107t-108.5 -44q-64 0 -108.5 44t-44.5 107q0 65 44.5 110.5t108.5 45.5t109 -45.5t45 -110.5zM420 1233l-80 -756h-131l-74 762q-2 35 -2 72q0 48 33.5 92.5t109.5 44.5t111 -44.5t35 -98.5z" />
<glyph unicode="&#x22;" horiz-adv-x="757" d="M555 1448q57 0 92 -38t35 -95q0 -19 -18 -150l-50 -286h-120l-50 280q-20 120 -20 148q0 59 34 100t97 41zM207 1448q57 0 92 -38t35 -95q0 -12 -19 -150l-49 -286h-121l-49 280q-20 120 -20 148q0 59 34 100t97 41z" />
<glyph unicode="#" horiz-adv-x="1193" d="M477 580h209l39 233h-211zM383 0h-186l63 389h-188v191h221l39 233h-195v191h221l60 372h186l-61 -372h213l59 372h184l-59 -372h182v-191h-213l-39 -233h191v-191h-221l-62 -389h-186l63 389h-213z" />
<glyph unicode="$" horiz-adv-x="1126" d="M494 1638h165v-219q154 -27 289 -145l-80 -127q-30 23 -52 37t-59 32.5t-82.5 27.5t-99.5 9q-94 0 -148 -49.5t-54 -128.5q0 -37 16 -68t38.5 -52.5t62 -42t72 -33t83.5 -29.5q47 -16 79.5 -28t78 -33t76 -42t64 -52.5t53.5 -66.5t33 -82t13 -102q0 -176 -103.5 -289 t-279.5 -145v-203h-165v193q-137 8 -244.5 64t-175.5 129l86 116q160 -133 350 -133q125 0 194.5 56.5t69.5 150.5q0 48 -22 86t-68.5 67.5t-85 47t-104.5 41.5q-50 19 -78.5 30t-75 33t-74 42t-61 51t-52 64.5t-31.5 79.5t-13 99q0 158 107 269.5t278 131.5v213z" />
<glyph unicode="%" horiz-adv-x="2308" d="M870 961q0 -74 -16 -145t-49.5 -134.5t-81 -111t-114 -75.5t-144.5 -28q-123 0 -216.5 69t-140.5 181t-47 248q0 71 15 140.5t48 134t79.5 114t115.5 79t150 29.5q122 0 214 -68t139.5 -181t47.5 -252zM657 971q0 71 -9.5 132.5t-30 114.5t-58 84t-88.5 31 q-55 0 -95 -29.5t-62.5 -82t-33 -115t-10.5 -137.5q0 -78 10 -142t32 -117.5t61.5 -83.5t93.5 -30q53 0 91.5 32t59 88t30 119t9.5 136zM2247 473q0 -93 -26.5 -180t-75.5 -157.5t-128 -113t-176 -42.5q-123 0 -216 69t-140 180.5t-47 247.5q0 71 15 140.5t48 134.5 t80 114.5t116 79t150 29.5q121 0 213 -68t139.5 -181.5t47.5 -252.5zM2034 483q0 71 -10 132.5t-30.5 115t-58 84.5t-88.5 31q-55 0 -95 -30t-62.5 -83t-32.5 -115t-10 -137q0 -372 196 -372q54 0 93 32t59.5 87.5t29.5 118t9 136.5zM776 -41h-227l993 1516h227z" />
<glyph unicode="&#x26;" horiz-adv-x="1492" d="M1526 0h-359q-22 26 -69 76t-70 76q-175 -187 -446 -187q-130 0 -245 52t-188 149t-73 217q0 68 23 129.5t57.5 106t84 83t95 63.5t96.5 46q-168 179 -168 324t122.5 240t305.5 95q160 0 258.5 -89.5t98.5 -225.5q0 -194 -273 -344l314 -338q35 45 64.5 110t41.5 103 l152 -43q-83 -212 -142 -299zM836 1153q0 74 -43 120t-107 46q-68 0 -109.5 -43.5t-41.5 -110.5q0 -32 6.5 -59.5t26 -56.5t29 -41.5t43 -47.5t40.5 -42q80 49 118 104t38 131zM911 283l-366 405q-90 -54 -136.5 -120t-46.5 -156q0 -115 73.5 -192t189.5 -77q146 0 286 140z " />
<glyph unicode="'" horiz-adv-x="409" d="M207 1448q57 0 92 -38t35 -95q0 -12 -19 -150l-49 -286h-121l-49 280q-20 120 -20 148q0 59 34 100t97 41z" />
<glyph unicode="(" horiz-adv-x="641" d="M508 -184l-98 -45q-59 81 -113.5 183.5t-101.5 224.5t-75 262.5t-28 273.5q0 256 94.5 508.5t223.5 429.5l98 -45q-69 -169 -108.5 -399t-39.5 -494q0 -258 39.5 -494t108.5 -405z" />
<glyph unicode=")" horiz-adv-x="641" d="M231 -229l-98 45q69 169 108.5 405t39.5 494q0 261 -39.5 491.5t-108.5 401.5l98 45q129 -177 223.5 -429.5t94.5 -508.5q0 -133 -28 -273.5t-75 -262.5t-101.5 -224.5t-113.5 -183.5z" />
<glyph unicode="*" horiz-adv-x="817" d="M381 1133q0 38 -29.5 111.5t-29.5 111.5q0 33 18.5 61.5t56.5 28.5q34 0 65.5 -20.5t31.5 -51.5q0 -33 -28.5 -114t-29.5 -127q21 12 57 59t76 83t84 36q28 0 54 -24t26 -62q0 -40 -29.5 -63t-67.5 -29.5t-90.5 -18.5t-82.5 -29q16 -10 65 -19.5t92.5 -18t79 -34 t35.5 -65.5q0 -36 -27.5 -62t-64.5 -26q-25 0 -51 20t-46.5 46t-51.5 59t-60 51q0 -42 30 -123.5t30 -117.5q0 -29 -25 -51.5t-59 -22.5q-38 0 -62 20.5t-24 46.5q0 32 29 114.5t30 135.5q-33 -18 -57 -45q-10 -11 -33.5 -40t-38.5 -46t-39 -32t-47 -15q-32 0 -59 22t-27 64 q0 33 20 54.5t53.5 32t68 17t72 14.5t58.5 19q-3 1 -26 11t-41 14q-16 4 -51.5 8.5t-57 9.5t-46.5 15.5t-37.5 29.5t-12.5 48q0 37 24 63.5t62 26.5q17 0 35.5 -11t29.5 -22t33.5 -36.5t30.5 -33.5l27 -28q27 -27 57 -45z" />
<glyph unicode="+" d="M498 1249h202v-440h422v-191h-422v-448h-202v448h-422v191h422v440z" />
<glyph unicode="," horiz-adv-x="536" d="M307 338q60 0 97.5 -41t37.5 -94q0 -24 -14.5 -54t-51.5 -74.5t-67 -77.5t-96 -102t-104 -110l-84 51l135 359q29 73 60 108t87 35z" />
<glyph unicode="-" horiz-adv-x="739" d="M616 375h-493v215h493v-215z" />
<glyph unicode="." horiz-adv-x="489" d="M397 139q0 -63 -44 -108t-107 -45q-65 0 -109.5 44.5t-44.5 108.5q0 66 45 112t109 46q63 0 107 -46t44 -112z" />
<glyph unicode="/" horiz-adv-x="985" d="M301 -61h-260l643 1566h260z" />
<glyph unicode="0" horiz-adv-x="1337" d="M1251 705q0 -115 -23.5 -223t-72 -202t-116.5 -164t-163 -110.5t-206 -40.5q-109 0 -203 39t-163.5 108.5t-119.5 163t-75 204.5t-25 231q0 112 21.5 218.5t68.5 204.5t114.5 171.5t167 117t218.5 43.5q112 0 206 -40t162 -110t115.5 -166t70.5 -208.5t23 -236.5z M969 723q0 115 -15 212.5t-47.5 181t-91.5 131.5t-139 48q-69 0 -123.5 -31t-90 -84t-58.5 -127.5t-32.5 -157t-9.5 -177.5q0 -123 16 -223.5t50 -184t96.5 -130t147.5 -46.5q67 0 119.5 34t85 89.5t54 133t30 158.5t8.5 173z" />
<glyph unicode="1" horiz-adv-x="776" d="M602 0h-272v1204l-228 -65l-39 100l386 195h153v-1434z" />
<glyph unicode="2" horiz-adv-x="1206" d="M1120 0h-1063v84q407 367 576 575q149 183 149 383q0 103 -80 176.5t-178 73.5q-108 0 -185.5 -57.5t-115.5 -157.5l-127 41q45 163 169 255.5t304 92.5q224 0 359 -119t135 -305q0 -138 -65 -262t-201 -260l-351 -350h674v-170z" />
<glyph unicode="3" horiz-adv-x="1116" d="M84 143l80 105q136 -113 309 -113q120 0 199.5 79t79.5 198q0 130 -74.5 204t-222.5 74h-35v152q152 0 222.5 56t70.5 175q0 93 -68.5 158t-169.5 65q-168 0 -262 -143l-111 68q70 117 167.5 181t240.5 64q216 0 344.5 -109t128.5 -272q0 -112 -64 -192.5t-182 -122.5 q132 -33 212.5 -127.5t80.5 -232.5q0 -197 -143 -320t-373 -123q-150 0 -246.5 45.5t-183.5 130.5z" />
<glyph unicode="4" horiz-adv-x="1349" d="M1278 356h-240v-356h-272v356h-694v97l772 981h194v-912h240v-166zM766 522v555l-426 -555h426z" />
<glyph unicode="5" horiz-adv-x="1191" d="M590 961q119 0 218.5 -41t163.5 -109.5t99 -155.5t35 -182q0 -99 -36.5 -190t-103.5 -163t-171.5 -115.5t-229.5 -43.5q-289 0 -479 217l82 88q142 -131 342 -131q143 0 228 94t85 242q0 150 -87 242t-232 92q-147 0 -234 -119q-2 0 -46 6t-46 6l103 736h755v-170h-602 l-51 -355q77 52 207 52z" />
<glyph unicode="6" horiz-adv-x="1327" d="M1239 471q0 -225 -154 -364.5t-421 -139.5q-265 0 -421.5 192.5t-156.5 530.5q0 222 78.5 397.5t226.5 277t342 101.5q202 0 395 -159l-57 -97q-63 42 -131 64t-182 22q-85 0 -152 -30t-111.5 -81t-73.5 -123t-41.5 -151.5t-12.5 -171.5q13 32 43.5 66.5t77 67.5 t115.5 54t147 21q147 0 260 -66t171 -174t58 -237zM969 446q0 136 -78.5 220t-206.5 84q-118 0 -203.5 -81t-85.5 -227q0 -141 81.5 -224t203.5 -83q127 0 208 83t81 228z" />
<glyph unicode="7" horiz-adv-x="1202" d="M1161 1434l-727 -1434h-297l647 1264h-741v170h1118z" />
<glyph unicode="8" horiz-adv-x="1239" d="M1151 395q0 -196 -148.5 -312t-390.5 -116q-232 0 -379 116.5t-147 309.5q0 125 83.5 226.5t221.5 142.5q-112 32 -188 114.5t-76 200.5q0 179 134 284t362 105q217 0 349 -108t132 -275q0 -116 -72 -200.5t-194 -120.5q148 -43 230.5 -144t82.5 -223zM848 1069 q0 102 -64 164.5t-166 62.5t-167.5 -61.5t-65.5 -163.5q0 -100 61 -163.5t172 -63.5q106 0 168 62.5t62 162.5zM872 403q0 117 -71.5 194t-184.5 77q-120 0 -189 -78t-69 -197q0 -117 70 -190.5t186 -73.5q117 0 187.5 77t70.5 191z" />
<glyph unicode="9" horiz-adv-x="1327" d="M86 961q0 225 155 365t421 140t421.5 -192.5t155.5 -530.5q0 -166 -48 -309.5t-134 -246t-209.5 -161.5t-269.5 -59q-122 0 -240.5 53.5t-194.5 118.5l62 97q175 -101 352 -101q104 0 183.5 44.5t126.5 122.5t70.5 176t23.5 214q-14 -33 -44.5 -67t-77 -67t-115 -54 t-146.5 -21q-148 0 -261.5 66.5t-172 174.5t-58.5 237zM358 987q0 -136 78.5 -220.5t206.5 -84.5q118 0 203.5 80.5t85.5 228.5q0 141 -81 223t-204 82q-127 0 -208 -82t-81 -227z" />
<glyph unicode=":" horiz-adv-x="493" d="M401 782q0 -64 -45 -108.5t-108 -44.5q-66 0 -111 44t-45 109t45 110.5t111 45.5q63 0 108 -46t45 -110zM397 139q0 -63 -44 -108t-107 -45q-65 0 -109.5 44.5t-44.5 108.5q0 66 45 112t109 46q63 0 107 -46t44 -112z" />
<glyph unicode=";" horiz-adv-x="548" d="M446 782q-2 -64 -46 -108.5t-107 -44.5q-65 0 -109.5 44.5t-44.5 108.5q0 65 45 110.5t109 45.5q63 0 108 -46t45 -110zM313 338q63 0 100.5 -41t37.5 -94q0 -41 -57.5 -113t-205.5 -229l-71 -76l-84 51l137 365q54 137 143 137z" />
<glyph unicode="&#x3c;" d="M109 645v160l978 452v-217l-716 -315v-4l716 -311v-220z" />
<glyph unicode="=" d="M1094 829h-992v193h992v-193zM1094 399h-992v193h992v-193z" />
<glyph unicode="&#x3e;" d="M1087 809v-170l-978 -449v218l727 313v4l-727 315v217z" />
<glyph unicode="?" horiz-adv-x="882" d="M551 139q0 -63 -44.5 -108t-107.5 -45q-65 0 -109 44.5t-44 108.5q0 66 44.5 112t108.5 46q63 0 107.5 -46t44.5 -112zM362 1323q-128 0 -221 -104l-80 77q128 170 353 170q204 0 316 -89t112 -228q0 -74 -25.5 -132.5t-66.5 -96.5t-90.5 -68.5t-99.5 -55.5t-91 -50 t-66.5 -58.5t-25.5 -75.5q0 -67 61 -106l-53 -82q-75 32 -114.5 79.5t-39.5 125.5q0 59 18 107.5t47.5 81.5t64.5 61.5t70 55t64.5 55t47.5 67.5t18 86q0 83 -55.5 131.5t-143.5 48.5z" />
<glyph unicode="@" horiz-adv-x="1681" d="M1599 815q0 -121 -40.5 -219t-107.5 -158.5t-149.5 -92.5t-171.5 -32q-51 0 -86.5 32.5t-39.5 96.5q-35 -54 -101.5 -90.5t-148.5 -36.5q-129 0 -225.5 105.5t-96.5 259.5q0 176 108 306t259 130q75 0 140.5 -39.5t100.5 -101.5l19 92h153l-61 -389q-14 -63 -14 -123 q0 -111 49 -111q74 0 142.5 98.5t68.5 258.5q0 143 -65.5 263.5t-190.5 194.5t-285 74q-119 0 -225 -45.5t-184.5 -125.5t-124.5 -195t-46 -248q0 -143 48.5 -262.5t131 -199t190.5 -123.5t228 -44q274 0 406 78l51 -88q-173 -115 -459 -115q-230 0 -410.5 96.5t-280 267 t-99.5 384.5q0 215 103 388t280 269t391 96q207 0 377.5 -86t268 -235.5t97.5 -329.5zM612 690q0 -115 50 -181.5t120 -66.5q85 0 150 95.5t65 212.5q0 64 -19.5 119.5t-60.5 92.5t-96 37q-88 0 -148.5 -89t-60.5 -220z" />
<glyph unicode="A" horiz-adv-x="1443" d="M1135 0l-154 360h-604l-154 -360h-203l590 1434h209l604 -1434h-288zM674 1118l-234 -581h473z" />
<glyph unicode="B" horiz-adv-x="1294" d="M1202 410q0 -87 -29.5 -159.5t-89.5 -129.5t-161.5 -89t-235.5 -32h-522v1434h434q121 0 213.5 -24.5t144.5 -61.5t84.5 -87.5t43 -94t10.5 -89.5q0 -107 -59 -187.5t-181 -115.5q159 -23 253.5 -121t94.5 -243zM827 1047q0 111 -61.5 164t-210.5 53h-113v-441h148 q112 0 174.5 61t62.5 163zM920 424q0 116 -85.5 178t-230.5 62h-162v-494h172q155 0 230.5 58.5t75.5 195.5z" />
<glyph unicode="C" horiz-adv-x="1482" d="M1374 1264l-86 -109q-73 66 -167 103.5t-234 37.5q-230 0 -371 -156.5t-141 -428.5q0 -261 139.5 -418.5t372.5 -157.5q271 0 430 148l84 -103q-60 -52 -102.5 -82.5t-109.5 -65t-150 -51t-185 -16.5q-169 0 -313 55.5t-244.5 153t-157.5 235.5t-57 300q0 160 57.5 300 t159 240.5t246 158.5t311.5 58q78 0 149 -13.5t120 -31t100 -48.5t79.5 -52.5t69.5 -56.5z" />
<glyph unicode="D" horiz-adv-x="1468" d="M1386 721q0 -331 -217 -526t-598 -195h-407v1434h424q360 0 579 -196t219 -517zM1094 727q0 80 -16.5 154.5t-55 145t-96 122.5t-145 83.5t-195.5 31.5h-137v-1094h122q247 0 385 149t138 408z" />
<glyph unicode="E" horiz-adv-x="1101" d="M999 0h-835v1434h825v-170h-540v-430h507v-170h-507v-494h550v-170z" />
<glyph unicode="F" horiz-adv-x="1054" d="M952 1264h-503v-420h473v-170h-473v-674h-285v1434h788v-170z" />
<glyph unicode="G" horiz-adv-x="1675" d="M1593 770v-14q-11 -366 -204 -578.5t-535 -212.5q-173 0 -318 56.5t-244.5 155.5t-154.5 236.5t-55 297.5q0 158 57 297.5t157.5 240t245.5 159t314 58.5q78 0 149 -13t122 -32t101.5 -50t82.5 -56t71 -60l-86 -106q-77 70 -173 108.5t-236 38.5q-108 0 -200.5 -38 t-162 -110.5t-109.5 -185t-40 -253.5q0 -259 140 -416.5t368 -157.5q121 0 214.5 38.5t149 104.5t85 147.5t32.5 174.5h-348v170h577z" />
<glyph unicode="H" horiz-adv-x="1566" d="M1403 0h-285v688h-669v-688h-285v1434h285v-576h669v576h285v-1434z" />
<glyph unicode="I" horiz-adv-x="612" d="M449 0h-285v1434h285v-1434z" />
<glyph unicode="J" horiz-adv-x="890" d="M748 418q0 -211 -108.5 -334t-297.5 -123q-95 0 -179.5 45t-142.5 119l91 92q44 -51 101 -78.5t101 -27.5q83 0 116.5 62t33.5 196v1065h285v-1016z" />
<glyph unicode="K" horiz-adv-x="1396" d="M1376 0h-342l-585 676v-676h-285v1434h285v-633l593 633h248l-600 -639z" />
<glyph unicode="L" horiz-adv-x="1034" d="M983 0h-819v1434h285v-1264h534v-170z" />
<glyph unicode="M" horiz-adv-x="1968" d="M1866 0h-295l-133 930l-402 -930h-192l-389 930l-158 -930h-211l254 1434h188l459 -1078l465 1078h199z" />
<glyph unicode="N" horiz-adv-x="1634" d="M158 0v1434h182l944 -1022v1022h193v-1434h-181l-946 1024v-1024h-192z" />
<glyph unicode="O" horiz-adv-x="1710" d="M82 711q0 166 61 308.5t165.5 239.5t246.5 152t301 55q169 0 313 -55.5t245 -154t157.5 -239t56.5 -304.5q0 -220 -101 -392t-276.5 -265t-394.5 -93q-223 0 -399 92.5t-275.5 263.5t-99.5 392zM375 711q0 -255 133.5 -415.5t347.5 -160.5t346.5 163.5t132.5 418.5 q0 260 -132 419.5t-347 159.5q-98 0 -184 -36.5t-153 -107t-105.5 -184t-38.5 -257.5z" />
<glyph unicode="P" horiz-adv-x="1208" d="M1126 1022q0 -204 -127 -317t-358 -113h-199v-592h-278v1434h344q306 0 462 -96.5t156 -315.5zM854 1018q0 118 -71 188t-214 70h-127v-524h144q145 0 206.5 69.5t61.5 196.5z" />
<glyph unicode="Q" horiz-adv-x="1710" d="M82 711q0 166 61 308.5t165.5 239.5t246.5 152t301 55q169 0 313 -55.5t245 -154t157.5 -239t56.5 -304.5q0 -197 -82 -355.5t-227 -257.5l190 -204h-243l-115 122q-136 -53 -295 -53q-223 0 -399 92t-275.5 262.5t-99.5 391.5zM973 473l196 -211q79 78 122.5 195 t43.5 260q0 260 -132 419.5t-347 159.5q-98 0 -184 -36.5t-153 -107t-105.5 -184t-38.5 -257.5q0 -255 133.5 -415.5t347.5 -160.5q78 0 156 33l-283 305h244z" />
<glyph unicode="R" horiz-adv-x="1273" d="M1253 0h-307l-375 598h-129v-598h-278v1434h411q273 0 408 -105t135 -301q0 -85 -24 -155t-65 -116t-88 -75.5t-101 -44.5zM848 1026q0 57 -13.5 99.5t-45.5 78t-92.5 54t-147.5 18.5h-107v-512h109q297 0 297 262z" />
<glyph unicode="S" horiz-adv-x="1134" d="M805 360q0 54 -23.5 96t-62.5 70.5t-90 52.5t-107.5 45.5t-113 45.5t-107.5 56.5t-90 74t-62.5 103t-23.5 138.5q0 184 131 304t334 120q235 0 411 -170l-83 -116q-27 23 -48 37.5t-60 35.5t-89.5 32t-108.5 11q-102 0 -164.5 -54t-62.5 -142q0 -51 23.5 -91t63.5 -66.5 t91.5 -49t108.5 -43t114 -43.5t108.5 -55.5t91.5 -74.5t63.5 -105t23.5 -142q0 -216 -146 -339.5t-384 -123.5q-160 0 -291 56t-201 131l96 129q175 -146 367 -146q137 0 214 60.5t77 162.5z" />
<glyph unicode="T" horiz-adv-x="1126" d="M1085 1264h-380v-1264h-285v1264h-379v170h1044v-170z" />
<glyph unicode="U" horiz-adv-x="1476" d="M1333 1434v-885q0 -272 -154.5 -428t-433.5 -156q-280 0 -441 154.5t-161 421.5v893h283v-893q0 -86 19 -157t58 -127.5t105.5 -88t155.5 -31.5t158.5 35t111.5 96t63 138.5t21 168.5v859h215z" />
<glyph unicode="V" horiz-adv-x="1384" d="M588 0l-588 1434h295l436 -1078l447 1078h206l-602 -1434h-194z" />
<glyph unicode="W" horiz-adv-x="2144" d="M1067 1008l-367 -1008h-192l-498 1434h289l348 -1014l365 1014h196l365 -1016l354 1016h207l-508 -1434h-192z" />
<glyph unicode="X" horiz-adv-x="1327" d="M41 0l487 711l-467 723h306l331 -521l349 521h227l-467 -689l479 -745h-303l-346 539l-365 -539h-231z" />
<glyph unicode="Y" horiz-adv-x="1249" d="M1229 1434l-477 -793v-641h-285v645l-447 789h289l348 -609l367 609h205z" />
<glyph unicode="Z" horiz-adv-x="1331" d="M1245 0h-1173l772 1272h-701v162h1096l-752 -1272h758v-162z" />
<glyph unicode="[" horiz-adv-x="618" d="M506 -195h-414v1833h414v-143h-187v-1548h187v-142z" />
<glyph unicode="\" horiz-adv-x="985" d="M944 -61h-260l-643 1566h260z" />
<glyph unicode="]" horiz-adv-x="618" d="M526 -195h-413v142h184v1548h-184v143h413v-1833z" />
<glyph unicode="^" d="M1147 276h-225l-322 734h-6l-322 -734h-221l463 996h170z" />
<glyph unicode="_" horiz-adv-x="1015" d="M0 -203h1044v-100h-1044v100z" />
<glyph unicode="`" horiz-adv-x="497" d="M399 1110h-129l-149 102q-40 28 -59 51t-19 54q0 35 24 65.5t72 30.5q24 0 46 -11.5t45.5 -39t39 -50t43.5 -67.5z" />
<glyph unicode="a" horiz-adv-x="1120" d="M997 0h-249v123q-92 -152 -302 -152q-380 0 -380 320q0 153 111 237t315 84h256v39q0 106 -64.5 164.5t-173.5 58.5q-183 0 -320 -120l-73 88q102 94 202 132t234 38q99 0 178.5 -23.5t139.5 -70.5t93 -124.5t33 -179.5v-614zM748 373v108h-242q-93 0 -146 -47t-53 -139 q0 -87 51.5 -136.5t137.5 -49.5q116 0 184 73t68 191z" />
<glyph unicode="b" horiz-adv-x="1253" d="M1192 502q0 -145 -62.5 -265.5t-174 -191t-248.5 -70.5q-218 0 -322 154v-129h-258v1524h258v-678h-2q48 72 135 113.5t197 41.5q199 0 338 -144t139 -355zM930 494q0 158 -73.5 257t-203.5 99q-131 0 -203.5 -97.5t-72.5 -265.5q0 -173 73.5 -268.5t204.5 -95.5 t203 103.5t72 267.5z" />
<glyph unicode="c" horiz-adv-x="1011" d="M950 145q-82 -88 -173 -130t-204 -42q-118 0 -215.5 41t-162 111.5t-99.5 164t-35 199.5q0 141 62 257.5t181 187t271 70.5q208 0 369 -168l-78 -91q-111 117 -262 117q-125 0 -201.5 -100.5t-76.5 -276.5q0 -177 76 -273.5t204 -96.5q146 0 264 121z" />
<glyph unicode="d" horiz-adv-x="1255" d="M61 498q0 132 58.5 245.5t170.5 184.5t255 71q113 0 197 -43.5t126 -107.5v676h260v-1524h-260v135q-51 -75 -132.5 -117.5t-184.5 -42.5q-142 0 -255 70.5t-174 189.5t-61 263zM324 494q0 -108 27.5 -189.5t91.5 -131.5t159 -50q128 0 201.5 98t73.5 266q0 163 -72 263 t-205 100q-131 0 -203.5 -99t-72.5 -257z" />
<glyph unicode="e" horiz-adv-x="1167" d="M1096 453h-768q0 -91 31 -168t95 -126.5t150 -49.5q114 0 195 39t147 112l80 -80q-156 -207 -426 -207q-242 0 -390.5 141.5t-148.5 368.5q0 225 151.5 370.5t385.5 145.5q122 0 218 -41.5t156.5 -115.5t92 -173t31.5 -216zM858 594q-11 119 -83 193.5t-177 74.5 q-104 0 -177 -75t-87 -193h524z" />
<glyph unicode="f" horiz-adv-x="731" d="M786 1452l-59 -109q-66 41 -139 41q-133 0 -133 -219v-194h231v-142h-231v-829h-258v829h-156v142h156v184q0 174 100.5 271.5t253.5 97.5q69 0 123 -19t112 -53z" />
<glyph unicode="g" horiz-adv-x="1236" d="M856 502q0 155 -77.5 251.5t-211.5 96.5q-115 0 -188.5 -97t-73.5 -255q0 -168 73.5 -266.5t190.5 -98.5q128 0 207.5 94.5t79.5 274.5zM565 -336q283 0 283 371v112q-117 -147 -320 -147q-142 0 -249.5 67.5t-162.5 181.5t-55 255q0 135 57.5 247.5t167.5 181t251 68.5 q108 0 186.5 -45t120.5 -114h6v129h258v-899q0 -265 -147.5 -407t-389.5 -142q-226 0 -413 198l75 89q146 -146 332 -146z" />
<glyph unicode="h" d="M1079 0h-258v629q0 99 -45 160t-135 61q-112 0 -184 -82.5t-72 -200.5v-567h-258v1524h258v-676h2q42 66 130.5 111t187.5 45q181 0 277.5 -106t96.5 -286v-612z" />
<glyph unicode="i" horiz-adv-x="514" d="M410 1280q0 -61 -42 -102t-106 -41q-65 0 -105 41t-40 102q0 62 41.5 104.5t103.5 42.5q63 0 105.5 -42t42.5 -105zM385 0h-258v971h258v-971z" />
<glyph unicode="j" horiz-adv-x="514" d="M406 1280q-2 -61 -42.5 -102t-103.5 -41q-66 0 -106.5 41t-40.5 102q0 62 42 104.5t103 42.5q63 0 105.5 -42t42.5 -105zM385 971v-938q0 -112 -27 -201t-83.5 -159t-154.5 -108t-231 -38v113q60 7 102 25.5t68.5 47t41.5 76.5t20.5 104t5.5 138v940h258z" />
<glyph unicode="k" horiz-adv-x="1075" d="M1055 0h-293l-373 465h-4v-465h-258v1524h258v-953l375 400h203l-367 -398z" />
<glyph unicode="l" horiz-adv-x="512" d="M385 0h-258v1524h258v-1524z" />
<glyph unicode="m" horiz-adv-x="1837" d="M1718 0h-258v635q0 107 -45 161t-125 54q-114 0 -176.5 -83.5t-62.5 -197.5v-569h-258v623q0 227 -166 227q-113 0 -177.5 -78.5t-64.5 -210.5v-561h-258v971h258v-121q45 65 133 109.5t178 44.5q111 0 193.5 -51t128.5 -140q49 82 140 136.5t202 54.5 q171 0 264.5 -105.5t93.5 -286.5v-612z" />
<glyph unicode="n" d="M1079 0h-258v633q0 211 -180 211q-112 0 -184 -80t-72 -182v-582h-258v971h258v-123q43 66 130.5 111t186.5 45q126 0 213 -54t125.5 -140.5t38.5 -197.5v-612z" />
<glyph unicode="o" horiz-adv-x="1208" d="M1147 483q0 -225 -152 -367.5t-389 -142.5q-249 0 -397 142.5t-148 371.5q0 225 154 369.5t391 144.5q152 0 275 -64t194.5 -183t71.5 -271zM885 494q0 155 -73.5 255.5t-207.5 100.5q-133 0 -205.5 -100.5t-72.5 -255.5q0 -107 28 -188.5t92.5 -132t159.5 -50.5 q132 0 205.5 103.5t73.5 267.5z" />
<glyph unicode="p" horiz-adv-x="1263" d="M1202 475q0 -136 -60.5 -249.5t-173 -182t-255.5 -68.5q-222 0 -326 138h-2v-578h-258v1436h258v-135h2q46 75 131.5 120t194.5 45q143 0 255.5 -71.5t173 -191.5t60.5 -263zM940 479q0 171 -72.5 277t-203.5 106q-134 0 -210.5 -98t-76.5 -279q0 -180 75.5 -278 t213.5 -98q129 0 201.5 101.5t72.5 268.5z" />
<glyph unicode="q" horiz-adv-x="1263" d="M324 479q0 -167 72 -268.5t202 -101.5q137 0 212 100.5t75 275.5q0 181 -75.5 279t-209.5 98q-131 0 -203.5 -106t-72.5 -277zM61 475q0 143 60.5 263t174 191.5t257.5 71.5q107 0 192.5 -45.5t131.5 -119.5h2v135h258v-1436h-258v588h-2q-100 -148 -326 -148 q-143 0 -256 68.5t-173.5 182t-60.5 249.5z" />
<glyph unicode="r" horiz-adv-x="837" d="M780 772q-85 29 -149 29q-112 0 -179 -80t-67 -225v-496h-258v971h258v-174q45 78 133 131t201 53q28 0 88 -12z" />
<glyph unicode="s" horiz-adv-x="841" d="M545 246q0 40 -25 70.5t-65 51t-89 40t-97.5 44.5t-88.5 58t-65 87t-25 124q0 120 99.5 201.5t248.5 81.5q53 0 100 -11t84 -31t57 -33.5t44 -33.5l-64 -102q-27 21 -48.5 33.5t-60.5 24t-85 11.5q-68 0 -104.5 -33.5t-36.5 -89.5q0 -37 25 -64t65.5 -45.5t89 -36.5 t97 -43t89 -57.5t65.5 -87t25 -126.5q0 -142 -104.5 -225t-294.5 -83q-189 0 -332 133l72 93q108 -91 248 -91q176 0 176 140z" />
<glyph unicode="t" horiz-adv-x="743" d="M455 0h-258v829h-156v142h156v274h258v-274h247v-142h-247v-829z" />
<glyph unicode="u" d="M119 971h260v-633q0 -211 166 -211q116 0 192 78.5t76 183.5v582h258v-971h-258v123q-44 -67 -131 -111.5t-186 -44.5q-95 0 -169 30.5t-118.5 84.5t-67 124t-22.5 152v613z" />
<glyph unicode="v" horiz-adv-x="1034" d="M1014 971l-408 -971h-168l-418 971h267l274 -647l277 647h176z" />
<glyph unicode="w" horiz-adv-x="1597" d="M1567 971l-342 -971h-156l-268 664l-246 -664h-158l-366 971h264l219 -633l234 633h167l259 -635l217 635h176z" />
<glyph unicode="x" horiz-adv-x="1046" d="M334 971l229 -326l252 326h191l-353 -455l363 -516h-262l-258 352l-273 -352h-192l375 479l-359 492h287z" />
<glyph unicode="y" horiz-adv-x="1128" d="M1108 971l-680 -1444h-199l244 514l-453 930h273l309 -674l320 674h186z" />
<glyph unicode="z" horiz-adv-x="1034" d="M977 0h-916v76l566 753h-535v142h862v-76l-579 -754h602v-141z" />
<glyph unicode="{" horiz-adv-x="702" d="M590 -195q-57 0 -101.5 4.5t-93 19t-80 39.5t-52.5 70t-21 107v428q0 88 -36 132.5t-114 58.5v114q77 14 113.5 62.5t36.5 138.5v422q0 60 20.5 104t52.5 69t80 40t93 19.5t102 4.5v-137q-52 0 -89.5 -27t-37.5 -79v-408q0 -112 -38 -175.5t-142 -94.5q105 -26 142.5 -87 t37.5 -177v-404q0 -54 36.5 -82t90.5 -28v-134z" />
<glyph unicode="|" horiz-adv-x="462" d="M123 1638h217v-1833h-217v1833z" />
<glyph unicode="}" horiz-adv-x="702" d="M113 -195v134q54 0 90.5 28t36.5 82v404q0 116 37.5 177t142.5 87q-104 31 -142 94.5t-38 175.5v408q0 52 -37.5 79t-89.5 27v137q57 0 102 -4.5t92.5 -19.5t79 -40t52 -69t20.5 -104v-422q0 -91 36.5 -139t114.5 -62v-114q-79 -14 -115 -58.5t-36 -132.5v-428 q0 -52 -13.5 -92t-39.5 -65.5t-56.5 -42.5t-72.5 -25.5t-79.5 -11.5t-84.5 -3z" />
<glyph unicode="~" horiz-adv-x="1212" d="M1135 844q-9 -28 -24.5 -61.5t-44 -76.5t-62.5 -76.5t-83.5 -57t-103.5 -23.5q-51 0 -112.5 24t-109 52.5t-103.5 52.5t-97 24q-51 0 -88.5 -39.5t-70.5 -123.5l-144 55q14 37 29.5 70t44.5 77t61.5 75t80.5 53t102 22q57 0 137.5 -38.5t158.5 -77t128 -38.5 q52 0 89.5 44t67.5 120z" />
<glyph unicode="&#xa1;" horiz-adv-x="550" d="M123 842q0 63 44 106t107 43q65 0 109.5 -43t44.5 -106q0 -65 -45 -110.5t-109 -45.5q-63 0 -107 45t-44 111zM133 -258l78 756h131l74 -762q2 -35 2 -70q0 -21 -6.5 -42.5t-21 -44t-45 -36.5t-71.5 -14q-76 0 -109.5 44.5t-33.5 98.5z" />
<glyph unicode="&#xa2;" horiz-adv-x="1015" d="M512 1638h166v-391q145 -33 264 -155q-5 -6 -38 -45.5t-38 -45.5q-111 117 -262 117q-125 0 -202.5 -101t-77.5 -276q0 -177 78 -275.5t204 -98.5q79 0 142 30t124 92l76 -88q-120 -129 -270 -163v-431h-166v424q-140 14 -243.5 87t-155.5 183.5t-52 243.5 q0 130 54 240.5t157.5 183t239.5 86.5v383z" />
<glyph unicode="&#xa3;" horiz-adv-x="1138" d="M938 1339l-78 -133q-35 25 -61 40.5t-82.5 32.5t-118.5 17q-102 0 -162.5 -52t-60.5 -163q0 -59 36 -115.5t98 -128t93 -122.5h285v-117h-238q19 -63 19 -106q0 -78 -29.5 -149t-71.5 -118q16 -4 61.5 -17t85 -20.5t79.5 -7.5q45 0 101.5 21t91 41.5t40.5 27.5l72 -108 q-5 -8 -35 -33.5t-76.5 -58.5t-110 -58.5t-118.5 -25.5q-108 0 -242.5 37.5t-216.5 37.5q-99 0 -178 -63q-2 1 -37 52l-35 52q2 5 18.5 20.5t47.5 37.5t68.5 42.5t88 35t99.5 14.5q47 70 47 172q0 77 -76 174h-258v117h166q-63 79 -99 157t-36 172q0 178 131.5 300 t335.5 122q188 0 356 -127z" />
<glyph unicode="&#xa4;" horiz-adv-x="1613" d="M1196 516h-666q46 -178 174.5 -279.5t313.5 -101.5q264 0 430 148l84 -105q-60 -52 -102.5 -82.5t-109.5 -65t-150 -51t-185 -16.5q-287 0 -489 150.5t-263 402.5h-178l49 139h109q-2 16 -2 54q0 55 4 84h-160l49 137h138q68 241 269 388.5t474 147.5q97 0 178.5 -17.5 t146.5 -51.5t104.5 -61.5t90.5 -71.5l-88 -109q-74 65 -167.5 103t-233.5 38q-177 0 -304.5 -97t-174.5 -269h802l-49 -137h-782q-2 -27 -2 -82v-56h737z" />
<glyph unicode="&#xa5;" horiz-adv-x="1282" d="M1235 1434l-457 -762v-27h234v-145h-234v-129h234v-146h-234v-225h-284v225h-234v146h234v129h-234v145h234v29l-449 760h293l340 -570l344 570h213z" />
<glyph unicode="&#xa6;" horiz-adv-x="460" d="M123 614h215v-813h-215v813zM338 819h-215v819h215v-819z" />
<glyph unicode="&#xa7;" horiz-adv-x="1042" d="M170 1108q0 64 25.5 124.5t72.5 110.5t123 80.5t168 30.5q162 0 299 -119l-61 -102q-27 20 -39 28t-40.5 23t-60.5 21t-71 6q-87 0 -133.5 -52t-46.5 -131q0 -49 30.5 -92t79.5 -78t108.5 -70.5t118.5 -77.5t108 -91t79.5 -119.5t30.5 -153.5q0 -105 -62 -195.5 t-168 -135.5q131 -109 131 -262q0 -63 -25.5 -123.5t-72.5 -110.5t-122 -80.5t-167 -30.5q-165 0 -305 109l61 102q30 -20 53.5 -32t68 -23.5t96.5 -11.5q86 0 132 51t46 131q0 48 -30.5 91t-79.5 78t-108 70.5t-117.5 78t-107.5 91.5t-79.5 119.5t-30.5 153.5 q0 105 60.5 195t166.5 135q-131 114 -131 262zM723 414q0 23 -5 45t-11 40t-20 37.5t-24.5 33t-32 32t-34 29t-39.5 29t-39.5 27t-43 28t-42.5 26.5q-59 -25 -90 -79t-31 -115q0 -42 15.5 -80t35.5 -65.5t59.5 -59.5t67 -51t78.5 -51l33 -21q57 25 90 80.5t33 114.5z" />
<glyph unicode="&#xa8;" horiz-adv-x="729" d="M43 1247q0 52 37 88.5t90 36.5q54 0 91.5 -36.5t37.5 -88.5q0 -54 -37.5 -91.5t-91.5 -37.5q-53 0 -90 37.5t-37 91.5zM430 1247q0 52 37 88.5t90 36.5q54 0 90.5 -36t36.5 -89q0 -54 -37 -91.5t-90 -37.5q-54 0 -90.5 37.5t-36.5 91.5z" />
<glyph unicode="&#xa9;" horiz-adv-x="1642" d="M82 711q0 205 98 376.5t267.5 271t371.5 99.5q209 0 379.5 -98t266.5 -268.5t96 -378.5q0 -153 -57 -289.5t-155.5 -234.5t-236 -155t-293.5 -57q-204 0 -373 96.5t-266.5 265t-97.5 372.5zM238 705q0 -169 72.5 -310.5t206.5 -226t302 -84.5q171 0 305.5 84t206.5 228 t72 321q0 180 -72.5 324t-206.5 226.5t-305 82.5q-118 0 -223.5 -44.5t-185 -125t-126 -204t-46.5 -271.5zM1155 424q-139 -139 -317 -139q-197 0 -317 127t-120 311q0 182 123 309t316 127q167 0 307 -133l-64 -76q-98 92 -219 92q-113 0 -179.5 -88.5t-66.5 -234.5 q0 -149 68.5 -234.5t177.5 -85.5q117 0 228 97z" />
<glyph unicode="&#xaa;" horiz-adv-x="698" d="M637 825h-168v58q-57 -74 -172 -74q-236 0 -236 199q0 93 68.5 145.5t194.5 52.5h145v15q0 62 -35 94.5t-98 32.5q-100 0 -191 -76l-55 63q63 60 125 84.5t145 24.5q127 0 202 -60t75 -184v-375zM469 1057v57h-137q-52 0 -81.5 -27t-29.5 -77q0 -49 28.5 -78t76.5 -29 q66 0 104.5 42.5t38.5 111.5z" />
<glyph unicode="&#xab;" horiz-adv-x="909" d="M438 223l-49 -96q-58 20 -110 53.5t-96.5 81t-70.5 112t-26 136.5q0 141 87.5 241t215.5 144l47 -96q-69 -26 -118.5 -105.5t-49.5 -183.5q0 -107 51 -184t119 -103zM813 223l-49 -96q-58 20 -110 53.5t-96.5 81t-70.5 112t-26 136.5q0 141 87.5 241t215.5 144l47 -96 q-69 -26 -118.5 -105.5t-49.5 -183.5q0 -107 51 -184t119 -103z" />
<glyph unicode="&#xac;" d="M88 987h1022v-649h-199v457h-823v192z" />
<glyph unicode="&#xad;" horiz-adv-x="739" d="M616 375h-493v215h493v-215z" />
<glyph unicode="&#xae;" horiz-adv-x="1642" d="M1182 289h-213l-201 354h-66v-354h-192v872h264q170 0 255 -65t85 -187q0 -95 -47 -154.5t-117 -82.5zM930 909q0 66 -38 102t-134 36h-56v-283h58q91 0 130.5 37.5t39.5 107.5zM82 711q0 205 98 376.5t267.5 271t371.5 99.5q209 0 379.5 -98t266.5 -268.5t96 -378.5 q0 -153 -57 -289.5t-155.5 -234.5t-236 -155t-293.5 -57q-204 0 -373 96.5t-266.5 265t-97.5 372.5zM238 705q0 -169 72.5 -310.5t206.5 -226t302 -84.5q171 0 305.5 84t206.5 228t72 321q0 180 -72.5 324t-206.5 226.5t-305 82.5q-118 0 -223.5 -44.5t-185 -125t-126 -204 t-46.5 -271.5z" />
<glyph unicode="&#xaf;" horiz-adv-x="606" d="M47 1317h512v-164h-512v164z" />
<glyph unicode="&#xb0;" horiz-adv-x="696" d="M358 1452h2q126 0 210.5 -82.5t84.5 -200.5q0 -124 -86.5 -205t-210.5 -81q-127 0 -212 81t-85 201q-1 120 85.5 203.5t211.5 83.5zM358 1311q-56 0 -94.5 -42.5t-38.5 -103.5q0 -60 38 -100.5t95 -40.5q59 0 97.5 40t38.5 101t-38 103.5t-98 42.5z" />
<glyph unicode="&#xb1;" d="M498 1391h202v-398h412v-192h-412v-402h-202v402h-412v192h412v398zM86 291h1026v-193h-1026v193z" />
<glyph unicode="&#xb2;" horiz-adv-x="837" d="M772 463h-721v76q153 129 263.5 248t156.5 194q59 93 59 178q0 67 -49.5 110.5t-115.5 43.5q-69 0 -120.5 -38.5t-76.5 -107.5l-105 35q34 115 120.5 179.5t211.5 64.5q156 0 250 -80.5t94 -208.5q0 -60 -22 -118.5t-81.5 -134t-99 -118t-139.5 -144.5q-23 -24 -35 -36 h410v-143z" />
<glyph unicode="&#xb3;" horiz-adv-x="788" d="M55 590l70 76q88 -91 211 -91q75 0 126.5 48.5t51.5 121.5q0 82 -47.5 127.5t-144.5 45.5h-33v120q104 0 151 34.5t47 107.5q0 58 -43 97.5t-108 39.5q-110 0 -172 -100l-92 51q102 178 295 178q147 0 235 -73.5t88 -182.5q0 -70 -37.5 -125t-107.5 -84 q81 -27 129.5 -87.5t48.5 -148.5q0 -134 -100 -217.5t-261 -83.5q-109 0 -178.5 37.5t-128.5 108.5z" />
<glyph unicode="&#xb4;" horiz-adv-x="497" d="M221 1110h-129l137 199q25 36 39.5 53.5t37.5 34t46 16.5q50 0 77.5 -29t27.5 -69q0 -30 -21 -52t-65 -51z" />
<glyph unicode="&#xb5;" horiz-adv-x="1171" d="M367 -410h-261v1381h261v-633q0 -105 46.5 -162t129.5 -57q114 0 186 83t72 187v582h258v-971h-258v123q-43 -67 -130.5 -111.5t-187.5 -44.5q-56 0 -116 27v-404z" />
<glyph unicode="&#xb6;" horiz-adv-x="1062" d="M571 1315v-1520h-194v844q-59 6 -113 31t-100.5 70.5t-74.5 120.5t-28 169q0 169 116 286.5t274 117.5h550v-119h-108v-1520h-195v1520h-127z" />
<glyph unicode="&#xb7;" horiz-adv-x="489" d="M397 733q0 -63 -44 -108t-107 -45q-65 0 -109.5 44.5t-44.5 108.5q0 66 45 112t109 46q63 0 107 -46t44 -112z" />
<glyph unicode="&#xb8;" horiz-adv-x="444" d="M145 -168l7 82q37 0 74.5 -6t82.5 -23t73 -55.5t28 -93.5q0 -76 -59.5 -116t-135.5 -40q-50 0 -109 21.5t-106 62.5l51 76q25 -15 66.5 -31t75.5 -16q67 0 67 57q0 32 -28 55.5t-87 26.5z" />
<glyph unicode="&#xb9;" horiz-adv-x="581" d="M442 463h-202v788l-154 -39l-31 82l281 140h106v-971z" />
<glyph unicode="&#xba;" horiz-adv-x="788" d="M727 1126q0 -138 -92.5 -224.5t-239.5 -86.5q-155 0 -244.5 86.5t-89.5 226.5q0 138 94 227t240 89q143 0 237.5 -88t94.5 -230zM553 1133q0 91 -40.5 149.5t-119.5 58.5q-76 0 -118 -59.5t-42 -148.5q0 -95 40 -155t122 -60q76 0 117 60.5t41 154.5z" />
<glyph unicode="&#xbb;" horiz-adv-x="909" d="M823 510q0 -72 -26 -136.5t-70.5 -112t-96.5 -81t-110 -53.5l-49 96q67 26 118.5 103.5t51.5 183.5q0 104 -50 183.5t-120 105.5l49 96q128 -44 215.5 -144t87.5 -241zM449 510q0 -72 -26.5 -136.5t-71 -112t-96.5 -81t-110 -53.5l-49 96q67 26 118.5 103.5t51.5 183.5 q0 104 -50 183.5t-120 105.5l49 96q128 -44 216 -144t88 -241z" />
<glyph unicode="&#xbc;" horiz-adv-x="1990" d="M573 -41h-225l993 1516h226zM459 463h-203v788l-154 -39l-30 82l280 140h107v-971zM1919 233h-160v-233h-205v233h-485v72l553 666h137v-606h160v-132zM1554 365v331l-268 -331h268z" />
<glyph unicode="&#xbd;" horiz-adv-x="2103" d="M575 -41h-225l993 1516h226zM459 463h-203v788l-154 -39l-30 82l280 140h107v-971zM2032 0h-721v76q153 129 263.5 248t156.5 194q59 93 59 178q0 67 -50 110.5t-116 43.5q-69 0 -120.5 -38t-76.5 -107l-104 34q34 115 120.5 179.5t211.5 64.5q156 0 250 -80.5t94 -208.5 q0 -60 -22 -118.5t-81.5 -134t-99 -118t-139.5 -144.5q-23 -24 -35 -36h410v-143z" />
<glyph unicode="&#xbe;" horiz-adv-x="2144" d="M729 -41h-225l993 1516h225zM2073 233h-160v-233h-205v233h-485v72l553 666h137v-606h160v-132zM1708 365v331l-268 -331h268zM72 590l69 76q88 -91 211 -91q75 0 126.5 48.5t51.5 121.5q0 82 -47.5 127.5t-144.5 45.5h-33v120q105 0 152 34.5t47 107.5q0 58 -43.5 97.5 t-108.5 39.5q-110 0 -172 -100l-92 51q102 178 295 178q147 0 235.5 -73.5t88.5 -182.5q0 -70 -38 -125t-108 -84q81 -27 129.5 -87.5t48.5 -148.5q0 -134 -99.5 -217.5t-260.5 -83.5q-109 0 -178.5 37.5t-128.5 108.5z" />
<glyph unicode="&#xbf;" horiz-adv-x="882" d="M332 840q0 63 44 107t107 44q64 0 108 -44t44 -107q0 -65 -44.5 -110.5t-107.5 -45.5t-107 45t-44 111zM520 -344q129 0 219 104l82 -77q-135 -168 -354 -168q-204 0 -315 88t-111 227q0 74 25.5 132.5t66.5 96.5t91 68.5t99.5 55t90.5 49.5t66.5 58.5t25.5 74.5 q0 66 -62 108l52 82q76 -32 115.5 -79.5t39.5 -125.5q0 -59 -18.5 -108t-47.5 -82t-64.5 -61.5t-71 -55t-64.5 -54.5t-47.5 -67t-18.5 -86q0 -82 56.5 -131t144.5 -49z" />
<glyph unicode="&#xc0;" horiz-adv-x="1443" d="M1135 0l-154 360h-604l-154 -360h-203l590 1434h209l604 -1434h-288zM674 1118l-234 -581h473zM819 1556h-110l-170 68q-74 28 -74 96q0 36 24.5 63t65.5 27q34 0 58 -18.5t67 -69.5z" />
<glyph unicode="&#xc1;" horiz-adv-x="1443" d="M1135 0l-154 360h-604l-154 -360h-203l590 1434h209l604 -1434h-288zM674 1118l-234 -581h473zM721 1556h-111l140 166q43 52 66.5 70t57.5 18q41 0 66 -27t25 -63q0 -68 -74 -96z" />
<glyph unicode="&#xc2;" horiz-adv-x="1443" d="M1135 0l-154 360h-604l-154 -360h-203l590 1434h209l604 -1434h-288zM674 1118l-234 -581h473zM559 1556h-108l129 144q46 51 74.5 72.5t60.5 21.5q31 0 59.5 -21t75.5 -71l131 -146h-111l-155 89z" />
<glyph unicode="&#xc3;" horiz-adv-x="1443" d="M1135 0l-154 360h-604l-154 -360h-203l590 1434h209l604 -1434h-288zM674 1118l-234 -581h473zM922 1763h88q0 -97 -36.5 -153t-107.5 -56q-52 0 -149 35t-144 35q-51 0 -57 -68h-94q0 84 40 146.5t113 62.5q53 0 148 -34.5t141 -34.5q24 0 39.5 17t18.5 50z" />
<glyph unicode="&#xc4;" horiz-adv-x="1443" d="M1135 0l-154 360h-604l-154 -360h-203l590 1434h209l604 -1434h-288zM674 1118l-234 -581h473zM442 1655q0 40 28 68t69 28q40 0 68 -28t28 -68q0 -41 -28 -70t-68 -29q-41 0 -69 29t-28 70zM799 1655q0 40 28.5 68t69.5 28t68.5 -28t27.5 -68q0 -42 -27.5 -70.5 t-68.5 -28.5t-69.5 29t-28.5 70z" />
<glyph unicode="&#xc5;" horiz-adv-x="1443" d="M1135 0l-154 360h-604l-154 -360h-203l590 1434h209l604 -1434h-288zM674 1118l-234 -581h473zM526 1616q0 79 53.5 130.5t135.5 51.5q78 0 133 -50.5t55 -131.5q0 -80 -57 -130t-131 -50q-76 0 -132.5 50t-56.5 130zM631 1616q0 -34 24.5 -56t57.5 -22q37 0 61.5 22 t24.5 58q0 37 -24.5 59.5t-59.5 22.5t-59.5 -23t-24.5 -61z" />
<glyph unicode="&#xc6;" horiz-adv-x="1964" d="M10 0l901 1434h930v-170h-639l76 -430h543v-170h-510l86 -494h465v-170h-691l-69 391h-625l-246 -391h-221zM961 1176l-381 -617h489z" />
<glyph unicode="&#xc7;" horiz-adv-x="1482" d="M1374 1264l-86 -109q-73 66 -167 103.5t-234 37.5q-230 0 -371 -156.5t-141 -428.5q0 -261 139.5 -418.5t372.5 -157.5q271 0 430 148l84 -103q-60 -52 -102.5 -82.5t-109.5 -65t-150 -51t-185 -16.5q-169 0 -313 55.5t-244.5 153t-157.5 235.5t-57 300q0 160 57.5 300 t159 240.5t246 158.5t311.5 58q78 0 149 -13.5t120 -31t100 -48.5t79.5 -52.5t69.5 -56.5zM782 -168l6 82q29 0 57.5 -3t66.5 -14.5t66.5 -29.5t48.5 -52t20 -79q0 -76 -59.5 -116t-135.5 -40q-50 0 -109 21.5t-106 62.5l51 76q25 -15 66 -31t75 -16q68 0 68 57 q0 32 -28 55.5t-87 26.5z" />
<glyph unicode="&#xc8;" horiz-adv-x="1101" d="M999 0h-835v1434h825v-170h-540v-430h507v-170h-507v-494h550v-170zM676 1556h-111l-170 68q-73 28 -73 96q0 36 24.5 63t65.5 27q34 0 58 -18.5t67 -69.5z" />
<glyph unicode="&#xc9;" horiz-adv-x="1101" d="M999 0h-835v1434h825v-170h-540v-430h507v-170h-507v-494h550v-170zM580 1556h-111l139 166q43 51 67 69.5t58 18.5q41 0 65.5 -27t24.5 -63q0 -68 -73 -96z" />
<glyph unicode="&#xca;" horiz-adv-x="1101" d="M999 0h-835v1434h825v-170h-540v-430h507v-170h-507v-494h550v-170zM416 1556h-109l129 144q46 51 74.5 72.5t60.5 21.5q31 0 60.5 -21t75.5 -71l131 -146h-111l-156 89z" />
<glyph unicode="&#xcb;" horiz-adv-x="1101" d="M999 0h-835v1434h825v-170h-540v-430h507v-170h-507v-494h550v-170zM297 1655q0 40 27.5 68t68.5 28q40 0 68 -28t28 -68q0 -41 -28 -70t-68 -29q-41 0 -68.5 28.5t-27.5 70.5zM653 1655q0 40 29 68t70 28t68.5 -28t27.5 -68q0 -42 -27.5 -70.5t-68.5 -28.5t-70 29 t-29 70z" />
<glyph unicode="&#xcc;" horiz-adv-x="612" d="M449 0h-285v1434h285v-1434zM399 1556h-110l-170 68q-74 28 -74 96q0 36 24.5 63t65.5 27q34 0 58 -18.5t67 -69.5z" />
<glyph unicode="&#xcd;" horiz-adv-x="612" d="M449 0h-285v1434h285v-1434zM315 1556h-110l139 166q43 51 67 69.5t58 18.5q41 0 65.5 -27t24.5 -63q0 -68 -74 -96z" />
<glyph unicode="&#xce;" horiz-adv-x="612" d="M449 0h-285v1434h285v-1434zM143 1556h-108l129 144q46 51 74.5 72.5t60.5 21.5q31 0 59.5 -21t75.5 -71l131 -146h-110l-156 89z" />
<glyph unicode="&#xcf;" horiz-adv-x="612" d="M449 0h-285v1434h285v-1434zM31 1655q0 40 27.5 68t68.5 28q40 0 68 -28t28 -68q0 -41 -28 -70t-68 -29q-41 0 -68.5 28.5t-27.5 70.5zM387 1655q0 40 28.5 68t69.5 28t69 -28t28 -68q0 -41 -28 -70t-69 -29t-69.5 29t-28.5 70z" />
<glyph unicode="&#xd0;" horiz-adv-x="1482" d="M1401 721q0 -331 -217 -526t-598 -195h-408v649h-137v170h137v615h424q238 0 419.5 -88.5t280.5 -250.5t99 -374zM758 649h-295v-479h123q247 0 384.5 149t137.5 408q0 80 -16.5 154.5t-55 145t-96 122.5t-145 83.5t-195.5 31.5h-137v-445h295v-170z" />
<glyph unicode="&#xd1;" horiz-adv-x="1634" d="M158 0v1434h182l944 -1022v1022h193v-1434h-181l-946 1024v-1024h-192zM1030 1765h88q0 -97 -36 -153t-107 -56q-52 0 -149 35t-144 35q-51 0 -57 -67h-95q0 84 40.5 146t113.5 62q53 0 148 -34.5t141 -34.5q51 0 57 67z" />
<glyph unicode="&#xd2;" horiz-adv-x="1710" d="M82 711q0 166 61 308.5t165.5 239.5t246.5 152t301 55q169 0 313 -55.5t245 -154t157.5 -239t56.5 -304.5q0 -220 -101 -392t-276.5 -265t-394.5 -93q-223 0 -399 92.5t-275.5 263.5t-99.5 392zM375 711q0 -255 133.5 -415.5t347.5 -160.5t346.5 163.5t132.5 418.5 q0 260 -132 419.5t-347 159.5q-98 0 -184 -36.5t-153 -107t-105.5 -184t-38.5 -257.5zM948 1577h-110l-170 68q-74 28 -74 96q0 36 24.5 63t65.5 27q34 0 58 -18.5t67 -69.5z" />
<glyph unicode="&#xd3;" horiz-adv-x="1710" d="M82 711q0 166 61 308.5t165.5 239.5t246.5 152t301 55q169 0 313 -55.5t245 -154t157.5 -239t56.5 -304.5q0 -220 -101 -392t-276.5 -265t-394.5 -93q-223 0 -399 92.5t-275.5 263.5t-99.5 392zM375 711q0 -255 133.5 -415.5t347.5 -160.5t346.5 163.5t132.5 418.5 q0 260 -132 419.5t-347 159.5q-98 0 -184 -36.5t-153 -107t-105.5 -184t-38.5 -257.5zM879 1577h-111l139 166q43 51 67 69.5t58 18.5q41 0 65.5 -27t24.5 -63q0 -68 -73 -96z" />
<glyph unicode="&#xd4;" horiz-adv-x="1710" d="M82 711q0 166 61 308.5t165.5 239.5t246.5 152t301 55q169 0 313 -55.5t245 -154t157.5 -239t56.5 -304.5q0 -220 -101 -392t-276.5 -265t-394.5 -93q-223 0 -399 92.5t-275.5 263.5t-99.5 392zM375 711q0 -255 133.5 -415.5t347.5 -160.5t346.5 163.5t132.5 418.5 q0 260 -132 419.5t-347 159.5q-98 0 -184 -36.5t-153 -107t-105.5 -184t-38.5 -257.5zM700 1556h-108l129 144q46 51 74.5 72.5t60.5 21.5q31 0 59.5 -21t75.5 -71l131 -146h-110l-156 89z" />
<glyph unicode="&#xd5;" horiz-adv-x="1710" d="M82 711q0 166 61 308.5t165.5 239.5t246.5 152t301 55q169 0 313 -55.5t245 -154t157.5 -239t56.5 -304.5q0 -220 -101 -392t-276.5 -265t-394.5 -93q-223 0 -399 92.5t-275.5 263.5t-99.5 392zM375 711q0 -255 133.5 -415.5t347.5 -160.5t346.5 163.5t132.5 418.5 q0 260 -132 419.5t-347 159.5q-98 0 -184 -36.5t-153 -107t-105.5 -184t-38.5 -257.5zM1061 1786h88q0 -97 -36 -153t-107 -56q-52 0 -149 35t-144 35q-25 0 -40 -18t-18 -50h-94q0 84 40.5 146.5t113.5 62.5q53 0 148 -35t141 -35q51 0 57 68z" />
<glyph unicode="&#xd6;" horiz-adv-x="1710" d="M82 711q0 166 61 308.5t165.5 239.5t246.5 152t301 55q169 0 313 -55.5t245 -154t157.5 -239t56.5 -304.5q0 -220 -101 -392t-276.5 -265t-394.5 -93q-223 0 -399 92.5t-275.5 263.5t-99.5 392zM375 711q0 -255 133.5 -415.5t347.5 -160.5t346.5 163.5t132.5 418.5 q0 260 -132 419.5t-347 159.5q-98 0 -184 -36.5t-153 -107t-105.5 -184t-38.5 -257.5zM580 1675q0 40 27.5 68.5t68.5 28.5q40 0 68 -28.5t28 -68.5q0 -41 -28 -69.5t-68 -28.5q-41 0 -68.5 28.5t-27.5 69.5zM936 1675q0 40 28.5 68.5t69.5 28.5t68.5 -28.5t27.5 -68.5 q0 -41 -27.5 -69.5t-68.5 -28.5t-69.5 28.5t-28.5 69.5z" />
<glyph unicode="&#xd7;" d="M115 1059l137 137l346 -350l342 346l133 -135l-340 -346l350 -355l-135 -139l-352 354l-342 -344l-133 135l342 345z" />
<glyph unicode="&#xd8;" horiz-adv-x="1710" d="M82 711q0 166 61 308.5t165.5 239.5t246.5 152t301 55q196 0 350 -71l56 80h231l-125 -179q125 -103 192.5 -252t67.5 -331q0 -220 -101 -392t-276.5 -265t-394.5 -93q-193 0 -360 74l-56 -78h-231l125 180q-120 100 -186 246.5t-66 325.5zM1335 717q0 231 -104 381 l-621 -893q109 -70 246 -70q214 0 346.5 163.5t132.5 418.5zM375 711q0 -220 98 -369l621 891q-104 63 -238 63q-98 0 -184 -36.5t-153 -107t-105.5 -184t-38.5 -257.5z" />
<glyph unicode="&#xd9;" horiz-adv-x="1476" d="M1333 1434v-885q0 -272 -154.5 -428t-433.5 -156q-280 0 -441 154.5t-161 421.5v893h283v-893q0 -86 19 -157t58 -127.5t105.5 -88t155.5 -31.5t158.5 35t111.5 96t63 138.5t21 168.5v859h215zM854 1556h-111l-170 68q-73 28 -73 96q0 36 24.5 63t65.5 27q34 0 58 -18.5 t67 -69.5z" />
<glyph unicode="&#xda;" horiz-adv-x="1476" d="M1333 1434v-885q0 -272 -154.5 -428t-433.5 -156q-280 0 -441 154.5t-161 421.5v893h283v-893q0 -86 19 -157t58 -127.5t105.5 -88t155.5 -31.5t158.5 35t111.5 96t63 138.5t21 168.5v859h215zM737 1556h-110l139 166q43 51 67 69.5t58 18.5q41 0 65.5 -27t24.5 -63 q0 -68 -74 -96z" />
<glyph unicode="&#xdb;" horiz-adv-x="1476" d="M1333 1434v-885q0 -272 -154.5 -428t-433.5 -156q-280 0 -441 154.5t-161 421.5v893h283v-893q0 -86 19 -157t58 -127.5t105.5 -88t155.5 -31.5t158.5 35t111.5 96t63 138.5t21 168.5v859h215zM610 1556h-108l129 144q46 51 74.5 72.5t60.5 21.5q31 0 59.5 -21t75.5 -71 l131 -146h-110l-156 89z" />
<glyph unicode="&#xdc;" horiz-adv-x="1476" d="M1333 1434v-885q0 -272 -154.5 -428t-433.5 -156q-280 0 -441 154.5t-161 421.5v893h283v-893q0 -86 19 -157t58 -127.5t105.5 -88t155.5 -31.5t158.5 35t111.5 96t63 138.5t21 168.5v859h215zM489 1655q0 40 28 68t69 28q40 0 68 -28t28 -68q0 -41 -28 -70t-68 -29 q-41 0 -69 29t-28 70zM846 1655q0 40 28.5 68t69.5 28t68.5 -28t27.5 -68q0 -42 -27.5 -70.5t-68.5 -28.5t-69.5 29t-28.5 70z" />
<glyph unicode="&#xdd;" horiz-adv-x="1249" d="M1229 1434l-477 -793v-641h-285v645l-447 789h289l348 -609l367 609h205zM672 1556h-111l139 166q43 51 67 69.5t58 18.5q41 0 65.5 -27t24.5 -63q0 -68 -73 -96z" />
<glyph unicode="&#xde;" horiz-adv-x="1202" d="M436 0h-278v1434h278v-283h66q308 0 463 -95.5t155 -314.5q0 -205 -126.5 -317.5t-358.5 -112.5h-199v-311zM850 735q0 119 -71.5 189.5t-213.5 70.5h-129v-524h146q144 0 206 69.5t62 194.5z" />
<glyph unicode="&#xdf;" horiz-adv-x="1288" d="M762 766q0 -37 26 -65t67.5 -48.5t92 -40.5t100.5 -46t91.5 -59.5t67.5 -88t26 -123.5q0 -154 -103 -239t-296 -85q-79 0 -145 21t-98 43t-71 57l72 92q87 -78 229 -78q92 0 135 43t43 111q0 40 -26 71t-68 52t-92.5 40.5t-100.5 44t-92 56.5t-68 84t-26 119 q0 54 19.5 95.5t50.5 68.5t68.5 49.5t74.5 44.5t68 47.5t50.5 65t19.5 90.5q0 90 -62.5 147.5t-167.5 57.5q-106 0 -170.5 -62.5t-64.5 -183.5v-1147h-258v1112q0 202 131 320t350 118q121 0 223 -43t165.5 -127t63.5 -192q0 -57 -18 -103t-46.5 -76t-63.5 -54.5t-69.5 -44 t-63 -39.5t-46.5 -46.5t-18 -58.5z" />
<glyph unicode="&#xe0;" horiz-adv-x="1120" d="M997 0h-249v123q-92 -152 -302 -152q-380 0 -380 320q0 153 111 237t315 84h256v39q0 106 -64.5 164.5t-173.5 58.5q-183 0 -320 -120l-73 88q102 94 202 132t234 38q99 0 178.5 -23.5t139.5 -70.5t93 -124.5t33 -179.5v-614zM748 373v108h-242q-93 0 -146 -47t-53 -139 q0 -87 51.5 -136.5t137.5 -49.5q116 0 184 73t68 191zM653 1147h-129l-149 102q-40 28 -59 51t-19 54q0 35 24 65.5t72 30.5q24 0 46 -11.5t45.5 -39t39 -50t43.5 -67.5z" />
<glyph unicode="&#xe1;" horiz-adv-x="1120" d="M997 0h-249v123q-92 -152 -302 -152q-380 0 -380 320q0 153 111 237t315 84h256v39q0 106 -64.5 164.5t-173.5 58.5q-183 0 -320 -120l-73 88q102 94 202 132t234 38q99 0 178.5 -23.5t139.5 -70.5t93 -124.5t33 -179.5v-614zM748 373v108h-242q-93 0 -146 -47t-53 -139 q0 -87 51.5 -136.5t137.5 -49.5q116 0 184 73t68 191zM557 1147h-129l137 199q25 36 39.5 53.5t37.5 34t46 16.5q50 0 77.5 -29t27.5 -69q0 -30 -21 -52t-65 -51z" />
<glyph unicode="&#xe2;" horiz-adv-x="1120" d="M997 0h-249v123q-92 -152 -302 -152q-380 0 -380 320q0 153 111 237t315 84h256v39q0 106 -64.5 164.5t-173.5 58.5q-183 0 -320 -120l-73 88q102 94 202 132t234 38q99 0 178.5 -23.5t139.5 -70.5t93 -124.5t33 -179.5v-614zM748 373v108h-242q-93 0 -146 -47t-53 -139 q0 -87 51.5 -136.5t137.5 -49.5q116 0 184 73t68 191zM369 1147h-117l170 209q68 86 129 86q56 0 125 -86l174 -209h-121l-180 115z" />
<glyph unicode="&#xe3;" horiz-adv-x="1120" d="M997 0h-249v123q-92 -152 -302 -152q-380 0 -380 320q0 153 111 237t315 84h256v39q0 106 -64.5 164.5t-173.5 58.5q-183 0 -320 -120l-73 88q102 94 202 132t234 38q99 0 178.5 -23.5t139.5 -70.5t93 -124.5t33 -179.5v-614zM748 373v108h-242q-93 0 -146 -47t-53 -139 q0 -87 51.5 -136.5t137.5 -49.5q116 0 184 73t68 191zM877 1339q-10 -102 -60.5 -155.5t-130.5 -53.5q-49 0 -100 23t-92.5 45.5t-65.5 22.5q-68 0 -94 -86l-88 28q14 85 64.5 145t123.5 60q43 0 93 -23.5t93 -47t68 -23.5q40 0 65 19t33 69z" />
<glyph unicode="&#xe4;" horiz-adv-x="1120" d="M997 0h-249v123q-92 -152 -302 -152q-380 0 -380 320q0 153 111 237t315 84h256v39q0 106 -64.5 164.5t-173.5 58.5q-183 0 -320 -120l-73 88q102 94 202 132t234 38q99 0 178.5 -23.5t139.5 -70.5t93 -124.5t33 -179.5v-614zM748 373v108h-242q-93 0 -146 -47t-53 -139 q0 -87 51.5 -136.5t137.5 -49.5q116 0 184 73t68 191zM231 1266q0 52 37 88.5t90 36.5q54 0 91.5 -36.5t37.5 -88.5q0 -54 -37.5 -91.5t-91.5 -37.5q-53 0 -90 37.5t-37 91.5zM618 1266q0 52 37 88.5t90 36.5q54 0 90.5 -36t36.5 -89q0 -54 -37 -91.5t-90 -37.5 q-54 0 -90.5 37.5t-36.5 91.5z" />
<glyph unicode="&#xe5;" horiz-adv-x="1120" d="M997 0h-249v123q-92 -152 -302 -152q-380 0 -380 320q0 153 111 237t315 84h256v39q0 106 -64.5 164.5t-173.5 58.5q-183 0 -320 -120l-73 88q102 94 202 132t234 38q99 0 178.5 -23.5t139.5 -70.5t93 -124.5t33 -179.5v-614zM748 373v108h-242q-93 0 -146 -47t-53 -139 q0 -87 51.5 -136.5t137.5 -49.5q116 0 184 73t68 191zM752 1288q0 -87 -63 -141.5t-144 -54.5q-86 0 -147.5 53.5t-61.5 142.5q0 86 59.5 142.5t149.5 56.5q86 0 146.5 -55.5t60.5 -143.5zM635 1290q0 40 -26 65t-64 25t-65 -25.5t-27 -66.5q0 -39 26 -63.5t64 -24.5 q39 0 65.5 25.5t26.5 64.5z" />
<glyph unicode="&#xe6;" horiz-adv-x="1880" d="M1808 453h-770q0 -141 75.5 -242.5t203.5 -101.5q114 0 195 39t147 112l80 -80q-156 -207 -426 -207q-263 0 -410 160q-63 -54 -121.5 -88t-117.5 -48.5t-104.5 -19t-113.5 -4.5q-380 0 -380 318q0 153 111 237t315 84h256v39q0 106 -64.5 164.5t-173.5 58.5 q-183 0 -320 -120l-73 88q102 94 202 132t234 38q125 0 222 -39t153 -117q153 143 383 143q162 0 276 -72.5t167.5 -193.5t53.5 -280zM748 373v108h-242q-93 0 -146 -47t-53 -139q0 -87 51.5 -136.5t137.5 -49.5q116 0 184 73t68 191zM1571 594q-11 119 -83 193.5t-177 74.5 q-104 0 -178.5 -75.5t-88.5 -192.5h527z" />
<glyph unicode="&#xe7;" horiz-adv-x="1005" d="M950 145q-82 -88 -173 -130t-204 -42q-118 0 -215.5 41t-162 111.5t-99.5 164t-35 199.5q0 141 62 257.5t181 187t271 70.5q208 0 369 -168l-78 -91q-111 117 -262 117q-125 0 -201.5 -100.5t-76.5 -276.5q0 -177 76 -273.5t204 -96.5q146 0 264 121zM487 -168l7 82 q37 0 74.5 -6t82.5 -23t73 -55.5t28 -93.5q0 -76 -59.5 -116t-135.5 -40q-50 0 -109 21.5t-106 62.5l51 76q25 -15 66.5 -31t75.5 -16q67 0 67 57q0 32 -28 55.5t-87 26.5z" />
<glyph unicode="&#xe8;" horiz-adv-x="1167" d="M1096 453h-768q0 -91 31 -168t95 -126.5t150 -49.5q114 0 195 39t147 112l80 -80q-156 -207 -426 -207q-242 0 -390.5 141.5t-148.5 368.5q0 225 151.5 370.5t385.5 145.5q122 0 218 -41.5t156.5 -115.5t92 -173t31.5 -216zM858 594q-11 119 -83 193.5t-177 74.5 q-104 0 -177 -75t-87 -193h524zM694 1147h-129l-149 102q-40 28 -59 51t-19 54q0 35 24 65.5t72 30.5q24 0 46 -11.5t45.5 -39t39 -50t43.5 -67.5z" />
<glyph unicode="&#xe9;" horiz-adv-x="1167" d="M1096 453h-768q0 -91 31 -168t95 -126.5t150 -49.5q114 0 195 39t147 112l80 -80q-156 -207 -426 -207q-242 0 -390.5 141.5t-148.5 368.5q0 225 151.5 370.5t385.5 145.5q122 0 218 -41.5t156.5 -115.5t92 -173t31.5 -216zM858 594q-11 119 -83 193.5t-177 74.5 q-104 0 -177 -75t-87 -193h524zM602 1147h-129l137 199q25 36 39.5 53.5t37.5 34t46 16.5q50 0 77.5 -29t27.5 -69q0 -30 -21 -52t-65 -51z" />
<glyph unicode="&#xea;" horiz-adv-x="1167" d="M1096 453h-768q0 -91 31 -168t95 -126.5t150 -49.5q114 0 195 39t147 112l80 -80q-156 -207 -426 -207q-242 0 -390.5 141.5t-148.5 368.5q0 225 151.5 370.5t385.5 145.5q122 0 218 -41.5t156.5 -115.5t92 -173t31.5 -216zM858 594q-11 119 -83 193.5t-177 74.5 q-104 0 -177 -75t-87 -193h524zM414 1147h-117l170 209q68 86 129 86q56 0 125 -86l174 -209h-121l-180 115z" />
<glyph unicode="&#xeb;" horiz-adv-x="1167" d="M1096 453h-768q0 -91 31 -168t95 -126.5t150 -49.5q114 0 195 39t147 112l80 -80q-156 -207 -426 -207q-242 0 -390.5 141.5t-148.5 368.5q0 225 151.5 370.5t385.5 145.5q122 0 218 -41.5t156.5 -115.5t92 -173t31.5 -216zM858 594q-11 119 -83 193.5t-177 74.5 q-104 0 -177 -75t-87 -193h524zM274 1266q0 52 37 88.5t90 36.5q54 0 91.5 -36.5t37.5 -88.5q0 -54 -37.5 -91.5t-91.5 -37.5q-53 0 -90 37.5t-37 91.5zM662 1266q0 52 36.5 88.5t89.5 36.5q54 0 90.5 -36t36.5 -89q0 -54 -37 -91.5t-90 -37.5q-54 0 -90 37.5t-36 91.5z" />
<glyph unicode="&#xec;" horiz-adv-x="514" d="M352 1147h-129l-149 102q-40 28 -59 51t-19 54q0 35 24 65.5t72 30.5q24 0 46 -11.5t45.5 -39t39 -50t43.5 -67.5zM385 0h-258v971h258v-971z" />
<glyph unicode="&#xed;" horiz-adv-x="514" d="M287 1147h-129l137 199q25 36 39.5 53.5t37.5 34t46 16.5q50 0 77 -29t27 -69q0 -30 -21 -52t-65 -51zM385 0h-258v971h258v-971z" />
<glyph unicode="&#xee;" horiz-adv-x="514" d="M385 0h-258v971h258v-971zM76 1147h-117l170 209q68 86 129 86q56 0 125 -86l174 -209h-121l-180 115z" />
<glyph unicode="&#xef;" horiz-adv-x="514" d="M-63 1270q0 52 36.5 88.5t89.5 36.5q54 0 92 -36.5t38 -88.5q0 -54 -38 -91.5t-92 -37.5q-53 0 -89.5 37.5t-36.5 91.5zM324 1270q0 52 37 88.5t90 36.5q54 0 90.5 -36t36.5 -89q0 -54 -37 -91.5t-90 -37.5q-54 0 -90.5 37.5t-36.5 91.5zM385 0h-258v971h258v-971z" />
<glyph unicode="&#xf0;" horiz-adv-x="1208" d="M301 1130l-55 93l223 125q-30 23 -68 46t-58.5 33.5t-73 35.5t-62.5 30l51 109q194 -65 360 -168l273 153l55 -94l-227 -127q93 -73 168 -158t135 -189.5t92.5 -233t32.5 -269.5q0 -114 -36 -212.5t-103 -172.5t-170.5 -116t-231.5 -42q-249 0 -397 142.5t-148 371.5 q0 225 154 369.5t391 144.5q110 0 195 -59q-66 179 -242 334zM885 494q0 155 -73.5 255.5t-207.5 100.5q-133 0 -205.5 -100.5t-72.5 -255.5q0 -107 28 -188.5t92.5 -132t159.5 -50.5q132 0 205.5 103.5t73.5 267.5z" />
<glyph unicode="&#xf1;" d="M1079 0h-258v633q0 211 -180 211q-112 0 -184 -80t-72 -182v-582h-258v971h258v-123q43 66 130.5 111t186.5 45q126 0 213 -54t125.5 -140.5t38.5 -197.5v-612zM924 1337q-10 -102 -60.5 -155.5t-130.5 -53.5q-49 0 -100 23t-92.5 45.5t-65.5 22.5q-68 0 -94 -86l-88 28 q14 85 64.5 145t123.5 60q43 0 93 -23.5t93 -47t68 -23.5q40 0 65.5 19t33.5 69z" />
<glyph unicode="&#xf2;" horiz-adv-x="1208" d="M1147 483q0 -225 -152 -367.5t-389 -142.5q-249 0 -397 142.5t-148 371.5q0 225 154 369.5t391 144.5q152 0 275 -64t194.5 -183t71.5 -271zM885 494q0 155 -73.5 255.5t-207.5 100.5q-133 0 -205.5 -100.5t-72.5 -255.5q0 -107 28 -188.5t92.5 -132t159.5 -50.5 q132 0 205.5 103.5t73.5 267.5zM692 1147h-129l-149 102q-40 28 -59 51t-19 54q0 35 24 65.5t72 30.5q24 0 46 -11.5t45.5 -39t39 -50t43.5 -67.5z" />
<glyph unicode="&#xf3;" horiz-adv-x="1208" d="M1147 483q0 -225 -152 -367.5t-389 -142.5q-249 0 -397 142.5t-148 371.5q0 225 154 369.5t391 144.5q152 0 275 -64t194.5 -183t71.5 -271zM885 494q0 155 -73.5 255.5t-207.5 100.5q-133 0 -205.5 -100.5t-72.5 -255.5q0 -107 28 -188.5t92.5 -132t159.5 -50.5 q132 0 205.5 103.5t73.5 267.5zM627 1147h-129l137 199q25 36 39.5 53.5t37.5 34t46 16.5q50 0 77 -29t27 -69q0 -30 -21 -52t-65 -51z" />
<glyph unicode="&#xf4;" horiz-adv-x="1208" d="M1147 483q0 -225 -152 -367.5t-389 -142.5q-249 0 -397 142.5t-148 371.5q0 225 154 369.5t391 144.5q152 0 275 -64t194.5 -183t71.5 -271zM885 494q0 155 -73.5 255.5t-207.5 100.5q-133 0 -205.5 -100.5t-72.5 -255.5q0 -107 28 -188.5t92.5 -132t159.5 -50.5 q132 0 205.5 103.5t73.5 267.5zM418 1147h-117l170 209q68 86 129 86q56 0 125 -86l174 -209h-121l-180 115z" />
<glyph unicode="&#xf5;" horiz-adv-x="1208" d="M1147 483q0 -225 -152 -367.5t-389 -142.5q-249 0 -397 142.5t-148 371.5q0 225 154 369.5t391 144.5q152 0 275 -64t194.5 -183t71.5 -271zM885 494q0 155 -73.5 255.5t-207.5 100.5q-133 0 -205.5 -100.5t-72.5 -255.5q0 -107 28 -188.5t92.5 -132t159.5 -50.5 q132 0 205.5 103.5t73.5 267.5zM928 1339q-10 -102 -60.5 -155.5t-130.5 -53.5q-49 0 -100 23t-92.5 45.5t-65.5 22.5q-68 0 -94 -86l-88 28q14 85 64.5 145t123.5 60q43 0 93 -23.5t93 -47t68 -23.5q40 0 65.5 19t33.5 69z" />
<glyph unicode="&#xf6;" horiz-adv-x="1208" d="M1147 483q0 -225 -152 -367.5t-389 -142.5q-249 0 -397 142.5t-148 371.5q0 225 154 369.5t391 144.5q152 0 275 -64t194.5 -183t71.5 -271zM885 494q0 155 -73.5 255.5t-207.5 100.5q-133 0 -205.5 -100.5t-72.5 -255.5q0 -107 28 -188.5t92.5 -132t159.5 -50.5 q132 0 205.5 103.5t73.5 267.5zM281 1266q0 52 37 88.5t90 36.5q54 0 91.5 -36.5t37.5 -88.5q0 -54 -37.5 -91.5t-91.5 -37.5q-53 0 -90 37.5t-37 91.5zM668 1266q0 52 37 88.5t90 36.5q54 0 90.5 -36t36.5 -89q0 -54 -37 -91.5t-90 -37.5q-54 0 -90.5 37.5t-36.5 91.5z" />
<glyph unicode="&#xf7;" horiz-adv-x="1175" d="M739 1071q0 -67 -42 -113.5t-107 -46.5t-108.5 46.5t-43.5 113.5t43 109.5t111 42.5q64 0 105.5 -42.5t41.5 -109.5zM739 354q0 -66 -42.5 -108.5t-108.5 -42.5q-65 0 -107.5 42.5t-42.5 108.5t43 109t109 43q64 0 105.5 -43t43.5 -109zM78 809h1022v-193h-1022v193z" />
<glyph unicode="&#xf8;" horiz-adv-x="1208" d="M1147 483q0 -226 -151.5 -369t-389.5 -143q-125 0 -237 45l-78 -127l-70 39l76 125q-112 67 -174 181.5t-62 252.5q0 148 70.5 266t195 183t279.5 65q126 0 232 -47l73 123l72 -41l-72 -118q110 -68 173 -180.5t63 -254.5zM885 494q0 153 -82 251l-334 -567 q61 -39 139 -39q127 0 202 99t75 256zM739 797q-61 39 -135 39q-128 0 -202 -96.5t-74 -245.5q0 -167 78 -263z" />
<glyph unicode="&#xf9;" d="M119 971h260v-633q0 -211 166 -211q116 0 192 78.5t76 183.5v582h258v-971h-258v123q-44 -67 -131 -111.5t-186 -44.5q-95 0 -169 30.5t-118.5 84.5t-67 124t-22.5 152v613zM678 1147h-129l-150 102q-40 28 -58.5 51t-18.5 54q0 35 24 65.5t72 30.5q24 0 46 -11.5 t45.5 -39t39 -50t43.5 -67.5z" />
<glyph unicode="&#xfa;" d="M119 971h260v-633q0 -211 166 -211q116 0 192 78.5t76 183.5v582h258v-971h-258v123q-44 -67 -131 -111.5t-186 -44.5q-95 0 -169 30.5t-118.5 84.5t-67 124t-22.5 152v613zM621 1147h-129l137 199q25 36 39.5 53.5t37.5 34t46 16.5q50 0 77 -29t27 -69q0 -30 -21 -52 t-65 -51z" />
<glyph unicode="&#xfb;" d="M119 971h260v-633q0 -211 166 -211q116 0 192 78.5t76 183.5v582h258v-971h-258v123q-44 -67 -131 -111.5t-186 -44.5q-95 0 -169 30.5t-118.5 84.5t-67 124t-22.5 152v613zM412 1147h-117l170 209q68 86 129 86q56 0 125 -86l174 -209h-121l-180 115z" />
<glyph unicode="&#xfc;" d="M119 971h260v-633q0 -211 166 -211q116 0 192 78.5t76 183.5v582h258v-971h-258v123q-44 -67 -131 -111.5t-186 -44.5q-95 0 -169 30.5t-118.5 84.5t-67 124t-22.5 152v613zM276 1266q0 52 37 88.5t90 36.5q54 0 91.5 -36.5t37.5 -88.5q0 -54 -37.5 -91.5t-91.5 -37.5 q-53 0 -90 37.5t-37 91.5zM664 1266q0 52 37 88.5t90 36.5q54 0 90.5 -36t36.5 -89q0 -54 -37 -91.5t-90 -37.5q-54 0 -90.5 37.5t-36.5 91.5z" />
<glyph unicode="&#xfd;" horiz-adv-x="1128" d="M1108 971l-680 -1444h-199l244 514l-453 930h273l309 -674l320 674h186zM629 1147h-129l137 199q25 36 39.5 53.5t37.5 34t46 16.5q50 0 77 -29t27 -69q0 -30 -21 -52t-65 -51z" />
<glyph unicode="&#xfe;" horiz-adv-x="1263" d="M1202 475q0 -136 -60.5 -249.5t-173 -182t-255.5 -68.5q-222 0 -326 138h-2v-578h-258v1989h258v-688h2q46 75 131.5 120t194.5 45q143 0 255.5 -71.5t173 -191.5t60.5 -263zM940 479q0 171 -72.5 277t-203.5 106q-134 0 -209.5 -98t-75.5 -279q0 -180 74.5 -278 t212.5 -98q129 0 201.5 101.5t72.5 268.5z" />
<glyph unicode="&#xff;" horiz-adv-x="1128" d="M1108 971l-680 -1444h-199l244 514l-453 930h273l309 -674l320 674h186zM291 1266q0 52 37 88.5t90 36.5q54 0 91.5 -36.5t37.5 -88.5q0 -54 -37.5 -91.5t-91.5 -37.5q-53 0 -90 37.5t-37 91.5zM678 1266q0 52 37 88.5t90 36.5q54 0 90.5 -36t36.5 -89q0 -54 -37 -91.5 t-90 -37.5q-54 0 -90.5 37.5t-36.5 91.5z" />
<glyph unicode="&#x152;" horiz-adv-x="2027" d="M1925 0h-713q-53 0 -171 -18.5t-185 -18.5q-223 0 -399 92.5t-275.5 263.5t-99.5 392q0 166 61 308.5t165.5 239.5t246.5 152t301 55q66 0 182.5 -16t159.5 -16h719v-170h-543v-430h510v-170h-510v-494h551v-170zM856 135q146 0 234 58v1048q-92 55 -234 55 q-98 0 -184 -36.5t-153 -107t-105.5 -184t-38.5 -257.5q0 -255 133.5 -415.5t347.5 -160.5z" />
<glyph unicode="&#x153;" horiz-adv-x="1988" d="M1917 453h-770q0 -89 32 -166.5t96.5 -127.5t149.5 -50q208 0 342 151l80 -80q-156 -207 -426 -207q-264 0 -407 170q-72 -81 -177 -125.5t-231 -44.5q-249 0 -397 142.5t-148 371.5q0 225 154 369.5t391 144.5q125 0 231 -46t179 -130q71 83 176 128.5t229 45.5 q122 0 218 -41.5t156 -116t91 -173t31 -215.5zM885 494q0 156 -74.5 256t-206.5 100q-133 0 -205.5 -100.5t-72.5 -255.5q0 -107 28 -188.5t92.5 -132t159.5 -50.5q131 0 205 102.5t74 268.5zM1681 594q-12 119 -84.5 193.5t-177.5 74.5q-104 0 -177.5 -75t-88.5 -193h528z " />
<glyph unicode="&#x178;" horiz-adv-x="1249" d="M1229 1434l-477 -793v-641h-285v645l-447 789h289l348 -609l367 609h205zM399 1655q0 40 28 68t69 28q40 0 68 -28t28 -68q0 -41 -28 -70t-68 -29q-41 0 -69 29t-28 70zM756 1655q0 40 28.5 68t69.5 28t68.5 -28t27.5 -68q0 -42 -27.5 -70.5t-68.5 -28.5t-69.5 29 t-28.5 70z" />
<glyph unicode="&#x2c6;" horiz-adv-x="720" d="M178 1110h-117l170 209q68 86 129 86q56 0 125 -86l174 -209h-120l-181 115z" />
<glyph unicode="&#x2dc;" horiz-adv-x="753" d="M692 1327q-10 -102 -60 -155.5t-130 -53.5q-49 0 -100 22.5t-92.5 45t-65.5 22.5q-68 0 -94 -86l-89 29q14 85 65 145t124 60q43 0 93 -23.5t93 -47t68 -23.5q40 0 65 19t33 69z" />
<glyph unicode="&#x2000;" horiz-adv-x="915" />
<glyph unicode="&#x2001;" horiz-adv-x="1831" />
<glyph unicode="&#x2002;" horiz-adv-x="915" />
<glyph unicode="&#x2003;" horiz-adv-x="1831" />
<glyph unicode="&#x2004;" horiz-adv-x="610" />
<glyph unicode="&#x2005;" horiz-adv-x="457" />
<glyph unicode="&#x2006;" horiz-adv-x="305" />
<glyph unicode="&#x2007;" horiz-adv-x="305" />
<glyph unicode="&#x2008;" horiz-adv-x="228" />
<glyph unicode="&#x2009;" horiz-adv-x="366" />
<glyph unicode="&#x200a;" horiz-adv-x="101" />
<glyph unicode="&#x2010;" horiz-adv-x="739" d="M616 375h-493v215h493v-215z" />
<glyph unicode="&#x2011;" horiz-adv-x="739" d="M616 375h-493v215h493v-215z" />
<glyph unicode="&#x2012;" horiz-adv-x="739" d="M616 375h-493v215h493v-215z" />
<glyph unicode="&#x2013;" horiz-adv-x="1021" d="M1038 522h-1018v205h1018v-205z" />
<glyph unicode="&#x2014;" horiz-adv-x="2043" d="M2095 522h-2075v205h2075v-205z" />
<glyph unicode="&#x2018;" horiz-adv-x="491" d="M346 1038q-34 -164 -145 -164q-58 0 -93.5 33t-35.5 88q0 76 84 203l172 258l92 -35z" />
<glyph unicode="&#x2019;" horiz-adv-x="491" d="M420 1335q0 -75 -84 -202l-172 -259q-15 5 -46 17.5t-46 17.5l73 383q30 164 146 164q58 0 93.5 -33t35.5 -88z" />
<glyph unicode="&#x201a;" horiz-adv-x="491" d="M420 168q0 -74 -84 -201l-172 -258q-16 5 -46 17.5t-46 17.5l73 381q13 74 49 120t97 46q58 0 93.5 -33.5t35.5 -89.5z" />
<glyph unicode="&#x201c;" horiz-adv-x="919" d="M346 1038q-34 -164 -145 -164q-58 0 -93.5 33t-35.5 88q0 76 84 203l172 258l92 -35zM774 1038q-13 -73 -49 -118.5t-98 -45.5q-56 0 -92.5 33t-36.5 88q0 77 86 203l172 258l92 -35z" />
<glyph unicode="&#x201d;" horiz-adv-x="919" d="M848 1335q0 -75 -84 -202l-174 -259q-15 5 -45.5 17.5t-46.5 17.5l75 383q30 164 146 164q58 0 93.5 -33t35.5 -88zM420 1335q0 -75 -84 -202l-172 -259q-15 5 -46 17.5t-46 17.5l73 383q30 164 146 164q58 0 93.5 -33t35.5 -88z" />
<glyph unicode="&#x201e;" horiz-adv-x="919" d="M848 170q0 -76 -84 -203l-174 -258l-92 37l75 381q30 164 146 164q58 0 93.5 -33t35.5 -88zM420 170q0 -76 -84 -203l-172 -258l-92 37l73 381q30 164 146 164q58 0 93.5 -33t35.5 -88z" />
<glyph unicode="&#x2022;" horiz-adv-x="532" d="M410 723q0 -60 -41.5 -102.5t-100.5 -42.5q-60 0 -102.5 42.5t-42.5 102.5q0 59 42.5 101t102.5 42q58 0 100 -42t42 -101z" />
<glyph unicode="&#x2026;" horiz-adv-x="1472" d="M397 139q0 -63 -44 -108t-107 -45q-65 0 -109.5 44.5t-44.5 108.5q0 66 45 112t109 46q63 0 107 -46t44 -112zM889 139q0 -63 -45 -108t-109 -45t-108.5 45t-44.5 108q0 66 44.5 112t108.5 46t109 -46t45 -112zM1380 139q0 -63 -44.5 -108t-108.5 -45q-65 0 -109.5 44.5 t-44.5 108.5q0 66 45 112t109 46t108.5 -46t44.5 -112z" />
<glyph unicode="&#x202f;" horiz-adv-x="366" />
<glyph unicode="&#x2039;" horiz-adv-x="534" d="M438 223l-49 -96q-58 20 -110 53.5t-96.5 81t-70.5 112t-26 136.5q0 141 87.5 241t215.5 144l47 -96q-69 -26 -118.5 -105.5t-49.5 -183.5q0 -107 51 -184t119 -103z" />
<glyph unicode="&#x203a;" horiz-adv-x="534" d="M449 510q0 -72 -26.5 -136.5t-71 -112t-96.5 -81t-110 -53.5l-49 96q67 26 118.5 103.5t51.5 183.5q0 104 -50 183.5t-120 105.5l49 96q128 -44 216 -144t88 -241z" />
<glyph unicode="&#x205f;" horiz-adv-x="457" />
<glyph unicode="&#x20ac;" horiz-adv-x="1613" d="M1196 516h-666q46 -178 174.5 -279.5t313.5 -101.5q264 0 430 148l84 -105q-60 -52 -102.5 -82.5t-109.5 -65t-150 -51t-185 -16.5q-287 0 -489 150.5t-263 402.5h-178l49 139h109q-2 16 -2 54q0 55 4 84h-160l49 137h138q68 241 269 388.5t474 147.5q97 0 178.5 -17.5 t146.5 -51.5t104.5 -61.5t90.5 -71.5l-88 -109q-74 65 -167.5 103t-233.5 38q-177 0 -304.5 -97t-174.5 -269h802l-49 -137h-782q-2 -27 -2 -82v-56h737z" />
<glyph unicode="&#x2122;" horiz-adv-x="1658" d="M610 1321h-178v-598h-180v598h-180v113h538v-113zM1587 723h-172l-59 395l-182 -395h-84l-197 395l-66 -395h-133l117 711h119l221 -457l211 457h119z" />
<glyph unicode="&#x25fc;" horiz-adv-x="972" d="M0 973h973v-973h-973v973z" />
</font>
</defs>
</svg>
