<!-- Generator: Adobe Illustrator 19.1.1, SVG Export Plug-In  -->
<svg version="1.1"
	 xmlns="http://www.w3.org/2000/svg" xmlns:xlink="http://www.w3.org/1999/xlink" xmlns:a="http://ns.adobe.com/AdobeSVGViewerExtensions/3.0/"
	 x="0px" y="0px" width="13.4px" height="13.4px" viewBox="0 0 13.4 13.4" style="enable-background:new 0 0 13.4 13.4;"
	 xml:space="preserve">
<style type="text/css">
	.st0{fill:#6D6F71;}
</style>
<defs>
</defs>
<g>
	<g>
		<path class="st0" d="M12.9,13.2c-0.1,0-0.3,0-0.3-0.1L0.2,1C0,0.9-0.1,0.5,0.1,0.3c0.2-0.2,0.5-0.2,0.7,0l12.4,12
			c0.2,0.2,0.2,0.5,0,0.7C13.1,13.1,13,13.2,12.9,13.2z"/>
	</g>
	<g>
		<path class="st0" d="M0.7,13.4c-0.1,0-0.3,0-0.3-0.1c-0.2-0.2-0.2-0.5,0-0.7l12-12.4c0.2-0.2,0.5-0.2,0.7,0c0.2,0.2,0.2,0.5,0,0.7
			L1,13.2C0.9,13.3,0.8,13.4,0.7,13.4z"/>
	</g>
</g>
</svg>
