<!-- Generator: Adobe Illustrator 19.1.1, SVG Export Plug-In  -->
<svg version="1.1"
	 xmlns="http://www.w3.org/2000/svg" xmlns:xlink="http://www.w3.org/1999/xlink" xmlns:a="http://ns.adobe.com/AdobeSVGViewerExtensions/3.0/"
	 x="0px" y="0px" width="42.7px" height="27.8px" viewBox="0 0 42.7 27.8" style="enable-background:new 0 0 42.7 27.8;"
	 xml:space="preserve">
<style type="text/css">
	.st0{fill:#A7A7A6;}
</style>
<defs>
</defs>
<g>
	<path class="st0" d="M21.4,14.3c1.1,0,2.2-0.4,3-1.2l0.1-0.1L40.7,0.9C40.1,0.3,39.3,0,38.4,0H4.3C3.4,0,2.6,0.3,2,0.9l16.3,12.2
		C19.1,13.9,20.2,14.3,21.4,14.3z"/>
	<path class="st0" d="M0.4,2.3C0.3,2.2,0.2,2.2,0.2,2.1C0.1,2.4,0,2.8,0,3.2v21.4c0,0.4,0.1,0.8,0.2,1.1c0.1-0.1,0.1-0.2,0.2-0.2
		l0.1-0.1l15.3-11.5L0.4,2.3z"/>
	<path class="st0" d="M21.4,16.5c-1.4,0-2.7-0.4-3.8-1.2L2,26.9c0.6,0.6,1.4,0.9,2.2,0.9h34.2c0.8,0,1.6-0.3,2.2-0.9L25.1,15.2
		C24.1,16,22.7,16.5,21.4,16.5z"/>
	<path class="st0" d="M42.6,2.1c-0.1,0.1-0.1,0.2-0.2,0.2l-0.1,0.1L26.9,13.9l15.4,11.6c0.1,0.1,0.1,0.2,0.2,0.2
		c0.1-0.4,0.2-0.7,0.2-1.1V3.2C42.7,2.8,42.6,2.4,42.6,2.1z"/>
</g>
</svg>
