<!-- Generator: Adobe Illustrator 19.1.1, SVG Export Plug-In  -->
<svg version="1.1"
	 xmlns="http://www.w3.org/2000/svg" xmlns:xlink="http://www.w3.org/1999/xlink" xmlns:a="http://ns.adobe.com/AdobeSVGViewerExtensions/3.0/"
	 x="0px" y="0px" width="45px" height="43.3px" viewBox="0 0 45 43.3" style="enable-background:new 0 0 45 43.3;"
	 xml:space="preserve">
<style type="text/css">
	.st0{fill:#A7A7A6;}
</style>
<defs>
</defs>
<path class="st0" d="M38.8,0H9C4.8,0,0,2.8,0,7v23.1C0,34.3,4.6,37,8.4,37c3.9,0,7,0,7,0h1.7l6.3,6.3l6-6.3h9.3
	c4.2,0,6.2-2.7,6.2-6.9V7C45,2.8,43,0,38.8,0z M27.6,21l0.9,5.1l-4.6-2.4l-4.6,2.4l0.9-5.1l-3.7-3.6l5.1-0.7l2.3-4.7l2.3,4.7
	l5.1,0.7L27.6,21z"/>
</svg>
