<?xml version="1.0" standalone="no"?>
<!DOCTYPE svg PUBLIC "-//W3C//DTD SVG 1.1//EN" "http://www.w3.org/Graphics/SVG/1.1/DTD/svg11.dtd" >
<svg>
<metadata>
Created by FontForge 20090914 at Wed Dec  9 13:43:21 2015
 By www-data
Copyright (c) 1996 Microsoft Corporation. All rights reserved.
</metadata>
<defs>
<font id="TrebuchetMS-Italic" horiz-adv-x="1074" >
  <font-face 
    font-family="Trebuchet MS"
    font-weight="400"
    font-style="italic"
    font-stretch="normal"
    units-per-em="2048"
    panose-1="2 11 6 3 2 2 2 9 2 4"
    ascent="1638"
    descent="-410"
    x-height="1071"
    cap-height="1464"
    bbox="-225 -528 2269 1937"
    underline-thickness="127"
    underline-position="-198"
    slope="-10"
    unicode-range="U+0020-U+F007"
  />
<missing-glyph horiz-adv-x="1024" 
d="M128 350v768h768v-768h-768zM256 478h512v512h-512v-512z" />
    <glyph glyph-name=".notdef" horiz-adv-x="1024" 
d="M128 350v768h768v-768h-768zM256 478h512v512h-512v-512z" />
    <glyph glyph-name="space" unicode=" " horiz-adv-x="617" 
 />
    <glyph glyph-name="exclam" unicode="!" horiz-adv-x="752" 
d="M351 382h-71c4 242.667 10 406 18 490s17 153.667 27 209l73 410h226l-71 -409c-22 -128 -89.333 -361.333 -202 -700zM274 263c39.333 0 72.833 -13.833 100.5 -41.5s41.5 -61.167 41.5 -100.5s-13.833 -72.666 -41.5 -99.999s-61.167 -41 -100.5 -41
s-72.833 13.667 -100.5 41s-41.5 60.666 -41.5 99.999s13.833 72.833 41.5 100.5s61.167 41.5 100.5 41.5z" />
    <glyph glyph-name="quotedbl" unicode="&#x22;" horiz-adv-x="665" 
d="M326 1086h-133l43 381h184zM656 1086h-133l43 381h184z" />
    <glyph glyph-name="numbersign" unicode="#" 
d="M937 947l-99 -393h161v-128h-194l-124 -446h-127l124 446h-297l-124 -446h-130l123 446h-155v128h188l99 393h-172v128h205l102 412h131l-103 -412h297l103 412h127l-103 -412h175v-128h-207zM513 947l-99 -393h297l99 393h-297z" />
    <glyph glyph-name="dollar" unicode="$" horiz-adv-x="985" 
d="M517 -22l-28.002 -158.999h-156l28 162c-102 13.333 -183.667 35.333 -245 66l60 192c28.667 -22.667 71.5 -42 128.5 -58s111.833 -24 164.5 -24c79.333 0 143 19.333 191 58s72 92 72 160c0 56.667 -18.167 106.667 -54.5 150s-98.5 96.833 -186.5 160.5
s-151.833 122.667 -191.5 177s-59.5 122.5 -59.5 204.5c0 115.333 32.667 209.666 98 282.999s154 118 266 134l36 202h156l-35 -198c119.333 -7.33301 195.333 -19.666 228 -36.999l-57 -194c-18.667 15.333 -50 29.666 -94 42.999s-85 20 -123 20
c-85.333 0 -152.666 -19.333 -201.999 -58s-74 -94.334 -74 -167.001c0 -30.667 7.83301 -60.334 23.5 -89.001s36.834 -54.5 63.501 -77.5s81.5 -65.5 164.5 -127.5s144 -125.167 183 -189.5s58.5 -139.166 58.5 -224.499c0 -119.333 -36.5 -214.166 -109.5 -284.499
s-174.833 -111.833 -305.5 -124.5z" />
    <glyph glyph-name="percent" unicode="%" horiz-adv-x="1229" 
d="M143 -20h-127l1149 1511h126zM123 1047c0 117.333 27.999 220.667 83.999 310s146.667 134 272 134c145.333 0 218 -81.667 218 -245c0 -120.667 -30.667 -224.5 -92 -311.5s-146.666 -130.5 -255.999 -130.5c-150.667 0 -226 81 -226 243zM249.999 1064
c0 -105.333 36 -158 108 -158c76 0 130.833 37.667 164.5 113s50.5 151 50.5 227c0 95.333 -38.333 143 -115 143c-61.333 0 -111.333 -32.333 -150 -97s-58 -140.667 -58 -228zM650.999 225.001c0 118.667 28 222.5 84 311.5s146.667 133.5 272 133.5
c146 0 219 -81.667 219 -245c0 -117.333 -30.167 -220.333 -90.5 -309s-146.5 -133 -258.5 -133c-150.667 0 -226 80.667 -226 242zM777.999 243.001c0 -105.333 36 -158 108 -158c76 0 130.833 37.667 164.5 113s50.5 151 50.5 227c0 95.333 -38.333 143 -115 143
c-62.667 0 -113 -33.5 -151 -100.5s-57 -141.833 -57 -224.5z" />
    <glyph glyph-name="ampersand" unicode="&#x26;" horiz-adv-x="1446" 
d="M870 51c-105.333 -47.333 -219.332 -71 -341.999 -71c-116.667 0 -210.167 31.167 -280.5 93.5s-105.5 147.166 -105.5 254.499c0 200.667 80 368 240 502c-64 76 -96 151.667 -96 227c0 135.333 45.167 241.5 135.5 318.5s210.5 115.5 360.5 115.5
c116 0 199.333 -16 250 -48l-54 -186c-59.333 56 -123 84 -191 84c-97.333 0 -173.833 -25.167 -229.5 -75.5s-83.5 -120.833 -83.5 -211.5c0 -67.333 27.333 -125 82 -173h372l32 183l197 29l-40 -215h249l-28 -160h-249l-39 -189
c-10.667 -51.333 -18.5 -97.666 -23.5 -138.999s-7.5 -78.333 -7.5 -111c0 -86 38.333 -129 115 -129c52.667 0 102 17.333 148 52v-182c-52 -26.667 -126.667 -40 -224 -40c-76.667 0 -139.334 23.667 -188.001 71zM899.001 718l-398.001 0.000976562
c-102.667 -106.667 -154 -222.334 -154 -347.001c0 -70 23.5 -124.333 70.5 -163s109.833 -58 188.5 -58c90.667 0 161.334 16.333 212.001 49v20c0 28 3.33301 59.667 10 95z" />
    <glyph glyph-name="quotesingle" unicode="'" horiz-adv-x="327" 
d="M325 1086h-133l43 381h184z" />
    <glyph glyph-name="parenleft" unicode="(" horiz-adv-x="752" 
d="M771 1475l0.000976562 -82.999c-128 -140.667 -225.333 -325.334 -292 -554.001s-100 -479 -100 -751c0 -164.667 27 -301.334 81 -410.001v-105c-84 64.667 -152.667 161.334 -206 290.001s-80 267 -80 415c0 223.333 58.667 456.833 176 700.5
s257.666 409.5 420.999 497.5z" />
    <glyph glyph-name="parenright" unicode=")" horiz-adv-x="752" 
d="M25 -428v105.001c118 92.667 215.833 271.5 293.5 536.5s116.5 510.5 116.5 736.5c0 179.333 -29.667 326.666 -89 441.999v83c91.333 -40 163.333 -130.833 216 -272.5s79 -289.167 79 -442.5c0 -224.667 -58 -451 -174 -679s-263.333 -397.667 -442 -509z" />
    <glyph glyph-name="asterisk" unicode="*" horiz-adv-x="752" 
d="M714 1127l-173 -3l158 -105l47 -62l-122 -104l-54 70l-82 159l-91 -162l-43 -64l-131 101l50 69l158 83l-176 27l-90 32l72 150l96 -37l125 -95l-63 205v79l176 -1v-75l-60 -211l158 107l74 27l57 -161z" />
    <glyph glyph-name="plus" unicode="+" 
d="M611 706h349v-141h-349v-345h-141v345h-348v141h348v343h141v-343z" />
    <glyph glyph-name="comma" unicode="," horiz-adv-x="752" 
d="M182 -335l-43.998 76.001c128.667 88 193 167.667 193 239c0 23.333 -7.66699 48.333 -23 75c-50.667 30 -76 68.667 -76 116c0 35.333 13.167 64 39.5 86s59.166 33 98.499 33c41.333 0 75.833 -15.833 103.5 -47.5s41.5 -68.5 41.5 -110.5
c0 -88.667 -24.333 -169.334 -73 -242.001s-135.334 -147.667 -260.001 -225z" />
    <glyph glyph-name="hyphen" unicode="-" horiz-adv-x="752" 
d="M144 506l30 175h428l-30 -175h-428z" />
    <glyph glyph-name="hyphen" unicode="&#x2010;" horiz-adv-x="752" 
d="M144 506l30 175h428l-30 -175h-428z" />
    <glyph glyph-name="period" unicode="." horiz-adv-x="752" 
d="M315 281c41.333 0 76.666 -14.667 105.999 -44s44 -64.666 44 -105.999s-14.667 -76.833 -44 -106.5s-64.666 -44.5 -105.999 -44.5s-76.666 14.833 -105.999 44.5s-44 65.167 -44 106.5s14.667 76.666 44 105.999s64.666 44 105.999 44z" />
    <glyph glyph-name="slash" unicode="/" 
d="M350 0h-161l531 1471h159z" />
    <glyph glyph-name="zero" unicode="0" 
d="M68 416c0 320.667 57.166 580 171.499 778s275.5 297 483.5 297c245.333 0 368 -140 368 -420c0 -340.667 -55.667 -607.667 -167 -801s-271.666 -290 -480.999 -290c-120 0 -212.5 38.333 -277.5 115s-97.5 183.667 -97.5 321zM267.999 453c0 -202 63.667 -303 191 -303
c137.333 0 243.5 86.833 318.5 260.5s112.5 387.5 112.5 641.5c0 179.333 -67 269 -201 269c-126.667 0 -228.5 -92.167 -305.5 -276.5s-115.5 -381.5 -115.5 -591.5z" />
    <glyph glyph-name="one" unicode="1" 
d="M444 0l195 1101l-296 -151l28 192c232 107.333 389.333 217 472 329h60l-259 -1471h-200z" />
    <glyph glyph-name="two" unicode="2" 
d="M63 0v90.001l483 618c95.333 122.667 159.333 213.667 192 273s49 117 49 173c0 51.333 -21.333 91.5 -64 120.5s-95.667 43.5 -159 43.5c-92 0 -168 -44.333 -228 -133l-140 92c63.333 142.667 194 214 392 214c129.333 0 229.833 -29.167 301.5 -87.5
s107.5 -137.5 107.5 -237.5c0 -66 -18.5 -135.333 -55.5 -208s-108.5 -177.334 -214.5 -314.001l-358 -464h544l-32 -180h-818z" />
    <glyph glyph-name="three" unicode="3" 
d="M47 107l90.999 166.001c25.333 -34 62.333 -63 111 -87s96.667 -36 144 -36c98.667 0 178.5 30 239.5 90s91.5 139.333 91.5 238c0 148.667 -89.333 223 -268 223l28 162c206 0 309 89.667 309 269c0 60 -18 106.5 -54 139.5s-86 49.5 -150 49.5
c-76.667 0 -142.334 -23 -197.001 -69l-90 118c76 80.667 186.667 121 332 121c110 0 200 -29.667 270 -89s105 -140.333 105 -243c0 -82.667 -27.667 -158.834 -83 -228.501s-125 -118.5 -209 -146.5c144 -49.333 216 -149 216 -299
c0 -171.333 -46.167 -298.333 -138.5 -381s-237.166 -124 -434.499 -124c-133.333 0 -237.666 42.333 -312.999 127z" />
    <glyph glyph-name="four" unicode="4" 
d="M882 399l-70 -399h-200l70 399h-657l20 114l956 958h70l-162 -918h148l-27 -154h-148zM799 1065l-510 -512h420z" />
    <glyph glyph-name="five" unicode="5" 
d="M311 756l-103 -0.00195312l125 715h729l-30 -170h-539l-63 -356c54 36.667 119.667 55 197 55c102 0 185.667 -32.667 251 -98s98 -148.666 98 -249.999c0 -448 -200 -672 -600 -672c-128 0 -226.667 34.667 -296 104l82 177c78 -74 159 -111 243 -111
c113.333 0 200.833 39.5 262.5 118.5s92.5 184.167 92.5 315.5c0 72.667 -21.667 131.834 -65 177.501s-99 68.5 -167 68.5c-90.667 0 -163 -24.667 -217 -74z" />
    <glyph glyph-name="six" unicode="6" 
d="M878 1491l78.998 -106.999c-70 -27.333 -170.667 -107.833 -302 -241.5s-209.333 -235.5 -234 -305.5c64.667 53.333 146.334 80 245.001 80c110.667 0 197.834 -31 261.501 -93s95.5 -148 95.5 -258c0 -158.667 -49.667 -296.834 -149 -414.501
s-222.333 -176.5 -369 -176.5c-260.667 0 -391 139 -391 417c0 149.333 28.167 289.5 84.5 420.5s149.5 268.167 279.5 411.5s263.333 232.333 400 267zM308.998 363.001c0 -145.333 70.333 -217.998 211 -217.998c86 0 156.333 37.833 211 113.5s82 164.5 82 266.5
c0 67.333 -16.833 121.166 -50.5 161.499s-80.167 60.5 -139.5 60.5c-98.667 0 -175.667 -35.333 -231 -106s-83 -163.334 -83 -278.001z" />
    <glyph glyph-name="seven" unicode="7" 
d="M342 0h-242.001c122 251.333 383.667 678.333 785 1281h-701l33 190h957v-78c-345.333 -486 -622.666 -950.333 -831.999 -1393z" />
    <glyph glyph-name="eight" unicode="8" 
d="M430 815c-46.667 27.333 -84.833 68.667 -114.5 124s-44.5 111.333 -44.5 168c0 115.333 40.667 208.166 122 278.499s188.333 105.5 321 105.5c100.667 0 186.167 -27.667 256.5 -83s105.5 -127 105.5 -215c0 -84.667 -26.833 -165.5 -80.5 -242.5
s-119.167 -128.833 -196.5 -155.5c61.333 -34.667 110.333 -82 147 -142s55 -124.667 55 -194c0 -164 -41.167 -284.833 -123.5 -362.5s-213.833 -116.5 -394.5 -116.5c-116 0 -211.5 32.333 -286.5 97s-112.5 148.667 -112.5 252c0 112 30 209.833 90 293.5
s145.333 147.834 256 192.501zM655.001 894.001c53.333 14 102.334 48.335 147.001 103.002s67 109.667 67 165c0 45.333 -18.5 83.166 -55.5 113.499s-80.167 45.5 -129.5 45.5c-64.667 0 -115.834 -20.833 -153.501 -62.5s-56.5 -91.5 -56.5 -149.5
c0 -43.333 17.5 -84.833 52.5 -124.5s77.833 -69.834 128.5 -90.501zM594.002 725.003c-72.667 -16.667 -141.667 -61.1699 -207 -133.503s-98 -148.166 -98 -227.499c0 -63.333 21 -114.833 63 -154.5s92.333 -59.5 151 -59.5c197.333 0 296 97.333 296 292
c0 56.667 -19.167 110.334 -57.5 161.001s-87.5 91.334 -147.5 122.001z" />
    <glyph glyph-name="nine" unicode="9" 
d="M320 -25l-77.999 107c70 27.333 170.667 107.666 302 240.999s209 235 233 305c-63.333 -52.667 -145 -79 -245 -79c-100.667 0 -185.167 35 -253.5 105s-102.5 158.667 -102.5 266c0 171.333 46.5 309.333 139.5 414s219.167 157 378.5 157
c120.667 0 216 -38.167 286 -114.5s105 -177.166 105 -302.499c0 -258 -88.333 -496.667 -265 -716s-343.334 -347 -500.001 -383zM889.001 1103c0 64.667 -18.333 117.167 -55 157.5s-88.334 60.5 -155.001 60.5c-91.333 0 -163 -35.333 -215 -106s-78 -162 -78 -274
c0 -67.333 16.833 -121.166 50.5 -161.499s79.834 -60.5 138.501 -60.5c98.667 0 175.667 35.167 231 105.5s83 163.166 83 278.499z" />
    <glyph glyph-name="colon" unicode=":" horiz-adv-x="752" 
d="M442 1071c41.333 0 76.666 -14.667 105.999 -44s44 -64.666 44 -105.999s-14.667 -76.833 -44 -106.5s-64.666 -44.5 -105.999 -44.5s-76.666 14.833 -105.999 44.5s-44 65.167 -44 106.5s14.667 76.666 44 105.999s64.666 44 105.999 44zM354 281
c41.333 0 76.666 -14.667 105.999 -44s44 -64.666 44 -105.999s-14.667 -76.833 -44 -106.5s-64.666 -44.5 -105.999 -44.5s-76.666 14.833 -105.999 44.5s-44 65.167 -44 106.5s14.667 76.666 44 105.999s64.666 44 105.999 44z" />
    <glyph glyph-name="semicolon" unicode=";" horiz-adv-x="752" 
d="M442 1071c41.333 0 76.666 -14.667 105.999 -44s44 -64.666 44 -105.999s-14.667 -76.833 -44 -106.5s-64.666 -44.5 -105.999 -44.5s-76.666 14.833 -105.999 44.5s-44 65.167 -44 106.5s14.667 76.666 44 105.999s64.666 44 105.999 44zM182 -335l-43.998 76.001
c128.667 88 193 167.667 193 239c0 23.333 -7.66699 48.333 -23 75c-50.667 30 -76 68.667 -76 116c0 35.333 13.167 64 39.5 86s59.166 33 98.499 33c41.333 0 75.833 -15.833 103.5 -47.5s41.5 -68.5 41.5 -110.5c0 -88.667 -24.333 -169.334 -73 -242.001
s-135.334 -147.667 -260.001 -225z" />
    <glyph glyph-name="less" unicode="&#x3c;" 
d="M889 218l-739 358v123l739 354v-161l-571 -255l571 -258v-161z" />
    <glyph glyph-name="equal" unicode="=" 
d="M960 876v-141h-838v141h838zM960 536v-141h-838v141h838z" />
    <glyph glyph-name="greater" unicode="&#x3e;" 
d="M993 576l-739 -358v161l571 258l-571 255v161l739 -354v-123z" />
    <glyph glyph-name="question" unicode="?" horiz-adv-x="752" 
d="M343 429l-97.999 -0.000976562c-0.666992 8 -3.16699 23.333 -7.5 46s-6.5 40.334 -6.5 53.001c0 88 36 173 108 255l193 187c36 34.667 64.333 71.834 85 111.501s31 79.167 31 118.5c0 92 -55.333 138 -166 138c-80 0 -145 -20 -195 -60l-63 130
c61.333 55.333 166.333 83 315 83c91.333 0 164.166 -25 218.499 -75s81.5 -119.333 81.5 -208c0 -118 -43.667 -223.333 -131 -316l-233 -203c-44 -38.667 -77.5 -79.834 -100.5 -123.501s-33.5 -89.167 -31.5 -136.5zM288.001 262.999c38.667 0 72 -14 100 -42
s42 -61.333 42 -100s-14 -71.834 -42 -99.501s-61.333 -41.5 -100 -41.5c-39.333 0 -72.833 13.833 -100.5 41.5s-41.5 60.834 -41.5 99.501s13.833 72 41.5 100s61.167 42 100.5 42z" />
    <glyph glyph-name="at" unicode="@" horiz-adv-x="1578" 
d="M929 355c-17.333 -29.333 -48.834 -55.333 -94.501 -78s-89.167 -34 -130.5 -34c-72 0 -129.833 19.833 -173.5 59.5s-65.5 95.5 -65.5 167.5c0 122.667 43.167 231.667 129.5 327s189.166 143 308.499 143c41.333 0 74.5 -3.16699 99.5 -9.5s73.167 -24.833 144.5 -55.5
c-54.667 -241.333 -82 -379 -82 -413c0 -68 27.333 -102 82 -102c78.667 0 140 40.667 184 122s66 177.333 66 288c0 130.667 -41.333 235.5 -124 314.5s-190 118.5 -322 118.5c-192.667 0 -355 -75.333 -487 -226s-198 -327.334 -198 -530.001
c0 -144 42.333 -256.5 127 -337.5s199.334 -121.5 344.001 -121.5c154 0 285 42.667 393 128l96 -72c-139.333 -118.667 -309.666 -178 -510.999 -178c-181.333 0 -325.5 49.667 -432.5 149s-160.5 236 -160.5 410c0 244.667 82.333 455.834 247 633.501
s366 266.5 604 266.5c173.333 0 311.5 -46.167 414.5 -138.5s154.5 -219.833 154.5 -382.5c0 -144.667 -38 -272.5 -114 -383.5s-175 -166.5 -297 -166.5c-41.333 0 -82 9.16699 -122 27.5s-66.667 42.833 -80 73.5zM994.999 800c-27.333 30 -60.333 45 -99 45
c-75.333 0 -139.333 -39.333 -192 -118s-79 -160.667 -79 -246c0 -84 37.333 -126 112 -126c48 0 91.333 17 130 51s63 75.333 73 124z" />
    <glyph glyph-name="A" unicode="A" horiz-adv-x="1251" 
d="M936 0l-46 309h-525l-173 -309h-224l857 1485h53l290 -1485h-232zM779 1082l-335 -626h425z" />
    <glyph glyph-name="B" unicode="B" horiz-adv-x="1159" 
d="M87 0l259.001 1465c99.333 14.667 191 22 275 22c344.667 0 517 -115 517 -345c0 -76 -27.167 -146.167 -81.5 -210.5s-118.5 -101.166 -192.5 -110.499c162.667 -30 244 -142 244 -336c0 -165.333 -57.833 -289.5 -173.5 -372.5s-299.834 -124.5 -552.501 -124.5
c-70.667 0 -169 4 -295 12zM524.001 1305l-66 -406c58 -4.66699 105 -7 141 -7c223.333 0 335 85.667 335 257c0 110 -86.667 165 -260 165c-32.667 0 -82.667 -3 -150 -9zM424.001 731.999l-100.001 -562c36.667 -6.66699 77 -10 121 -10
c132.667 0 241.834 26.5 327.501 79.5s128.5 127.5 128.5 223.5c0 184 -117 276 -351 276c-38.667 0 -80.667 -2.33301 -126 -7z" />
    <glyph glyph-name="C" unicode="C" horiz-adv-x="1225" 
d="M1204 1443l-55.001 -195c-56 42.667 -135 64 -237 64c-157.333 0 -289.833 -78.5 -397.5 -235.5s-161.5 -326.5 -161.5 -508.5c0 -275.333 114.333 -413 343 -413c118 0 232.667 48.333 344 145l-16 -212c-82 -75.333 -209 -113 -381 -113
c-160 0 -283.667 49.333 -371 148s-131 234.667 -131 408c0 268 72.833 494.833 218.5 680.5s333.834 278.5 564.501 278.5c116 0 209.333 -15.667 280 -47z" />
    <glyph glyph-name="D" unicode="D" horiz-adv-x="1256" 
d="M387 0h-320l258 1465c82 15.333 165 23 249 23c212.667 0 378 -49.667 496 -149s177 -246.333 177 -441c0 -284 -81.333 -504.667 -244 -662s-368 -236 -616 -236zM492 1293l-186 -1104c38.667 -5.33301 76.334 -8 113.001 -8c184.667 0 333 68.333 445 205
s168 311 168 523c0 121.333 -40.167 218.333 -120.5 291s-179.5 109 -297.5 109c-42.667 0 -83.334 -5.33301 -122.001 -16z" />
    <glyph glyph-name="E" unicode="E" horiz-adv-x="1097" 
d="M484 1285l-72 -407h484l-30 -170h-484l-93 -528h664l-32 -180h-874l259 1465h885l-33 -180h-674z" />
    <glyph glyph-name="F" unicode="F" horiz-adv-x="1075" 
d="M492 1285l-72 -407h515l-30 -170h-515l-125 -708h-210l262 1465h911l-31 -180h-705z" />
    <glyph glyph-name="G" unicode="G" horiz-adv-x="1385" 
d="M1276 1406l-59.999 -191c-85.333 63.333 -178 95 -278 95c-179.333 0 -326.333 -69.333 -441 -208s-172 -313.334 -172 -524.001c0 -282 133 -423 399 -423c106.667 0 198.667 32 276 96l61 343h-203l30 170h403l-113 -638c-138 -100.667 -313.667 -151 -527 -151
c-359.333 0 -539 188 -539 564c0 280.667 79.667 509.334 239 686.001s367.666 265 624.999 265c144 0 244 -28 300 -84z" />
    <glyph glyph-name="H" unicode="H" horiz-adv-x="1340" 
d="M913 0l125 708h-640l-125 -708h-206l259 1465h206l-104 -587h640l104 587h204l-259 -1465h-204z" />
    <glyph glyph-name="I" unicode="I" horiz-adv-x="570" 
d="M75 0l259 1465h204l-259 -1465h-204z" />
    <glyph glyph-name="J" unicode="J" horiz-adv-x="976" 
d="M-13 293l175 0.000976562c0 -88.667 45 -133 135 -133c86 0 151.333 18.167 196 54.5s82.667 144.5 114 324.5l163 926h200l-161 -918c-36.667 -210.667 -92 -357.834 -166 -441.501s-199.333 -125.5 -376 -125.5c-86.667 0 -155.5 23.5 -206.5 70.5
s-76.5 111.833 -76.5 194.5c0 15.333 1 31.333 3 48z" />
    <glyph glyph-name="K" unicode="K" horiz-adv-x="1179" 
d="M869 0l-284 674l-244 -277l-70 -397h-202l258 1465h202l-132 -758l666 758h233l-550 -635l354 -830h-231z" />
    <glyph glyph-name="L" unicode="L" horiz-adv-x="1037" 
d="M84 0l259 1465h204l-227 -1285h662l-32 -180h-866z" />
    <glyph glyph-name="M" unicode="M" horiz-adv-x="1559" 
d="M1247 0l-20 906l-487 -926h-50l-158 934l-338 -914h-190l522 1465h101l159 -1028l516 1028h105l41 -1465h-201z" />
    <glyph glyph-name="N" unicode="N" horiz-adv-x="1307" 
d="M1003 -20l-572 1040l-172 -1020h-200l259 1465h80l560 -998l169 998h198l-262 -1485h-60z" />
    <glyph glyph-name="O" unicode="O" horiz-adv-x="1380" 
d="M114 538c0 257.333 68.668 480.501 206.001 669.501s315.666 283.5 534.999 283.5c168.667 0 297.167 -46 385.5 -138s132.5 -224.333 132.5 -397c0 -284.667 -69.5 -519.334 -208.5 -704.001s-331.5 -277 -577.5 -277c-147.333 0 -263 52.167 -347 156.5
s-126 239.833 -126 406.5zM327.001 566.001c0 -126.667 25.166 -226.833 75.499 -300.5s122.5 -110.5 216.5 -110.5c166 0 297.833 77 395.5 231s146.5 337 146.5 549c0 251.333 -108 377 -324 377c-149.333 0 -271.666 -81.5 -366.999 -244.5s-143 -330.167 -143 -501.5z
" />
    <glyph glyph-name="P" unicode="P" horiz-adv-x="1113" 
d="M362 564l-100 -564.001h-208l267 1465c124 13.333 222 20 294 20c368 0 552 -142 552 -426c0 -163.333 -56.667 -290.666 -170 -381.999s-258.333 -137 -435 -137c-70 0 -136.667 8 -200 24zM489 1285l-95 -541c36.667 -18 90.667 -27 162 -27
c118.667 0 214.667 27.833 288 83.5s110 135.167 110 238.5c0 179.333 -96.667 269 -290 269c-54.667 0 -113 -7.66699 -175 -23z" />
    <glyph glyph-name="Q" unicode="Q" horiz-adv-x="1380" 
d="M918 44c21.333 -69.333 64.834 -122.832 130.501 -160.499s143.5 -56.5 233.5 -56.5c83.333 0 160 25 230 75l87 -151c-22.667 -30 -68.5 -58 -137.5 -84s-140.833 -39 -215.5 -39c-134 0 -246.833 33.167 -338.5 99.5s-149.5 156.5 -173.5 270.5
c-51.333 -15.333 -105 -23 -161 -23c-152.667 0 -269.667 49.833 -351 149.5s-122 237.5 -122 413.5c0 257.333 68.5 480.5 205.5 669.5s315.167 283.5 534.5 283.5c168 0 296.5 -46 385.5 -138s133.5 -224.333 133.5 -397c0 -200.667 -40.333 -389.834 -121 -567.501
s-187.334 -292.5 -320.001 -344.5zM313.001 566.001c0 -126.667 25.166 -226.833 75.499 -300.5s122.5 -110.5 216.5 -110.5c166 0 297.833 77.5 395.5 232.5s146.5 337.5 146.5 547.5c0 251.333 -108 377 -324 377c-145.333 0 -266.666 -79.833 -363.999 -239.5
s-146 -328.5 -146 -506.5z" />
    <glyph glyph-name="R" unicode="R" horiz-adv-x="1192" 
d="M834 0l-230.001 628.999c-51.333 0 -121.666 3.33301 -210.999 10l-112 -639h-210l258 1465c27.333 0.666992 81.166 3.33398 161.499 8.00098s146.166 7 197.499 7c154.667 0 273.834 -27.667 357.501 -83s125.5 -134.666 125.5 -237.999
c0 -122 -36.167 -228.833 -108.5 -320.5s-163.166 -149.834 -272.499 -174.501l273 -664h-229zM506.999 1285l-83.998 -475.999c49.333 -6.66699 95.666 -10 138.999 -10c118.667 0 214.167 24.667 286.5 74s108.5 117 108.5 203c0 79.333 -25.333 135.666 -76 168.999
s-135.334 50 -254.001 50c-25.333 0 -65.333 -3.33301 -120 -10z" />
    <glyph glyph-name="S" unicode="S" horiz-adv-x="985" 
d="M87 47l59.9961 192.002c28.667 -22.667 71.5 -42 128.5 -58s111.833 -24 164.5 -24c79.333 0 143 19.333 191 58s72 92 72 160c0 56.667 -18.167 106.667 -54.5 150s-98.333 96.666 -186 159.999s-151.5 122.333 -191.5 177s-60 123 -60 205
c0 132 41.833 235.5 125.5 310.5s191.834 112.5 324.501 112.5c150 0 249.667 -13 299 -39l-57 -194c-18.667 15.333 -50 29.666 -94 42.999s-85 20 -123 20c-85.333 0 -152.666 -19.333 -201.999 -58s-74 -94.334 -74 -167.001c0 -30.667 7.83301 -60.334 23.5 -89.001
s36.834 -54.5 63.501 -77.5s81.5 -65.5 164.5 -127.5s144 -125.167 183 -189.5s58.5 -139.166 58.5 -224.499c0 -132.667 -44.5 -234.5 -133.5 -305.5s-206.5 -106.5 -352.5 -106.5c-52 0 -110.667 7.33301 -176 22s-116.666 31.334 -153.999 50.001z" />
    <glyph glyph-name="T" unicode="T" horiz-adv-x="1189" 
d="M828 1285l-226 -1285h-205l226 1285h-466l32 180h1153l-32 -180h-482z" />
    <glyph glyph-name="U" unicode="U" horiz-adv-x="1328" 
d="M324 1465l209.999 0.00195312l-180 -1003c-4 -22 -6 -43 -6 -63c0 -75.333 22.833 -134.833 68.5 -178.5s107.834 -65.5 186.501 -65.5c97.333 0 178 27.667 242 83s104.667 131.666 122 228.999l179 998h206l-180 -1019c-26 -148 -92.5 -263.5 -199.5 -346.5
s-240.167 -124.5 -399.5 -124.5c-135.333 0 -242.333 33 -321 99s-118 153 -118 261c0 35.333 3.33301 72.666 10 111.999z" />
    <glyph glyph-name="V" unicode="V" horiz-adv-x="1203" 
d="M563 -20h-101l-284 1485h220l186 -1069l544 1069h227z" />
    <glyph glyph-name="W" unicode="W" horiz-adv-x="1745" 
d="M1187 -20h-63l-169 989l-506 -989h-63l-200 1485h208l119 -990l497 990h70l147 -985l460 985h218z" />
    <glyph glyph-name="X" unicode="X" horiz-adv-x="1140" 
d="M818 0l-244 565l-416 -565h-232l565 770l-271 696l207 -1l200 -536l418 536h231l-568 -720l334 -745h-224z" />
    <glyph glyph-name="Y" unicode="Y" horiz-adv-x="1168" 
d="M714 656l-116 -656h-200l116 656l-332 809h209l249 -625l461 625h226z" />
    <glyph glyph-name="Z" unicode="Z" horiz-adv-x="1127" 
d="M80 0v50l817 1235h-620l31 180h876v-50l-789 -1235h614l-32 -180h-897z" />
    <glyph glyph-name="bracketleft" unicode="[" horiz-adv-x="752" 
d="M22 -420l340 1930h473l-30 -170h-263l-280 -1590h263l-30 -170h-473z" />
    <glyph glyph-name="backslash" unicode="\" horiz-adv-x="728" 
d="M490 0l-305 1471h142l306 -1471h-143z" />
    <glyph glyph-name="bracketright" unicode="]" horiz-adv-x="752" 
d="M466 -420h-473l30 170h263l280 1590h-263l30 170h473z" />
    <glyph glyph-name="asciicircum" unicode="^" 
d="M906 907l-244 448l-248 -452h-122l318 568h107l316 -564h-127z" />
    <glyph glyph-name="underscore" unicode="_" 
d="M-8 -254v129h1085v-129h-1085z" />
    <glyph glyph-name="grave" unicode="`" 
d="M661 1225l-156 333h197l59 -333h-100z" />
    <glyph glyph-name="a" unicode="a" horiz-adv-x="1076" 
d="M1052 1004l-131 -623c-5.33301 -25.333 -8 -56 -8 -92c0 -104 16.333 -200.333 49 -289h-194c-10.667 21.333 -22 57.333 -34 108c-31.333 -38 -78 -68.833 -140 -92.5s-127.667 -35.5 -197 -35.5c-105.333 0 -187.5 31.167 -246.5 93.5s-88.5 151.833 -88.5 268.5
c0 196 57.833 369.833 173.5 521.5s264.5 227.5 446.5 227.5c172 0 295.333 -29 370 -87zM842 893c-18 28.667 -78.667 43 -182 43c-105.333 0 -198 -56 -278 -168s-120 -252 -120 -420c0 -142 63.333 -213 190 -213c66 0 128 34.167 186 102.5s98.333 155.833 121 262.5z
" />
    <glyph glyph-name="b" unicode="b" horiz-adv-x="1141" 
d="M253 103l-100.999 -123h-125c43.333 124.667 80 269.667 110 435l192 1095h184l-89 -552c50 88.667 139 133 267 133c114.667 0 209.5 -42.5 284.5 -127.5s112.5 -199.167 112.5 -342.5c0 -168.667 -58.333 -317.667 -175 -447s-261 -194 -433 -194
c-108.667 0 -184.334 41 -227.001 123zM397.001 784l-99.999 -521c-1.33301 -7.33301 6 -22.333 22 -45s38.5 -42 67.5 -58s58.167 -24 87.5 -24c113.333 0 209.666 50 288.999 150s119 206.333 119 319c0 217.333 -96 326 -288 326c-76 0 -141.667 -49 -197 -147z" />
    <glyph glyph-name="c" unicode="c" horiz-adv-x="942" 
d="M928 1037l-35.001 -162.999c-48 38 -112.333 57 -193 57c-122.667 0 -221.834 -48.5 -297.501 -145.5s-113.5 -216.167 -113.5 -357.5c0 -86.667 24.5 -155.834 73.5 -207.501s104.833 -77.5 167.5 -77.5c96.667 0 189.334 29.667 278.001 89l-21 -194
c-87.333 -38.667 -183 -58 -287 -58c-132 0 -233.333 37.833 -304 113.5s-106 176.167 -106 301.5c0 204 56 371 168 501s254.667 195 428 195c102.667 0 183.334 -18 242.001 -54z" />
    <glyph glyph-name="d" unicode="d" horiz-adv-x="1141" 
d="M746 0l23 123c-77.333 -94.667 -183 -142 -317 -142c-116 0 -206.667 35.5 -272 106.5s-98 167.5 -98 289.5c0 208.667 56 379.5 168 512.5s255.333 199.5 430 199.5c101.333 0 179 -42 233 -126l101 547h181l-261 -1510h-188zM878 774c1.33301 6 -7.5 24.5 -26.5 55.5
s-42 55.333 -69 73s-55.5 26.5 -85.5 26.5c-118 0 -215.833 -47.833 -293.5 -143.5s-116.5 -218.167 -116.5 -367.5c0 -188.667 77.667 -283 233 -283c70 0 135.333 34.5 196 103.5s100 158.167 118 267.5z" />
    <glyph glyph-name="e" unicode="e" horiz-adv-x="1100" 
d="M311 506c-6 -32 -9 -62.667 -9 -92c0 -88 24.667 -155.667 74 -203s118.333 -71 207 -71c78.667 0 158 29 238 87l-20 -194c-106.667 -35.333 -201 -53 -283 -53c-276 0 -414 154.667 -414 464c0 182 58 335.333 174 460s262 187 438 187c106 0 190.667 -22.667 254 -68
s95 -110 95 -194c0 -116.667 -49.333 -208.667 -148 -276s-219.667 -101 -363 -101c-96 0 -177 18 -243 54zM344 644c50.667 -22.667 110.333 -34.001 179 -34.001c104 0 189 16.833 255 50.5s99 82.834 99 147.501c0 82 -56.667 123 -170 123
c-172.667 0 -293.667 -95.667 -363 -287z" />
    <glyph glyph-name="f" unicode="f" horiz-adv-x="822" 
d="M899 1332c-50.667 18.667 -89.999 28 -117.999 28c-120.667 0 -197.667 -96.333 -231 -289h248l-16 -131h-251l-169 -1010c-16 -94.667 -59.333 -171.5 -130 -230.5s-156.334 -94.833 -257.001 -107.5l-17 117c40 8 81 35 123 81s67.333 92.667 76 140l177 1010h-151
l22 131h147c58.667 292.667 205.667 439 441 439c56 0 103.333 -10 142 -30z" />
    <glyph glyph-name="g" unicode="g" horiz-adv-x="1028" 
d="M-13 -300l90.002 139.999c122 -61.333 223 -92 303 -92c88 0 161.333 16.333 220 49s88 78.334 88 137.001c0 29.333 -9.83301 53.5 -29.5 72.5s-53.167 32.5 -100.5 40.5l-176 30c-71.333 18 -107 54.333 -107 109c0 44 57 88.333 171 133l-34 -1
c-78 0 -146.5 29.167 -205.5 87.5s-88.5 128.5 -88.5 210.5c0 140 45 254.167 135 342.5s205 132.5 345 132.5c100.667 0 180 -24 238 -72l90 102l105 -108l-99 -103c19.333 -27.333 29 -70.333 29 -129c0 -114.667 -29 -213 -87 -295s-133.833 -139.5 -227.5 -172.5
s-140.5 -63.833 -140.5 -92.5c0 -23.333 12.667 -35 38 -35c9.33301 0 23.166 1.5 41.499 4.5s32.166 4.5 41.499 4.5c166.667 0 250 -75.333 250 -226c0 -118 -52.5 -212.333 -157.5 -283s-229.833 -106 -374.5 -106c-146.667 0 -266 40 -358 120zM584.002 937.999
c-76.667 0 -141.167 -29.832 -193.5 -89.499s-78.5 -129.834 -78.5 -210.501c0 -145.333 55 -218 165 -218c74.667 0 140.667 36.5 198 109.5s86 150.5 86 232.5c0 54 -16 96.833 -48 128.5s-75 47.5 -129 47.5z" />
    <glyph glyph-name="h" unicode="h" horiz-adv-x="1141" 
d="M736 0l119 673.001c4.66699 26.667 7 51 7 73c0 123.333 -60 185 -180 185c-46 0 -94.5 -13.5 -145.5 -40.5s-92.167 -58.5 -123.5 -94.5l-141 -796h-194l261 1510h189l-88 -557c32.667 39.333 79.5 72.166 140.5 98.499s121.5 39.5 181.5 39.5
c94.667 0 168.167 -27 220.5 -81s78.5 -130 78.5 -228c0 -34 -3.33301 -70.333 -10 -109l-119 -673h-196z" />
    <glyph glyph-name="i" unicode="i" horiz-adv-x="628" 
d="M445 1491c36.667 0 68 -12.833 94 -38.5s39 -57.167 39 -94.5c0 -36.667 -13 -67.834 -39 -93.501s-57.333 -38.5 -94 -38.5s-68 12.833 -94 38.5s-39 56.834 -39 93.501c0 37.333 13 68.833 39 94.5s57.333 38.5 94 38.5zM138 0l162 911h-142l35 157h327l-189 -1068
h-193z" />
    <glyph glyph-name="j" unicode="j" horiz-adv-x="751" 
d="M581 1491c36.667 0 68 -13 94 -39s39 -57.333 39 -94s-13 -67.834 -39 -93.501s-57.333 -38.5 -94 -38.5s-68 12.833 -94 38.5s-39 56.834 -39 93.501s13 68 39 94s57.333 39 94 39zM-139 -415l8 168c230 0 361 84 393 252l172 906h-141l34 160h329l-193 -1055
c-28 -152 -90 -261.833 -186 -329.5s-234.667 -101.5 -416 -101.5z" />
    <glyph glyph-name="k" unicode="k" horiz-adv-x="1033" 
d="M441 473l-75.001 -65l-70 -408h-190l253 1510h185l-137 -878c250.667 234.667 405 392.667 463 474l128 -115c-107.333 -119.333 -243.666 -257.333 -408.999 -414l404 -577h-224z" />
    <glyph glyph-name="l" unicode="l" horiz-adv-x="656" 
d="M489 120l-22 -140c-214 0 -321 79.333 -321 238c0 48 16.667 155 50 321l192 971h198l-183 -912c-38 -189.333 -57 -308 -57 -356c0 -81.333 47.667 -122 143 -122z" />
    <glyph glyph-name="m" unicode="m" horiz-adv-x="1700" 
d="M1299 0l119.996 678c4.66699 26.667 7 52.334 7 77.001c0 117.333 -59 176 -177 176c-43.333 0 -87.166 -13.5 -131.499 -40.5s-77.833 -59.833 -100.5 -98.5l-140 -792h-195l135 761c2 11.333 3 21.666 3 30.999c0 92.667 -63 139 -189 139
c-38 0 -80.333 -14.667 -127 -44s-82 -61.666 -106 -96.999l-140 -790h-194l138 781c4 22.667 6 54 6 94c0 74 -6.66699 134 -20 180l185 35c12 -51.333 19 -98 21 -140c26.667 43.333 70.834 77.666 132.501 102.999s125.834 38 192.501 38
c152.667 0 251.334 -47.667 296.001 -143c29.333 41.333 75.333 75.5 138 102.5s124.667 40.5 186 40.5c194 0 291 -92.667 291 -278c0 -30.667 -3 -63 -9 -97l-127 -716h-195z" />
    <glyph glyph-name="n" unicode="n" horiz-adv-x="1119" 
d="M728 0l112.002 623.001c10 55.333 15 101.333 15 138c0 113.333 -59 170 -177 170c-45.333 0 -93.833 -13.333 -145.5 -40s-92.834 -58.334 -123.501 -95.001l-139 -796h-192l144 812c3.33301 18.667 5 40.667 5 66c0 68 -7 127 -21 177l184 36
c18 -97.333 26.667 -150.333 26 -159c81.333 106 198.666 159 351.999 159c193.333 0 290 -98.667 290 -296c0 -39.333 -4.33301 -83.333 -13 -132l-115 -663h-202z" />
    <glyph glyph-name="o" unicode="o" horiz-adv-x="1099" 
d="M73 394c0 191.333 56.001 355.334 168.001 492.001s254.333 205 427 205c130 0 229.333 -35.167 298 -105.5s103 -170.166 103 -299.499c0 -102.667 -20.5 -209.334 -61.5 -320.001s-108 -202.667 -201 -276s-204.5 -110 -334.5 -110
c-128.667 0 -227.334 36.167 -296.001 108.5s-103 174.166 -103 305.499zM273.001 406.001c0 -180.667 75.667 -271 227 -271c112.667 0 202.167 54.667 268.5 164s99.5 235.666 99.5 378.999c0 172 -75.667 258 -227 258c-76.667 0 -144.167 -27.333 -202.5 -82
s-100.5 -124.667 -126.5 -210s-39 -164.666 -39 -237.999z" />
    <glyph glyph-name="p" unicode="p" horiz-adv-x="1141" 
d="M259 54l-84 -478.997h-190l210 1176c9.33301 51.333 14 101.666 14 150.999c0 50.667 -5 100 -15 148l191 36c3.33301 -8.66699 9.33301 -54.334 18 -137.001c31.333 38.667 76.333 71.167 135 97.5s113.334 39.5 164.001 39.5c133.333 0 233.166 -33 299.499 -99
s99.5 -165.333 99.5 -298c0 -202.667 -56.167 -372.334 -168.5 -509.001s-259.833 -205 -442.5 -205c-39.333 0 -84.5 7.66699 -135.5 23s-82.833 34 -95.5 56zM287 211.003c12 -21.333 36.333 -39.332 73 -53.999s71 -22 103 -22c139.333 0 246.833 47.167 322.5 141.5
s113.5 223.166 113.5 386.499c0 88 -22.167 153.833 -66.5 197.5s-110.833 65.5 -199.5 65.5c-38.667 0 -83.5 -13.5 -134.5 -40.5s-87.167 -55.167 -108.5 -84.5z" />
    <glyph glyph-name="q" unicode="q" horiz-adv-x="1141" 
d="M671 -420l85.0029 483c-64.667 -55.333 -162.334 -83 -293.001 -83c-110.667 0 -202.334 39.667 -275.001 119s-109 173.333 -109 282c0 198 58.167 365.833 174.5 503.5s265.166 206.5 446.499 206.5c94.667 0 175.667 -33.667 243 -101l51 81h158
c-40.667 -132.667 -68 -238.667 -82 -318l-209 -1173h-190zM895.003 849c-44.667 54.667 -108.333 81.999 -191 81.999c-124.667 0 -226 -49.167 -304 -147.5s-117 -217.166 -117 -356.499c0 -91.333 23.833 -162 71.5 -212s115.167 -75 202.5 -75
c90.667 0 165.667 23.333 225 70z" />
    <glyph glyph-name="r" unicode="r" horiz-adv-x="853" 
d="M835 883c-40 32 -86.668 48 -140.001 48c-67.333 0 -131.666 -31.167 -192.999 -93.5s-99.666 -136.833 -114.999 -223.5l-109 -614h-190l189 1071h190l-30 -171c92 127.333 206.333 191 343 191c23.333 0 59.666 -4.66699 108.999 -14z" />
    <glyph glyph-name="s" unicode="s" horiz-adv-x="829" 
d="M9 64l98.998 180c26 -26 63.333 -49.833 112 -71.5s90.334 -32.5 125.001 -32.5c59.333 0 108.333 16 147 48s58 75.333 58 130c0 28 -10.167 53 -30.5 75s-55.5 47.333 -105.5 76l-141 78c-43.333 24.667 -75.833 55.834 -97.5 93.501s-32.5 77.834 -32.5 120.501
c0 99.333 38.667 179.166 116 239.499s172.333 90.5 285 90.5c78 0 172 -24.667 282 -74l-85 -176c-65.333 60 -135.666 90 -210.999 90c-50 0 -93.167 -12.833 -129.5 -38.5s-54.5 -59.5 -54.5 -101.5c0 -30.667 10.333 -57 31 -79s56.334 -46.667 107.001 -74l140 -76
c43.333 -23.333 75.666 -53.333 96.999 -90s32 -76.667 32 -120c0 -114.667 -41.5 -205.334 -124.5 -272.001s-188.5 -100 -316.5 -100c-112.667 0 -213.667 28 -303 84z" />
    <glyph glyph-name="t" unicode="t" horiz-adv-x="860" 
d="M321 921h-124l32 150h124l44 224l217 82l-71 -306h294l-32 -150h-294l-112 -532c-8.66699 -41.333 -13 -73.333 -13 -96c0 -102 50.667 -153 152 -153c49.333 0 102.333 12.333 159 37l-7 -167c-54.667 -20 -143 -30 -265 -30c-76 0 -135.167 23.5 -177.5 70.5
s-63.5 111.5 -63.5 193.5c0 18.667 3 41.667 9 69z" />
    <glyph glyph-name="u" unicode="u" horiz-adv-x="1140" 
d="M431 1071l-125 -683c-5.33301 -29.333 -8 -56.333 -8 -81c0 -111.333 58 -167 174 -167c71.333 0 139.833 26.667 205.5 80s105.167 117 118.5 191l122 660h200l-196 -1071h-200l28 151c-74.667 -114 -204 -171 -388 -171c-83.333 0 -148.333 24.667 -195 74
s-70 119.333 -70 210c0 32 3.33301 66.667 10 104l124 703h200z" />
    <glyph glyph-name="v" unicode="v" horiz-adv-x="1003" 
d="M460 -20h-50l-311 1094h198l192 -737l407 737h219z" />
    <glyph glyph-name="w" unicode="w" horiz-adv-x="1524" 
d="M1042 -20h-50l-199 697l-428 -697h-50l-200 1094h193l117 -681l399 681h50l192 -686l336 686h197z" />
    <glyph glyph-name="x" unicode="x" horiz-adv-x="1026" 
d="M701 0l-188 376l-295 -376h-232l441 557l-270 514h224l177 -372l272 372h250l-427 -530l295 -541h-247z" />
    <glyph glyph-name="y" unicode="y" horiz-adv-x="1010" 
d="M31 -420l-0.000976562 191c124 0 212 18.667 264 56s89.333 93.333 112 168c-94 0 -156.333 92.667 -187 278l-134 798h207l118 -777c11.333 -76.667 38.666 -115 81.999 -115l386 892h216l-537 -1199c-45.333 -101.333 -105.666 -175.333 -180.999 -222
s-190.666 -70 -345.999 -70z" />
    <glyph glyph-name="z" unicode="z" horiz-adv-x="972" 
d="M336 170h533l-30 -170h-831v50l657 851h-549l30 170h836v-54z" />
    <glyph glyph-name="braceleft" unicode="{" horiz-adv-x="752" 
d="M399 -420c-98.667 0 -181.17 22.001 -247.503 66.001s-99.5 105 -99.5 183c0 61.333 26.5 149.666 79.5 264.999s79.5 203.666 79.5 264.999c0 101.333 -58.667 156 -176 164l15 84c78.667 5.33301 140.834 35.666 186.501 90.999s68.5 126.333 68.5 213
c0 26.667 -3 66.334 -9 119.001s-9 92.334 -9 119.001c0 106.667 42.833 192.167 128.5 256.5s189.834 96.5 312.501 96.5h148l-23 -133h-175c-64.667 0 -114.5 -22.667 -149.5 -68s-52.5 -107.333 -52.5 -186c0 -22 2.66699 -54.5 8 -97.5s8 -75.5 8 -97.5
c0 -70 -20.667 -132.667 -62 -188s-114.333 -110.333 -219 -165c122 -54 183 -128.333 183 -223c0 -42.667 -22.667 -114.5 -68 -215.5s-68 -180.167 -68 -237.5c0 -42.667 10.167 -77 30.5 -103s49.833 -43.833 88.5 -53.5s100.334 -14.5 185.001 -14.5l-24 -140h-139z" />
    <glyph glyph-name="bar" unicode="|" 
d="M462 -276v1681h146v-1681h-146z" />
    <glyph glyph-name="braceright" unicode="}" horiz-adv-x="752" 
d="M-131 -420l24.001 139.996c153.333 0 256.166 25.667 308.499 77s78.5 131.333 78.5 240c0 22 -2 55.333 -6 100s-6 78.334 -6 101.001c0 148.667 92 258.334 276 329.001c-118.667 76.667 -178 158.667 -178 246c0 47.333 21.667 116.5 65 207.5s65 163.5 65 217.5
c0 87.333 -45.667 131 -137 131h-175l23 133h148c94 0 174.167 -21.5 240.5 -64.5s99.5 -102.167 99.5 -177.5c0 -50 -25 -127.667 -75 -233s-75 -186 -75 -242c0 -109.333 58 -168.666 174 -177.999l-15 -84c-170 -11.333 -255 -115 -255 -311
c0 -27.333 2.33301 -67.666 7 -120.999s7 -93.333 7 -120c0 -121.333 -41.833 -216.833 -125.5 -286.5s-193.5 -104.5 -329.5 -104.5h-139z" />
    <glyph glyph-name="asciitilde" unicode="~" 
d="M128 556c11.333 62.667 40.8359 116 88.5029 160s100.5 66 158.5 66c75.333 0 146.166 -22.167 212.499 -66.5s110.5 -66.5 132.5 -66.5c38 0 69.5 5.83301 94.5 17.5s52.833 40.167 83.5 85.5l49 -17c-16.667 -66.667 -47.334 -123 -92.001 -169s-95 -69 -151 -69
c-63.333 0 -127 19.833 -191 59.5s-114.333 59.5 -151 59.5c-90.667 0 -155.334 -26.667 -194.001 -80z" />
    <glyph glyph-name="nonbreakingspace" unicode="&#xa0;" horiz-adv-x="617" 
 />
    <glyph glyph-name="exclamdown" unicode="&#xa1;" horiz-adv-x="752" 
d="M482 808c-39.333 0 -72.833 13.833 -100.5 41.5s-41.5 61.167 -41.5 100.5s13.833 72.666 41.5 99.999s61.167 41 100.5 41s72.833 -13.667 100.5 -41s41.5 -60.666 41.5 -99.999s-13.833 -72.833 -41.5 -100.5s-61.167 -41.5 -100.5 -41.5zM477 689
c-4 -237.333 -10 -398.167 -18 -482.5s-17.333 -156.5 -28 -216.5l-73 -410h-226l71 409c22 128 89.667 361.333 203 700h71z" />
    <glyph glyph-name="cent" unicode="&#xa2;" 
d="M920 870l-36.001 -142.002c-46.667 42 -99.667 71.667 -159 89l-168 -586c6 -0.666992 12.333 -1 19 -1c88 0 172 23 252 69l-19 -150c-79.333 -30 -166 -45 -260 -45c-9.33301 0 -18.666 0.333008 -27.999 1l-74 -257h-115l83 279
c-53.333 8.66699 -106.333 44.834 -159 108.501s-79 126.834 -79 189.501c0 160.667 45.167 290 135.5 388s206.5 147 348.5 147l76 257h102l-77 -269c62 -18.667 114.667 -44.667 158 -78zM619.999 818.998c-76 -5.33301 -138.667 -43.334 -188 -114.001
s-74 -155.667 -74 -255c0 -40.667 10.167 -79.667 30.5 -117s42.5 -60.666 66.5 -69.999z" />
    <glyph glyph-name="sterling" unicode="&#xa3;" horiz-adv-x="1084" 
d="M335 694l-176.997 -0.000976562l26 149h151c-2.66699 232 37.5 396.167 120.5 492.5s213.167 144.5 390.5 144.5c49.333 0 96.666 -7.66699 141.999 -23s77 -33.666 95 -54.999l-95 -152c-58.667 41.333 -123.334 62 -194.001 62c-172.667 0 -259 -135 -259 -405
c0 -20.667 0.666992 -42 2 -64h211l-26 -149h-185c2 -80 -11 -179.667 -39 -299s-63.667 -196.333 -107 -231c71.333 -45.333 164.333 -68 279 -68c46.667 0 96 13.667 148 41s89.333 58.666 112 93.999l115 -127c-22.667 -46 -73.5 -88.833 -152.5 -128.5
s-154.5 -59.5 -226.5 -59.5c-76 0 -145.667 11 -209 33s-122.333 33 -177 33c-46.667 0 -104 -5 -172 -15l-28 151c8 2.66699 36.167 23.834 84.5 63.501s89.166 107 122.499 202s50 184.167 50 267.5c0 14.667 -0.666992 29 -2 43z" />
    <glyph glyph-name="currency" unicode="&#xa4;" 
d="M983 246l-143 144c-80.667 -56 -165 -84 -253 -84c-87.333 0 -171.666 28 -252.999 84l-143 -144l-84 88l143 140c-54.667 84.667 -82 168.667 -82 252c0 82.667 27.333 166.334 82 251.001l-143 140l84 88l143 -143c81.333 55.333 165.666 83 252.999 83
c88 0 172.333 -27.667 253 -83l143 143l85 -88l-143 -140c54.667 -84.667 82 -168.334 82 -251.001c0 -83.333 -27.333 -167.333 -82 -252l143 -140zM287 726c0 -83.333 29 -154.168 87 -212.501s128.667 -87.5 212 -87.5s154 29.333 212 88s87 129.334 87 212.001
c0 83.333 -29 154 -87 212s-128.667 87 -212 87c-82.667 0 -153.167 -29 -211.5 -87s-87.5 -128.667 -87.5 -212z" />
    <glyph glyph-name="yen" unicode="&#xa5;" horiz-adv-x="1140" 
d="M714 656l-19 -110h251l-24 -131h-251l-73 -415h-200l73 415h-246l24 131h246l19 110l-332 809h209l249 -625l461 625h226z" />
    <glyph glyph-name="brokenbar" unicode="&#xa6;" 
d="M501 694v723h146v-723h-146zM501 -276v723h146v-723h-146z" />
    <glyph glyph-name="section" unicode="&#xa7;" horiz-adv-x="929" 
d="M298 937c-54.667 34.667 -82 94.668 -82 180.001c0 119.333 41.167 211.333 123.5 276s191.833 97 328.5 97c44 0 93.333 -9.83301 148 -29.5s96 -42.834 124 -69.501l-89 -152c-40 47.333 -110 71 -210 71c-140.667 0 -211 -50.667 -211 -152
c0 -16.667 4.5 -32.167 13.5 -46.5s22 -27.166 39 -38.499s50.5 -25.333 100.5 -42l173 -60c76 -40.667 114 -102.667 114 -186c0 -92.667 -39.667 -173.334 -119 -242.001c60 -44.667 90 -99.667 90 -165c0 -120 -44.5 -216.833 -133.5 -290.5
s-200.167 -110.5 -333.5 -110.5c-147.333 0 -258 30.667 -332 92l91 176c28 -24.667 68 -45.834 120 -63.501s99.333 -26.5 142 -26.5c70 0 125.833 15.5 167.5 46.5s62.5 75.5 62.5 133.5c0 68.667 -66.667 118.334 -200 149.001c-74 16.667 -136 46 -186 88
s-75 90.667 -75 146c0 43.333 13.167 87.5 39.5 132.5s57.833 73.833 94.5 86.5zM439 881.001c-54.667 -29.333 -82 -64.999 -82 -106.999c0 -37.333 15.333 -66.833 46 -88.5s107 -46.167 229 -73.5c24.667 35.333 37 73.666 37 114.999c0 30 -9 55 -27 75
s-41.333 33.833 -70 41.5s-73 20.167 -133 37.5z" />
    <glyph glyph-name="dieresis" unicode="&#xa8;" 
d="M490 1453c31.333 0 57.833 -10.833 79.5 -32.5s32.5 -48.167 32.5 -79.5s-11 -58 -33 -80s-48.333 -33 -79 -33c-31.333 0 -58 11 -80 33s-33 48.667 -33 80s11 57.833 33 79.5s48.667 32.5 80 32.5zM962 1453c31.333 0 58 -10.833 80 -32.5s33 -48.167 33 -79.5
s-11 -58 -33 -80s-48.667 -33 -80 -33s-57.833 11 -79.5 33s-32.5 48.667 -32.5 80s10.833 57.833 32.5 79.5s48.167 32.5 79.5 32.5z" />
    <glyph glyph-name="copyright" unicode="&#xa9;" horiz-adv-x="1460" 
d="M105 661c0 186 66 344.833 198 476.5s291 197.5 477 197.5s344.833 -65.833 476.5 -197.5s197.5 -290.5 197.5 -476.5s-65.833 -345 -197.5 -477s-290.5 -198 -476.5 -198s-345 66 -477 198s-198 291 -198 477zM1344 661c0 156 -55 289 -165 399s-243 165 -399 165
s-289.167 -55 -399.5 -165s-165.5 -243 -165.5 -399s55.167 -289.167 165.5 -399.5s243.5 -165.5 399.5 -165.5s289 55.167 399 165.5s165 243.5 165 399.5zM1038 335c-66.667 -66 -151.332 -98.999 -253.999 -98.999c-108 0 -193.333 38.833 -256 116.5
s-94 181.167 -94 310.5c0 124.667 33.333 227.834 100 309.501s152.667 122.5 258 122.5c91.333 0 162 -14.667 212 -44l-38 -97c-36 26 -93.333 39 -172 39c-73.333 0 -131.833 -31.333 -175.5 -94s-65.5 -143.334 -65.5 -242.001c0 -94.667 22.667 -171.334 68 -230.001
s103.666 -88 174.999 -88c78 0 137.667 27.333 179 82z" />
    <glyph glyph-name="ordfeminine" unicode="&#xaa;" horiz-adv-x="927" 
d="M929 1430l-92 -436.001c-4 -18.667 -6 -48.667 -6 -90c0 -68.667 20.667 -130 62 -184h-133c-28.667 28.667 -46.334 56.334 -53.001 83.001c-49.333 -60 -128 -90 -236 -90c-77.333 0 -138.5 22.5 -183.5 67.5s-67.5 107.167 -67.5 186.5
c0 134.667 42.833 255.667 128.5 363s192.834 161 321.501 161c120 0 206.333 -20.333 259 -61zM784 1342c-12.667 20 -55 30 -127 30c-65.333 0 -127.833 -37.667 -187.5 -113s-89.5 -168 -89.5 -278c0 -99.333 44.333 -149 133 -149c98.667 0 167.667 81 207 243z" />
    <glyph glyph-name="guillemotleft" unicode="&#xab;" 
d="M123 535l11 64l398 244l-22 -125l-240 -157l188 -138l-22 -125zM535 535l11 64l398 244l-22 -125l-240 -157l188 -138l-22 -125z" />
    <glyph glyph-name="logicalnot" unicode="&#xac;" 
d="M960 886v-486h-141v345h-697v141h838z" />
    <glyph glyph-name="sfthyphen" unicode="&#xad;" horiz-adv-x="752" 
d="M144 506l30 175h428l-30 -175h-428z" />
    <glyph glyph-name="registered" unicode="&#xae;" horiz-adv-x="1460" 
d="M105 661c0 186 66 344.833 198 476.5s291 197.5 477 197.5s344.833 -65.833 476.5 -197.5s197.5 -290.5 197.5 -476.5s-65.833 -345 -197.5 -477s-290.5 -198 -476.5 -198s-345 66 -477 198s-198 291 -198 477zM1344 661c0 156 -55 289 -165 399s-243 165 -399 165
s-289.167 -55 -399.5 -165s-165.5 -243 -165.5 -399s55.167 -289.167 165.5 -399.5s243.5 -165.5 399.5 -165.5s289 55.167 399 165.5s165 243.5 165 399.5zM990 254l-211 357h-120v-357h-119v831h213c200 0 300 -76.667 300 -230c0 -106.667 -53.667 -182 -161 -226
l227 -375h-129zM659 983v-276c10 -1.33301 36 -2 78 -2c77.333 0 129.333 9.83301 156 29.5s40 57.167 40 112.5c0 91.333 -60 137 -180 137h-47z" />
    <glyph glyph-name="overscore" unicode="&#xaf;" 
d="M-8 1546v129h1085v-129h-1085z" />
    <glyph glyph-name="degree" unicode="&#xb0;" 
d="M653 1072c-58.667 0 -108.667 20.5 -150 61.5s-62 90.5 -62 148.5s20.667 107.333 62 148s91.333 61 150 61c58 0 107.667 -20.333 149 -61s62 -90 62 -148s-20.667 -107.5 -62 -148.5s-91 -61.5 -149 -61.5zM653 1421c-38.667 0 -71.5 -13.667 -98.5 -41
s-40.5 -60 -40.5 -98s13.5 -70.667 40.5 -98s59.833 -41 98.5 -41c38 0 70.667 13.667 98 41s41 60 41 98s-13.667 70.667 -41 98s-60 41 -98 41z" />
    <glyph glyph-name="plusminus" unicode="&#xb1;" 
d="M640 706h349v-141h-349v-345h-141v345h-348v141h348v343h141v-343zM989 121v-141h-838v141h838z" />
    <glyph glyph-name="twosuperior" unicode="&#xb2;" horiz-adv-x="924" 
d="M235 595l4 24l339 414c85.333 104 128 187.333 128 250c0 63.333 -36.333 95 -109 95c-70.667 0 -134 -41.333 -190 -124l-66 63c25.333 49.333 63.333 90.5 114 123.5s102.667 49.5 156 49.5c152.667 0 229 -58.333 229 -175c0 -92 -48 -197 -144 -315l-234 -287h334
l-21 -118h-540z" />
    <glyph glyph-name="threesuperior" unicode="&#xb3;" horiz-adv-x="924" 
d="M205 657l77.001 101.999c26 -36 72 -54 138 -54c56.667 0 102.667 15.5 138 46.5s53 74.167 53 129.5c0 86 -49.333 129 -148 129h-10l18 102h6c52.667 0 95 15 127 45s48 70.667 48 122c0 60.667 -40.333 91 -121 91c-56.667 0 -100.334 -14.667 -131.001 -44l-38 91
c45.333 48.667 112 73 200 73c68.667 0 123.167 -16.833 163.5 -50.5s60.5 -77.5 60.5 -131.5s-17 -103.667 -51 -149s-75 -76.666 -123 -93.999c86 -30 129 -89.667 129 -179c0 -80.667 -27.333 -151 -82 -211s-142 -90 -262 -90c-86 0 -150 24 -192 72z" />
    <glyph glyph-name="acute" unicode="&#xb4;" 
d="M917 1558l-226 -333h-140l169 333h197z" />
    <glyph glyph-name="mu1" unicode="&#xb5;" horiz-adv-x="1140" 
d="M230 18l-76.999 -438h-190l262 1491h190l-109 -623c-7.33301 -42 -11 -77.667 -11 -107c0 -130 64 -195 192 -195c77.333 0 139.5 21.333 186.5 64s72.167 71 75.5 85l136 776h190l-188 -1071h-190l26 148c-32.667 -52 -77.834 -93 -135.501 -123
s-118.167 -45 -181.5 -45c-72 0 -130.667 12.667 -176 38z" />
    <glyph glyph-name="paragraph" unicode="&#xb6;" horiz-adv-x="1226" 
d="M1236 1384l0.000976562 -134h-154l-179 -946c38.667 0 91.334 11.667 158.001 35l25 -134c-76.667 -29.333 -147 -44 -211 -44c-42.667 -198.667 -95.334 -338 -158.001 -418s-140.667 -120 -234 -120c-146.667 0 -243.334 24 -290.001 72l55 150
c52.667 -34.667 117.667 -52 195 -52c116.667 0 199 124.333 247 373c-130 -5.33301 -249.833 38 -359.5 130s-164.5 215.333 -164.5 370c0 189.333 70.333 346.833 211 472.5s321.667 200.167 543 223.5l13 103h174l-10 -86c60.667 3.33301 107 5 139 5zM900.001 1218
c-103.333 -36 -191.5 -104.169 -264.5 -204.502s-109.5 -207.166 -109.5 -320.499c0 -187.333 67.667 -310.666 203 -369.999z" />
    <glyph glyph-name="middot" unicode="&#xb7;" horiz-adv-x="752" 
d="M355 801c41.333 0 76.666 -14.667 105.999 -44s44 -64.666 44 -105.999s-14.667 -76.833 -44 -106.5s-64.666 -44.5 -105.999 -44.5s-76.666 14.833 -105.999 44.5s-44 65.167 -44 106.5s14.667 76.666 44 105.999s64.666 44 105.999 44z" />
    <glyph glyph-name="cedilla" unicode="&#xb8;" 
d="M301 -455l-8 99c58.667 0 107.667 10.667 147 32s59 51.333 59 90s-26.333 58 -79 58l21 120c58 0 102.5 -14.667 133.5 -44s46.5 -68.333 46.5 -117c0 -74.667 -30.5 -133 -91.5 -175s-137.167 -63 -228.5 -63z" />
    <glyph glyph-name="onesuperior" unicode="&#xb9;" horiz-adv-x="924" 
d="M416 595l122 674l-208 -112l20 113c142.667 66 249 135.333 319 208h36l-156 -883h-133z" />
    <glyph glyph-name="ordmasculine" unicode="&#xba;" horiz-adv-x="940" 
d="M253 1004c0 148 38.167 266.333 114.5 355s180.5 133 312.5 133c91.333 0 162.5 -24.833 213.5 -74.5s76.5 -119.5 76.5 -209.5c0 -150.667 -36.5 -270.667 -109.5 -360s-175.5 -134 -307.5 -134c-92 0 -165 26 -219 78s-81 122.667 -81 212zM403 1013
c0 -53.333 15.667 -98.333 47 -135s72 -55 122 -55c77.333 0 138 37.667 182 113s66 164.333 66 267c0 120 -53 180 -159 180c-82 0 -145.5 -34.5 -190.5 -103.5s-67.5 -157.833 -67.5 -266.5z" />
    <glyph glyph-name="guillemotright" unicode="&#xbb;" 
d="M568 535l-397 -237l22 125l236 138l-184 157l22 125l312 -244zM970 535l-397 -237l22 125l236 138l-184 157l22 125l312 -244z" />
    <glyph glyph-name="onequarter" unicode="&#xbc;" horiz-adv-x="1668" 
d="M282 595l122 674l-208 -112l20 113c142.667 66 249 135.333 319 208h36l-156 -883h-133zM378 -35h-127l973 1526h126zM1412 210l-37 -210h-130l37 210h-404l12 68l599 605h42l-101 -571h90l-19 -102h-89zM1358 622l-310 -310h252z" />
    <glyph glyph-name="onehalf" unicode="&#xbd;" horiz-adv-x="1668" 
d="M296 595l122 674l-208 -112l20 113c142.667 66 249 135.333 319 208h36l-156 -883h-133zM393 -35h-127l973 1526h126zM943 0l4 24l339 414c85.333 104 128 187.333 128 250c0 63.333 -36.333 95 -109 95c-70.667 0 -134 -41.333 -190 -124l-66 63
c25.333 49.333 63.333 90.5 114 123.5s102.667 49.5 156 49.5c152.667 0 229 -58.333 229 -175c0 -92 -48 -197 -144 -315l-234 -287h334l-21 -118h-540z" />
    <glyph glyph-name="threequarters" unicode="&#xbe;" horiz-adv-x="1668" 
d="M135 657l77.001 101.999c26 -36 72 -54 138 -54c56.667 0 102.667 15.5 138 46.5s53 74.167 53 129.5c0 86 -49.333 129 -148 129h-10l18 102h6c52.667 0 95 15 127 45s48 70.667 48 122c0 60.667 -40.333 91 -121 91c-56.667 0 -100.334 -14.667 -131.001 -44l-38 91
c45.333 48.667 112 73 200 73c68.667 0 123.167 -16.833 163.5 -50.5s60.5 -77.5 60.5 -131.5s-17 -103.667 -51 -149s-75 -76.666 -123 -93.999c86 -30 129 -89.667 129 -179c0 -80.667 -27.333 -151 -82 -211s-142 -90 -262 -90c-86 0 -150 24 -192 72zM515.001 -35.001
h-127l973 1526h126zM1476 209.999l-37 -210h-130l37 210h-404l12 68l599 605h42l-101 -571h90l-19 -102h-89zM1422 621.999l-310 -310h252z" />
    <glyph glyph-name="questiondown" unicode="&#xbf;" horiz-adv-x="752" 
d="M516 808c-38.667 0 -72 14 -100 42s-42 61.333 -42 100s14 71.834 42 99.501s61.333 41.5 100 41.5c39.333 0 72.833 -13.833 100.5 -41.5s41.5 -60.834 41.5 -99.501s-13.833 -72 -41.5 -100s-61.167 -42 -100.5 -42zM581 -337
c-62 -55.333 -167.331 -83.001 -315.998 -83.001c-91.333 0 -164 25 -218 75s-81 119.333 -81 208c0 64.667 12.667 125.5 38 182.5s66.666 110.833 123.999 161.5l210 182c85.333 80 126.333 164.333 123 253h98c0.666992 -8 3.16699 -23.333 7.5 -46
s6.5 -40.334 6.5 -53.001c0 -49.333 -10.833 -97.166 -32.5 -143.499s-51.834 -88.5 -90.501 -126.5l-186 -179c-71.333 -75.333 -107 -149.666 -107 -222.999c0 -92 55 -138 165 -138c80 0 145 20 195 60z" />
    <glyph glyph-name="Agrave" unicode="&#xc0;" horiz-adv-x="1251" 
d="M936 0l-46 309h-525l-173 -309h-224l857 1485h53l290 -1485h-232zM779 1082l-335 -626h425zM811 1585l-156 333h197l59 -333h-100z" />
    <glyph glyph-name="Aacute" unicode="&#xc1;" horiz-adv-x="1251" 
d="M936 0l-46 309h-525l-173 -309h-224l857 1485h53l290 -1485h-232zM779 1082l-335 -626h425zM1057 1918l-226 -333h-140l169 333h197z" />
    <glyph glyph-name="Acircumflex" unicode="&#xc2;" horiz-adv-x="1251" 
d="M936 0l-46 309h-525l-173 -309h-224l857 1485h53l290 -1485h-232zM779 1082l-335 -626h425zM1000 1582l-130 192l-211 -192h-172l361 341h107l242 -341h-197z" />
    <glyph glyph-name="Atilde" unicode="&#xc3;" horiz-adv-x="1251" 
d="M936 0l-46 309h-525l-173 -309h-224l857 1485h53l290 -1485h-232zM779 1082l-335 -626h425zM1192 1792c-60 -138 -136.334 -207 -229.001 -207c-40 0 -83.333 12.833 -130 38.5s-80.334 38.5 -101.001 38.5c-47.333 0 -88 -25.667 -122 -77h-91
c20 56 50.5 104.5 91.5 145.5s84.167 61.5 129.5 61.5c50.667 0 98.334 -12.833 143.001 -38.5s77.667 -38.5 99 -38.5c54.667 0 95.334 25.667 122.001 77h88z" />
    <glyph glyph-name="Adieresis" unicode="&#xc4;" horiz-adv-x="1251" 
d="M936 0l-46 309h-525l-173 -309h-224l857 1485h53l290 -1485h-232zM779 1082l-335 -626h425zM620 1813c31.333 0 57.833 -10.833 79.5 -32.5s32.5 -48.167 32.5 -79.5s-11 -58 -33 -80s-48.333 -33 -79 -33c-31.333 0 -58 11 -80 33s-33 48.667 -33 80s11 57.833 33 79.5
s48.667 32.5 80 32.5zM1092 1813c31.333 0 58 -10.833 80 -32.5s33 -48.167 33 -79.5s-11 -58 -33 -80s-48.667 -33 -80 -33s-57.833 11 -79.5 33s-32.5 48.667 -32.5 80s10.833 57.833 32.5 79.5s48.167 32.5 79.5 32.5z" />
    <glyph glyph-name="Aring" unicode="&#xc5;" horiz-adv-x="1251" 
d="M936 0l-46 309h-525l-173 -309h-224l857 1485h53l290 -1485h-232zM779 1082l-335 -626h425zM853 1568c-66.667 0 -120.331 15.668 -160.998 47.001s-61 75 -61 131c0 47.333 22.667 88.666 68 123.999s96.666 53 153.999 53c61.333 0 113.666 -16.5 156.999 -49.5
s65 -75.5 65 -127.5c0 -54 -20.5 -97.167 -61.5 -129.5s-94.5 -48.5 -160.5 -48.5zM853.003 1835c-35.333 0 -66.499 -8.5 -93.499 -25.5s-40.5 -38.167 -40.5 -63.5c0 -60 44.667 -90 134 -90c37.333 0 69.166 8 95.499 24s39.5 38 39.5 66
c0 26.667 -13.5 48.167 -40.5 64.5s-58.5 24.5 -94.5 24.5z" />
    <glyph glyph-name="AE" unicode="&#xc6;" horiz-adv-x="1775" 
d="M782 307h-438l-193 -307h-234l963 1465h981l-33 -180h-666l-69 -407h474l-30 -170h-474l-94 -528h654l-31 -180h-864zM948 1252l-514 -796h374z" />
    <glyph glyph-name="Ccedilla" unicode="&#xc7;" horiz-adv-x="1225" 
d="M1204 1443l-55.001 -195c-56 42.667 -135 64 -237 64c-157.333 0 -289.833 -78.5 -397.5 -235.5s-161.5 -326.5 -161.5 -508.5c0 -275.333 114.333 -413 343 -413c118 0 232.667 48.333 344 145l-16 -212c-82 -75.333 -209 -113 -381 -113
c-160 0 -283.667 49.333 -371 148s-131 234.667 -131 408c0 268 72.833 494.833 218.5 680.5s333.834 278.5 564.501 278.5c116 0 209.333 -15.667 280 -47zM512.999 -455l-8 99c58.667 0 107.667 10.667 147 32s59 51.333 59 90s-26.333 58 -79 58l21 120
c58 0 102.5 -14.667 133.5 -44s46.5 -68.333 46.5 -117c0 -74.667 -30.5 -133 -91.5 -175s-137.167 -63 -228.5 -63z" />
    <glyph glyph-name="Egrave" unicode="&#xc8;" horiz-adv-x="1097" 
d="M484 1285l-72 -407h484l-30 -170h-484l-93 -528h664l-32 -180h-874l259 1465h885l-33 -180h-674zM774 1585l-156 333h197l59 -333h-100z" />
    <glyph glyph-name="Eacute" unicode="&#xc9;" horiz-adv-x="1097" 
d="M484 1285l-72 -407h484l-30 -170h-484l-93 -528h664l-32 -180h-874l259 1465h885l-33 -180h-674zM975 1918l-226 -333h-140l169 333h197z" />
    <glyph glyph-name="Ecircumflex" unicode="&#xca;" horiz-adv-x="1097" 
d="M484 1285l-72 -407h484l-30 -170h-484l-93 -528h664l-32 -180h-874l259 1465h885l-33 -180h-674zM916 1582l-130 192l-211 -192h-172l361 341h107l242 -341h-197z" />
    <glyph glyph-name="Edieresis" unicode="&#xcb;" horiz-adv-x="1097" 
d="M484 1285l-72 -407h484l-30 -170h-484l-93 -528h664l-32 -180h-874l259 1465h885l-33 -180h-674zM561 1813c31.333 0 57.833 -10.833 79.5 -32.5s32.5 -48.167 32.5 -79.5s-11 -58 -33 -80s-48.333 -33 -79 -33c-31.333 0 -58 11 -80 33s-33 48.667 -33 80
s11 57.833 33 79.5s48.667 32.5 80 32.5zM1033 1813c31.333 0 58 -10.833 80 -32.5s33 -48.167 33 -79.5s-11 -58 -33 -80s-48.667 -33 -80 -33s-57.833 11 -79.5 33s-32.5 48.667 -32.5 80s10.833 57.833 32.5 79.5s48.167 32.5 79.5 32.5z" />
    <glyph glyph-name="Igrave" unicode="&#xcc;" horiz-adv-x="570" 
d="M75 0l259 1465h204l-259 -1465h-204zM431 1585l-156 333h197l59 -333h-100z" />
    <glyph glyph-name="Iacute" unicode="&#xcd;" horiz-adv-x="570" 
d="M75 0l259 1465h204l-259 -1465h-204zM750 1918l-226 -333h-140l169 333h197z" />
    <glyph glyph-name="Icircumflex" unicode="&#xce;" horiz-adv-x="570" 
d="M75 0l259 1465h204l-259 -1465h-204zM616 1582l-130 192l-211 -192h-172l361 341h107l242 -341h-197z" />
    <glyph glyph-name="Idieresis" unicode="&#xcf;" horiz-adv-x="570" 
d="M75 0l259 1465h204l-259 -1465h-204zM226 1813c31.333 0 57.833 -10.833 79.5 -32.5s32.5 -48.167 32.5 -79.5s-11 -58 -33 -80s-48.333 -33 -79 -33c-31.333 0 -58 11 -80 33s-33 48.667 -33 80s11 57.833 33 79.5s48.667 32.5 80 32.5zM698 1813
c31.333 0 58 -10.833 80 -32.5s33 -48.167 33 -79.5s-11 -58 -33 -80s-48.667 -33 -80 -33s-57.833 11 -79.5 33s-32.5 48.667 -32.5 80s10.833 57.833 32.5 79.5s48.167 32.5 79.5 32.5z" />
    <glyph glyph-name="Eth" unicode="&#xd0;" horiz-adv-x="1256" 
d="M219 867l106 598c82 15.333 165 23 249 23c212.667 0 378 -49.667 496 -149s177 -246.333 177 -441c0 -284 -81.333 -504.667 -244 -662s-368 -236 -616 -236h-320l124 704h-159l28 163h159zM651 867l-28 -163h-230l-87 -515c38.667 -5.33301 76.334 -8 113.001 -8
c184.667 0 333 68.333 445 205s168 311 168 523c0 121.333 -40.167 218.333 -120.5 291s-179.5 109 -297.5 109c-42.667 0 -83.334 -5.33301 -122.001 -16l-72 -426h231z" />
    <glyph glyph-name="Ntilde" unicode="&#xd1;" horiz-adv-x="1307" 
d="M1003 -20l-572 1040l-172 -1020h-200l259 1465h80l560 -998l169 998h198l-262 -1485h-60zM1122 1792c-60 -138 -136.334 -207 -229.001 -207c-40 0 -83.333 12.833 -130 38.5s-80.334 38.5 -101.001 38.5c-47.333 0 -88 -25.667 -122 -77h-91
c20 56 50.5 104.5 91.5 145.5s84.167 61.5 129.5 61.5c50.667 0 98.334 -12.833 143.001 -38.5s77.667 -38.5 99 -38.5c54.667 0 95.334 25.667 122.001 77h88z" />
    <glyph glyph-name="Ograve" unicode="&#xd2;" horiz-adv-x="1380" 
d="M114 538c0 257.333 68.668 480.501 206.001 669.501s315.666 283.5 534.999 283.5c168.667 0 297.167 -46 385.5 -138s132.5 -224.333 132.5 -397c0 -284.667 -69.5 -519.334 -208.5 -704.001s-331.5 -277 -577.5 -277c-147.333 0 -263 52.167 -347 156.5
s-126 239.833 -126 406.5zM327.001 566.001c0 -126.667 25.166 -226.833 75.499 -300.5s122.5 -110.5 216.5 -110.5c166 0 297.833 77 395.5 231s146.5 337 146.5 549c0 251.333 -108 377 -324 377c-149.333 0 -271.666 -81.5 -366.999 -244.5s-143 -330.167 -143 -501.5z
M923 1585l-156 333h197l59 -333h-100z" />
    <glyph glyph-name="Oacute" unicode="&#xd3;" horiz-adv-x="1380" 
d="M114 538c0 257.333 68.668 480.501 206.001 669.501s315.666 283.5 534.999 283.5c168.667 0 297.167 -46 385.5 -138s132.5 -224.333 132.5 -397c0 -284.667 -69.5 -519.334 -208.5 -704.001s-331.5 -277 -577.5 -277c-147.333 0 -263 52.167 -347 156.5
s-126 239.833 -126 406.5zM327.001 566.001c0 -126.667 25.166 -226.833 75.499 -300.5s122.5 -110.5 216.5 -110.5c166 0 297.833 77 395.5 231s146.5 337 146.5 549c0 251.333 -108 377 -324 377c-149.333 0 -271.666 -81.5 -366.999 -244.5s-143 -330.167 -143 -501.5z
M1142 1918l-226 -333h-140l169 333h197z" />
    <glyph glyph-name="Ocircumflex" unicode="&#xd4;" horiz-adv-x="1380" 
d="M114 538c0 257.333 68.668 480.501 206.001 669.501s315.666 283.5 534.999 283.5c168.667 0 297.167 -46 385.5 -138s132.5 -224.333 132.5 -397c0 -284.667 -69.5 -519.334 -208.5 -704.001s-331.5 -277 -577.5 -277c-147.333 0 -263 52.167 -347 156.5
s-126 239.833 -126 406.5zM327.001 566.001c0 -126.667 25.166 -226.833 75.499 -300.5s122.5 -110.5 216.5 -110.5c166 0 297.833 77 395.5 231s146.5 337 146.5 549c0 251.333 -108 377 -324 377c-149.333 0 -271.666 -81.5 -366.999 -244.5s-143 -330.167 -143 -501.5z
M1066 1582l-130 192l-211 -192h-172l361 341h107l242 -341h-197z" />
    <glyph glyph-name="Otilde" unicode="&#xd5;" horiz-adv-x="1380" 
d="M114 538c0 257.333 68.668 480.501 206.001 669.501s315.666 283.5 534.999 283.5c168.667 0 297.167 -46 385.5 -138s132.5 -224.333 132.5 -397c0 -284.667 -69.5 -519.334 -208.5 -704.001s-331.5 -277 -577.5 -277c-147.333 0 -263 52.167 -347 156.5
s-126 239.833 -126 406.5zM327.001 566.001c0 -126.667 25.166 -226.833 75.499 -300.5s122.5 -110.5 216.5 -110.5c166 0 297.833 77 395.5 231s146.5 337 146.5 549c0 251.333 -108 377 -324 377c-149.333 0 -271.666 -81.5 -366.999 -244.5s-143 -330.167 -143 -501.5z
M1272 1792c-60 -138 -136.334 -207 -229.001 -207c-40 0 -83.333 12.833 -130 38.5s-80.334 38.5 -101.001 38.5c-47.333 0 -88 -25.667 -122 -77h-91c20 56 50.5 104.5 91.5 145.5s84.167 61.5 129.5 61.5c50.667 0 98.334 -12.833 143.001 -38.5s77.667 -38.5 99 -38.5
c54.667 0 95.334 25.667 122.001 77h88z" />
    <glyph glyph-name="Odieresis" unicode="&#xd6;" horiz-adv-x="1380" 
d="M127 538c0 257.333 68.668 480.501 206.001 669.501s315.666 283.5 534.999 283.5c168.667 0 297.167 -46 385.5 -138s132.5 -224.333 132.5 -397c0 -284.667 -69.5 -519.334 -208.5 -704.001s-331.5 -277 -577.5 -277c-147.333 0 -263 52.167 -347 156.5
s-126 239.833 -126 406.5zM340.001 566.001c0 -126.667 25.166 -226.833 75.499 -300.5s122.5 -110.5 216.5 -110.5c166 0 297.833 77 395.5 231s146.5 337 146.5 549c0 251.333 -108 377 -324 377c-149.333 0 -271.666 -81.5 -366.999 -244.5s-143 -330.167 -143 -501.5z
M651 1813c31.333 0 57.833 -10.833 79.5 -32.5s32.5 -48.167 32.5 -79.5s-11 -58 -33 -80s-48.333 -33 -79 -33c-31.333 0 -58 11 -80 33s-33 48.667 -33 80s11 57.833 33 79.5s48.667 32.5 80 32.5zM1123 1813c31.333 0 58 -10.833 80 -32.5s33 -48.167 33 -79.5
s-11 -58 -33 -80s-48.667 -33 -80 -33s-57.833 11 -79.5 33s-32.5 48.667 -32.5 80s10.833 57.833 32.5 79.5s48.167 32.5 79.5 32.5z" />
    <glyph glyph-name="multiply" unicode="&#xd7;" 
d="M544 728l317 317l100 -99l-317 -317l314 -315l-100 -100l-314 315l-317 -317l-100 99l317 317l-321 321l100 100z" />
    <glyph glyph-name="Oslash" unicode="&#xd8;" horiz-adv-x="1380" 
d="M1537 1491l-211 -241c40 -80 60 -178 60 -294c0 -285.333 -69.667 -520.166 -209 -704.499s-331.666 -276.5 -576.999 -276.5c-120 0 -220 35.667 -300 107l-89 -102h-213l203 230c-49.333 93.333 -74 202.666 -74 327.999c0 257.333 68.667 480.5 206 669.5
s315.666 283.5 534.999 283.5c155.333 0 277 -39.333 365 -118l104 118h200zM361 390l733.999 827.001c-54 63.333 -135.667 95 -245 95c-149.333 0 -271.666 -81.5 -366.999 -244.5s-143 -330.167 -143 -501.5c0 -64.667 7 -123.334 21 -176.001zM1163 1065l-726 -827
c49.333 -55.333 114.333 -83 195 -83c166 0 297.833 77 395.5 231s146.5 337 146.5 549c0 48 -3.66699 91.333 -11 130z" />
    <glyph glyph-name="Ugrave" unicode="&#xd9;" horiz-adv-x="1328" 
d="M324 1465l209.999 0.00195312l-180 -1003c-4 -22 -6 -43 -6 -63c0 -75.333 22.833 -134.833 68.5 -178.5s107.834 -65.5 186.501 -65.5c97.333 0 178 27.667 242 83s104.667 131.666 122 228.999l179 998h206l-180 -1019c-26 -148 -92.5 -263.5 -199.5 -346.5
s-240.167 -124.5 -399.5 -124.5c-135.333 0 -242.333 33 -321 99s-118 153 -118 261c0 35.333 3.33301 72.666 10 111.999zM850.999 1585l-156 333h197l59 -333h-100z" />
    <glyph glyph-name="Uacute" unicode="&#xda;" horiz-adv-x="1328" 
d="M324 1465l209.999 0.00195312l-180 -1003c-4 -22 -6 -43 -6 -63c0 -75.333 22.833 -134.833 68.5 -178.5s107.834 -65.5 186.501 -65.5c97.333 0 178 27.667 242 83s104.667 131.666 122 228.999l179 998h206l-180 -1019c-26 -148 -92.5 -263.5 -199.5 -346.5
s-240.167 -124.5 -399.5 -124.5c-135.333 0 -242.333 33 -321 99s-118 153 -118 261c0 35.333 3.33301 72.666 10 111.999zM1117 1918l-226 -333h-140l169 333h197z" />
    <glyph glyph-name="Ucircumflex" unicode="&#xdb;" horiz-adv-x="1328" 
d="M324 1465l209.999 0.00195312l-180 -1003c-4 -22 -6 -43 -6 -63c0 -75.333 22.833 -134.833 68.5 -178.5s107.834 -65.5 186.501 -65.5c97.333 0 178 27.667 242 83s104.667 131.666 122 228.999l179 998h206l-180 -1019c-26 -148 -92.5 -263.5 -199.5 -346.5
s-240.167 -124.5 -399.5 -124.5c-135.333 0 -242.333 33 -321 99s-118 153 -118 261c0 35.333 3.33301 72.666 10 111.999zM1020 1582l-130 192l-211 -192h-172l361 341h107l242 -341h-197z" />
    <glyph glyph-name="Udieresis" unicode="&#xdc;" horiz-adv-x="1328" 
d="M324 1465l209.999 0.00195312l-180 -1003c-4 -22 -6 -43 -6 -63c0 -75.333 22.833 -134.833 68.5 -178.5s107.834 -65.5 186.501 -65.5c97.333 0 178 27.667 242 83s104.667 131.666 122 228.999l179 998h206l-180 -1019c-26 -148 -92.5 -263.5 -199.5 -346.5
s-240.167 -124.5 -399.5 -124.5c-135.333 0 -242.333 33 -321 99s-118 153 -118 261c0 35.333 3.33301 72.666 10 111.999zM589.999 1813c31.333 0 57.833 -10.833 79.5 -32.5s32.5 -48.167 32.5 -79.5s-11 -58 -33 -80s-48.333 -33 -79 -33c-31.333 0 -58 11 -80 33
s-33 48.667 -33 80s11 57.833 33 79.5s48.667 32.5 80 32.5zM1062 1813c31.333 0 58 -10.833 80 -32.5s33 -48.167 33 -79.5s-11 -58 -33 -80s-48.667 -33 -80 -33s-57.833 11 -79.5 33s-32.5 48.667 -32.5 80s10.833 57.833 32.5 79.5s48.167 32.5 79.5 32.5z" />
    <glyph glyph-name="Yacute" unicode="&#xdd;" horiz-adv-x="1168" 
d="M714 656l-116 -656h-200l116 656l-332 809h209l249 -625l461 625h226zM1012 1858l-226 -333h-140l169 333h197z" />
    <glyph glyph-name="Thorn" unicode="&#xde;" horiz-adv-x="1113" 
d="M306 314l-55 -314h-201l258 1465h201l-33 -190c51.333 9.33301 103 14 155 14c149.333 0 267.833 -36.167 355.5 -108.5s131.5 -174.5 131.5 -306.5c0 -389.333 -198.667 -584 -596 -584c-70.667 0 -142.667 8 -216 24zM444 1095l-106 -601
c61.333 -20.667 124 -31 188 -31c120 0 213.333 34 280 102s100 162.333 100 283c0 178.667 -98 268 -294 268c-52.667 0 -108.667 -7 -168 -21z" />
    <glyph glyph-name="germandbls" unicode="&#xdf;" horiz-adv-x="1119" 
d="M259 -111c-14.667 -82 -57.167 -150.17 -127.5 -204.503s-151.5 -86.166 -243.5 -95.499l-13 120c116.667 32 188.334 127.333 215.001 286l203 1164c18.667 76.667 48.667 141.834 90 195.501s87.833 93 139.5 118s108.167 37.5 169.5 37.5
c101.333 0 181 -19.5 239 -58.5s87 -95.167 87 -168.5c0 -44.667 -9.33301 -88.834 -28 -132.501s-49.334 -88 -92.001 -133s-64 -72.5 -64 -82.5c0 -14 26.333 -36.333 79 -67c110.667 -64 166 -169.667 166 -317c0 -156.667 -43.5 -291 -130.5 -403
s-199.5 -168 -337.5 -168c-50 0 -95.333 7.66699 -136 23l62 151c30 -6 48.333 -9 55 -9c86 0 154.5 34.167 205.5 102.5s76.5 153.5 76.5 255.5c0 38 -6.66699 72.833 -20 104.5s-29.333 56.334 -48 74.001l-113 104.5c-42 40 -63 80.333 -63 121
c0 28 17.333 56.167 52 84.5s62.5 51.833 83.5 70.5s37.667 42.334 50 71.001s18.5 60.334 18.5 95.001c0 74.667 -48.667 112 -146 112c-54 0 -100 -20.833 -138 -62.5s-68.667 -128.834 -92 -261.501z" />
    <glyph glyph-name="agrave" unicode="&#xe0;" horiz-adv-x="1076" 
d="M1052 1004l-131 -623c-5.33301 -25.333 -8 -56 -8 -92c0 -104 16.333 -200.333 49 -289h-194c-10.667 21.333 -22 57.333 -34 108c-31.333 -38 -78 -68.833 -140 -92.5s-127.667 -35.5 -197 -35.5c-105.333 0 -187.5 31.167 -246.5 93.5s-88.5 151.833 -88.5 268.5
c0 196 57.833 369.833 173.5 521.5s264.5 227.5 446.5 227.5c172 0 295.333 -29 370 -87zM842 893c-18 28.667 -78.667 43 -182 43c-105.333 0 -198 -56 -278 -168s-120 -252 -120 -420c0 -142 63.333 -213 190 -213c66 0 128 34.167 186 102.5s98.333 155.833 121 262.5z
M657 1225l-156 333h197l59 -333h-100z" />
    <glyph glyph-name="aacute" unicode="&#xe1;" horiz-adv-x="1076" 
d="M1052 1004l-131 -623c-5.33301 -25.333 -8 -56 -8 -92c0 -104 16.333 -200.333 49 -289h-194c-10.667 21.333 -22 57.333 -34 108c-31.333 -38 -78 -68.833 -140 -92.5s-127.667 -35.5 -197 -35.5c-105.333 0 -187.5 31.167 -246.5 93.5s-88.5 151.833 -88.5 268.5
c0 196 57.833 369.833 173.5 521.5s264.5 227.5 446.5 227.5c172 0 295.333 -29 370 -87zM842 893c-18 28.667 -78.667 43 -182 43c-105.333 0 -198 -56 -278 -168s-120 -252 -120 -420c0 -142 63.333 -213 190 -213c66 0 128 34.167 186 102.5s98.333 155.833 121 262.5z
M1008 1558l-226 -333h-140l169 333h197z" />
    <glyph glyph-name="acircumflex" unicode="&#xe2;" horiz-adv-x="1076" 
d="M1052 1004l-131 -623c-5.33301 -25.333 -8 -56 -8 -92c0 -104 16.333 -200.333 49 -289h-194c-10.667 21.333 -22 57.333 -34 108c-31.333 -38 -78 -68.833 -140 -92.5s-127.667 -35.5 -197 -35.5c-105.333 0 -187.5 31.167 -246.5 93.5s-88.5 151.833 -88.5 268.5
c0 196 57.833 369.833 173.5 521.5s264.5 227.5 446.5 227.5c172 0 295.333 -29 370 -87zM842 893c-18 28.667 -78.667 43 -182 43c-105.333 0 -198 -56 -278 -168s-120 -252 -120 -420c0 -142 63.333 -213 190 -213c66 0 128 34.167 186 102.5s98.333 155.833 121 262.5z
M868 1222l-130 192l-211 -192h-172l361 341h107l242 -341h-197z" />
    <glyph glyph-name="atilde" unicode="&#xe3;" horiz-adv-x="1076" 
d="M1052 1004l-131 -623c-5.33301 -25.333 -8 -56 -8 -92c0 -104 16.333 -200.333 49 -289h-194c-10.667 21.333 -22 57.333 -34 108c-31.333 -38 -78 -68.833 -140 -92.5s-127.667 -35.5 -197 -35.5c-105.333 0 -187.5 31.167 -246.5 93.5s-88.5 151.833 -88.5 268.5
c0 196 57.833 369.833 173.5 521.5s264.5 227.5 446.5 227.5c172 0 295.333 -29 370 -87zM842 893c-18 28.667 -78.667 43 -182 43c-105.333 0 -198 -56 -278 -168s-120 -252 -120 -420c0 -142 63.333 -213 190 -213c66 0 128 34.167 186 102.5s98.333 155.833 121 262.5z
M1085 1432c-60 -138 -136.334 -207 -229.001 -207c-40 0 -83.333 12.833 -130 38.5s-80.334 38.5 -101.001 38.5c-47.333 0 -88 -25.667 -122 -77h-91c20 56 50.5 104.5 91.5 145.5s84.167 61.5 129.5 61.5c50.667 0 98.334 -12.833 143.001 -38.5s77.667 -38.5 99 -38.5
c54.667 0 95.334 25.667 122.001 77h88z" />
    <glyph glyph-name="adieresis" unicode="&#xe4;" horiz-adv-x="1076" 
d="M1052 1004l-131 -623c-5.33301 -25.333 -8 -56 -8 -92c0 -104 16.333 -200.333 49 -289h-194c-10.667 21.333 -22 57.333 -34 108c-31.333 -38 -78 -68.833 -140 -92.5s-127.667 -35.5 -197 -35.5c-105.333 0 -187.5 31.167 -246.5 93.5s-88.5 151.833 -88.5 268.5
c0 196 57.833 369.833 173.5 521.5s264.5 227.5 446.5 227.5c172 0 295.333 -29 370 -87zM842 893c-18 28.667 -78.667 43 -182 43c-105.333 0 -198 -56 -278 -168s-120 -252 -120 -420c0 -142 63.333 -213 190 -213c66 0 128 34.167 186 102.5s98.333 155.833 121 262.5z
M495 1453c31.333 0 57.833 -10.833 79.5 -32.5s32.5 -48.167 32.5 -79.5s-11 -58 -33 -80s-48.333 -33 -79 -33c-31.333 0 -58 11 -80 33s-33 48.667 -33 80s11 57.833 33 79.5s48.667 32.5 80 32.5zM967 1453c31.333 0 58 -10.833 80 -32.5s33 -48.167 33 -79.5
s-11 -58 -33 -80s-48.667 -33 -80 -33s-57.833 11 -79.5 33s-32.5 48.667 -32.5 80s10.833 57.833 32.5 79.5s48.167 32.5 79.5 32.5z" />
    <glyph glyph-name="aring" unicode="&#xe5;" horiz-adv-x="1076" 
d="M1052 1004l-131 -623c-5.33301 -25.333 -8 -56 -8 -92c0 -104 16.333 -200.333 49 -289h-194c-10.667 21.333 -22 57.333 -34 108c-31.333 -38 -78 -68.833 -140 -92.5s-127.667 -35.5 -197 -35.5c-105.333 0 -187.5 31.167 -246.5 93.5s-88.5 151.833 -88.5 268.5
c0 196 57.833 369.833 173.5 521.5s264.5 227.5 446.5 227.5c172 0 295.333 -29 370 -87zM842 893c-18 28.667 -78.667 43 -182 43c-105.333 0 -198 -56 -278 -168s-120 -252 -120 -420c0 -142 63.333 -213 190 -213c66 0 128 34.167 186 102.5s98.333 155.833 121 262.5z
M769 1222c-66.667 0 -120.331 15.668 -160.998 47.001s-61 75 -61 131c0 47.333 22.667 88.666 68 123.999s96.666 53 153.999 53c61.333 0 113.666 -16.5 156.999 -49.5s65 -75.5 65 -127.5c0 -54 -20.5 -97.167 -61.5 -129.5s-94.5 -48.5 -160.5 -48.5zM769.003 1489
c-35.333 0 -66.499 -8.5 -93.499 -25.5s-40.5 -38.167 -40.5 -63.5c0 -60 44.667 -90 134 -90c37.333 0 69.166 8 95.499 24s39.5 38 39.5 66c0 26.667 -13.5 48.167 -40.5 64.5s-58.5 24.5 -94.5 24.5z" />
    <glyph glyph-name="ae" unicode="&#xe6;" horiz-adv-x="1730" 
d="M959 506c-5.33301 -32 -7.99902 -62.668 -7.99902 -92.001c0 -88 24.667 -155.667 74 -203s118.333 -71 207 -71c78.667 0 158 29 238 87l-21 -194c-106.667 -35.333 -200.667 -53 -282 -53c-110 0 -199 40 -267 120c-2.66699 -39.333 -5.66699 -72.666 -9 -99.999
l-188 -1c1.33301 26.667 8.33301 78 21 154c-28.667 -51.333 -73 -93 -133 -125s-124.667 -48 -194 -48c-105.333 0 -187.5 31.167 -246.5 93.5s-88.5 151.833 -88.5 268.5c0 196 57.833 369.833 173.5 521.5s264.5 227.5 446.5 227.5
c139.333 0 252.666 -13.667 339.999 -41l-11 -71c102.667 74.667 220.667 112 354 112c106 0 190.667 -22.833 254 -68.5s95 -110.167 95 -193.5c0 -116.667 -49.333 -208.667 -148 -276s-220 -101 -364 -101c-95.333 0 -176.333 18 -243 54zM829.001 903.999
c-58.667 21.333 -115.001 32.001 -169.001 32.001c-114 0 -208.833 -57.333 -284.5 -172s-113.5 -253.334 -113.5 -416.001c0 -142 60 -213 180 -213c144.667 -1.33301 250.334 120 317.001 364zM992 644c51.333 -22.667 110.997 -34 178.997 -34
c98.667 0 182.334 18.167 251.001 54.5s103 87.5 103 153.5c0 75.333 -70 113 -210 113c-67.333 0 -130.666 -27.833 -189.999 -83.5s-103.666 -123.5 -132.999 -203.5z" />
    <glyph glyph-name="ccedilla" unicode="&#xe7;" horiz-adv-x="942" 
d="M928 1037l-35.001 -162.999c-48 38 -112.333 57 -193 57c-122.667 0 -221.834 -48.5 -297.501 -145.5s-113.5 -216.167 -113.5 -357.5c0 -86.667 24.5 -155.834 73.5 -207.501s104.833 -77.5 167.5 -77.5c96.667 0 189.334 29.667 278.001 89l-21 -194
c-87.333 -38.667 -183 -58 -287 -58c-132 0 -233.333 37.833 -304 113.5s-106 176.167 -106 301.5c0 204 56 371 168 501s254.667 195 428 195c102.667 0 183.334 -18 242.001 -54zM355.999 -454.999l-8 99c58.667 0 107.667 10.667 147 32s59 51.333 59 90
s-26.333 58 -79 58l21 120c58 0 102.5 -14.667 133.5 -44s46.5 -68.333 46.5 -117c0 -74.667 -30.5 -133 -91.5 -175s-137.167 -63 -228.5 -63z" />
    <glyph glyph-name="egrave" unicode="&#xe8;" horiz-adv-x="1100" 
d="M311 506c-6 -32 -9 -62.667 -9 -92c0 -88 24.667 -155.667 74 -203s118.333 -71 207 -71c78.667 0 158 29 238 87l-20 -194c-106.667 -35.333 -201 -53 -283 -53c-276 0 -414 154.667 -414 464c0 182 58 335.333 174 460s262 187 438 187c106 0 190.667 -22.667 254 -68
s95 -110 95 -194c0 -116.667 -49.333 -208.667 -148 -276s-219.667 -101 -363 -101c-96 0 -177 18 -243 54zM344 644c50.667 -22.667 110.333 -34.001 179 -34.001c104 0 189 16.833 255 50.5s99 82.834 99 147.501c0 82 -56.667 123 -170 123
c-172.667 0 -293.667 -95.667 -363 -287zM700.999 1225l-156 333h197l59 -333h-100z" />
    <glyph glyph-name="eacute" unicode="&#xe9;" horiz-adv-x="1100" 
d="M311 506c-6 -32 -9 -62.667 -9 -92c0 -88 24.667 -155.667 74 -203s118.333 -71 207 -71c78.667 0 158 29 238 87l-20 -194c-106.667 -35.333 -201 -53 -283 -53c-276 0 -414 154.667 -414 464c0 182 58 335.333 174 460s262 187 438 187c106 0 190.667 -22.667 254 -68
s95 -110 95 -194c0 -116.667 -49.333 -208.667 -148 -276s-219.667 -101 -363 -101c-96 0 -177 18 -243 54zM344 644c50.667 -22.667 110.333 -34.001 179 -34.001c104 0 189 16.833 255 50.5s99 82.834 99 147.501c0 82 -56.667 123 -170 123
c-172.667 0 -293.667 -95.667 -363 -287zM986.999 1558l-226 -333h-140l169 333h197z" />
    <glyph glyph-name="ecircumflex" unicode="&#xea;" horiz-adv-x="1100" 
d="M311 506c-6 -32 -9 -62.667 -9 -92c0 -88 24.667 -155.667 74 -203s118.333 -71 207 -71c78.667 0 158 29 238 87l-20 -194c-106.667 -35.333 -201 -53 -283 -53c-276 0 -414 154.667 -414 464c0 182 58 335.333 174 460s262 187 438 187c106 0 190.667 -22.667 254 -68
s95 -110 95 -194c0 -116.667 -49.333 -208.667 -148 -276s-219.667 -101 -363 -101c-96 0 -177 18 -243 54zM344 644c50.667 -22.667 110.333 -34.001 179 -34.001c104 0 189 16.833 255 50.5s99 82.834 99 147.501c0 82 -56.667 123 -170 123
c-172.667 0 -293.667 -95.667 -363 -287zM859.999 1222l-130 192l-211 -192h-172l361 341h107l242 -341h-197z" />
    <glyph glyph-name="edieresis" unicode="&#xeb;" horiz-adv-x="1100" 
d="M311 506c-6 -32 -9 -62.667 -9 -92c0 -88 24.667 -155.667 74 -203s118.333 -71 207 -71c78.667 0 158 29 238 87l-20 -194c-106.667 -35.333 -201 -53 -283 -53c-276 0 -414 154.667 -414 464c0 182 58 335.333 174 460s262 187 438 187c106 0 190.667 -22.667 254 -68
s95 -110 95 -194c0 -116.667 -49.333 -208.667 -148 -276s-219.667 -101 -363 -101c-96 0 -177 18 -243 54zM344 644c50.667 -22.667 110.333 -34.001 179 -34.001c104 0 189 16.833 255 50.5s99 82.834 99 147.501c0 82 -56.667 123 -170 123
c-172.667 0 -293.667 -95.667 -363 -287zM489.999 1453c31.333 0 57.833 -10.833 79.5 -32.5s32.5 -48.167 32.5 -79.5s-11 -58 -33 -80s-48.333 -33 -79 -33c-31.333 0 -58 11 -80 33s-33 48.667 -33 80s11 57.833 33 79.5s48.667 32.5 80 32.5zM961.999 1453
c31.333 0 58 -10.833 80 -32.5s33 -48.167 33 -79.5s-11 -58 -33 -80s-48.667 -33 -80 -33s-57.833 11 -79.5 33s-32.5 48.667 -32.5 80s10.833 57.833 32.5 79.5s48.167 32.5 79.5 32.5z" />
    <glyph glyph-name="igrave" unicode="&#xec;" horiz-adv-x="628" 
d="M138 0l162 911h-142l35 157h327l-189 -1068h-193zM360 1225l-156 333h197l59 -333h-100z" />
    <glyph glyph-name="iacute" unicode="&#xed;" horiz-adv-x="628" 
d="M138 0l162 911h-142l35 157h327l-189 -1068h-193zM613 1558l-226 -333h-140l169 333h197z" />
    <glyph glyph-name="icircumflex" unicode="&#xee;" horiz-adv-x="628" 
d="M238 0l162 911h-142l35 157h327l-189 -1068h-193zM651 1222l-130 192l-211 -192h-172l361 341h107l242 -341h-197z" />
    <glyph glyph-name="idieresis" unicode="&#xef;" horiz-adv-x="628" 
d="M138 0l162 911h-142l35 157h327l-189 -1068h-193zM251 1453c31.333 0 57.833 -10.833 79.5 -32.5s32.5 -48.167 32.5 -79.5s-11 -58 -33 -80s-48.333 -33 -79 -33c-31.333 0 -58 11 -80 33s-33 48.667 -33 80s11 57.833 33 79.5s48.667 32.5 80 32.5zM723 1453
c31.333 0 58 -10.833 80 -32.5s33 -48.167 33 -79.5s-11 -58 -33 -80s-48.667 -33 -80 -33s-57.833 11 -79.5 33s-32.5 48.667 -32.5 80s10.833 57.833 32.5 79.5s48.167 32.5 79.5 32.5z" />
    <glyph glyph-name="eth" unicode="&#xf0;" horiz-adv-x="1125" 
d="M496 1252l174.002 83.999c-18.667 28.667 -64.334 87.334 -137.001 176.001l205 38c24 -28.667 58 -72.667 102 -132l174 88l51 -71l-179 -96c50.667 -84.667 92.834 -184.834 126.501 -300.501s50.5 -225.167 50.5 -328.5c0 -217.333 -53.333 -393.333 -160 -528
s-254 -202 -442 -202c-129.333 0 -228.333 36.667 -297 110s-103 175 -103 305c0 204.667 55.667 371.834 167 501.501s257.666 194.5 438.999 194.5c22.667 0 70 -10 142 -30c-22.667 58.667 -53.334 123.667 -92.001 195l-178 -90zM252.002 405.999
c0 -170.667 79.667 -256 239 -256c112.667 0 202 50 268 150s99 222 99 366c0 170 -73.667 255 -221 255c-115.333 0 -208.333 -51.333 -279 -154s-106 -223 -106 -361z" />
    <glyph glyph-name="ntilde" unicode="&#xf1;" horiz-adv-x="1119" 
d="M728 0l112.002 623.001c10 55.333 15 101.333 15 138c0 113.333 -59 170 -177 170c-45.333 0 -93.833 -13.333 -145.5 -40s-92.834 -58.334 -123.501 -95.001l-139 -796h-192l144 812c3.33301 18.667 5 40.667 5 66c0 68 -7 127 -21 177l184 36
c18 -97.333 26.667 -150.333 26 -159c81.333 106 198.666 159 351.999 159c193.333 0 290 -98.667 290 -296c0 -39.333 -4.33301 -83.333 -13 -132l-115 -663h-202zM1042 1432c-60 -138 -136.334 -207 -229.001 -207c-40 0 -83.333 12.833 -130 38.5
s-80.334 38.5 -101.001 38.5c-47.333 0 -88 -25.667 -122 -77h-91c20 56 50.5 104.5 91.5 145.5s84.167 61.5 129.5 61.5c50.667 0 98.334 -12.833 143.001 -38.5s77.667 -38.5 99 -38.5c54.667 0 95.334 25.667 122.001 77h88z" />
    <glyph glyph-name="ograve" unicode="&#xf2;" horiz-adv-x="1099" 
d="M73 394c0 191.333 56.001 355.334 168.001 492.001s254.333 205 427 205c130 0 229.333 -35.167 298 -105.5s103 -170.166 103 -299.499c0 -102.667 -20.5 -209.334 -61.5 -320.001s-108 -202.667 -201 -276s-204.5 -110 -334.5 -110
c-128.667 0 -227.334 36.167 -296.001 108.5s-103 174.166 -103 305.499zM273.001 406.001c0 -180.667 75.667 -271 227 -271c112.667 0 202.167 54.667 268.5 164s99.5 235.666 99.5 378.999c0 172 -75.667 258 -227 258c-76.667 0 -144.167 -27.333 -202.5 -82
s-100.5 -124.667 -126.5 -210s-39 -164.666 -39 -237.999zM661.001 1225l-156 333h197l59 -333h-100z" />
    <glyph glyph-name="oacute" unicode="&#xf3;" horiz-adv-x="1099" 
d="M73 394c0 191.333 56.001 355.334 168.001 492.001s254.333 205 427 205c130 0 229.333 -35.167 298 -105.5s103 -170.166 103 -299.499c0 -102.667 -20.5 -209.334 -61.5 -320.001s-108 -202.667 -201 -276s-204.5 -110 -334.5 -110
c-128.667 0 -227.334 36.167 -296.001 108.5s-103 174.166 -103 305.499zM273.001 406.001c0 -180.667 75.667 -271 227 -271c112.667 0 202.167 54.667 268.5 164s99.5 235.666 99.5 378.999c0 172 -75.667 258 -227 258c-76.667 0 -144.167 -27.333 -202.5 -82
s-100.5 -124.667 -126.5 -210s-39 -164.666 -39 -237.999zM917.001 1558l-226 -333h-140l169 333h197z" />
    <glyph glyph-name="ocircumflex" unicode="&#xf4;" horiz-adv-x="1099" 
d="M73 394c0 191.333 56.001 355.334 168.001 492.001s254.333 205 427 205c130 0 229.333 -35.167 298 -105.5s103 -170.166 103 -299.499c0 -102.667 -20.5 -209.334 -61.5 -320.001s-108 -202.667 -201 -276s-204.5 -110 -334.5 -110
c-128.667 0 -227.334 36.167 -296.001 108.5s-103 174.166 -103 305.499zM273.001 406.001c0 -180.667 75.667 -271 227 -271c112.667 0 202.167 54.667 268.5 164s99.5 235.666 99.5 378.999c0 172 -75.667 258 -227 258c-76.667 0 -144.167 -27.333 -202.5 -82
s-100.5 -124.667 -126.5 -210s-39 -164.666 -39 -237.999zM810.001 1222l-130 192l-211 -192h-172l361 341h107l242 -341h-197z" />
    <glyph glyph-name="otilde" unicode="&#xf5;" horiz-adv-x="1099" 
d="M73 394c0 191.333 56.001 355.334 168.001 492.001s254.333 205 427 205c130 0 229.333 -35.167 298 -105.5s103 -170.166 103 -299.499c0 -102.667 -20.5 -209.334 -61.5 -320.001s-108 -202.667 -201 -276s-204.5 -110 -334.5 -110
c-128.667 0 -227.334 36.167 -296.001 108.5s-103 174.166 -103 305.499zM273.001 406.001c0 -180.667 75.667 -271 227 -271c112.667 0 202.167 54.667 268.5 164s99.5 235.666 99.5 378.999c0 172 -75.667 258 -227 258c-76.667 0 -144.167 -27.333 -202.5 -82
s-100.5 -124.667 -126.5 -210s-39 -164.666 -39 -237.999zM1022 1432c-60 -138 -136.334 -207 -229.001 -207c-40 0 -83.333 12.833 -130 38.5s-80.334 38.5 -101.001 38.5c-47.333 0 -88 -25.667 -122 -77h-91c20 56 50.5 104.5 91.5 145.5s84.167 61.5 129.5 61.5
c50.667 0 98.334 -12.833 143.001 -38.5s77.667 -38.5 99 -38.5c54.667 0 95.334 25.667 122.001 77h88z" />
    <glyph glyph-name="odieresis" unicode="&#xf6;" horiz-adv-x="1099" 
d="M73 394c0 191.333 56.001 355.334 168.001 492.001s254.333 205 427 205c130 0 229.333 -35.167 298 -105.5s103 -170.166 103 -299.499c0 -102.667 -20.5 -209.334 -61.5 -320.001s-108 -202.667 -201 -276s-204.5 -110 -334.5 -110
c-128.667 0 -227.334 36.167 -296.001 108.5s-103 174.166 -103 305.499zM273.001 406.001c0 -180.667 75.667 -271 227 -271c112.667 0 202.167 54.667 268.5 164s99.5 235.666 99.5 378.999c0 172 -75.667 258 -227 258c-76.667 0 -144.167 -27.333 -202.5 -82
s-100.5 -124.667 -126.5 -210s-39 -164.666 -39 -237.999zM470.001 1453c31.333 0 57.833 -10.833 79.5 -32.5s32.5 -48.167 32.5 -79.5s-11 -58 -33 -80s-48.333 -33 -79 -33c-31.333 0 -58 11 -80 33s-33 48.667 -33 80s11 57.833 33 79.5s48.667 32.5 80 32.5z
M942.001 1453c31.333 0 58 -10.833 80 -32.5s33 -48.167 33 -79.5s-11 -58 -33 -80s-48.667 -33 -80 -33s-57.833 11 -79.5 33s-32.5 48.667 -32.5 80s10.833 57.833 32.5 79.5s48.167 32.5 79.5 32.5z" />
    <glyph glyph-name="divide" unicode="&#xf7;" 
d="M732 1000c0 -41.333 -14.5 -76.833 -43.5 -106.5s-64.5 -44.5 -106.5 -44.5c-41.333 0 -76.666 14.833 -105.999 44.5s-44 65.167 -44 106.5s14.667 76.666 44 105.999s64.666 44 105.999 44c42 0 77.5 -14.667 106.5 -44s43.5 -64.666 43.5 -105.999zM998 705v-141h-838
v141h838zM732 250c0 -41.333 -14.5 -76.833 -43.5 -106.5s-64.5 -44.5 -106.5 -44.5c-41.333 0 -76.666 14.833 -105.999 44.5s-44 65.167 -44 106.5s14.667 76.666 44 105.999s64.666 44 105.999 44c42 0 77.5 -14.667 106.5 -44s43.5 -64.666 43.5 -105.999z" />
    <glyph glyph-name="oslash" unicode="&#xf8;" horiz-adv-x="1099" 
d="M1023 1091l168.001 0.000976562l-172 -179c33.333 -62 50 -137.333 50 -226c0 -102.667 -20.5 -209.334 -61.5 -320.001s-108 -202.667 -201 -276s-204.5 -110 -334.5 -110c-110.667 0 -199.667 27.333 -267 82l-79 -82h-182l179 184c-33.333 63.333 -50 140 -50 230
c0 191.333 56 355.333 168 492s254.333 205 427 205c115.333 0 206.666 -28 273.999 -84zM280.001 326.001l530 546c-38 42.667 -94.333 64 -169 64c-76.667 0 -144.167 -27.333 -202.5 -82s-100.5 -124.5 -126.5 -209.5s-39 -164.167 -39 -237.5
c0 -29.333 2.33301 -56.333 7 -81zM863.001 749.001l-526 -549c38.667 -43.333 93 -65 163 -65c78.667 0 146.667 28 204 84s99 127.5 125 214.5s39 167.833 39 242.5c0 26.667 -1.66699 51 -5 73z" />
    <glyph glyph-name="ugrave" unicode="&#xf9;" horiz-adv-x="1140" 
d="M431 1071l-125 -683c-5.33301 -29.333 -8 -56.333 -8 -81c0 -111.333 58 -167 174 -167c71.333 0 139.833 26.667 205.5 80s105.167 117 118.5 191l122 660h200l-196 -1071h-200l28 151c-74.667 -114 -204 -171 -388 -171c-83.333 0 -148.333 24.667 -195 74
s-70 119.333 -70 210c0 32 3.33301 66.667 10 104l124 703h200zM681 1225l-156 333h197l59 -333h-100z" />
    <glyph glyph-name="uacute" unicode="&#xfa;" horiz-adv-x="1140" 
d="M431 1071l-125 -683c-5.33301 -29.333 -8 -56.333 -8 -81c0 -111.333 58 -167 174 -167c71.333 0 139.833 26.667 205.5 80s105.167 117 118.5 191l122 660h200l-196 -1071h-200l28 151c-74.667 -114 -204 -171 -388 -171c-83.333 0 -148.333 24.667 -195 74
s-70 119.333 -70 210c0 32 3.33301 66.667 10 104l124 703h200zM937 1558l-226 -333h-140l169 333h197z" />
    <glyph glyph-name="ucircumflex" unicode="&#xfb;" horiz-adv-x="1140" 
d="M431 1071l-125 -683c-5.33301 -29.333 -8 -56.333 -8 -81c0 -111.333 58 -167 174 -167c71.333 0 139.833 26.667 205.5 80s105.167 117 118.5 191l122 660h200l-196 -1071h-200l28 151c-74.667 -114 -204 -171 -388 -171c-83.333 0 -148.333 24.667 -195 74
s-70 119.333 -70 210c0 32 3.33301 66.667 10 104l124 703h200zM860 1222l-130 192l-211 -192h-172l361 341h107l242 -341h-197z" />
    <glyph glyph-name="udieresis" unicode="&#xfc;" horiz-adv-x="1140" 
d="M431 1071l-125 -683c-5.33301 -29.333 -8 -56.333 -8 -81c0 -111.333 58 -167 174 -167c71.333 0 139.833 26.667 205.5 80s105.167 117 118.5 191l122 660h200l-196 -1071h-200l28 151c-74.667 -114 -204 -171 -388 -171c-83.333 0 -148.333 24.667 -195 74
s-70 119.333 -70 210c0 32 3.33301 66.667 10 104l124 703h200zM490 1453c31.333 0 57.833 -10.833 79.5 -32.5s32.5 -48.167 32.5 -79.5s-11 -58 -33 -80s-48.333 -33 -79 -33c-31.333 0 -58 11 -80 33s-33 48.667 -33 80s11 57.833 33 79.5s48.667 32.5 80 32.5zM962 1453
c31.333 0 58 -10.833 80 -32.5s33 -48.167 33 -79.5s-11 -58 -33 -80s-48.667 -33 -80 -33s-57.833 11 -79.5 33s-32.5 48.667 -32.5 80s10.833 57.833 32.5 79.5s48.167 32.5 79.5 32.5z" />
    <glyph glyph-name="yacute" unicode="&#xfd;" horiz-adv-x="1010" 
d="M31 -420l-0.000976562 191c124 0 212 18.667 264 56s89.333 93.333 112 168c-94 0 -156.333 92.667 -187 278l-134 798h207l118 -777c11.333 -76.667 38.666 -115 81.999 -115l386 892h216l-537 -1199c-45.333 -101.333 -105.666 -175.333 -180.999 -222
s-190.666 -70 -345.999 -70zM896.999 1558l-226 -333h-140l169 333h197z" />
    <glyph glyph-name="thorn" unicode="&#xfe;" horiz-adv-x="1141" 
d="M259 54l-84.001 -478.999h-190l330 1935h199l-103 -560c32 39.333 75.833 71.833 131.5 97.5s108.834 38.5 159.501 38.5c266 0 399 -132.333 399 -397c0 -202.667 -56.167 -372.334 -168.5 -509.001s-259.833 -205 -442.5 -205c-39.333 0 -84.5 7.66699 -135.5 23
s-82.833 34 -95.5 56zM286.999 211.001c12 -21.333 36.333 -39.332 73 -53.999s71 -22 103 -22c139.333 0 246.833 47.167 322.5 141.5s113.5 223.166 113.5 386.499c0 175.333 -88.667 263 -266 263c-38.667 0 -83.5 -13.5 -134.5 -40.5s-87.167 -55.167 -108.5 -84.5z" />
    <glyph glyph-name="ydieresis" unicode="&#xff;" horiz-adv-x="1010" 
d="M31 -420l-0.000976562 191c124 0 212 18.667 264 56s89.333 93.333 112 168c-94 0 -156.333 92.667 -187 278l-134 798h207l118 -777c11.333 -76.667 38.666 -115 81.999 -115l386 892h216l-537 -1199c-45.333 -101.333 -105.666 -175.333 -180.999 -222
s-190.666 -70 -345.999 -70zM451.999 1453c31.333 0 57.833 -10.833 79.5 -32.5s32.5 -48.167 32.5 -79.5s-11 -58 -33 -80s-48.333 -33 -79 -33c-31.333 0 -58 11 -80 33s-33 48.667 -33 80s11 57.833 33 79.5s48.667 32.5 80 32.5zM923.999 1453
c31.333 0 58 -10.833 80 -32.5s33 -48.167 33 -79.5s-11 -58 -33 -80s-48.667 -33 -80 -33s-57.833 11 -79.5 33s-32.5 48.667 -32.5 80s10.833 57.833 32.5 79.5s48.167 32.5 79.5 32.5z" />
    <glyph glyph-name="Amacron" unicode="&#x100;" horiz-adv-x="1251" 
d="M936 0l-46 309h-525l-173 -309h-224l857 1485h53l290 -1485h-232zM779 1082l-335 -626h425zM1266 1726l-25 -141h-738l25 141h738z" />
    <glyph glyph-name="amacron" unicode="&#x101;" horiz-adv-x="1076" 
d="M1052 1004l-131 -623c-5.33301 -25.333 -8 -56 -8 -92c0 -104 16.333 -200.333 49 -289h-194c-10.667 21.333 -22 57.333 -34 108c-31.333 -38 -78 -68.833 -140 -92.5s-127.667 -35.5 -197 -35.5c-105.333 0 -187.5 31.167 -246.5 93.5s-88.5 151.833 -88.5 268.5
c0 196 57.833 369.833 173.5 521.5s264.5 227.5 446.5 227.5c172 0 295.333 -29 370 -87zM842 893c-18 28.667 -78.667 43 -182 43c-105.333 0 -198 -56 -278 -168s-120 -252 -120 -420c0 -142 63.333 -213 190 -213c66 0 128 34.167 186 102.5s98.333 155.833 121 262.5z
M1099 1366l-25 -141h-738l25 141h738z" />
    <glyph glyph-name="Abreve" unicode="&#x102;" horiz-adv-x="1251" 
d="M936 0l-46 309h-525l-173 -309h-224l857 1485h53l290 -1485h-232zM779 1082l-335 -626h425zM1217 1910c-38 -216.667 -168.667 -324.999 -392 -324.999c-185.333 0 -278 84 -278 252c0 23.333 2.33301 47.666 7 72.999h141c-4.66699 -19.333 -7 -37.333 -7 -54
c0 -78 55 -117 165 -117c127.333 0 201 57 221 171h143z" />
    <glyph glyph-name="abreve" unicode="&#x103;" horiz-adv-x="1076" 
d="M1052 1004l-131 -623c-5.33301 -25.333 -8 -56 -8 -92c0 -104 16.333 -200.333 49 -289h-194c-10.667 21.333 -22 57.333 -34 108c-31.333 -38 -78 -68.833 -140 -92.5s-127.667 -35.5 -197 -35.5c-105.333 0 -187.5 31.167 -246.5 93.5s-88.5 151.833 -88.5 268.5
c0 196 57.833 369.833 173.5 521.5s264.5 227.5 446.5 227.5c172 0 295.333 -29 370 -87zM842 893c-18 28.667 -78.667 43 -182 43c-105.333 0 -198 -56 -278 -168s-120 -252 -120 -420c0 -142 63.333 -213 190 -213c66 0 128 34.167 186 102.5s98.333 155.833 121 262.5z
M1129 1550c-38 -216.667 -168.667 -324.999 -392 -324.999c-185.333 0 -278 84 -278 252c0 23.333 2.33301 47.666 7 72.999h141c-4.66699 -19.333 -7 -37.333 -7 -54c0 -78 55 -117 165 -117c127.333 0 201 57 221 171h143z" />
    <glyph glyph-name="Aogonek" unicode="&#x104;" horiz-adv-x="1251" 
d="M1160 -338c-68 -23.333 -124.333 -35 -169 -35c-68 0 -123.667 18.333 -167 55s-65 85.667 -65 147c0 103.333 54 194.333 162 273l-31 207h-525l-173 -309h-224l857 1485h53l290 -1485h-120c-10 0 -33 -14.5 -69 -43.5s-54 -64.5 -54 -106.5c0 -51.333 32 -77 96 -77
c44.667 0 91 12.667 139 38v-149zM869 456l-90 626l-335 -626h425z" />
    <glyph glyph-name="aogonek" unicode="&#x105;" horiz-adv-x="1076" 
d="M1094 -189l0.000976562 -149c-68.667 -23.333 -125 -35 -169 -35c-68 0 -123.833 18.5 -167.5 55.5s-65.5 85.833 -65.5 146.5c0 82.667 30 156 90 220c-12.667 17.333 -21.667 37 -27 59c-31.333 -38 -78 -68.833 -140 -92.5s-127.333 -35.5 -196 -35.5
c-106 0 -188.333 31 -247 93s-88 151.667 -88 269c0 196 57.833 369.833 173.5 521.5s264.5 227.5 446.5 227.5c171.333 0 294.666 -29 369.999 -87l-132 -623c-5.33301 -25.333 -8 -56 -8 -92c0 -86 23 -182.333 69 -289h-21c-10 0 -33 -14.5 -69 -43.5
s-54 -64.5 -54 -106.5c0 -51.333 32 -77 96 -77c44 0 90.333 12.667 139 38zM863.001 893c-18 28.667 -78.334 42.999 -181.001 42.999c-106 0 -198.833 -56.167 -278.5 -168.5s-119.5 -252.166 -119.5 -419.499c0 -142 63.333 -213 190 -213
c66 0 127.833 34.167 185.5 102.5s97.834 155.833 120.501 262.5z" />
    <glyph glyph-name="Cacute" unicode="&#x106;" horiz-adv-x="1225" 
d="M1204 1443l-55.001 -195c-56 42.667 -135 64 -237 64c-157.333 0 -289.833 -78.5 -397.5 -235.5s-161.5 -326.5 -161.5 -508.5c0 -275.333 114.333 -413 343 -413c118 0 232.667 48.333 344 145l-16 -212c-82 -75.333 -209 -113 -381 -113
c-160 0 -283.667 49.333 -371 148s-131 234.667 -131 408c0 268 72.833 494.833 218.5 680.5s333.834 278.5 564.501 278.5c116 0 209.333 -15.667 280 -47zM1127 1918l-226 -333h-140l169 333h197z" />
    <glyph glyph-name="cacute" unicode="&#x107;" horiz-adv-x="942" 
d="M928 1037l-35.001 -162.999c-48 38 -112.333 57 -193 57c-122.667 0 -221.834 -48.5 -297.501 -145.5s-113.5 -216.167 -113.5 -357.5c0 -86.667 24.5 -155.834 73.5 -207.501s104.833 -77.5 167.5 -77.5c96.667 0 189.334 29.667 278.001 89l-21 -194
c-87.333 -38.667 -183 -58 -287 -58c-132 0 -233.333 37.833 -304 113.5s-106 176.167 -106 301.5c0 204 56 371 168 501s254.667 195 428 195c102.667 0 183.334 -18 242.001 -54zM908.999 1558l-226 -333h-140l169 333h197z" />
    <glyph glyph-name="Ccircumflex" unicode="&#x108;" horiz-adv-x="1225" 
d="M1204 1443l-55.001 -195c-56 42.667 -135 64 -237 64c-157.333 0 -289.833 -78.5 -397.5 -235.5s-161.5 -326.5 -161.5 -508.5c0 -275.333 114.333 -413 343 -413c118 0 232.667 48.333 344 145l-16 -212c-82 -75.333 -209 -113 -381 -113
c-160 0 -283.667 49.333 -371 148s-131 234.667 -131 408c0 268 72.833 494.833 218.5 680.5s333.834 278.5 564.501 278.5c116 0 209.333 -15.667 280 -47zM1020 1582l-130 192l-211 -192h-172l361 341h107l242 -341h-197z" />
    <glyph glyph-name="ccircumflex" unicode="&#x109;" horiz-adv-x="942" 
d="M928 1037l-35.001 -162.999c-48 38 -112.333 57 -193 57c-122.667 0 -221.834 -48.5 -297.501 -145.5s-113.5 -216.167 -113.5 -357.5c0 -86.667 24.5 -155.834 73.5 -207.501s104.833 -77.5 167.5 -77.5c96.667 0 189.334 29.667 278.001 89l-21 -194
c-87.333 -38.667 -183 -58 -287 -58c-132 0 -233.333 37.833 -304 113.5s-106 176.167 -106 301.5c0 204 56 371 168 501s254.667 195 428 195c102.667 0 183.334 -18 242.001 -54zM809.999 1222l-130 192l-211 -192h-172l361 341h107l242 -341h-197z" />
    <glyph glyph-name="Cdot" unicode="&#x10a;" horiz-adv-x="1225" 
d="M1204 1443l-55.001 -195c-56 42.667 -135 64 -237 64c-157.333 0 -289.833 -78.5 -397.5 -235.5s-161.5 -326.5 -161.5 -508.5c0 -275.333 114.333 -413 343 -413c118 0 232.667 48.333 344 145l-16 -212c-82 -75.333 -209 -113 -381 -113
c-160 0 -283.667 49.333 -371 148s-131 234.667 -131 408c0 268 72.833 494.833 218.5 680.5s333.834 278.5 564.501 278.5c116 0 209.333 -15.667 280 -47zM897.999 1820c32 0 59.667 -11.501 83 -34.501s35 -50.5 35 -82.5c0 -32.667 -11.667 -60.5 -35 -83.5
s-51 -34.5 -83 -34.5c-32.667 0 -60.334 11.5 -83.001 34.5s-34 50.833 -34 83.5s11.333 60.334 34 83.001s50.334 34 83.001 34z" />
    <glyph glyph-name="cdot" unicode="&#x10b;" horiz-adv-x="942" 
d="M928 1037l-35.001 -162.999c-48 38 -112.333 57 -193 57c-122.667 0 -221.834 -48.5 -297.501 -145.5s-113.5 -216.167 -113.5 -357.5c0 -86.667 24.5 -155.834 73.5 -207.501s104.833 -77.5 167.5 -77.5c96.667 0 189.334 29.667 278.001 89l-21 -194
c-87.333 -38.667 -183 -58 -287 -58c-132 0 -233.333 37.833 -304 113.5s-106 176.167 -106 301.5c0 204 56 371 168 501s254.667 195 428 195c102.667 0 183.334 -18 242.001 -54zM685.999 1460c32 0 59.667 -11.501 83 -34.501s35 -50.5 35 -82.5
c0 -32.667 -11.667 -60.5 -35 -83.5s-51 -34.5 -83 -34.5c-32.667 0 -60.334 11.5 -83.001 34.5s-34 50.833 -34 83.5s11.333 60.334 34 83.001s50.334 34 83.001 34z" />
    <glyph glyph-name="Ccaron" unicode="&#x10c;" horiz-adv-x="1225" 
d="M1204 1443l-55.001 -195c-56 42.667 -135 64 -237 64c-157.333 0 -289.833 -78.5 -397.5 -235.5s-161.5 -326.5 -161.5 -508.5c0 -275.333 114.333 -413 343 -413c118 0 232.667 48.333 344 145l-16 -212c-82 -75.333 -209 -113 -381 -113
c-160 0 -283.667 49.333 -371 148s-131 234.667 -131 408c0 268 72.833 494.833 218.5 680.5s333.834 278.5 564.501 278.5c116 0 209.333 -15.667 280 -47zM1279 1922l-367 -337h-107l-235 337h172l144 -188l196 188h197z" />
    <glyph glyph-name="ccaron" unicode="&#x10d;" horiz-adv-x="942" 
d="M928 1037l-35.001 -162.999c-48 38 -112.333 57 -193 57c-122.667 0 -221.834 -48.5 -297.501 -145.5s-113.5 -216.167 -113.5 -357.5c0 -86.667 24.5 -155.834 73.5 -207.501s104.833 -77.5 167.5 -77.5c96.667 0 189.334 29.667 278.001 89l-21 -194
c-87.333 -38.667 -183 -58 -287 -58c-132 0 -233.333 37.833 -304 113.5s-106 176.167 -106 301.5c0 204 56 371 168 501s254.667 195 428 195c102.667 0 183.334 -18 242.001 -54zM1021 1562l-367 -337h-107l-235 337h172l144 -188l196 188h197z" />
    <glyph glyph-name="Dcaron" unicode="&#x10e;" horiz-adv-x="1256" 
d="M387 0h-320l258 1465c82 15.333 165 23 249 23c212.667 0 378 -49.667 496 -149s177 -246.333 177 -441c0 -284 -81.333 -504.667 -244 -662s-368 -236 -616 -236zM492 1293l-186 -1104c38.667 -5.33301 76.334 -8 113.001 -8c184.667 0 333 68.333 445 205
s168 311 168 523c0 121.333 -40.167 218.333 -120.5 291s-179.5 109 -297.5 109c-42.667 0 -83.334 -5.33301 -122.001 -16zM1100 1922l-367 -337h-107l-235 337h172l144 -188l196 188h197z" />
    <glyph glyph-name="dcaron" unicode="&#x10f;" horiz-adv-x="1416" 
d="M728 0l23 123c-77.333 -94.667 -183 -142 -317 -142c-116 0 -206.667 35.5 -272 106.5s-98 167.5 -98 289.5c0 208.667 56 379.5 168 512.5s255.333 199.5 430 199.5c101.333 0 179 -42 233 -126l101 547h181l-261 -1510h-188zM860 774c1.33301 6 -7.5 24.5 -26.5 55.5
s-42 55.333 -69 73s-55.5 26.5 -85.5 26.5c-118 0 -215.833 -47.833 -293.5 -143.5s-116.5 -218.167 -116.5 -367.5c0 -188.667 77.667 -283 233 -283c70 0 135.333 34.5 196 103.5s100 158.167 118 267.5zM1268 1092l-40 68.001c54.667 36 85.667 61.833 93 77.5
s11 31.167 11 46.5c0 17.333 -9.16699 37.5 -27.5 60.5s-27.5 43.833 -27.5 62.5c0 68.667 32.333 103 97 103c74 0 111 -38.333 111 -115c0 -60.667 -20.333 -118.834 -61 -174.501s-92.667 -98.5 -156 -128.5z" />
    <glyph glyph-name="Dslash" unicode="&#x110;" horiz-adv-x="1256" 
d="M219 867l106 598c82 15.333 165 23 249 23c212.667 0 378 -49.667 496 -149s177 -246.333 177 -441c0 -284 -81.333 -504.667 -244 -662s-368 -236 -616 -236h-320l124 704h-159l28 163h159zM651 867l-28 -163h-230l-87 -515c38.667 -5.33301 76.334 -8 113.001 -8
c184.667 0 333 68.333 445 205s168 311 168 523c0 121.333 -40.167 218.333 -120.5 291s-179.5 109 -297.5 109c-42.667 0 -83.334 -5.33301 -122.001 -16l-72 -426h231z" />
    <glyph glyph-name="dcroat" unicode="&#x111;" horiz-adv-x="1141" 
d="M1194 1510l-30.999 -178.999h113l-26 -131h-110l-207 -1200h-188l23 123c-76.667 -94.667 -182 -142 -316 -142c-116 0 -206.667 35.167 -272 105.5s-98 167.166 -98 290.499c0 210.667 56.167 382 168.5 514s255.166 198 428.499 198c101.333 0 179 -42 233 -126l44 237
h-305l22 131h307l33 179h181zM877.001 774.001c1.33301 6.66699 -7.33398 25.332 -26.001 55.999s-41.667 54.834 -69 72.501s-56 26.5 -86 26.5c-118 0 -215.667 -47.833 -293 -143.5s-116 -218.167 -116 -367.5c0 -188.667 77.333 -283 232 -283
c70.667 0 136.334 34.5 197.001 103.5s99.667 158.167 117 267.5z" />
    <glyph glyph-name="Emacron" unicode="&#x112;" horiz-adv-x="1097" 
d="M484 1285l-72 -407h484l-30 -170h-484l-93 -528h664l-32 -180h-874l259 1465h885l-33 -180h-674zM1156 1726l-25 -141h-738l25 141h738z" />
    <glyph glyph-name="emacron" unicode="&#x113;" horiz-adv-x="1100" 
d="M311 506c-6 -32 -9 -62.667 -9 -92c0 -88 24.667 -155.667 74 -203s118.333 -71 207 -71c78.667 0 158 29 238 87l-20 -194c-106.667 -35.333 -201 -53 -283 -53c-276 0 -414 154.667 -414 464c0 182 58 335.333 174 460s262 187 438 187c106 0 190.667 -22.667 254 -68
s95 -110 95 -194c0 -116.667 -49.333 -208.667 -148 -276s-219.667 -101 -363 -101c-96 0 -177 18 -243 54zM344 644c50.667 -22.667 110.333 -34.001 179 -34.001c104 0 189 16.833 255 50.5s99 82.834 99 147.501c0 82 -56.667 123 -170 123
c-172.667 0 -293.667 -95.667 -363 -287zM1121 1366l-25 -141h-738l25 141h738z" />
    <glyph glyph-name="Ebreve" unicode="&#x114;" horiz-adv-x="1097" 
d="M484 1285l-72 -407h484l-30 -170h-484l-93 -528h664l-32 -180h-874l259 1465h885l-33 -180h-674zM1140 1910c-38 -216.667 -168.667 -324.999 -392 -324.999c-185.333 0 -278 84 -278 252c0 23.333 2.33301 47.666 7 72.999h141c-4.66699 -19.333 -7 -37.333 -7 -54
c0 -78 55 -117 165 -117c127.333 0 201 57 221 171h143z" />
    <glyph glyph-name="ebreve" unicode="&#x115;" horiz-adv-x="1100" 
d="M311 506c-6 -32 -9 -62.667 -9 -92c0 -88 24.667 -155.667 74 -203s118.333 -71 207 -71c78.667 0 158 29 238 87l-20 -194c-106.667 -35.333 -201 -53 -283 -53c-276 0 -414 154.667 -414 464c0 182 58 335.333 174 460s262 187 438 187c106 0 190.667 -22.667 254 -68
s95 -110 95 -194c0 -116.667 -49.333 -208.667 -148 -276s-219.667 -101 -363 -101c-96 0 -177 18 -243 54zM344 644c50.667 -22.667 110.333 -34.001 179 -34.001c104 0 189 16.833 255 50.5s99 82.834 99 147.501c0 82 -56.667 123 -170 123
c-172.667 0 -293.667 -95.667 -363 -287zM1087 1550c-38 -216.667 -168.667 -324.999 -392 -324.999c-185.333 0 -278 84 -278 252c0 23.333 2.33301 47.666 7 72.999h141c-4.66699 -19.333 -7 -37.333 -7 -54c0 -78 55 -117 165 -117c127.333 0 201 57 221 171h143z" />
    <glyph glyph-name="Edot" unicode="&#x116;" horiz-adv-x="1097" 
d="M484 1285l-72 -407h484l-30 -170h-484l-93 -528h664l-32 -180h-874l259 1465h885l-33 -180h-674zM749 1820c32 0 59.667 -11.501 83 -34.501s35 -50.5 35 -82.5c0 -32.667 -11.667 -60.5 -35 -83.5s-51 -34.5 -83 -34.5c-32.667 0 -60.334 11.5 -83.001 34.5
s-34 50.833 -34 83.5s11.333 60.334 34 83.001s50.334 34 83.001 34z" />
    <glyph glyph-name="edot" unicode="&#x117;" horiz-adv-x="1100" 
d="M311 506c-6 -32 -9 -62.667 -9 -92c0 -88 24.667 -155.667 74 -203s118.333 -71 207 -71c78.667 0 158 29 238 87l-20 -194c-106.667 -35.333 -201 -53 -283 -53c-276 0 -414 154.667 -414 464c0 182 58 335.333 174 460s262 187 438 187c106 0 190.667 -22.667 254 -68
s95 -110 95 -194c0 -116.667 -49.333 -208.667 -148 -276s-219.667 -101 -363 -101c-96 0 -177 18 -243 54zM344 644c50.667 -22.667 110.333 -34.001 179 -34.001c104 0 189 16.833 255 50.5s99 82.834 99 147.501c0 82 -56.667 123 -170 123
c-172.667 0 -293.667 -95.667 -363 -287zM717.999 1460c32 0 59.667 -11.501 83 -34.501s35 -50.5 35 -82.5c0 -32.667 -11.667 -60.5 -35 -83.5s-51 -34.5 -83 -34.5c-32.667 0 -60.334 11.5 -83.001 34.5s-34 50.833 -34 83.5s11.333 60.334 34 83.001
s50.334 34 83.001 34z" />
    <glyph glyph-name="Eogonek" unicode="&#x118;" horiz-adv-x="1097" 
d="M854 -189v-149c-68.667 -23.333 -125 -35 -169 -35c-68 0 -123.833 18.5 -167.5 55.5s-65.5 85.833 -65.5 146.5s19.333 117.667 58 171h-463l259 1465h885l-32 -180h-675l-72 -407h484l-30 -170h-484l-93 -528h664l-32 -180h-179c-10 0 -33 -14.5 -69 -43.5
s-54 -64.5 -54 -106.5c0 -51.333 32 -77 96 -77c44 0 90.333 12.667 139 38z" />
    <glyph glyph-name="eogonek" unicode="&#x119;" horiz-adv-x="1100" 
d="M754 -338c-68.667 -23.333 -125.001 -35 -169.001 -35c-68 0 -123.833 18.5 -167.5 55.5s-65.5 85.833 -65.5 146.5c0 62.667 15.667 117 47 163c-196.667 42 -295 192.667 -295 452c0 182 58 335.333 174 460s262 187 438 187c106 0 190.667 -22.667 254 -68
s95 -110 95 -194c0 -116.667 -49.333 -208.667 -148 -276s-220 -101 -364 -101c-95.333 0 -176 18 -242 54c-6 -32 -9 -62.667 -9 -92c0 -88 24.667 -155.667 74 -203s118.333 -71 207 -71c78.667 0 158 29 238 87l-20 -194c-79.333 -26 -142.666 -42 -189.999 -48
c-61.333 -32 -92 -77 -92 -135c0 -51.333 32 -77 96 -77c44 0 90.333 12.667 139 38v-149zM343.999 644c50.667 -22.667 110.333 -34.001 179 -34.001c104 0 189 16.833 255 50.5s99 82.834 99 147.501c0 82 -56.667 123 -170 123c-172.667 0 -293.667 -95.667 -363 -287z
" />
    <glyph glyph-name="Ecaron" unicode="&#x11a;" horiz-adv-x="1097" 
d="M484 1285l-72 -407h484l-30 -170h-484l-93 -528h664l-32 -180h-874l259 1465h885l-33 -180h-674zM1159 1922l-367 -337h-107l-235 337h172l144 -188l196 188h197z" />
    <glyph glyph-name="ecaron" unicode="&#x11b;" horiz-adv-x="1100" 
d="M311 506c-6 -32 -9 -62.667 -9 -92c0 -88 24.667 -155.667 74 -203s118.333 -71 207 -71c78.667 0 158 29 238 87l-20 -194c-106.667 -35.333 -201 -53 -283 -53c-276 0 -414 154.667 -414 464c0 182 58 335.333 174 460s262 187 438 187c106 0 190.667 -22.667 254 -68
s95 -110 95 -194c0 -116.667 -49.333 -208.667 -148 -276s-219.667 -101 -363 -101c-96 0 -177 18 -243 54zM344 644c50.667 -22.667 110.333 -34.001 179 -34.001c104 0 189 16.833 255 50.5s99 82.834 99 147.501c0 82 -56.667 123 -170 123
c-172.667 0 -293.667 -95.667 -363 -287zM1119 1562l-367 -337h-107l-235 337h172l144 -188l196 188h197z" />
    <glyph glyph-name="Gcircumflex" unicode="&#x11c;" horiz-adv-x="1385" 
d="M1276 1406l-59.999 -191c-85.333 63.333 -178 95 -278 95c-179.333 0 -326.333 -69.333 -441 -208s-172 -313.334 -172 -524.001c0 -282 133 -423 399 -423c106.667 0 198.667 32 276 96l61 343h-203l30 170h403l-113 -638c-138 -100.667 -313.667 -151 -527 -151
c-359.333 0 -539 188 -539 564c0 280.667 79.667 509.334 239 686.001s367.666 265 624.999 265c144 0 244 -28 300 -84zM1050 1582l-130 192l-211 -192h-172l361 341h107l242 -341h-197z" />
    <glyph glyph-name="gcircumflex" unicode="&#x11d;" horiz-adv-x="1028" 
d="M-13 -300l90.002 139.999c122 -61.333 223 -92 303 -92c88 0 161.333 16.333 220 49s88 78.334 88 137.001c0 29.333 -9.83301 53.5 -29.5 72.5s-53.167 32.5 -100.5 40.5l-176 30c-71.333 18 -107 54.333 -107 109c0 44 57 88.333 171 133l-34 -1
c-78 0 -146.5 29.167 -205.5 87.5s-88.5 128.5 -88.5 210.5c0 140 45 254.167 135 342.5s205 132.5 345 132.5c100.667 0 180 -24 238 -72l90 102l105 -108l-99 -103c19.333 -27.333 29 -70.333 29 -129c0 -114.667 -29 -213 -87 -295s-133.833 -139.5 -227.5 -172.5
s-140.5 -63.833 -140.5 -92.5c0 -23.333 12.667 -35 38 -35c9.33301 0 23.166 1.5 41.499 4.5s32.166 4.5 41.499 4.5c166.667 0 250 -75.333 250 -226c0 -118 -52.5 -212.333 -157.5 -283s-229.833 -106 -374.5 -106c-146.667 0 -266 40 -358 120zM584.002 937.999
c-76.667 0 -141.167 -29.832 -193.5 -89.499s-78.5 -129.834 -78.5 -210.501c0 -145.333 55 -218 165 -218c74.667 0 140.667 36.5 198 109.5s86 150.5 86 232.5c0 54 -16 96.833 -48 128.5s-75 47.5 -129 47.5zM750.002 1222l-130 192l-211 -192h-172l361 341h107l242 -341
h-197z" />
    <glyph glyph-name="Gbreve" unicode="&#x11e;" horiz-adv-x="1385" 
d="M1276 1406l-59.999 -191c-85.333 63.333 -178 95 -278 95c-179.333 0 -326.333 -69.333 -441 -208s-172 -313.334 -172 -524.001c0 -282 133 -423 399 -423c106.667 0 198.667 32 276 96l61 343h-203l30 170h403l-113 -638c-138 -100.667 -313.667 -151 -527 -151
c-359.333 0 -539 188 -539 564c0 280.667 79.667 509.334 239 686.001s367.666 265 624.999 265c144 0 244 -28 300 -84zM1297 1910c-38 -216.667 -168.667 -324.999 -392 -324.999c-185.333 0 -278 84 -278 252c0 23.333 2.33301 47.666 7 72.999h141
c-4.66699 -19.333 -7 -37.333 -7 -54c0 -78 55 -117 165 -117c127.333 0 201 57 221 171h143z" />
    <glyph glyph-name="gbreve" unicode="&#x11f;" horiz-adv-x="1028" 
d="M-13 -300l90.002 139.999c122 -61.333 223 -92 303 -92c88 0 161.333 16.333 220 49s88 78.334 88 137.001c0 29.333 -9.83301 53.5 -29.5 72.5s-53.167 32.5 -100.5 40.5l-176 30c-71.333 18 -107 54.333 -107 109c0 44 57 88.333 171 133l-34 -1
c-78 0 -146.5 29.167 -205.5 87.5s-88.5 128.5 -88.5 210.5c0 140 45 254.167 135 342.5s205 132.5 345 132.5c100.667 0 180 -24 238 -72l90 102l105 -108l-99 -103c19.333 -27.333 29 -70.333 29 -129c0 -114.667 -29 -213 -87 -295s-133.833 -139.5 -227.5 -172.5
s-140.5 -63.833 -140.5 -92.5c0 -23.333 12.667 -35 38 -35c9.33301 0 23.166 1.5 41.499 4.5s32.166 4.5 41.499 4.5c166.667 0 250 -75.333 250 -226c0 -118 -52.5 -212.333 -157.5 -283s-229.833 -106 -374.5 -106c-146.667 0 -266 40 -358 120zM584.002 937.999
c-76.667 0 -141.167 -29.832 -193.5 -89.499s-78.5 -129.834 -78.5 -210.501c0 -145.333 55 -218 165 -218c74.667 0 140.667 36.5 198 109.5s86 150.5 86 232.5c0 54 -16 96.833 -48 128.5s-75 47.5 -129 47.5zM1120 1550c-38 -216.667 -168.667 -324.999 -392 -324.999
c-185.333 0 -278 84 -278 252c0 23.333 2.33301 47.666 7 72.999h141c-4.66699 -19.333 -7 -37.333 -7 -54c0 -78 55 -117 165 -117c127.333 0 201 57 221 171h143z" />
    <glyph glyph-name="Gdot" unicode="&#x120;" horiz-adv-x="1385" 
d="M1276 1406l-59.999 -191c-85.333 63.333 -178 95 -278 95c-179.333 0 -326.333 -69.333 -441 -208s-172 -313.334 -172 -524.001c0 -282 133 -423 399 -423c106.667 0 198.667 32 276 96l61 343h-203l30 170h403l-113 -638c-138 -100.667 -313.667 -151 -527 -151
c-359.333 0 -539 188 -539 564c0 280.667 79.667 509.334 239 686.001s367.666 265 624.999 265c144 0 244 -28 300 -84zM898.001 1820c32 0 59.667 -11.501 83 -34.501s35 -50.5 35 -82.5c0 -32.667 -11.667 -60.5 -35 -83.5s-51 -34.5 -83 -34.5
c-32.667 0 -60.334 11.5 -83.001 34.5s-34 50.833 -34 83.5s11.333 60.334 34 83.001s50.334 34 83.001 34z" />
    <glyph glyph-name="gdot" unicode="&#x121;" horiz-adv-x="1028" 
d="M-13 -300l90.002 139.999c122 -61.333 223 -92 303 -92c88 0 161.333 16.333 220 49s88 78.334 88 137.001c0 29.333 -9.83301 53.5 -29.5 72.5s-53.167 32.5 -100.5 40.5l-176 30c-71.333 18 -107 54.333 -107 109c0 44 57 88.333 171 133l-34 -1
c-78 0 -146.5 29.167 -205.5 87.5s-88.5 128.5 -88.5 210.5c0 140 45 254.167 135 342.5s205 132.5 345 132.5c100.667 0 180 -24 238 -72l90 102l105 -108l-99 -103c19.333 -27.333 29 -70.333 29 -129c0 -114.667 -29 -213 -87 -295s-133.833 -139.5 -227.5 -172.5
s-140.5 -63.833 -140.5 -92.5c0 -23.333 12.667 -35 38 -35c9.33301 0 23.166 1.5 41.499 4.5s32.166 4.5 41.499 4.5c166.667 0 250 -75.333 250 -226c0 -118 -52.5 -212.333 -157.5 -283s-229.833 -106 -374.5 -106c-146.667 0 -266 40 -358 120zM584.002 937.999
c-76.667 0 -141.167 -29.832 -193.5 -89.499s-78.5 -129.834 -78.5 -210.501c0 -145.333 55 -218 165 -218c74.667 0 140.667 36.5 198 109.5s86 150.5 86 232.5c0 54 -16 96.833 -48 128.5s-75 47.5 -129 47.5zM618.002 1460c32 0 59.667 -11.501 83 -34.501
s35 -50.5 35 -82.5c0 -32.667 -11.667 -60.5 -35 -83.5s-51 -34.5 -83 -34.5c-32.667 0 -60.334 11.5 -83.001 34.5s-34 50.833 -34 83.5s11.333 60.334 34 83.001s50.334 34 83.001 34z" />
    <glyph glyph-name="Gcedilla" unicode="&#x122;" horiz-adv-x="1385" 
d="M1276 1406l-59.999 -191c-85.333 63.333 -178 95 -278 95c-179.333 0 -326.333 -69.333 -441 -208s-172 -313.334 -172 -524.001c0 -282 133 -423 399 -423c106.667 0 198.667 32 276 96l61 343h-203l30 170h403l-113 -638c-138 -100.667 -313.667 -151 -527 -151
c-359.333 0 -539 188 -539 564c0 280.667 79.667 509.334 239 686.001s367.666 265 624.999 265c144 0 244 -28 300 -84zM481.001 -455l-8 99c58.667 0 107.667 10.667 147 32s59 51.333 59 90s-26.333 58 -79 58l21 120c58 0 102.5 -14.667 133.5 -44
s46.5 -68.333 46.5 -117c0 -74.667 -30.5 -133 -91.5 -175s-137.167 -63 -228.5 -63z" />
    <glyph glyph-name="gcedilla" unicode="&#x123;" horiz-adv-x="1028" 
d="M-13 -300l90.002 139.999c122 -61.333 223 -92 303 -92c88 0 161.333 16.333 220 49s88 78.334 88 137.001c0 29.333 -9.83301 53.5 -29.5 72.5s-53.167 32.5 -100.5 40.5l-176 30c-71.333 18 -107 54.333 -107 109c0 44 57 88.333 171 133l-34 -1
c-78 0 -146.5 29.167 -205.5 87.5s-88.5 128.5 -88.5 210.5c0 140 45 254.167 135 342.5s205 132.5 345 132.5c100.667 0 180 -24 238 -72l90 102l105 -108l-99 -103c19.333 -27.333 29 -70.333 29 -129c0 -114.667 -29 -213 -87 -295s-133.833 -139.5 -227.5 -172.5
s-140.5 -63.833 -140.5 -92.5c0 -23.333 12.667 -35 38 -35c9.33301 0 23.166 1.5 41.499 4.5s32.166 4.5 41.499 4.5c166.667 0 250 -75.333 250 -226c0 -118 -52.5 -212.333 -157.5 -283s-229.833 -106 -374.5 -106c-146.667 0 -266 40 -358 120zM584.002 937.999
c-76.667 0 -141.167 -29.832 -193.5 -89.499s-78.5 -129.834 -78.5 -210.501c0 -145.333 55 -218 165 -218c74.667 0 140.667 36.5 198 109.5s86 150.5 86 232.5c0 54 -16 96.833 -48 128.5s-75 47.5 -129 47.5zM661.002 1658l53.999 -57
c-41.333 -40.667 -64.666 -68.167 -69.999 -82.5s-8 -27.5 -8 -39.5c0 -27.333 14 -52.333 42 -75s42 -49.667 42 -81c0 -65.333 -35.333 -98 -106 -98c-72 0 -108 48.333 -108 145c0 112 51.333 208 154 288z" />
    <glyph glyph-name="Hcircumflex" unicode="&#x124;" horiz-adv-x="1340" 
d="M913 0l125 708h-640l-125 -708h-206l259 1465h206l-104 -587h640l104 587h204l-259 -1465h-204zM1021 1582l-130 192l-211 -192h-172l361 341h107l242 -341h-197z" />
    <glyph glyph-name="hcircumflex" unicode="&#x125;" horiz-adv-x="1141" 
d="M736 0l119 673.001c4.66699 26.667 7 51 7 73c0 123.333 -60 185 -180 185c-46 0 -94.5 -13.5 -145.5 -40.5s-92.167 -58.5 -123.5 -94.5l-141 -796h-194l261 1510h189l-88 -557c32.667 39.333 79.5 72.166 140.5 98.499s121.5 39.5 181.5 39.5
c94.667 0 168.167 -27 220.5 -81s78.5 -130 78.5 -228c0 -34 -3.33301 -70.333 -10 -109l-119 -673h-196zM910 1582l-130 192l-211 -192h-172l361 341h107l242 -341h-197z" />
    <glyph glyph-name="Hbar" unicode="&#x126;" horiz-adv-x="1397" 
d="M1522 1239l-25 -139h-156l-194 -1100h-203l123 694h-645l-123 -694h-205l195 1100h-152l25 139h151l39 225h207l-41 -225h643l41 225h205l-41 -225h156zM1137 1100h-643l-41 -236h643z" />
    <glyph glyph-name="hbar" unicode="&#x127;" horiz-adv-x="1133" 
d="M1053 731c0 -34 -3.66699 -70 -11 -108l-110 -623h-197l111 623c5.33301 30.667 8 54.334 8 71.001c0 124.667 -60 187 -180 187c-48 0 -100 -15.667 -156 -47c-50 -28.667 -87.333 -58.334 -112 -89.001l-134 -745h-194l207 1190h-144l25 139h145l31 180h188l-28 -180
h379l-25 -139h-379l-45 -289c32 40 78.333 72.667 139 98c58 24.667 119 37 183 37c96 0 169.833 -26.667 221.5 -80s77.5 -128.333 77.5 -225z" />
    <glyph glyph-name="Itilde" unicode="&#x128;" horiz-adv-x="570" 
d="M75 0l259 1465h204l-259 -1465h-204zM807 1792c-60 -138 -136.334 -207 -229.001 -207c-40 0 -83.333 12.833 -130 38.5s-80.334 38.5 -101.001 38.5c-47.333 0 -88 -25.667 -122 -77h-91c20 56 50.5 104.5 91.5 145.5s84.167 61.5 129.5 61.5
c50.667 0 98.334 -12.833 143.001 -38.5s77.667 -38.5 99 -38.5c54.667 0 95.334 25.667 122.001 77h88z" />
    <glyph glyph-name="itilde" unicode="&#x129;" horiz-adv-x="628" 
d="M138 0l162 911h-142l35 157h327l-189 -1068h-193zM744 1432c-60 -138 -136.334 -207 -229.001 -207c-40 0 -83.333 12.833 -130 38.5s-80.334 38.5 -101.001 38.5c-47.333 0 -88 -25.667 -122 -77h-91c20 56 50.5 104.5 91.5 145.5s84.167 61.5 129.5 61.5
c50.667 0 98.334 -12.833 143.001 -38.5s77.667 -38.5 99 -38.5c54.667 0 95.334 25.667 122.001 77h88z" />
    <glyph glyph-name="Imacron" unicode="&#x12a;" horiz-adv-x="570" 
d="M75 0l259 1465h204l-259 -1465h-204zM856 1726l-25 -141h-738l25 141h738z" />
    <glyph glyph-name="imacron" unicode="&#x12b;" horiz-adv-x="628" 
d="M138 0l162 911h-142l35 157h327l-189 -1068h-193zM791 1366l-25 -141h-738l25 141h738z" />
    <glyph glyph-name="Ibreve" unicode="&#x12c;" horiz-adv-x="570" 
d="M75 0l259 1465h204l-259 -1465h-204zM842 1910c-38 -216.667 -168.667 -324.999 -392 -324.999c-185.333 0 -278 84 -278 252c0 23.333 2.33301 47.666 7 72.999h141c-4.66699 -19.333 -7 -37.333 -7 -54c0 -78 55 -117 165 -117c127.333 0 201 57 221 171h143z" />
    <glyph glyph-name="ibreve" unicode="&#x12d;" horiz-adv-x="628" 
d="M138 0l162 911h-142l35 157h327l-189 -1068h-193zM797 1550c-38 -216.667 -168.667 -324.999 -392 -324.999c-185.333 0 -278 84 -278 252c0 23.333 2.33301 47.666 7 72.999h141c-4.66699 -19.333 -7 -37.333 -7 -54c0 -78 55 -117 165 -117c127.333 0 201 57 221 171
h143z" />
    <glyph glyph-name="Iogonek" unicode="&#x12e;" horiz-adv-x="570" 
d="M569 1465l-259.001 -1465c-82 -37.333 -123 -87.333 -123 -150c0 -51.333 32 -77 96 -77c44 0 90.333 12.667 139 38v-149c-68.667 -23.333 -125 -35 -169 -35c-65.333 0 -119.666 17 -162.999 51c-46.667 37.333 -70 87.666 -70 150.999c0 81.333 31.667 154 95 218
l250 1418h204z" />
    <glyph glyph-name="iogonek" unicode="&#x12f;" horiz-adv-x="628" 
d="M578 1357c0 -38 -12.667 -69.333 -38 -94s-57 -37 -95 -37c-37.333 0 -68.833 12.5 -94.5 37.5s-38.5 56.167 -38.5 93.5s13 69 39 95s57.333 39 94 39c37.333 0 68.833 -12.833 94.5 -38.5s38.5 -57.5 38.5 -95.5zM520 1068l-189.001 -1068
c-80.667 -37.333 -121 -87.333 -121 -150c0 -51.333 32 -77 96 -77c44 0 90.333 12.667 139 38v-149c-68.667 -23.333 -125 -35 -169 -35c-65.333 0 -119.666 17 -162.999 51c-46.667 37.333 -70 87.666 -70 150.999c0 85.333 35 161.333 105 228l152 854h-142l35 157h327z
" />
    <glyph glyph-name="Idotaccent" unicode="&#x130;" horiz-adv-x="570" 
d="M75 0l259 1465h204l-259 -1465h-204zM443 1760c32 0 59.667 -11.501 83 -34.501s35 -50.5 35 -82.5c0 -32.667 -11.667 -60.5 -35 -83.5s-51 -34.5 -83 -34.5c-32.667 0 -60.334 11.5 -83.001 34.5s-34 50.833 -34 83.5s11.333 60.334 34 83.001s50.334 34 83.001 34z
" />
    <glyph glyph-name="dotlessi" unicode="&#x131;" horiz-adv-x="628" 
d="M138 0l162 911h-142l35 157h327l-189 -1068h-193z" />
    <glyph glyph-name="IJ" unicode="&#x132;" horiz-adv-x="1489" 
d="M75 0l259 1465h204l-259 -1465h-204zM498 293l175 0.000976562c0 -88.667 45 -133 135 -133c86 0 151.333 18.167 196 54.5s82.667 144.5 114 324.5l163 926h200l-161 -918c-36.667 -210.667 -92 -357.834 -166 -441.501s-199.333 -125.5 -376 -125.5
c-86.667 0 -155.5 23.5 -206.5 70.5s-76.5 111.833 -76.5 194.5c0 15.333 1 31.333 3 48z" />
    <glyph glyph-name="ij" unicode="&#x133;" horiz-adv-x="1200" 
d="M445 1491c36.667 0 68 -12.833 94 -38.5s39 -57.167 39 -94.5c0 -36.667 -13 -67.834 -39 -93.501s-57.333 -38.5 -94 -38.5s-68 12.833 -94 38.5s-39 56.834 -39 93.501c0 37.333 13 68.833 39 94.5s57.333 38.5 94 38.5zM138 0l162 911h-142l35 157h327l-189 -1068
h-193zM1030 1491c36.667 0 68 -13 94 -39s39 -57.333 39 -94s-13 -67.834 -39 -93.501s-57.333 -38.5 -94 -38.5s-68 12.833 -94 38.5s-39 56.834 -39 93.501s13 68 39 94s57.333 39 94 39zM310 -415l8 168c230 0 361 84 393 252l172 906h-141l34 160h329l-193 -1055
c-28 -152 -90 -261.833 -186 -329.5s-234.667 -101.5 -416 -101.5z" />
    <glyph glyph-name="Jcircumflex" unicode="&#x134;" horiz-adv-x="976" 
d="M-13 293l175 0.000976562c0 -88.667 45 -133 135 -133c86 0 151.333 18.167 196 54.5s82.667 144.5 114 324.5l163 926h200l-161 -918c-36.667 -210.667 -92 -357.834 -166 -441.501s-199.333 -125.5 -376 -125.5c-86.667 0 -155.5 23.5 -206.5 70.5
s-76.5 111.833 -76.5 194.5c0 15.333 1 31.333 3 48zM950 1582l-130 192l-211 -192h-172l361 341h107l242 -341h-197z" />
    <glyph glyph-name="jcircumflex" unicode="&#x135;" horiz-adv-x="751" 
d="M-139 -415l8 168c230 0 361 84 393 252l172 906h-141l34 160h329l-193 -1055c-28 -152 -90 -261.833 -186 -329.5s-234.667 -101.5 -416 -101.5zM662 1222l-130 192l-211 -192h-172l361 341h107l242 -341h-197z" />
    <glyph glyph-name="Kcedilla" unicode="&#x136;" horiz-adv-x="1179" 
d="M869 0l-284 674l-244 -277l-70 -397h-202l258 1465h202l-132 -758l666 758h233l-550 -635l354 -830h-231zM321 -455l-8 99c58.667 0 107.667 10.667 147 32s59 51.333 59 90s-26.333 58 -79 58l21 120c58 0 102.5 -14.667 133.5 -44s46.5 -68.333 46.5 -117
c0 -74.667 -30.5 -133 -91.5 -175s-137.167 -63 -228.5 -63z" />
    <glyph glyph-name="kcedilla" unicode="&#x137;" horiz-adv-x="1033" 
d="M441 473l-75.001 -65l-70 -408h-190l253 1510h185l-137 -878c250.667 234.667 405 392.667 463 474l128 -115c-107.333 -119.333 -243.666 -257.333 -408.999 -414l404 -577h-224zM300.999 -455l-8 99c58.667 0 107.667 10.667 147 32s59 51.333 59 90s-26.333 58 -79 58
l21 120c58 0 102.5 -14.667 133.5 -44s46.5 -68.333 46.5 -117c0 -74.667 -30.5 -133 -91.5 -175s-137.167 -63 -228.5 -63z" />
    <glyph glyph-name="kgreenlandic" unicode="&#x138;" horiz-adv-x="1100" 
d="M524 477l-198 -166l-56 -311h-190l188 1071h191l-92 -526c334 288.667 531 473 591 553l125 -123c-100 -115.333 -237.667 -244.333 -413 -387l342 -588h-230z" />
    <glyph glyph-name="Lacute" unicode="&#x139;" horiz-adv-x="1037" 
d="M84 0l259 1465h204l-227 -1285h662l-32 -180h-866zM777 1918l-226 -333h-140l169 333h197z" />
    <glyph glyph-name="lacute" unicode="&#x13a;" horiz-adv-x="656" 
d="M489 120l-22 -140c-214 0 -321 79.333 -321 238c0 48 16.667 155 50 321l192 971h198l-183 -912c-38 -189.333 -57 -308 -57 -356c0 -81.333 47.667 -122 143 -122zM787 1918l-226 -333h-140l169 333h197z" />
    <glyph glyph-name="Lcedilla" unicode="&#x13b;" horiz-adv-x="1037" 
d="M84 0l259 1465h204l-227 -1285h662l-32 -180h-866zM287 -455l-8 99c58.667 0 107.667 10.667 147 32s59 51.333 59 90s-26.333 58 -79 58l21 120c58 0 102.5 -14.667 133.5 -44s46.5 -68.333 46.5 -117c0 -74.667 -30.5 -133 -91.5 -175s-137.167 -63 -228.5 -63z" />
    <glyph glyph-name="lcedilla" unicode="&#x13c;" horiz-adv-x="656" 
d="M489 120l-22 -140c-214 0 -321 79.333 -321 238c0 48 16.667 155 50 321l192 971h198l-183 -912c-38 -189.333 -57 -308 -57 -356c0 -81.333 47.667 -122 143 -122zM101 -455l-8 99c58.667 0 107.667 10.667 147 32s59 51.333 59 90s-26.333 58 -79 58l21 120
c58 0 102.5 -14.667 133.5 -44s46.5 -68.333 46.5 -117c0 -74.667 -30.5 -133 -91.5 -175s-137.167 -63 -228.5 -63z" />
    <glyph glyph-name="Lcaron" unicode="&#x13d;" horiz-adv-x="1037" 
d="M84 0l259 1465h204l-227 -1285h662l-32 -180h-866zM806 1073l-40 68.001c54.667 36 85.667 61.833 93 77.5s11 31.167 11 46.5c0 17.333 -9.16699 37.5 -27.5 60.5s-27.5 43.833 -27.5 62.5c0 68.667 32.333 103 97 103c74 0 111 -38.333 111 -115
c0 -60.667 -20.333 -118.834 -61 -174.501s-92.667 -98.5 -156 -128.5z" />
    <glyph glyph-name="lcaron" unicode="&#x13e;" horiz-adv-x="656" 
d="M475 120l-22 -140c-214 0 -321 79.333 -321 238c0 48 16.667 155 50 321l192 971h198l-183 -912c-38 -189.333 -57 -308 -57 -356c0 -81.333 47.667 -122 143 -122zM672 1092l-40 68.001c54.667 36 85.667 61.833 93 77.5s11 31.167 11 46.5
c0 17.333 -9.16699 37.5 -27.5 60.5s-27.5 43.833 -27.5 62.5c0 68.667 32.333 103 97 103c74 0 111 -38.333 111 -115c0 -60.667 -20.333 -118.834 -61 -174.501s-92.667 -98.5 -156 -128.5z" />
    <glyph glyph-name="Ldot" unicode="&#x13f;" horiz-adv-x="1037" 
d="M84 0l259 1465h204l-227 -1285h662l-32 -180h-866zM864 790c32 0 59.667 -11.501 83 -34.501s35 -50.5 35 -82.5c0 -32.667 -11.667 -60.5 -35 -83.5s-51 -34.5 -83 -34.5c-32.667 0 -60.334 11.5 -83.001 34.5s-34 50.833 -34 83.5s11.333 60.334 34 83.001
s50.334 34 83.001 34z" />
    <glyph glyph-name="ldot" unicode="&#x140;" horiz-adv-x="1037" 
d="M489 120l-22 -140c-214 0 -321 79.333 -321 238c0 48 16.667 155 50 321l192 971h198l-183 -912c-38 -189.333 -57 -308 -57 -356c0 -81.333 47.667 -122 143 -122zM842 830c32 0 59.667 -11.501 83 -34.501s35 -50.5 35 -82.5c0 -32.667 -11.667 -60.5 -35 -83.5
s-51 -34.5 -83 -34.5c-32.667 0 -60.334 11.5 -83.001 34.5s-34 50.833 -34 83.5s11.333 60.334 34 83.001s50.334 34 83.001 34z" />
    <glyph glyph-name="Lslash" unicode="&#x141;" horiz-adv-x="1037" 
d="M51 775l182 67l110 623h204l-96 -542l150 56v-132l-175 -64l-106 -603h662l-32 -180h-866l125 704l-158 -57v128z" />
    <glyph glyph-name="lslash" unicode="&#x142;" horiz-adv-x="604" 
d="M575 1510l-110 -539l136 68v-116l-162 -76l-51 -249c-37.333 -182 -56 -284 -56 -306c0 -65.333 10.833 -110.333 32.5 -135s58.167 -37 109.5 -37l-22 -140c-213.333 0 -320 79.333 -320 238c0 46 16.333 153 49 321l42 211l-156 -69v115l180 79l127 635h201z" />
    <glyph glyph-name="Nacute" unicode="&#x143;" horiz-adv-x="1307" 
d="M1003 -20l-572 1040l-172 -1020h-200l259 1465h80l560 -998l169 998h198l-262 -1485h-60zM1037 1918l-226 -333h-140l169 333h197z" />
    <glyph glyph-name="nacute" unicode="&#x144;" horiz-adv-x="1119" 
d="M728 0l112.002 623.001c10 55.333 15 101.333 15 138c0 113.333 -59 170 -177 170c-45.333 0 -93.833 -13.333 -145.5 -40s-92.834 -58.334 -123.501 -95.001l-139 -796h-192l144 812c3.33301 18.667 5 40.667 5 66c0 68 -7 127 -21 177l184 36
c18 -97.333 26.667 -150.333 26 -159c81.333 106 198.666 159 351.999 159c193.333 0 290 -98.667 290 -296c0 -39.333 -4.33301 -83.333 -13 -132l-115 -663h-202zM1024 1558l-226 -333h-140l169 333h197z" />
    <glyph glyph-name="Ncedilla" unicode="&#x145;" horiz-adv-x="1307" 
d="M1003 -20l-572 1040l-172 -1020h-200l259 1465h80l560 -998l169 998h198l-262 -1485h-60zM341 -455l-8 99c58.667 0 107.667 10.667 147 32s59 51.333 59 90s-26.333 58 -79 58l21 120c58 0 102.5 -14.667 133.5 -44s46.5 -68.333 46.5 -117
c0 -74.667 -30.5 -133 -91.5 -175s-137.167 -63 -228.5 -63z" />
    <glyph glyph-name="ncedilla" unicode="&#x146;" horiz-adv-x="1119" 
d="M728 0l112.002 623.001c10 55.333 15 101.333 15 138c0 113.333 -59 170 -177 170c-45.333 0 -93.833 -13.333 -145.5 -40s-92.834 -58.334 -123.501 -95.001l-139 -796h-192l144 812c3.33301 18.667 5 40.667 5 66c0 68 -7 127 -21 177l184 36
c18 -97.333 26.667 -150.333 26 -159c81.333 106 198.666 159 351.999 159c193.333 0 290 -98.667 290 -296c0 -39.333 -4.33301 -83.333 -13 -132l-115 -663h-202zM261.002 -454.999l-8 99c58.667 0 107.667 10.667 147 32s59 51.333 59 90s-26.333 58 -79 58l21 120
c58 0 102.5 -14.667 133.5 -44s46.5 -68.333 46.5 -117c0 -74.667 -30.5 -133 -91.5 -175s-137.167 -63 -228.5 -63z" />
    <glyph glyph-name="Ncaron" unicode="&#x147;" horiz-adv-x="1307" 
d="M1003 -20l-572 1040l-172 -1020h-200l259 1465h80l560 -998l169 998h198l-262 -1485h-60zM1229 1922l-367 -337h-107l-235 337h172l144 -188l196 188h197z" />
    <glyph glyph-name="ncaron" unicode="&#x148;" horiz-adv-x="1119" 
d="M728 0l112.002 623.001c10 55.333 15 101.333 15 138c0 113.333 -59 170 -177 170c-45.333 0 -93.833 -13.333 -145.5 -40s-92.834 -58.334 -123.501 -95.001l-139 -796h-192l144 812c3.33301 18.667 5 40.667 5 66c0 68 -7 127 -21 177l184 36
c18 -97.333 26.667 -150.333 26 -159c81.333 106 198.666 159 351.999 159c193.333 0 290 -98.667 290 -296c0 -39.333 -4.33301 -83.333 -13 -132l-115 -663h-202zM1126 1562l-367 -337h-107l-235 337h172l144 -188l196 188h197z" />
    <glyph glyph-name="napostrophe" unicode="&#x149;" horiz-adv-x="1239" 
d="M67 1092l-40 68.001c54.667 36 85.667 61.833 93 77.5s11 31.167 11 46.5c0 17.333 -9.16699 37.5 -27.5 60.5s-27.5 43.833 -27.5 62.5c0 68.667 32.333 103 97 103c74 0 111 -38.333 111 -115c0 -60.667 -20.333 -118.834 -61 -174.501s-92.667 -98.5 -156 -128.5z
M848 0.000976562l112.002 623.001c10 55.333 15 101.333 15 138c0 113.333 -59 170 -177 170c-45.333 0 -93.833 -13.333 -145.5 -40s-92.834 -58.334 -123.501 -95.001l-139 -796h-192l144 812c3.33301 18.667 5 40.667 5 66c0 68 -7 127 -21 177l184 36
c18 -97.333 26.667 -150.333 26 -159c81.333 106 198.666 159 351.999 159c193.333 0 290 -98.667 290 -296c0 -39.333 -4.33301 -83.333 -13 -132l-115 -663h-202z" />
    <glyph glyph-name="Eng" unicode="&#x14a;" horiz-adv-x="1335" 
d="M1290 1083c0 -52.667 -6.00195 -114 -18.002 -184l-78 -442c-28.667 -164 -77 -284.333 -145 -361c-70 -77.333 -162.333 -116 -277 -116c-97.333 0 -175.666 26.333 -234.999 79l94 144c42 -34 86.333 -51 133 -51c70.667 0 125.334 35.333 164.001 106
c24.667 46 45 115 61 207l70 393c13.333 77.333 20 144.333 20 201c0 74 -12.333 128 -37 162c-44 60 -115.667 90 -215 90c-123.333 0 -242 -58 -356 -174l-201 -1137h-204l258 1464h120l50 -135c116 108 249.667 162 401 162c126 0 223 -34 291 -102
c69.333 -70 104 -172 104 -306z" />
    <glyph glyph-name="eng" unicode="&#x14b;" horiz-adv-x="1119" 
d="M1058 795c0 -34 -5.00195 -77.668 -15.002 -131.001l-113 -664c-38.667 -216 -138 -348.333 -298 -397c-58 -18 -125 -27 -201 -27l31 168c44.667 0 84.667 6 120 18c72.667 25.333 121.334 104.666 146.001 237.999l113 623c9.33301 52.667 14 99 14 139
c-0.666992 113.333 -58.334 170 -173.001 170c-47.333 0 -97.166 -13.667 -149.499 -41s-93.166 -58.666 -122.499 -93.999l-140 -797h-192l143 811c4 23.333 6 46 6 68c0 62.667 -6.66699 121.334 -20 176.001l182 37c18 -94.667 27 -148 27 -160
c82 106.667 199.333 160 352 160c193.333 0 290 -99 290 -297z" />
    <glyph glyph-name="Omacron" unicode="&#x14c;" horiz-adv-x="1380" 
d="M114 538c0 257.333 68.668 480.501 206.001 669.501s315.666 283.5 534.999 283.5c168.667 0 297.167 -46 385.5 -138s132.5 -224.333 132.5 -397c0 -284.667 -69.5 -519.334 -208.5 -704.001s-331.5 -277 -577.5 -277c-147.333 0 -263 52.167 -347 156.5
s-126 239.833 -126 406.5zM327.001 566.001c0 -126.667 25.166 -226.833 75.499 -300.5s122.5 -110.5 216.5 -110.5c166 0 297.833 77 395.5 231s146.5 337 146.5 549c0 251.333 -108 377 -324 377c-149.333 0 -271.666 -81.5 -366.999 -244.5s-143 -330.167 -143 -501.5z
M1271 1726l-25 -141h-738l25 141h738z" />
    <glyph glyph-name="omacron" unicode="&#x14d;" horiz-adv-x="1099" 
d="M73 394c0 191.333 56.001 355.334 168.001 492.001s254.333 205 427 205c130 0 229.333 -35.167 298 -105.5s103 -170.166 103 -299.499c0 -102.667 -20.5 -209.334 -61.5 -320.001s-108 -202.667 -201 -276s-204.5 -110 -334.5 -110
c-128.667 0 -227.334 36.167 -296.001 108.5s-103 174.166 -103 305.499zM273.001 406.001c0 -180.667 75.667 -271 227 -271c112.667 0 202.167 54.667 268.5 164s99.5 235.666 99.5 378.999c0 172 -75.667 258 -227 258c-76.667 0 -144.167 -27.333 -202.5 -82
s-100.5 -124.667 -126.5 -210s-39 -164.666 -39 -237.999zM1081 1366l-25 -141h-738l25 141h738z" />
    <glyph glyph-name="Obreve" unicode="&#x14e;" horiz-adv-x="1380" 
d="M114 538c0 257.333 68.668 480.501 206.001 669.501s315.666 283.5 534.999 283.5c168.667 0 297.167 -46 385.5 -138s132.5 -224.333 132.5 -397c0 -284.667 -69.5 -519.334 -208.5 -704.001s-331.5 -277 -577.5 -277c-147.333 0 -263 52.167 -347 156.5
s-126 239.833 -126 406.5zM327.001 566.001c0 -126.667 25.166 -226.833 75.499 -300.5s122.5 -110.5 216.5 -110.5c166 0 297.833 77 395.5 231s146.5 337 146.5 549c0 251.333 -108 377 -324 377c-149.333 0 -271.666 -81.5 -366.999 -244.5s-143 -330.167 -143 -501.5z
M1287 1910c-38 -216.667 -168.667 -324.999 -392 -324.999c-185.333 0 -278 84 -278 252c0 23.333 2.33301 47.666 7 72.999h141c-4.66699 -19.333 -7 -37.333 -7 -54c0 -78 55 -117 165 -117c127.333 0 201 57 221 171h143z" />
    <glyph glyph-name="obreve" unicode="&#x14f;" horiz-adv-x="1099" 
d="M73 394c0 191.333 56.001 355.334 168.001 492.001s254.333 205 427 205c130 0 229.333 -35.167 298 -105.5s103 -170.166 103 -299.499c0 -102.667 -20.5 -209.334 -61.5 -320.001s-108 -202.667 -201 -276s-204.5 -110 -334.5 -110
c-128.667 0 -227.334 36.167 -296.001 108.5s-103 174.166 -103 305.499zM273.001 406.001c0 -180.667 75.667 -271 227 -271c112.667 0 202.167 54.667 268.5 164s99.5 235.666 99.5 378.999c0 172 -75.667 258 -227 258c-76.667 0 -144.167 -27.333 -202.5 -82
s-100.5 -124.667 -126.5 -210s-39 -164.666 -39 -237.999zM1067 1550c-38 -216.667 -168.667 -324.999 -392 -324.999c-185.333 0 -278 84 -278 252c0 23.333 2.33301 47.666 7 72.999h141c-4.66699 -19.333 -7 -37.333 -7 -54c0 -78 55 -117 165 -117
c127.333 0 201 57 221 171h143z" />
    <glyph glyph-name="Odblacute" unicode="&#x150;" horiz-adv-x="1380" 
d="M114 538c0 257.333 68.668 480.501 206.001 669.501s315.666 283.5 534.999 283.5c168.667 0 297.167 -46 385.5 -138s132.5 -224.333 132.5 -397c0 -284.667 -69.5 -519.334 -208.5 -704.001s-331.5 -277 -577.5 -277c-147.333 0 -263 52.167 -347 156.5
s-126 239.833 -126 406.5zM327.001 566.001c0 -126.667 25.166 -226.833 75.499 -300.5s122.5 -110.5 216.5 -110.5c166 0 297.833 77 395.5 231s146.5 337 146.5 549c0 251.333 -108 377 -324 377c-149.333 0 -271.666 -81.5 -366.999 -244.5s-143 -330.167 -143 -501.5z
M971 1868l-199 -283h-140l142 283h197zM1341 1868l-199 -283h-140l142 283h197z" />
    <glyph glyph-name="odblacute" unicode="&#x151;" horiz-adv-x="1099" 
d="M73 394c0 191.333 56.001 355.334 168.001 492.001s254.333 205 427 205c130 0 229.333 -35.167 298 -105.5s103 -170.166 103 -299.499c0 -102.667 -20.5 -209.334 -61.5 -320.001s-108 -202.667 -201 -276s-204.5 -110 -334.5 -110
c-128.667 0 -227.334 36.167 -296.001 108.5s-103 174.166 -103 305.499zM273.001 406.001c0 -180.667 75.667 -271 227 -271c112.667 0 202.167 54.667 268.5 164s99.5 235.666 99.5 378.999c0 172 -75.667 258 -227 258c-76.667 0 -144.167 -27.333 -202.5 -82
s-100.5 -124.667 -126.5 -210s-39 -164.666 -39 -237.999zM778.001 1508l-199 -283h-140l142 283h197zM1148 1508l-199 -283h-140l142 283h197z" />
    <glyph glyph-name="OE" unicode="&#x152;" horiz-adv-x="2034" 
d="M1384 1285l-71.001 -407h484l-30 -170h-484l-94 -528h664l-31 -180h-864l24 138c-100.667 -108.667 -253.667 -163 -459 -163c-148.667 0 -264.667 51.833 -348 155.5s-125 239.5 -125 407.5c0 284.667 70.833 514.667 212.5 690s317.834 263 528.501 263
c180 0 314 -52 402 -156l23 130h875l-32 -180h-675zM262.999 566c0 -116 26 -213.5 78 -292.5s123.333 -118.5 214 -118.5c165.333 0 297 71.5 395 214.5s147 331.5 147 565.5c0 250.667 -112.667 376 -338 376c-138 0 -255.167 -73 -351.5 -219
s-144.5 -321.333 -144.5 -526z" />
    <glyph glyph-name="oe" unicode="&#x153;" horiz-adv-x="1825" 
d="M880 177c-108.667 -131.333 -250.333 -197 -425 -197c-127.333 0 -225.666 36 -294.999 108s-104 174 -104 306c0 190 55.833 353.667 167.5 491s254.167 206 427.5 206s291.333 -61.333 354 -184c116 122.667 261.333 184 436 184c106 0 190.667 -22.833 254 -68.5
s95 -110.167 95 -193.5c0 -116.667 -49.333 -208.667 -148 -276s-220 -101 -364 -101c-94.667 0 -175.334 18 -242.001 54c-6 -32 -9 -62.667 -9 -92c0 -88 24.833 -155.667 74.5 -203s118.5 -71 206.5 -71c78.667 0 158 29 238 87l-20 -194
c-106 -35.333 -200.333 -53 -283 -53c-178 0 -299 65.667 -363 197zM624.001 936c-111.333 0 -200.5 -53.667 -267.5 -161s-100.5 -230.333 -100.5 -369c0 -180.667 75.667 -271 227 -271c112 0 201.333 54.5 268 163.5s100 235.5 100 379.5c0 172 -75.667 258 -227 258z
M1069 644c51.333 -22.667 110.999 -34 178.999 -34c98.667 0 182.334 18.167 251.001 54.5s103 87.5 103 153.5c0 75.333 -70 113 -210 113c-66.667 0 -129.667 -27.167 -189 -81.5s-104 -122.833 -134 -205.5z" />
    <glyph glyph-name="Racute" unicode="&#x154;" horiz-adv-x="1192" 
d="M834 0l-230.001 628.999c-51.333 0 -121.666 3.33301 -210.999 10l-112 -639h-210l258 1465c27.333 0.666992 81.166 3.33398 161.499 8.00098s146.166 7 197.499 7c154.667 0 273.834 -27.667 357.501 -83s125.5 -134.666 125.5 -237.999
c0 -122 -36.167 -228.833 -108.5 -320.5s-163.166 -149.834 -272.499 -174.501l273 -664h-229zM506.999 1285l-83.998 -475.999c49.333 -6.66699 95.666 -10 138.999 -10c118.667 0 214.167 24.667 286.5 74s108.5 117 108.5 203c0 79.333 -25.333 135.666 -76 168.999
s-135.334 50 -254.001 50c-25.333 0 -65.333 -3.33301 -120 -10zM961.001 1918l-226 -333h-140l169 333h197z" />
    <glyph glyph-name="racute" unicode="&#x155;" horiz-adv-x="853" 
d="M835 883c-40 32 -86.668 48 -140.001 48c-67.333 0 -131.666 -31.167 -192.999 -93.5s-99.666 -136.833 -114.999 -223.5l-109 -614h-190l189 1071h190l-30 -171c92 127.333 206.333 191 343 191c23.333 0 59.666 -4.66699 108.999 -14zM928.999 1558l-226 -333h-140
l169 333h197z" />
    <glyph glyph-name="Rcedilla" unicode="&#x156;" horiz-adv-x="1192" 
d="M834 0l-230.001 628.999c-51.333 0 -121.666 3.33301 -210.999 10l-112 -639h-210l258 1465c27.333 0.666992 81.166 3.33398 161.499 8.00098s146.166 7 197.499 7c154.667 0 273.834 -27.667 357.501 -83s125.5 -134.666 125.5 -237.999
c0 -122 -36.167 -228.833 -108.5 -320.5s-163.166 -149.834 -272.499 -174.501l273 -664h-229zM506.999 1285l-83.998 -475.999c49.333 -6.66699 95.666 -10 138.999 -10c118.667 0 214.167 24.667 286.5 74s108.5 117 108.5 203c0 79.333 -25.333 135.666 -76 168.999
s-135.334 50 -254.001 50c-25.333 0 -65.333 -3.33301 -120 -10zM287.001 -455l-8 99c58.667 0 107.667 10.667 147 32s59 51.333 59 90s-26.333 58 -79 58l21 120c58 0 102.5 -14.667 133.5 -44s46.5 -68.333 46.5 -117c0 -74.667 -30.5 -133 -91.5 -175
s-137.167 -63 -228.5 -63z" />
    <glyph glyph-name="rcedilla" unicode="&#x157;" horiz-adv-x="853" 
d="M835 883c-40 32 -86.668 48 -140.001 48c-67.333 0 -131.666 -31.167 -192.999 -93.5s-99.666 -136.833 -114.999 -223.5l-109 -614h-190l189 1071h190l-30 -171c92 127.333 206.333 191 343 191c23.333 0 59.666 -4.66699 108.999 -14zM0.999023 -455l-8 99
c58.667 0 107.667 10.667 147 32s59 51.333 59 90s-26.333 58 -79 58l21 120c58 0 102.5 -14.667 133.5 -44s46.5 -68.333 46.5 -117c0 -74.667 -30.5 -133 -91.5 -175s-137.167 -63 -228.5 -63z" />
    <glyph glyph-name="Rcaron" unicode="&#x158;" horiz-adv-x="1192" 
d="M834 0l-230.001 628.999c-51.333 0 -121.666 3.33301 -210.999 10l-112 -639h-210l258 1465c27.333 0.666992 81.166 3.33398 161.499 8.00098s146.166 7 197.499 7c154.667 0 273.834 -27.667 357.501 -83s125.5 -134.666 125.5 -237.999
c0 -122 -36.167 -228.833 -108.5 -320.5s-163.166 -149.834 -272.499 -174.501l273 -664h-229zM506.999 1285l-83.998 -475.999c49.333 -6.66699 95.666 -10 138.999 -10c118.667 0 214.167 24.667 286.5 74s108.5 117 108.5 203c0 79.333 -25.333 135.666 -76 168.999
s-135.334 50 -254.001 50c-25.333 0 -65.333 -3.33301 -120 -10zM1124 1922l-367 -337h-107l-235 337h172l144 -188l196 188h197z" />
    <glyph glyph-name="rcaron" unicode="&#x159;" horiz-adv-x="853" 
d="M835 883c-40 32 -86.668 48 -140.001 48c-67.333 0 -131.666 -31.167 -192.999 -93.5s-99.666 -136.833 -114.999 -223.5l-109 -614h-190l189 1071h190l-30 -171c92 127.333 206.333 191 343 191c23.333 0 59.666 -4.66699 108.999 -14zM1010 1562l-367 -337h-107
l-235 337h172l144 -188l196 188h197z" />
    <glyph glyph-name="Sacute" unicode="&#x15a;" horiz-adv-x="985" 
d="M87 47l59.9961 192.002c28.667 -22.667 71.5 -42 128.5 -58s111.833 -24 164.5 -24c79.333 0 143 19.333 191 58s72 92 72 160c0 56.667 -18.167 106.667 -54.5 150s-98.333 96.666 -186 159.999s-151.5 122.333 -191.5 177s-60 123 -60 205
c0 132 41.833 235.5 125.5 310.5s191.834 112.5 324.501 112.5c150 0 249.667 -13 299 -39l-57 -194c-18.667 15.333 -50 29.666 -94 42.999s-85 20 -123 20c-85.333 0 -152.666 -19.333 -201.999 -58s-74 -94.334 -74 -167.001c0 -30.667 7.83301 -60.334 23.5 -89.001
s36.834 -54.5 63.501 -77.5s81.5 -65.5 164.5 -127.5s144 -125.167 183 -189.5s58.5 -139.166 58.5 -224.499c0 -132.667 -44.5 -234.5 -133.5 -305.5s-206.5 -106.5 -352.5 -106.5c-52 0 -110.667 7.33301 -176 22s-116.666 31.334 -153.999 50.001zM932.996 1918
l-226 -333h-140l169 333h197z" />
    <glyph glyph-name="sacute" unicode="&#x15b;" horiz-adv-x="829" 
d="M9 64l98.998 180c26 -26 63.333 -49.833 112 -71.5s90.334 -32.5 125.001 -32.5c59.333 0 108.333 16 147 48s58 75.333 58 130c0 28 -10.167 53 -30.5 75s-55.5 47.333 -105.5 76l-141 78c-43.333 24.667 -75.833 55.834 -97.5 93.501s-32.5 77.834 -32.5 120.501
c0 99.333 38.667 179.166 116 239.499s172.333 90.5 285 90.5c78 0 172 -24.667 282 -74l-85 -176c-65.333 60 -135.666 90 -210.999 90c-50 0 -93.167 -12.833 -129.5 -38.5s-54.5 -59.5 -54.5 -101.5c0 -30.667 10.333 -57 31 -79s56.334 -46.667 107.001 -74l140 -76
c43.333 -23.333 75.666 -53.333 96.999 -90s32 -76.667 32 -120c0 -114.667 -41.5 -205.334 -124.5 -272.001s-188.5 -100 -316.5 -100c-112.667 0 -213.667 28 -303 84zM882.998 1558l-226 -333h-140l169 333h197z" />
    <glyph glyph-name="Scircumflex" unicode="&#x15c;" horiz-adv-x="985" 
d="M87 47l59.9961 192.002c28.667 -22.667 71.5 -42 128.5 -58s111.833 -24 164.5 -24c79.333 0 143 19.333 191 58s72 92 72 160c0 56.667 -18.167 106.667 -54.5 150s-98.333 96.666 -186 159.999s-151.5 122.333 -191.5 177s-60 123 -60 205
c0 132 41.833 235.5 125.5 310.5s191.834 112.5 324.501 112.5c150 0 249.667 -13 299 -39l-57 -194c-18.667 15.333 -50 29.666 -94 42.999s-85 20 -123 20c-85.333 0 -152.666 -19.333 -201.999 -58s-74 -94.334 -74 -167.001c0 -30.667 7.83301 -60.334 23.5 -89.001
s36.834 -54.5 63.501 -77.5s81.5 -65.5 164.5 -127.5s144 -125.167 183 -189.5s58.5 -139.166 58.5 -224.499c0 -132.667 -44.5 -234.5 -133.5 -305.5s-206.5 -106.5 -352.5 -106.5c-52 0 -110.667 7.33301 -176 22s-116.666 31.334 -153.999 50.001zM809.996 1582l-130 192
l-211 -192h-172l361 341h107l242 -341h-197z" />
    <glyph glyph-name="scircumflex" unicode="&#x15d;" horiz-adv-x="829" 
d="M9 64l98.998 180c26 -26 63.333 -49.833 112 -71.5s90.334 -32.5 125.001 -32.5c59.333 0 108.333 16 147 48s58 75.333 58 130c0 28 -10.167 53 -30.5 75s-55.5 47.333 -105.5 76l-141 78c-43.333 24.667 -75.833 55.834 -97.5 93.501s-32.5 77.834 -32.5 120.501
c0 99.333 38.667 179.166 116 239.499s172.333 90.5 285 90.5c78 0 172 -24.667 282 -74l-85 -176c-65.333 60 -135.666 90 -210.999 90c-50 0 -93.167 -12.833 -129.5 -38.5s-54.5 -59.5 -54.5 -101.5c0 -30.667 10.333 -57 31 -79s56.334 -46.667 107.001 -74l140 -76
c43.333 -23.333 75.666 -53.333 96.999 -90s32 -76.667 32 -120c0 -114.667 -41.5 -205.334 -124.5 -272.001s-188.5 -100 -316.5 -100c-112.667 0 -213.667 28 -303 84zM679.998 1222l-130 192l-211 -192h-172l361 341h107l242 -341h-197z" />
    <glyph glyph-name="Scedilla" unicode="&#x15e;" horiz-adv-x="985" 
d="M87 47l59.9961 192.002c28.667 -22.667 71.5 -42 128.5 -58s111.833 -24 164.5 -24c79.333 0 143 19.333 191 58s72 92 72 160c0 56.667 -18.167 106.667 -54.5 150s-98.333 96.666 -186 159.999s-151.5 122.333 -191.5 177s-60 123 -60 205
c0 132 41.833 235.5 125.5 310.5s191.834 112.5 324.501 112.5c150 0 249.667 -13 299 -39l-57 -194c-18.667 15.333 -50 29.666 -94 42.999s-85 20 -123 20c-85.333 0 -152.666 -19.333 -201.999 -58s-74 -94.334 -74 -167.001c0 -30.667 7.83301 -60.334 23.5 -89.001
s36.834 -54.5 63.501 -77.5s81.5 -65.5 164.5 -127.5s144 -125.167 183 -189.5s58.5 -139.166 58.5 -224.499c0 -132.667 -44.5 -234.5 -133.5 -305.5s-206.5 -106.5 -352.5 -106.5c-52 0 -110.667 7.33301 -176 22s-116.666 31.334 -153.999 50.001zM94.9961 -454.998
l-8 99c58.667 0 107.667 10.667 147 32s59 51.333 59 90s-26.333 58 -79 58l21 120c58 0 102.5 -14.667 133.5 -44s46.5 -68.333 46.5 -117c0 -74.667 -30.5 -133 -91.5 -175s-137.167 -63 -228.5 -63z" />
    <glyph glyph-name="scedilla" unicode="&#x15f;" horiz-adv-x="829" 
d="M9 64l98.998 180c26 -26 63.333 -49.833 112 -71.5s90.334 -32.5 125.001 -32.5c59.333 0 108.333 16 147 48s58 75.333 58 130c0 28 -10.167 53 -30.5 75s-55.5 47.333 -105.5 76l-141 78c-43.333 24.667 -75.833 55.834 -97.5 93.501s-32.5 77.834 -32.5 120.501
c0 99.333 38.667 179.166 116 239.499s172.333 90.5 285 90.5c78 0 172 -24.667 282 -74l-85 -176c-65.333 60 -135.666 90 -210.999 90c-50 0 -93.167 -12.833 -129.5 -38.5s-54.5 -59.5 -54.5 -101.5c0 -30.667 10.333 -57 31 -79s56.334 -46.667 107.001 -74l140 -76
c43.333 -23.333 75.666 -53.333 96.999 -90s32 -76.667 32 -120c0 -114.667 -41.5 -205.334 -124.5 -272.001s-188.5 -100 -316.5 -100c-112.667 0 -213.667 28 -303 84zM97.998 -455l-8 99c58.667 0 107.667 10.667 147 32s59 51.333 59 90s-26.333 58 -79 58l21 120
c58 0 102.5 -14.667 133.5 -44s46.5 -68.333 46.5 -117c0 -74.667 -30.5 -133 -91.5 -175s-137.167 -63 -228.5 -63z" />
    <glyph glyph-name="Scaron" unicode="&#x160;" horiz-adv-x="985" 
d="M87 47l59.9961 192.002c28.667 -22.667 71.5 -42 128.5 -58s111.833 -24 164.5 -24c79.333 0 143 19.333 191 58s72 92 72 160c0 56.667 -18.167 106.667 -54.5 150s-98.333 96.666 -186 159.999s-151.5 122.333 -191.5 177s-60 123 -60 205
c0 132 41.833 235.5 125.5 310.5s191.834 112.5 324.501 112.5c150 0 249.667 -13 299 -39l-57 -194c-18.667 15.333 -50 29.666 -94 42.999s-85 20 -123 20c-85.333 0 -152.666 -19.333 -201.999 -58s-74 -94.334 -74 -167.001c0 -30.667 7.83301 -60.334 23.5 -89.001
s36.834 -54.5 63.501 -77.5s81.5 -65.5 164.5 -127.5s144 -125.167 183 -189.5s58.5 -139.166 58.5 -224.499c0 -132.667 -44.5 -234.5 -133.5 -305.5s-206.5 -106.5 -352.5 -106.5c-52 0 -110.667 7.33301 -176 22s-116.666 31.334 -153.999 50.001zM1042 1862l-367 -337
h-107l-235 337h172l144 -188l196 188h197z" />
    <glyph glyph-name="scaron" unicode="&#x161;" horiz-adv-x="829" 
d="M9 64l98.998 180c26 -26 63.333 -49.833 112 -71.5s90.334 -32.5 125.001 -32.5c59.333 0 108.333 16 147 48s58 75.333 58 130c0 28 -10.167 53 -30.5 75s-55.5 47.333 -105.5 76l-141 78c-43.333 24.667 -75.833 55.834 -97.5 93.501s-32.5 77.834 -32.5 120.501
c0 99.333 38.667 179.166 116 239.499s172.333 90.5 285 90.5c78 0 172 -24.667 282 -74l-85 -176c-65.333 60 -135.666 90 -210.999 90c-50 0 -93.167 -12.833 -129.5 -38.5s-54.5 -59.5 -54.5 -101.5c0 -30.667 10.333 -57 31 -79s56.334 -46.667 107.001 -74l140 -76
c43.333 -23.333 75.666 -53.333 96.999 -90s32 -76.667 32 -120c0 -114.667 -41.5 -205.334 -124.5 -272.001s-188.5 -100 -316.5 -100c-112.667 0 -213.667 28 -303 84zM994.998 1562l-367 -337h-107l-235 337h172l144 -188l196 188h197z" />
    <glyph glyph-name="Tcedilla" unicode="&#x162;" horiz-adv-x="1189" 
d="M828 1285l-226 -1285h-205l226 1285h-466l32 180h1153l-32 -180h-482zM361 -528l-40 68.001c54.667 36 85.667 61.833 93 77.5s11 31.167 11 46.5c0 17.333 -9.16699 37.5 -27.5 60.5s-27.5 43.833 -27.5 62.5c0 68.667 32.333 103 97 103c74 0 111 -38.333 111 -115
c0 -60.667 -20.333 -118.834 -61 -174.501s-92.667 -98.5 -156 -128.5z" />
    <glyph glyph-name="tcedilla" unicode="&#x163;" horiz-adv-x="860" 
d="M321 921h-124l32 150h124l44 224l217 82l-71 -306h294l-32 -150h-294l-112 -532c-8.66699 -41.333 -13 -73.333 -13 -96c0 -102 50.667 -153 152 -153c49.333 0 102.333 12.333 159 37l-7 -167c-54.667 -20 -143 -30 -265 -30c-76 0 -135.167 23.5 -177.5 70.5
s-63.5 111.5 -63.5 193.5c0 18.667 3 41.667 9 69zM214 -528l-40 68.001c54.667 36 85.667 61.833 93 77.5s11 31.167 11 46.5c0 17.333 -9.16699 37.5 -27.5 60.5s-27.5 43.833 -27.5 62.5c0 68.667 32.333 103 97 103c74 0 111 -38.333 111 -115
c0 -60.667 -20.333 -118.834 -61 -174.501s-92.667 -98.5 -156 -128.5z" />
    <glyph glyph-name="Tcaron" unicode="&#x164;" horiz-adv-x="1189" 
d="M828 1285l-226 -1285h-205l226 1285h-466l32 180h1153l-32 -180h-482zM1156 1862l-367 -337h-107l-235 337h172l144 -188l196 188h197z" />
    <glyph glyph-name="tcaron" unicode="&#x165;" horiz-adv-x="1016" 
d="M321 921h-124l32 150h124l44 224l217 82l-71 -306h294l-32 -150h-294l-112 -532c-8.66699 -41.333 -13 -73.333 -13 -96c0 -102 50.667 -153 152 -153c49.333 0 102.333 12.333 159 37l-7 -167c-54.667 -20 -143 -30 -265 -30c-76 0 -135.167 23.5 -177.5 70.5
s-63.5 111.5 -63.5 193.5c0 18.667 3 41.667 9 69zM947 961l-40 68.001c54.667 36 85.667 61.833 93 77.5s11 31.167 11 46.5c0 17.333 -9.16699 37.5 -27.5 60.5s-27.5 43.833 -27.5 62.5c0 68.667 32.333 103 97 103c74 0 111 -38.333 111 -115
c0 -60.667 -20.333 -118.834 -61 -174.501s-92.667 -98.5 -156 -128.5z" />
    <glyph glyph-name="Tbar" unicode="&#x166;" horiz-adv-x="1189" 
d="M1342 1465l-32 -180h-482l-89 -505h316l-27 -147h-315l-111 -633h-205l111 633h-315l26 147h316l88 505h-466l32 180h1153z" />
    <glyph glyph-name="tbar" unicode="&#x167;" horiz-adv-x="860" 
d="M837 1071l-32 -150h-294l-54 -262h264l-29 -135h-263l-27 -135c-10.667 -51.333 -16 -88 -16 -110c0 -92.667 49.667 -139 149 -139c49.333 0 103.333 13 162 39l-7 -169c-55.333 -20 -143.333 -30 -264 -30c-75.333 0 -134.5 23.5 -177.5 70.5s-64.5 111.5 -64.5 193.5
c0 20.667 3 43.667 9 69l44 211h-135l31 135h132l56 262h-128l34 150h125l45 224l217 82l-71 -306h294z" />
    <glyph glyph-name="Utilde" unicode="&#x168;" horiz-adv-x="1328" 
d="M324 1465l209.999 0.00195312l-180 -1003c-4 -22 -6 -43 -6 -63c0 -75.333 22.833 -134.833 68.5 -178.5s107.834 -65.5 186.501 -65.5c97.333 0 178 27.667 242 83s104.667 131.666 122 228.999l179 998h206l-180 -1019c-26 -148 -92.5 -263.5 -199.5 -346.5
s-240.167 -124.5 -399.5 -124.5c-135.333 0 -242.333 33 -321 99s-118 153 -118 261c0 35.333 3.33301 72.666 10 111.999zM1202 1792c-60 -138 -136.334 -207 -229.001 -207c-40 0 -83.333 12.833 -130 38.5s-80.334 38.5 -101.001 38.5c-47.333 0 -88 -25.667 -122 -77
h-91c20 56 50.5 104.5 91.5 145.5s84.167 61.5 129.5 61.5c50.667 0 98.334 -12.833 143.001 -38.5s77.667 -38.5 99 -38.5c54.667 0 95.334 25.667 122.001 77h88z" />
    <glyph glyph-name="utilde" unicode="&#x169;" horiz-adv-x="1140" 
d="M431 1071l-125 -683c-5.33301 -29.333 -8 -56.333 -8 -81c0 -111.333 58 -167 174 -167c71.333 0 139.833 26.667 205.5 80s105.167 117 118.5 191l122 660h200l-196 -1071h-200l28 151c-74.667 -114 -204 -171 -388 -171c-83.333 0 -148.333 24.667 -195 74
s-70 119.333 -70 210c0 32 3.33301 66.667 10 104l124 703h200zM1042 1432c-60 -138 -136.334 -207 -229.001 -207c-40 0 -83.333 12.833 -130 38.5s-80.334 38.5 -101.001 38.5c-47.333 0 -88 -25.667 -122 -77h-91c20 56 50.5 104.5 91.5 145.5s84.167 61.5 129.5 61.5
c50.667 0 98.334 -12.833 143.001 -38.5s77.667 -38.5 99 -38.5c54.667 0 95.334 25.667 122.001 77h88z" />
    <glyph glyph-name="Umacron" unicode="&#x16a;" horiz-adv-x="1328" 
d="M324 1465l209.999 0.00195312l-180 -1003c-4 -22 -6 -43 -6 -63c0 -75.333 22.833 -134.833 68.5 -178.5s107.834 -65.5 186.501 -65.5c97.333 0 178 27.667 242 83s104.667 131.666 122 228.999l179 998h206l-180 -1019c-26 -148 -92.5 -263.5 -199.5 -346.5
s-240.167 -124.5 -399.5 -124.5c-135.333 0 -242.333 33 -321 99s-118 153 -118 261c0 35.333 3.33301 72.666 10 111.999zM1246 1726l-25 -141h-738l25 141h738z" />
    <glyph glyph-name="umacron" unicode="&#x16b;" horiz-adv-x="1140" 
d="M431 1071l-125 -683c-5.33301 -29.333 -8 -56.333 -8 -81c0 -111.333 58 -167 174 -167c71.333 0 139.833 26.667 205.5 80s105.167 117 118.5 191l122 660h200l-196 -1071h-200l28 151c-74.667 -114 -204 -171 -388 -171c-83.333 0 -148.333 24.667 -195 74
s-70 119.333 -70 210c0 32 3.33301 66.667 10 104l124 703h200zM1091 1366l-25 -141h-738l25 141h738z" />
    <glyph glyph-name="Ubreve" unicode="&#x16c;" horiz-adv-x="1328" 
d="M324 1465l209.999 0.00195312l-180 -1003c-4 -22 -6 -43 -6 -63c0 -75.333 22.833 -134.833 68.5 -178.5s107.834 -65.5 186.501 -65.5c97.333 0 178 27.667 242 83s104.667 131.666 122 228.999l179 998h206l-180 -1019c-26 -148 -92.5 -263.5 -199.5 -346.5
s-240.167 -124.5 -399.5 -124.5c-135.333 0 -242.333 33 -321 99s-118 153 -118 261c0 35.333 3.33301 72.666 10 111.999zM1227 1910c-38 -216.667 -168.667 -324.999 -392 -324.999c-185.333 0 -278 84 -278 252c0 23.333 2.33301 47.666 7 72.999h141
c-4.66699 -19.333 -7 -37.333 -7 -54c0 -78 55 -117 165 -117c127.333 0 201 57 221 171h143z" />
    <glyph glyph-name="ubreve" unicode="&#x16d;" horiz-adv-x="1140" 
d="M431 1071l-125 -683c-5.33301 -29.333 -8 -56.333 -8 -81c0 -111.333 58 -167 174 -167c71.333 0 139.833 26.667 205.5 80s105.167 117 118.5 191l122 660h200l-196 -1071h-200l28 151c-74.667 -114 -204 -171 -388 -171c-83.333 0 -148.333 24.667 -195 74
s-70 119.333 -70 210c0 32 3.33301 66.667 10 104l124 703h200zM1087 1550c-38 -216.667 -168.667 -324.999 -392 -324.999c-185.333 0 -278 84 -278 252c0 23.333 2.33301 47.666 7 72.999h141c-4.66699 -19.333 -7 -37.333 -7 -54c0 -78 55 -117 165 -117
c127.333 0 201 57 221 171h143z" />
    <glyph glyph-name="Uring" unicode="&#x16e;" horiz-adv-x="1328" 
d="M324 1465l209.999 0.00195312l-180 -1003c-4 -22 -6 -43 -6 -63c0 -75.333 22.833 -134.833 68.5 -178.5s107.834 -65.5 186.501 -65.5c97.333 0 178 27.667 242 83s104.667 131.666 122 228.999l179 998h206l-180 -1019c-26 -148 -92.5 -263.5 -199.5 -346.5
s-240.167 -124.5 -399.5 -124.5c-135.333 0 -242.333 33 -321 99s-118 153 -118 261c0 35.333 3.33301 72.666 10 111.999zM852.999 1582c-66.667 0 -120.331 15.668 -160.998 47.001s-61 75 -61 131c0 47.333 22.667 88.666 68 123.999s96.666 53 153.999 53
c61.333 0 113.666 -16.5 156.999 -49.5s65 -75.5 65 -127.5c0 -54 -20.5 -97.167 -61.5 -129.5s-94.5 -48.5 -160.5 -48.5zM853.002 1849c-35.333 0 -66.499 -8.5 -93.499 -25.5s-40.5 -38.167 -40.5 -63.5c0 -60 44.667 -90 134 -90c37.333 0 69.166 8 95.499 24
s39.5 38 39.5 66c0 26.667 -13.5 48.167 -40.5 64.5s-58.5 24.5 -94.5 24.5z" />
    <glyph glyph-name="uring" unicode="&#x16f;" horiz-adv-x="1140" 
d="M431 1071l-125 -683c-5.33301 -29.333 -8 -56.333 -8 -81c0 -111.333 58 -167 174 -167c71.333 0 139.833 26.667 205.5 80s105.167 117 118.5 191l122 660h200l-196 -1071h-200l28 151c-74.667 -114 -204 -171 -388 -171c-83.333 0 -148.333 24.667 -195 74
s-70 119.333 -70 210c0 32 3.33301 66.667 10 104l124 703h200zM713 1222c-66.667 0 -120.331 15.668 -160.998 47.001s-61 75 -61 131c0 47.333 22.667 88.666 68 123.999s96.666 53 153.999 53c61.333 0 113.666 -16.5 156.999 -49.5s65 -75.5 65 -127.5
c0 -54 -20.5 -97.167 -61.5 -129.5s-94.5 -48.5 -160.5 -48.5zM713.003 1489c-35.333 0 -66.499 -8.5 -93.499 -25.5s-40.5 -38.167 -40.5 -63.5c0 -60 44.667 -90 134 -90c37.333 0 69.166 8 95.499 24s39.5 38 39.5 66c0 26.667 -13.5 48.167 -40.5 64.5
s-58.5 24.5 -94.5 24.5z" />
    <glyph glyph-name="Udblacute" unicode="&#x170;" horiz-adv-x="1328" 
d="M324 1465l209.999 0.00195312l-180 -1003c-4 -22 -6 -43 -6 -63c0 -75.333 22.833 -134.833 68.5 -178.5s107.834 -65.5 186.501 -65.5c97.333 0 178 27.667 242 83s104.667 131.666 122 228.999l179 998h206l-180 -1019c-26 -148 -92.5 -263.5 -199.5 -346.5
s-240.167 -124.5 -399.5 -124.5c-135.333 0 -242.333 33 -321 99s-118 153 -118 261c0 35.333 3.33301 72.666 10 111.999zM907.999 1868l-199 -283h-140l142 283h197zM1278 1868l-199 -283h-140l142 283h197z" />
    <glyph glyph-name="udblacute" unicode="&#x171;" horiz-adv-x="1140" 
d="M431 1071l-125 -683c-5.33301 -29.333 -8 -56.333 -8 -81c0 -111.333 58 -167 174 -167c71.333 0 139.833 26.667 205.5 80s105.167 117 118.5 191l122 660h200l-196 -1071h-200l28 151c-74.667 -114 -204 -171 -388 -171c-83.333 0 -148.333 24.667 -195 74
s-70 119.333 -70 210c0 32 3.33301 66.667 10 104l124 703h200zM788 1508l-199 -283h-140l142 283h197zM1158 1508l-199 -283h-140l142 283h197z" />
    <glyph glyph-name="Uogonek" unicode="&#x172;" horiz-adv-x="1328" 
d="M1352 1465l-180.002 -1019c-27.333 -152.667 -95.333 -270 -204 -352c-84 -63.333 -184.667 -101.333 -302 -114c-56.667 -34.667 -85 -78 -85 -130c0 -51.333 32 -77 96 -77c44 0 90.333 12.667 139 38v-149c-68.667 -23.333 -125 -35 -169 -35
c-65.333 0 -119.666 17 -162.999 51c-46.667 37.333 -70 87.666 -70 150.999c0 56 15 107.667 45 155c-85.333 14.667 -156.333 46.667 -213 96c-74.667 65.333 -112 150.666 -112 255.999c0 36 3.33301 72.667 10 110l180 1019h210l-180 -1002c-4 -22 -6 -43.333 -6 -64
c0 -77.333 24 -138 72 -182c44.667 -40.667 105.334 -61 182.001 -61c98.667 0 179.667 27.167 243 81.5s104 130.833 122 229.5l179 998h206z" />
    <glyph glyph-name="uogonek" unicode="&#x173;" horiz-adv-x="1140" 
d="M1118 1071l-196.001 -1071c-82 -37.333 -123 -87.333 -123 -150c0 -51.333 32 -77 96 -77c44 0 90.333 12.667 139 38v-149c-68.667 -23.333 -125 -35 -169 -35c-65.333 0 -119.666 17 -162.999 51c-46.667 37.333 -70 87.666 -70 150.999
c0 83.333 33.333 157.666 100 222.999l18 100c-74 -114.667 -203.333 -172 -388 -172c-78.667 0 -141.667 23 -189 69c-50.667 49.333 -76 121 -76 215c0 32.667 3.33301 67.667 10 105l124 702h200l-127 -684c-4 -22 -6 -48.667 -6 -80c0 -112 57.667 -168 173 -168
c69.333 0 136.333 25.333 201 76c69.333 54 111 119.667 125 197l121 659h200z" />
    <glyph glyph-name="Wcircumflex" unicode="&#x174;" horiz-adv-x="1745" 
d="M1187 -20h-63l-169 989l-506 -989h-63l-200 1485h208l119 -990l497 990h70l147 -985l460 985h218zM1210 1582l-130 192l-211 -192h-172l361 341h107l242 -341h-197z" />
    <glyph glyph-name="wcircumflex" unicode="&#x175;" horiz-adv-x="1524" 
d="M1042 -20h-50l-199 697l-428 -697h-50l-200 1094h193l117 -681l399 681h50l192 -686l336 686h197zM1020 1222l-130 192l-211 -192h-172l361 341h107l242 -341h-197z" />
    <glyph glyph-name="Ycircumflex" unicode="&#x176;" horiz-adv-x="1168" 
d="M714 656l-116 -656h-200l116 656l-332 809h209l249 -625l461 625h226zM930 1582l-130 192l-211 -192h-172l361 341h107l242 -341h-197z" />
    <glyph glyph-name="ycircumflex" unicode="&#x177;" horiz-adv-x="1010" 
d="M31 -420l-0.000976562 191c124 0 212 18.667 264 56s89.333 93.333 112 168c-94 0 -156.333 92.667 -187 278l-134 798h207l118 -777c11.333 -76.667 38.666 -115 81.999 -115l386 892h216l-537 -1199c-45.333 -101.333 -105.666 -175.333 -180.999 -222
s-190.666 -70 -345.999 -70zM755.999 1222l-130 192l-211 -192h-172l361 341h107l242 -341h-197z" />
    <glyph glyph-name="Ydieresis" unicode="&#x178;" horiz-adv-x="1168" 
d="M714 656l-116 -656h-200l116 656l-332 809h209l249 -625l461 625h226zM542 1813c31.333 0 57.833 -10.833 79.5 -32.5s32.5 -48.167 32.5 -79.5s-11 -58 -33 -80s-48.333 -33 -79 -33c-31.333 0 -58 11 -80 33s-33 48.667 -33 80s11 57.833 33 79.5s48.667 32.5 80 32.5z
M1014 1813c31.333 0 58 -10.833 80 -32.5s33 -48.167 33 -79.5s-11 -58 -33 -80s-48.667 -33 -80 -33s-57.833 11 -79.5 33s-32.5 48.667 -32.5 80s10.833 57.833 32.5 79.5s48.167 32.5 79.5 32.5z" />
    <glyph glyph-name="Zacute" unicode="&#x179;" horiz-adv-x="1127" 
d="M80 0v50l817 1235h-620l31 180h876v-50l-789 -1235h614l-32 -180h-897zM1036 1918l-226 -333h-140l169 333h197z" />
    <glyph glyph-name="zacute" unicode="&#x17a;" horiz-adv-x="972" 
d="M336 170h533l-30 -170h-831v50l657 851h-549l30 170h836v-54zM878 1558l-226 -333h-140l169 333h197z" />
    <glyph glyph-name="Zdot" unicode="&#x17b;" horiz-adv-x="1127" 
d="M80 0v50l817 1235h-620l31 180h876v-50l-789 -1235h614l-32 -180h-897zM779 1820c32 0 59.667 -11.501 83 -34.501s35 -50.5 35 -82.5c0 -32.667 -11.667 -60.5 -35 -83.5s-51 -34.5 -83 -34.5c-32.667 0 -60.334 11.5 -83.001 34.5s-34 50.833 -34 83.5
s11.333 60.334 34 83.001s50.334 34 83.001 34z" />
    <glyph glyph-name="zdot" unicode="&#x17c;" horiz-adv-x="972" 
d="M336 170h533l-30 -170h-831v50l657 851h-549l30 170h836v-54zM638 1460c32 0 59.667 -11.501 83 -34.501s35 -50.5 35 -82.5c0 -32.667 -11.667 -60.5 -35 -83.5s-51 -34.5 -83 -34.5c-32.667 0 -60.334 11.5 -83.001 34.5s-34 50.833 -34 83.5s11.333 60.334 34 83.001
s50.334 34 83.001 34z" />
    <glyph glyph-name="Zcaron" unicode="&#x17d;" horiz-adv-x="1127" 
d="M80 0v50l817 1235h-620l31 180h876v-50l-789 -1235h614l-32 -180h-897zM1138 1862l-367 -337h-107l-235 337h172l144 -188l196 188h197z" />
    <glyph glyph-name="zcaron" unicode="&#x17e;" horiz-adv-x="972" 
d="M336 170h533l-30 -170h-831v50l657 851h-549l30 170h836v-54zM1050 1562l-367 -337h-107l-235 337h172l144 -188l196 188h197z" />
    <glyph glyph-name="longs" unicode="&#x17f;" horiz-adv-x="715" 
d="M104 0l183 1071c49.333 292 196 438 440 438c55.333 0 103 -9.33301 143 -28l-36 -150c-48 19.333 -87.667 29 -119 29c-121.333 0 -198 -96.333 -230 -289l-176 -1071h-205z" />
    <glyph glyph-name="florin" unicode="&#x192;" horiz-adv-x="822" 
d="M899 1332c-50.667 18.667 -89.999 28 -117.999 28c-120.667 0 -197.667 -96.333 -231 -289h248l-16 -131h-251l-169 -1010c-16 -94.667 -59.333 -171.5 -130 -230.5s-156.334 -94.833 -257.001 -107.5l-17 117c40 8 81 35 123 81s67.333 92.667 76 140l177 1010h-151
l22 131h147c58.667 292.667 205.667 439 441 439c56 0 103.333 -10 142 -30z" />
    <glyph glyph-name="Aringacute" unicode="&#x1fa;" horiz-adv-x="1251" 
d="M1168 0h-232l-46 309h-522l-172 -309h-228l820 1322c-104.667 19.333 -157 77 -157 173c0 48.667 22.333 90 67 124c40.667 30.667 86.667 48 138 52l103 207h197l-179 -225c78.667 -31.333 118 -84 118 -158c0 -103.333 -61.667 -162 -185 -176zM988 1495
c0 29.333 -16 52.334 -48 69.001c-26 13.333 -55 20 -87 20c-31.333 0 -60 -7 -86 -21c-32 -16.667 -48 -39.334 -48 -68.001c0 -60 44.667 -90 134 -90c34 0 63.333 6.66699 88 20c31.333 16 47 39.333 47 70zM867 456.001l-88 576l-326 -576h414z" />
    <glyph glyph-name="aringacute" unicode="&#x1fb;" horiz-adv-x="1076" 
d="M1052 1004l-131 -623c-5.33301 -25.333 -8 -56 -8 -92c0 -104 16.333 -200.333 49 -289h-194c-10.667 21.333 -22 57.333 -34 108c-31.333 -38 -78 -68.833 -140 -92.5s-127.667 -35.5 -197 -35.5c-105.333 0 -187.5 31.167 -246.5 93.5s-88.5 151.833 -88.5 268.5
c0 196 57.833 369.833 173.5 521.5s264.5 227.5 446.5 227.5c172 0 295.333 -29 370 -87zM842 893c-18 28.667 -78.667 43 -182 43c-105.333 0 -198 -56 -278 -168s-120 -252 -120 -420c0 -142 63.333 -213 190 -213c66 0 128 34.167 186 102.5s98.333 155.833 121 262.5z
M769 1172c-66.667 0 -120.331 15.668 -160.998 47.001s-61 75 -61 131c0 47.333 22.667 88.666 68 123.999s96.666 53 153.999 53c61.333 0 113.666 -16.5 156.999 -49.5s65 -75.5 65 -127.5c0 -54 -20.5 -97.167 -61.5 -129.5s-94.5 -48.5 -160.5 -48.5zM769.003 1439
c-35.333 0 -66.499 -8.5 -93.499 -25.5s-40.5 -38.167 -40.5 -63.5c0 -60 44.667 -90 134 -90c37.333 0 69.166 8 95.499 24s39.5 38 39.5 66c0 26.667 -13.5 48.167 -40.5 64.5s-58.5 24.5 -94.5 24.5zM1108 1931l-226 -333h-140l169 333h197z" />
    <glyph glyph-name="AEacute" unicode="&#x1fc;" horiz-adv-x="1775" 
d="M782 307h-438l-193 -307h-234l963 1465h981l-33 -180h-666l-69 -407h474l-30 -170h-474l-94 -528h654l-31 -180h-864zM948 1252l-514 -796h374zM1557 1918l-226 -333h-140l169 333h197z" />
    <glyph glyph-name="aeacute" unicode="&#x1fd;" horiz-adv-x="1730" 
d="M959 506c-5.33301 -32 -7.99902 -62.668 -7.99902 -92.001c0 -88 24.667 -155.667 74 -203s118.333 -71 207 -71c78.667 0 158 29 238 87l-21 -194c-106.667 -35.333 -200.667 -53 -282 -53c-110 0 -199 40 -267 120c-2.66699 -39.333 -5.66699 -72.666 -9 -99.999
l-188 -1c1.33301 26.667 8.33301 78 21 154c-28.667 -51.333 -73 -93 -133 -125s-124.667 -48 -194 -48c-105.333 0 -187.5 31.167 -246.5 93.5s-88.5 151.833 -88.5 268.5c0 196 57.833 369.833 173.5 521.5s264.5 227.5 446.5 227.5
c139.333 0 252.666 -13.667 339.999 -41l-11 -71c102.667 74.667 220.667 112 354 112c106 0 190.667 -22.833 254 -68.5s95 -110.167 95 -193.5c0 -116.667 -49.333 -208.667 -148 -276s-220 -101 -364 -101c-95.333 0 -176.333 18 -243 54zM829.001 903.999
c-58.667 21.333 -115.001 32.001 -169.001 32.001c-114 0 -208.833 -57.333 -284.5 -172s-113.5 -253.334 -113.5 -416.001c0 -142 60 -213 180 -213c144.667 -1.33301 250.334 120 317.001 364zM992 644c51.333 -22.667 110.997 -34 178.997 -34
c98.667 0 182.334 18.167 251.001 54.5s103 87.5 103 153.5c0 75.333 -70 113 -210 113c-67.333 0 -130.666 -27.833 -189.999 -83.5s-103.666 -123.5 -132.999 -203.5zM1248 1558l-226 -333h-140l169 333h197z" />
    <glyph glyph-name="Oslashacute" unicode="&#x1fe;" horiz-adv-x="1380" 
d="M1537 1491l-211 -241c40 -80 60 -178 60 -294c0 -285.333 -69.667 -520.166 -209 -704.499s-331.666 -276.5 -576.999 -276.5c-120 0 -220 35.667 -300 107l-89 -102h-213l203 230c-49.333 93.333 -74 202.666 -74 327.999c0 257.333 68.667 480.5 206 669.5
s315.666 283.5 534.999 283.5c155.333 0 277 -39.333 365 -118l104 118h200zM361 390l733.999 827.001c-54 63.333 -135.667 95 -245 95c-149.333 0 -271.666 -81.5 -366.999 -244.5s-143 -330.167 -143 -501.5c0 -64.667 7 -123.334 21 -176.001zM1163 1065l-726 -827
c49.333 -55.333 114.333 -83 195 -83c166 0 297.833 77 395.5 231s146.5 337 146.5 549c0 48 -3.66699 91.333 -11 130zM1155 1918l-226 -333h-140l169 333h197z" />
    <glyph glyph-name="oslashacute" unicode="&#x1ff;" horiz-adv-x="1099" 
d="M1023 1091l168.001 0.000976562l-172 -179c33.333 -62 50 -137.333 50 -226c0 -102.667 -20.5 -209.334 -61.5 -320.001s-108 -202.667 -201 -276s-204.5 -110 -334.5 -110c-110.667 0 -199.667 27.333 -267 82l-79 -82h-182l179 184c-33.333 63.333 -50 140 -50 230
c0 191.333 56 355.333 168 492s254.333 205 427 205c115.333 0 206.666 -28 273.999 -84zM280.001 326.001l530 546c-38 42.667 -94.333 64 -169 64c-76.667 0 -144.167 -27.333 -202.5 -82s-100.5 -124.5 -126.5 -209.5s-39 -164.167 -39 -237.5
c0 -29.333 2.33301 -56.333 7 -81zM863.001 749.001l-526 -549c38.667 -43.333 93 -65 163 -65c78.667 0 146.667 28 204 84s99 127.5 125 214.5s39 167.833 39 242.5c0 26.667 -1.66699 51 -5 73zM917.001 1558l-226 -333h-140l169 333h197z" />
    <glyph glyph-name="circumflex" unicode="&#x2c6;" 
d="M810 1222l-130 192l-211 -192h-172l361 341h107l242 -341h-197z" />
    <glyph glyph-name="caron" unicode="&#x2c7;" 
d="M1069 1562l-367 -337h-107l-235 337h172l144 -188l196 188h197z" />
    <glyph glyph-name="macron" unicode="&#x2c9;" 
d="M1041 1366l-25 -141h-738l25 141h738z" />
    <glyph glyph-name="breve" unicode="&#x2d8;" 
d="M1087 1550c-38 -216.667 -168.667 -324.999 -392 -324.999c-185.333 0 -278 84 -278 252c0 23.333 2.33301 47.666 7 72.999h141c-4.66699 -19.333 -7 -37.333 -7 -54c0 -78 55 -117 165 -117c127.333 0 201 57 221 171h143z" />
    <glyph glyph-name="dotaccent" unicode="&#x2d9;" 
d="M738 1460c32 0 59.667 -11.501 83 -34.501s35 -50.5 35 -82.5c0 -32.667 -11.667 -60.5 -35 -83.5s-51 -34.5 -83 -34.5c-32.667 0 -60.334 11.5 -83.001 34.5s-34 50.833 -34 83.5s11.333 60.334 34 83.001s50.334 34 83.001 34z" />
    <glyph glyph-name="ring" unicode="&#x2da;" 
d="M673 1222c-66.667 0 -120.331 15.668 -160.998 47.001s-61 75 -61 131c0 47.333 22.667 88.666 68 123.999s96.666 53 153.999 53c61.333 0 113.666 -16.5 156.999 -49.5s65 -75.5 65 -127.5c0 -54 -20.5 -97.167 -61.5 -129.5s-94.5 -48.5 -160.5 -48.5zM673.003 1489
c-35.333 0 -66.499 -8.5 -93.499 -25.5s-40.5 -38.167 -40.5 -63.5c0 -60 44.667 -90 134 -90c37.333 0 69.166 8 95.499 24s39.5 38 39.5 66c0 26.667 -13.5 48.167 -40.5 64.5s-58.5 24.5 -94.5 24.5z" />
    <glyph glyph-name="ogonek" unicode="&#x2db;" 
d="M754 -189v-149.001c-68.667 -23.333 -125 -35 -169 -35c-68 0 -123.833 18.5 -167.5 55.5s-65.5 85.833 -65.5 146.5c0 134.667 86.667 245.334 260 332.001l30 -161c-82 -37.333 -123 -87.333 -123 -150c0 -51.333 32 -77 96 -77c44 0 90.333 12.667 139 38z" />
    <glyph glyph-name="tilde" unicode="&#x2dc;" 
d="M1032 1432c-60 -138 -136.334 -207 -229.001 -207c-40 0 -83.333 12.833 -130 38.5s-80.334 38.5 -101.001 38.5c-47.333 0 -88 -25.667 -122 -77h-91c20 56 50.5 104.5 91.5 145.5s84.167 61.5 129.5 61.5c50.667 0 98.334 -12.833 143.001 -38.5s77.667 -38.5 99 -38.5
c54.667 0 95.334 25.667 122.001 77h88z" />
    <glyph glyph-name="hungarumlaut" unicode="&#x2dd;" 
d="M728 1508l-199 -283h-140l142 283h197zM1098 1508l-199 -283h-140l142 283h197z" />
    <glyph glyph-name="questiongreek" unicode="&#x37e;" horiz-adv-x="752" 
d="M442 1071c40.667 0 75.833 -14.5 105.5 -43.5s44.5 -64.167 44.5 -105.5s-14.5 -77 -43.5 -107s-64.5 -45 -106.5 -45s-77.333 14.833 -106 44.5s-43 65.5 -43 107.5c0 38 14 72.333 42 103s63.667 46 107 46zM136.999 -258c130 88.667 195 168 195 238
c0 23.333 -8.33301 48.333 -25 75c-50.667 32 -76 70.333 -76 115c0 36.667 14.5 66 43.5 88s61.167 33 96.5 33c39.333 0 73 -16 101 -48s42 -69.333 42 -112c0 -88 -23.667 -168 -71 -240s-134.333 -147.667 -261 -227z" />
    <glyph glyph-name="tonos" unicode="&#x384;" horiz-adv-x="1073" 
d="M942 1618l-197 -334h-161l139 334h219z" />
    <glyph glyph-name="dieresistonos" unicode="&#x385;" horiz-adv-x="1073" 
d="M899 1618l-147 -354h-111l84 354h174zM1036 1518c32 0 59.167 -10.668 81.5 -32.001s33.5 -47.666 33.5 -78.999s-11.167 -58.333 -33.5 -81s-49.5 -34 -81.5 -34c-31.333 0 -57.5 11.167 -78.5 33.5s-31.5 49.5 -31.5 81.5s10.5 58.5 31.5 79.5s47.167 31.5 78.5 31.5z
M451 1518c31.333 0 57.833 -10.667 79.5 -32s32.5 -47.666 32.5 -78.999c0 -32 -10.833 -59.167 -32.5 -81.5s-48.167 -33.5 -79.5 -33.5c-32.667 0 -59.667 11.167 -81 33.5s-32 49.5 -32 81.5c0 31.333 10.833 57.666 32.5 78.999s48.5 32 80.5 32z" />
    <glyph glyph-name="Alphatonos" unicode="&#x386;" horiz-adv-x="1251" 
d="M936 0l-45 309h-526l-172 -309h-226l858 1485h54l288 -1485h-231zM778 1081l-334 -624h424zM494 1464l-205 -350h-156l141 350h220z" />
    <glyph glyph-name="anoteleia" unicode="&#x387;" horiz-adv-x="752" 
d="M354 801c42 0 77.833 -14.6689 107.5 -44.002s44.5 -64.666 44.5 -105.999c0 -42 -14.833 -77.667 -44.5 -107s-65.5 -44 -107.5 -44c-40.667 0 -75.667 14.833 -105 44.5s-44 65.167 -44 106.5c0 40.667 14.667 75.834 44 105.501s64.333 44.5 105 44.5z" />
    <glyph glyph-name="Epsilontonos" unicode="&#x388;" horiz-adv-x="1323" 
d="M709 1284l-72 -405h485l-30 -170h-484l-94 -529h664l-31 -180h-875l258 1464h887l-35 -180h-673zM373 1464l-205 -350h-156l142 350h219z" />
    <glyph glyph-name="Etatonos" unicode="&#x389;" horiz-adv-x="1544" 
d="M1118 0l125 709h-641l-125 -709h-205l258 1464h207l-104 -585h639l104 585h205l-260 -1464h-203zM373 1464l-205 -350h-156l142 350h219z" />
    <glyph glyph-name="Iotatonos" unicode="&#x38a;" horiz-adv-x="768" 
d="M274 0l258 1464h205l-260 -1464h-203zM373 1464l-205 -350h-156l142 350h219z" />
    <glyph glyph-name="Omicrontonos" unicode="&#x38c;" horiz-adv-x="1503" 
d="M238 539c0 254.667 67.833 477.001 203.5 667.001s314.167 285 535.5 285c168 0 296.333 -45.833 385 -137.5s133 -224.167 133 -397.5c0 -286 -69.5 -521 -208.5 -705s-330.833 -276 -575.5 -276c-148 0 -263.833 52.167 -347.5 156.5s-125.5 240.166 -125.5 407.499z
M451 565.001c0 -125.333 24.833 -224.832 74.5 -298.499s121.5 -110.5 215.5 -110.5c168 0 300.5 77.167 397.5 231.5s145.5 337.166 145.5 548.499c0 251.333 -107.667 377 -323 377c-96 0 -182.667 -35.833 -260 -107.5s-138.333 -168.667 -183 -291
s-67 -238.833 -67 -349.5zM373 1464l-205 -350h-156l142 350h219z" />
    <glyph glyph-name="Upsilontonos" unicode="&#x38e;" horiz-adv-x="1462" 
d="M1010 655l-117 -655h-201l117 655l-332 809h209l248 -624l463 624h225zM373 1464l-205 -350h-156l142 350h219z" />
    <glyph glyph-name="Omegatonos" unicode="&#x38f;" horiz-adv-x="1554" 
d="M1395 0h-549.003v51c188.667 190 314.334 352.667 377.001 488s94 270.333 94 405c0 120.667 -28.167 213.334 -84.5 278.001s-136.166 97 -239.499 97c-140 0 -259 -61 -357 -183s-147 -280 -147 -474c0 -117.333 16.5 -224 49.5 -320s82.167 -193 147.5 -291v-51h-563
l33 172c121.333 0 214 -3.33301 278 -10c-105.333 163.333 -158 329 -158 497c0 235.333 70.333 434.166 211 596.499s313.667 243.5 519 243.5c164.667 0 293.167 -49.167 385.5 -147.5s138.5 -232.833 138.5 -403.5c0 -153.333 -36.667 -299.833 -110 -439.5
s-161.666 -255.167 -264.999 -346.5c64 6.66699 154.667 10 272 10zM372.997 1464l-205 -350h-156l142 350h219z" />
    <glyph glyph-name="iotadieresistonos" unicode="&#x390;" horiz-adv-x="551" 
d="M492 1071c-78.667 -406 -122 -631.333 -130 -676s-12 -82.667 -12 -114c0 -106 25.333 -199.667 76 -281h-213c-44 72.667 -66 154.667 -66 246c0 51.333 9.33301 124.333 28 219l118 606h199zM598 1618l-147 -354h-111l84 354h174zM735 1518
c32 0 59.167 -10.667 81.5 -32s33.5 -47.666 33.5 -78.999c0 -32 -11.167 -59.167 -33.5 -81.5s-49.5 -33.5 -81.5 -33.5c-31.333 0 -57.5 11.167 -78.5 33.5s-31.5 49.5 -31.5 81.5c0 31.333 10.5 57.666 31.5 78.999s47.167 32 78.5 32zM150 1518
c31.333 0 57.833 -10.667 79.5 -32s32.5 -47.666 32.5 -78.999c0 -32 -10.833 -59.167 -32.5 -81.5s-48.167 -33.5 -79.5 -33.5c-32.667 0 -59.667 11.167 -81 33.5s-32 49.5 -32 81.5c0 31.333 10.833 57.666 32.5 78.999s48.5 32 80.5 32z" />
    <glyph glyph-name="Alpha" unicode="&#x391;" horiz-adv-x="1251" 
d="M936 0l-45 309h-526l-172 -309h-226l858 1485h54l288 -1485h-231zM778 1081l-334 -624h424z" />
    <glyph glyph-name="Beta" unicode="&#x392;" horiz-adv-x="1159" 
d="M86 0l259.999 1464c102.667 15.333 194.334 23 275.001 23c345.333 0 518 -114.667 518 -344c0 -75.333 -27.333 -145.666 -82 -210.999s-119 -102.333 -193 -111c162.667 -30.667 244 -142.667 244 -336c0 -164.667 -57.333 -288.667 -172 -372s-299 -125 -553 -125
c-71.333 0 -170.333 4 -297 12zM523.999 1305l-64.999 -406c57.333 -4 103.666 -6 138.999 -6c224 0 336 85.333 336 256c0 110.667 -86.667 166 -260 166c-25.333 0 -75.333 -3.33301 -150 -10zM424 730.999l-100 -560.999c40.667 -6.66699 80.667 -10 120 -10
c133.333 0 242.833 26.667 328.5 80s128.5 127.666 128.5 222.999c0 184 -116.667 276 -350 276c-44.667 0 -87 -2.66699 -127 -8z" />
    <glyph glyph-name="Gamma" unicode="&#x393;" horiz-adv-x="1055" 
d="M1180 1464l-31 -180h-647l-228 -1284h-206l258 1464h854z" />
    <glyph glyph-name="Delta" unicode="&#x394;" horiz-adv-x="1198" 
d="M25 0l22 124l762 1341h144l244 -1341l-22 -124h-1150zM820 1123l-527 -953h675z" />
    <glyph glyph-name="Epsilon" unicode="&#x395;" horiz-adv-x="1098" 
d="M483 1284l-71 -405h485l-31 -170h-483l-94 -529h663l-30 -180h-875l258 1464h887l-35 -180h-674z" />
    <glyph glyph-name="Zeta" unicode="&#x396;" horiz-adv-x="1126" 
d="M80 0v49l817 1235h-621l31 180h877v-49l-789 -1235h615l-33 -180h-897z" />
    <glyph glyph-name="Eta" unicode="&#x397;" horiz-adv-x="1339" 
d="M913 0l125 709h-641l-125 -709h-204l258 1464h206l-104 -585h639l104 585h205l-260 -1464h-203z" />
    <glyph glyph-name="Theta" unicode="&#x398;" horiz-adv-x="1415" 
d="M115 539c0 160 32.502 315.667 97.502 467s154.833 270 269.5 356s244 129 388 129c171.333 0 303.666 -46.833 396.999 -140.5s140 -225.834 140 -396.501c0 -277.333 -72.167 -509.833 -216.5 -697.5s-339.833 -281.5 -586.5 -281.5
c-154.667 0 -274.834 51.333 -360.501 154s-128.5 239.334 -128.5 410.001zM326.002 565c0 -130.667 25.834 -231.833 77.501 -303.5s127.5 -107.5 227.5 -107.5c171.333 0 308.666 78.5 411.999 235.5s155 339.167 155 546.5c0 123.333 -28.833 217.333 -86.5 282
s-142.167 97 -253.5 97c-151.333 0 -277.833 -79 -379.5 -237s-152.5 -329 -152.5 -513zM1063 840.001l-35 -176h-567l35 176h567z" />
    <glyph glyph-name="Iota" unicode="&#x399;" horiz-adv-x="569" 
d="M76 0l258 1464h205l-260 -1464h-203z" />
    <glyph glyph-name="Kappa" unicode="&#x39a;" horiz-adv-x="1180" 
d="M868 0l-282 674l-244 -277l-72 -397h-200l258 1464h200l-131 -757l666 757h233l-551 -635l355 -829h-232z" />
    <glyph glyph-name="Lambda" unicode="&#x39b;" horiz-adv-x="1204" 
d="M1118 0h-231l-162 1063l-565 -1063h-234l846 1485h53z" />
    <glyph glyph-name="Mu" unicode="&#x39c;" horiz-adv-x="1559" 
d="M1247 0l-20 905l-488 -925h-49l-158 933l-337 -913h-191l522 1464h101l159 -1028l517 1028h104l41 -1464h-201z" />
    <glyph glyph-name="Nu" unicode="&#x39d;" horiz-adv-x="1307" 
d="M1004 -20l-574 1040l-172 -1020h-199l258 1464h80l561 -997l168 997h199l-262 -1484h-59z" />
    <glyph glyph-name="Xi" unicode="&#x39e;" horiz-adv-x="1233" 
d="M1300 1464l-30 -168h-408l-74 -426h308l-29 -159h-307l-94 -541h417l-30 -170h-1033l31 170h418l94 541h-307l29 159h307l74 426h-408l31 168h1011z" />
    <glyph glyph-name="Omicron" unicode="&#x39f;" horiz-adv-x="1380" 
d="M115 539c0 254.667 67.833 477.001 203.5 667.001s314.167 285 535.5 285c168 0 296.333 -45.833 385 -137.5s133 -224.167 133 -397.5c0 -286 -69.5 -521 -208.5 -705s-330.833 -276 -575.5 -276c-148 0 -263.833 52.167 -347.5 156.5s-125.5 240.166 -125.5 407.499z
M328 565.001c0 -124.667 24.833 -223.999 74.5 -297.999s121.5 -111 215.5 -111c168 0 300.5 77.167 397.5 231.5s145.5 337.166 145.5 548.499c0 251.333 -107.667 377 -323 377c-96 0 -182.667 -35.833 -260 -107.5s-138.333 -168.667 -183 -291s-67 -238.833 -67 -349.5z
" />
    <glyph glyph-name="Pi" unicode="&#x3a0;" horiz-adv-x="1303" 
d="M1339 1464l-258 -1464h-204l227 1284h-604l-228 -1284h-204l258 1464h1013z" />
    <glyph glyph-name="Rho" unicode="&#x3a1;" horiz-adv-x="1112" 
d="M362 563l-100 -563h-209l269 1464c116.667 14 214 21 292 21c368.667 0 553 -142 553 -426c0 -161.333 -55.5 -288 -166.5 -380s-257.5 -138 -439.5 -138c-66 0 -132.333 7.33301 -199 22zM489 1284l-96 -541c35.333 -17.333 89.333 -26 162 -26c122 0 219 28 291 84
s108 135 108 237c0 180.667 -96.667 271 -290 271c-54.667 0 -113 -8.33301 -175 -25z" />
    <glyph glyph-name="Sigma" unicode="&#x3a3;" horiz-adv-x="1110" 
d="M1208 1464l-30 -180h-623l297 -506l-535 -598h670l-33 -180h-991v49l660 731l-371 637v47h956z" />
    <glyph glyph-name="Tau" unicode="&#x3a4;" horiz-adv-x="1190" 
d="M827 1284l-225 -1284h-205l226 1284h-465l30 180h1153l-30 -180h-484z" />
    <glyph glyph-name="Upsilon" unicode="&#x3a5;" horiz-adv-x="1167" 
d="M715 655l-117 -655h-201l117 655l-332 809h209l248 -624l463 624h225z" />
    <glyph glyph-name="Phi" unicode="&#x3a6;" horiz-adv-x="1569" 
d="M1044 1374c161.333 -10.667 286.666 -61.3311 375.999 -151.998s134 -209.334 134 -356.001c0 -186.667 -65.167 -355.834 -195.5 -507.501s-310.166 -233.5 -539.499 -245.5l-26 -150h-199l27 150c-160 10 -285.333 62 -376 156s-136 214.667 -136 362
c0 124 30.833 242.833 92.5 356.5s148.5 205 260.5 274s240 106.5 384 112.5l26 150h199zM819 1221c-162.667 -8.66699 -288 -72.332 -376 -190.999s-132 -251.667 -132 -399c0 -106.667 29.333 -192.334 88 -257.001s142.667 -100 252 -106zM846 266.005
c158.667 8.66699 282.667 74.001 372 196.001s134 256 134 402c0 221.333 -112.667 339.666 -338 354.999z" />
    <glyph glyph-name="Chi" unicode="&#x3a7;" horiz-adv-x="1141" 
d="M817 0l-244 565l-415 -565h-232l566 770l-273 696l207 -2l201 -534l417 534h232l-567 -719l333 -745h-225z" />
    <glyph glyph-name="Psi" unicode="&#x3a8;" horiz-adv-x="1554" 
d="M1630 1464l-95.999 -551.999c-20 -114.667 -59 -211.334 -117 -290.001s-134.167 -140.834 -228.5 -186.501s-203.833 -73.5 -328.5 -83.5l-63 -356h-203l63 354c-156 16 -276.833 62.667 -362.5 140s-128.5 178.333 -128.5 303c0 32.667 4 71.334 12 116.001l98 555h203
l-73 -409c-20.667 -114 -31.667 -178.333 -33 -193s-2 -31 -2 -49c0 -183.333 105.667 -283 317 -299l168 950h199l-168 -950c117.333 8.66699 215.666 48.667 294.999 120s129 165 149 281l96 549h203z" />
    <glyph glyph-name="Omega" unicode="&#x3a9;" horiz-adv-x="1370" 
d="M1236 1l-510 -0.996094l27 152c152.667 119.333 261.334 239.833 326.001 361.5s97 260.167 97 415.5c0 254.667 -111.333 382 -334 382c-147.333 0 -266.333 -65.5 -357 -196.5s-136 -284.167 -136 -459.5c0 -98.667 17.667 -196.834 53 -294.501
s82 -167.834 140 -210.501l-26 -150l-500 1l26 149h268c-54.667 49.333 -97.834 120.5 -129.501 213.5s-47.5 188.833 -47.5 287.5c0 237.333 68 436.666 204 597.999s315 242 537 242c342 0 513 -180.333 513 -541c0 -171.333 -36 -327.333 -108 -468
s-174 -251.334 -306 -332.001h289z" />
    <glyph glyph-name="Iotadieresis" unicode="&#x3aa;" horiz-adv-x="569" 
d="M76 0l258 1464h205l-260 -1464h-203zM692 1812c32 0 59.167 -10.833 81.5 -32.5s33.5 -48.167 33.5 -79.5c0 -32 -11.167 -58.833 -33.5 -80.5s-49.5 -32.5 -81.5 -32.5c-31.333 0 -57.5 10.833 -78.5 32.5s-31.5 48.5 -31.5 80.5s10.5 58.667 31.5 80s47.167 32 78.5 32
zM219 1812c32 0 58.833 -10.833 80.5 -32.5s32.5 -48.167 32.5 -79.5c0 -32 -10.833 -58.833 -32.5 -80.5s-48.5 -32.5 -80.5 -32.5c-31.333 0 -58 10.833 -80 32.5s-33 48.5 -33 80.5c0 31.333 11 57.833 33 79.5s48.667 32.5 80 32.5z" />
    <glyph glyph-name="Upsilondieresis" unicode="&#x3ab;" horiz-adv-x="1167" 
d="M715 655l-117 -655h-201l117 655l-332 809h209l248 -624l463 624h225zM1004 1812c31.333 0 58.167 -10.833 80.5 -32.5s33.5 -48.167 33.5 -79.5c0 -32.667 -11 -59.667 -33 -81s-49 -32 -81 -32s-58.5 10.833 -79.5 32.5s-31.5 48.5 -31.5 80.5s10.5 58.667 31.5 80
s47.5 32 79.5 32zM530.001 1812c32 0 58.833 -10.833 80.5 -32.5s32.5 -48.167 32.5 -79.5c0 -32 -10.833 -58.833 -32.5 -80.5s-48.5 -32.5 -80.5 -32.5c-31.333 0 -57.833 10.833 -79.5 32.5s-32.5 48.5 -32.5 80.5c0 31.333 10.833 57.833 32.5 79.5
s48.167 32.5 79.5 32.5z" />
    <glyph glyph-name="alphatonos" unicode="&#x3ac;" horiz-adv-x="1120" 
d="M1090 1004l-131 -619.999c-8.66699 -40.667 -13 -79.334 -13 -116.001c0 -86.667 20.667 -176 62 -268h-195c-25.333 41.333 -42.333 88.333 -51 141c-89.333 -107.333 -199.333 -161 -330 -161c-98 0 -178.167 30.333 -240.5 91s-93.5 151 -93.5 271
c0 200 59.333 375.333 178 526s267 226 445 226c164 0 287 -30 369 -90zM879 893.001c-20.667 30 -81 45 -181 45c-104.667 0 -197.334 -56.167 -278.001 -168.5s-121 -252.833 -121 -421.5c0 -139.333 60.667 -209 182 -209c54.667 0 105.834 14.5 153.501 43.5
s80 58.5 97 88.5s33.833 85 50.5 165zM1008 1618l-197 -334h-162l139 334h220z" />
    <glyph glyph-name="epsilontonos" unicode="&#x3ad;" horiz-adv-x="952" 
d="M956 1010l-75.002 -153.998c-85.333 54.667 -175.666 82 -270.999 82c-69.333 0 -123.166 -16.333 -161.499 -49s-57.5 -75 -57.5 -127c0 -86 61.333 -129 184 -129c54 0 102 1.33301 144 4l-27 -154c-34.667 4 -82.334 6 -143.001 6c-82 0 -148 -21.5 -198 -64.5
s-75 -95.833 -75 -158.5c0 -88.667 62.333 -133 187 -133c104.667 0 210.334 40.333 317.001 121l82 -154c-128 -80 -270 -120 -426 -120c-112 0 -200.333 23.167 -265 69.5s-97 112.5 -97 198.5c0 80.667 28.833 148 86.5 202s123.5 91.667 197.5 113
c-54.667 11.333 -96.667 34.666 -126 69.999s-44 78.333 -44 129c0 83.333 40.167 159.166 120.5 227.499s186.5 102.5 318.5 102.5s241.667 -27.333 329 -82zM923.998 1618l-197 -334h-162l140 334h219z" />
    <glyph glyph-name="etatonos" unicode="&#x3ae;" horiz-adv-x="1133" 
d="M674 -328l172 951.001c9.33301 54.667 14 101 14 139c0 113.333 -58.667 170 -176 170c-36 0 -74.167 -9 -114.5 -27s-75.333 -38.833 -105 -62.5s-45.167 -38.834 -46.5 -45.501l-139 -797h-193l143 811c4.66699 20.667 7 44.667 7 72c0 58.667 -7 116 -21 172l182 37
c18 -94.667 27 -148 27 -160c81.333 106.667 198 160 350 160c192.667 0 289 -97 289 -291c0 -38 -4.66699 -83.667 -14 -137l-168 -940zM1018 1618l-197 -334h-162l140 334h219z" />
    <glyph glyph-name="iotatonos" unicode="&#x3af;" horiz-adv-x="551" 
d="M492 1071c-78.667 -406 -122 -631.333 -130 -676s-12 -82.667 -12 -114c0 -106 25.333 -199.667 76 -281h-213c-44 72.667 -66 154.667 -66 246c0 51.333 9.33301 124.333 28 219l118 606h199zM674 1618l-197 -334h-162l140 334h219z" />
    <glyph glyph-name="upsilondieresistonos" unicode="&#x3b0;" horiz-adv-x="1126" 
d="M1092 1071c2.66699 -22 4 -65.0059 4 -129.006c0 -132 -19 -275.333 -57 -430s-105.167 -281.667 -201.5 -381s-213.833 -149 -352.5 -149c-114 0 -202.167 30 -264.5 90s-93.5 146 -93.5 258c0 48.667 9.66699 117.334 29 206.001l114 535h199l-97 -450
c-26 -121.333 -40.167 -194.166 -42.5 -218.499s-3.5 -47.166 -3.5 -68.499c0 -131.333 62 -197 186 -197c82 0 154.167 40.333 216.5 121s106 194.334 131 341.001s37.5 264.334 37.5 353.001c0 60.667 -0.666992 100.334 -2 119.001h197zM864 1617.99l-147 -354h-111
l84 354h174zM1001 1517.99c32 0 59.167 -10.667 81.5 -32s33.5 -47.666 33.5 -78.999c0 -32 -11.167 -59.167 -33.5 -81.5s-49.5 -33.5 -81.5 -33.5c-30.667 0 -56.667 11.167 -78 33.5s-32 49.5 -32 81.5c0 31.333 10.5 57.666 31.5 78.999s47.167 32 78.5 32zM416 1517.99
c31.333 0 57.833 -10.667 79.5 -32s32.5 -47.666 32.5 -78.999c0 -32 -10.833 -59.167 -32.5 -81.5s-48.167 -33.5 -79.5 -33.5c-32 0 -58.833 11.167 -80.5 33.5s-32.5 49.5 -32.5 81.5c0 31.333 10.833 57.666 32.5 78.999s48.5 32 80.5 32z" />
    <glyph glyph-name="alpha" unicode="&#x3b1;" horiz-adv-x="1120" 
d="M1090 1004l-131 -619.999c-8.66699 -40.667 -13 -79.334 -13 -116.001c0 -86.667 20.667 -176 62 -268h-195c-25.333 41.333 -42.333 88.333 -51 141c-44.667 -54 -94.5 -94.333 -149.5 -121s-115.167 -40 -180.5 -40c-98 0 -178.167 30.333 -240.5 91
s-93.5 151 -93.5 271c0 200 59.333 375.333 178 526s267 226 445 226c164 0 287 -30 369 -90zM879 893.001c-20.667 30 -81 45 -181 45c-104.667 0 -197.334 -56.167 -278.001 -168.5s-121 -252.833 -121 -421.5c0 -139.333 60.667 -209 182 -209
c54.667 0 105.834 14.5 153.501 43.5s80 58.5 97 88.5s33.833 85 50.5 165z" />
    <glyph glyph-name="beta" unicode="&#x3b2;" horiz-adv-x="1155" 
d="M803 852c94 -19.333 167.332 -60.333 219.999 -123s79 -136.334 79 -221.001c0 -92 -22.833 -178.5 -68.5 -259.5s-114.667 -146 -207 -195s-200.5 -73.5 -324.5 -73.5c-64 0 -134.167 9.33301 -210.5 28s-127.666 35.667 -153.999 51s-39.5 31 -39.5 47
c0 8 0.666992 15.667 2 23l164 913c26.667 146.667 83.834 262.334 171.501 347.001s197.167 127 328.5 127c102 0 185.5 -27.5 250.5 -82.5s97.5 -125.833 97.5 -212.5c0 -87.333 -30.333 -164 -91 -230s-133.334 -112.333 -218.001 -139zM431.999 915h134.999
c101.333 0 184.333 28.667 249 86s97 123.666 97 198.999c0 50 -14.333 89.833 -43 119.5s-68.667 44.5 -120 44.5c-44 0 -84.667 -10.333 -122 -31s-69.666 -50.667 -96.999 -90s-46 -77.166 -56 -113.499s-24.333 -107.833 -43 -214.5zM306.998 211
c10.667 -22 36.833 -40.5 78.5 -55.5s86.5 -22.5 134.5 -22.5c119.333 0 212.333 38 279 114s100 161 100 255c0 83.333 -28 148.5 -84 195.5s-136.667 70.5 -242 70.5h-167z" />
    <glyph glyph-name="gamma" unicode="&#x3b3;" horiz-adv-x="1077" 
d="M1167 1071c-168.667 -402 -368.667 -750.001 -600 -1044c-9.33301 -90 -19.166 -154.667 -29.499 -194s-28.166 -77.833 -53.499 -115.5s-59 -69 -101 -94s-93.333 -41.5 -154 -49.5l-36 158c78 10 129.833 46 155.5 108s38.5 155 38.5 279
c0 78 -5.66699 164.667 -17 260s-30.333 189.5 -57 282.5s-53.834 159.167 -81.501 198.5s-73.5 59.333 -137.5 60l37 157c69.333 0 120 -4.66699 152 -14s62.833 -29.166 92.5 -59.499s56.167 -76.833 79.5 -139.5s46.166 -150.667 68.499 -264s34.833 -221.333 37.5 -324
c188.667 316 319.667 581 393 795h213z" />
    <glyph glyph-name="delta" unicode="&#x3b4;" horiz-adv-x="1120" 
d="M1188 1509l-27 -153.001h-395c41.333 -43.333 104.833 -132.166 190.5 -266.499s128.5 -270.166 128.5 -407.499c0 -188.667 -54 -352.834 -162 -492.501s-251.667 -209.5 -431 -209.5c-130 0 -229.833 37.167 -299.5 111.5s-104.5 177.5 -104.5 309.5
c0 118 25 231.333 75 340s117.667 192.5 203 251.5s176.333 88.5 273 88.5c48 0 84.333 -3.33301 109 -10l-244 385v53h684zM887 681.999c0 102.667 -22.001 184.667 -66.001 246c-36.667 12 -79 18 -127 18c-125.333 0 -224.5 -53.5 -297.5 -160.5
s-109.5 -237.833 -109.5 -392.5c0 -172 75 -258 225 -258c118.667 0 210.834 60.167 276.501 180.5s98.5 242.5 98.5 366.5z" />
    <glyph glyph-name="epsilon" unicode="&#x3b5;" horiz-adv-x="952" 
d="M956 1010l-75.002 -153.998c-85.333 54.667 -175.666 82 -270.999 82c-69.333 0 -123.166 -16.333 -161.499 -49s-57.5 -75 -57.5 -127c0 -86 61.333 -129 184 -129c54 0 102 1.33301 144 4l-27 -154c-34.667 4 -82.334 6 -143.001 6c-82 0 -148 -21.5 -198 -64.5
s-75 -95.833 -75 -158.5c0 -88.667 62.333 -133 187 -133c104.667 0 210.334 40.333 317.001 121l82 -154c-128 -80 -270 -120 -426 -120c-112 0 -200.333 23.167 -265 69.5s-97 112.5 -97 198.5c0 145.333 94.667 250.333 284 315
c-54.667 11.333 -96.667 34.666 -126 69.999s-44 78.333 -44 129c0 83.333 40.167 159.166 120.5 227.499s186.5 102.5 318.5 102.5s241.667 -27.333 329 -82z" />
    <glyph glyph-name="zeta" unicode="&#x3b6;" horiz-adv-x="903" 
d="M1083 1456c-279.333 -275.333 -480.503 -500.168 -603.503 -674.501s-184.5 -322.166 -184.5 -443.499c0 -59.333 14 -103 42 -131s81 -44.333 159 -49c136 -9.33301 228 -36.333 276 -81s72 -98.334 72 -161.001c0 -90.667 -34 -169.334 -102 -236.001
s-159 -100 -273 -100c-51.333 0 -95.666 4.66699 -132.999 14l41 158c41.333 -14.667 80.333 -22 117 -22c50 0 89.333 13.833 118 41.5s43 62.834 43 105.501c0 46 -20.667 77.333 -62 94s-101.666 25 -180.999 25c-104.667 0 -186.167 27 -244.5 81
s-87.5 130.667 -87.5 230c0 180 75.833 365.333 227.5 556s305.834 354.334 462.501 491.001h-381l31 155h663v-53z" />
    <glyph glyph-name="eta" unicode="&#x3b7;" horiz-adv-x="1133" 
d="M674 -328l172 951.001c9.33301 54.667 14 101 14 139c0 113.333 -58.667 170 -176 170c-36 0 -74.167 -9 -114.5 -27s-75.333 -38.833 -105 -62.5s-45.167 -38.834 -46.5 -45.501l-139 -797h-193l143 811c4.66699 20.667 7 44.667 7 72c0 58.667 -7 116 -21 172l182 37
c18 -94.667 27 -148 27 -160c81.333 106.667 198 160 350 160c192.667 0 289 -97 289 -291c0 -38 -4.66699 -83.667 -14 -137l-168 -940z" />
    <glyph glyph-name="theta" unicode="&#x3b8;" horiz-adv-x="1159" 
d="M784 1513c118 0 208.335 -41.666 271.002 -124.999s94 -205.333 94 -366c0 -142.667 -26.333 -303.834 -79 -483.501s-126.334 -317.667 -221.001 -414s-205.667 -144.5 -333 -144.5c-120.667 0 -212.334 41.333 -275.001 124s-94 205 -94 367
c0 142.667 26.833 304 80.5 484s128.667 318 225 414s206.833 144 331.5 144zM944.002 854.001c11.333 80.667 16.999 147.001 16.999 199.001c0 109.333 -16.5 188.166 -49.5 236.499s-82.167 72.5 -147.5 72.5c-167.333 0 -291.666 -169.333 -372.999 -508h553z
M920.001 702.002h-558c-16 -104.667 -24 -192 -24 -262c0 -204.667 65.667 -307 197 -307c178 0 306.333 189.667 385 569z" />
    <glyph glyph-name="iota" unicode="&#x3b9;" horiz-adv-x="551" 
d="M492 1071c-78.667 -406 -122 -631.333 -130 -676s-12 -82.667 -12 -114c0 -106 25.333 -199.667 76 -281h-213c-44 72.667 -66 154.667 -66 246c0 51.333 9.33301 124.333 28 219l118 606h199z" />
    <glyph glyph-name="kappa" unicode="&#x3ba;" horiz-adv-x="1100" 
d="M524 477l-198 -166l-56 -311h-190l188 1071h191l-92 -526c334 288.667 531 473 591 553l125 -123c-100 -115.333 -237.667 -244.333 -413 -387l342 -588h-230z" />
    <glyph glyph-name="lambda" unicode="&#x3bb;" horiz-adv-x="1081" 
d="M993 0l-207.001 0.000976562l-112 858l-494 -858h-225l668 1096c-14 114 -33.667 185.5 -59 214.5s-62.333 43.5 -111 43.5c-32 0 -76.667 -11.667 -134 -35l-47 160c76 24.667 150 37 222 37c89.333 0 158.833 -24.333 208.5 -73s83.834 -132.334 102.501 -251.001z" />
    <glyph glyph-name="mu" unicode="&#x3bc;" horiz-adv-x="1140" 
d="M230 18l-76.999 -438h-190l262 1491h190l-109 -623c-7.33301 -42 -11 -77.667 -11 -107c0 -130 64 -195 192 -195c77.333 0 139.5 21.333 186.5 64s72.167 71 75.5 85l136 776h190l-188 -1071h-190l26 148c-32.667 -52 -77.834 -93 -135.501 -123
s-118.167 -45 -181.5 -45c-72 0 -130.667 12.667 -176 38z" />
    <glyph glyph-name="nu" unicode="&#x3bd;" horiz-adv-x="1026" 
d="M1112 1071c-140.667 -356 -357 -719.667 -649 -1091h-51l-306 1091h211l187 -774c174 265.333 305 523.333 393 774h215z" />
    <glyph glyph-name="xi" unicode="&#x3be;" horiz-adv-x="930" 
d="M1071 1456l-72.001 -159.996c-68 42.667 -147 64 -237 64c-82.667 0 -150.834 -24.5 -204.501 -73.5s-80.5 -109.833 -80.5 -182.5c0 -64 24.5 -112.833 73.5 -146.5s119.5 -50.5 211.5 -50.5h145l-30 -157h-152c-116 0 -218 -43.833 -306 -131.5
s-132 -180.5 -132 -278.5c0 -59.333 14.333 -103 43 -131s84 -45 166 -51c136 -9.33301 228 -36.333 276 -81s72 -98.334 72 -161.001c0 -90.667 -34 -169.334 -102 -236.001s-159 -100 -273 -100c-51.333 0 -95.666 4.66699 -132.999 14l41 158
c41.333 -14.667 80.333 -22 117 -22c50 0 89.333 13.833 118 41.5s43 62.834 43 105.501c0 46 -20.667 77.333 -62 94s-101.666 25 -180.999 25c-108 0 -191.667 27.833 -251 83.5s-89 134.167 -89 235.5c0 109.333 37.167 209.166 111.5 299.499
s177.833 161.166 310.5 212.499c-70.667 13.333 -125.667 43.5 -165 90.5s-59 104.5 -59 172.5c0 113.333 46.333 212.666 139 297.999s215.667 128 369 128c103.333 0 201 -20 293 -60z" />
    <glyph glyph-name="omicron" unicode="&#x3bf;" horiz-adv-x="1114" 
d="M88 393c0 193.333 56.332 358.167 168.999 494.5s254.334 204.5 425.001 204.5c128.667 0 227.667 -35 297 -105s104 -170.333 104 -301c0 -189.333 -54.167 -354.333 -162.5 -495s-253.5 -211 -435.5 -211c-127.333 0 -225.333 35.667 -294 107s-103 173.333 -103 306z
M286.999 406.001c0 -180.667 75.666 -271.001 226.999 -271.001c112.667 0 202.334 55.833 269.001 167.5s100 236.834 100 375.501c0 172 -76 258 -228 258c-111.333 0 -200.5 -54.5 -267.5 -163.5s-100.5 -231.167 -100.5 -366.5z" />
    <glyph glyph-name="pi" unicode="&#x3c0;" horiz-adv-x="1232" 
d="M1150 162l-21 -161c-46.667 -14.667 -90.667 -22 -132 -22c-156 0 -234 71.667 -234 215c0 43.333 2 78 6 104l99 613h-337l-160 -911h-193l160 911h-167l28 160h1048l-28 -160h-158l-101 -604c-5.33301 -32 -8 -58 -8 -78c0 -66 35.333 -99 106 -99
c29.333 0 60 10.667 92 32z" />
    <glyph glyph-name="rho" unicode="&#x3c1;" horiz-adv-x="1182" 
d="M2 -420l152 864c45.333 250.667 119.666 421.334 222.999 512.001s221.333 136 354 136c129.333 0 230 -39.333 302 -118s108 -185 108 -319c0 -188.667 -54.333 -348.334 -163 -479.001s-249 -196 -421 -196c-117.333 0 -208.666 29.333 -273.999 88l-86 -488h-195z
M311 217c60 -53.333 134.667 -80.001 224 -80.001c132.667 0 233.667 52.5 303 157.5s104 229.5 104 373.5c0 85.333 -19.5 151.333 -58.5 198s-93.833 70 -164.5 70c-46 0 -88.5 -10.833 -127.5 -32.5s-74.5 -53.167 -106.5 -94.5s-58.167 -90.166 -78.5 -146.499
s-37.5 -123.833 -51.5 -202.5z" />
    <glyph glyph-name="sigma1" unicode="&#x3c2;" horiz-adv-x="967" 
d="M1028 1004l-78.0029 -158.001c-70.667 57.333 -149 86 -235 86c-118 0 -215.833 -50 -293.5 -150s-116.5 -212.667 -116.5 -338c0 -156 91.667 -247.333 275 -274c188 -28.667 282 -114 282 -256c0 -56.667 -14.667 -110.667 -44 -162s-72.166 -92.833 -128.499 -124.5
s-123.166 -47.5 -200.499 -47.5c-46 0 -87.333 4.66699 -124 14l38 158c42 -14.667 80.333 -22 115 -22c50 0 88.833 14.333 116.5 43s41.5 64.667 41.5 108c0 76.667 -58.167 119.834 -174.5 129.501s-212.666 48.667 -288.999 117s-114.5 165.833 -114.5 292.5
c0 166 56.667 319.5 170 460.5s267 211.5 461 211.5c119.333 0 219 -29.333 299 -88z" />
    <glyph glyph-name="sigma" unicode="&#x3c3;" horiz-adv-x="1178" 
d="M1253 1071l-28 -157.999h-312c112 -101.333 168 -219.333 168 -354c0 -154.667 -54.333 -289.834 -163 -405.501s-248 -173.5 -418 -173.5c-125.333 0 -224.333 38.167 -297 114.5s-109 177.833 -109 304.5c0 121.333 30.833 237.5 92.5 348.5s142.167 192.667 241.5 245
s217.333 78.5 354 78.5h471zM883 557.001c0 154.667 -54.001 273.334 -162.001 356.001c-139.333 -4.66699 -245.833 -56.834 -319.5 -156.501s-110.5 -213.167 -110.5 -340.5c0 -85.333 20.167 -153.5 60.5 -204.5s96.5 -76.5 168.5 -76.5
c104.667 0 191.334 43.167 260.001 129.5s103 183.833 103 292.5z" />
    <glyph glyph-name="tau" unicode="&#x3c4;" horiz-adv-x="885" 
d="M961 1071l-29 -160h-320c-87.333 -403.333 -131 -622.333 -131 -657c0 -79.333 36.333 -119 109 -119c46.667 0 95.667 11.667 147 35l-6 -166c-46 -16 -100.667 -24 -164 -24c-192 0 -288 83 -288 249c0 34.667 6.33301 82.667 19 144l116 538h-289l29 160h807z" />
    <glyph glyph-name="upsilon" unicode="&#x3c5;" horiz-adv-x="1126" 
d="M1092 1071c2.66699 -22 4 -65.0059 4 -129.006c0 -132 -19 -275.333 -57 -430s-105.167 -281.667 -201.5 -381s-213.833 -149 -352.5 -149c-114 0 -202.167 30 -264.5 90s-93.5 146 -93.5 258c0 48.667 9.66699 117.334 29 206.001l114 535h199l-97 -450
c-26 -121.333 -40.167 -194.166 -42.5 -218.499s-3.5 -47.166 -3.5 -68.499c0 -131.333 62 -197 186 -197c82 0 154.167 40.333 216.5 121s106 194.334 131 341.001s37.5 264.334 37.5 353.001c0 60.667 -0.666992 100.334 -2 119.001h197z" />
    <glyph glyph-name="phi" unicode="&#x3c6;" horiz-adv-x="1436" 
d="M578 133l83 463c22 120.667 41 203.667 57 249s40 87.833 72 127.5s71.167 69.834 117.5 90.501s96.833 31 151.5 31c102 0 184.5 -37.167 247.5 -111.5s94.5 -179.166 94.5 -314.499c0 -190 -59 -348.667 -177 -476s-279 -197.333 -483 -210l-69 -402h-193l70 402
c-148 5.33301 -260.5 45.666 -337.5 120.999s-115.5 177 -115.5 305c0 130 36.167 255.167 108.5 375.5s173.5 223.166 303.5 308.499l92 -129c-92 -64 -166.833 -146.333 -224.5 -247s-86.5 -202 -86.5 -304c0 -170 96.333 -263 289 -279zM766 131
c140 13.333 248.667 68.168 326 164.501s116 223.166 116 380.499c0 82.667 -13.833 147.667 -41.5 195s-68.5 71 -122.5 71c-46 0 -83.333 -19.333 -112 -58s-49.667 -97 -63 -175z" />
    <glyph glyph-name="chi" unicode="&#x3c7;" horiz-adv-x="1053" 
d="M731 0l-192 414l-314 -414h-243l471 557l-265 514h222l176 -377l291 377h233l-442 -522l288 -549h-225z" />
    <glyph glyph-name="psi" unicode="&#x3c8;" horiz-adv-x="1516" 
d="M1497 1071l-103.002 -573.002c-17.333 -97.333 -44.5 -177.833 -81.5 -241.5s-83 -115.167 -138 -154.5s-117.833 -68.833 -188.5 -88.5s-136.667 -30.167 -198 -31.5l-69 -402h-193l70 402c-142 14 -250.833 55.667 -326.5 125s-113.5 160 -113.5 272
c0 36.667 3.66699 76.334 11 119.001l105 573h193l-78 -431c-22 -122 -33.667 -190.5 -35 -205.5s-2 -30.833 -2 -47.5c0 -151.333 91.667 -236 275 -254l166 938h188l-166 -940c104.667 10.667 190.834 44.834 258.501 102.501s110.834 141.167 129.501 250.5l102 587h194z
" />
    <glyph glyph-name="omega" unicode="&#x3c9;" horiz-adv-x="1561" 
d="M1305 1102c138.667 -121.333 208 -287.997 208 -499.997c0 -108 -20.5 -211.167 -61.5 -309.5s-99 -175 -174 -230s-160.167 -82.5 -255.5 -82.5c-136.667 0 -224 66 -262 198c-78 -132 -186.667 -198 -326 -198c-106 0 -188.167 33 -246.5 99s-87.5 156.333 -87.5 271
c0 149.333 37.5 289.666 112.5 420.999s176.167 241.666 303.5 330.999l119 -127c-110 -80 -194.5 -174 -253.5 -282s-88.5 -221.667 -88.5 -341c0 -144.667 54 -217 162 -217c30 0 58.667 7.16699 86 21.5s53.666 36.833 78.999 67.5c42.667 50 67 90.333 73 121l32 159
c20.667 98.667 34.334 186.667 41.001 264h197c-10 -37.333 -19.5 -75.5 -28.5 -114.5s-18.833 -87.833 -29.5 -146.5l-35 -188c0 -24.667 12.833 -61.5 38.5 -110.5s69.5 -73.5 131.5 -73.5c78 0 144.333 44.667 199 134s82 199 82 329c0 159.333 -52 289.666 -156 390.999
z" />
    <glyph glyph-name="iotadieresis" unicode="&#x3ca;" horiz-adv-x="551" 
d="M492 1071c-78.667 -406 -122 -631.333 -130 -676s-12 -82.667 -12 -114c0 -106 25.333 -199.667 76 -281h-213c-44 72.667 -66 154.667 -66 246c0 51.333 9.33301 124.333 28 219l118 606h199zM668 1518c31.333 0 57.833 -10.667 79.5 -32s32.5 -47.666 32.5 -78.999
c0 -32 -10.667 -59.167 -32 -81.5s-48 -33.5 -80 -33.5c-31.333 0 -58 11.167 -80 33.5s-33 49.5 -33 81.5c0 31.333 10.833 57.666 32.5 78.999s48.5 32 80.5 32zM195 1518c31.333 0 57.833 -10.667 79.5 -32s32.5 -47.666 32.5 -78.999c0 -32 -10.833 -59.167 -32.5 -81.5
s-48.167 -33.5 -79.5 -33.5c-32.667 0 -59.667 11.167 -81 33.5s-32 49.5 -32 81.5c0 31.333 10.833 57.666 32.5 78.999s48.5 32 80.5 32z" />
    <glyph glyph-name="upsilondieresis" unicode="&#x3cb;" horiz-adv-x="1126" 
d="M1092 1071c2.66699 -22 4 -65.0059 4 -129.006c0 -132 -19 -275.333 -57 -430s-105.167 -281.667 -201.5 -381s-213.833 -149 -352.5 -149c-114 0 -202.167 30 -264.5 90s-93.5 146 -93.5 258c0 48.667 9.66699 117.334 29 206.001l114 535h199l-97 -450
c-26 -121.333 -40.167 -194.166 -42.5 -218.499s-3.5 -47.166 -3.5 -68.499c0 -131.333 62 -197 186 -197c82 0 154.167 40.333 216.5 121s106 194.334 131 341.001s37.5 264.334 37.5 353.001c0 60.667 -0.666992 100.334 -2 119.001h197zM940 1517.99
c32 0 58.833 -10.667 80.5 -32s32.5 -47.666 32.5 -78.999c0 -32 -10.833 -59.167 -32.5 -81.5s-48.5 -33.5 -80.5 -33.5c-31.333 0 -58 11.167 -80 33.5s-33 49.5 -33 81.5c0 31.333 10.833 57.666 32.5 78.999s48.5 32 80.5 32zM467 1517.99c32 0 58.833 -10.667 80.5 -32
s32.5 -47.666 32.5 -78.999c0 -32 -11 -59.167 -33 -81.5s-48.667 -33.5 -80 -33.5c-32 0 -58.833 11.167 -80.5 33.5s-32.5 49.5 -32.5 81.5c0 31.333 10.833 57.666 32.5 78.999s48.5 32 80.5 32z" />
    <glyph glyph-name="omicrontonos" unicode="&#x3cc;" horiz-adv-x="1114" 
d="M88 393c0 193.333 56.332 358.167 168.999 494.5s254.334 204.5 425.001 204.5c128.667 0 227.667 -35 297 -105s104 -170.333 104 -301c0 -189.333 -54.167 -354.333 -162.5 -495s-253.5 -211 -435.5 -211c-127.333 0 -225.333 35.667 -294 107s-103 173.333 -103 306z
M286.999 406.001c0 -180.667 75.666 -271.001 226.999 -271.001c112.667 0 202.334 55.833 269.001 167.5s100 236.834 100 375.501c0 172 -76 258 -228 258c-111.333 0 -200.5 -54.5 -267.5 -163.5s-100.5 -231.167 -100.5 -366.5zM986.998 1618l-196 -334h-162l139 334
h219z" />
    <glyph glyph-name="upsilontonos" unicode="&#x3cd;" horiz-adv-x="1126" 
d="M1092 1071c2.66699 -22 4 -65.0059 4 -129.006c0 -132 -19 -275.333 -57 -430s-105.167 -281.667 -201.5 -381s-213.833 -149 -352.5 -149c-114 0 -202.167 30 -264.5 90s-93.5 146 -93.5 258c0 48.667 9.66699 117.334 29 206.001l114 535h199l-97 -450
c-26 -121.333 -40.167 -194.166 -42.5 -218.499s-3.5 -47.166 -3.5 -68.499c0 -131.333 62 -197 186 -197c82 0 154.167 40.333 216.5 121s106 194.334 131 341.001s37.5 264.334 37.5 353.001c0 60.667 -0.666992 100.334 -2 119.001h197zM958 1617.99l-196 -334h-162
l139 334h219z" />
    <glyph glyph-name="omegatonos" unicode="&#x3ce;" horiz-adv-x="1561" 
d="M1305 1102c138.667 -121.333 208.001 -287.997 208.001 -499.997c0 -108 -20.5 -211.167 -61.5 -309.5s-99 -175 -174 -230s-160.167 -82.5 -255.5 -82.5c-136.667 0 -224 66 -262 198c-78.667 -132 -187.334 -198 -326.001 -198c-106 0 -188.167 33 -246.5 99
s-87.5 156.333 -87.5 271c0 149.333 37.5 289.666 112.5 420.999s176.167 241.666 303.5 330.999l119 -127c-110 -80 -194.5 -174 -253.5 -282s-88.5 -221.667 -88.5 -341c0 -144.667 54 -217 162 -217c30 0 58.667 7.16699 86 21.5s53.666 36.833 78.999 67.5
c42.667 50 67 90.333 73 121l32 159c20.667 98.667 34.334 186.667 41.001 264h197c-10 -37.333 -19.5 -75.5 -28.5 -114.5s-18.833 -87.833 -29.5 -146.5l-35 -188c0 -24.667 12.833 -61.5 38.5 -110.5s69.5 -73.5 131.5 -73.5c78 0 144.333 44.667 199 134s82 199 82 329
c0 159.333 -52 289.666 -156 390.999zM1192 1618l-197 -334h-164l140 334h221z" />
    <glyph glyph-name="afii10023" unicode="&#x401;" horiz-adv-x="1120" 
d="M504 1284l-72 -405h486l-31 -170h-484l-94 -529h664l-31 -180h-874l258 1464h886l-34 -180h-674zM1014 1812c32.667 0 59.834 -11.333 81.501 -34s32.5 -48 32.5 -76c0 -30.667 -11.333 -57.5 -34 -80.5s-49.334 -34.5 -80.001 -34.5c-28 0 -53.5 10.833 -76.5 32.5
s-34.5 49.167 -34.5 82.5c0 28.667 10.5 54.167 31.5 76.5s47.5 33.5 79.5 33.5zM616 1812c32 0 58.833 -11 80.5 -33s32.5 -47.667 32.5 -77c0 -32 -11.333 -59.167 -34 -81.5s-49 -33.5 -79 -33.5c-27.333 0 -52.833 10.667 -76.5 32s-35.5 49 -35.5 83
c0 31.333 11.167 57.5 33.5 78.5s48.5 31.5 78.5 31.5z" />
    <glyph glyph-name="afii10051" unicode="&#x402;" horiz-adv-x="1477" 
d="M739 874c79.333 16.667 155.333 25.0029 228 25.0029c136 0 242.667 -31.833 320 -95.5s116 -151.834 116 -264.501c0 -72 -15.5 -153.333 -46.5 -244s-87.333 -164.167 -169 -220.5s-176.5 -84.5 -284.5 -84.5c-48.667 0 -91.667 2.66699 -129 8l31 166
c31.333 -5.33301 67.333 -8 108 -8c65.333 0 120.833 19.167 166.5 57.5s76.5 89.166 92.5 152.499s24 114.666 24 153.999c0 69.333 -21.833 122.5 -65.5 159.5s-106.5 55.5 -188.5 55.5c-74 0 -151.667 -9.33301 -233 -28l-125 -707h-203l227 1288h-405l30 176h1078
l-31 -176h-469z" />
    <glyph glyph-name="afii10052" unicode="&#x403;" horiz-adv-x="1063" 
d="M1180 1464l-31 -180h-647l-228 -1284h-206l258 1464h854zM1055 1919l-226 -334h-141l170 334h197z" />
    <glyph glyph-name="afii10053" unicode="&#x404;" horiz-adv-x="1159" 
d="M1182 1444l-55.999 -194.999c-56 44 -135 66 -237 66c-118 0 -221.333 -42.833 -310 -128.5s-156 -194.5 -202 -326.5h518l-29 -168h-530c-5.33301 -36 -8 -77.667 -8 -125c0 -275.333 114 -413 342 -413c120 0 236 48.333 348 145l-17 -211
c-80.667 -75.333 -207.334 -113 -380.001 -113c-161.333 0 -285.333 49.167 -372 147.5s-130 234.166 -130 407.499c0 260.667 71.167 486 213.5 676s331.833 285 568.5 285c114 0 207.667 -15.667 281 -47z" />
    <glyph glyph-name="afii10054" unicode="&#x405;" horiz-adv-x="977" 
d="M70 47l60.999 193.004c32.667 -25.333 76.667 -45.333 132 -60s109 -22 161 -22c80 0 143.667 19.333 191 58s71 91.667 71 159c0 59.333 -19.5 111.166 -58.5 155.499s-95.833 93.5 -170.5 147.5c-98 71.333 -166.167 134.333 -204.5 189s-57.5 121.334 -57.5 200.001
c0 131.333 41.5 234.833 124.5 310.5s191.5 113.5 325.5 113.5c148.667 0 248.334 -13.667 299.001 -41l-57 -193c-22 16.667 -55 31.5 -99 44.5s-83.333 19.5 -118 19.5c-82.667 0 -149.5 -19.5 -200.5 -58.5s-76.5 -94.5 -76.5 -166.5c0 -46.667 14 -86.834 42 -120.501
s89 -85.834 183 -156.501c96.667 -70 165.667 -137.333 207 -202s62 -141.334 62 -230.001c0 -86.667 -18.833 -160 -56.5 -220s-93.5 -107 -167.5 -141s-161.333 -51 -262 -51c-58 0 -119.167 7.66699 -183.5 23s-113.5 31.666 -147.5 48.999z" />
    <glyph glyph-name="afii10055" unicode="&#x406;" horiz-adv-x="569" 
d="M96 0l258 1464h205l-260 -1464h-203z" />
    <glyph glyph-name="afii10056" unicode="&#x407;" horiz-adv-x="569" 
d="M76 0l258 1464h205l-260 -1464h-203zM662 1812c30 0 56.167 -10.5 78.5 -31.5s33.5 -47.167 33.5 -78.5c0 -34 -11.833 -61.667 -35.5 -83s-49.167 -32 -76.5 -32c-28 0 -53.833 10.667 -77.5 32s-35.5 49 -35.5 83c0 28 10.333 53.333 31 76s48 34 82 34zM262 1812
c32 0 58.833 -10.833 80.5 -32.5s32.5 -47.5 32.5 -77.5c0 -34 -11.833 -61.667 -35.5 -83s-49.5 -32 -77.5 -32c-29.333 0 -55.333 11.167 -78 33.5s-34 49.5 -34 81.5c0 29.333 10.667 55 32 77s48 33 80 33z" />
    <glyph glyph-name="afii10057" unicode="&#x408;" horiz-adv-x="956" 
d="M12 293l174 0.000976562c0 -88.667 45.333 -133 136 -133c108.667 0 180.667 25.333 216 76s66.333 151.667 93 303l164 925h200l-161 -917c-38 -212.667 -94 -360.334 -168 -443.001s-199 -124 -375 -124c-87.333 0 -156.333 23.833 -207 71.5s-76 112.5 -76 194.5
c0 10 1.33301 25.667 4 47z" />
    <glyph glyph-name="afii10058" unicode="&#x409;" horiz-adv-x="2009" 
d="M1300 907c64 8.66699 120.002 12.999 168.002 12.999c146.667 0 261.167 -32.667 343.5 -98s123.5 -156.333 123.5 -273c0 -93.333 -23.667 -183.666 -71 -270.999s-120.833 -155.5 -220.5 -204.5s-214.834 -73.5 -345.501 -73.5h-358l238 1290h-316
c-39.333 -154.667 -89 -315.667 -149 -483s-123.333 -310.5 -190 -429.5s-128.334 -205.167 -185.001 -258.5s-113.167 -88.833 -169.5 -106.5s-125.5 -26.5 -207.5 -26.5l35 190c45.333 0 87 8.16699 125 24.5s79.833 48.5 125.5 96.5s99.334 133.333 161.001 256
s119.667 262 174 418s106.166 320.333 155.499 493h666zM1167 163.999c56.667 -5.33301 101 -7.99902 133 -7.99902c127.333 0 230.166 33.667 308.499 101s117.5 157.666 117.5 270.999c0 154.667 -99.667 232 -299 232c-57.333 0 -109.666 -5 -156.999 -15z" />
    <glyph glyph-name="afii10059" unicode="&#x40a;" horiz-adv-x="1874" 
d="M1165 907c63.333 8.66699 119.333 12.999 168 12.999c146 0 260.333 -32.667 343 -98s124 -156.333 124 -273c0 -93.333 -23.667 -183.666 -71 -270.999s-121 -155.5 -221 -204.5s-215 -73.5 -345 -73.5h-358l125 709h-537l-125 -709h-200l258 1464h200l-102 -585h537
l104 585h201zM1032 163.999c56.667 -5.33301 101 -7.99902 133 -7.99902c127.333 0 230.166 33.667 308.499 101s117.5 157.666 117.5 270.999c0 154.667 -99.667 232 -299 232c-57.333 0 -109.666 -5 -156.999 -15z" />
    <glyph glyph-name="afii10060" unicode="&#x40b;" horiz-adv-x="1526" 
d="M739 874c79.333 16.667 155.332 25.001 227.999 25.001c134.667 0 240.334 -31.667 317.001 -95s115 -151 115 -263c0 -34.667 -2 -61.334 -6 -80.001l-82 -461h-203l65 364c15.333 88 23 141.333 23 160c0 68 -21.833 120.167 -65.5 156.5s-106.5 54.5 -188.5 54.5
c-74 0 -151.667 -9.33301 -233 -28l-125 -707h-203l227 1288h-405l30 176h1074l-31 -176h-465z" />
    <glyph glyph-name="afii10061" unicode="&#x40c;" horiz-adv-x="1253" 
d="M1323 1468l-30.999 -172c-4.66699 1.33301 -19 2 -43 2s-44.5 -9.16699 -61.5 -27.5s-36.833 -57.5 -59.5 -117.5c-77.333 -210.667 -216.333 -338.334 -417 -383.001c96.667 -37.333 168.5 -91.833 215.5 -163.5s70.5 -170.167 70.5 -295.5
c0 -60 5.5 -98.833 16.5 -116.5s30.167 -26.5 57.5 -26.5c16 0 31.667 1.33301 47 4l-33 -178c-10.667 -2.66699 -34.334 -4 -71.001 -4c-76.667 0 -131.667 19.667 -165 59s-50 109 -50 209c0 148.667 -27.833 257.5 -83.5 326.5s-156.834 103.5 -303.501 103.5h-19
l-121 -688h-204l258 1464h204l-106 -606h12c138.667 0 247.834 28.833 327.501 86.5s143.167 153.834 190.5 288.501c31.333 86 68.333 147.5 111 184.5s106.667 55.5 192 55.5c23.333 0 45.333 -1.66699 66 -5zM1096 1919l-226 -334h-141l170 334h197z" />
    <glyph glyph-name="afii10062" unicode="&#x40e;" horiz-adv-x="1188" 
d="M1341 1464c-133.333 -318 -256.831 -574.833 -370.498 -770.5s-216.334 -342 -308.001 -439s-183.834 -166 -276.501 -207s-198.667 -61.5 -318 -61.5l38 194c179.333 0 329 77.333 449 232l-362 1052h217l288 -884c157.333 247.333 298 542 422 884h221zM1192 1880
c-51.333 -199.333 -179.666 -299 -384.999 -299c-92.667 0 -166.334 24 -221.001 72s-82 112 -82 192c0 18 2.66699 43.333 8 76l172 -14c-5.33301 -25.333 -8 -45.333 -8 -60c0 -40 14 -71.833 42 -95.5s66.667 -35.5 116 -35.5c112 0 178.667 69.667 200 209z" />
    <glyph glyph-name="afii10145" unicode="&#x40f;" horiz-adv-x="1307" 
d="M1343 1464l-258 -1464h-411l-66 -373h-194l65 373h-411l258 1464h204l-225 -1284h608l226 1284h204z" />
    <glyph glyph-name="afii10017" unicode="&#x410;" horiz-adv-x="1251" 
d="M920 0l-46 309h-526l-172 -309h-225l858 1485h53l289 -1485h-231zM762 1081l-334 -624h424z" />
    <glyph glyph-name="afii10018" unicode="&#x411;" horiz-adv-x="1167" 
d="M1155 1464l-31 -174.001h-626l-72 -407c56.667 8 121.667 12 195 12c144 0 258.5 -33.333 343.5 -100s127.5 -157.667 127.5 -273c0 -151.333 -53.833 -276.166 -161.5 -374.499s-262.167 -147.5 -463.5 -147.5h-399l258 1464h829zM301 169.999
c87.333 -6.66699 141.331 -9.99902 161.998 -9.99902c130.667 0 232.334 31.667 305.001 95s109 147.666 109 252.999c0 151.333 -98.333 227 -295 227c-75.333 0 -137.666 -4.66699 -186.999 -14z" />
    <glyph glyph-name="afii10019" unicode="&#x412;" horiz-adv-x="1167" 
d="M68 0l260 1464c103.333 15.333 197.333 23 282 23c340 0 510 -115.333 510 -346c0 -78 -24.667 -147.333 -74 -208s-116.666 -102.667 -201.999 -126c164 -52 246 -160.667 246 -326c0 -154 -57.833 -274.667 -173.5 -362s-296.834 -131 -543.501 -131
c-76 0 -177.667 4 -305 12zM500 1309l-69.999 -414c58 -4 108 -6 150 -6c223.333 0 335 86 335 258c0 114.667 -86.667 172 -260 172c-28.667 0 -80.334 -3.33301 -155.001 -10zM397.001 727l-98 -556.999c53.333 -8 101 -12 143 -12c150 0 260.667 30.167 332 90.5
s107 135.166 107 224.499c0 90 -28.167 156.167 -84.5 198.5s-142.833 63.5 -259.5 63.5c-52 0 -98.667 -2.66699 -140 -8z" />
    <glyph glyph-name="afii10020" unicode="&#x413;" horiz-adv-x="1063" 
d="M1180 1464l-31 -180h-647l-228 -1284h-206l258 1464h854z" />
    <glyph glyph-name="afii10021" unicode="&#x414;" horiz-adv-x="1401" 
d="M1395 1464l-232.001 -1296h156l-102 -588h-187l74 420h-973l-74 -420h-186l102 588h84c114 124.667 212.167 250.834 294.5 378.501s151.833 254.334 208.5 380.001s127.334 304.834 212.001 537.501h623zM1169 1296h-276
c-164.667 -474.667 -368.667 -850.667 -612 -1128h686z" />
    <glyph glyph-name="afii10022" unicode="&#x415;" horiz-adv-x="1120" 
d="M504 1284l-72 -405h486l-31 -170h-484l-94 -529h664l-31 -180h-874l258 1464h886l-34 -180h-674z" />
    </font>
</defs>
</svg>
