<?xml version="1.0" standalone="no"?>
<!DOCTYPE svg PUBLIC "-//W3C//DTD SVG 1.1//EN" "http://www.w3.org/Graphics/SVG/1.1/DTD/svg11.dtd" >
<svg xmlns="http://www.w3.org/2000/svg">
<metadata></metadata>
<defs>
<font id="carisma_classiclight" horiz-adv-x="1642" >
<font-face units-per-em="2048" ascent="1638" descent="-410" />
<missing-glyph horiz-adv-x="512" />
<glyph unicode="&#xfb01;" horiz-adv-x="913" d="M768 0h-98v874h-398v-874h-98v874h-154v64h154v309q0 142 70 210.5t178 68.5q79 0 147 -49l-28 -45q-42 32 -109 32q-160 0 -160 -227v-299h496v-938zM795 1280q0 -30 -22 -52t-52 -22q-31 0 -52.5 22t-21.5 54q0 29 21.5 50.5t50.5 21.5q31 0 53.5 -21t22.5 -53z" />
<glyph unicode="&#xfb02;" horiz-adv-x="913" d="M569 1477l-28 -45q-42 32 -109 32q-160 0 -160 -227v-299h220v-64h-220v-874h-98v874h-154v64h154v309q0 142 70 210.5t178 68.5q79 0 147 -49zM770 0h-98v1524h98v-1524z" />
<glyph unicode="&#xfb03;" horiz-adv-x="1441" d="M1296 0h-98v874h-397v-874h-99v874h-430v-874h-98v874h-154v64h154v309q0 142 70 210.5t178 68.5q79 0 147 -49l-28 -45q-42 32 -109 32q-160 0 -160 -227v-299h430v309q0 142 70 210.5t178 68.5q80 0 148 -49l-29 -45q-42 32 -108 32q-160 0 -160 -227v-299h495v-938z M1323 1280q0 -30 -22 -52t-52 -22q-31 0 -52 22t-21 54q0 29 21 50.5t50 21.5q31 0 53.5 -21t22.5 -53z" />
<glyph unicode="&#xfb04;" horiz-adv-x="1441" d="M1098 1477l-29 -45q-42 32 -108 32q-160 0 -160 -227v-299h219v-64h-219v-874h-99v874h-430v-874h-98v874h-154v64h154v309q0 142 70 210.5t178 68.5q79 0 147 -49l-28 -45q-42 32 -109 32q-160 0 -160 -227v-299h430v309q0 142 70 210.5t178 68.5q80 0 148 -49zM1298 0 h-98v1524h98v-1524z" />
<glyph horiz-adv-x="0" />
<glyph horiz-adv-x="682" />
<glyph unicode=" "  horiz-adv-x="512" />
<glyph unicode="&#x09;" horiz-adv-x="512" />
<glyph unicode="&#xa0;" horiz-adv-x="512" />
<glyph unicode="!" horiz-adv-x="391" d="M260 1288l-47 -891h-33l-47 897q-2 6 -2 23v49q0 82 66 82q65 0 65 -88q0 -8 -1 -25t-1 -24v-23zM268 57q0 -32 -20 -52.5t-51 -20.5q-32 0 -53 20.5t-21 52.5q0 31 21 52.5t53 21.5q30 0 50.5 -21.5t20.5 -52.5z" />
<glyph unicode="&#x22;" horiz-adv-x="591" d="M182 1454q26 0 44 -17.5t18 -43.5t-5 -81t-10 -79l-30 -260h-33l-29 260q-14 110 -14 160q0 26 15.5 43.5t43.5 17.5zM408 1454q26 0 43.5 -17.5t17.5 -43.5q0 -88 -14 -160l-31 -260h-33l-29 260q-14 110 -14 160q0 26 16 43.5t44 17.5z" />
<glyph unicode="#" horiz-adv-x="1218" d="M164 856v78h256l78 426h88l-78 -426h293l78 426h88l-78 -426h227v-78h-242l-55 -311h236v-78h-250l-84 -467h-88l84 467h-293l-84 -467h-88l84 467h-234v78h248l56 311h-242zM494 856l-56 -311h293l55 311h-292z" />
<glyph unicode="$" horiz-adv-x="1019" d="M549 -193h-68v173q-80 0 -145 16.5t-112.5 47t-78.5 60t-63 70.5l45 37q121 -166 354 -166v670q-51 21 -85 37.5t-76.5 42t-70 52.5t-53 63t-37.5 81t-12 99q0 144 93 244.5t241 117.5v186h68v-186q103 -7 183 -64t122 -122l-43 -37q-112 147 -262 157v-577 q52 -23 81 -36.5t76.5 -39.5t75 -47.5t61 -55t51.5 -68.5t31 -81.5t13 -99.5q0 -170 -106.5 -274.5t-282.5 -122.5v-177zM838 365q0 66 -22 118t-66 91t-89.5 65.5t-111.5 54.5v-645q135 17 212 102t77 214zM242 1106q0 -97 63 -160.5t176 -114.5v555q-112 -12 -175.5 -87.5 t-63.5 -192.5z" />
<glyph unicode="%" horiz-adv-x="1931" d="M1870 426q0 -192 -100 -319t-252 -127q-68 0 -130 29.5t-110.5 83.5t-77.5 139.5t-29 189.5q0 109 43.5 208.5t125.5 163.5t182 64q138 0 243 -125t105 -307zM762 1042q0 -192 -100 -319t-252 -127q-68 0 -130.5 29.5t-111.5 83.5t-78 139.5t-29 189.5q0 111 44 210.5 t126 163t181 63.5q140 0 245 -125.5t105 -307.5zM1774 412q0 183 -69 288t-181 105q-123 0 -190.5 -110t-67.5 -281q0 -164 67.5 -272.5t182.5 -108.5q122 0 190 102.5t68 276.5zM666 1028q0 182 -69 287.5t-181 105.5q-126 0 -193 -107t-67 -284q0 -160 70 -270.5 t182 -110.5q122 0 190 102.5t68 276.5zM506 -41h-86l993 1516h86z" />
<glyph unicode="&#x26;" horiz-adv-x="1378" d="M1337 -10h-141l-203 235q-232 -250 -458 -250q-198 0 -325.5 116.5t-127.5 289.5q0 72 24.5 136t58 108t90.5 88.5t100 70.5t108 60q-106 126 -144 195.5t-38 136.5q0 123 87.5 202.5t219.5 79.5q125 0 201.5 -70.5t76.5 -170.5q0 -62 -22.5 -118t-65.5 -101.5t-87 -79.5 t-103 -70l434 -492q86 119 145 306l52 -15q-21 -65 -36 -106t-48 -108t-74 -124zM784 1202q0 98 -57 148.5t-147 50.5q-97 0 -150 -56t-53 -149q0 -39 9.5 -73.5t33 -70t37.5 -54t50 -57.5t44 -48q114 66 173.5 136t59.5 173zM954 274q-75 87 -226 261.5t-226 261.5 q-66 -38 -116 -77t-96.5 -90t-71.5 -115t-25 -136q0 -140 96.5 -239t255.5 -99q114 0 212.5 62t196.5 171z" />
<glyph unicode="'" horiz-adv-x="366" d="M182 1454q26 0 44 -17.5t18 -43.5t-5 -81t-10 -79l-30 -260h-33l-29 260q-14 110 -14 160q0 26 15.5 43.5t43.5 17.5z" />
<glyph unicode="(" horiz-adv-x="518" d="M395 -276l-43 -23q-92 170 -160.5 424t-68.5 508q0 256 68 507t161 425l43 -21q-166 -322 -166 -911q0 -581 166 -909z" />
<glyph unicode=")" horiz-adv-x="518" d="M166 -299l-43 23q166 328 166 909q0 589 -166 911l43 21q93 -174 161 -425t68 -507q0 -254 -68.5 -508t-160.5 -424z" />
<glyph unicode="*" horiz-adv-x="774" d="M713 932q0 -49 -51 -49q-21 0 -63.5 31t-76.5 65q-24 22 -125 88q0 -51 18.5 -151t18.5 -142q0 -24 -13 -39.5t-36 -15.5q-22 0 -34.5 17.5t-12.5 39.5q0 34 29 166q10 54 10 125q-68 -40 -105 -74q-30 -30 -85.5 -71t-73.5 -41q-21 0 -36.5 13.5t-15.5 33.5 q0 26 20.5 41.5t76.5 34.5q148 50 211 81q-14 4 -48.5 21t-68.5 29q-44 14 -68.5 22.5t-58 22.5t-49 30t-15.5 33q0 20 12.5 33.5t32.5 13.5q21 0 66.5 -32t85.5 -68l31 -27q29 -27 88 -61q0 49 -15 137l-8 43q-16 88 -16 111q0 22 12 40.5t35 18.5q19 0 34 -15t15 -34 q0 -43 -18 -144t-19 -157q59 37 113 84q11 9 49 40.5t62 47.5t41 16q22 0 36.5 -16t14.5 -37q0 -26 -51.5 -52t-136.5 -55t-117 -45q12 -8 29 -15.5t32 -13t46.5 -16.5t57.5 -20q3 -1 22 -7t27 -9t25.5 -10t26 -13t19.5 -14t15.5 -16.5t4.5 -18.5z" />
<glyph unicode="+" horiz-adv-x="1134" d="M123 686v78h403v418h82v-418h404v-78h-404v-434h-82v434h-403z" />
<glyph unicode="," horiz-adv-x="462" d="M340 139q0 -19 -10 -36.5t-43 -53.5l-230 -260l-16 10l164 351q14 30 29.5 42.5t41.5 12.5t45 -19t19 -47z" />
<glyph unicode="-" horiz-adv-x="616" d="M494 446h-371v86h371v-86z" />
<glyph unicode="." horiz-adv-x="391" d="M268 57q0 -32 -20 -52.5t-51 -20.5q-32 0 -53 20.5t-21 52.5q0 31 21 52.5t53 21.5q30 0 50.5 -21.5t20.5 -52.5z" />
<glyph unicode="/" horiz-adv-x="843" d="M803 1559l-699 -1702l-63 22l698 1702z" />
<glyph unicode="0" horiz-adv-x="1245" d="M621 1454q133 0 237 -61.5t167 -166.5t95.5 -236t32.5 -279q0 -176 -42.5 -317t-116 -230.5t-169 -136.5t-204.5 -47t-204.5 48.5t-168 138.5t-114.5 229t-42 309q0 124 22.5 236.5t67 206t107 162t148 106.5t184.5 38zM621 43q199 0 310 179t111 480q0 334 -110.5 511.5 t-310.5 177.5q-137 0 -232.5 -91t-140.5 -244.5t-45 -355.5q0 -191 47.5 -338.5t143 -233t227.5 -85.5z" />
<glyph unicode="1" horiz-adv-x="641" d="M436 0h-106v1327l-240 -108l-18 36l364 209v-1464z" />
<glyph unicode="2" horiz-adv-x="1161" d="M1059 0h-957l584 600q45 48 77.5 88.5t69.5 99.5t56.5 127t19.5 140q0 138 -101.5 230.5t-248.5 92.5q-50 0 -101.5 -15.5t-101 -46t-89 -84.5t-58.5 -124q-1 0 -23 8t-36 12q13 60 49 117t90.5 104t132 76t164.5 29q189 0 312.5 -115t123.5 -288q0 -61 -19.5 -125.5 t-45 -113.5t-68 -106.5t-70 -88.5t-69.5 -76l-465 -475h774v-66z" />
<glyph unicode="3" horiz-adv-x="1021" d="M96 150l45 45q38 -52 132.5 -102t193.5 -50q84 0 150 29t107 79.5t62 113.5t21 134q0 143 -91.5 240.5t-226.5 97.5h-51v64q38 0 75.5 5t87 24t86 49.5t62 89t25.5 135.5q0 120 -83 203.5t-210 83.5q-101 0 -176.5 -39t-126.5 -135l-51 28q119 209 362 209 q92 0 168.5 -30.5t125.5 -81t75.5 -114.5t26.5 -132q0 -115 -73.5 -202.5t-209.5 -123.5q146 -27 232 -133.5t86 -237.5q0 -179 -126 -299t-309 -120q-126 0 -227 49t-162 121z" />
<glyph unicode="4" horiz-adv-x="1193" d="M1153 377h-266v-377h-107v377h-719l826 1122v-1063h266v-59zM780 436v809l-596 -809h596z" />
<glyph unicode="5" horiz-adv-x="1130" d="M1028 483q0 -137 -59.5 -251t-173 -183t-258.5 -69q-80 0 -153 23.5t-126.5 62.5t-91.5 80t-64 85l48 29q49 -87 154.5 -152t232.5 -65q75 0 140.5 24.5t121 75t87.5 139.5t32 207q0 182 -110 295t-273 113q-172 0 -248 -117q-28 4 -45 4l96 650h661v-66h-602l-69 -477 q82 74 229 74q129 0 237.5 -65t171 -176t62.5 -241z" />
<glyph unicode="6" horiz-adv-x="1183" d="M1092 453q0 -104 -40 -193.5t-107.5 -150t-155 -95t-181.5 -34.5q-234 0 -375 187.5t-141 528.5q0 163 43.5 304.5t119 241t182 156t227.5 56.5q206 0 348 -154l-31 -34q-69 64 -142.5 94.5t-174.5 30.5q-204 0 -332.5 -187t-128.5 -483v-109q30 123 145 217.5t268 94.5 q204 0 340 -137.5t136 -333.5zM981 453q0 175 -102.5 287t-266.5 112q-72 0 -138 -26.5t-118.5 -75.5t-84 -127t-31.5 -174q0 -182 105.5 -294t262.5 -112q162 0 267.5 111.5t105.5 298.5z" />
<glyph unicode="7" horiz-adv-x="1120" d="M41 0l881 1368h-869v66h1026l-958 -1487z" />
<glyph unicode="8" horiz-adv-x="1095" d="M1004 389q0 -178 -131 -293.5t-328 -115.5q-121 0 -223.5 49t-166 143t-63.5 213q0 137 80.5 236t226.5 137q-116 42 -190 133.5t-74 204.5q0 154 116 256t294 102q190 0 303 -102.5t113 -255.5q0 -34 -5 -66.5t-22 -75t-45 -77.5t-79 -67.5t-118 -51.5q138 -38 225 -136 t87 -233zM850 1104q0 130 -82.5 208.5t-222.5 78.5q-134 0 -216.5 -79t-82.5 -208q0 -154 82 -235t217 -81q143 0 224 80.5t81 235.5zM891 387q0 83 -32 149.5t-83.5 106.5t-111 61t-119.5 21q-58 0 -116 -20t-109.5 -59t-84 -106.5t-32.5 -152.5q0 -145 95.5 -244.5 t246.5 -99.5q149 0 247.5 96.5t98.5 247.5z" />
<glyph unicode="9" horiz-adv-x="1183" d="M92 981q0 104 40 193.5t107 150t154.5 95t181.5 34.5q234 0 375.5 -188t141.5 -529q0 -218 -74 -391t-205 -269.5t-293 -96.5q-109 0 -202 48.5t-156 116.5l31 35q147 -137 327 -137q204 0 332.5 187t128.5 483v108q-30 -122 -145.5 -216.5t-268.5 -94.5 q-204 0 -339.5 137.5t-135.5 333.5zM203 981q0 -175 102 -287t266 -112q72 0 138 26.5t119 75.5t84.5 127t31.5 174q0 182 -106 294t-263 112q-162 0 -267 -111.5t-105 -298.5z" />
<glyph unicode=":" horiz-adv-x="391" d="M268 717q0 -32 -20 -53t-51 -21q-32 0 -53 21t-21 53q0 31 21 52.5t53 21.5q30 0 50.5 -21.5t20.5 -52.5zM268 57q0 -32 -20 -52.5t-51 -20.5q-32 0 -53 20.5t-21 52.5q0 31 21 52.5t53 21.5q30 0 50.5 -21.5t20.5 -52.5z" />
<glyph unicode=";" horiz-adv-x="462" d="M340 139q0 -38 -53 -96l-230 -254l-16 10l164 351q27 55 71 55q26 0 45 -19t19 -47zM322 717q0 -32 -20.5 -53t-51.5 -21q-32 0 -53 21t-21 53q0 31 21 52.5t53 21.5q31 0 51.5 -21.5t20.5 -52.5z" />
<glyph unicode="&#x3c;" horiz-adv-x="1134" d="M1032 1159v-92l-749 -346l749 -348v-90l-930 438z" />
<glyph unicode="=" horiz-adv-x="1134" d="M102 860v82h930v-82h-930zM102 492v81h930v-81h-930z" />
<glyph unicode="&#x3e;" horiz-adv-x="1134" d="M102 1067v92l930 -438l-930 -438v90l750 348z" />
<glyph unicode="?" horiz-adv-x="768" d="M434 57q0 -32 -20.5 -52.5t-51.5 -20.5q-32 0 -52.5 20.5t-20.5 52.5q0 31 20.5 52.5t52.5 21.5q31 0 51.5 -21.5t20.5 -52.5zM358 1391q-154 0 -254 -119l-43 39q42 57 120 100t177 43q176 0 272.5 -89.5t96.5 -229.5q0 -73 -25.5 -133.5t-66.5 -100.5t-91 -74.5 t-99.5 -65t-90.5 -62t-66.5 -74t-25.5 -93.5q0 -67 30.5 -107.5t92.5 -72.5l-25 -45q-81 40 -122 89.5t-41 135.5q0 58 23.5 108t61 87t83 71t91 68.5t83 71.5t61 87t23.5 108q0 119 -73.5 188.5t-191.5 69.5z" />
<glyph unicode="@" horiz-adv-x="1595" d="M1513 836q0 -103 -27 -190.5t-70 -146.5t-99 -100.5t-113 -60.5t-112 -19q-47 0 -78 33t-31 105q0 27 2 43q-49 -89 -123 -136t-151 -47q-125 0 -217.5 103t-92.5 256q0 175 109 307.5t270 132.5q169 0 250 -196l35 172h96l-71 -422q-17 -94 -17 -146q0 -33 1 -52 t5.5 -39.5t15 -30t27.5 -9.5q33 0 71 15t77.5 49.5t71 83t51.5 122t20 160.5q0 116 -42.5 220t-118.5 181.5t-188 123t-245 45.5q-128 0 -243.5 -50.5t-201 -138.5t-136 -215.5t-50.5 -273.5q0 -157 53 -286t143.5 -213t207.5 -129.5t248 -45.5q130 0 244.5 27t179.5 69 l30 -49q-102 -62 -204.5 -85t-251.5 -23q-213 0 -386 94.5t-271.5 263.5t-98.5 379q0 156 60 294t160.5 234.5t235 152.5t281.5 56q190 0 349.5 -80.5t252 -222.5t92.5 -315zM717 383q80 0 145 62t97 147t32 166q0 111 -64.5 204t-154.5 93q-120 0 -195 -107.5t-75 -263.5 q0 -137 60.5 -219t154.5 -82z" />
<glyph unicode="A" horiz-adv-x="1232" d="M627 1466l585 -1466h-112l-193 483h-612l-195 -483h-80zM604 1247l-285 -704h564z" />
<glyph unicode="B" horiz-adv-x="1073" d="M981 399q0 -111 -46.5 -200.5t-140 -144t-219.5 -54.5h-411v1434h293q91 0 163.5 -24.5t116 -62t72.5 -87t40 -94.5t11 -89q0 -109 -58.5 -190.5t-180.5 -116.5q161 -25 260.5 -124.5t99.5 -246.5zM756 1075q0 151 -77.5 222t-264.5 71h-144v-575h187q141 0 220 76 t79 206zM870 403q0 158 -106 241t-289 83h-205v-661h238q192 0 277 76t85 261z" />
<glyph unicode="C" horiz-adv-x="1396" d="M1280 215l35 -39q-222 -201 -500 -201q-205 0 -373 97t-264 267t-96 378q0 155 59.5 293.5t159 236t233.5 154.5t279 57q151 0 262 -46.5t209 -129.5l-33 -41q-191 152 -432 152q-133 0 -249.5 -52.5t-198 -143t-128 -215.5t-46.5 -265q0 -143 47.5 -268.5t130 -215 t197.5 -141t245 -51.5q257 0 463 174z" />
<glyph unicode="D" horiz-adv-x="1288" d="M1206 725q0 -153 -53.5 -286.5t-149.5 -230.5t-236 -152.5t-306 -55.5h-297v1434h289q178 0 323 -57t237.5 -155t142.5 -225.5t50 -271.5zM1092 729q0 94 -22 183t-72 172.5t-122.5 146t-182 100t-242.5 37.5h-181v-1302h193q289 0 459 180.5t170 482.5z" />
<glyph unicode="E" horiz-adv-x="958" d="M836 0h-672v1434h672v-66h-566v-557h555v-66h-555v-679h566v-66z" />
<glyph unicode="F" horiz-adv-x="851" d="M750 1368h-480v-577h469v-66h-469v-725h-106v1434h586v-66z" />
<glyph unicode="G" horiz-adv-x="1624" d="M819 1393q-129 0 -243 -49t-198 -136t-132.5 -215.5t-48.5 -279.5q0 -190 79.5 -344t221 -241t317.5 -87q138 0 252.5 48t192 131.5t124.5 194t60 238.5h-402v64h500q-8 -215 -99.5 -383t-255 -263.5t-372.5 -95.5q-207 0 -375 98t-263 268t-95 376q0 153 59 291t158 236 t235 156t285 58q163 0 280.5 -56t219.5 -153l-35 -39q-102 96 -212.5 139.5t-252.5 43.5z" />
<glyph unicode="H" horiz-adv-x="1400" d="M1237 0h-107v733h-860v-733h-106v1434h106v-635h860v635h107v-1434z" />
<glyph unicode="I" horiz-adv-x="434" d="M270 0h-106v1434h106v-1434z" />
<glyph unicode="J" horiz-adv-x="671" d="M528 1434v-1158q0 -144 -74.5 -222.5t-199.5 -78.5q-141 0 -254 113l35 39q98 -84 201 -84q88 0 137 54t49 157v1180h106z" />
<glyph unicode="K" horiz-adv-x="1159" d="M1139 0h-144l-725 731v-731h-106v1434h106v-674l674 674h105l-670 -672z" />
<glyph unicode="L" horiz-adv-x="819" d="M768 0h-604v1434h106v-1368h498v-66z" />
<glyph unicode="M" horiz-adv-x="1792" d="M1669 0h-106l-117 1135l-569 -1176l-564 1182l-131 -1141h-80l170 1468l621 -1296l623 1296z" />
<glyph unicode="N" horiz-adv-x="1556" d="M164 0v1485l1149 -1264v1213h80v-1467l-1149 1262v-1229h-80z" />
<glyph unicode="O" d="M82 711q0 205 98 376.5t267.5 271t371.5 99.5q209 0 379.5 -98t266.5 -268.5t96 -378.5q0 -153 -57 -289.5t-155 -235t-236 -156t-294 -57.5q-204 0 -373 96.5t-266.5 265.5t-97.5 374zM197 705q0 -183 77.5 -334t221 -240.5t323.5 -89.5q184 0 328 89.5t221.5 243 t77.5 343.5q0 192 -78 346t-222 242t-327 88q-126 0 -239 -47.5t-198 -134.5t-135 -218t-50 -288z" />
<glyph unicode="P" horiz-adv-x="940" d="M858 1051q0 -190 -116 -294t-332 -104h-140v-653h-106v1434h266q206 0 317 -102.5t111 -280.5zM748 1049q0 319 -304 319h-174v-647h172q161 0 233.5 82.5t72.5 245.5z" />
<glyph unicode="Q" d="M82 711q0 205 98 376.5t267.5 271t371.5 99.5q209 0 379.5 -98t266.5 -268.5t96 -378.5q0 -157 -59 -294t-165 -239l176 -180h-112l-125 127q-198 -152 -457 -152q-204 0 -373 96.5t-266.5 265.5t-97.5 374zM1001 528l277 -284q168 192 168 473q0 192 -78 346t-222 242 t-327 88q-126 0 -239 -47.5t-198 -134.5t-135 -218t-50 -288q0 -183 77.5 -334t221 -240.5t323.5 -89.5q232 0 400 145l-330 342h112z" />
<glyph unicode="R" horiz-adv-x="1034" d="M1014 0h-127l-430 700h-187v-700h-106v1434h280q188 0 286.5 -102.5t98.5 -260.5q0 -76 -22 -138t-60.5 -104t-84 -69.5t-99.5 -42.5zM719 1069q0 61 -14 112t-45 94.5t-87 68t-133 24.5h-170v-604h170q146 0 212.5 83t66.5 222z" />
<glyph unicode="S" horiz-adv-x="958" d="M797 365q0 65 -23.5 117t-63.5 87t-92 63.5t-109.5 52t-114.5 48t-109 56t-92 71t-63.5 98t-23.5 132.5q0 156 106 260t271 104q59 0 114.5 -18.5t96.5 -49t69.5 -60t49.5 -60.5l-39 -31q-120 154 -295 154q-127 0 -202.5 -78.5t-75.5 -204.5q0 -73 38.5 -128t100 -90.5 t135.5 -67t148 -68t135.5 -81.5t100 -119t38.5 -171q0 -186 -125 -293.5t-328 -107.5q-81 0 -147 16.5t-114 47t-79 60t-63 70.5l41 33q127 -162 362 -162q162 0 257.5 88.5t95.5 231.5z" />
<glyph unicode="T" horiz-adv-x="999" d="M958 1368h-405v-1368h-107v1368h-405v66h917v-66z" />
<glyph unicode="U" horiz-adv-x="1280" d="M1137 1434v-918q0 -244 -135.5 -390t-354.5 -146q-229 0 -366.5 145.5t-137.5 390.5v918h107v-916q0 -104 21 -187t66.5 -148.5t124 -101.5t185.5 -36q105 0 185.5 39.5t128.5 109t72 156.5t24 189v895h80z" />
<glyph unicode="V" horiz-adv-x="1251" d="M598 -51l-578 1485h113l483 -1241l527 1241h88z" />
<glyph unicode="W" horiz-adv-x="2191" d="M557 -51l-516 1485h113l424 -1229l516 1282l510 -1278l458 1225h88l-557 -1485l-514 1292z" />
<glyph unicode="X" horiz-adv-x="1181" d="M1141 0h-127l-422 672l-469 -672h-82l512 735l-442 699h127l387 -619l422 619h81l-466 -682z" />
<glyph unicode="Y" horiz-adv-x="1052" d="M457 0v647l-447 787h113l407 -717l439 717h73l-479 -793v-641h-106z" />
<glyph unicode="Z" horiz-adv-x="1142" d="M129 1368v66h932l-862 -1368h845v-66h-1003l862 1368h-774z" />
<glyph unicode="[" horiz-adv-x="462" d="M340 -276h-217v1832h217v-61h-129v-1710h129v-61z" />
<glyph unicode="\" horiz-adv-x="843" d="M739 -147l-698 1701l63 27l699 -1702z" />
<glyph unicode="]" horiz-adv-x="462" d="M340 -276h-217v61h129v1710h-129v61h217v-1832z" />
<glyph unicode="^" horiz-adv-x="1134" d="M215 317h-92l444 930l445 -930h-90l-355 754z" />
<glyph unicode="_" horiz-adv-x="993" d="M0 -410v82h993v-82h-993z" />
<glyph unicode="`" horiz-adv-x="405" d="M344 1065h-49l-186 160q-6 6 -17 15t-16.5 14t-10 14.5t-4.5 21.5q0 21 14.5 36t37.5 15q7 0 13.5 -1.5t13 -5.5t10.5 -7t11 -11t10 -12l12 -16l12 -16z" />
<glyph unicode="a" horiz-adv-x="993" d="M850 0h-96v143q-51 -77 -131.5 -120t-182.5 -43q-55 0 -103.5 8t-96.5 28t-82 50.5t-55 80.5t-21 113q0 130 92.5 205.5t255.5 75.5h324v82q0 71 -24 125.5t-66 86.5t-94 48t-113 16q-151 0 -264 -113l-39 37q134 138 303 138q76 0 145 -20t125 -58.5t89.5 -101.5 t33.5 -142v-639zM754 293v184h-301q-130 0 -199.5 -60.5t-69.5 -156.5q0 -106 74.5 -162.5t181.5 -56.5q73 0 135 25.5t99.5 64t58.5 81.5t21 81z" />
<glyph unicode="b" horiz-adv-x="1110" d="M1038 479q0 -222 -124 -360.5t-312 -138.5q-122 0 -212 45.5t-148 154.5v-180h-99v1524h99v-781q57 112 150 165t200 53q191 0 318.5 -136t127.5 -346zM936 467q0 87 -21.5 163.5t-63.5 137t-110.5 96t-154.5 35.5t-154 -36.5t-110 -98t-64 -139.5t-22 -166 q0 -186 92 -302t256 -116q113 0 194 57t119.5 152t38.5 217z" />
<glyph unicode="c" horiz-adv-x="966" d="M889 795l-41 -37q-124 141 -299 141q-71 0 -135.5 -25.5t-118.5 -75.5t-86.5 -135.5t-32.5 -195.5q0 -98 30.5 -179.5t82.5 -134.5t120.5 -82.5t145.5 -29.5q167 0 297 141l43 -41q-145 -161 -350 -161q-208 0 -340.5 138t-132.5 351q0 107 37 199.5t100.5 156t149 100 t180.5 36.5q222 0 350 -166z" />
<glyph unicode="d" horiz-adv-x="1114" d="M72 479q0 210 128.5 346t319.5 136q108 0 203.5 -50.5t148.5 -160.5v774h99v-1524h-99v190q-61 -107 -155 -158.5t-209 -51.5q-188 0 -312 138.5t-124 360.5zM174 467q0 -188 91.5 -307t262.5 -119q159 0 255 120t96 302q0 117 -39.5 214.5t-121.5 159.5t-192 62 q-115 0 -196 -59t-118.5 -155t-37.5 -218z" />
<glyph unicode="e" horiz-adv-x="1054" d="M963 477h-789q0 -118 44 -217t128 -159t191 -60q119 0 196.5 49.5t140.5 145.5l48 -33q-49 -95 -153.5 -159t-248.5 -64q-198 0 -323 136.5t-125 356.5q0 212 130 350t316 138q85 0 164 -32.5t142 -92t101 -153t38 -206.5zM178 541h680q-12 158 -103 258t-237 100 q-73 0 -137 -32.5t-106 -85t-67.5 -115t-29.5 -125.5z" />
<glyph unicode="f" horiz-adv-x="548" d="M590 1477l-29 -45q-42 32 -108 32q-160 0 -160 -227v-299h219v-64h-219v-874h-98v874h-154v64h154v309q0 142 70 210.5t177 68.5q80 0 148 -49z" />
<glyph unicode="g" horiz-adv-x="1103" d="M127 -201l51 31q48 -89 131 -149t183 -60q86 0 152 24.5t106.5 64.5t66.5 97t35.5 115.5t9.5 126.5v182q-47 -103 -135.5 -158t-204.5 -55q-195 0 -322.5 129.5t-127.5 346.5q0 207 125.5 337t314.5 130q124 0 213.5 -53.5t136.5 -157.5v188h99v-883q0 -243 -120 -374.5 t-333 -131.5q-129 0 -228 71t-153 179zM868 492q0 72 -21.5 142.5t-62 130.5t-109.5 97t-155 37q-146 0 -245 -112t-99 -295q0 -186 98.5 -299t249.5 -113q106 0 186 60t119 152.5t39 199.5z" />
<glyph unicode="h" horiz-adv-x="1009" d="M877 0h-97v616q0 135 -63.5 209t-186.5 74q-107 0 -197.5 -87t-90.5 -202v-610h-99v1524h99v-729q48 79 130.5 122.5t172.5 43.5q69 0 126.5 -17.5t105 -54t74 -101t26.5 -151.5v-637z" />
<glyph unicode="i" horiz-adv-x="385" d="M242 0h-99v938h99v-938zM272 1241q0 -31 -22 -52.5t-51 -21.5q-31 0 -52.5 22t-21.5 54q0 29 21.5 50.5t50.5 21.5q31 0 53 -21t22 -53z" />
<glyph unicode="j" horiz-adv-x="376" d="M-49 -451v54q109 6 150.5 86t41.5 258v991h99v-991q0 -58 -3.5 -101t-13 -92t-30 -83t-51.5 -63.5t-80 -44t-113 -14.5zM266 1241q0 -31 -22 -52.5t-51 -21.5q-31 0 -52.5 22t-21.5 54q0 29 21 50.5t50 21.5q31 0 53.5 -21t22.5 -53z" />
<glyph unicode="k" horiz-adv-x="901" d="M881 0h-131l-508 510v-510h-99v1524h99v-981l407 395h94l-399 -401z" />
<glyph unicode="l" horiz-adv-x="385" d="M242 0h-99v1524h99v-1524z" />
<glyph unicode="m" horiz-adv-x="1538" d="M1405 0h-98v623q0 131 -64.5 203.5t-167.5 72.5q-94 0 -173 -83.5t-79 -199.5v-616h-98v614q0 134 -61 209.5t-166 75.5q-99 0 -177.5 -92t-78.5 -207v-600h-99v938h99v-147q48 85 125 127.5t157 42.5q91 0 167 -49.5t108 -147.5q38 89 121.5 143t177.5 54 q130 0 218.5 -86.5t88.5 -245.5v-629z" />
<glyph unicode="n" horiz-adv-x="1003" d="M870 0h-98v627q0 139 -66 205.5t-169 66.5q-125 0 -210 -90t-85 -201v-608h-99v938h99v-145q42 77 126 122.5t179 45.5q82 0 145.5 -26.5t101.5 -73t57 -104.5t19 -126v-631z" />
<glyph unicode="o" horiz-adv-x="1087" d="M1016 473q0 -217 -132 -355t-337 -138q-212 0 -343.5 136t-131.5 357q0 213 137 350.5t340 137.5q90 0 174 -34t149.5 -95.5t104.5 -155t39 -203.5zM909 469q0 184 -98 307t-264 123q-115 0 -200 -58.5t-127 -154t-42 -215.5q0 -86 25 -163.5t70.5 -137t116 -94.5 t155.5 -35q162 0 263 123.5t101 304.5z" />
<glyph unicode="p" horiz-adv-x="1112" d="M1040 461q0 -210 -128 -345.5t-320 -135.5q-110 0 -203.5 49t-146.5 159v-649h-99v1399h99v-176q111 199 360 199q189 0 313.5 -138.5t124.5 -361.5zM936 473q0 189 -90 307.5t-260 118.5q-163 0 -256.5 -114.5t-93.5 -288.5q0 -206 91.5 -330.5t258.5 -124.5 q86 0 154.5 35.5t110.5 96t63.5 137t21.5 163.5z" />
<glyph unicode="q" horiz-adv-x="1110" d="M72 461q0 220 125 360t313 140q247 0 358 -199v176h99v-1399h-99v664q-57 -112 -151.5 -167.5t-200.5 -55.5q-191 0 -317.5 136t-126.5 345zM176 473q0 -69 13 -132t40.5 -118t67.5 -95.5t98 -63.5t127 -23q83 0 150.5 37t110.5 100t66 144t23 172q0 174 -92.5 289.5 t-255.5 115.5q-170 0 -259 -118.5t-89 -307.5z" />
<glyph unicode="r" horiz-adv-x="636" d="M596 913l-37 -67q-11 8 -38.5 15t-49.5 7q-95 0 -162 -69.5t-67 -171.5v-627h-99v938h99v-154q84 160 250 160q50 0 104 -31z" />
<glyph unicode="s" horiz-adv-x="776" d="M596 240q0 53 -28 90.5t-72.5 59t-98.5 39.5t-108 39t-98.5 50t-72.5 80t-28 121q0 103 80 172.5t197 69.5q89 0 156 -38.5t108 -86.5l-39 -37q-89 100 -225 100q-90 0 -141.5 -46.5t-51.5 -125.5q0 -43 22 -75.5t58 -51.5t81.5 -37.5t93.5 -32.5t93.5 -37.5t81.5 -52.5 t58 -77t22 -111q0 -127 -86 -199.5t-248 -72.5q-189 0 -299 161l45 35q107 -135 254 -135q127 0 186.5 54t59.5 145z" />
<glyph unicode="t" horiz-adv-x="565" d="M291 0h-98v874h-152v64h152v274h98v-274h233v-64h-233v-874z" />
<glyph unicode="u" horiz-adv-x="1003" d="M133 938h98v-627q0 -139 66 -205.5t170 -66.5q125 0 210 90t85 201v608h98v-938h-98v145q-42 -77 -126 -122.5t-179 -45.5q-82 0 -145.5 26.5t-102 73t-57.5 104.5t-19 126v631z" />
<glyph unicode="v" horiz-adv-x="911" d="M891 938l-449 -975l-422 975h107l332 -774l358 774h74z" />
<glyph unicode="w" horiz-adv-x="1503" d="M1473 938l-414 -981l-322 793l-309 -793l-397 981h104l301 -766l309 789l328 -793l328 770h72z" />
<glyph unicode="x" horiz-adv-x="903" d="M883 0h-121l-326 434l-334 -434h-82l375 485l-340 453h121l291 -385l301 385h82l-342 -440z" />
<glyph unicode="y" horiz-adv-x="942" d="M922 938l-621 -1389h-76l203 461l-408 928h107l352 -819l369 819h74z" />
<glyph unicode="z" horiz-adv-x="944" d="M895 938l-707 -875h715v-63h-883l707 874h-655v64h823z" />
<glyph unicode="{" horiz-adv-x="593" d="M471 -236v-40q-217 0 -217 196v467q0 108 -31 162t-100 72v36q68 17 99.5 74t31.5 166v469q0 53 18 91.5t50 59t68.5 30t80.5 9.5v-40q-50 0 -89.5 -42t-39.5 -98v-448q0 -115 -28 -183.5t-107 -107.5q80 -36 107.5 -99.5t27.5 -181.5v-438q0 -74 37 -114t92 -40z" />
<glyph unicode="|" horiz-adv-x="333" d="M211 -193h-88v1831h88v-1831z" />
<glyph unicode="}" horiz-adv-x="593" d="M123 -276v40q55 0 92 40t37 114v438q0 118 27.5 181.5t107.5 99.5q-79 39 -107 107.5t-28 183.5v448q0 56 -39.5 98t-89.5 42v40q42 0 78.5 -9.5t68.5 -30t51 -59t19 -91.5v-469q0 -109 31.5 -166t99.5 -74v-36q-69 -18 -100 -72t-31 -162v-467q0 -57 -18.5 -97 t-51.5 -60.5t-68.5 -29.5t-78.5 -9z" />
<glyph unicode="~" horiz-adv-x="1191" d="M1081 868l49 -30q-2 -4 -14.5 -28t-23.5 -42t-30 -46t-39.5 -48.5t-46.5 -40.5t-57 -30.5t-65 -10.5q-50 0 -102.5 18t-96.5 43.5t-87.5 51t-90.5 43.5t-90 18q-36 0 -68 -15.5t-59.5 -45t-46.5 -57.5t-41 -66l-51 28q4 7 20.5 37t29.5 52t38 53.5t50.5 51.5t62.5 35 t77 15q51 0 117.5 -27t120 -60t115 -60t102.5 -27q123 0 227 188z" />
<glyph unicode="&#xa1;" horiz-adv-x="380" d="M123 893q0 29 19 48.5t48 19.5t48.5 -19.5t19.5 -48.5t-19.5 -48.5t-48.5 -19.5t-48 19.5t-19 48.5zM127 -338l47 891h33l47 -897v-23q0 -7 1 -23t1 -26q0 -82 -66 -82q-65 0 -65 88v48q0 16 2 24z" />
<glyph unicode="&#xa2;" horiz-adv-x="966" d="M571 -193h-67v439q-193 17 -312.5 152.5t-119.5 336.5q0 205 124 341.5t308 148.5v413h67v-413q201 -12 318 -164l-41 -37q-113 130 -277 141v-858q160 7 281 142l43 -41q-141 -154 -324 -162v-439zM176 733q0 -176 93.5 -290t234.5 -132v850q-65 -6 -122.5 -35t-104 -80 t-74 -131.5t-27.5 -181.5z" />
<glyph unicode="&#xa3;" horiz-adv-x="1024" d="M678 647h-207q57 -103 57 -213q0 -79 -48.5 -161.5t-98.5 -116.5q35 -5 155 -51t183 -46q65 0 132.5 43.5t98.5 87.5l33 -26q-16 -24 -37 -48.5t-55.5 -57t-79 -52.5t-90.5 -20q-64 0 -140 26.5t-149.5 53t-132.5 26.5q-141 0 -207 -78l-31 27q29 41 95.5 83t146.5 42 q49 35 88 107t39 145q0 60 -22.5 113t-65.5 116h-248v64h201q-35 47 -48.5 66t-41 64.5t-39.5 77.5t-22.5 80t-10.5 97q0 145 107 251.5t270 106.5q59 0 114.5 -18.5t96.5 -49t69.5 -60t49.5 -60.5l-43 -37q-22 27 -31.5 38t-40.5 39.5t-57.5 42.5t-70 27t-91.5 13 q-130 0 -204.5 -79.5t-74.5 -215.5q0 -53 21.5 -107.5t47 -90.5t69.5 -93.5t67 -91.5h246v-64z" />
<glyph unicode="&#xa4;" horiz-adv-x="1503" d="M1122 592h-807q37 -242 206 -396.5t401 -154.5q138 0 248 47t212 133l39 -49q-218 -197 -501 -197q-185 0 -341 79.5t-256.5 219.5t-127.5 318h-154l22 63h125q-2 23 -2 62q0 51 2 76h-147l22 63h136q33 172 137 310t257 215t325 77q151 0 262 -46.5t209 -129.5l-37 -47 q-198 158 -428 158q-233 0 -399 -150t-208 -387h900l-23 -63h-887q-2 -25 -2 -76q0 -39 2 -62h838z" />
<glyph unicode="&#xa5;" horiz-adv-x="1159" d="M1020 1434h78q-91 -148 -263.5 -421.5t-207.5 -328.5v-61h243v-64h-243v-137h243v-64h-243v-358h-105v358h-243v64h243v137h-243v64h243v65l-461 746h123l412 -668z" />
<glyph unicode="&#xa6;" horiz-adv-x="325" d="M203 819h-80v819h80v-819zM123 614h80v-819h-80v819z" />
<glyph unicode="&#xa7;" horiz-adv-x="1005" d="M924 381q0 -136 -78.5 -238t-200.5 -135q197 -107 197 -309q0 -156 -106.5 -260.5t-270.5 -104.5q-114 0 -209.5 47t-140.5 101l37 37q39 -43 123 -81t194 -38q128 0 203.5 78.5t75.5 204.5q0 73 -38.5 128.5t-100 91.5t-135.5 68t-148.5 68.5t-136 82t-100 118.5 t-38.5 168q0 137 77.5 236.5t201.5 135.5q-197 107 -197 310q0 156 106 260t271 104q59 0 114.5 -18.5t96.5 -49t69.5 -60t49.5 -60.5l-43 -37q-22 27 -31.5 38t-40.5 39.5t-57.5 42.5t-70 27t-91.5 13q-128 0 -203.5 -78.5t-75.5 -204.5q0 -73 38.5 -128.5t100 -91.5 t136 -68t148.5 -68.5t135.5 -82t100 -118.5t38.5 -168zM823 365q0 42 -10.5 78.5t-24.5 63t-43 53.5t-50 43t-63.5 37.5t-65.5 31.5t-73.5 31t-70.5 30q-123 -20 -196.5 -105t-73.5 -204q0 -49 11.5 -90.5t41 -75.5t53 -56.5t75 -49.5t76.5 -38.5t88 -37.5q36 -15 54 -23 q124 23 198 108t74 204z" />
<glyph unicode="&#xa8;" horiz-adv-x="546" d="M61 1237q0 29 21.5 49.5t50.5 20.5q30 0 50 -20t20 -50q0 -29 -21.5 -49.5t-50.5 -20.5t-49.5 20.5t-20.5 49.5zM344 1237q0 29 21.5 49.5t50.5 20.5q30 0 49.5 -20t19.5 -50q0 -29 -21 -49.5t-50 -20.5t-49.5 20.5t-20.5 49.5z" />
<glyph unicode="&#xa9;" d="M1128 434l37 -51q-150 -135 -334 -135q-132 0 -239.5 63t-168.5 173.5t-61 244.5q0 202 138.5 341.5t330.5 139.5q179 0 316 -123l-39 -49q-126 107 -272 107q-164 0 -269.5 -118.5t-105.5 -297.5q0 -181 105 -299.5t268 -118.5q154 0 294 123zM82 711q0 205 98 376.5 t267.5 271t371.5 99.5q209 0 379.5 -98t266.5 -268.5t96 -378.5q0 -153 -57 -289.5t-155 -235t-236 -156t-294 -57.5q-204 0 -373 96.5t-266.5 265.5t-97.5 374zM197 705q0 -183 77.5 -334t221 -240.5t323.5 -89.5q184 0 328 89.5t221.5 243t77.5 343.5q0 192 -78 346 t-222 242t-327 88q-126 0 -239 -47.5t-198 -134.5t-135 -218t-50 -288z" />
<glyph unicode="&#xaa;" horiz-adv-x="632" d="M571 838h-90v63q-85 -78 -182 -78q-46 0 -85.5 9t-75 29.5t-56.5 58t-21 88.5q0 85 61 132.5t171 47.5h188v39q0 80 -48 121t-122 41q-87 0 -170 -80l-39 39q92 96 209 96q106 0 183 -54t77 -153v-399zM481 1026v107h-174q-74 0 -111.5 -35t-37.5 -90q0 -61 40.5 -95 t100.5 -34q84 0 133 48.5t49 98.5z" />
<glyph unicode="&#xab;" horiz-adv-x="784" d="M641 223l-18 -33q-38 13 -78 39.5t-78.5 64t-63 90t-24.5 108.5q0 110 72 193t174 118l14 -33q-75 -29 -121.5 -105.5t-46.5 -172.5q0 -101 52.5 -173t117.5 -96zM365 223l-19 -33q-38 13 -78 39.5t-78.5 64t-63 90t-24.5 108.5q0 110 72 193t174 118l14 -33 q-75 -29 -121 -105.5t-46 -172.5q0 -101 52.5 -173t117.5 -96z" />
<glyph unicode="&#xac;" horiz-adv-x="1134" d="M1032 287h-84v389h-846v82h930v-471z" />
<glyph unicode="&#xad;" horiz-adv-x="575" d="M473 446h-371v86h371v-86z" />
<glyph unicode="&#xae;" d="M1143 285h-107l-274 444h-98v-444h-91v932h189q124 0 190 -68.5t66 -173.5q0 -171 -164 -232zM924 975q0 77 -39.5 127.5t-126.5 50.5h-94v-360h94q166 0 166 182zM82 723q0 205 98 376.5t267.5 271t371.5 99.5q209 0 379.5 -98t266.5 -268.5t96 -378.5 q0 -153 -57 -289.5t-155.5 -234.5t-236 -155.5t-293.5 -57.5q-204 0 -373 96.5t-266.5 265t-97.5 373.5zM197 717q0 -183 77.5 -334t221 -240.5t323.5 -89.5q184 0 328 89.5t221.5 243t77.5 343.5q0 192 -78 346t-222 242t-327 88q-126 0 -239 -47.5t-198 -134.5t-135 -218 t-50 -288z" />
<glyph unicode="&#xaf;" horiz-adv-x="581" d="M500 1126h-418v78h418v-78z" />
<glyph unicode="&#xb0;" horiz-adv-x="497" d="M82 1276q0 72 48 120t118 48t119 -48.5t49 -119.5t-49 -118.5t-119 -47.5t-118 47.5t-48 118.5zM145 1276q0 -46 29.5 -75.5t73.5 -29.5q43 0 73.5 29.5t30.5 75.5t-30.5 75t-73.5 29q-44 0 -73.5 -29t-29.5 -75z" />
<glyph unicode="&#xb1;" horiz-adv-x="1134" d="M102 211v82h930v-82h-930zM102 854v82h424v424h82v-424h424v-82h-424v-426h-82v426h-424z" />
<glyph unicode="&#xb2;" horiz-adv-x="749" d="M668 539h-648l394 391q131 131 131 262q0 79 -61 130.5t-152 51.5q-66 0 -126 -42t-87 -128l-60 25q19 86 98.5 150.5t192.5 64.5q124 0 206.5 -73t82.5 -181q0 -51 -14.5 -97t-44 -88t-51 -66.5t-58.5 -61.5l-276 -273h473v-65z" />
<glyph unicode="&#xb3;" horiz-adv-x="694" d="M612 793q0 -113 -83.5 -190t-202.5 -77q-103 0 -179 56t-106 145l61 18q24 -68 81.5 -112.5t129.5 -44.5q99 0 151 59.5t52 145.5q0 82 -53.5 137t-134.5 55h-45v64q25 0 48.5 2.5t55.5 13t55 28t39.5 51t16.5 77.5q0 69 -48.5 115t-125.5 46q-58 0 -109 -33t-76 -96 l-59 15q28 83 96.5 129.5t151.5 46.5q122 0 192 -67.5t70 -162.5q0 -138 -150 -196q78 -29 125 -91t47 -134z" />
<glyph unicode="&#xb4;" horiz-adv-x="405" d="M111 1065h-50l146 201q29 42 46 58.5t40 16.5t37 -15t14 -36q0 -6 -1 -11t-2.5 -9t-5 -9t-5.5 -7.5t-7.5 -7.5t-7.5 -6.5t-9 -7.5t-9 -7z" />
<glyph unicode="&#xb5;" horiz-adv-x="1003" d="M231 -410h-98v1348h98v-627q0 -139 66 -205.5t170 -66.5q125 0 210 90t85 201v608h98v-938h-98v145q-42 -77 -126 -122.5t-179 -45.5q-82 0 -131 22t-95 64v-473z" />
<glyph unicode="&#xb6;" horiz-adv-x="962" d="M494 1368v-1573h-99v883q-48 0 -94 13t-90 43t-77 73.5t-53 109.5t-20 146q0 166 99 268.5t235 102.5h506v-66h-115v-1573h-98v1573h-194z" />
<glyph unicode="&#xb7;" horiz-adv-x="391" d="M268 717q0 -32 -20 -53t-51 -21q-32 0 -53 21t-21 53q0 31 21 52.5t53 21.5q30 0 50.5 -21.5t20.5 -52.5z" />
<glyph unicode="&#xb8;" horiz-adv-x="395" d="M145 -125l9 39q26 0 52 -5t57.5 -17.5t51 -41t19.5 -69.5q0 -57 -38.5 -89t-92.5 -32q-79 0 -142 66l27 28q46 -41 88 -41q39 0 61.5 22.5t22.5 55.5q0 32 -30.5 57.5t-84.5 26.5z" />
<glyph unicode="&#xb9;" horiz-adv-x="421" d="M299 539h-90v796l-146 -63l-22 41l258 143v-917z" />
<glyph unicode="&#xba;" horiz-adv-x="743" d="M682 1135q0 -139 -86 -225.5t-223 -86.5q-141 0 -226.5 85.5t-85.5 226.5q0 135 91 222t223 87q124 0 215.5 -86t91.5 -223zM584 1133q0 109 -55.5 183.5t-155.5 74.5q-102 0 -158.5 -74t-56.5 -182q0 -105 57 -180.5t158 -75.5q95 0 153 73.5t58 180.5z" />
<glyph unicode="&#xbb;" horiz-adv-x="784" d="M682 492q0 -56 -24.5 -108.5t-63 -90t-78.5 -64t-78 -39.5l-18 33q65 24 117.5 96t52.5 173q0 96 -46.5 172.5t-121.5 105.5l14 33q102 -35 174 -118t72 -193zM406 492q0 -56 -24.5 -108.5t-63 -90t-78.5 -64t-78 -39.5l-19 33q65 24 117.5 96t52.5 173q0 96 -46.5 172.5 t-121.5 105.5l15 33q102 -35 174 -118t72 -193z" />
<glyph unicode="&#xbc;" horiz-adv-x="1488" d="M340 539h-90v796l-146 -63l-22 41l258 143v-917zM252 -41h-86l993 1516h86zM1407 229h-170v-229h-90v229h-471l561 725v-665h170v-60zM1147 289v444l-342 -444h342z" />
<glyph unicode="&#xbd;" horiz-adv-x="1617" d="M340 539h-90v796l-146 -63l-22 41l258 143v-917zM252 -41h-86l993 1516h86zM1534 0h-647l432 412q56 52 89.5 108.5t33.5 132.5q0 79 -61 131t-152 52q-66 0 -126 -42t-87 -128l-60 24q19 86 98.5 150.5t192.5 64.5q124 0 206.5 -73t82.5 -181q0 -50 -13.5 -94.5 t-40.5 -82t-49 -61t-57 -55.5l-315 -292h473v-66z" />
<glyph unicode="&#xbe;" horiz-adv-x="1687" d="M653 793q0 -113 -83.5 -190t-202.5 -77q-103 0 -179 56t-106 145l61 18q24 -68 81.5 -112.5t129.5 -44.5q99 0 151 59.5t52 145.5q0 82 -53.5 137t-134.5 55h-45v64q25 0 48.5 2.5t55.5 13t55 28t39.5 51t16.5 77.5q0 69 -48.5 115t-125.5 46q-58 0 -109 -33t-76 -96 l-59 15q28 83 96.5 129.5t151.5 46.5q122 0 192 -67.5t70 -162.5q0 -138 -150 -196q78 -29 125 -91t47 -134zM451 -41h-86l993 1516h86zM1606 229h-170v-229h-90v229h-472l562 725v-665h170v-60zM1346 289v444l-342 -444h342z" />
<glyph unicode="&#xbf;" horiz-adv-x="768" d="M410 -440q149 0 256 118l41 -38q-42 -57 -120 -100.5t-177 -43.5q-176 0 -272.5 89.5t-96.5 230.5q0 64 20 118t52.5 91t74.5 71.5t85.5 59t85.5 53.5t74.5 56.5t52.5 65.5t20 83q0 71 -31 113t-90 69l23 45q81 -31 122 -84.5t41 -142.5q0 -58 -23.5 -108t-61 -86 t-83 -70l-91 -68t-83 -70t-61 -86t-23.5 -108q0 -119 73.5 -188.5t191.5 -69.5zM338 893q0 29 19.5 48.5t48.5 19.5t48 -19.5t19 -48.5t-19 -48.5t-48 -19.5t-48.5 19.5t-19.5 48.5z" />
<glyph unicode="&#xc0;" horiz-adv-x="1232" d="M627 1466l585 -1466h-112l-193 483h-612l-195 -483h-80zM604 1247l-285 -704h564zM670 1559h-49l-109 57q-39 22 -53.5 35.5t-14.5 36.5q0 21 14.5 36t37.5 15q15 0 30 -10.5t23.5 -20t30.5 -37.5z" />
<glyph unicode="&#xc1;" horiz-adv-x="1232" d="M627 1466l585 -1466h-112l-193 483h-612l-195 -483h-80zM604 1247l-285 -704h564zM637 1556h-49l90 113q22 28 30.5 37.5t23.5 20t30 10.5q23 0 37 -15t14 -36q0 -23 -14.5 -36.5t-53.5 -35.5z" />
<glyph unicode="&#xc2;" horiz-adv-x="1232" d="M627 1466l585 -1466h-112l-193 483h-612l-195 -483h-80zM604 1247l-285 -704h564zM459 1556h-49l114 109q28 26 40.5 36.5t29 19t31.5 8.5q20 0 42 -15t58 -49l115 -109h-49l-166 89z" />
<glyph unicode="&#xc3;" horiz-adv-x="1232" d="M627 1466l585 -1466h-112l-193 483h-612l-195 -483h-80zM604 1247l-285 -704h564zM811 1688h49q0 -68 -35 -105t-96 -37q-41 0 -107 40t-104 40q-28 0 -46.5 -19t-18.5 -51h-50q0 53 34.5 97.5t94.5 44.5q41 0 108 -40t108 -40q27 0 45 18.5t18 51.5z" />
<glyph unicode="&#xc4;" horiz-adv-x="1232" d="M627 1466l585 -1466h-112l-193 483h-612l-195 -483h-80zM604 1247l-285 -704h564zM408 1645q0 29 21 50t50 21t50.5 -21t21.5 -50t-21.5 -49.5t-50.5 -20.5t-50 20.5t-21 49.5zM702 1645q0 29 20.5 50t49.5 21q31 0 52.5 -21t21.5 -50t-21.5 -49.5t-52.5 -20.5 q-29 0 -49.5 20.5t-20.5 49.5z" />
<glyph unicode="&#xc5;" horiz-adv-x="1232" d="M627 1466l585 -1466h-112l-193 483h-612l-195 -483h-80zM604 1247l-285 -704h564zM485 1614q0 63 41 102t101 39t100.5 -39.5t40.5 -101.5q0 -63 -40.5 -102t-100.5 -39t-101 39t-41 102zM541 1614q0 -40 24 -64t62 -24t63 24t25 64t-25 65t-63 25q-37 0 -61.5 -24.5 t-24.5 -65.5z" />
<glyph unicode="&#xc6;" horiz-adv-x="1867" d="M924 1434h780v-66h-664l78 -557h576v-66h-566l95 -679h522v-66h-619l-69 483h-662l-311 -483h-84zM938 1327l-504 -784h615z" />
<glyph unicode="&#xc7;" horiz-adv-x="1396" d="M1280 215l35 -39q-222 -201 -500 -201q-205 0 -373 97t-264 267t-96 378q0 155 59.5 293.5t159 236t233.5 154.5t279 57q151 0 262 -46.5t209 -129.5l-33 -41q-191 152 -432 152q-133 0 -249.5 -52.5t-198 -143t-128 -215.5t-46.5 -265q0 -143 47.5 -268.5t130 -215 t197.5 -141t245 -51.5q257 0 463 174zM752 -125l8 39q26 0 52 -5t57.5 -17.5t51 -41t19.5 -69.5q0 -57 -38.5 -89t-92.5 -32q-78 0 -141 66l26 28q46 -41 88 -41q39 0 61.5 22.5t22.5 55.5q0 32 -30 57.5t-84 26.5z" />
<glyph unicode="&#xc8;" horiz-adv-x="958" d="M836 0h-672v1434h672v-66h-566v-557h555v-66h-555v-679h566v-66zM567 1556h-49l-108 58q-39 22 -53.5 35.5t-14.5 36.5q0 21 14 36t37 15q15 0 30 -10.5t23.5 -20t30.5 -37.5z" />
<glyph unicode="&#xc9;" horiz-adv-x="958" d="M836 0h-672v1434h672v-66h-566v-557h555v-66h-555v-679h566v-66zM518 1556h-49l90 113q22 28 30.5 37.5t23.5 20t30 10.5q23 0 37 -15t14 -36q0 -23 -14.5 -37t-52.5 -35z" />
<glyph unicode="&#xca;" horiz-adv-x="958" d="M836 0h-672v1434h672v-66h-566v-557h555v-66h-555v-679h566v-66zM356 1556h-49l115 109q29 27 40.5 36.5t28 18.5t31.5 9q34 0 101 -64l114 -109h-49l-166 89z" />
<glyph unicode="&#xcb;" horiz-adv-x="958" d="M836 0h-672v1434h672v-66h-566v-557h555v-66h-555v-679h566v-66zM297 1645q0 29 21.5 50t50.5 21t50 -21t21 -50t-21 -49.5t-50 -20.5t-50.5 20.5t-21.5 49.5zM592 1645q0 29 20.5 50t49.5 21q31 0 52 -21t21 -50t-21 -49.5t-52 -20.5q-29 0 -49.5 20.5t-20.5 49.5z" />
<glyph unicode="&#xcc;" horiz-adv-x="434" d="M270 0h-106v1434h106v-1434zM270 1556h-49l-108 58q-39 22 -53.5 35.5t-14.5 36.5q0 21 14 36t37 15q15 0 30 -10.5t23.5 -20t30.5 -37.5z" />
<glyph unicode="&#xcd;" horiz-adv-x="434" d="M270 0h-106v1434h106v-1434zM213 1556h-49l90 113q22 28 30.5 37.5t23.5 20t30 10.5q23 0 37 -15t14 -36q0 -23 -14.5 -37t-52.5 -35z" />
<glyph unicode="&#xce;" horiz-adv-x="434" d="M270 0h-106v1434h106v-1434zM51 1556h-49l115 109q29 27 40.5 36.5t28 18.5t31.5 9q20 0 42 -15t58 -49l115 -109h-49l-166 89z" />
<glyph unicode="&#xcf;" horiz-adv-x="434" d="M270 0h-106v1434h106v-1434zM0 1647q0 29 21.5 50t50.5 21t50 -21t21 -50t-21 -49.5t-50 -20.5t-50.5 20.5t-21.5 49.5zM295 1647q0 29 20.5 50t49.5 21q31 0 52 -21t21 -50t-21 -49.5t-52 -20.5q-29 0 -49.5 20.5t-20.5 49.5z" />
<glyph unicode="&#xd0;" horiz-adv-x="1288" d="M1206 725q0 -153 -53.5 -286.5t-149.5 -230.5t-236 -152.5t-306 -55.5h-297v709h-115v63h115v662h289q178 0 323 -57t237.5 -155t142.5 -225.5t50 -271.5zM639 709h-369v-643h193q289 0 456.5 180t167.5 483q0 94 -21.5 183t-70.5 172.5t-121 146t-181 100t-242 37.5 h-181v-596h369v-63z" />
<glyph unicode="&#xd1;" horiz-adv-x="1556" d="M164 0v1485l1149 -1264v1213h80v-1467l-1149 1262v-1229h-80zM965 1688h49q0 -68 -35 -105t-96 -37q-41 0 -107 40t-104 40q-28 0 -47 -19t-19 -51h-49q0 53 34.5 97.5t94.5 44.5q41 0 107.5 -40t107.5 -40q27 0 45.5 18.5t18.5 51.5z" />
<glyph unicode="&#xd2;" d="M82 711q0 205 98 376.5t267.5 271t371.5 99.5q209 0 379.5 -98t266.5 -268.5t96 -378.5q0 -153 -57 -289.5t-155 -235t-236 -156t-294 -57.5q-204 0 -373 96.5t-266.5 265.5t-97.5 374zM197 705q0 -183 77.5 -334t221 -240.5t323.5 -89.5q184 0 328 89.5t221.5 243 t77.5 343.5q0 192 -78 346t-222 242t-327 88q-126 0 -239 -47.5t-198 -134.5t-135 -218t-50 -288zM881 1577h-50l-108 57q-39 22 -53.5 35.5t-14.5 36.5q0 21 14.5 36t37.5 15q15 0 29.5 -10t24 -20t30.5 -37z" />
<glyph unicode="&#xd3;" d="M82 711q0 205 98 376.5t267.5 271t371.5 99.5q209 0 379.5 -98t266.5 -268.5t96 -378.5q0 -153 -57 -289.5t-155 -235t-236 -156t-294 -57.5q-204 0 -373 96.5t-266.5 265.5t-97.5 374zM197 705q0 -183 77.5 -334t221 -240.5t323.5 -89.5q184 0 328 89.5t221.5 243 t77.5 343.5q0 192 -78 346t-222 242t-327 88q-126 0 -239 -47.5t-198 -134.5t-135 -218t-50 -288zM817 1577h-49l90 113q21 27 30.5 37t24 20t29.5 10q23 0 37 -15t14 -36q0 -23 -14.5 -37t-52.5 -35z" />
<glyph unicode="&#xd4;" d="M82 711q0 205 98 376.5t267.5 271t371.5 99.5q209 0 379.5 -98t266.5 -268.5t96 -378.5q0 -153 -57 -289.5t-155 -235t-236 -156t-294 -57.5q-204 0 -373 96.5t-266.5 265.5t-97.5 374zM197 705q0 -183 77.5 -334t221 -240.5t323.5 -89.5q184 0 328 89.5t221.5 243 t77.5 343.5q0 192 -78 346t-222 242t-327 88q-126 0 -239 -47.5t-198 -134.5t-135 -218t-50 -288zM657 1577h-49l115 109q28 25 40.5 35.5t28.5 19t31 8.5q35 0 101 -63l114 -109h-49l-166 88z" />
<glyph unicode="&#xd5;" d="M82 711q0 205 98 376.5t267.5 271t371.5 99.5q209 0 379.5 -98t266.5 -268.5t96 -378.5q0 -153 -57 -289.5t-155 -235t-236 -156t-294 -57.5q-204 0 -373 96.5t-266.5 265.5t-97.5 374zM197 705q0 -183 77.5 -334t221 -240.5t323.5 -89.5q184 0 328 89.5t221.5 243 t77.5 343.5q0 192 -78 346t-222 242t-327 88q-126 0 -239 -47.5t-198 -134.5t-135 -218t-50 -288zM1022 1718h49q0 -68 -35 -104.5t-96 -36.5q-42 0 -107 40t-104 40q-28 0 -46.5 -19t-18.5 -51h-50q0 53 34.5 97.5t94.5 44.5q41 0 107.5 -40t107.5 -40q28 0 46 18.5 t18 50.5z" />
<glyph unicode="&#xd6;" d="M82 711q0 205 98 376.5t267.5 271t371.5 99.5q209 0 379.5 -98t266.5 -268.5t96 -378.5q0 -153 -57 -289.5t-155 -235t-236 -156t-294 -57.5q-204 0 -373 96.5t-266.5 265.5t-97.5 374zM197 705q0 -183 77.5 -334t221 -240.5t323.5 -89.5q184 0 328 89.5t221.5 243 t77.5 343.5q0 192 -78 346t-222 242t-327 88q-126 0 -239 -47.5t-198 -134.5t-135 -218t-50 -288zM602 1645q0 29 21.5 50t50.5 21t50 -21t21 -50t-21 -49.5t-50 -20.5t-50.5 20.5t-21.5 49.5zM897 1645q0 29 20.5 50t49.5 21q31 0 52 -21t21 -50t-21 -49.5t-52 -20.5 q-29 0 -49.5 20.5t-20.5 49.5z" />
<glyph unicode="&#xd7;" horiz-adv-x="964" d="M164 340l-62 55l322 320l-322 321l62 56l317 -318l320 320l61 -56l-323 -323l323 -322l-61 -55l-320 319z" />
<glyph unicode="&#xd8;" d="M367 -41l-64 35l78 119q-140 102 -219.5 257.5t-79.5 340.5q0 205 98 376.5t267.5 271t371.5 99.5q203 0 379 -98l76 115l61 -37l-75 -117q143 -104 222 -261t79 -347q0 -153 -57 -289.5t-155 -235t-236 -156t-294 -57.5q-202 0 -377 101zM1446 717q0 166 -60.5 304.5 t-171.5 231.5l-731 -1114q143 -98 336 -98q184 0 328 89.5t221.5 243t77.5 343.5zM197 705q0 -160 59.5 -296.5t169.5 -228.5l731 1116q-148 97 -338 97q-126 0 -239 -47.5t-198 -134.5t-135 -218t-50 -288z" />
<glyph unicode="&#xd9;" horiz-adv-x="1280" d="M1137 1434v-918q0 -244 -135.5 -390t-354.5 -146q-229 0 -366.5 145.5t-137.5 390.5v918h107v-916q0 -104 21 -187t66.5 -148.5t124 -101.5t185.5 -36q105 0 185.5 39.5t128.5 109t72 156.5t24 189v895h80zM688 1556h-49l-109 58q-38 21 -52.5 35t-14.5 37q0 21 14 36 t37 15q15 0 30 -10.5t23.5 -20t30.5 -37.5z" />
<glyph unicode="&#xda;" horiz-adv-x="1280" d="M1137 1434v-918q0 -244 -135.5 -390t-354.5 -146q-229 0 -366.5 145.5t-137.5 390.5v918h107v-916q0 -104 21 -187t66.5 -148.5t124 -101.5t185.5 -36q105 0 185.5 39.5t128.5 109t72 156.5t24 189v895h80zM623 1556h-50l91 113q22 28 30.5 37.5t23.5 20t30 10.5 q23 0 37 -15t14 -36q0 -23 -14.5 -36.5t-53.5 -35.5z" />
<glyph unicode="&#xdb;" horiz-adv-x="1280" d="M1137 1434v-918q0 -244 -135.5 -390t-354.5 -146q-229 0 -366.5 145.5t-137.5 390.5v918h107v-916q0 -104 21 -187t66.5 -148.5t124 -101.5t185.5 -36q105 0 185.5 39.5t128.5 109t72 156.5t24 189v895h80zM473 1556h-49l115 109q29 27 40.5 36.5t28 18.5t31.5 9 q20 0 42 -15t58 -49l115 -109h-49l-166 89z" />
<glyph unicode="&#xdc;" horiz-adv-x="1280" d="M1137 1434v-918q0 -244 -135.5 -390t-354.5 -146q-229 0 -366.5 145.5t-137.5 390.5v918h107v-916q0 -104 21 -187t66.5 -148.5t124 -101.5t185.5 -36q105 0 185.5 39.5t128.5 109t72 156.5t24 189v895h80zM428 1645q0 29 21.5 50t50.5 21t50 -21t21 -50t-21 -49.5 t-50 -20.5t-50.5 20.5t-21.5 49.5zM723 1645q0 29 20.5 50t49.5 21q31 0 52 -21t21 -50t-21 -49.5t-52 -20.5q-29 0 -49.5 20.5t-20.5 49.5z" />
<glyph unicode="&#xdd;" horiz-adv-x="1052" d="M457 0v647l-447 787h113l407 -717l439 717h73l-479 -793v-641h-106zM510 1556h-49l90 113q22 28 30.5 37.5t23.5 20t30 10.5q23 0 37 -15t14 -36q0 -23 -14.5 -36.5t-53.5 -35.5z" />
<glyph unicode="&#xde;" horiz-adv-x="919" d="M250 0h-107v1434h107v-328h160q204 0 316 -99.5t112 -263.5q0 -175 -117.5 -275.5t-331.5 -100.5h-139v-367zM727 741q0 143 -76 221t-227 78h-174v-606h172q160 0 232.5 79t72.5 228z" />
<glyph unicode="&#xdf;" horiz-adv-x="1091" d="M561 768q0 -49 27 -86.5t70 -62t95.5 -47t105 -49t95.5 -59.5t70 -87t27 -125q0 -127 -86 -199.5t-248 -72.5q-101 0 -177 49.5t-120 115.5l43 31q107 -135 254 -135q127 0 186.5 54t59.5 145q0 53 -27.5 94.5t-71 68.5t-96.5 50.5t-106 48t-96.5 53.5t-71 75t-27.5 105 q0 54 18 95.5t47 68t64 48.5t70 44.5t64 49.5t47 69.5t18 97.5q0 112 -72.5 184t-192.5 72q-57 0 -103 -18.5t-76.5 -50.5t-50.5 -76.5t-29 -94.5t-9 -108v-1116h-98v1126q0 62 13.5 119.5t42.5 109t71 89.5t103.5 60t135.5 22q80 0 144.5 -27t104 -72.5t60.5 -101.5 t21 -117t-16.5 -109.5t-43 -79t-58.5 -55t-63.5 -44.5t-58 -40t-43 -48.5t-16.5 -63.5z" />
<glyph unicode="&#xe0;" horiz-adv-x="993" d="M850 0h-96v143q-51 -77 -131.5 -120t-182.5 -43q-55 0 -103.5 8t-96.5 28t-82 50.5t-55 80.5t-21 113q0 130 92.5 205.5t255.5 75.5h324v82q0 71 -24 125.5t-66 86.5t-94 48t-113 16q-151 0 -264 -113l-39 37q134 138 303 138q76 0 145 -20t125 -58.5t89.5 -101.5 t33.5 -142v-639zM754 293v184h-301q-130 0 -199.5 -60.5t-69.5 -156.5q0 -106 74.5 -162.5t181.5 -56.5q73 0 135 25.5t99.5 64t58.5 81.5t21 81zM555 1065h-49l-187 160q-6 6 -16.5 15t-16 14t-10 14.5t-4.5 21.5q0 21 14.5 36t37.5 15q7 0 13.5 -1.5t13 -5.5t10.5 -7 t11 -11t10 -12l12 -16l12 -16z" />
<glyph unicode="&#xe1;" horiz-adv-x="993" d="M850 0h-96v143q-51 -77 -131.5 -120t-182.5 -43q-55 0 -103.5 8t-96.5 28t-82 50.5t-55 80.5t-21 113q0 130 92.5 205.5t255.5 75.5h324v82q0 71 -24 125.5t-66 86.5t-94 48t-113 16q-151 0 -264 -113l-39 37q134 138 303 138q76 0 145 -20t125 -58.5t89.5 -101.5 t33.5 -142v-639zM754 293v184h-301q-130 0 -199.5 -60.5t-69.5 -156.5q0 -106 74.5 -162.5t181.5 -56.5q73 0 135 25.5t99.5 64t58.5 81.5t21 81zM471 1065h-49l145 201q29 42 46 58.5t40 16.5t37.5 -15t14.5 -36q0 -6 -1 -12t-4.5 -11.5t-5.5 -9t-8 -8.5t-8.5 -7.5 t-10.5 -8.5t-10 -8z" />
<glyph unicode="&#xe2;" horiz-adv-x="993" d="M850 0h-96v143q-51 -77 -131.5 -120t-182.5 -43q-55 0 -103.5 8t-96.5 28t-82 50.5t-55 80.5t-21 113q0 130 92.5 205.5t255.5 75.5h324v82q0 71 -24 125.5t-66 86.5t-94 48t-113 16q-151 0 -264 -113l-39 37q134 138 303 138q76 0 145 -20t125 -58.5t89.5 -101.5 t33.5 -142v-639zM754 293v184h-301q-130 0 -199.5 -60.5t-69.5 -156.5q0 -106 74.5 -162.5t181.5 -56.5q73 0 135 25.5t99.5 64t58.5 81.5t21 81zM270 1065h-49l170 192q37 40 54.5 55t33.5 15q17 0 29.5 -10.5t47.5 -49.5q6 -7 9 -10l170 -192h-49l-209 160z" />
<glyph unicode="&#xe3;" horiz-adv-x="993" d="M850 0h-96v143q-51 -77 -131.5 -120t-182.5 -43q-55 0 -103.5 8t-96.5 28t-82 50.5t-55 80.5t-21 113q0 130 92.5 205.5t255.5 75.5h324v82q0 71 -24 125.5t-66 86.5t-94 48t-113 16q-151 0 -264 -113l-39 37q134 138 303 138q76 0 145 -20t125 -58.5t89.5 -101.5 t33.5 -142v-639zM754 293v184h-301q-130 0 -199.5 -60.5t-69.5 -156.5q0 -106 74.5 -162.5t181.5 -56.5q73 0 135 25.5t99.5 64t58.5 81.5t21 81zM733 1264h47q-10 -103 -52 -156t-112 -53q-36 0 -70.5 15t-61 36.5t-50.5 42.5t-49 36t-47 15q-68 0 -102 -135h-50 q13 87 57 145t117 58q37 0 69 -15t55 -36t45 -42t49 -36t57 -15q37 0 64 36.5t34 103.5z" />
<glyph unicode="&#xe4;" horiz-adv-x="993" d="M850 0h-96v143q-51 -77 -131.5 -120t-182.5 -43q-55 0 -103.5 8t-96.5 28t-82 50.5t-55 80.5t-21 113q0 130 92.5 205.5t255.5 75.5h324v82q0 71 -24 125.5t-66 86.5t-94 48t-113 16q-151 0 -264 -113l-39 37q134 138 303 138q76 0 145 -20t125 -58.5t89.5 -101.5 t33.5 -142v-639zM754 293v184h-301q-130 0 -199.5 -60.5t-69.5 -156.5q0 -106 74.5 -162.5t181.5 -56.5q73 0 135 25.5t99.5 64t58.5 81.5t21 81zM274 1237q0 29 21.5 49.5t50.5 20.5q30 0 50 -20t20 -50q0 -29 -21.5 -49.5t-50.5 -20.5t-49.5 20.5t-20.5 49.5zM557 1237 q0 29 21.5 49.5t50.5 20.5q30 0 49.5 -20t19.5 -50q0 -29 -21 -49.5t-50 -20.5t-49.5 20.5t-20.5 49.5z" />
<glyph unicode="&#xe5;" horiz-adv-x="993" d="M850 0h-96v143q-51 -77 -131.5 -120t-182.5 -43q-55 0 -103.5 8t-96.5 28t-82 50.5t-55 80.5t-21 113q0 130 92.5 205.5t255.5 75.5h324v82q0 71 -24 125.5t-66 86.5t-94 48t-113 16q-151 0 -264 -113l-39 37q134 138 303 138q76 0 145 -20t125 -58.5t89.5 -101.5 t33.5 -142v-639zM754 293v184h-301q-130 0 -199.5 -60.5t-69.5 -156.5q0 -106 74.5 -162.5t181.5 -56.5q73 0 135 25.5t99.5 64t58.5 81.5t21 81zM330 1214q0 63 43.5 106.5t105.5 43.5q66 0 108 -41.5t42 -108.5q0 -65 -43.5 -107t-106.5 -42q-67 0 -108 40.5t-41 108.5z M387 1214q0 -44 25.5 -71t66.5 -27q39 0 66.5 28.5t27.5 69.5q0 44 -26 70.5t-68 26.5q-38 0 -65 -28t-27 -69z" />
<glyph unicode="&#xe6;" horiz-adv-x="1736" d="M1645 477h-789q0 -118 44 -217t128 -159t191 -60q119 0 196.5 49.5t140.5 145.5l48 -33q-49 -96 -153.5 -162t-248.5 -66q-127 0 -225.5 57.5t-155.5 162.5q-46 -107 -152 -163.5t-239 -56.5q-51 0 -98 8.5t-93.5 29.5t-80.5 52.5t-55 81.5t-21 113q0 130 92.5 205.5 t255.5 75.5h324v82q0 138 -84 204t-213 66q-158 0 -267 -109l-36 39q134 138 303 138q80 0 153 -22t133 -70.5t86 -116.5q60 99 157.5 154t213.5 55q85 0 164 -32.5t142 -92t101 -153t38 -206.5zM754 293v184h-301q-130 0 -199.5 -60.5t-69.5 -156.5q0 -105 76.5 -161 t192.5 -56q124 0 212.5 81t88.5 169zM860 541h680q-12 158 -103 256t-237 98q-73 0 -137 -32t-106 -83.5t-67.5 -113.5t-29.5 -125z" />
<glyph unicode="&#xe7;" horiz-adv-x="966" d="M889 795l-41 -37q-124 141 -299 141q-71 0 -135.5 -25.5t-118.5 -75.5t-86.5 -135.5t-32.5 -195.5q0 -98 30.5 -179.5t82.5 -134.5t120.5 -82.5t145.5 -29.5q167 0 297 141l43 -41q-145 -161 -350 -161q-208 0 -340.5 138t-132.5 351q0 107 37 199.5t100.5 156t149 100 t180.5 36.5q222 0 350 -166zM487 -125l9 39q26 0 52 -5t57.5 -17.5t51 -41t19.5 -69.5q0 -57 -38.5 -89t-92.5 -32q-79 0 -142 66l27 28q46 -41 88 -41q39 0 61.5 22.5t22.5 55.5q0 32 -30.5 57.5t-84.5 26.5z" />
<glyph unicode="&#xe8;" horiz-adv-x="1054" d="M963 477h-789q0 -118 44 -217t128 -159t191 -60q119 0 196.5 49.5t140.5 145.5l48 -33q-49 -95 -153.5 -159t-248.5 -64q-198 0 -323 136.5t-125 356.5q0 212 130 350t316 138q85 0 164 -32.5t142 -92t101 -153t38 -206.5zM178 541h680q-12 158 -103 258t-237 100 q-73 0 -137 -32.5t-106 -85t-67.5 -115t-29.5 -125.5zM584 1065h-49l-187 160q-6 6 -16.5 15t-16 14t-10 14.5t-4.5 21.5q0 21 14 36t37 15q7 0 13.5 -1.5t13 -5.5t10.5 -7t11 -11t10 -12l12 -16l12 -16z" />
<glyph unicode="&#xe9;" horiz-adv-x="1054" d="M963 477h-789q0 -118 44 -217t128 -159t191 -60q119 0 196.5 49.5t140.5 145.5l48 -33q-49 -95 -153.5 -159t-248.5 -64q-198 0 -323 136.5t-125 356.5q0 212 130 350t316 138q85 0 164 -32.5t142 -92t101 -153t38 -206.5zM178 541h680q-12 158 -103 258t-237 100 q-73 0 -137 -32.5t-106 -85t-67.5 -115t-29.5 -125.5zM510 1065h-49l145 201q29 42 46 58.5t40 16.5t37 -15t14 -36q0 -6 -1 -11t-2.5 -9t-5 -9t-5.5 -7.5t-7.5 -7.5t-7.5 -6.5t-9 -7.5t-9 -7z" />
<glyph unicode="&#xea;" horiz-adv-x="1054" d="M963 477h-789q0 -118 44 -217t128 -159t191 -60q119 0 196.5 49.5t140.5 145.5l48 -33q-49 -95 -153.5 -159t-248.5 -64q-198 0 -323 136.5t-125 356.5q0 212 130 350t316 138q85 0 164 -32.5t142 -92t101 -153t38 -206.5zM178 541h680q-12 158 -103 258t-237 100 q-73 0 -137 -32.5t-106 -85t-67.5 -115t-29.5 -125.5zM317 1065h-49l170 192q37 40 54.5 55t33.5 15q17 0 29.5 -10.5t47.5 -49.5q6 -7 9 -10l170 -192h-49l-209 160z" />
<glyph unicode="&#xeb;" horiz-adv-x="1054" d="M963 477h-789q0 -118 44 -217t128 -159t191 -60q119 0 196.5 49.5t140.5 145.5l48 -33q-49 -95 -153.5 -159t-248.5 -64q-198 0 -323 136.5t-125 356.5q0 212 130 350t316 138q85 0 164 -32.5t142 -92t101 -153t38 -206.5zM178 541h680q-12 158 -103 258t-237 100 q-73 0 -137 -32.5t-106 -85t-67.5 -115t-29.5 -125.5zM315 1237q0 29 21.5 49.5t50.5 20.5q30 0 50 -20t20 -50q0 -29 -21.5 -49.5t-50.5 -20.5t-49.5 20.5t-20.5 49.5zM598 1237q0 29 21.5 49.5t50.5 20.5q30 0 49.5 -20t19.5 -50q0 -29 -21 -49.5t-50 -20.5t-49.5 20.5 t-20.5 49.5z" />
<glyph unicode="&#xec;" horiz-adv-x="385" d="M242 1065h-49l-187 160q-6 6 -16.5 15t-16 14t-10 14.5t-4.5 21.5q0 21 14 36t37 15q7 0 13.5 -1.5t13 -5.5t10.5 -7t11 -11t10 -12l12 -16l12 -16zM242 0h-99v938h99v-938z" />
<glyph unicode="&#xed;" horiz-adv-x="385" d="M193 1065h-50l146 201q29 42 46 58.5t40 16.5t37 -15t14 -36q0 -6 -1 -11t-2.5 -9t-5 -9t-5.5 -7.5t-7.5 -7.5t-7.5 -6.5t-9 -7.5t-9 -7zM242 0h-99v938h99v-938z" />
<glyph unicode="&#xee;" horiz-adv-x="385" d="M242 0h-99v938h99v-938zM-14 1065h-49l169 192q36 39 54.5 54.5t34.5 15.5q17 0 29.5 -10.5t47.5 -49.5q6 -7 9 -10l170 -192h-50l-208 160z" />
<glyph unicode="&#xef;" horiz-adv-x="385" d="M-20 1237q0 29 21 49.5t50 20.5q30 0 50 -20t20 -50q0 -29 -21.5 -49.5t-50.5 -20.5t-49 20.5t-20 49.5zM262 1237q0 29 21.5 49.5t50.5 20.5q30 0 49.5 -20t19.5 -50q0 -29 -21 -49.5t-50 -20.5t-49.5 20.5t-20.5 49.5zM242 0h-99v938h99v-938z" />
<glyph unicode="&#xf0;" horiz-adv-x="1087" d="M1016 489v-16q0 -217 -132 -355t-337 -138q-212 0 -343.5 136t-131.5 357q0 213 137 350.5t340 137.5q97 0 178 -37.5t139 -102.5q-64 175 -148.5 291.5t-199.5 218.5l-295 -168l-28 54l274 155q-102 80 -252 172l33 47q154 -83 285 -182l292 166l29 -53l-272 -154 q80 -69 168 -170q119 -146 191.5 -328t72.5 -381zM909 469q0 184 -98 307t-264 123q-115 0 -200 -58.5t-127 -154t-42 -215.5q0 -86 25 -163.5t70.5 -137t116 -94.5t155.5 -35q162 0 263 123.5t101 304.5z" />
<glyph unicode="&#xf1;" horiz-adv-x="1003" d="M870 0h-98v627q0 139 -66 205.5t-169 66.5q-125 0 -210 -90t-85 -201v-608h-99v938h99v-145q42 77 126 122.5t179 45.5q82 0 145.5 -26.5t101.5 -73t57 -104.5t19 -126v-631zM758 1251h47q-10 -103 -52 -156t-112 -53q-44 0 -87 23t-71 50t-61 50t-60 23q-68 0 -102 -135 h-49q13 86 57 144t117 58q37 0 69 -14.5t55 -35.5t44.5 -42.5t48.5 -36t57 -14.5q37 0 64.5 36t34.5 103z" />
<glyph unicode="&#xf2;" horiz-adv-x="1087" d="M1016 473q0 -217 -132 -355t-337 -138q-212 0 -343.5 136t-131.5 357q0 213 137 350.5t340 137.5q90 0 174 -34t149.5 -95.5t104.5 -155t39 -203.5zM909 469q0 184 -98 307t-264 123q-115 0 -200 -58.5t-127 -154t-42 -215.5q0 -86 25 -163.5t70.5 -137t116 -94.5 t155.5 -35q162 0 263 123.5t101 304.5zM618 1065h-49l-186 160q-6 6 -16.5 15t-16 14t-10 14.5t-4.5 21.5q0 21 14 36t37 15q7 0 13.5 -1.5t13 -5.5t10.5 -7t11 -11t10 -12l12 -16l12 -16z" />
<glyph unicode="&#xf3;" horiz-adv-x="1087" d="M1016 473q0 -217 -132 -355t-337 -138q-212 0 -343.5 136t-131.5 357q0 213 137 350.5t340 137.5q90 0 174 -34t149.5 -95.5t104.5 -155t39 -203.5zM909 469q0 184 -98 307t-264 123q-115 0 -200 -58.5t-127 -154t-42 -215.5q0 -86 25 -163.5t70.5 -137t116 -94.5 t155.5 -35q162 0 263 123.5t101 304.5zM532 1065h-49l146 201q29 42 46 58.5t40 16.5t37 -15t14 -36q0 -6 -1 -11t-2.5 -9t-5 -9t-5.5 -7.5t-7.5 -7.5t-7.5 -6.5t-9 -7.5t-9 -7z" />
<glyph unicode="&#xf4;" horiz-adv-x="1087" d="M1016 473q0 -217 -132 -355t-337 -138q-212 0 -343.5 136t-131.5 357q0 213 137 350.5t340 137.5q90 0 174 -34t149.5 -95.5t104.5 -155t39 -203.5zM909 469q0 184 -98 307t-264 123q-115 0 -200 -58.5t-127 -154t-42 -215.5q0 -86 25 -163.5t70.5 -137t116 -94.5 t155.5 -35q162 0 263 123.5t101 304.5zM326 1065h-50l170 192q36 39 54.5 54.5t34.5 15.5q17 0 29.5 -10.5t47.5 -49.5q6 -7 9 -10l170 -192h-50l-209 160z" />
<glyph unicode="&#xf5;" horiz-adv-x="1087" d="M1016 473q0 -217 -132 -355t-337 -138q-212 0 -343.5 136t-131.5 357q0 213 137 350.5t340 137.5q90 0 174 -34t149.5 -95.5t104.5 -155t39 -203.5zM909 469q0 184 -98 307t-264 123q-115 0 -200 -58.5t-127 -154t-42 -215.5q0 -86 25 -163.5t70.5 -137t116 -94.5 t155.5 -35q162 0 263 123.5t101 304.5zM793 1264h47q-10 -103 -52 -156t-112 -53q-44 0 -87 22.5t-71 50t-61 50t-60 22.5q-68 0 -102 -135h-49q13 87 57 145t117 58q37 0 69 -15t55 -36t44.5 -42t48.5 -36t57 -15q37 0 64.5 36.5t34.5 103.5z" />
<glyph unicode="&#xf6;" horiz-adv-x="1087" d="M1016 473q0 -217 -132 -355t-337 -138q-212 0 -343.5 136t-131.5 357q0 213 137 350.5t340 137.5q90 0 174 -34t149.5 -95.5t104.5 -155t39 -203.5zM909 469q0 184 -98 307t-264 123q-115 0 -200 -58.5t-127 -154t-42 -215.5q0 -86 25 -163.5t70.5 -137t116 -94.5 t155.5 -35q162 0 263 123.5t101 304.5zM328 1237q0 29 21 49.5t50 20.5q30 0 50 -20t20 -50q0 -29 -21.5 -49.5t-50.5 -20.5t-49 20.5t-20 49.5zM610 1237q0 29 21.5 49.5t50.5 20.5q30 0 50 -20t20 -50q0 -29 -21.5 -49.5t-50.5 -20.5t-49.5 20.5t-20.5 49.5z" />
<glyph unicode="&#xf7;" horiz-adv-x="1134" d="M633 436q0 -29 -19.5 -48t-46.5 -19q-29 0 -49 19t-20 48t20 48.5t49 19.5q27 0 46.5 -19.5t19.5 -48.5zM633 999q0 -29 -19.5 -48t-46.5 -19q-29 0 -49 19t-20 48t20 48.5t49 19.5q27 0 46.5 -19.5t19.5 -48.5zM102 676v82h930v-82h-930z" />
<glyph unicode="&#xf8;" horiz-adv-x="1087" d="M1016 473q0 -218 -132.5 -358t-336.5 -140q-127 0 -236 56l-88 -140l-51 35l86 137q-89 67 -137.5 172t-48.5 238q0 213 137 350.5t340 137.5q125 0 235 -64l84 133l54 -35l-86 -135q83 -66 131.5 -164.5t48.5 -222.5zM178 471q0 -100 32.5 -187.5t94.5 -146.5l438 697 q-83 59 -196 59q-173 0 -271 -119t-98 -303zM909 469q0 202 -116 324l-439 -697q77 -53 191 -53q162 0 263 122.5t101 303.5z" />
<glyph unicode="&#xf9;" horiz-adv-x="1003" d="M133 938h98v-627q0 -139 66 -205.5t170 -66.5q125 0 210 90t85 201v608h98v-938h-98v145q-42 -77 -126 -122.5t-179 -45.5q-82 0 -145.5 26.5t-102 73t-57.5 104.5t-19 126v631zM547 1065h-49l-187 160q-6 6 -16.5 15t-16 14t-10 14.5t-4.5 21.5q0 21 14 36t37 15 q7 0 13.5 -1.5t13 -5.5t10.5 -7t11 -11t10 -12l12 -16l12 -16z" />
<glyph unicode="&#xfa;" horiz-adv-x="1003" d="M133 938h98v-627q0 -139 66 -205.5t170 -66.5q125 0 210 90t85 201v608h98v-938h-98v145q-42 -77 -126 -122.5t-179 -45.5q-82 0 -145.5 26.5t-102 73t-57.5 104.5t-19 126v631zM483 1065h-49l146 201q29 42 46 58.5t40 16.5t37 -15t14 -36q0 -6 -1 -11t-2.5 -9t-5 -9 t-5.5 -7.5t-7.5 -7.5t-7.5 -6.5t-9 -7.5t-9 -7z" />
<glyph unicode="&#xfb;" horiz-adv-x="1003" d="M133 938h98v-627q0 -139 66 -205.5t170 -66.5q125 0 210 90t85 201v608h98v-938h-98v145q-42 -77 -126 -122.5t-179 -45.5q-82 0 -145.5 26.5t-102 73t-57.5 104.5t-19 126v631zM272 1065h-49l170 192q37 40 54.5 55t33.5 15q17 0 29.5 -10.5t47.5 -49.5q6 -7 9 -10 l170 -192h-49l-209 160z" />
<glyph unicode="&#xfc;" horiz-adv-x="1003" d="M133 938h98v-627q0 -139 66 -205.5t170 -66.5q125 0 210 90t85 201v608h98v-938h-98v145q-42 -77 -126 -122.5t-179 -45.5q-82 0 -145.5 26.5t-102 73t-57.5 104.5t-19 126v631zM285 1237q0 29 21 49.5t50 20.5q30 0 50 -20t20 -50q0 -29 -21.5 -49.5t-50.5 -20.5 t-49 20.5t-20 49.5zM567 1237q0 29 21.5 49.5t50.5 20.5q30 0 50 -20t20 -50q0 -29 -21.5 -49.5t-50.5 -20.5t-49.5 20.5t-20.5 49.5z" />
<glyph unicode="&#xfd;" horiz-adv-x="942" d="M922 938l-621 -1389h-76l203 461l-408 928h107l352 -819l369 819h74zM481 1065h-49l146 201q29 42 46 58.5t40 16.5t37 -15t14 -36q0 -6 -1 -11t-2.5 -9t-5 -9t-5.5 -7.5t-7.5 -7.5t-7.5 -6.5t-9 -7.5t-9 -7z" />
<glyph unicode="&#xfe;" horiz-adv-x="1112" d="M1040 461q0 -210 -128 -345.5t-320 -135.5q-110 0 -203.5 49t-146.5 159v-649h-99v1985h99v-762q111 199 360 199q189 0 313.5 -138.5t124.5 -361.5zM936 473q0 189 -90 307.5t-260 118.5q-162 0 -254 -114.5t-92 -288.5q0 -207 90 -331t256 -124q86 0 154.5 35.5 t110.5 96t63.5 137t21.5 163.5z" />
<glyph unicode="&#xff;" horiz-adv-x="942" d="M922 938l-621 -1389h-76l203 461l-408 928h107l352 -819l369 819h74zM266 1237q0 29 21.5 49.5t50.5 20.5q30 0 50 -20t20 -50q0 -29 -21.5 -49.5t-50.5 -20.5t-49.5 20.5t-20.5 49.5zM549 1237q0 29 21.5 49.5t50.5 20.5q30 0 49.5 -20t19.5 -50q0 -29 -21.5 -49.5 t-50.5 -20.5t-49 20.5t-20 49.5z" />
<glyph unicode="&#x152;" horiz-adv-x="1802" d="M1679 0h-610q-33 0 -124.5 -12.5t-125.5 -12.5q-204 0 -373 96.5t-266.5 265.5t-97.5 374t98 376.5t267.5 271t371.5 99.5q38 0 133 -12t123 -12h604v-66h-565v-557h555v-66h-555v-679h565v-66zM819 41q103 0 189 27v1298q-100 27 -189 27q-126 0 -239 -47.5t-198 -134.5 t-135 -218t-50 -288q0 -183 77.5 -334t221 -240.5t323.5 -89.5z" />
<glyph unicode="&#x153;" horiz-adv-x="1892" d="M1800 477h-788v-18q3 -113 46.5 -207t126.5 -152.5t189 -58.5q82 0 146.5 26t107.5 66.5t84 102.5l47 -33q-49 -95 -153 -159t-248 -64q-136 0 -240 65.5t-160 183.5q-56 -118 -163.5 -183.5t-247.5 -65.5q-212 0 -343.5 136t-131.5 357q0 213 137 350.5t340 137.5 q130 0 241.5 -67.5t170.5 -186.5q57 118 162 186t233 68q85 0 164 -32.5t141.5 -92t100.5 -153t38 -206.5zM909 469q0 184 -98 307t-264 123q-115 0 -200 -58.5t-127 -154t-42 -215.5q0 -86 25 -163.5t70.5 -137t116 -94.5t155.5 -35q162 0 263 123.5t101 304.5zM1016 541 h680q-12 158 -103 258t-237 100q-73 0 -137 -32.5t-106 -85t-67.5 -115t-29.5 -125.5z" />
<glyph unicode="&#x178;" horiz-adv-x="1052" d="M457 0v647l-447 787h113l407 -717l439 717h73l-479 -793v-641h-106zM307 1624q0 29 21.5 50.5t50.5 21.5t50.5 -21.5t21.5 -50.5t-21.5 -49.5t-50.5 -20.5t-50.5 20.5t-21.5 49.5zM602 1624q0 29 20.5 50.5t49.5 21.5q30 0 51.5 -21t21.5 -51q0 -29 -21 -49.5t-52 -20.5 q-29 0 -49.5 20.5t-20.5 49.5z" />
<glyph unicode="&#x2c6;" horiz-adv-x="636" d="M111 1065h-50l170 192q37 40 54.5 55t33.5 15q18 0 31.5 -11.5t55.5 -58.5l169 -192h-49l-209 160z" />
<glyph unicode="&#x2dc;" horiz-adv-x="716" d="M608 1264h47q-21 -209 -163 -209q-44 0 -87 22.5t-71 50t-61 50t-60 22.5q-68 0 -102 -135h-50q13 86 57.5 144.5t117.5 58.5q37 0 69 -15t55 -36t44.5 -42t48.5 -36t57 -15q37 0 64 36.5t34 103.5z" />
<glyph unicode="&#x2000;" horiz-adv-x="878" />
<glyph unicode="&#x2001;" horiz-adv-x="1757" />
<glyph unicode="&#x2002;" horiz-adv-x="878" />
<glyph unicode="&#x2003;" horiz-adv-x="1757" />
<glyph unicode="&#x2004;" horiz-adv-x="585" />
<glyph unicode="&#x2005;" horiz-adv-x="439" />
<glyph unicode="&#x2006;" horiz-adv-x="292" />
<glyph unicode="&#x2007;" horiz-adv-x="292" />
<glyph unicode="&#x2008;" horiz-adv-x="219" />
<glyph unicode="&#x2009;" horiz-adv-x="351" />
<glyph unicode="&#x200a;" horiz-adv-x="97" />
<glyph unicode="&#x2010;" horiz-adv-x="616" d="M494 446h-371v86h371v-86z" />
<glyph unicode="&#x2011;" horiz-adv-x="616" d="M494 446h-371v86h371v-86z" />
<glyph unicode="&#x2012;" horiz-adv-x="616" d="M494 446h-371v86h371v-86z" />
<glyph unicode="&#x2013;" horiz-adv-x="1079" d="M997 442h-915v95h915v-95z" />
<glyph unicode="&#x2014;" horiz-adv-x="2152" d="M2071 442h-1989v95h1989v-95z" />
<glyph unicode="&#x2018;" horiz-adv-x="434" d="M102 1075q0 54 56 139l155 254l19 -8l-88 -307q-37 -131 -92 -131q-50 0 -50 53z" />
<glyph unicode="&#x2019;" horiz-adv-x="352" d="M332 1415q0 -54 -56 -139l-155 -254l-19 8l88 307q37 131 93 131q49 0 49 -53z" />
<glyph unicode="&#x201a;" horiz-adv-x="434" d="M332 129q0 -54 -56 -139l-155 -254l-19 8l88 307q37 131 93 131q49 0 49 -53z" />
<glyph unicode="&#x201c;" horiz-adv-x="700" d="M102 1075q0 54 56 139l155 254l19 -8l-88 -307q-37 -131 -92 -131q-50 0 -50 53zM369 1075q0 55 55 139l156 254l18 -8l-88 -307q-37 -131 -92 -131q-49 0 -49 53z" />
<glyph unicode="&#x201d;" horiz-adv-x="700" d="M598 1415q0 -55 -55 -139l-156 -254l-18 8l88 307q37 131 92 131q49 0 49 -53zM332 1415q0 -54 -56 -139l-155 -254l-19 8l88 307q37 131 93 131q49 0 49 -53z" />
<glyph unicode="&#x201e;" horiz-adv-x="700" d="M598 133q0 -55 -55 -139l-156 -254l-18 8l88 307q37 131 92 131q49 0 49 -53zM332 133q0 -54 -56 -139l-155 -254l-19 8l88 307q37 131 93 131q49 0 49 -53z" />
<glyph unicode="&#x2022;" horiz-adv-x="448" d="M326 717q0 -42 -29 -72.5t-70 -30.5q-43 0 -73.5 31t-30.5 72t30.5 70.5t73.5 29.5q41 0 70 -29.5t29 -70.5z" />
<glyph unicode="&#x2026;" horiz-adv-x="1173" d="M1051 57q0 -32 -20.5 -52.5t-51.5 -20.5q-32 0 -53 20.5t-21 52.5q0 31 21 52.5t53 21.5q31 0 51.5 -21.5t20.5 -52.5zM659 57q0 -32 -20 -52.5t-51 -20.5q-32 0 -53 20.5t-21 52.5q0 31 21 52.5t53 21.5q30 0 50.5 -21.5t20.5 -52.5zM268 57q0 -32 -20 -52.5t-51 -20.5 q-32 0 -53 20.5t-21 52.5q0 31 21 52.5t53 21.5q30 0 50.5 -21.5t20.5 -52.5z" />
<glyph unicode="&#x202f;" horiz-adv-x="351" />
<glyph unicode="&#x2039;" horiz-adv-x="507" d="M365 223l-19 -33q-38 13 -78 39.5t-78.5 64t-63 90t-24.5 108.5q0 110 72 193t174 118l14 -33q-75 -29 -121 -105.5t-46 -172.5q0 -101 52.5 -173t117.5 -96z" />
<glyph unicode="&#x203a;" horiz-adv-x="507" d="M406 492q0 -56 -24.5 -108.5t-63 -90t-78.5 -64t-78 -39.5l-19 33q65 24 117.5 96t52.5 173q0 96 -46.5 172.5t-121.5 105.5l15 33q102 -35 174 -118t72 -193z" />
<glyph unicode="&#x205f;" horiz-adv-x="439" />
<glyph unicode="&#x20ac;" horiz-adv-x="1503" d="M1122 592h-807q37 -242 206 -396.5t401 -154.5q138 0 248 47t212 133l39 -49q-218 -197 -501 -197q-185 0 -341 79.5t-256.5 219.5t-127.5 318h-154l22 63h125q-2 23 -2 62q0 51 2 76h-147l22 63h136q33 172 137 310t257 215t325 77q151 0 262 -46.5t209 -129.5l-37 -47 q-198 158 -428 158q-233 0 -399 -150t-208 -387h900l-23 -63h-887q-2 -25 -2 -76q0 -39 2 -62h838z" />
<glyph unicode="&#x2122;" horiz-adv-x="1060" d="M41 1380v54h354v-54h-145v-442h-66v442h-143zM895 1446l84 -508h-74l-49 317l-162 -329l-172 336l-53 -324h-55l88 508l198 -383z" />
<glyph unicode="&#x25fc;" horiz-adv-x="942" d="M0 942h942v-942h-942v942z" />
</font>
</defs>
</svg>
