<svg id="Layer_1" xmlns="http://www.w3.org/2000/svg" viewBox="0 0 880.2 88.3"><style>.st0{fill:#fff}</style><path class="st0" d="M0 0v88.3h880.2V0H0zm1.9 32.1v34.7h-.8V20.7h.8v11.4zm1.1 2v28.3h-.8V25H3v9.1zm1.1 2.1V58h-.8V29.3h.8v6.9zm1 2v15.5h-.8v-20h.8v4.5zm1.1 2.1v9.1h-.8V38.2h.8v2.1zm1.1-.7v11.1h-.8v-14h.8v2.9zm1.1-2.7v19.6h-.8V31h.8v5.9zm1-1.2V59h-.8V28.5h.8v7.2zm1.1 1.9V55h-.8V32.3h.8v5.3zm1.1-.7v19.6h-.8V31h.8v5.9zm1.1-.7v21.6h-.8V29.5h.8v6.7zm1 2v15.5h-.8V33.8h.8v4.4zm1.1-.4v16.8H14V32.9h.8v4.9zm1.1 2.5v9h-.8V38.2h.8v2.1zm1.1-1v12h-.8V36.1h.8v3.2zm1 2.2v5.3h-.8v-6.1h.8v.8zm1.1-.6V48h-.8v-8.5h.8v1.4zm1.1 0V48h-.8v-8.5h.8v1.4zm1.1.6v5.3h-.8v-6.1h.8v.8zm1-2.2v12h-.8V36.1h.8v3.2zm1.1 1v9h-.8V38.2h.8v2.1zm1.1-2.5v16.8h-.8V32.9h.8v4.9zm1.1.4v15.5h-.8V33.8h.8v4.4zm1-2v21.6h-.8V29.5h.8v6.7zm1.1 2.5v14.1h-.8V34.7h.8v4zm1.1.4v12.6H28v-16h.8v3.4zm1.1-1.3v16.8h-.8V33h.8v4.8zm1 .9v14h-.8V34.6h.8v4.1zm1.1 1.9v8.2h-.8v-10h.8v1.8zm1.1.4v6.6h-.8v-7.9h.8V41zm1.1-1.4v11.2h-.8V36.7h.8v2.9zm1-1.5v15.7h-.8V33.6h.8v4.5zm1.1-1.4v20.2h-.8V30.5h.8v6.2zm1.1-1.5V60h-.8V27.4h.8v7.8zm1.1-1.4v29.3h-.8V24.3h.8v9.5zm1-1.5v33.8h-.8V21.2h.8v11.1zm1.1 5v18.4h-.8V31.8h.8v5.5zm1.1-3.4V63h-.8V24.5h.8v9.4zm1.1 1.2v25.2H42V27.1h.8v8zm1 2.6v16.9H43v-22h.8v5.1zm1.1-1.3v21.2h-.8V29.9h.8v6.5zm1.1-4.1v33.8h-.8V21.2h.8v11.1zm1.1-.5v35.6h-.8V20h.8v11.8zm1 1.3v31.4h-.8V22.9h.8v10.2zm1.1 2v25.2h-.8V27.2h.8v7.9zm1.1-1.3V63h-.8V24.4h.8v9.4zm1.1-2.1v35.7h-.8V20h.8v11.7zm1-2.6V73h-.8V14.5h.8v14.6zm1.1 5.1v28.1h-.8V25.1h.8v9.1zm1.1 4v15.5h-.8V33.8h.8v4.4zm1.1-.8v17.9h-.8V32.1h.8v5.3zm1-.8V57h-.8V30.4h.8v6.2zm1.1-.8v22.9H57V28.8h.8v7zm1.1-.2v23.6h-.8v-31h.8v7.4zm1.1-1.8V63h-.8V24.4h.8v9.4zm1-3.4v39.8h-.8V17.1h.8v13.3zm1.1-.4v41.2h-.8V16.3h.8V30zm1.1-.4V72h-.8V15.4h.8v14.2zm1.1 2.1v35.9h-.8V19.9h.8v11.8zm1-.7v38.2h-.8V18.4h.8V31zm1.1 3v28.7h-.8V24.8h.8V34zm1.1-.6V64h-.8V23.4h.8v10zm1.1 1.6v25.6h-.8V26.9h.8V35zm1 1.7v20.2h-.8V30.5h.8v6.2zm1.1-.9v23h-.8V28.7h.8v7.1zm1.1.9v20.2H71V30.5h.8v6.2zm1.1 1.4v15.7h-.8V33.6h.8v4.5zm1 1.5v11.2h-.8V36.7h.8v2.9zM75 41v6.6h-.8v-7.9h.8V41zm1.1-.4v8.2h-.8v-10h.8v1.8zm1.1-1.9v14h-.8V34.6h.8v4.1zm1-.9v16.8h-.8V33h.8v4.8zm1.1.9v14.1h-.8V34.7h.8v4zm1.1-.5v15.6h-.8V33.7h.8v4.5zm1.1 1.4v11.1h-.8v-14h.8v2.9zm1-.3v12.1h-.8V36h.8v3.3zm1.1 1.8v6.6h-.8v-7.8h.8v1.2zm1.1-.7v8.7h-.8V38.4h.8v2zm1.1-4.6v23H85V28.7h.8v7.1zm1 .9v20.2H86V30.5h.8v6.2zm1.1-1.7v25.6h-.8V26.9h.8V35zm1.1-1.6V64h-.8V23.4h.8v10zm1.1.6v28.7h-.8V24.8h.8V34zm1-3v38.2h-.8V18.4h.8V31zm1.1.7v35.9h-.8V19.9h.8v11.8zm1.1-2.1V72h-.8V15.4h.8v14.2zm1.1.4v41.2h-.8V16.3h.8V30zm1 1.4v36.8h-.8V19.3h.8v12.1zm1.1 2.4V63h-.8V24.4h.8v9.4zm1.1 1.8v23.6h-.8v-31h.8v7.4zm1.1.2v22.9h-.8V28.8h.8v7zm1 .8V57H99V30.4h.8v6.2zm1.1.8v17.9h-.8V32.1h.8v5.3zm1.1.8v15.5h-.8V33.8h.8v4.4zm1.1-1.5V57h-.8V30.5h.8v6.2zm1 1.2v16.2h-.8v-21h.8v4.8zm1.1 1.3v12.3h-.8V35.9h.8v3.3zm1.1-1.3v16.5h-.8V33.1h.8v4.8zm1.1-1.3v20.5h-.8V30.2h.8v6.4zm1-3.3v30.9h-.8v-41h.8v10.1zm1.1.6v28.8h-.8V24.6h.8v9.3zm1.1-1.3v33h-.8V21.8h.8v10.8zm1.1-3.5V73h-.8V14.5h.8v14.6zm1 2.6v35.7h-.8V20h.8v11.7zm1.1 2.1V63h-.8V24.4h.8v9.4zm1.1 1.3v25.2h-.8V27.2h.8v7.9zm1.1-2v31.4h-.8V22.9h.8v10.2zm1-1.3v35.6h-.8V20h.8v11.8zm1.1.5v33.8h-.8V21.2h.8v11.1zm1.1 4.1v21.2h-.8V29.9h.8v6.5zm1.1 1.3v16.9h-.8v-22h.8v5.1zm1-2.6v25.2h-.8V27.1h.8v8zm1.1-1.2V63h-.8V24.5h.8v9.4zm1.1 3.4v18.4h-.8V31.8h.8v5.5zm1.1-5v33.8h-.8V21.2h.8v11.1zm1 1.5v29.3h-.8V24.3h.8v9.5zm1.1 1.4V60h-.8V27.4h.8v7.8zm1.1-1.1v28.3h-.8V25h.8v9.1zm1.1 2.1V58h-.8V29.3h.8v6.9zm1 2v15.5h-.8v-20h.8v4.5zm1.1 2.1v9.1h-.8V38.2h.8v2.1zm1.1-.7v11.1h-.8v-14h.8v2.9zm1.1-2.7v19.6h-.8V31h.8v5.9zm1-1.2V59h-.8V28.5h.8v7.2zm1.1 1.9V55h-.8V32.3h.8v5.3zm1.1-.7v19.6h-.8V31h.8v5.9zm1.1-.7v21.6h-.8V29.5h.8v6.7zm1 2v15.5h-.8V33.8h.8v4.4zm1.1-.4v16.8h-.8V32.9h.8v4.9zm1.1 2.5v9h-.8V38.2h.8v2.1zm1.1-1v12h-.8V36.1h.8v3.2zm1 2.2v5.3h-.7v-6.1h.8v.8zm1.1-.6V48h-.8v-8.5h.8v1.4zm1.1 0V48h-.8v-8.5h.8v1.4zm1.1.6v5.3h-.8v-6.1h.8v.8zm1-2.2v12h-.8V36.1h.8v3.2zm1.1 1v9h-.8V38.2h.8v2.1zm1.1-2.5v16.8h-.8V32.9h.8v4.9zm1.1.4v15.5h-.8V33.8h.8v4.4zm1-1.3v19.6h-.8V31h.8v5.9zm1.1.7V55h-.8V32.3h.8v5.3zm1.1-1.9V59h-.8V28.5h.8v7.2zm1.1 1.2v19.6h-.8V31h.8v5.9zm1 2.7v11.1h-.8v-14h.8v2.9zm1.1.7v9.1h-.8V38.2h.8v2.1zm1.1-2.1v15.5h-.8v-20h.8v4.5zm1.1-2V58h-.8V29.3h.8v6.9zm1-2.1v28.3h-.8V25h.8v9.1zm1.1-2v34.7h-.8V20.7h.8v11.4zm1.1-2.1v41.1h-.8V16.3h.8V30zm1.1-2.1v47.6h-.8V11.9h.8v16zm1 7v25.7h-.8V26.8h.8v8.1zm1.1-4.8v40.7h-.8V16.6h.8v13.5zm1.1 1.8v35.3h-.8v-47h.8v11.7zm1.1 3.7v23.6h-.8v-31h.8v7.4zm1-1.9v29.7h-.8V24h.8v9.7zm1.1-5.8v47.7h-.8V11.9h.8v16zm1.1-.7v50h-.8v-67h.8v17zm1.1 1.9v44.1h-.8V14.3h.8v14.8zm1 2.8v35.2h-.8V20.3h.8v11.6zm1.1-1.8V71h-.8V16.4h.8v13.7zm1.1-3v50.2h-.8V10.2h.8v16.9zm1.1-3.6V85h-.8V2.4h.8v21.1zm1 7.1v39.3h-.8V17.5h.8v13.1zm1.1 5.7v21.6h-.8V29.7h.8v6.6zm1.1-1.1v25h-.8V27.3h.8v7.9zm1.1-1.2v28.6h-.8V24.8h.8V34zm1-1.1V65h-.8V22.5h.8v10.4zm1.1-.3v33.1h-.8V21.8h.8v10.8zm1.1-2.5V71h-.8V16.4h.8v13.7zm1.1-4.9v56.3h-.8V6.1h.8v19.1zm1-.6v57.9h-.7V4.9h.8v19.7zm1.1-.5v59.7h-.8V3.7h.8v20.4zm1.1 2.9v50.4h-.8V10h.8v17zm1.1-1v53.5h-.8V7.9h.8V26zm1 4.3v40.2h-.8V16.9h.8v13.4zm1.1-.9v42.9h-.8V15.1h.8v14.3zm1.1 2.3v35.7h-.8V20h.8v11.7zm1.1 2.4v28.3h-.8V25h.8v9.1zm1-1.2V65h-.8V22.5h.8v10.4zm1.1 1.2v28.3h-.8V25h.8v9.1zm1.1 2.1V58h-.8V29.3h.8v6.9zm1.1 2v15.5h-.8v-20h.8v4.5zm1 2.1v9.1h-.8V38.2h.8v2.1zm1.1-.7v11.1h-.8v-14h.8v2.9zm1.1-2.7v19.6h-.8V31h.8v5.9zm1.1-1.2V59h-.8V28.5h.8v7.2zm1 1.2v19.6h-.8V31h.8v5.9zm1.1-.7v21.6h-.8V29.5h.8v6.7zm1.1 2v15.5h-.8V33.8h.8v4.4zm1.1-.4v16.8h-.8V32.9h.8v4.9zm1 2.5v9h-.8V38.2h.8v2.1zm1.1-1v12h-.8V36.1h.8v3.2zm1.1-3.4v22.5h-.8V28.9h.8v7zm1.1.9v19.9h-.8v-26h.8v6.1zm1-1.7v25.2h-.8V27.2h.8v7.9zm1.1-1.6v30.2h-.8V23.8h.8v9.7zm1.1.6v28.3h-.8V25.2h.8v8.9zm1.1-2.9v37.4h-.8V18.8h.8v12.4zm1 .7v35.2h-.8V20.3h.8v11.6zm1.1-2.1v41.7h-.8V15.9h.8v13.9zm1.1.4v40.5h-.8v-54h.8v13.5zm1.1 1.4v36.2h-.8V19.7h.8v11.9zm1 2.4v28.7h-.8V24.8h.8V34zm1.1 1.7V59h-.8V28.5h.8v7.2zm1.1.3v22.4h-.8V29h.8v7zm1.1.7v20.1h-.8V30.7h.8v6zm1 .8v17.7h-.8V32.3h.8v5.2zm1.1.8v15.2h-.8V34h.8v4.3zm1.1-1.5v19.9h-.8v-26h.8v6.1zm1.1 1.2v16.1h-.8V33.3h.8V38zm1 1.3v12.1h-.7V36h.8v3.3zm1.1-1.3v16.2h-.8V33.3h.8V38zm1.1-1.3v20.2h-.8V30.5h.8v6.2zm1.1-3.3v30.5h-.8V23.5h.8v9.9zm1 .7v28.3h-.8V25h.8v9.1zm1.1-1.3v32.4h-.8v-43h.8v10.6zm1.1-3.4v43.1h-.8V15h.8v14.4zm1.1 2.5V67h-.8V20.4h.8v11.5zm1 2.1v28.7h-.8V24.8h.8V34zm1.1 1.2V60h-.8V27.5h.8v7.7zm1.1-1.9v30.9h-.8V23.3h.8v10zm1.1-1.3v35h-.8V20.5h.8V32zm1 .5v33.3h-.8V21.6h.8v10.9zm1.1 4v21h-.8V30.1h.8v6.4zm1.1 1.3v16.7h-.8V33h.8v4.8zm1.1-2.6V60h-.8V27.4h.8v7.8zm1-1.2v28.6h-.8V24.8h.8V34zm1.1 3.4v18.1h-.8V32h.8v5.4zm1.1-4.9v33.2h-.8V21.6h.8v10.9zm1.1 1.4v28.8h-.8V24.6h.8v9.3zm1 1.5v24.3h-.8v-32h.8v7.7zm1.1 1.4v19.9h-.8v-26h.8v6.1zm1.1 1.4v15.5h-.8v-20h.8v4.5zm1.1 1.4v11.1h-.8V36.8h.8v2.8zm1 1v8h-.8v-9.7h.8v1.7zm1.1-.6v9.7h-.8V37.6h.8V40zm1.1-1.3v13.8h-.8V34.8h.8v3.9zm1.1-.8v16.6h-.8V33.1h.8v4.8zm1 1.3v12.3h-.8V35.8h.8v3.4zm1.1-.5v13.7h-.8V34.8h.8v3.9zm1.1-.4v15.2h-.8V33.9h.8v4.4zm1.1 1.3v11.1h-.8V36.8h.8v2.8zm1-.3v12h-.8V36.1h.8v3.2zm1.1 1.4v7.8h-.8V39h.8v1.7zm1.1-.9v10.5h-.8V37.1h.8v2.7zm1.1 1.8v4.6h-.8V41h.8v.6zm1-.4v6.2h-.8V40h.8v1.2zm1.1 0v6.2h-.8V40h.8v1.2zm1.1.4v4.6h-.8V41h.8v.6zm1.1-1.8v10.5h-.8V37.1h.8v2.7zm1 .9v7.8h-.7V39h.8v1.7zm1.1-1.4v12h-.8V36.1h.8v3.2zm1.1.3v11.1h-.8V36.8h.8v2.8zm1.1-1.3v15.2h-.8V33.9h.8v4.4zm1 .4v13.7h-.8V34.8h.8v3.9zm1.1.5v12.3h-.8V35.8h.8v3.4zm1.1-1.3v16.6h-.8V33.1h.8v4.8zm1.1.8v13.8h-.8V34.8h.8v3.9zm1 1.3v9.7h-.8V37.6h.8V40zm1.1.6v8h-.8v-9.7h.8v1.7zm1.1-1v11.1h-.8V36.8h.8v2.8zm1.1-1.4v15.5h-.8v-20h.8v4.5zm1-1.4v19.9h-.8v-26h.8v6.1zm1.1-1.4v24.3h-.8v-32h.8v7.7zm1.1-1.5v28.8h-.8V24.6h.8v9.3zm1.1-1.4v33.2h-.8V21.6h.8v10.9zm1 4.9v18.1h-.8V32h.8v5.4zM290 34v28.6h-.8V24.8h.8V34zm1.1 1.2V60h-.8V27.4h.8v7.8zm1.1 2.6v16.7h-.8V33h.8v4.8zm1-1.3v21h-.8V30.1h.8v6.4zm1.1-4v33.3h-.8V21.6h.8v10.9zm1.1-.5v35h-.8V20.5h.8V32zm1.1 1.3v30.9h-.8V23.3h.8v10zm1 1.9V60h-.8V27.5h.8v7.7zm1.1-1.2v28.7h-.8V24.8h.8V34zm1.1-2.1V67h-.8V20.4h.8v11.5zm1.1-2.5v43.1h-.8V15h.8v14.4zm1 4.9V62h-.8V25.5h.8v8.8zm1.1 4v15.2h-.8V34h.8v4.3zm1.1-.8v17.7h-.8V32.3h.8v5.2zm1.1-.8v20.1h-.8V30.7h.8v6zm1-.7v22.4h-.8V29h.8v7zm1.1-.3V59h-.8V28.5h.8v7.2zm1.1-1.7v28.7h-.8V24.8h.8V34zm1.1-3.4v39.3h-.8V17.6h.8v13zm1-.4v40.5h-.8v-54h.8v13.5zm1.1-.4v41.7h-.8V15.9h.8v13.9zm1.1 2.1v35.2h-.8V20.3h.8v11.6zm1.1-.7v37.4h-.8V18.8h.8v12.4zm1 .8v34.8h-.7V20.5h.8V32zm1.1-.8v37.3h-.8V18.9h.8v12.3zm1.1 2v31.1h-.8V23.2h.8v10zm1.1 2.1v24.6h-.8V27.5h.8v7.8zm1-1.1V62h-.8V25.4h.8v8.8zm1.1 1.1v24.6h-.8V27.5h.8v7.8zm1.1 1.8v19.1h-.8V31.3h.8v5.8zm1.1 1.7v13.6h-.8V35.1h.8v3.7zm1 1.8v8h-.8v-9.7h.8v1.7zm1.1-.6v9.7h-.8V37.6h.8V40zm1.1-2.3v17.1h-.8V32.7h.8v5zm1.1-1V57h-.8V30.5h.8v6.2zm1 1v17.1h-.8V32.7h.8v5zm1.1-.6V56h-.8V31.5h.8v5.6zm1.1 1.1v15.5h-.8V33.8h.8v4.4zm1.1-.4v16.8h-.8V32.9h.8v4.9zm1 2.5v9h-.8V38.2h.8v2.1zm1.1-1v12h-.8V36.1h.8v3.2zm1.1-6.4V65h-.8V22.5h.8v10.4zm1.1 1.2v28.3h-.8V25h.8v9.1zm1-2.4v35.7h-.8V20h.8v11.7zm1.1-2.3v42.9h-.8V15.1h.8v14.3zm1.1.9v40.2h-.8V16.9h.8v13.4zm1.1-4.3v53.5h-.8V7.9h.8V26zm1 1v50.4h-.8V10h.8v17zm1.1-2.9v59.7h-.8V3.7h.8v20.4zm1.1.5v57.9h-.8V4.9h.8v19.7zm1.1 2v51.7h-.8V9.1h.8v17.5zm1 3.5V71h-.8V16.4h.8v13.7zm1.1 2.5v33.1h-.8V21.8h.8v10.8zm1.1.3V65h-.8V22.5h.8v10.4zm1.1 1.1v28.6h-.8V24.8h.8V34zm1 1.2v25h-.8V27.3h.8v7.9zm1.1 1.1v21.6h-.8V29.7h.8v6.6zm1.1-2.2v28.3h-.8V25h.8v9.1zm1.1 1.8v22.7h-.8V28.8h.8v7.1zm1 1.8v17.1h-.8V32.7h.8v5zm1.1-1.9v23h-.8V28.7h.8v7.1zm1.1-1.8v28.7h-.8V24.8h.8V34zm1.1-4.7v43.4h-.8v-58h.8v14.6zm1 .9v40.4h-.7V16.8h.8v13.4zm1.1-1.9v46.3h-.8V12.8h.8v15.5zm1.1-4.8V85h-.8V2.4h.8v21.1zm1.1 3.6v50.2h-.8V10.2h.8v16.9zm1 3V71h-.8V16.4h.8v13.7zm1.1 1.8v35.2h-.8V20.3h.8v11.6zm1.1-2.8v44.1h-.8V14.3h.8v14.8zm1.1-1.9v50h-.8v-67h.8v17zm1 .7v47.7h-.8V11.9h.8v16zm1.1 5.8v29.7h-.8V24h.8v9.7zm1.1 1.9v23.6h-.8v-31h.8v7.4zm1.1-3.7v35.3h-.8v-47h.8v11.7zm1-1.8v40.7h-.8V16.6h.8v13.5zm1.1 4.8v25.7h-.8V26.8h.8v8.1zm1.1-7v47.6h-.8V11.9h.8v16zm1.1 2.1v41.1h-.8V16.3h.8V30zm1 2.1v34.7h-.8V20.7h.8v11.4zm1.1 2v28.3h-.8V25h.8v9.1zm1.1 2.1V58h-.8V29.3h.8v6.9zm1.1 2v15.5h-.8v-20h.8v4.5zm1 2.1v9.1h-.8V38.2h.8v2.1zm1.1-.7v11.1h-.8v-14h.8v2.9zm1.1-2.7v19.6h-.8V31h.8v5.9zm1.1-1.2V59h-.8V28.5h.8v7.2zm1 1.9V55h-.8V32.3h.8v5.3zm1.1-.7v19.6h-.8V31h.8v5.9zm1.1-.7v21.6h-.8V29.5h.8v6.7zm1.1 2v15.5h-.8V33.8h.8v4.4zm1-.4v16.8h-.8V32.9h.8v4.9zm1.1 2.5v9h-.8V38.2h.8v2.1zm1.1-1v12h-.8V36.1h.8v3.2zm1.1 2.2v5.3h-.8v-6.1h.8v.8zm1-.6V48h-.8v-8.5h.8v1.4zm1.1 0V48h-.8v-8.5h.8v1.4zm1.1.6v5.3h-.8v-6.1h.8v.8zm1.1-2.2v12h-.8V36.1h.8v3.2zm1 1v9h-.8V38.2h.8v2.1zm1.1-2.5v16.8h-.8V32.9h.8v4.9zm1.1.4v15.5h-.8V33.8h.8v4.4zm1.1-1.3v19.6h-.8V31h.8v5.9zm1 .7V55h-.7V32.3h.8v5.3zm1.1-1.9V59h-.8V28.5h.8v7.2zm1.1 4.7v8.5h-.8V38.5h.8v1.9zm1.1 1.1v5h-.8v-5.7h.8v.7zm1.1.3V46h-.8v-4.5h.8v.3zm1-.8v6.7h-.8v-8h.8V41zm1.1-.9v9.5h-.8V37.8h.8v2.3zm1.1-.8v12.1h-.8V36.1h.8v3.2zm1.1-.8v14.6h-.8V34.3h.8v4.2zm1-.9v17.3h-.8V32.5h.8v5.1zm1.1-.8v19.9h-.8v-26h.8v6.1zm1.1 2.8v11.1h-.8V36.8h.8v2.8zm1.1-1.9v17.1h-.8V32.6h.8v5.1zm1 .7v14.9h-.8V34.1h.8v4.3zm1.1 1.5V50h-.8V37.4h.8v2.5zm1.1-.8v12.6h-.8v-16h.8v3.4zm1.1-2.3v19.9h-.8v-26h.8v6.1zm1-.3v21h-.8V30h.8v6.5zm1.1.7v18.6h-.8V31.7h.8v5.5zm1.1 1.2v14.9h-.8V34.2h.8v4.2zm1.1-.8v17.2h-.8V32.5h.8v5.1zm1-1.1v21.1h-.8V30h.8v6.5zm1.1-1.5v25.7h-.8V26.9h.8V35zm1.1 2.9v16.6h-.8V33h.8v4.9zm1.1 2.3v9.2h-.8V38h.8v2.2zm1-.5v10.7h-.8V37h.8v2.7zm1.1-.4v12.1h-.8V36h.8v3.3zm1.1-.5v13.6h-.8V35h.8v3.8zm1.1-.1v14.1h-.8v-18h.8v3.9zm1-1v17.2h-.8V32.6h.8v5.1zm1.1-2v23.5h-.8V28.4h.8v7.3zm1.1-.3v24.1h-.8V27.8h.8v7.6zm1.1-.2V60h-.8V27.4h.8v7.8zm1 1.2v21.1h-.8V29.9h.8v6.5zm1.1-.4v22.3h-.8V29.1h.8V36zm1.1 1.7v16.9h-.8V32.7h.8v5zm1.1-.3v18.1h-.8V32h.8v5.4zm1 .9v15.1h-.8V34h.8v4.3zm1.1 1v12.1h-.8V36.1h.8v3.2zm1.1-.5v13.6h-.8V35h.8v3.8zm1.1.5v12.1h-.8V36.1h.8v3.2zm1 .8v9.5h-.8V37.8h.8v2.3zm1.1.9v6.7h-.8v-8h.8V41zm1.1.8V46h-.8v-4.5h.8v.3zm1.1-.3v5h-.8v-5.7h.8v.7zm1-1.1v8.5h-.8V38.5h.8v1.9zm1.1-.4v10h-.8V37.5h.8V40zm1.1.4v8.5h-.8V38.5h.8v1.9zm1.1-.2v9.4h-.8V38h.8v2.2zm1 .8v6.7h-.8v-8h.8V41zm1.1-.2v7.4h-.8v-8.9h.8v1.5zm1.1 1v4.1h-.8v-4.5h.8v.4zm1.1-.1v4.5h-.8v-5h.8v.5zm1-6.8v25.9h-.8V26.7h.8v8.2zm1.1.9v23h-.8v-30h.8v7zm1.1-1.9v28.8h-.8V24.6h.8v9.3zm1.1-1.8v34.7h-.8V20.7h.8v11.4zm1 .7v32.4h-.8v-43h.8v10.6zm1.1-3.4v43.2h-.8V14.9h.8v14.5zm1.1.8v40.7h-.8V16.6h.8v13.6zm1.1-2.4v48h-.8V11.6h.8v16.2zm1 .4v46.7h-.8V12.6h.8v15.6zm1.1 1.6v41.7h-.8V15.9h.8v13.9zm1.1 2.8v33.1h-.8V21.8h.8v10.8zm1.1 2v26.8h-.8V26.1h.8v8.5zm1 .3v25.7h-.8V26.7h.8v8.2zm1.1-4.6v40.3h-.8V16.8h.8v13.5zm1.1 5.5v23h-.8V28.6h.8v7.2zm1.1.9v20.2h-.8V30.5h.8v6.2zm1 .9V55h-.8V32.4h.8v5.2zm1.1-1.8v23h-.8V28.7h.8v7.1zm1.1 1.5v18.3h-.8V31.8h.8v5.5zm1.1 1.4v13.7h-.8V34.8h.8v3.9zm1-1.5v18.6h-.8V31.6h.8v5.6zm1.1-1.5V59h-.8V28.5h.8v7.2zm1.1-3.8V67h-.8V20.4h.8v11.5zm1.1.8v32.7h-.8V22.1h.8v10.6zm1-1.5v37.3h-.8V18.9h.8v12.3zm1.1-3.9V77h-.8V10.5h.8v16.8zm1.1 2.9v40.4h-.8V16.8h.8v13.4zm1.1 2.4v33.1h-.8V21.8h.8v10.8zm1 1.5v28.4h-.8V24.9h.8v9.2zm1.1-2.3v35.5h-.8V20.1h.8v11.7zm1.1-1.5v40.3h-.8V16.8h.8v13.5zm1.1.6v38.4h-.8V18.2h.8v12.7zm1 4.6v24.1h-.8V28h.8v7.5zm1.1 1.5v19.1h-.8V31.2h.8V37zm1.1-3v28.6h-.8V24.8h.8V34zm1.1-1.4v32.8h-.8V21.9h.8v10.7zm1 3.9v20.7h-.8V30.1h.8v6.4zm1.1-5.6v38.3h-.8v-51h.8v12.7zm1.1 1.6v33.2h-.8v-44h.8v10.8zm1.1 1.7v28.1h-.8V25.1h.8v9.1zm1 1.6v23h-.8v-30h.8v7zm1.1 1.7v17.7h-.8v-23h.8v5.3zm1.1 1.6v12.6h-.8v-16h.8v3.4zm1.1 1.7v7.4h-.8v-9.1h.8v1.7zm1-.6v9.1h-.8V38h.8v2.2zm1.1-2.1V54h-.8V33.6h.8v4.5zm1.1-1V56h-.8V31.4h.8v5.7zm1.1 1.5v14.1h-.8V34.6h.8v4zm1-.5v15.7h-.8V33.5h.8v4.6zm1.1-.6V55h-.8V32.3h.8v5.2zm1.1 1.6v12.5h-.8V35.7h.8v3.4zm1.1-.3v13.6h-.8V35h.8v3.8zm1 2v7.4h-.8v-8.8h.8v1.4zm1.1-.8v9.7h-.8V37.6h.8V40zm1.1 1.7v4.5h-.8v-5h.8v.5zm1.1-.4V47h-.8v-6.8h.8v1.1zm1 0V47h-.8v-6.8h.8v1.1zm1.1.4v4.5h-.8v-5h.8v.5zm1.1-1.7v9.7h-.8V37.6h.8V40zm1.1.8v7.4h-.8v-8.8h.8v1.4zm1-2v13.6h-.8V35h.8v3.8zm1.1-.6v15.5h-.8V33.8h.8v4.4zm1.1-2v21.6h-.8V29.5h.8v6.7zm1.1 2.5v14.1h-.8V34.7h.8v4zm1 .4v12.6h-.8v-16h.8v3.4zm1.1-1.3v16.8h-.8V33h.8v4.8zm1.1.9v14h-.8V34.6h.8v4.1zm1.1 1.9v8.2h-.8v-10h.8v1.8zm1 .4v6.6h-.8v-7.9h.8V41zm1.1-1.4v11.2h-.8V36.7h.8v2.9zm1.1-1.5v15.7h-.8V33.6h.8v4.5zm1.1-1.4v20.2h-.8V30.5h.8v6.2zm1-1.5V60h-.8V27.4h.8v7.8zm1.1-1.4v29.3h-.8V24.3h.8v9.5zm1.1-1.5v33.8h-.8V21.2h.8v11.1zm1.1 5v18.4h-.8V31.8h.8v5.5zm1-3.4V63h-.8V24.5h.8v9.4zm1.1 1.2v25.2h-.8V27.1h.8v8zm1.1 2.6v16.9h-.8v-22h.8v5.1zm1.1-1.3v21.2h-.8V29.9h.8v6.5zm1-4.1v33.8h-.8V21.2h.8v11.1zm1.1-.5v35.6h-.8V20h.8v11.8zm1.1 1.3v31.4h-.8V22.9h.8v10.2zm1.1 2v25.2h-.8V27.2h.8v7.9zm1-1.3V63h-.8V24.4h.8v9.4zm1.1-2.1v35.7h-.8V20h.8v11.7zm1.1-2.6V73h-.8V14.5h.8v14.6zm1.1 5.1v28.1h-.8V25.1h.8v9.1zm1 4v15.5h-.8V33.8h.8v4.4zm1.1-.8v17.9h-.8V32.1h.8v5.3zm1.1-.8V57h-.8V30.4h.8v6.2zm1.1-.8v22.9h-.8V28.8h.8v7zm1-.2v23.6h-.8v-31h.8v7.4zm1.1-1.8V63h-.8V24.4h.8v9.4zm1.1-3.4v39.8h-.8V17.1h.8v13.3zm1.1-.4v41.2h-.8V16.3h.8V30zm1-.4V72h-.8V15.4h.8v14.2zm1.1 2.1v35.9h-.8V19.9h.8v11.8zm1.1-.7v38.2h-.8V18.4h.8V31zm1.1 3v28.7h-.8V24.8h.8V34zm1-.6V64h-.8V23.4h.8v10zm1.1 1.6v25.6h-.8V26.9h.8V35zm1.1 1.7v20.2h-.8V30.5h.8v6.2zm1.1-.9v23h-.8V28.7h.8v7.1zm1 .9v20.2h-.8V30.5h.8v6.2zm1.1 1.4v15.7h-.8V33.6h.8v4.5zm1.1 1.5v11.2h-.8V36.7h.8v2.9zm1.1 1.4v6.6h-.8v-7.9h.8V41zm1-.4v8.2h-.8v-10h.8v1.8zm1.1-1.9v14h-.8V34.6h.8v4.1zm1.1-.9v16.8h-.8V33h.8v4.8zm1.1.9v14.1h-.8V34.7h.8v4zm1-.5v15.6h-.8V33.7h.8v4.5zm1.1 1.4v11.1h-.8v-14h.8v2.9zm1.1-.3v12.1h-.8V36h.8v3.3zm1.1 1.8v6.6h-.8v-7.8h.8v1.2zm1-.7v8.7h-.8V38.4h.8v2zm1.1-4.6v23h-.8V28.7h.8v7.1zm1.1.9v20.2h-.8V30.5h.8v6.2zm1.1 2v14.1h-.8v-18h.8v3.9zm1-.9v16.8h-.8V33h.8v4.8zm1.1.3v15.7h-.8V33.5h.8v4.6zm1.1-1.6v20.7h-.8V30.1h.8v6.4zm1.1.4v19.6h-.8V31h.8v5.9zm1-1.1v23h-.8V28.6h.8v7.2zm1.1.2v22.3h-.8V29h.8v7zm1.1.7v20.2h-.8V30.7h.8v6zm1.1 1.3v16h-.8V33.3h.8V38zm1 1v13h-.8V35.4h.8V39zm1.1.1v12.7h-.8V35.7h.8v3.4zm1.1.4v11.2h-.8V36.5h.8v3zm1.1.5v10h-.8V37.5h.8V40zm1 .4V49h-.8V38.4h.8v2zm1.1-.8v11.2h-.8V36.7h.8v2.9zm1.1.6v9.1h-.8V38h.8v2.2zm1.1.7v7h-.8v-8.4h.8v1.4zm1-.7v9.1h-.8V38h.8v2.2zm1.1-.7v11.4h-.8V36.5h.8v3zm1.1-1.8v17h-.8v-22h.8v5zm1.1.4v15.7h-.8V33.5h.8v4.6zm1-.7v18.1h-.8V32h.8v5.4zm1.1-1.9v23.8h-.8V28h.8v7.5zm1.1 1.4v19.5h-.8V31h.8v5.9zm1.1 1.1v16.1h-.8V33.3h.8V38zm1 .7v13.7h-.8V34.8h.8v3.9zm1.1-1v17.2h-.8V32.6h.8v5.1zm1.1-.8v19.5h-.8V31h.8v5.9zm1.1.3v18.6h-.8V31.6h.8v5.6zm1 2.2v11.8h-.8V36.4h.8v3zm1.1.7v9.5h-.8V37.8h.8v2.3zm1.1-1.4v13.9h-.8V34.8h.8v3.9zm1.1-.6V54h-.8V33.4h.8v4.7zm1-.8v18.4h-.8V31.8h.8v5.5zm1.1-5v33.8h-.8V21.2h.8v11.1zm1.1 1.5v29.3h-.8V24.3h.8v9.5zm1.1 1.4V60h-.8V27.4h.8v7.8zm1-1.1v28.3h-.8V25h.8v9.1zm1.1 2.1V58h-.8V29.3h.8v6.9zm1.1 2v15.5h-.8v-20h.8v4.5zm1.1 2.1v9.1h-.8V38.2h.8v2.1zm1-.7v11.1h-.8v-14h.8v2.9zm1.1-2.7v19.6h-.8V31h.8v5.9zm1.1-1.2V59h-.8V28.5h.8v7.2zm1.1 1.9V55h-.8V32.3h.8v5.3zm1-.7v19.6h-.8V31h.8v5.9zm1.1-.7v21.6h-.8V29.5h.8v6.7zm1.1 2v15.5h-.8V33.8h.8v4.4zm1.1-.4v16.8h-.8V32.9h.8v4.9zm1 2.5v9h-.8V38.2h.8v2.1zm1.1-1v12h-.8V36.1h.8v3.2zm1.1 2.2v5.3h-.8v-6.1h.8v.8zm1.1-.6V48h-.8v-8.5h.8v1.4zm1 0V48h-.8v-8.5h.8v1.4zm1.1.6v5.3h-.8v-6.1h.8v.8zm1.1-2.2v12h-.8V36.1h.8v3.2zm1.1 1v9h-.8V38.2h.8v2.1zm1-2.5v16.8h-.8V32.9h.8v4.9zm1.1.4v15.5h-.8V33.8h.8v4.4zm1.1-1.3v19.6h-.8V31h.8v5.9zm1.1.7V55h-.8V32.3h.8v5.3zm1-1.9V59h-.8V28.5h.8v7.2zm1.1 1.2v19.6h-.8V31h.8v5.9zm1.1 2.7v11.1h-.8v-14h.8v2.9zm1.1.7v9.1h-.8V38.2h.8v2.1zm1-2.1v15.5h-.8v-20h.8v4.5zm1.1-2V58h-.8V29.3h.8v6.9zm1.1-2.1v28.3h-.8V25h.8v9.1zm1.1-2v34.7h-.8V20.7h.8v11.4zm1 .7v32.4h-.8v-43h.8v10.6zm1.1-1.6v37.3h-.8V18.8h.8v12.4zm1.1 3.7v25.7h-.8V26.8h.8v8.1zm1.1-2V65h-.8V22.4h.8v10.5zm1-1v35.3h-.8v-47h.8v11.7zm1.1 3.7v23.6h-.8v-31h.8v7.4zm1.1-1.9v29.7h-.8V24h.8v9.7zm1.1-2.5v37.5h-.8V18.8h.8v12.4zm1 .9v34.7h-.8V20.7h.8v11.4zm1.1-.2v35.2h-.8V20.3h.8v11.6zm1.1.9v32.4h-.8V22.3h.8v10.5zm1.1-2.3V70h-.8V17.4h.8v13.1zm1-2.8v48.4h-.8V11.3h.8v16.4zm1.1 5.5v31h-.8v-41h.8v10zm1.1 3.1v21.6h-.8V29.7h.8v6.6zm1.1-1.1v25h-.8V27.3h.8v7.9zm1-1.2v28.6h-.8V24.8h.8V34zm1.1-1.1V65h-.8V22.5h.8v10.4zm1.1-.3v33.1h-.8V21.8h.8v10.8zm1.1.2V65h-.8V22.3h.8v10.5zm1-3.8v44.2h-.8v-59h.8V29zm1.1-.4V74h-.8V13.3h.8v15.3zm1.1-.4V75h-.8V12.4h.8v15.8zm1.1 2.3v39.7h-.8V17.3h.8v13.2zm1-.8v42.2h-.8V15.6h.8v14.1zm1.1 3.3v31.7h-.8v-42h.8V33zm1.1-.7v33.8h-.8V21.3h.8v11zm1.1-.6v35.7h-.8V20h.8v11.7zm1 2.4v28.3h-.8V25h.8v9.1zm1.1-1.2V65h-.8V22.5h.8v10.4zm1.1 1.2v28.3h-.8V25h.8v9.1zm1.1 2.1V58h-.8V29.3h.8v6.9zm1 2v15.5h-.8v-20h.8v4.5zm1.1 2.1v9.1h-.8V38.2h.8v2.1zm1.1-.7v11.1h-.8v-14h.8v2.9zm1.1-2.7v19.6h-.8V31h.8v5.9zm1-1.2V59h-.8V28.5h.8v7.2zm1.1 1.2v19.6h-.8V31h.8v5.9zm1.1-.7v21.6h-.8V29.5h.8v6.7zm1.1 2v15.5h-.8V33.8h.8v4.4zm1-.4v16.8h-.8V32.9h.8v4.9zm1.1 2.5v9h-.8V38.2h.8v2.1zm1.1-1v12h-.8V36.1h.8v3.2zm1.1-3.4v22.5h-.8V28.9h.8v7zm1 .9v19.9h-.8v-26h.8v6.1zm1.1-1.7v25.2h-.8V27.2h.8v7.9zm1.1-1.6v30.2h-.8V23.8h.8v9.7zm1.1.6v28.3h-.8V25.2h.8v8.9zm1-2.9v37.4h-.8V18.8h.8v12.4zm1.1.7v35.2h-.8V20.3h.8v11.6zm1.1-2.1v41.7h-.8V15.9h.8v13.9zm1.1.4v40.5h-.8v-54h.8v13.5zm1 1.4v36.2h-.7V19.7h.8v11.9zm1.1 2.4v28.7h-.8V24.8h.8V34zm1.1 1.7V59h-.8V28.5h.8v7.2zm1.1.3v22.4h-.8V29h.8v7zm1 .7v20.1h-.8V30.7h.8v6zm1.1.8v17.7h-.8V32.3h.8v5.2zm1.1.8v15.2h-.8V34h.8v4.3zm1.1-1.5v19.9h-.8v-26h.8v6.1zm1 1.2v16.1h-.8V33.3h.8V38zm1.1 1.3v12.1h-.8V36h.8v3.3zm1.1-1.3v16.2h-.8V33.3h.8V38zm1.1-1.3v20.2h-.8V30.5h.8v6.2zm1-3.3v30.5h-.8V23.5h.8v9.9zm1.1.7v28.3h-.8V25h.8v9.1zm1.1-1.3v32.4h-.8v-43h.8v10.6zm1.1-3.4v43.1h-.8V15h.8v14.4zm1 2.5V67h-.8V20.4h.8v11.5zM734 34v28.7h-.8V24.8h.8V34zm1.1 1.2V60h-.8V27.5h.8v7.7zm1.1-1.9v30.9h-.8V23.3h.8v10zm1-1.3v35h-.8V20.5h.8V32zm1.1.5v33.3h-.8V21.6h.8v10.9zm1.1 4v21h-.8V30.1h.8v6.4zm1.1 1.3v16.7h-.8V33h.8v4.8zm1-2.6V60h-.8V27.4h.8v7.8zm1.1-1.2v28.6h-.8V24.8h.8V34zm1.1 3.4v18.1h-.8V32h.8v5.4zm1.1-4.9v33.2h-.8V21.6h.8v10.9zm1 1.4v28.8h-.8V24.6h.8v9.3zm1.1 1.5v24.3h-.8v-32h.8v7.7zm1.1 1.4v19.9h-.8v-26h.8v6.1zm1.1 1.4v15.5h-.8v-20h.8v4.5zm1 1.4v11.1h-.8V36.8h.8v2.8zm1.1 1v8h-.8v-9.7h.8v1.7zm1.1-.6v9.7h-.8V37.6h.8V40zm1.1-1.3v13.8h-.8V34.8h.8v3.9zm1-.8v16.6h-.8V33.1h.8v4.8zm1.1 1.3v12.3h-.8V35.8h.8v3.4zm1.1-.5v13.7h-.8V34.8h.8v3.9zm1.1-.4v15.2h-.8V33.9h.8v4.4zm1 1.3v11.1h-.7V36.8h.8v2.8zm1.1-.3v12h-.8V36.1h.8v3.2zm1.1 1.4v7.8h-.8V39h.8v1.7zm1.1-.9v10.5h-.8V37.1h.8v2.7zm1 1.8v4.6h-.8V41h.8v.6zm1.1-.4v6.2h-.8V40h.8v1.2zm1.1 0v6.2h-.8V40h.8v1.2zm1.1.4v4.6h-.8V41h.8v.6zm1-1.8v10.5h-.8V37.1h.8v2.7zm1.1.9v7.8h-.8V39h.8v1.7zm1.1-1.4v12h-.8V36.1h.8v3.2zm1.1.3v11.1h-.8V36.8h.8v2.8zm1-1.3v15.2h-.8V33.9h.8v4.4zm1.1.4v13.7h-.8V34.8h.8v3.9zm1.1.5v12.3h-.8V35.8h.8v3.4zm1.1-1.3v16.6h-.8V33.1h.8v4.8zm1 .8v13.8h-.8V34.8h.8v3.9zM777 40v9.7h-.8V37.6h.8V40zm1.1.6v8h-.8v-9.7h.8v1.7zm1.1-1v11.1h-.8V36.8h.8v2.8zm1-1.4v15.5h-.8v-20h.8v4.5zm1.1-1.4v19.9h-.8v-26h.8v6.1zm1.1-1.4v24.3h-.8v-32h.8v7.7zm1.1-1.5v28.8h-.8V24.6h.8v9.3zm1-1.4v33.2h-.8V21.6h.8v10.9zm1.1 4.9v18.1h-.8V32h.8v5.4zm1.1-3.4v28.6h-.8V24.8h.8V34zm1.1 1.2V60h-.8V27.4h.8v7.8zm1 2.6v16.7h-.8V33h.8v4.8zm1.1-1.3v21h-.8V30.1h.8v6.4zm1.1-4v33.3h-.8V21.6h.8v10.9zm1.1-.5v35h-.8V20.5h.8V32zm1 1.3v30.9h-.8V23.3h.8v10zm1.1 5.5v13.6h-.8V35h.8v3.8zm1.1-.7v15.7h-.8V33.5h.8v4.6zm1.1-1.1v19.2h-.8v-25h.8V37zm1-1.4v23.6h-.8v-31h.8v7.4zm1.1 2.7v15.2h-.8V33.9h.8v4.4zm1.1 2.1V49h-.8V38.4h.8v2zm1.1-.4v9.9h-.8V37.6h.8V40zm1-.4v11.1h-.7v-14h.8v2.9zm1.1-.4v12.5h-.8V35.8h.8v3.4zm1.1-.2v12.9h-.8V35.5h.8V39zm1.1-.9v15.7h-.8V33.5h.8v4.6zm1-1.8v21.6h-.8V29.7h.8v6.6zm1.1-.2v22.1h-.8v-29h.8v6.9zm1.1-.2v22.7h-.8V28.8h.8v7.1zm1.1 1.1v19.3h-.8V31.2h.8V37zm1-.4v20.5h-.8V30.2h.8v6.4zm1.1.4v19.1h-.8V31.2h.8V37zm1.1-.4V57h-.8V30.4h.8v6.2zm1.1 1.1v17.1h-.8V32.7h.8v5zm1 1.1v13.6h-.8V35h.8v3.8zm1.1-.6v15.3h-.8V33.8h.8v4.4zm1.1.6v13.6h-.8V35h.8v3.8zm1.1 1v10.5h-.8V37h.8v2.8zm1 .9v7.6h-.8v-9.2h.8v1.6zm1.1 1v4.6h-.8v-5.2h.8v.6zm1.1-.3V47h-.8v-6.6h.8v1zm1.1-1.3v9.6h-.8V37.8h.8v2.3zm1-.6v11.2h-.8V36.5h.8v3zm1.1.6v9.6h-.8V37.8h.8v2.3zm1.1-.3v10.5h-.8V37.1h.8v2.7zm1.1.6V49h-.8V38.4h.8v2zm1-.3v9.5h-.8V37.8h.8v2.3zm1.1 1.4v5.2h-.8v-5.9h.8v.7zm1.1-.5v6.8h-.8v-8.1h.8V41zm1.1-3.5v17.6h-.8V32.3h.8v5.2zm1 .7v15.5h-.8v-20h.8v4.5zm1.1-1.3v19.6h-.8V31h.8v5.9zm1.1-1.2v23.5h-.8V28.4h.8v7.3zm1.1.4V58h-.8V29.3h.8v6.8zm1-2.3v29.1h-.8V24.4h.8v9.4zm1.1.6v27.4h-.8V25.6h.8v8.8zm1.1-1.6v32.4h-.8v-43h.8v10.6zm1.1.3v31.5h-.8V22.9h.8v10.2zm1 1.1v28.2h-.8V25.2h.8v9zm1.1 1.8v22.4h-.8V29.1h.8V36zm1.1 1.4v18.2h-.8V32h.8v5.4zm1.1.1v17.6h-.8V32.3h.8v5.2zm1 .6v15.7h-.7V33.6h.8v4.5zm1.1.6v13.8h-.8V34.8h.8v3.9zm1.1.6v11.9h-.8V36.1h.8v3.2zm1.1-1.1v15.6h-.8V33.7h.8v4.5zm1 .9v12.6h-.8v-16h.8v3.4zm1.1 1v9.6h-.8V37.8h.8v2.3zm1.1-1v12.7h-.8V35.6h.8v3.5zm1.1-1v15.8h-.8V33.5h.8v4.6zm1-2.5v23.7h-.8V28.2h.8v7.4zm1.1.5v22.1h-.8V29.3h.8v6.8zm1.1-1v25.2h-.8V27.1h.8v8zm1.1-2.6V66h-.8V21.5h.8v11zm1 1.9v27.3h-.8v-36h.8v8.7zm1.1 1.6v22.4h-.8V29.1h.8V36zm1.1 1v19.3h-.8V31.2h.8V37zm1.1-1.5v24.1h-.8V27.9h.8v7.6zm1-1.1v27.2h-.8V25.7h.8v8.7zm1.1 3.1v26h-.8V29.3h.8v8.2zm1.1 3.1v16.3h-.8V35.8h.8v4.8zm1.1 1v13h-.8V38h.8v3.6zm1-2V59h-.8V33.7h.8v5.9zm1.1-.9V61h-.8V31.8h.8v6.9zm1.1 2.6v14.1h-.8V37.3h.8v4zm1.1-3.8v26h-.8V29.3h.8v8.2zm1 1.1V61h-.8V31.6h.8v7zm1.1 1.1v19h-.8V34h.8v5.7zm1.1 1.1v15.5h-.8v-20h.8v4.5zm1.1 1.1V54h-.8V38.6h.8v3.3zm1 1.1v8.7h-.8V41h.8v2zm1.1 1.1v5.3h-.8v-6h.8v.7zm1.1-.3v6.3h-.8v-7.5h.8v1.2zm1.1-1.5v10.8h-.8V39.5h.8v2.8zm1-.6v12.9h-.8V38.2h.8v3.5z"/></svg>