<?xml version="1.0" standalone="no"?>
<!DOCTYPE svg PUBLIC "-//W3C//DTD SVG 1.1//EN" "http://www.w3.org/Graphics/SVG/1.1/DTD/svg11.dtd" >
<svg>
<metadata>
Created by FontForge 20090914 at Wed Apr 13 13:50:03 2016
 By www-data
</metadata>
<defs>
<font id="Material-Design-Iconic-Font" horiz-adv-x="427" >
  <font-face 
    font-family="Material-Design-Iconic-Font"
    font-weight="500"
    font-stretch="normal"
    units-per-em="512"
    panose-1="2 0 6 3 0 0 0 0 0 0"
    ascent="448"
    descent="-64"
    bbox="-0.454772 -64.001 548.86 448.379"
    underline-thickness="25"
    underline-position="-52"
    unicode-range="U+F101-U+F409"
  />
<missing-glyph horiz-adv-x="187" 
d="M17 0v341h136v-341h-136zM34 17h102v307h-102v-307z" />
    <glyph glyph-name=".notdef" horiz-adv-x="187" 
d="M17 0v341h136v-341h-136zM34 17h102v307h-102v-307z" />
    <glyph glyph-name="uniF101" unicode="&#xf101;" horiz-adv-x="510" 
d="M159 -10l29 28l81 -81l-14 -1c-66.667 0 -124.5 22.667 -173.5 68s-76.167 101 -81.5 167h32c4 -40 17.333 -76 40 -108s51.667 -56.333 87 -73zM178 129c9.33301 0 16.334 2.33203 21.001 6.99902s7 11.334 7 20.001c0 4.66699 -0.666992 8.66699 -2 12s-3.33301 6 -6 8
c-2.66699 2.66699 -5.83398 4.5 -9.50098 5.5s-8.16699 1.5 -13.5 1.5h-16v22h16c5.33301 0 9.66602 0.666992 12.999 2s6 3 8 5c2.66699 2 4.66699 4.66699 6 8s2 6.66602 2 9.99902c0 8 -2.33301 14.333 -7 19c-4 4 -10.333 6 -19 6
c-3.33301 0 -6.66602 -0.666992 -9.99902 -2c-2.66699 -0.666992 -5.33398 -2 -8.00098 -4c-2 -2 -3.66699 -4.66699 -5 -8c-1.33301 -2.66699 -2 -5.66699 -2 -9h-28c0 6.66699 1.33301 12.667 4 18s6.33398 10 11.001 14s10.334 7.33301 17.001 10c6 2 13 3 21 3
c7.33301 0 14.666 -1 21.999 -3c6.66699 -2 12 -5 16 -9c4.66699 -4 8.33398 -9 11.001 -15s4 -12.667 4 -20c0 -3.33301 -0.666992 -6.66602 -2 -9.99902c-0.666992 -3.33301 -2 -6.66602 -4 -9.99902c-2.66699 -3.33301 -5.33398 -6.33301 -8.00098 -9
c-3.33301 -2.66699 -7 -5 -11 -7c4.66699 -2 9 -4.33301 13 -7c3.33301 -2.66699 6 -5.66699 8 -9c2 -2.66699 3.66699 -6.33398 5 -11.001c1.33301 -3.33301 2 -7.33301 2 -12c0 -7.33301 -1.66699 -14 -5 -20c-2.66699 -6 -6.5 -11.167 -11.5 -15.5
s-10.833 -7.5 -17.5 -9.5s-14 -3 -22 -3c-7.33301 0 -14.333 1 -21 3c-6 2 -11.667 5 -17 9s-9.33301 8.83301 -12 14.5s-4 12.5 -4 20.5h27c0 -4 0.666992 -7.5 2 -10.5s3.33301 -5.5 6 -7.5c2 -2 4.66699 -3.66699 8 -5s7 -2 11 -2zM360.501 255.499
c7 -7 12.5 -15.5 16.5 -25.5c3.33301 -10.667 5 -22 5 -34v-8c0 -12.667 -1.66699 -24 -5 -34c-4 -10 -9.33301 -18.333 -16 -25c-6.66699 -7.33301 -15 -13 -25 -17c-9.33301 -3.33301 -20 -5 -32 -5h-49v170h50c12 0 22.5 -1.83301 31.5 -5.5s17 -9 24 -16z
M352.001 187.999v8c0 18.667 -4 33 -12 43c-8 9.33301 -19.667 14 -35 14h-20v-123h19c8 0 15 1.33301 21 4s11 6.33398 15 11.001c4 5.33301 7 11.666 9 18.999s3 15.333 3 24zM255.001 447.999c66.667 0 124.5 -22.668 173.5 -68.001s76.167 -100.666 81.5 -165.999h-32
c-4 39.333 -17.5 75 -40.5 107s-51.833 56.333 -86.5 73l-29 -28l-81 81z" />
    <glyph glyph-name="uniF102" unicode="&#xf102;" horiz-adv-x="405" 
d="M235 256l170 -107v-42l-67 21l-167 167v78c0 9.33301 3 17 9 23s13.5 9 22.5 9s16.667 -3 23 -9s9.5 -13.667 9.5 -23v-117zM21 336l27 27l336 -336l-27 -27l-122 122v-79l42 -32v-32l-74 21l-75 -21v32l43 32v117l-171 -53v42l128 80z" />
    <glyph glyph-name="uniF103" unicode="&#xf103;" horiz-adv-x="405" 
d="M405 107l-170 53v-117l42 -32v-32l-74 21l-75 -21v32l43 32v117l-171 -53v42l171 107v117c0 9.33301 3 17 9 23s13.5 9 22.5 9s16.667 -3 23 -9s9.5 -13.667 9.5 -23v-117l170 -107v-42z" />
    <glyph glyph-name="uniF104" unicode="&#xf104;" 
d="M213.5 405c59 0 109.333 -20.833 151 -62.5s62.5 -91.834 62.5 -150.501s-20.833 -108.834 -62.5 -150.501s-92 -62.5 -151 -62.5s-109.333 20.833 -151 62.5s-62.5 91.834 -62.5 150.501s20.833 108.834 62.5 150.501s92 62.5 151 62.5zM213 96
c26.667 0 49.334 9.33301 68.001 28s28 41.334 28 68.001s-9.33301 49.334 -28 68.001s-41.334 28 -68.001 28s-49.334 -9.33301 -68.001 -28s-28 -41.334 -28 -68.001s9.33301 -49.334 28 -68.001s41.334 -28 68.001 -28zM213.5 213c5.66699 0 10.667 -2 15 -6
s6.5 -9 6.5 -15s-2.16699 -11 -6.5 -15s-9.33301 -6 -15 -6s-10.667 2 -15 6s-6.5 9 -6.5 15s2.16699 11 6.5 15s9.33301 6 15 6z" />
    <glyph glyph-name="uniF105" unicode="&#xf105;" horiz-adv-x="384" 
d="M374 336c6.66699 -7.33301 10 -16.333 10 -27v-266c0 -12 -4.16699 -22.167 -12.5 -30.5s-18.5 -12.5 -30.5 -12.5h-298c-12 0 -22.167 4.16699 -30.5 12.5s-12.5 18.5 -12.5 30.5v266c-0 10.667 3.33301 19.667 10 27l29 36c6.66699 8 15 12 25 12h256
c10 0 18.333 -4 25 -12zM192 75l117 117h-74v43h-86v-43h-74zM45 341h294l-20 22h-256z" />
    <glyph glyph-name="uniF106" unicode="&#xf106;" horiz-adv-x="384" 
d="M341 384c12 0 22.167 -4.16699 30.5 -12.5s12.5 -18.5 12.5 -30.5v-298c0 -12 -4.16699 -22.167 -12.5 -30.5s-18.5 -12.5 -30.5 -12.5h-298c-12 0 -22.167 4.16699 -30.5 12.5s-12.5 18.5 -12.5 30.5v298c0 12 4.16699 22.167 12.5 30.5s18.5 12.5 30.5 12.5h89
c4.66699 12.667 12.5 23 23.5 31s23.167 12 36.5 12s25.5 -4 36.5 -12s18.833 -18.333 23.5 -31h89zM192 384c-6 0 -11 -2.16699 -15 -6.5s-6 -9.33301 -6 -15s2 -10.667 6 -15s9 -6.5 15 -6.5s11 2.16699 15 6.5s6 9.33301 6 15s-2 10.667 -6 15s-9 6.5 -15 6.5zM192 299
c-18 0 -33.167 -6.33301 -45.5 -19s-18.5 -27.834 -18.5 -45.501s6.16699 -32.667 18.5 -45s27.5 -18.5 45.5 -18.5s33.167 6.16699 45.5 18.5s18.5 27.333 18.5 45s-6.16699 32.834 -18.5 45.501s-27.5 19 -45.5 19zM320 43l-0.00195312 30
c0 12.667 -7.83301 24.334 -23.5 35.001s-33.167 18.5 -52.5 23.5s-36.666 7.5 -51.999 7.5s-32.666 -2.5 -51.999 -7.5s-36.833 -12.833 -52.5 -23.5s-23.5 -22.334 -23.5 -35.001v-30h256z" />
    <glyph glyph-name="uniF107" unicode="&#xf107;" horiz-adv-x="384" 
d="M341 384c12 0 22.167 -4.16699 30.5 -12.5s12.5 -18.5 12.5 -30.5v-298c0 -12 -4.16699 -22.167 -12.5 -30.5s-18.5 -12.5 -30.5 -12.5h-298c-12 0 -22.167 4.16699 -30.5 12.5s-12.5 18.5 -12.5 30.5v298c0 12 4.16699 22.167 12.5 30.5s18.5 12.5 30.5 12.5h89
c4.66699 12.667 12.5 23 23.5 31s23.167 12 36.5 12s25.5 -4 36.5 -12s18.833 -18.333 23.5 -31h89zM213 64v43h-42v-43h42zM213 149v128h-42v-128h42zM192 341c6 0 11 2.16699 15 6.5s6 9.33301 6 15s-2 10.667 -6 15s-9 6.5 -15 6.5s-11 -2.16699 -15 -6.5
s-6 -9.33301 -6 -15s2 -10.667 6 -15s9 -6.5 15 -6.5z" />
    <glyph glyph-name="uniF108" unicode="&#xf108;" horiz-adv-x="384" 
d="M341 384c12 0 22.167 -4.16699 30.5 -12.5s12.5 -18.5 12.5 -30.5v-298c0 -12 -4.16699 -22.167 -12.5 -30.5s-18.5 -12.5 -30.5 -12.5h-298c-12 0 -22.167 4.16699 -30.5 12.5s-12.5 18.5 -12.5 30.5v298c0 12 4.16699 22.167 12.5 30.5s18.5 12.5 30.5 12.5h89
c4.66699 12.667 12.5 23 23.5 31s23.167 12 36.5 12s25.5 -4 36.5 -12s18.833 -18.333 23.5 -31h89zM192 384c-6 0 -11 -2.16699 -15 -6.5s-6 -9.33301 -6 -15s2 -10.667 6 -15s9 -6.5 15 -6.5s11 2.16699 15 6.5s6 9.33301 6 15s-2 10.667 -6 15s-9 6.5 -15 6.5zM149 85
l171 171l-30 30l-141 -140l-55 55l-30 -30z" />
    <glyph glyph-name="uniF109" unicode="&#xf109;" horiz-adv-x="384" 
d="M341 405c12 0 22.167 -4.16699 30.5 -12.5s12.5 -18.166 12.5 -29.499v-342c0 -11.333 -4.16699 -21.166 -12.5 -29.499s-18.5 -12.5 -30.5 -12.5h-298c-12 0 -22.167 4.16699 -30.5 12.5s-12.5 18.166 -12.5 29.499v342c0 11.333 4.16699 21.166 12.5 29.499
s18.5 12.5 30.5 12.5h89c4.66699 12.667 12.5 23 23.5 31s23.167 12 36.5 12s25.5 -4 36.5 -12s18.833 -18.333 23.5 -31h89zM192 405c-6 0 -11 -2 -15 -6s-6 -9 -6 -15s2 -11 6 -15s9 -6 15 -6s11 2 15 6s6 9 6 15s-2 11 -6 15s-9 6 -15 6zM341 21v342h-42v-64h-214v64h-42
v-342h298z" />
    <glyph glyph-name="uniF10A" unicode="&#xf10a;" horiz-adv-x="384" 
d="M341 384c12 0 22.167 -4.16699 30.5 -12.5s12.5 -18.5 12.5 -30.5v-298c0 -12 -4.16699 -22.167 -12.5 -30.5s-18.5 -12.5 -30.5 -12.5h-298c-12 0 -22.167 4.16699 -30.5 12.5s-12.5 18.5 -12.5 30.5v298c0 12 4.16699 22.167 12.5 30.5s18.5 12.5 30.5 12.5h89
c4.66699 12.667 12.5 23 23.5 31s23.167 12 36.5 12s25.5 -4 36.5 -12s18.833 -18.333 23.5 -31h89zM192 384c-6 0 -11 -2.16699 -15 -6.5s-6 -9.33301 -6 -15s2 -10.667 6 -15s9 -6.5 15 -6.5s11 2.16699 15 6.5s6 9.33301 6 15s-2 10.667 -6 15s-9 6.5 -15 6.5zM277 128
v85h-85v64l-107 -106l107 -107v64h85z" />
    <glyph glyph-name="uniF10B" unicode="&#xf10b;" horiz-adv-x="384" 
d="M341 384c12 0 22.167 -4.16699 30.5 -12.5s12.5 -18.5 12.5 -30.5v-298c0 -12 -4.16699 -22.167 -12.5 -30.5s-18.5 -12.5 -30.5 -12.5h-298c-12 0 -22.167 4.16699 -30.5 12.5s-12.5 18.5 -12.5 30.5v298c0 12 4.16699 22.167 12.5 30.5s18.5 12.5 30.5 12.5h89
c4.66699 12.667 12.5 23 23.5 31s23.167 12 36.5 12s25.5 -4 36.5 -12s18.833 -18.333 23.5 -31h89zM192 384c-6 0 -11 -2.16699 -15 -6.5s-6 -9.33301 -6 -15s2 -10.667 6 -15s9 -6.5 15 -6.5s11 2.16699 15 6.5s6 9.33301 6 15s-2 10.667 -6 15s-9 6.5 -15 6.5zM192 64
l107 107h-64v85h-86v-85h-64z" />
    <glyph glyph-name="uniF10C" unicode="&#xf10c;" horiz-adv-x="384" 
d="M341 363c12 0 22.167 -4.16699 30.5 -12.5s12.5 -18.5 12.5 -30.5v-299c0 -11.333 -4.16699 -21.166 -12.5 -29.499s-18.5 -12.5 -30.5 -12.5h-298c-12 0 -22.167 4.16699 -30.5 12.5s-12.5 18.166 -12.5 29.499v299c0 12 4.16699 22.167 12.5 30.5s18.5 12.5 30.5 12.5
h89c4.66699 12.667 12.5 22.834 23.5 30.501s23.167 11.5 36.5 11.5s25.5 -3.83301 36.5 -11.5s18.833 -17.834 23.5 -30.501h89zM192 363c-6 0 -11 -2.16699 -15 -6.5s-6 -9.33301 -6 -15s2 -10.667 6 -15s9 -6.5 15 -6.5s11 2.16699 15 6.5s6 9.33301 6 15
s-2 10.667 -6 15s-9 6.5 -15 6.5zM235 64v43h-150v-43h150zM299 149v43h-214v-43h214zM299 235v42h-214v-42h214z" />
    <glyph glyph-name="uniF10D" unicode="&#xf10d;" horiz-adv-x="235" 
d="M203 320h31.998v-245c0 -32.667 -11.5 -60.5 -34.5 -83.5s-50.667 -34.5 -83 -34.5s-60 11.5 -83 34.5s-34.5 50.833 -34.5 83.5v266c0 24 8.33301 44.333 25 61s36.834 25 60.501 25s43.834 -8.33301 60.501 -25s25 -37 25 -61v-224
c0 -14.667 -5.33301 -27.167 -16 -37.5s-23.334 -15.5 -38.001 -15.5s-27.167 5.16699 -37.5 15.5s-15.5 22.833 -15.5 37.5v203h32v-203c0 -5.33301 2.16699 -10.166 6.5 -14.499s9.33301 -6.5 15 -6.5s10.667 2.16699 15 6.5s6.5 9.16602 6.5 14.499v224
c0 14.667 -5.33301 27.334 -16 38.001s-23.334 16 -38.001 16s-27.167 -5.33301 -37.5 -16s-15.5 -23.334 -15.5 -38.001v-266c0 -24 8.33301 -44.333 25 -61s36.834 -25 60.501 -25s43.834 8.33301 60.501 25s25 37 25 61v245z" />
    <glyph glyph-name="uniF10E" unicode="&#xf10e;" 
d="M117 75c-32 0 -59.5 11.3311 -82.5 33.998s-34.5 50.334 -34.5 83.001s11.5 60.334 34.5 83.001s50.5 34 82.5 34h224c24 0 44.333 -8.33301 61 -25s25 -36.667 25 -60s-8.33301 -43.333 -25 -60s-37 -25 -61 -25h-181c-14.667 0 -27.167 5.16699 -37.5 15.5
s-15.5 22.833 -15.5 37.5s5.16699 27.167 15.5 37.5s22.833 15.5 37.5 15.5h160v-32h-160c-6 0 -11 -2 -15 -6s-6 -9 -6 -15s2 -11 6 -15s9 -6 15 -6h181c14.667 0 27.334 5.16699 38.001 15.5s16 22.833 16 37.5s-5.33301 27.167 -16 37.5s-23.334 15.5 -38.001 15.5h-224
c-23.333 0 -43.333 -8.33301 -60 -25s-25 -36.667 -25 -60s8.33301 -43.333 25 -60s36.667 -25 60 -25h203v-32h-203z" />
    <glyph glyph-name="uniF10F" unicode="&#xf10f;" horiz-adv-x="277" 
d="M128 384l149 -0.00195312v-64h-85v-235h-1c-2.66699 -24 -13 -44.167 -31 -60.5s-39.333 -24.5 -64 -24.5c-26.667 0 -49.334 9.33301 -68.001 28s-28 41.334 -28 68.001s9.33301 49.334 28 68.001s41.334 28 68.001 28c10 0 20.667 -2 32 -6v198z" />
    <glyph glyph-name="uniF110" unicode="&#xf110;" horiz-adv-x="384" 
d="M341 427c12 0 22.167 -4.16699 30.5 -12.5s12.5 -18.5 12.5 -30.5v-276c0 -15.333 -6.33301 -27 -19 -35l-173 -116l-173 116c-12.667 8 -19 19.667 -19 35v276c0 12 4.16699 22.167 12.5 30.5s18.5 12.5 30.5 12.5h298zM149 107l192 192l-30 30l-162 -162l-76 76
l-30 -30z" />
    <glyph glyph-name="uniF111" unicode="&#xf111;" horiz-adv-x="405" 
d="M384 64v-21c0 -12 -4.16699 -22.167 -12.5 -30.5s-18.5 -12.5 -30.5 -12.5h-298c-12 0 -22.167 4.16699 -30.5 12.5s-12.5 18.5 -12.5 30.5v298c0 12 4.16699 22.167 12.5 30.5s18.5 12.5 30.5 12.5h298c12 0 22.167 -4.16699 30.5 -12.5s12.5 -18.5 12.5 -30.5v-21h-192
c-12 0 -22.167 -4.16699 -30.5 -12.5s-12.5 -18.5 -12.5 -30.5v-170c0 -12 4.16699 -22.167 12.5 -30.5s18.5 -12.5 30.5 -12.5h192zM192 107v170h213v-170h-213zM277.5 160c9 0 16.5 3.16699 22.5 9.5s9 13.833 9 22.5s-3 16.167 -9 22.5s-13.5 9.5 -22.5 9.5
s-16.667 -3.16699 -23 -9.5s-9.5 -13.833 -9.5 -22.5s3.16699 -16.167 9.5 -22.5s14 -9.5 23 -9.5z" />
    <glyph glyph-name="uniF112" unicode="&#xf112;" horiz-adv-x="405" 
d="M43 235h64v-150h-64v150zM171 235h64v-150h-64v150zM0 -21v64h405v-64h-405zM299 235h64v-150h-64v150zM203 427l202 -107v-43h-405v43z" />
    <glyph glyph-name="uniF113" unicode="&#xf113;" horiz-adv-x="213" 
d="M185 363c8 0 14.667 -2.83301 20 -8.5s8 -12.5 8 -20.5v-327c0 -8 -2.66699 -14.667 -8 -20s-12 -8 -20 -8h-157c-7.33301 0 -13.833 2.66699 -19.5 8s-8.5 12 -8.5 20v327c-0 8 2.83301 14.833 8.5 20.5s12.167 8.5 19.5 8.5h36v42h85v-42h36zM128 64v43h-43v-43h43z
M128 149v107h-43v-107h43z" />
    <glyph glyph-name="uniF114" unicode="&#xf114;" horiz-adv-x="213" 
d="M185 363c8 0 14.667 -2.83301 20 -8.5s8 -12.5 8 -20.5v-327c0 -8 -2.66699 -14.667 -8 -20s-12 -8 -20 -8h-157c-7.33301 0 -13.833 2.66699 -19.5 8s-8.5 12 -8.5 20v327c-0 8 2.83301 14.833 8.5 20.5s12.167 8.5 19.5 8.5h36v42h85v-42h36zM85 21l86 160h-43v118
l-85 -160h42v-118z" />
    <glyph glyph-name="uniF115" unicode="&#xf115;" horiz-adv-x="213" 
d="M185 363c8 0 14.667 -2.83301 20 -8.5s8 -12.5 8 -20.5v-327c0 -8 -2.66699 -14.667 -8 -20s-12 -8 -20 -8h-157c-7.33301 0 -13.833 2.66699 -19.5 8s-8.5 12 -8.5 20v327c-0 8 2.83301 14.833 8.5 20.5s12.167 8.5 19.5 8.5h36v42h85v-42h36zM127 65v41h-41v-41h41z
M156 177c10 10 15.001 22 15.001 36c0 18 -6.33301 33.167 -19 45.5s-27.834 18.5 -45.501 18.5s-32.667 -6.16699 -45 -18.5s-18.5 -27.5 -18.5 -45.5h32c0 9.33301 3 17 9 23s13.5 9 22.5 9s16.667 -3 23 -9s9.5 -13.5 9.5 -22.5s-3.33301 -16.5 -10 -22.5l-20 -20
c-12.667 -14 -19 -28.333 -19 -43h34c0 10.667 5.66699 22 17 34z" />
    <glyph glyph-name="uniF116" unicode="&#xf116;" horiz-adv-x="213" 
d="M185 363c8 0 14.667 -2.83301 20 -8.5s8 -12.5 8 -20.5v-327c0 -8 -2.66699 -14.667 -8 -20s-12 -8 -20 -8h-157c-7.33301 0 -13.833 2.66699 -19.5 8s-8.5 12 -8.5 20v327c-0 8 2.83301 14.833 8.5 20.5s12.167 8.5 19.5 8.5h36v42h85v-42h36z" />
    <glyph glyph-name="uniF117" unicode="&#xf117;" horiz-adv-x="512" 
d="M330.5 331c-11.667 0 -21.667 4.16699 -30 12.5s-12.5 18.333 -12.5 30s4.16699 21.667 12.5 30s18.333 12.5 30 12.5s21.667 -4.16699 30 -12.5s12.5 -18.333 12.5 -30s-4.16699 -21.667 -12.5 -30s-18.333 -12.5 -30 -12.5zM106.5 192
c29.667 0 54.834 -10.333 75.501 -31s31 -45.834 31 -75.501s-10.333 -54.834 -31 -75.501s-45.834 -31 -75.501 -31s-54.834 10.333 -75.501 31s-31 45.834 -31 75.501s10.333 54.834 31 75.501s45.834 31 75.501 31zM106.5 11c20.333 0 37.833 7.33301 52.5 22
s22 32.167 22 52.5s-7.33301 37.833 -22 52.5s-32.167 22 -52.5 22s-37.833 -7.33301 -52.5 -22s-22 -32.167 -22 -52.5s7.33301 -37.833 22 -52.5s32.167 -22 52.5 -22zM230 224l47.001 -49v-132h-42v106l-69 60c-8 6.66699 -12 16.667 -12 30c0 11.333 4 21.333 12 30
l60 60c6.66699 8 16.667 12 30 12c12 0 23.333 -4 34 -12l41 -41c21.333 -21.333 46.666 -32 75.999 -32v-43c-42.667 0 -78.667 15 -108 45l-17 17zM405.501 192c29.667 0 54.834 -10.333 75.501 -31s31 -45.834 31 -75.501s-10.333 -54.834 -31 -75.501
s-45.834 -31 -75.501 -31s-54.834 10.333 -75.501 31s-31 45.834 -31 75.501s10.333 54.834 31 75.501s45.834 31 75.501 31zM405.501 11c20.333 0 37.833 7.33301 52.5 22s22 32.167 22 52.5s-7.33301 37.833 -22 52.5s-32.167 22 -52.5 22s-37.833 -7.33301 -52.5 -22
s-22 -32.167 -22 -52.5s7.33301 -37.833 22 -52.5s32.167 -22 52.5 -22z" />
    <glyph glyph-name="uniF118" unicode="&#xf118;" 
d="M213.5 405c59 0 109.333 -20.833 151 -62.5s62.5 -91.834 62.5 -150.501s-20.833 -108.834 -62.5 -150.501s-92 -62.5 -151 -62.5s-109.333 20.833 -151 62.5s-62.5 91.834 -62.5 150.501s20.833 108.834 62.5 150.501s92 62.5 151 62.5zM213 21
c38.667 0 73.667 11.999 105 35.999l-239 240c-24 -31.333 -36 -66.333 -36 -105c0 -47.333 16.667 -87.666 50 -120.999s73.333 -50 120 -50zM348 86.999c24 31.333 36 66.334 36 105.001c0 47.333 -16.667 87.666 -50 120.999s-73.666 50 -120.999 50
c-38.667 0 -73.334 -12 -104.001 -36z" />
    <glyph glyph-name="uniF119" unicode="&#xf119;" 
d="M213.5 405c59 0 109.333 -20.833 151 -62.5s62.5 -91.834 62.5 -150.501s-20.833 -108.834 -62.5 -150.501s-92 -62.5 -151 -62.5s-109.333 20.833 -151 62.5s-62.5 91.834 -62.5 150.501s20.833 108.834 62.5 150.501s92 62.5 151 62.5zM43 192
c0 -39.333 12 -74.334 36 -105.001l239 240c-30.667 24 -65.667 36 -105 36c-46.667 0 -86.667 -16.667 -120 -50s-50 -73.666 -50 -120.999zM213 20.999c47.333 0 87.666 16.668 120.999 50.001s50 73.666 50 120.999c0 39.333 -12 74.333 -36 105l-239 -240
c30.667 -24 65.334 -36 104.001 -36z" />
    <glyph glyph-name="uniF11A" unicode="&#xf11a;" 
d="M384 0h42.999v-43h-43c-29.333 0 -57.666 7 -84.999 21c-27.333 -13.333 -56 -20 -86 -20s-58.333 6.66699 -85 20c-28 -14 -56.333 -21 -85 -21h-43v43h43c30 -0 58.333 9.33301 85 28c26 -18 54.5 -27 85.5 -27s59.5 9 85.5 27c26.667 -18.667 55 -28 85 -28z
M41.999 43l-40.999 142c-2 5.33301 -1.66699 11 1 17c2.66699 5.33301 7 8.66602 13 9.99902l28 9v99c0 12 4.16699 22.167 12.5 30.5s18.166 12.5 29.499 12.5h64v64h128v-64h64c12 0 22.167 -4.16699 30.5 -12.5s12.5 -18.5 12.5 -30.5v-99l27 -9
c6 -1.33301 10.333 -4.66602 13 -9.99902s3 -11 1 -17l-40 -142h-1c-32 0 -60.333 14 -85 42c-25.333 -28 -54 -42 -86 -42s-60.333 14 -85 42c-24.667 -28 -53 -42 -85 -42h-1zM85 320v-85l128 42l128 -42v85h-256z" />
    <glyph glyph-name="uniF11B" unicode="&#xf11b;" horiz-adv-x="341" 
d="M299 405c11.333 0 21.166 -4.16699 29.499 -12.5s12.5 -18.166 12.5 -29.499v-342c0 -11.333 -4.16699 -21.166 -12.5 -29.499s-18.166 -12.5 -29.499 -12.5h-256c-12 0 -22.167 4.16699 -30.5 12.5s-12.5 18.166 -12.5 29.499v342c0 11.333 4.16699 21.166 12.5 29.499
s18.5 12.5 30.5 12.5h256zM43 363v-171l53 32l53 -32v171h-106zM43 43h256l-83 109l-64 -82l-45 55z" />
    <glyph glyph-name="uniF11C" unicode="&#xf11c;" horiz-adv-x="341" 
d="M299 405c11.333 0 21.166 -4.16699 29.499 -12.5s12.5 -18.166 12.5 -29.499v-342c0 -11.333 -4.16699 -21.166 -12.5 -29.499s-18.166 -12.5 -29.499 -12.5h-256c-12 0 -22.167 4.16699 -30.5 12.5s-12.5 18.166 -12.5 29.499v342c0 11.333 4.16699 21.166 12.5 29.499
s18.5 12.5 30.5 12.5h256zM43 363v-171l53 32l53 -32v171h-106z" />
    <glyph glyph-name="uniF11D" unicode="&#xf11d;" horiz-adv-x="299" 
d="M256 384c12 0 22.167 -4.16699 30.5 -12.5s12.5 -18.5 12.5 -30.5v-341l-150 64l-149 -64v341c0 12 4.16699 22.167 12.5 30.5s18.5 12.5 30.5 12.5h213zM256 64v277h-213v-277l106 47z" />
    <glyph glyph-name="uniF11E" unicode="&#xf11e;" horiz-adv-x="299" 
d="M256 384c12 0 22.167 -4.16699 30.5 -12.5s12.5 -18.5 12.5 -30.5v-341l-150 64l-149 -64v341c0 12 4.16699 22.167 12.5 30.5s18.5 12.5 30.5 12.5h213z" />
    <glyph glyph-name="uniF11F" unicode="&#xf11f;" horiz-adv-x="405" 
d="M106.5 149c17.667 0 32.833 -6.16797 45.5 -18.501s19 -27.5 19 -45.5c0 -23.333 -8.33301 -43.333 -25 -60s-37 -25 -61 -25c-16 0 -31.667 3.83301 -47 11.5s-28 18.167 -38 31.5c10 0 19.667 3.83301 29 11.5s14 17.834 14 30.501c0 18 6.16699 33.167 18.5 45.5
s27.333 18.5 45 18.5zM398.999 348.999c4 -4 5.99805 -9 5.99805 -15s-2 -11 -6 -15l-191 -191l-59 59l191 191c4.66699 4 9.83398 6 15.501 6s10.834 -2 15.501 -6z" />
    <glyph glyph-name="uniF120" unicode="&#xf120;" horiz-adv-x="341" 
d="M341 277l-0.000976562 -42h-44c1.33301 -8.66699 2 -16 2 -22v-21h42v-43h-42v-21c0 -6 -0.666992 -13 -2 -21h44v-43h-60c-11.333 -19.333 -26.666 -34.833 -45.999 -46.5s-40.666 -17.5 -63.999 -17.5s-44.833 5.83301 -64.5 17.5s-35.167 27.167 -46.5 46.5h-60v43h45
c-1.33301 8 -2 15 -2 21v21h-43v43h43v21c0 6 0.666992 13.333 2 22h-45v42h60c10 17.333 23 31.333 39 42l-35 35l30 30l47 -46c9.33301 2 19.166 3 29.499 3s20.5 -1 30.5 -3l46 46l30 -30l-34 -35c16 -10.667 28.667 -24.667 38 -42h60zM212.999 107v42h-85v-42h85z
M212.999 192v43h-85v-43h85z" />
    <glyph glyph-name="uniF121" unicode="&#xf121;" horiz-adv-x="341" 
d="M0 107v213c0 18 4.16699 32.833 12.5 44.5s21 20.334 38 26.001s34.667 9.5 53 11.5s40.666 3 66.999 3s48.666 -1 66.999 -3s36 -5.83301 53 -11.5s29.667 -14.334 38 -26.001s12.5 -26.5 12.5 -44.5v-213c0 -18.667 -7 -34.667 -21 -48v-38
c0 -5.33301 -2.16699 -10.166 -6.5 -14.499s-9.16602 -6.5 -14.499 -6.5h-22c-5.33301 0 -10.166 2.16699 -14.499 6.5s-6.5 9.16602 -6.5 14.499v22h-171v-22c0 -5.33301 -2 -10.166 -6 -14.499s-9 -6.5 -15 -6.5h-21c-6 0 -11.167 2.16699 -15.5 6.5
s-6.5 9.16602 -6.5 14.499v38c-14 13.333 -21 29.333 -21 48zM74.5 85c9 0 16.667 3.16699 23 9.5s9.5 14 9.5 23s-3.16699 16.5 -9.5 22.5s-14 9 -23 9s-16.5 -3 -22.5 -9s-9 -13.5 -9 -22.5s3 -16.667 9 -23s13.5 -9.5 22.5 -9.5zM266.5 85c9 0 16.667 3.16699 23 9.5
s9.5 14 9.5 23s-3.16699 16.5 -9.5 22.5s-14 9 -23 9s-16.5 -3 -22.5 -9s-9 -13.5 -9 -22.5s3 -16.667 9 -23s13.5 -9.5 22.5 -9.5zM299 213v107h-256v-107h256z" />
    <glyph glyph-name="uniF122" unicode="&#xf122;" horiz-adv-x="384" 
d="M192 320c-12 0 -22.167 4.16699 -30.5 12.5s-12.5 18.5 -12.5 30.5c0 8 2.33301 15.333 7 22l36 63l36 -63c4.66699 -6.66699 7 -14 7 -22c0 -12 -4.16699 -22.167 -12.5 -30.5s-18.5 -12.5 -30.5 -12.5zM290 107c14.667 -14.667 31.998 -22 51.998 -22
c15.333 0 29.333 4.33301 42 13v-98c0 -6 -2.16699 -11 -6.5 -15s-9.16602 -6 -14.499 -6h-342c-5.33301 0 -10.166 2 -14.499 6s-6.5 9 -6.5 15v98c12.667 -8.66699 26.667 -13 42 -13c20 0 37.333 7.33301 52 22l23 23l23 -23c14 -14 31.333 -21 52 -21s38 7 52 21l23 23z
M319.998 256c18 0 33.165 -6.16699 45.498 -18.5s18.5 -27.5 18.5 -45.5v-33c0 -11.333 -4.16699 -21.166 -12.5 -29.499s-18.166 -12.5 -29.499 -12.5s-21 4 -29 12l-46 46l-46 -46c-7.33301 -7.33301 -17 -11 -29 -11s-22 3.66699 -30 11l-45 46l-46 -46
c-8 -8 -17.667 -12 -29 -12s-21.166 4.16699 -29.499 12.5s-12.5 18.166 -12.5 29.499v33c0 18 6.16699 33.167 18.5 45.5s27.5 18.5 45.5 18.5h107v43h42v-43h107z" />
    <glyph glyph-name="uniF123" unicode="&#xf123;" horiz-adv-x="384" 
d="M340 320l43.998 -128v-171c0 -5.33301 -2.16699 -10.166 -6.5 -14.499s-9.16602 -6.5 -14.499 -6.5h-22c-5.33301 0 -10.166 2.16699 -14.499 6.5s-6.5 9.16602 -6.5 14.499v22h-256v-22c0 -5.33301 -2.16699 -10.166 -6.5 -14.499s-9.16602 -6.5 -14.499 -6.5h-22
c-5.33301 0 -10.166 2.16699 -14.499 6.5s-6.5 9.16602 -6.5 14.499v171l44 128c5.33301 14 15.666 21 30.999 21h53v43h128v-43h53c15.333 0 25.666 -7 30.999 -21zM74.498 107c9 0 16.667 3 23 9s9.5 13.5 9.5 22.5s-3.16699 16.667 -9.5 23s-14 9.5 -23 9.5
s-16.5 -3.16699 -22.5 -9.5s-9 -14 -9 -23s3 -16.5 9 -22.5s13.5 -9 22.5 -9zM309.498 107c9 0 16.5 3 22.5 9s9 13.5 9 22.5s-3 16.667 -9 23s-13.5 9.5 -22.5 9.5s-16.667 -3.16699 -23 -9.5s-9.5 -14 -9.5 -23s3.16699 -16.5 9.5 -22.5s14 -9 23 -9zM42.998 213h298
l-32 96h-234z" />
    <glyph glyph-name="uniF124" unicode="&#xf124;" horiz-adv-x="384" 
d="M298.5 341c-9 0 -16.499 3.16602 -22.499 9.49902s-9 13.833 -9 22.5c0 6.66699 2.66699 14.834 8 24.501s10.666 17.5 15.999 23.5l8 10c21.333 -24 32 -43.333 32 -58c0 -8.66699 -3.16699 -16.167 -9.5 -22.5s-14 -9.5 -23 -9.5zM192.001 340.999
c-8.66699 0 -16.166 3.16602 -22.499 9.49902s-9.5 13.833 -9.5 22.5c0 6.66699 2.66699 14.834 8 24.501s10.666 17.5 15.999 23.5l8 10c21.333 -24 32 -43.333 32 -58c0 -8.66699 -3.16699 -16.167 -9.5 -22.5s-13.833 -9.5 -22.5 -9.5zM85.502 340.998
c-9 0 -16.666 3.16602 -22.999 9.49902s-9.5 13.833 -9.5 22.5c0 6.66699 2.66699 14.834 8 24.501s10.666 17.5 15.999 23.5l8 10c21.333 -24 32 -43.333 32 -58c0 -8.66699 -3 -16.167 -9 -22.5s-13.5 -9.5 -22.5 -9.5zM340.003 276.997l43.998 -128v-170
c0 -6 -2.16699 -11.167 -6.5 -15.5s-9.16602 -6.5 -14.499 -6.5h-22c-5.33301 0 -10.166 2.16699 -14.499 6.5s-6.5 9.5 -6.5 15.5v21h-256v-21c0 -6 -2.16699 -11.167 -6.5 -15.5s-9.16602 -6.5 -14.499 -6.5h-22c-5.33301 0 -10.166 2.16699 -14.499 6.5
s-6.5 9.5 -6.5 15.5v170l44 128c5.33301 14.667 15.666 22 30.999 22h234c15.333 0 25.666 -7.33301 30.999 -22zM74.501 63.9971c9 0 16.667 3.16699 23 9.5s9.5 13.833 9.5 22.5s-3.16699 16.167 -9.5 22.5s-14 9.5 -23 9.5s-16.5 -3.16699 -22.5 -9.5
s-9 -13.833 -9 -22.5s3 -16.167 9 -22.5s13.5 -9.5 22.5 -9.5zM309.501 63.9971c9 0 16.5 3.16699 22.5 9.5s9 13.833 9 22.5s-3 16.167 -9 22.5s-13.5 9.5 -22.5 9.5s-16.667 -3.16699 -23 -9.5s-9.5 -13.833 -9.5 -22.5s3.16699 -16.167 9.5 -22.5s14 -9.5 23 -9.5z
M43.001 170.997h298l-32 96h-234z" />
    <glyph glyph-name="uniF125" unicode="&#xf125;" horiz-adv-x="384" 
d="M340 320l43.998 -128v-171c0 -5.33301 -2.16699 -10.166 -6.5 -14.499s-9.16602 -6.5 -14.499 -6.5h-22c-5.33301 0 -10.166 2.16699 -14.499 6.5s-6.5 9.16602 -6.5 14.499v22h-256v-22c0 -5.33301 -2.16699 -10.166 -6.5 -14.499s-9.16602 -6.5 -14.499 -6.5h-22
c-5.33301 0 -10.166 2.16699 -14.499 6.5s-6.5 9.16602 -6.5 14.499v171l44 128c5.33301 14 15.666 21 30.999 21h234c15.333 0 25.666 -7 30.999 -21zM74.498 107c9 0 16.667 3 23 9s9.5 13.5 9.5 22.5s-3.16699 16.667 -9.5 23s-14 9.5 -23 9.5s-16.5 -3.16699 -22.5 -9.5
s-9 -14 -9 -23s3 -16.5 9 -22.5s13.5 -9 22.5 -9zM309.498 107c9 0 16.5 3 22.5 9s9 13.5 9 22.5s-3 16.667 -9 23s-13.5 9.5 -22.5 9.5s-16.667 -3.16699 -23 -9.5s-9.5 -14 -9.5 -23s3.16699 -16.5 9.5 -22.5s14 -9 23 -9zM42.998 213h298l-32 96h-234z" />
    <glyph glyph-name="uniF126" unicode="&#xf126;" 
d="M384 320c12 0 22.166 -4.16699 30.499 -12.5s12.5 -18.5 12.5 -30.5v-234c0 -12 -4.16699 -22.167 -12.5 -30.5s-18.5 -12.5 -30.5 -12.5h-341c-12 0 -22.167 4.16699 -30.5 12.5s-12.5 18.5 -12.5 30.5v234c0 12 4.16699 22.167 12.5 30.5s18.5 12.5 30.5 12.5h46
c-2.66699 7.33301 -4 14.333 -4 21c0 18 6.33301 33.167 19 45.5s27.667 18.5 45 18.5c22.667 0 40.667 -9.33301 54 -28l10 -15l11 15c12.667 18.667 30.334 28 53.001 28c18 0 33.167 -6.16699 45.5 -18.5s18.5 -27.5 18.5 -45.5c0 -6.66699 -1.33301 -13.667 -4 -21h47z
M277.499 363c-5.66699 0 -10.667 -2.16699 -15 -6.5s-6.5 -9.33301 -6.5 -15s2.16699 -10.667 6.5 -15s9.33301 -6.5 15 -6.5s10.667 2.16699 15 6.5s6.5 9.33301 6.5 15s-2.16699 10.667 -6.5 15s-9.33301 6.5 -15 6.5zM149.499 363c-5.66699 0 -10.667 -2.16699 -15 -6.5
s-6.5 -9.33301 -6.5 -15s2.16699 -10.667 6.5 -15s9.33301 -6.5 15 -6.5s10.667 2.16699 15 6.5s6.5 9.33301 6.5 15s-2.16699 10.667 -6.5 15s-9.33301 6.5 -15 6.5zM383.999 43v42h-341v-42h341zM383.999 149v128h-108l44 -60l-35 -25l-50 69l-22 29l-21 -29l-51 -69
l-34 25l44 60h-108v-128h341z" />
    <glyph glyph-name="uniF127" unicode="&#xf127;" 
d="M384 405c12 0 22.167 -4.16699 30.5 -12.5s12.5 -18.166 12.5 -29.499v-235c0 -12 -4.16699 -22.167 -12.5 -30.5s-18.5 -12.5 -30.5 -12.5h-85v-106l-86 42l-85 -42v106h-85c-12 0 -22.167 4.16699 -30.5 12.5s-12.5 18.5 -12.5 30.5v235
c0 11.333 4.16699 21.166 12.5 29.499s18.5 12.5 30.5 12.5h341zM384 128v43h-341v-43h341zM384 235v128h-341v-128h341z" />
    <glyph glyph-name="uniF128" unicode="&#xf128;" 
d="M384 320c12 0 22.168 -4.16699 30.501 -12.5s12.5 -18.5 12.5 -30.5v-234c0 -12 -4.16699 -22.167 -12.5 -30.5s-18.5 -12.5 -30.5 -12.5h-341c-12 0 -22.167 4.16699 -30.5 12.5s-12.5 18.5 -12.5 30.5v234c0 12 4.16699 22.167 12.5 30.5s18.5 12.5 30.5 12.5h64v43
c0 11.333 4.16699 21.166 12.5 29.499s18.166 12.5 29.499 12.5h128c12 0 22.167 -4.16699 30.5 -12.5s12.5 -18.166 12.5 -29.499v-43h64zM149.001 363v-43h128v43h-128zM384.001 43v42h-341v-42h341zM384.001 149v128h-64v-42h-43v42h-128v-42h-42v42h-64v-128h341z" />
    <glyph glyph-name="uniF129" unicode="&#xf129;" 
d="M384 363c12 0 22.167 -4.16699 30.5 -12.5s12.5 -18.5 12.5 -30.5v-256c0 -12 -4.16699 -22.167 -12.5 -30.5s-18.5 -12.5 -30.5 -12.5h-341c-12 0 -22.167 4.16699 -30.5 12.5s-12.5 18.5 -12.5 30.5v256c0 12 4.16699 22.167 12.5 30.5s18.5 12.5 30.5 12.5h341z
M384 64v128h-341v-128h341zM384 277v43h-341v-43h341z" />
    <glyph glyph-name="uniF12A" unicode="&#xf12a;" 
d="M384 309c12 0 22.167 -4.16699 30.5 -12.5s12.5 -18.166 12.5 -29.499v-235c0 -12 -4.16699 -22.167 -12.5 -30.5s-18.5 -12.5 -30.5 -12.5h-341c-12 0 -22.167 4.16699 -30.5 12.5s-12.5 18.5 -12.5 30.5v235c0 11.333 4.16699 21.166 12.5 29.499s18.5 12.5 30.5 12.5
h85v43l43 43h85l43 -43v-43h85zM171 352v-43h85v43h-85zM181 64l141 141l-30 30l-111 -111l-44 45l-30 -30z" />
    <glyph glyph-name="uniF12B" unicode="&#xf12b;" 
d="M384 309c12 0 22.167 -4.16699 30.5 -12.5s12.5 -18.166 12.5 -29.499v-235c0 -12 -4.16699 -22.167 -12.5 -30.5s-18.5 -12.5 -30.5 -12.5h-341c-12 0 -22.167 4.16699 -30.5 12.5s-12.5 18.5 -12.5 30.5v235c0 11.333 4.16699 21.166 12.5 29.499s18.5 12.5 30.5 12.5
h85v43l43 43h85l43 -43v-43h85zM171 352v-43h85v43h-85zM213 32l107 107h-64v85h-85v-85h-64z" />
    <glyph glyph-name="uniF12C" unicode="&#xf12c;" 
d="M299 320h128v-277c0 -12 -4.16699 -22.167 -12.5 -30.5s-18.5 -12.5 -30.5 -12.5h-341c-12 0 -22.167 4.16699 -30.5 12.5s-12.5 18.5 -12.5 30.5v277h128v43c0 11.333 4.16699 21.166 12.5 29.499s18.5 12.5 30.5 12.5h85c12 0 22.167 -4.16699 30.5 -12.5
s12.5 -18.166 12.5 -29.499v-43zM171 363v-43h85v43h-85zM149 64l160 107l-160 85v-192z" />
    <glyph glyph-name="uniF12D" unicode="&#xf12d;" 
d="M384 320c12 0 22.167 -4.16699 30.5 -12.5s12.5 -18.5 12.5 -30.5v-234c0 -12 -4.16699 -22.167 -12.5 -30.5s-18.5 -12.5 -30.5 -12.5h-341c-12 0 -22.167 4.16699 -30.5 12.5s-12.5 18.5 -12.5 30.5v234c0 12 4.16699 22.167 12.5 30.5s18.5 12.5 30.5 12.5h85v43
c0 11.333 4.16699 21.166 12.5 29.499s18.5 12.5 30.5 12.5h85c12 0 22.167 -4.16699 30.5 -12.5s12.5 -18.166 12.5 -29.499v-43h85zM256 320v43h-85v-43h85z" />
    <glyph glyph-name="uniF12E" unicode="&#xf12e;" horiz-adv-x="469" 
d="M0 64c18 0 33.167 -6.16699 45.5 -18.5s18.5 -27.5 18.5 -45.5h-64v64zM0 149c41.333 0 76.5 -14.5 105.5 -43.5s43.5 -64.167 43.5 -105.5h-42c0 29.333 -10.5 54.5 -31.5 75.5s-46.167 31.5 -75.5 31.5v42zM384 299v-214h-120c-14 42.667 -36.667 79.667 -68 111
s-68.333 54 -111 68v35h299zM0 235c64.667 0 119.999 -22.999 165.999 -68.999s69 -101.333 69 -166h-43c0 53.333 -18.667 98.666 -56 135.999s-82.666 56 -135.999 56v43zM426.999 384.001c11.333 0 21.166 -4.16699 29.499 -12.5s12.5 -18.5 12.5 -30.5v-298
c0 -12 -4.16699 -22.167 -12.5 -30.5s-18.166 -12.5 -29.499 -12.5h-150v43h150v298h-384v-64h-43v64c0 12 4.16699 22.167 12.5 30.5s18.5 12.5 30.5 12.5h384z" />
    <glyph glyph-name="uniF12F" unicode="&#xf12f;" horiz-adv-x="469" 
d="M427 384c11.333 0 21.166 -4.16699 29.499 -12.5s12.5 -18.5 12.5 -30.5v-298c0 -12 -4.16699 -22.167 -12.5 -30.5s-18.166 -12.5 -29.499 -12.5h-150v43h150v298h-384v-64h-43v64c0 12 4.16699 22.167 12.5 30.5s18.5 12.5 30.5 12.5h384zM0 64
c18 0 33.167 -6.16699 45.5 -18.5s18.5 -27.5 18.5 -45.5h-64v64zM0 149c41.333 0 76.5 -14.5 105.5 -43.5s43.5 -64.167 43.5 -105.5h-42c0 29.333 -10.5 54.5 -31.5 75.5s-46.167 31.5 -75.5 31.5v42zM0 235c64.667 0 119.999 -22.999 165.999 -68.999
s69 -101.333 69 -166h-43c0 53.333 -18.667 98.666 -56 135.999s-82.666 56 -135.999 56v43z" />
    <glyph glyph-name="uniF130" unicode="&#xf130;" 
d="M235 404c54 -5.33301 99.5 -28.168 136.5 -68.501s55.5 -88.166 55.5 -143.499c0 -30 -6.33301 -59 -19 -87l-56 33c7.33301 18 11 36 11 54c0 37.333 -12.333 70 -37 98s-55 44.667 -91 50v64zM213 42.998c48 0 87.001 18.667 117.001 56l55 -33
c-20 -27.333 -45 -48.666 -75 -63.999s-62.333 -23 -97 -23c-58.667 0 -108.834 20.833 -150.501 62.5s-62.5 91.834 -62.5 150.501c0 55.333 18.5 103.166 55.5 143.499s82.5 63.166 136.5 68.499v-64c-36.667 -5.33301 -67.167 -22 -91.5 -50s-36.5 -60.667 -36.5 -98
c0 -41.333 14.5 -76.5 43.5 -105.5s64.167 -43.5 105.5 -43.5z" />
    <glyph glyph-name="uniF131" unicode="&#xf131;" horiz-adv-x="384" 
d="M341 384c12 0 22.167 -4.16699 30.5 -12.5s12.5 -18.5 12.5 -30.5v-298c0 -12 -4.16699 -22.167 -12.5 -30.5s-18.5 -12.5 -30.5 -12.5h-298c-12 0 -22.167 4.16699 -30.5 12.5s-12.5 18.5 -12.5 30.5v298c0 12 4.16699 22.167 12.5 30.5s18.5 12.5 30.5 12.5h298z
M128 85v150h-43v-150h43zM213 85v214h-42v-214h42zM299 85v86h-43v-86h43z" />
    <glyph glyph-name="uniF132" unicode="&#xf132;" 
d="M213 299h214v-299h-427v384h213v-85zM85 43v42h-42v-42h42zM85 128v43h-42v-43h42zM85 213v43h-42v-43h42zM85 299v42h-42v-42h42zM171 43v42h-43v-42h43zM171 128v43h-43v-43h43zM171 213v43h-43v-43h43zM171 299v42h-43v-42h43zM384 43v213h-171v-43h43v-42h-43v-43h43
v-43h-43v-42h171zM341 213v-42h-42v42h42zM341 128v-43h-42v43h42z" />
    <glyph glyph-name="uniF133" unicode="&#xf133;" horiz-adv-x="384" 
d="M256 213h128v-213h-384v299h128v42l64 64l64 -64v-128zM85 43v42h-42v-42h42zM85 128v43h-42v-43h42zM85 213v43h-42v-43h42zM213 43v42h-42v-42h42zM213 128v43h-42v-43h42zM213 213v43h-42v-43h42zM213 299v42h-42v-42h42zM341 43v42h-42v-42h42zM341 128v43h-42v-43
h42z" />
    <glyph glyph-name="uniF134" unicode="&#xf134;" 
d="M269 277l30 -30l-56 -55l56 -55l-30 -30l-56 55l-55 -55l-30 30l55 55l-55 55l30 30l55 -55zM213.5 405c59 0 109.333 -20.833 151 -62.5s62.5 -91.834 62.5 -150.501s-20.833 -108.834 -62.5 -150.501s-92 -62.5 -151 -62.5s-109.333 20.833 -151 62.5
s-62.5 91.834 -62.5 150.501s20.833 108.834 62.5 150.501s92 62.5 151 62.5zM213.5 21c47 0 87.167 16.667 120.5 50s50 73.666 50 120.999s-16.667 87.666 -50 120.999s-73.5 50 -120.5 50s-87.167 -16.667 -120.5 -50s-50 -73.666 -50 -120.999
s16.667 -87.666 50 -120.999s73.5 -50 120.5 -50z" />
    <glyph glyph-name="uniF135" unicode="&#xf135;" 
d="M213.5 405c59 0 109.333 -20.833 151 -62.5s62.5 -91.834 62.5 -150.501s-20.833 -108.834 -62.5 -150.501s-92 -62.5 -151 -62.5s-109.333 20.833 -151 62.5s-62.5 91.834 -62.5 150.501s20.833 108.834 62.5 150.501s92 62.5 151 62.5zM320 115l-77 77l77 77l-30 30
l-77 -77l-76 77l-30 -30l76 -77l-76 -77l30 -30l76 77l77 -77z" />
    <glyph glyph-name="uniF136" unicode="&#xf136;" horiz-adv-x="299" 
d="M299 311l-120 -119l120 -119l-30 -30l-120 119l-119 -119l-30 30l119 119l-119 119l30 30l119 -119l120 119z" />
    <glyph glyph-name="uniF137" unicode="&#xf137;" horiz-adv-x="384" 
d="M171 171l-171 170v43h384v-43l-171 -170v-128h107v-43h-256v43h107v128zM96 299h192l43 42h-278z" />
    <glyph glyph-name="uniF138" unicode="&#xf138;" horiz-adv-x="477" 
d="M148 304l-93 -112l93 -112l-33 -27l-115 139l115 139zM132 171v42h43v-42h-43zM345 213v-42h-42v42h42zM217 171v42h43v-42h-43zM362 331l115 -139l-115 -139l-33 27l93 112l-93 112z" />
    <glyph glyph-name="uniF139" unicode="&#xf139;" horiz-adv-x="341" 
d="M64 341v-42h-43v85c0 12 4.16699 22.167 12.5 30.5s18.5 12.5 30.5 12.5l213 -1c12 0 22.167 -4 30.5 -12s12.5 -18 12.5 -30v-85h-43v42h-213zM243 94l-30 30l68 68l-68 68l30 30l98 -98zM128 124l-30 -30l-98 98l98 98l30 -30l-68 -68zM277 43v42h43v-85
c0 -12 -4.16699 -22.167 -12.5 -30.5s-18.5 -12.5 -30.5 -12.5h-213c-12 0 -22.167 4.16699 -30.5 12.5s-12.5 18.5 -12.5 30.5v85h43v-42h213z" />
    <glyph glyph-name="uniF13A" unicode="&#xf13a;" 
d="M158 94l-30 -30l-128 128l128 128l30 -30l-98 -98zM269 94l98 98l-98 98l30 30l128 -128l-128 -128z" />
    <glyph glyph-name="uniF13B" unicode="&#xf13b;" 
d="M384 384c12 0 22.167 -4.16797 30.5 -12.501s12.5 -18.5 12.5 -30.5v-64c0 -11.333 -4.16699 -21.166 -12.5 -29.499s-18.5 -12.5 -30.5 -12.5h-43v-64c0 -24 -8.33301 -44.333 -25 -61s-36.667 -25 -60 -25h-128c-23.333 0 -43.333 8.33301 -60 25s-25 37 -25 61v213
h341zM384 276.999v64h-43v-64h43zM0 -0.000976562v43h384v-43h-384z" />
    <glyph glyph-name="uniF13C" unicode="&#xf13c;" 
d="M43 320v-298.999h298v-42h-298c-12 0 -22.167 4.16699 -30.5 12.5s-12.5 18.166 -12.5 29.499v299h43zM384 405.001c12 0 22.167 -4.16699 30.5 -12.5s12.5 -18.166 12.5 -29.499v-256c0 -12 -4.16699 -22.167 -12.5 -30.5s-18.5 -12.5 -30.5 -12.5h-256
c-12 0 -22.167 4.16699 -30.5 12.5s-12.5 18.5 -12.5 30.5v256c0 11.333 4.16699 21.166 12.5 29.499s18.5 12.5 30.5 12.5h256zM384 192.001v171h-107v-171l54 32z" />
    <glyph glyph-name="uniF13D" unicode="&#xf13d;" horiz-adv-x="469" 
d="M43 256v-235h341c0 -11.333 -4.16699 -21.166 -12.5 -29.499s-18.5 -12.5 -30.5 -12.5h-298c-12 0 -22.167 4.16699 -30.5 12.5s-12.5 18.166 -12.5 29.499v235h43zM363 341h105.999v-234c0 -12 -4.16699 -22.167 -12.5 -30.5s-18.166 -12.5 -29.499 -12.5h-299
c-12 0 -22.167 4.16699 -30.5 12.5s-12.5 18.5 -12.5 30.5v234h107v43c0 12 4.16699 22.167 12.5 30.5s18.5 12.5 30.5 12.5h85c12 0 22.167 -4.16699 30.5 -12.5s12.5 -18.5 12.5 -30.5v-43zM234.999 384v-43h85v43h-85zM234.999 128l117 85l-117 64v-149z" />
    <glyph glyph-name="uniF13E" unicode="&#xf13e;" horiz-adv-x="512" 
d="M43 320v-298.999h384v-42h-384c-12 0 -22.167 4.16699 -30.5 12.5s-12.5 18.166 -12.5 29.499v192v107h43zM469 363.001c12 0 22.167 -4.16602 30.5 -12.499s12.5 -18.5 12.5 -30.5v-213c0 -12 -4.16699 -22.167 -12.5 -30.5s-18.5 -12.5 -30.5 -12.5h-341
c-12 0 -22.167 4.16699 -30.5 12.5s-12.5 18.5 -12.5 30.5l1 256c0 11.333 4 21.166 12 29.499s18 12.5 30 12.5h128l43 -42h170zM149 128.002h299l-75 96l-53 -64l-75 96z" />
    <glyph glyph-name="uniF13F" unicode="&#xf13f;" horiz-adv-x="469" 
d="M319 228l76 -100h-235l59 75l41 -50zM43 341v-341h341v-43h-341c-12 0 -22.167 4.16699 -30.5 12.5s-12.5 18.5 -12.5 30.5v341h43zM427 427c11.333 0 21.166 -4.16699 29.499 -12.5s12.5 -18.5 12.5 -30.5v-299c0 -11.333 -4.16699 -21.166 -12.5 -29.499
s-18.166 -12.5 -29.499 -12.5h-299c-12 0 -22.167 4.16699 -30.5 12.5s-12.5 18.166 -12.5 29.499v299c0 12 4.16699 22.167 12.5 30.5s18.5 12.5 30.5 12.5h299zM427 85v299h-299v-299h299z" />
    <glyph glyph-name="uniF140" unicode="&#xf140;" 
d="M427 107c0 -12 -4.16699 -22.167 -12.5 -30.5s-18.5 -12.5 -30.5 -12.5h-256c-12 0 -22.167 4.16699 -30.5 12.5s-12.5 18.5 -12.5 30.5v256c0 11.333 4.16699 21.166 12.5 29.499s18.5 12.5 30.5 12.5h256c12 0 22.167 -4.16699 30.5 -12.5s12.5 -18.166 12.5 -29.499
v-256zM192 192l-64 -85h256l-85 106l-64 -79zM0 320l43 0.000976562v-299h298v-42h-298c-12 0 -22.167 4.16699 -30.5 12.5s-12.5 18.166 -12.5 29.499v299z" />
    <glyph glyph-name="uniF141" unicode="&#xf141;" horiz-adv-x="469" 
d="M43 341v-341h341v-43h-341c-12 0 -22.167 4.16699 -30.5 12.5s-12.5 18.5 -12.5 30.5v341h43zM277 128v171h-42v42h85v-213h-43zM427 427c11.333 0 21.166 -4.16699 29.499 -12.5s12.5 -18.5 12.5 -30.5v-299c0 -11.333 -4.16699 -21.166 -12.5 -29.499
s-18.166 -12.5 -29.499 -12.5h-299c-12 0 -22.167 4.16699 -30.5 12.5s-12.5 18.166 -12.5 29.499v299c0 12 4.16699 22.167 12.5 30.5s18.5 12.5 30.5 12.5h299zM427 85v299h-299v-299h299z" />
    <glyph glyph-name="uniF142" unicode="&#xf142;" horiz-adv-x="469" 
d="M43 341v-341h341v-43h-341c-12 0 -22.167 4.16699 -30.5 12.5s-12.5 18.5 -12.5 30.5v341h43zM427 427c11.333 0 21.166 -4.16699 29.499 -12.5s12.5 -18.5 12.5 -30.5v-299c0 -11.333 -4.16699 -21.166 -12.5 -29.499s-18.166 -12.5 -29.499 -12.5h-299
c-12 0 -22.167 4.16699 -30.5 12.5s-12.5 18.166 -12.5 29.499v299c0 12 4.16699 22.167 12.5 30.5s18.5 12.5 30.5 12.5h299zM427 85v299h-299v-299h299zM341 171v-43.001h-128v85c0 12 4.16699 22.167 12.5 30.5s18.5 12.5 30.5 12.5h43v43h-86v42h86
c11.333 0 21.166 -4.16699 29.499 -12.5s12.5 -18.166 12.5 -29.499v-43c0 -12 -4.16699 -22.167 -12.5 -30.5s-18.166 -12.5 -29.499 -12.5h-43v-42h85z" />
    <glyph glyph-name="uniF143" unicode="&#xf143;" horiz-adv-x="469" 
d="M427 427c11.333 0 21.166 -4.16699 29.499 -12.5s12.5 -18.5 12.5 -30.5v-299c0 -11.333 -4.16699 -21.166 -12.5 -29.499s-18.166 -12.5 -29.499 -12.5h-299c-12 0 -22.167 4.16699 -30.5 12.5s-12.5 18.166 -12.5 29.499v299c0 12 4.16699 22.167 12.5 30.5
s18.5 12.5 30.5 12.5h299zM427 85v299h-299v-299h299zM43 341v-341h341v-43h-341c-12 0 -22.167 4.16699 -30.5 12.5s-12.5 18.5 -12.5 30.5v341h43zM341 171c0 -12 -4.16699 -22.168 -12.5 -30.501s-18.166 -12.5 -29.499 -12.5h-86v43h86v42h-43v43h43v43h-86v42h86
c11.333 0 21.166 -4.16699 29.499 -12.5s12.5 -18.166 12.5 -29.499v-32c0 -9.33301 -3 -17 -9 -23s-13.667 -9 -23 -9c9.33301 0 17 -3.16699 23 -9.5s9 -13.833 9 -22.5v-32z" />
    <glyph glyph-name="uniF144" unicode="&#xf144;" horiz-adv-x="469" 
d="M43 341v-341h341v-43h-341c-12 0 -22.167 4.16699 -30.5 12.5s-12.5 18.5 -12.5 30.5v341h43zM299 128v85h-86v128h43v-85h43v85h42v-213h-42zM427 427c11.333 0 21.166 -4.16699 29.499 -12.5s12.5 -18.5 12.5 -30.5v-299c0 -11.333 -4.16699 -21.166 -12.5 -29.499
s-18.166 -12.5 -29.499 -12.5h-299c-12 0 -22.167 4.16699 -30.5 12.5s-12.5 18.166 -12.5 29.499v299c0 12 4.16699 22.167 12.5 30.5s18.5 12.5 30.5 12.5h299zM427 85v299h-299v-299h299z" />
    <glyph glyph-name="uniF145" unicode="&#xf145;" horiz-adv-x="469" 
d="M427 427c11.333 0 21.166 -4.16699 29.499 -12.5s12.5 -18.5 12.5 -30.5v-299c0 -11.333 -4.16699 -21.166 -12.5 -29.499s-18.166 -12.5 -29.499 -12.5h-299c-12 0 -22.167 4.16699 -30.5 12.5s-12.5 18.166 -12.5 29.499v299c0 12 4.16699 22.167 12.5 30.5
s18.5 12.5 30.5 12.5h299zM427 85v299h-299v-299h299zM43 341v-341h341v-43h-341c-12 0 -22.167 4.16699 -30.5 12.5s-12.5 18.5 -12.5 30.5v341h43zM341 171c0 -12 -4.16699 -22.167 -12.5 -30.5s-18.166 -12.5 -29.499 -12.5h-86v43h86v42h-86v128h128v-42h-85v-43h43
c11.333 0 21.166 -4.16699 29.499 -12.5s12.5 -18.5 12.5 -30.5v-42z" />
    <glyph glyph-name="uniF146" unicode="&#xf146;" horiz-adv-x="469" 
d="M43 341v-341h341v-43h-341c-12 0 -22.167 4.16699 -30.5 12.5s-12.5 18.5 -12.5 30.5v341h43zM427 427c11.333 0 21.166 -4.16699 29.499 -12.5s12.5 -18.5 12.5 -30.5v-299c0 -11.333 -4.16699 -21.166 -12.5 -29.499s-18.166 -12.5 -29.499 -12.5h-299
c-12 0 -22.167 4.16699 -30.5 12.5s-12.5 18.166 -12.5 29.499v299c0 12 4.16699 22.167 12.5 30.5s18.5 12.5 30.5 12.5h299zM427 85v299h-299v-299h299zM256 128c-12 0 -22.167 4.16797 -30.5 12.501s-12.5 18.5 -12.5 30.5v128c0 11.333 4.16699 21.166 12.5 29.499
s18.5 12.5 30.5 12.5h85v-42h-85v-43h43c11.333 0 21.166 -4.16699 29.499 -12.5s12.5 -18.5 12.5 -30.5v-42c0 -12 -4.16699 -22.167 -12.5 -30.5s-18.166 -12.5 -29.499 -12.5h-43zM256 213.001v-42h43v42h-43z" />
    <glyph glyph-name="uniF147" unicode="&#xf147;" horiz-adv-x="469" 
d="M43 341v-341h341v-43h-341c-12 0 -22.167 4.16699 -30.5 12.5s-12.5 18.5 -12.5 30.5v341h43zM427 427c11.333 0 21.166 -4.16699 29.499 -12.5s12.5 -18.5 12.5 -30.5v-299c0 -11.333 -4.16699 -21.166 -12.5 -29.499s-18.166 -12.5 -29.499 -12.5h-299
c-12 0 -22.167 4.16699 -30.5 12.5s-12.5 18.166 -12.5 29.499v299c0 12 4.16699 22.167 12.5 30.5s18.5 12.5 30.5 12.5h299zM427 85v299h-299v-299h299zM256 128h-43l86 171h-86v42h128v-42z" />
    <glyph glyph-name="uniF148" unicode="&#xf148;" horiz-adv-x="469" 
d="M43 341v-341h341v-43h-341c-12 0 -22.167 4.16699 -30.5 12.5s-12.5 18.5 -12.5 30.5v341h43zM427 427c11.333 0 21.166 -4.16699 29.499 -12.5s12.5 -18.5 12.5 -30.5v-299c0 -11.333 -4.16699 -21.166 -12.5 -29.499s-18.166 -12.5 -29.499 -12.5h-299
c-12 0 -22.167 4.16699 -30.5 12.5s-12.5 18.166 -12.5 29.499v299c0 12 4.16699 22.167 12.5 30.5s18.5 12.5 30.5 12.5h299zM427 85v299h-299v-299h299zM256 128c-12 0 -22.167 4.16699 -30.5 12.5s-12.5 18.5 -12.5 30.5v32c0 8.66699 3.16699 16.167 9.5 22.5
s13.833 9.5 22.5 9.5c-8.66699 0 -16.167 3 -22.5 9s-9.5 13.667 -9.5 23v32c0 11.333 4.16699 21.166 12.5 29.499s18.5 12.5 30.5 12.5h43c11.333 0 21.166 -4.16699 29.499 -12.5s12.5 -18.166 12.5 -29.499v-32c0 -9.33301 -3 -17 -9 -23s-13.667 -9 -23 -9
c9.33301 0 17 -3.16699 23 -9.5s9 -13.833 9 -22.5v-32c0 -12 -4.16699 -22.167 -12.5 -30.5s-18.166 -12.5 -29.499 -12.5h-43zM256 299v-43h43v43h-43zM256 213v-42h43v42h-43z" />
    <glyph glyph-name="uniF149" unicode="&#xf149;" horiz-adv-x="469" 
d="M43 341v-341h341v-43h-341c-12 0 -22.167 4.16699 -30.5 12.5s-12.5 18.5 -12.5 30.5v341h43zM277 192c0 -12 -4.16699 -22.167 -12.5 -30.5s-18.166 -12.5 -29.499 -12.5h-64v43h64v21h-22c-11.333 0 -21.166 4.16699 -29.499 12.5s-12.5 18.5 -12.5 30.5v21
c0 12 4.16699 22.167 12.5 30.5s18.166 12.5 29.499 12.5h22c11.333 0 21.166 -4.16699 29.499 -12.5s12.5 -18.5 12.5 -30.5v-85zM213 256h22v21h-22v-21zM427 427c11.333 0 21.166 -4.16699 29.499 -12.5s12.5 -18.5 12.5 -30.5v-299
c0 -11.333 -4.16699 -21.166 -12.5 -29.499s-18.166 -12.5 -29.499 -12.5h-299c-12 0 -22.167 4.16699 -30.5 12.5s-12.5 18.166 -12.5 29.499v299c0 12 4.16699 22.167 12.5 30.5s18.5 12.5 30.5 12.5h299zM427 256v128h-299v-299h299v128h-43v-42h-43v42h-42v43h42v43h43
v-43h43z" />
    <glyph glyph-name="uniF14A" unicode="&#xf14a;" horiz-adv-x="469" 
d="M43 341v-341h341v-43h-341c-12 0 -22.167 4.16699 -30.5 12.5s-12.5 18.5 -12.5 30.5v341h43zM427 427c11.333 0 21.166 -4.16699 29.499 -12.5s12.5 -18.5 12.5 -30.5v-299c0 -11.333 -4.16699 -21.166 -12.5 -29.499s-18.166 -12.5 -29.499 -12.5h-299
c-12 0 -22.167 4.16699 -30.5 12.5s-12.5 18.166 -12.5 29.499v299c0 12 4.16699 22.167 12.5 30.5s18.5 12.5 30.5 12.5h299zM427 85v299h-299v-299h299zM299 341c11.333 0 21.166 -4.16699 29.499 -12.5s12.5 -18.166 12.5 -29.499v-128
c0 -12 -4.16699 -22.167 -12.5 -30.5s-18.166 -12.5 -29.499 -12.5h-86v43h86v42h-43c-12 0 -22.167 4.16699 -30.5 12.5s-12.5 18.5 -12.5 30.5v43c0 11.333 4.16699 21.166 12.5 29.499s18.5 12.5 30.5 12.5h43zM299 256v43h-43v-43h43z" />
    <glyph glyph-name="uniF14B" unicode="&#xf14b;" horiz-adv-x="469" 
d="M43 341v-341h341v-43h-341c-12 0 -22.167 4.16699 -30.5 12.5s-12.5 18.5 -12.5 30.5v341h43zM427 427c11.333 0 21.166 -4.16699 29.499 -12.5s12.5 -18.5 12.5 -30.5v-299c0 -11.333 -4.16699 -21.166 -12.5 -29.499s-18.166 -12.5 -29.499 -12.5h-299
c-12 0 -22.167 4.16699 -30.5 12.5s-12.5 18.166 -12.5 29.499v299c0 12 4.16699 22.167 12.5 30.5s18.5 12.5 30.5 12.5h299zM427 85v299h-299v-299h299z" />
    <glyph glyph-name="uniF14C" unicode="&#xf14c;" 
d="M384 405c12 0 22.167 -4.16699 30.5 -12.5s12.5 -18.166 12.5 -29.499v-256c0 -12 -4.16699 -22.167 -12.5 -30.5s-18.5 -12.5 -30.5 -12.5h-256c-12 0 -22.167 4.16699 -30.5 12.5s-12.5 18.5 -12.5 30.5v256c0 11.333 4.16699 21.166 12.5 29.499s18.5 12.5 30.5 12.5
h256zM341 299v42.001h-85v-117c-9.33301 7.33301 -20 11 -32 11c-14.667 0 -27.167 -5.33301 -37.5 -16s-15.5 -23.334 -15.5 -38.001s5.16699 -27.167 15.5 -37.5s22.833 -15.5 37.5 -15.5s27.167 5.16699 37.5 15.5s15.5 22.833 15.5 37.5v118h64zM43 320.001v-298.999
h298v-42h-298c-12 0 -22.167 4.16699 -30.5 12.5s-12.5 18.166 -12.5 29.499v299h43z" />
    <glyph glyph-name="uniF14D" unicode="&#xf14d;" 
d="M384 405c12 0 22.167 -4.16699 30.5 -12.5s12.5 -18.166 12.5 -29.499v-256c0 -12 -4.16699 -22.167 -12.5 -30.5s-18.5 -12.5 -30.5 -12.5h-256c-12 0 -22.167 4.16699 -30.5 12.5s-12.5 18.5 -12.5 30.5v256c0 11.333 4.16699 21.166 12.5 29.499s18.5 12.5 30.5 12.5
h256zM203 245v22c0 8.66699 -3.16699 16.167 -9.5 22.5s-13.833 9.5 -22.5 9.5h-54v-128h32v42h22c8.66699 0 16.167 3.16699 22.5 9.5s9.5 13.833 9.5 22.5zM309 203v64c0 8.66699 -3 16.167 -9 22.5s-13.667 9.5 -23 9.5h-53v-128h53c9.33301 0 17 3 23 9s9 13.667 9 23z
M395 267v32h-64v-128h32v42h32v32h-32v22h32zM149 245v22h22v-22h-22zM43 320v-298.999h298v-42h-298c-12 0 -22.167 4.16699 -30.5 12.5s-12.5 18.166 -12.5 29.499v299h43zM256 203.001v64h21v-64h-21z" />
    <glyph glyph-name="uniF14E" unicode="&#xf14e;" 
d="M43 320v-298.999h298v-42h-298c-12 0 -22.167 4.16699 -30.5 12.5s-12.5 18.166 -12.5 29.499v299h43zM384 405.001c12 0 22.167 -4.16699 30.5 -12.5s12.5 -18.166 12.5 -29.499v-256c0 -12 -4.16699 -22.167 -12.5 -30.5s-18.5 -12.5 -30.5 -12.5h-256
c-12 0 -22.167 4.16699 -30.5 12.5s-12.5 18.5 -12.5 30.5v256c0 11.333 4.16699 21.166 12.5 29.499s18.5 12.5 30.5 12.5h256zM363 213.001v43h-86v85h-42v-85h-86v-43h86v-85h42v85h86z" />
    <glyph glyph-name="uniF14F" unicode="&#xf14f;" horiz-adv-x="341" 
d="M303 427c10.667 0 19.667 -3.83301 27 -11.5s11 -16.834 11 -27.501v-307c0 -10.667 -3.66699 -19.667 -11 -27s-16.333 -11 -27 -11h-179c-10.667 0 -19.834 3.66699 -27.501 11s-11.5 16.333 -11.5 27v307c0 10.667 3.83301 19.834 11.5 27.501
s16.834 11.5 27.501 11.5h179zM213.5 384c-11.667 0 -21.667 -4.16699 -30 -12.5s-12.5 -18.333 -12.5 -30s4.16699 -21.667 12.5 -30s18.333 -12.5 30 -12.5s21.667 4.16699 30 12.5s12.5 18.333 12.5 30s-4.16699 21.667 -12.5 30s-18.333 12.5 -30 12.5zM213.5 96
c23.667 0 43.834 8.33301 60.501 25s25 36.834 25 60.501s-8.33301 43.834 -25 60.501s-36.834 25 -60.501 25s-43.834 -8.33301 -60.501 -25s-25 -36.834 -25 -60.501s8.33301 -43.834 25 -60.501s36.834 -25 60.501 -25zM160 181.5c0 35.667 17.833 53.5 53.5 53.5
s53.5 -17.833 53.5 -53.5s-17.833 -53.5 -53.5 -53.5s-53.5 17.833 -53.5 53.5zM43 341v-341h213v-43h-213c-12 0 -22.167 4.16699 -30.5 12.5s-12.5 18.5 -12.5 30.5v341h43z" />
    <glyph glyph-name="uniF150" unicode="&#xf150;" 
d="M43 320v-298.999h298v-42h-298c-12 0 -22.167 4.16699 -30.5 12.5s-12.5 18.166 -12.5 29.499v299h43zM384 405.001c12 0 22.167 -4.16699 30.5 -12.5s12.5 -18.166 12.5 -29.499v-256c0 -12 -4.16699 -22.167 -12.5 -30.5s-18.5 -12.5 -30.5 -12.5h-256
c-12 0 -22.167 4.16699 -30.5 12.5s-12.5 18.5 -12.5 30.5v256c0 11.333 4.16699 21.166 12.5 29.499s18.5 12.5 30.5 12.5h256zM363 213.001v43h-214v-43h214zM277 128.001v43h-128v-43h128zM363 299.001v42h-214v-42h214z" />
    <glyph glyph-name="uniF151" unicode="&#xf151;" 
d="M43 320v-298.999h298v-42h-298c-12 0 -22.167 4.16699 -30.5 12.5s-12.5 18.166 -12.5 29.499v299h43zM384 405.001c12 0 22.167 -4.16699 30.5 -12.5s12.5 -18.166 12.5 -29.499v-256c0 -12 -4.16699 -22.167 -12.5 -30.5s-18.5 -12.5 -30.5 -12.5h-256
c-12 0 -22.167 4.16699 -30.5 12.5s-12.5 18.5 -12.5 30.5v256c0 11.333 4.16699 21.166 12.5 29.499s18.5 12.5 30.5 12.5h256zM213 139.001l128 96l-128 96v-192z" />
    <glyph glyph-name="uniF152" unicode="&#xf152;" 
d="M213.5 215c6.33301 0 11.833 -2.16699 16.5 -6.5s7 -9.83301 7 -16.5s-2.33301 -12.167 -7 -16.5s-10.167 -6.5 -16.5 -6.5s-11.833 2.16699 -16.5 6.5s-7 9.83301 -7 16.5s2.33301 12.167 7 16.5s10.167 6.5 16.5 6.5zM213.5 405c59 0 109.333 -20.833 151 -62.5
s62.5 -91.834 62.5 -150.501s-20.833 -108.834 -62.5 -150.501s-92 -62.5 -151 -62.5s-109.333 20.833 -151 62.5s-62.5 91.834 -62.5 150.501s20.833 108.834 62.5 150.501s92 62.5 151 62.5zM260 145l81 175l-174 -81l-82 -175z" />
    <glyph glyph-name="uniF153" unicode="&#xf153;" horiz-adv-x="408" 
d="M114 163l-89 90c-16.667 16.667 -25 36.667 -25 60s8.33301 43.333 25 60l150 -149zM259 202l-31.001 -30.999l146 -147l-30 -30l-146 147l-147 -147l-31 30l209 208c-8 16 -9.33301 34.667 -4 56s16.333 40.333 33 57c20.667 20 43.667 31.667 69 35
s45.833 -2.83398 61.5 -18.501s21.834 -36.167 18.501 -61.5s-15.333 -48.333 -36 -69c-16.667 -16.667 -35.5 -27.667 -56.5 -33s-39.5 -4 -55.5 4z" />
    <glyph glyph-name="uniF154" unicode="&#xf154;" horiz-adv-x="299" 
d="M21 43l-0.000976562 256h256v-256c0 -12 -4.16699 -22.167 -12.5 -30.5s-18.166 -12.5 -29.499 -12.5h-171c-12 0 -22.167 4.16699 -30.5 12.5s-12.5 18.5 -12.5 30.5zM298.999 363v-43h-299v43h75l21 21h107l21 -21h75z" />
    <glyph glyph-name="uniF155" unicode="&#xf155;" horiz-adv-x="341" 
d="M170.5 43c11.667 0 21.667 -4.16699 30 -12.5s12.5 -18.5 12.5 -30.5s-4.16699 -22.167 -12.5 -30.5s-18.333 -12.5 -30 -12.5s-21.667 4.16699 -30 12.5s-12.5 18.5 -12.5 30.5s4.16699 22.167 12.5 30.5s18.333 12.5 30 12.5zM42.5 427
c11.667 0 21.667 -4.16699 30 -12.5s12.5 -18.5 12.5 -30.5s-4.16699 -22.167 -12.5 -30.5s-18.333 -12.5 -30 -12.5s-21.667 4.16699 -30 12.5s-12.5 18.5 -12.5 30.5s4.16699 22.167 12.5 30.5s18.333 12.5 30 12.5zM42.5 299c11.667 0 21.667 -4.16699 30 -12.5
s12.5 -18.5 12.5 -30.5s-4.16699 -22.167 -12.5 -30.5s-18.333 -12.5 -30 -12.5s-21.667 4.16699 -30 12.5s-12.5 18.5 -12.5 30.5s4.16699 22.167 12.5 30.5s18.333 12.5 30 12.5zM42.5 171c11.667 0 21.667 -4.16699 30 -12.5s12.5 -18.5 12.5 -30.5
s-4.16699 -22.167 -12.5 -30.5s-18.333 -12.5 -30 -12.5s-21.667 4.16699 -30 12.5s-12.5 18.5 -12.5 30.5s4.16699 22.167 12.5 30.5s18.333 12.5 30 12.5zM298.5 341c-11.667 0 -21.667 4.16699 -30 12.5s-12.5 18.5 -12.5 30.5s4.16699 22.167 12.5 30.5
s18.333 12.5 30 12.5s21.667 -4.16699 30 -12.5s12.5 -18.5 12.5 -30.5s-4.16699 -22.167 -12.5 -30.5s-18.333 -12.5 -30 -12.5zM170.5 171c11.667 0 21.667 -4.16699 30 -12.5s12.5 -18.5 12.5 -30.5s-4.16699 -22.167 -12.5 -30.5s-18.333 -12.5 -30 -12.5
s-21.667 4.16699 -30 12.5s-12.5 18.5 -12.5 30.5s4.16699 22.167 12.5 30.5s18.333 12.5 30 12.5zM298.5 171c11.667 0 21.667 -4.16699 30 -12.5s12.5 -18.5 12.5 -30.5s-4.16699 -22.167 -12.5 -30.5s-18.333 -12.5 -30 -12.5s-21.667 4.16699 -30 12.5
s-12.5 18.5 -12.5 30.5s4.16699 22.167 12.5 30.5s18.333 12.5 30 12.5zM298.5 299c11.667 0 21.667 -4.16699 30 -12.5s12.5 -18.5 12.5 -30.5s-4.16699 -22.167 -12.5 -30.5s-18.333 -12.5 -30 -12.5s-21.667 4.16699 -30 12.5s-12.5 18.5 -12.5 30.5
s4.16699 22.167 12.5 30.5s18.333 12.5 30 12.5zM170.5 299c11.667 0 21.667 -4.16699 30 -12.5s12.5 -18.5 12.5 -30.5s-4.16699 -22.167 -12.5 -30.5s-18.333 -12.5 -30 -12.5s-21.667 4.16699 -30 12.5s-12.5 18.5 -12.5 30.5s4.16699 22.167 12.5 30.5
s18.333 12.5 30 12.5zM170.5 427c11.667 0 21.667 -4.16699 30 -12.5s12.5 -18.5 12.5 -30.5s-4.16699 -22.167 -12.5 -30.5s-18.333 -12.5 -30 -12.5s-21.667 4.16699 -30 12.5s-12.5 18.5 -12.5 30.5s4.16699 22.167 12.5 30.5s18.333 12.5 30 12.5z" />
    <glyph glyph-name="uniF156" unicode="&#xf156;" horiz-adv-x="384" 
d="M363 171c5.33301 0 10.166 -2.16699 14.499 -6.5s6.5 -9.5 6.5 -15.5v-128c0 -5.33301 -2.16699 -10.166 -6.5 -14.499s-9.16602 -6.5 -14.499 -6.5h-342c-5.33301 0 -10.166 2.16699 -14.499 6.5s-6.5 9.16602 -6.5 14.499v128c0 6 2.16699 11.167 6.5 15.5
s9.16602 6.5 14.499 6.5h342zM85.5 43c11.667 0 21.667 4.16699 30 12.5s12.5 18.333 12.5 30s-4.16699 21.667 -12.5 30s-18.333 12.5 -30 12.5s-21.667 -4.16699 -30 -12.5s-12.5 -18.333 -12.5 -30s4.16699 -21.667 12.5 -30s18.333 -12.5 30 -12.5zM363 384
c5.33301 0 10.166 -2.16699 14.499 -6.5s6.5 -9.16602 6.5 -14.499v-128c0 -6 -2.16699 -11.167 -6.5 -15.5s-9.16602 -6.5 -14.499 -6.5h-342c-5.33301 0 -10.166 2.16699 -14.499 6.5s-6.5 9.5 -6.5 15.5v128c0 5.33301 2.16699 10.166 6.5 14.499s9.16602 6.5 14.499 6.5
h342zM85.5 256c11.667 0 21.667 4.16699 30 12.5s12.5 18.333 12.5 30s-4.16699 21.667 -12.5 30s-18.333 12.5 -30 12.5s-21.667 -4.16699 -30 -12.5s-12.5 -18.333 -12.5 -30s4.16699 -21.667 12.5 -30s18.333 -12.5 30 -12.5z" />
    <glyph glyph-name="uniF157" unicode="&#xf157;" horiz-adv-x="384" 
d="M0 405h384l-43 -389c-1.33301 -10.667 -6 -19.5 -14 -26.5s-17.333 -10.5 -28 -10.5h-214c-10.667 0 -20 3.5 -28 10.5s-12.667 15.833 -14 26.5zM192 43c18 0 33.168 6.16699 45.501 18.5s18.5 27.5 18.5 45.5c0 12.667 -5.33301 28.5 -16 47.5
s-21.334 35.167 -32.001 48.5l-16 19c-4.66699 -5.33301 -10.5 -12.5 -17.5 -21.5s-16.5 -23.667 -28.5 -44s-18 -36.833 -18 -49.5c0 -18 6.16699 -33.167 18.5 -45.5s27.5 -18.5 45.5 -18.5zM327.001 277l9 86h-288l9 -86h270z" />
    <glyph glyph-name="uniF158" unicode="&#xf158;" horiz-adv-x="384" 
d="M0 80l236 236l80 -80l-236 -236h-80v80zM378 298l-39 -39l-80 80l39 39c4 4 9 6 15 6s11 -2 15 -6l50 -50c4 -4 6 -9 6 -15s-2 -11 -6 -15z" />
    <glyph glyph-name="uniF159" unicode="&#xf159;" 
d="M426 277l1 -213c0 -12 -4.16699 -22.167 -12.5 -30.5s-18.5 -12.5 -30.5 -12.5h-341c-12 0 -22.167 4.16699 -30.5 12.5s-12.5 18.5 -12.5 30.5v213c0 16 6.66699 28.333 20 37l193 113l193 -113c13.333 -8.66699 20 -21 20 -37zM213 171l177 110l-177 103l-176 -103z
" />
    <glyph glyph-name="uniF15A" unicode="&#xf15a;" 
d="M384 363c12 0 22.167 -4.16699 30.5 -12.5s12.5 -18.5 12.5 -30.5v-256c0 -12 -4.16699 -22.167 -12.5 -30.5s-18.5 -12.5 -30.5 -12.5h-341c-12 0 -22.167 4.16699 -30.5 12.5s-12.5 18.5 -12.5 30.5v256c0 12 4.16699 22.167 12.5 30.5s18.5 12.5 30.5 12.5h341z
M384 277v43l-171 -107l-170 107v-43l170 -106z" />
    <glyph glyph-name="uniF15B" unicode="&#xf15b;" horiz-adv-x="469" 
d="M235 299c-13.333 0 -26.3359 -2.66699 -39.0029 -8l-46 46c27.333 10 55.333 15 84 15c52.667 0 100.334 -14.833 143.001 -44.5s73.334 -68.167 92.001 -115.5c-15.333 -40 -39.666 -73.667 -72.999 -101l-62 62c4.66699 12.667 7 25.667 7 39
c0 29.333 -10.333 54.5 -31 75.5s-45.667 31.5 -75 31.5zM20.9971 357l27.001 27l379 -378l-27 -27l-63 62l-9 9c-30 -12 -61 -18 -93 -18c-52.667 0 -100.334 14.833 -143.001 44.5s-73.334 68.167 -92.001 115.5c16.667 42.667 43.334 78 80.001 106l-10 10zM138.998 239
c-7.33301 -15.333 -11 -31.001 -11 -47.001c0 -29.333 10.5 -54.5 31.5 -75.5s46.167 -31.5 75.5 -31.5c16 0 31.667 4 47 12l-33 33c-5.33301 -1.33301 -10 -2 -14 -2c-18 0 -33.167 6.16699 -45.5 18.5s-18.5 27.5 -18.5 45.5c0 4.66699 0.333008 9.33398 1 14.001z
M230.998 255.999h4c17.333 0 32.333 -6.33301 45 -19s19 -27.667 19 -45l-1 -4z" />
    <glyph glyph-name="uniF15C" unicode="&#xf15c;" horiz-adv-x="469" 
d="M235 352c52.667 0 100.167 -14.833 142.5 -44.5s72.833 -68.167 91.5 -115.5c-18.667 -47.333 -49.167 -85.833 -91.5 -115.5s-89.833 -44.5 -142.5 -44.5s-100.334 14.833 -143.001 44.5s-73.334 68.167 -92.001 115.5c18.667 47.333 49.334 85.833 92.001 115.5
s90.334 44.5 143.001 44.5zM235 85c29.333 0 54.333 10.5 75 31.5s31 46.167 31 75.5s-10.333 54.5 -31 75.5s-45.667 31.5 -75 31.5s-54.5 -10.5 -75.5 -31.5s-31.5 -46.167 -31.5 -75.5s10.5 -54.5 31.5 -75.5s46.167 -31.5 75.5 -31.5zM234.5 256
c17.667 0 32.834 -6.16699 45.501 -18.5s19 -27.5 19 -45.5s-6.33301 -33.167 -19 -45.5s-27.834 -18.5 -45.501 -18.5s-32.667 6.16699 -45 18.5s-18.5 27.5 -18.5 45.5s6.16699 33.167 18.5 45.5s27.333 18.5 45 18.5z" />
    <glyph glyph-name="uniF15D" unicode="&#xf15d;" horiz-adv-x="384" 
d="M378 328c4 -4 6 -9 6 -15s-2 -11 -6 -15l-67 -67l41 -41l-30 -30l-30 30l-191 -190h-101v101l190 191l-30 30l30 30l41 -41l67 67c4 4 9 6 15 6s11 -2 15 -6zM84 43l172 172l-41 41l-172 -172z" />
    <glyph glyph-name="uniF15E" unicode="&#xf15e;" 
d="M309 384c33.333 0 61.332 -11.333 83.999 -34s34 -50.334 34 -83.001c0 -16 -3.33301 -32.167 -10 -48.5s-14 -30.833 -22 -43.5s-21.5 -29 -40.5 -49s-35 -36.167 -48 -48.5l-62.5 -56.5l-31 -28l-31 27l-62 57.5c-13.333 12.333 -29.5 28.5 -48.5 48.5
s-32.5 36.333 -40.5 49s-15.167 27.167 -21.5 43.5s-9.5 32.5 -9.5 48.5c0 32.667 11.333 60.334 34 83.001s50.334 34 83.001 34c38.667 0 70.667 -15 96 -45c25.333 30 57.333 45 96 45zM214.999 52l71.498 65.5c15 14.333 31.5 31.5 49.5 51.5s30.5 37.5 37.5 52.5
s10.5 30.167 10.5 45.5c0 21.333 -7.16699 39 -21.5 53s-32.166 21 -53.499 21c-16 0 -31.167 -4.66699 -45.5 -14s-24.5 -21.333 -30.5 -36h-40c-5.33301 14.667 -15.166 26.667 -29.499 36s-29.833 14 -46.5 14c-21.333 0 -39 -7 -53 -21s-21 -31.667 -21 -53
c0 -15.333 3.33301 -30.5 10 -45.5s19.167 -32.5 37.5 -52.5s35 -37.167 50 -51.5l70.5 -65.5l2 -2z" />
    <glyph glyph-name="uniF15F" unicode="&#xf15f;" 
d="M213 -7l-31.002 28l-62 56.5c-13.333 12.333 -29.333 28.5 -48 48.5s-32.167 36.333 -40.5 49s-15.666 27.167 -21.999 43.5s-9.5 32.5 -9.5 48.5c0 32.667 11.333 60.334 34 83.001s50.334 34 83.001 34c38.667 0 70.667 -15 96 -45c25.333 30 57.333 45 96 45
c33.333 0 61.333 -11.333 84 -34s34 -50.334 34 -83.001c0 -16 -3.33301 -32.167 -10 -48.5s-14 -30.833 -22 -43.5s-21.5 -29 -40.5 -49s-35 -36.167 -48 -48.5l-62.5 -57.5z" />
    <glyph glyph-name="uniF160" unicode="&#xf160;" horiz-adv-x="384" 
d="M149 64v43h86v-43h-86zM0 320h384v-43h-384v43zM64 171v42h256v-42h-256z" />
    <glyph glyph-name="uniF161" unicode="&#xf161;" horiz-adv-x="341" 
d="M203 434c42.667 -34.667 76.334 -76.667 101.001 -126s37 -102.333 37 -159c0 -46.667 -16.667 -86.667 -50 -120s-73.5 -50 -120.5 -50s-87.167 16.667 -120.5 50s-50 73.333 -50 120c0 72 23 135.333 69 190l-1 -8c0 -22 7.5 -40.667 22.5 -56s33.5 -23 55.5 -23
c21.333 0 38.666 7.66699 51.999 23s20 34 20 56c0 14 -1.16699 29.5 -3.5 46.5s-4.83301 30.5 -7.5 40.5zM164 43c28.667 0 52.999 10 72.999 30s30 44 30 72c0 30 -4.33301 58.667 -13 86c-20 -27.333 -52.667 -45.666 -98 -54.999
c-19.333 -4 -34.166 -11.833 -44.499 -23.5s-15.5 -25.834 -15.5 -42.501c0 -18.667 6.66699 -34.5 20 -47.5s29.333 -19.5 48 -19.5z" />
    <glyph glyph-name="uniF162" unicode="&#xf162;" horiz-adv-x="320" 
d="M201 320h119v-213h-149l-9 42h-119v-149h-43v363h192z" />
    <glyph glyph-name="uniF163" unicode="&#xf163;" horiz-adv-x="469" 
d="M128 213v-42h-128v42h128zM174 282l-30 -30l-45 46l30 30zM256 427v-128h-43v128h43zM370 298l-45 -46l-30 30l45 46zM341 213h128v-42h-128v42zM234.5 256c17.667 0 32.834 -6.16699 45.501 -18.5s19 -27.5 19 -45.5s-6.33301 -33.167 -19 -45.5
s-27.834 -18.5 -45.501 -18.5s-32.667 6.16699 -45 18.5s-18.5 27.5 -18.5 45.5s6.16699 33.167 18.5 45.5s27.333 18.5 45 18.5zM295 102l30 30l45 -46l-30 -30zM99 86l45 46l30 -30l-45 -46zM213 -43v128h43v-128h-43z" />
    <glyph glyph-name="uniF164" unicode="&#xf164;" horiz-adv-x="410" 
d="M0 405h213l-85 -192h85l-149 -256v192h-64v256zM341 405l69 -192h-41l-15 43h-68l-15 -43h-41l69 192h42zM295 285h50l-25 78z" />
    <glyph glyph-name="uniF165" unicode="&#xf165;" horiz-adv-x="363" 
d="M27 384l336 -336l-27 -27l-89 89l-76 -131v192h-64v79l-107 107zM320 235l-33 -57l-180 181v46h213l-85 -170h85z" />
    <glyph glyph-name="uniF166" unicode="&#xf166;" horiz-adv-x="213" 
d="M0 405h213l-85 -170h85l-149 -256v192h-64v234z" />
    <glyph glyph-name="uniF167" unicode="&#xf167;" horiz-adv-x="384" 
d="M256 0v43h43v-43h-43zM341 256v43h43v-43h-43zM0 341c0 12 4.16699 22.167 12.5 30.5s18.5 12.5 30.5 12.5h85v-43h-85v-298h85v-43h-85c-12 0 -22.167 4.16699 -30.5 12.5s-12.5 18.5 -12.5 30.5v298zM341 384c12 0 22.167 -4.16699 30.5 -12.5s12.5 -18.5 12.5 -30.5
h-43v43zM171 -43v470h42v-470h-42zM341 85v43h43v-43h-43zM256 341v43h43v-43h-43zM341 171v42h43v-42h-43zM341 0v43h43c0 -12 -4.16699 -22.167 -12.5 -30.5s-18.5 -12.5 -30.5 -12.5z" />
    <glyph glyph-name="uniF168" unicode="&#xf168;" horiz-adv-x="384" 
d="M192 -21c0 52.667 18.667 97.832 56 135.499s82.666 56.5 135.999 56.5c0 -53.333 -18.667 -98.666 -56 -135.999s-82.666 -56 -135.999 -56zM55 228.998c0 22.667 10.333 38.667 31 48c-20.667 10 -31 26 -31 48c0 14.667 5.33301 27.334 16 38.001s23.334 16 38.001 16
c11.333 0 21.333 -3.33301 30 -10v4c0 14.667 5.16699 27.334 15.5 38.001s22.833 16 37.5 16s27.167 -5.33301 37.5 -16s15.5 -23.334 15.5 -38.001v-4c9.33301 6.66699 19.333 10 30 10c14.667 0 27.334 -5.33301 38.001 -16s16 -23.334 16 -38.001
c0 -22 -10.333 -38 -31 -48c20.667 -9.33301 31 -25.333 31 -48c0 -14.667 -5.33301 -27.167 -16 -37.5s-23.334 -15.5 -38.001 -15.5c-11.333 0 -21.333 3 -30 9v-4c0 -14.667 -5.16699 -27.167 -15.5 -37.5s-22.833 -15.5 -37.5 -15.5s-27.167 5.16699 -37.5 15.5
s-15.5 22.833 -15.5 37.5v4c-9.33301 -6 -19.333 -9 -30 -9c-14.667 0 -27.334 5.16699 -38.001 15.5s-16 22.833 -16 37.5zM192 330.998c-14.667 0 -27.167 -5.33301 -37.5 -16s-15.5 -23.334 -15.5 -38.001s5.16699 -27.167 15.5 -37.5s22.833 -15.5 37.5 -15.5
s27.167 5.16699 37.5 15.5s15.5 22.833 15.5 37.5s-5.16699 27.334 -15.5 38.001s-22.833 16 -37.5 16zM0 170.998c53.333 0 98.666 -18.8311 135.999 -56.498s56 -82.834 56 -135.501c-53.333 0 -98.666 18.667 -135.999 56s-56 82.666 -56 135.999z" />
    <glyph glyph-name="uniF169" unicode="&#xf169;" horiz-adv-x="414" 
d="M350 183c20 -11.333 35.667 -27.002 47 -47.002s17 -41 17 -63c-19.333 -11.333 -40.333 -17.166 -63 -17.499s-44.334 5.5 -65.001 17.5c-6 3.33301 -11.667 7 -17 11c1.33301 -6.66699 2 -13.334 2 -20.001c0 -23.333 -5.83301 -44.833 -17.5 -64.5
s-27.167 -35.167 -46.5 -46.5c-19.333 11.333 -34.833 26.833 -46.5 46.5s-17.5 41.167 -17.5 64.5c0 6.66699 0.666992 13.334 2 20.001c-6 -4.66699 -11.667 -8.33398 -17 -11.001c-20.667 -11.333 -42.334 -17 -65.001 -17s-43.667 5.66699 -63 17
c0 22.667 5.66699 43.834 17 63.501s27 35.5 47 47.5c5.33301 2.66699 11.333 5.33398 18 8.00098c-6.66699 2.66699 -12.667 5.66699 -18 9c-20 11.333 -35.667 27 -47 47s-17 41 -17 63c19.333 11.333 40.333 17.166 63 17.499s44.334 -5.5 65.001 -17.5
c5.33301 -2.66699 11 -6.33398 17 -11.001c-1.33301 6.66699 -2 13.334 -2 20.001c0 23.333 5.83301 44.833 17.5 64.5s27.167 35.167 46.5 46.5c19.333 -11.333 34.833 -26.833 46.5 -46.5s17.5 -41.167 17.5 -64.5c0 -6.66699 -0.666992 -13.334 -2 -20.001
c6 4.66699 11.667 8.33398 17 11.001c20.667 12 42.334 17.833 65.001 17.5s43.667 -6.16602 63 -17.499c0 -22 -5.66699 -43 -17 -63s-27 -35.667 -47 -47c-5.33301 -3.33301 -11.333 -6.33301 -18 -9c6.66699 -2.66699 12.667 -5.66699 18 -9zM207 106.998
c23.333 0 43.333 8.33301 60 25s25 36.667 25 60s-8.33301 43.333 -25 60s-36.667 25 -60 25s-43.333 -8.33301 -60 -25s-25 -36.667 -25 -60s8.33301 -43.333 25 -60s36.667 -25 60 -25z" />
    <glyph glyph-name="uniF16A" unicode="&#xf16a;" 
d="M169 160l44 118l44 -118h-88zM384 405c12 0 22.167 -4.16699 30.5 -12.5s12.5 -18.166 12.5 -29.499v-342c0 -11.333 -4.16699 -21.166 -12.5 -29.499s-18.5 -12.5 -30.5 -12.5h-341c-12 0 -22.167 4.16699 -30.5 12.5s-12.5 18.166 -12.5 29.499v342
c0 11.333 4.16699 21.166 12.5 29.499s18.5 12.5 30.5 12.5h341zM298 53h44l-109 278h-40l-109 -278h45l24 64h120z" />
    <glyph glyph-name="uniF16B" unicode="&#xf16b;" horiz-adv-x="469" 
d="M235 331l42 -54h-85zM363 235l53 -43l-53 -43v86zM107 235v-86l-54 43zM277 107l-42 -54l-43 54h85zM427 384c11.333 0 21.166 -4.16699 29.499 -12.5s12.5 -18.5 12.5 -30.5v-298c0 -12 -4.16699 -22.167 -12.5 -30.5s-18.166 -12.5 -29.499 -12.5h-384
c-12 0 -22.167 4.16699 -30.5 12.5s-12.5 18.5 -12.5 30.5v298c0 12 4.16699 22.167 12.5 30.5s18.5 12.5 30.5 12.5h384zM427 42v300h-384v-300h384z" />
    <glyph glyph-name="uniF16C" unicode="&#xf16c;" horiz-adv-x="299" 
d="M0 107v42h107v-106h-43v64h-64zM64 277v64h43v-106h-107v42h64zM192 43v106h107v-42h-64v-64h-43zM235 277h64v-42h-107v106h43v-64z" />
    <glyph glyph-name="uniF16D" unicode="&#xf16d;" horiz-adv-x="299" 
d="M43 149v-64h64v-42h-107v106h43zM0 235v106h107v-42h-64v-64h-43zM256 85v64h43v-106h-107v42h64zM192 341h107v-106h-43v64h-64v42z" />
    <glyph glyph-name="uniF16E" unicode="&#xf16e;" horiz-adv-x="256" 
d="M256 363v-64h-149l106 -107l-106 -107h149v-64h-256v43l139 128l-139 128v43h256z" />
    <glyph glyph-name="uniF16F" unicode="&#xf16f;" horiz-adv-x="352" 
d="M336 294c10.667 -10.667 16.0039 -23.333 16.0039 -38v-203c0 -14.667 -5.16699 -27.167 -15.5 -37.5s-22.833 -15.5 -37.5 -15.5s-27.334 5.16699 -38.001 15.5s-16 22.833 -16 37.5v107h-32v-160h-213v341c0 12 4.16699 22.167 12.5 30.5s18.5 12.5 30.5 12.5h128
c11.333 0 21.166 -4.16699 29.499 -12.5s12.5 -18.5 12.5 -30.5v-149h22c11.333 0 21.166 -4.16699 29.499 -12.5s12.5 -18.5 12.5 -30.5v-96c0 -5.33301 2.16699 -10.166 6.5 -14.499s9.33301 -6.5 15 -6.5s10.667 2.16699 15 6.5s6.5 9.16602 6.5 14.499v154
c-7.33301 -2.66699 -14.333 -4 -21 -4c-14.667 0 -27.334 5.16699 -38.001 15.5s-16 22.833 -16 37.5c0 11.333 3.16699 21.5 9.5 30.5s14.833 15.5 25.5 19.5l-45 45l22 22l80 -79h-1zM171.004 235.001v106h-128v-106h128zM298.504 235.001c5.66699 0 10.667 2 15 6
s6.5 9 6.5 15s-2.16699 11 -6.5 15s-9.33301 6 -15 6s-10.667 -2 -15 -6s-6.5 -9 -6.5 -15s2.16699 -11 6.5 -15s9.33301 -6 15 -6z" />
    <glyph glyph-name="uniF170" unicode="&#xf170;" horiz-adv-x="387" 
d="M37 301l-37 35.998c3.33301 4 9.66602 10.667 18.999 20c17.333 18 36.666 27 57.999 27c12 0 23.833 -5 35.5 -15s17.5 -25.333 17.5 -46c0 -13.333 -2 -24.666 -6 -33.999s-11 -21.333 -21 -36c-19.333 -28.667 -32.666 -53.667 -39.999 -75
c-3.33301 -12 -4.16602 -21.833 -2.49902 -29.5s5.16699 -11.5 10.5 -11.5c6 0 14 6 24 18c10.667 11.333 26.667 30.666 48 57.999c12 14.667 27.333 28.334 46 41.001s38.667 19 60 19c28 0 48.833 -9.16699 62.5 -27.5s21.5 -38.833 23.5 -61.5h52v-53h-52
c-4 -46 -16.167 -79.333 -36.5 -100s-41.5 -31 -63.5 -31c-18.667 0 -34.834 6.5 -48.501 19.5s-20.5 28.5 -20.5 46.5c0 22 10 45.167 30 69.5s48.333 39.5 85 45.5v3c-0.666992 5.33301 -1.5 9.5 -2.5 12.5s-2.66699 6.5 -5 10.5s-6 7 -11 9s-11.167 3 -18.5 3
c-12 0 -25 -6.66699 -39 -20s-30 -31 -48 -53l-23.5 -28c-5 -6 -11.5 -12.167 -19.5 -18.5s-15.667 -10.5 -23 -12.5c-20 -6.66699 -38.667 -3.66699 -56 9c-19.333 14.667 -29 36 -29 64c0 9.33301 2 20.166 6 32.499s9 24.166 15 35.499l16.5 30
c5 8.66699 10.167 16.834 15.5 24.501s8 11.834 8 12.501c12 18.667 14.333 29.334 7 32.001c-5.33301 2 -17.666 -6.66699 -36.999 -26zM236 51.998c9.33301 0 18.5 6.00098 27.5 18.001s14.833 31 17.5 57c-20 -5.33301 -35.167 -14.333 -45.5 -27
s-15.5 -23.334 -15.5 -32.001c0 -4.66699 1.66699 -8.5 5 -11.5s7 -4.5 11 -4.5z" />
    <glyph glyph-name="uniF171" unicode="&#xf171;" 
d="M213.5 405c59 0 109.333 -20.833 151 -62.5s62.5 -91.834 62.5 -150.501s-20.833 -108.834 -62.5 -150.501s-92 -62.5 -151 -62.5s-109.333 20.833 -151 62.5s-62.5 91.834 -62.5 150.501s20.833 108.834 62.5 150.501s92 62.5 151 62.5zM361 277
c-21.333 37.333 -52.001 62.666 -92.001 75.999c12.667 -23.333 22.334 -48.666 29.001 -75.999h63zM212.999 362c-18 -26 -31.333 -54.333 -40 -85h81c-9.33301 30.667 -23 59 -41 85zM47.999 149l72 -0.00195312c-2 16.667 -3 31 -3 43s1 26.333 3 43h-72
c-3.33301 -15.333 -5 -29.666 -5 -42.999s1.66699 -27.666 5 -42.999zM65.999 106.998c21.333 -37.333 52.001 -62.666 92.001 -75.999c-12.667 23.333 -22.334 48.666 -29.001 75.999h-63zM129 276.998c6.66699 27.333 16.333 52.666 29 75.999
c-40 -13.333 -70.667 -38.666 -92 -75.999h63zM212.999 21.998c18 26 31.667 54.333 41 85h-81c8.66699 -30.667 22 -59 40 -85zM262.999 148.998c2.66699 16.667 4 31 4 43s-1.33301 26.333 -4 43h-100c-2 -16.667 -3 -31 -3 -43s1 -26.333 3 -43h100zM268.999 30.998
c40 13.333 70.668 38.666 92.001 75.999h-63c-6.66699 -27.333 -16.334 -52.666 -29.001 -75.999zM306 148.998l72 0.00195312c4 15.333 6 29.666 6 42.999s-2 27.666 -6 42.999h-72c2 -16.667 3 -31 3 -43s-1 -26.333 -3 -43z" />
    <glyph glyph-name="uniF172" unicode="&#xf172;" horiz-adv-x="469" 
d="M448 363c6 0 10.999 -2.16699 14.999 -6.5s6 -9.5 6 -15.5v-85c0 -6 -2 -11 -6 -15s-9 -6 -15 -6h-107c-5.33301 0 -10.166 2 -14.499 6s-6.5 9 -6.5 15v85c0 6 2.16699 11.167 6.5 15.5s9.16602 6.5 14.499 6.5v10c0 14.667 5.33301 27.334 16 38.001
s23.334 16 38.001 16s27.167 -5.33301 37.5 -16s15.5 -23.334 15.5 -38.001v-10zM430.999 363v10c0 10 -3.5 18.667 -10.5 26s-15.5 11 -25.5 11s-18.667 -3.66699 -26 -11s-11 -16 -11 -26v-10h73zM381.999 192h43.998c0.666992 -8 1 -15 1 -21
c0 -59.333 -20.833 -109.833 -62.5 -151.5s-92 -62.5 -151 -62.5s-109.333 20.833 -151 62.5s-62.5 92 -62.5 151s20.833 109.333 62.5 151s91.834 62.5 150.501 62.5c22 0 43.333 -3.33301 64 -10v-54c0 -12 -4.16699 -22.167 -12.5 -30.5s-18.166 -12.5 -29.499 -12.5h-43
v-42c0 -6 -2.16699 -11.167 -6.5 -15.5s-9.16602 -6.5 -14.499 -6.5h-43v-42h128c6 0 11 -2.16699 15 -6.5s6 -9.5 6 -15.5v-64h22c9.33301 0 17.666 -2.66699 24.999 -8s12.333 -12.333 15 -21c30 32.667 45 71 45 115c0 4.66699 -0.666992 11.667 -2 21zM191.997 1v41.999
c-12 0 -22.167 4.16699 -30.5 12.5s-12.5 18.166 -12.5 29.499v22l-102 102c-2.66699 -13.333 -4 -26 -4 -38c0 -43.333 14.167 -81.166 42.5 -113.499s63.833 -51.166 106.5 -56.499z" />
    <glyph glyph-name="uniF173" unicode="&#xf173;" 
d="M213.5 405c59 0 109.333 -20.833 151 -62.5s62.5 -91.834 62.5 -150.501s-20.833 -108.834 -62.5 -150.501s-92 -62.5 -151 -62.5s-109.333 20.833 -151 62.5s-62.5 91.834 -62.5 150.501s20.833 108.834 62.5 150.501s92 62.5 151 62.5zM192 23v41
c-12 0 -22.167 4.16699 -30.5 12.5s-12.5 18.5 -12.5 30.5v21l-102 102c-2.66699 -13.333 -4 -26 -4 -38c0 -43.333 14.167 -81 42.5 -113s63.833 -50.667 106.5 -56zM339 77c30 32.667 44.999 70.998 44.999 114.998c0 35.333 -9.83301 67.333 -29.5 96
s-45.5 49.334 -77.5 62.001v-9c0 -11.333 -4.16699 -21.166 -12.5 -29.499s-18.166 -12.5 -29.499 -12.5h-43v-43c0 -6 -2.16699 -11 -6.5 -15s-9.16602 -6 -14.499 -6h-43v-43h128c6 0 11 -2.16699 15 -6.5s6 -9.16602 6 -14.499v-64h22
c9.33301 0 17.666 -2.83301 24.999 -8.5s12.333 -12.834 15 -21.501z" />
    <glyph glyph-name="uniF174" unicode="&#xf174;" horiz-adv-x="469" 
d="M85 167l150 -82l149 82v-86l-149 -81l-150 81v86zM235 384l234 -128v-171h-42v148l-192 -105l-235 128z" />
    <glyph glyph-name="uniF175" unicode="&#xf175;" 
d="M171 21h-107v171h-64l213 192l214 -192h-64v-171h-107v128h-85v-128z" />
    <glyph glyph-name="uniF176" unicode="&#xf176;" horiz-adv-x="384" 
d="M384 341v-42l-43 -128l43 -128v-43h-384v43l43 128l-43 128v42h271l31 86l50 -19l-24 -67h56zM277 149v43h-64v64h-42v-64h-64v-43h64v-64h42v64h64z" />
    <glyph glyph-name="uniF177" unicode="&#xf177;" horiz-adv-x="384" 
d="M341 384c12 0 22.167 -4.16699 30.5 -12.5s12.5 -18.5 12.5 -30.5v-298c0 -12 -4.16699 -22.167 -12.5 -30.5s-18.5 -12.5 -30.5 -12.5h-298c-12 0 -22.167 4.16699 -30.5 12.5s-12.5 18.5 -12.5 30.5v298c0 12 4.16699 22.167 12.5 30.5s18.5 12.5 30.5 12.5h298z
M320 149v86h-85v85h-86v-85h-85v-86h85v-85h86v85h85z" />
    <glyph glyph-name="uniF178" unicode="&#xf178;" horiz-adv-x="469" 
d="M128 171c-18 0 -33.167 6.16699 -45.5 18.5s-18.5 27.333 -18.5 45s6.16699 32.834 18.5 45.501s27.5 19 45.5 19s33.167 -6.33301 45.5 -19s18.5 -27.834 18.5 -45.501s-6.16699 -32.667 -18.5 -45s-27.5 -18.5 -45.5 -18.5zM384 299c23.333 0 43.333 -8.33301 60 -25
s25 -37 25 -61v-192h-42v64h-384v-64h-43v320h43v-192h170v150h171z" />
    <glyph glyph-name="uniF179" unicode="&#xf179;" horiz-adv-x="256" 
d="M0 405h256v-128v0l-85 -85l85 -85v-1v-127h-256v127v1l85 85l-85 85v0v128zM213 96l-85 85l-85 -85h170zM43 288h170v75h-170v-75z" />
    <glyph glyph-name="uniF17A" unicode="&#xf17a;" horiz-adv-x="256" 
d="M0 405h256v-128v0l-85 -85l85 -85v-1v-127h-256v127v1l85 85l-85 85v0v128zM213 96l-85 85l-85 -85v-75h170v75zM128 203l85 85v75h-170v-75z" />
    <glyph glyph-name="uniF17B" unicode="&#xf17b;" horiz-adv-x="256" 
d="M0 405h256v-128v0l-85 -85l85 -85v-1v-127h-256v127v1l85 85l-85 85v0v128z" />
    <glyph glyph-name="uniF17C" unicode="&#xf17c;" horiz-adv-x="469" 
d="M75 213v43h32v-128h-32v53h-43v-53h-32v128h32v-43h43zM128 224v32h96v-32h-32v-96h-32v96h-32zM245 224v32h96v-32h-32v-96h-32v96h-32zM437 256c8.66699 0 16.167 -3.16699 22.5 -9.5s9.5 -13.833 9.5 -22.5v-21c0 -8.66699 -3.16699 -16.167 -9.5 -22.5
s-13.833 -9.5 -22.5 -9.5h-42v-43h-32v128h74zM437 203v21h-42v-21h42z" />
    <glyph glyph-name="uniF17D" unicode="&#xf17d;" horiz-adv-x="469" 
d="M469 64c0 -12 -4.16699 -22.167 -12.5 -30.5s-18.166 -12.5 -29.499 -12.5h-384c-12 0 -22.167 4.16699 -30.5 12.5s-12.5 18.5 -12.5 30.5v256c0 12 4.16699 22.167 12.5 30.5s18.5 12.5 30.5 12.5h384c11.333 0 21.166 -4.16699 29.499 -12.5s12.5 -18.5 12.5 -30.5
v-256zM160 181l-75 -96h299l-96 128l-75 -96z" />
    <glyph glyph-name="uniF17E" unicode="&#xf17e;" horiz-adv-x="384" 
d="M341 384c12 0 22.167 -4.16699 30.5 -12.5s12.5 -18.5 12.5 -30.5v-298c0 -12 -4.16699 -22.167 -12.5 -30.5s-18.5 -12.5 -30.5 -12.5h-298c-12 0 -22.167 4.16699 -30.5 12.5s-12.5 18.5 -12.5 30.5v298c0 12 4.16699 22.167 12.5 30.5s18.5 12.5 30.5 12.5h298z
M341 43v298h-298v-298h298zM234 186l75 -101h-234l58 76l42 -51z" />
    <glyph glyph-name="uniF17F" unicode="&#xf17f;" horiz-adv-x="384" 
d="M384 43c0 -12 -4.16699 -22.167 -12.5 -30.5s-18.5 -12.5 -30.5 -12.5h-298c-12 0 -22.167 4.16699 -30.5 12.5s-12.5 18.5 -12.5 30.5v298c0 12 4.16699 22.167 12.5 30.5s18.5 12.5 30.5 12.5h298c12 0 22.167 -4.16699 30.5 -12.5s12.5 -18.5 12.5 -30.5v-298z
M117 160l-74 -96h298l-96 128l-74 -96z" />
    <glyph glyph-name="uniF180" unicode="&#xf180;" horiz-adv-x="384" 
d="M341 384c12 0 22.167 -4.16699 30.5 -12.5s12.5 -18.5 12.5 -30.5v-298c0 -12 -4.16699 -22.167 -12.5 -30.5s-18.5 -12.5 -30.5 -12.5h-299c-11.333 0 -21.166 4.16699 -29.499 12.5s-12.5 18.5 -12.5 30.5v298c0 12 4.16699 22.167 12.5 30.5s18.166 12.5 29.499 12.5
h299zM341 128v213h-299v-213h86c0 -18 6.16699 -33.167 18.5 -45.5s27.5 -18.5 45.5 -18.5s33.167 6.16699 45.5 18.5s18.5 27.5 18.5 45.5h85zM277 235l-85 -86l-85 86h42v64h86v-64h42z" />
    <glyph glyph-name="uniF181" unicode="&#xf181;" horiz-adv-x="384" 
d="M377 3l7 -8l-27 -27l-58 58c-30.667 -25.333 -66.334 -38 -107.001 -38c-47.333 0 -87.666 16.667 -120.999 50c-30.667 30.667 -47.167 68 -49.5 112s10.167 82.667 37.5 116l-59 59l27 27l59 -59l30 -30l76 -76l134 -134zM192 30v103.001l-102 102
c-17.333 -22.667 -26 -48.334 -26 -77.001c0 -35.333 12.667 -65.333 38 -90c24.667 -25.333 54.667 -38 90 -38zM192 339.001l-49 -47.999l-30 30l79 79l121 -121c25.333 -26 41 -56.833 47 -92.5s1.66699 -68.834 -13 -99.501l-155 154v98z" />
    <glyph glyph-name="uniF182" unicode="&#xf182;" horiz-adv-x="341" 
d="M291 279c33.333 -33.333 50 -73.666 50 -120.999s-16.667 -87.5 -50 -120.5s-73.5 -49.5 -120.5 -49.5s-87.167 16.5 -120.5 49.5s-50 73.167 -50 120.5s16.667 87.666 50 120.999l121 121zM171 30v308.999l-91 -90c-24.667 -25.333 -37 -55.666 -37 -90.999
s12.333 -65.333 37 -90c24.667 -25.333 55 -38 91 -38z" />
    <glyph glyph-name="uniF183" unicode="&#xf183;" horiz-adv-x="469" 
d="M249 235h220v-86h-42v-85h-86v85h-92c-9.33301 -24.667 -25 -45 -47 -61s-46.667 -24 -74 -24c-35.333 0 -65.5 12.5 -90.5 37.5s-37.5 55.167 -37.5 90.5s12.5 65.5 37.5 90.5s55.167 37.5 90.5 37.5c27.333 0 52 -8 74 -24s37.667 -36.333 47 -61zM128 149
c12 0 22.167 4.16699 30.5 12.5s12.5 18.5 12.5 30.5s-4.16699 22.167 -12.5 30.5s-18.5 12.5 -30.5 12.5s-22.167 -4.16699 -30.5 -12.5s-12.5 -18.5 -12.5 -30.5s4.16699 -22.167 12.5 -30.5s18.5 -12.5 30.5 -12.5z" />
    <glyph glyph-name="uniF184" unicode="&#xf184;" horiz-adv-x="405" 
d="M312 323l93 -130.998l-93 -131c-8.66699 -12 -20.334 -18 -35.001 -18h-234c-12 0 -22.167 4.16699 -30.5 12.5s-12.5 18.166 -12.5 29.499v214c0 11.333 4.16699 21.166 12.5 29.499s18.5 12.5 30.5 12.5h234c14.667 0 26.334 -6 35.001 -18zM277 85.002l76 107l-76 107
h-234v-214h234z" />
    <glyph glyph-name="uniF185" unicode="&#xf185;" horiz-adv-x="405" 
d="M312 323l93 -130.998l-93 -131c-8.66699 -12 -20.334 -18 -35.001 -18h-234c-12 0 -22.167 4.16699 -30.5 12.5s-12.5 18.166 -12.5 29.499v214c0 11.333 4.16699 21.166 12.5 29.499s18.5 12.5 30.5 12.5h234c14.667 0 26.334 -6 35.001 -18z" />
    <glyph glyph-name="uniF186" unicode="&#xf186;" 
d="M414 201c8.66699 -8.66699 13.001 -18.832 13.001 -30.499s-4.33301 -21.5 -13 -29.5l-149 -150c-8.66699 -8 -18.834 -12 -30.501 -12s-21.5 4 -29.5 12l-192 192c-8.66699 8.66699 -13 18.667 -13 30v150c0 11.333 4.16699 21.166 12.5 29.499s18.5 12.5 30.5 12.5h149
c12 0 22 -4 30 -12zM74.501 299.002c9 0 16.667 3 23 9s9.5 13.5 9.5 22.5s-3.16699 16.667 -9.5 23s-14 9.5 -23 9.5s-16.5 -3.16699 -22.5 -9.5s-9 -14 -9 -23s3 -16.5 9 -22.5s13.5 -9 22.5 -9zM326.001 122.002c10 10.667 15.001 23.334 15.001 38.001
s-5.16699 27.167 -15.5 37.5s-22.833 15.5 -37.5 15.5s-27.334 -5 -38.001 -15l-15 -16l-16 16c-10 10 -22.667 15 -38 15c-14.667 0 -27.167 -5.16699 -37.5 -15.5s-15.5 -22.833 -15.5 -37.5s5.33301 -27.334 16 -38.001l91 -91z" />
    <glyph glyph-name="uniF187" unicode="&#xf187;" 
d="M414 201c8.66699 -8.66699 13.001 -18.832 13.001 -30.499s-4.33301 -21.5 -13 -29.5l-149 -150c-8.66699 -8 -18.834 -12 -30.501 -12s-21.5 4 -29.5 12l-192 192c-8.66699 8.66699 -13 18.667 -13 30v150c0 11.333 4.16699 21.166 12.5 29.499s18.5 12.5 30.5 12.5h149
c12 0 22 -4 30 -12zM74.501 299.002c9 0 16.667 3 23 9s9.5 13.5 9.5 22.5s-3.16699 16.667 -9.5 23s-14 9.5 -23 9.5s-16.5 -3.16699 -22.5 -9.5s-9 -14 -9 -23s3 -16.5 9 -22.5s13.5 -9 22.5 -9z" />
    <glyph glyph-name="uniF188" unicode="&#xf188;" horiz-adv-x="446" 
d="M26 29c-10.667 4.66699 -18.167 12.332 -22.5 22.999s-4.5 21.334 -0.5 32.001l52 125v-192zM442 107.998c4.66699 -10.667 4.66699 -21.501 0 -32.501s-12.334 -18.833 -23.001 -23.5l-157 -65c-5.33301 -2 -10.666 -3 -15.999 -3c-19.333 0 -32.333 8.66699 -39 26
l-106 256c-2.66699 5.33301 -3.66699 11 -3 17c0 18.667 8.66699 31.334 26 38.001l157 65c5.33301 2 11 3 17 3c18.667 0 31.667 -8.66699 39 -26zM140.5 260.997c5.66699 0 10.667 2.16699 15 6.5s6.5 9.33301 6.5 15s-2.16699 10.667 -6.5 15s-9.33301 6.5 -15 6.5
s-10.667 -2.16699 -15 -6.5s-6.5 -9.33301 -6.5 -15s2.16699 -10.667 6.5 -15s9.33301 -6.5 15 -6.5zM98 26.9971l-0.000976562 135l73 -178h-31c-11.333 0 -21.166 4.16699 -29.499 12.5s-12.5 18.5 -12.5 30.5z" />
    <glyph glyph-name="uniF189" unicode="&#xf189;" horiz-adv-x="469" 
d="M54 52l39 39l30 -30l-39 -39zM213 -31v63h43v-63h-43zM64 224v-43h-64v43h64zM299 313c19.333 -11.333 34.833 -26.666 46.5 -45.999s17.5 -40.666 17.5 -63.999c0 -35.333 -12.5 -65.5 -37.5 -90.5s-55.167 -37.5 -90.5 -37.5s-65.5 12.5 -90.5 37.5
s-37.5 55.167 -37.5 90.5c0 23.333 5.66699 44.666 17 63.999s27 34.666 47 45.999v103h128v-103zM405 224h64v-43h-64v43zM346 61l30 29l39 -38l-30 -30z" />
    <glyph glyph-name="uniF18A" unicode="&#xf18a;" horiz-adv-x="469" 
d="M277 320l192 -256h-469l128 171l96 -128l34 25l-61 81z" />
    <glyph glyph-name="uniF18B" unicode="&#xf18b;" 
d="M380 128l-31 31l26 19l30 -30zM370 229l-51 -40l-168 168l62 48l192 -149zM27 427l400 -400l-27 -27l-81 81l-106 -82l-192 149l35 27l157 -123l76 59l-31 30l-45 -34l-157 122l-35 27l69 54l-90 90z" />
    <glyph glyph-name="uniF18C" unicode="&#xf18c;" horiz-adv-x="384" 
d="M192 52l157 123l35 -27l-192 -149l-192 149l35 27zM192 107l-157 122l-35 27l192 149l192 -149l-35 -27z" />
    <glyph glyph-name="uniF18D" unicode="&#xf18d;" horiz-adv-x="384" 
d="M192 202c54 50 118 75 192 75v-234c-73.333 0 -137.333 -25.333 -192 -76c-54 50.667 -118 76 -192 76v234c74 0 138 -25 192 -75zM192 277c-18 0 -33.167 6.33301 -45.5 19s-18.5 27.834 -18.5 45.501s6.16699 32.667 18.5 45s27.5 18.5 45.5 18.5
s33.167 -6.16699 45.5 -18.5s18.5 -27.333 18.5 -45s-6.16699 -32.834 -18.5 -45.501s-27.5 -19 -45.5 -19z" />
    <glyph glyph-name="uniF18E" unicode="&#xf18e;" 
d="M41 192c0 -18 6.33301 -33.5 19 -46.5s28.334 -19.5 47.001 -19.5h85v-41h-85c-29.333 0 -54.5 10.5 -75.5 31.5s-31.5 46.167 -31.5 75.5s10.5 54.5 31.5 75.5s46.167 31.5 75.5 31.5h85v-41h-85c-18.667 0 -34.334 -6.5 -47.001 -19.5s-19 -28.5 -19 -46.5zM128 171v42
h171v-42h-171zM320 299c29.333 0 54.5 -10.5 75.5 -31.5s31.5 -46.167 31.5 -75.5s-10.5 -54.5 -31.5 -75.5s-46.167 -31.5 -75.5 -31.5h-85v41h85c18 0 33.5 6.5 46.5 19.5s19.5 28.5 19.5 46.5s-6.5 33.5 -19.5 46.5s-28.5 19.5 -46.5 19.5h-85v41h85z" />
    <glyph glyph-name="uniF18F" unicode="&#xf18f;" horiz-adv-x="341" 
d="M170.5 85c-11.667 0 -21.667 4.16699 -30 12.5s-12.5 18.5 -12.5 30.5s4.16699 22.167 12.5 30.5s18.333 12.5 30 12.5s21.667 -4.16699 30 -12.5s12.5 -18.5 12.5 -30.5s-4.16699 -22.167 -12.5 -30.5s-18.333 -12.5 -30 -12.5zM299 277
c11.333 0 21.166 -4.16699 29.499 -12.5s12.5 -18.166 12.5 -29.499v-214c0 -11.333 -4.16699 -21.166 -12.5 -29.499s-18.166 -12.5 -29.499 -12.5h-256c-12 0 -22.167 4.16699 -30.5 12.5s-12.5 18.166 -12.5 29.499v214c0 11.333 4.16699 21.166 12.5 29.499
s18.5 12.5 30.5 12.5h194v43c0 18 -6.5 33.5 -19.5 46.5s-28.667 19.5 -47 19.5s-33.833 -6.5 -46.5 -19.5s-19 -28.5 -19 -46.5h-41c0 29.333 10.5 54.5 31.5 75.5s46.167 31.5 75.5 31.5s54.333 -10.5 75 -31.5s31 -46.167 31 -75.5v-43h22zM299 21v214h-256v-214h256z
" />
    <glyph glyph-name="uniF190" unicode="&#xf190;" horiz-adv-x="341" 
d="M299 277c11.333 0 21.166 -4.16699 29.499 -12.5s12.5 -18.166 12.5 -29.499v-214c0 -11.333 -4.16699 -21.166 -12.5 -29.499s-18.166 -12.5 -29.499 -12.5h-256c-12 0 -22.167 4.16699 -30.5 12.5s-12.5 18.166 -12.5 29.499v214c0 11.333 4.16699 21.166 12.5 29.499
s18.5 12.5 30.5 12.5h21v43c0 29.333 10.5 54.5 31.5 75.5s46.167 31.5 75.5 31.5s54.333 -10.5 75 -31.5s31 -46.167 31 -75.5v-43h22zM170.5 386c-18.333 0 -33.833 -6.5 -46.5 -19.5s-19 -28.5 -19 -46.5h2v-43h130v43c0 18 -6.5 33.5 -19.5 46.5s-28.667 19.5 -47 19.5z
M299 21v214h-256v-214h256zM170.5 85c-11.667 0 -21.667 4.16699 -30 12.5s-12.5 18.5 -12.5 30.5s4.16699 22.167 12.5 30.5s18.333 12.5 30 12.5s21.667 -4.16699 30 -12.5s12.5 -18.5 12.5 -30.5s-4.16699 -22.167 -12.5 -30.5s-18.333 -12.5 -30 -12.5z" />
    <glyph glyph-name="uniF191" unicode="&#xf191;" horiz-adv-x="341" 
d="M299 277c11.333 0 21.166 -4.16699 29.499 -12.5s12.5 -18.166 12.5 -29.499v-214c0 -11.333 -4.16699 -21.166 -12.5 -29.499s-18.166 -12.5 -29.499 -12.5h-256c-12 0 -22.167 4.16699 -30.5 12.5s-12.5 18.166 -12.5 29.499v214c0 11.333 4.16699 21.166 12.5 29.499
s18.5 12.5 30.5 12.5h21v43c0 29.333 10.5 54.5 31.5 75.5s46.167 31.5 75.5 31.5s54.333 -10.5 75 -31.5s31 -46.167 31 -75.5v-43h22zM170.5 85c11.667 0 21.667 4.16699 30 12.5s12.5 18.5 12.5 30.5s-4.16699 22.167 -12.5 30.5s-18.333 12.5 -30 12.5
s-21.667 -4.16699 -30 -12.5s-12.5 -18.5 -12.5 -30.5s4.16699 -22.167 12.5 -30.5s18.333 -12.5 30 -12.5zM237 277v43c0 18 -6.5 33.5 -19.5 46.5s-28.667 19.5 -47 19.5s-33.833 -6.5 -46.5 -19.5s-19 -28.5 -19 -46.5v-43h132z" />
    <glyph glyph-name="uniF192" unicode="&#xf192;" horiz-adv-x="512" 
d="M149 277l-85 -85l85 -85v-64l-149 149l149 149v-64zM277 256c36 -5.33301 68.167 -15.5 96.5 -30.5s51.5 -33.5 69.5 -55.5s32.5 -45.167 43.5 -69.5s19.5 -50.833 25.5 -79.5c-52 72.667 -130.333 109 -235 109v-87l-149 149l149 149v-85z" />
    <glyph glyph-name="uniF193" unicode="&#xf193;" horiz-adv-x="384" 
d="M149 256c36 -5.33301 68.167 -15.5 96.5 -30.5s51.5 -33.5 69.5 -55.5s32.5 -45.167 43.5 -69.5s19.5 -50.833 25.5 -79.5c-52 72.667 -130.333 109 -235 109v-87l-149 149l149 149v-85z" />
    <glyph glyph-name="uniF194" unicode="&#xf194;" horiz-adv-x="448" 
d="M0 0v149l320 43l-320 43v149l448 -192z" />
    <glyph glyph-name="uniF195" unicode="&#xf195;" horiz-adv-x="384" 
d="M341 320c12 0 22.167 -4.16699 30.5 -12.5s12.5 -18.5 12.5 -30.5v-256c0 -11.333 -4.16699 -21.166 -12.5 -29.499s-18.5 -12.5 -30.5 -12.5h-298c-12 0 -22.167 4.16699 -30.5 12.5s-12.5 18.166 -12.5 29.499v256c0 12 4.16699 22.167 12.5 30.5s18.5 12.5 30.5 12.5
h42c0 29.333 10.5 54.5 31.5 75.5s46.167 31.5 75.5 31.5s54.5 -10.5 75.5 -31.5s31.5 -46.167 31.5 -75.5h42zM192 384c-18 0 -33.167 -6.16699 -45.5 -18.5s-18.5 -27.5 -18.5 -45.5h128c0 18 -6.16699 33.167 -18.5 45.5s-27.5 18.5 -45.5 18.5zM192 171
c29.333 0 54.5 10.333 75.5 31s31.5 45.667 31.5 75h-43c0 -17.333 -6.16699 -32.333 -18.5 -45s-27.5 -19 -45.5 -19s-33.167 6.33301 -45.5 19s-18.5 27.667 -18.5 45h-43c0 -29.333 10.5 -54.333 31.5 -75s46.167 -31 75.5 -31z" />
    <glyph glyph-name="uniF196" unicode="&#xf196;" horiz-adv-x="384" 
d="M373 384c7.33301 0 11 -3.66699 11 -11v-322c0 -5.33301 -2.66699 -8.66602 -8 -9.99902l-120 -41l-128 45l-114 -44l-3 -1c-7.33301 0 -11 3.66699 -11 11v322c0 5.33301 2.66699 8.66602 8 9.99902l120 41l128 -45l114 44zM256 43v253l-128 45v-253z" />
    <glyph glyph-name="uniF197" unicode="&#xf197;" horiz-adv-x="432" 
d="M0 48v48h432v-48h-432zM0 168v48h432v-48h-432zM0 336h432v-48h-432v48z" />
    <glyph glyph-name="uniF198" unicode="&#xf198;" 
d="M192 85v22h-43v42h86v22h-64c-6 0 -11.167 2 -15.5 6s-6.5 9 -6.5 15v64c0 6 2.16699 11 6.5 15s9.5 6 15.5 6h21v22h43v-22h42v-42h-85v-22h64c6 0 11 -2 15 -6s6 -9 6 -15v-64c0 -6 -2 -11 -6 -15s-9 -6 -15 -6h-21v-22h-43zM384 363c12 0 22.167 -4.16699 30.5 -12.5
s12.5 -18.5 12.5 -30.5v-256c0 -12 -4.16699 -22.167 -12.5 -30.5s-18.5 -12.5 -30.5 -12.5h-341c-12 0 -22.167 4.16699 -30.5 12.5s-12.5 18.5 -12.5 30.5v256c0 12 4.16699 22.167 12.5 30.5s18.5 12.5 30.5 12.5h341zM384 64v256h-341v-256h341z" />
    <glyph glyph-name="uniF199" unicode="&#xf199;" horiz-adv-x="339" 
d="M180 301c-12 0 -22.667 -2 -32 -6l-32 31c10 5.33301 20.667 9.33301 32 12v46h64v-47c21.333 -5.33301 37.833 -15.333 49.5 -30s18.167 -31.667 19.5 -51h-48c-1.33301 30 -19 45 -53 45zM27 361l312.003 -312l-27 -27l-48 48c-12.667 -12 -30 -20 -52 -24v-46h-64v46
c-22 4.66699 -40.333 14 -55 28s-22.334 32 -23.001 54h46c3.33301 -30 24.666 -45 63.999 -45c25.333 0 42.666 6.66699 51.999 20l-75 74c-56 16.667 -84 44.667 -84 84l-73 73z" />
    <glyph glyph-name="uniF19A" unicode="&#xf19a;" horiz-adv-x="217" 
d="M117 215c30.667 -7.33301 54.9971 -18.001 72.9971 -32.001s27 -34.333 27 -61c0 -21.333 -6.83301 -38.333 -20.5 -51s-31.5 -21 -53.5 -25v-46h-64v46c-22.667 4.66699 -41.167 14 -55.5 28s-22.166 32 -23.499 54h47c2.66699 -30 24 -45 64 -45
c20.667 0 35.334 4 44.001 12s13 16.667 13 26c0 11.333 -4.5 21.333 -13.5 30s-25.833 16 -50.5 22c-66.667 16 -100 45.333 -100 88c0 19.333 7 35.833 21 49.5s32 22.834 54 27.501v46h64v-47c21.333 -5.33301 37.833 -15.333 49.5 -30s17.834 -31.667 18.501 -51h-47
c-1.33301 30 -19 45 -53 45c-18 0 -32.167 -3.66699 -42.5 -11s-15.5 -17 -15.5 -29c0 -10 4.66699 -18.5 14 -25.5s26 -13.833 50 -20.5z" />
    <glyph glyph-name="uniF19B" unicode="&#xf19b;" horiz-adv-x="85" 
d="M42.5 277c-11.667 0 -21.667 4.16699 -30 12.5s-12.5 18.5 -12.5 30.5s4.16699 22.167 12.5 30.5s18.333 12.5 30 12.5s21.667 -4.16699 30 -12.5s12.5 -18.5 12.5 -30.5s-4.16699 -22.167 -12.5 -30.5s-18.333 -12.5 -30 -12.5zM42.5 235
c11.667 0 21.667 -4.16699 30 -12.5s12.5 -18.5 12.5 -30.5s-4.16699 -22.167 -12.5 -30.5s-18.333 -12.5 -30 -12.5s-21.667 4.16699 -30 12.5s-12.5 18.5 -12.5 30.5s4.16699 22.167 12.5 30.5s18.333 12.5 30 12.5zM42.5 107c11.667 0 21.667 -4.16699 30 -12.5
s12.5 -18.5 12.5 -30.5s-4.16699 -22.167 -12.5 -30.5s-18.333 -12.5 -30 -12.5s-21.667 4.16699 -30 12.5s-12.5 18.5 -12.5 30.5s4.16699 22.167 12.5 30.5s18.333 12.5 30 12.5z" />
    <glyph glyph-name="uniF19C" unicode="&#xf19c;" horiz-adv-x="341" 
d="M42.5 235c11.667 0 21.667 -4.16699 30 -12.5s12.5 -18.5 12.5 -30.5s-4.16699 -22.167 -12.5 -30.5s-18.333 -12.5 -30 -12.5s-21.667 4.16699 -30 12.5s-12.5 18.5 -12.5 30.5s4.16699 22.167 12.5 30.5s18.333 12.5 30 12.5zM298.5 235
c11.667 0 21.667 -4.16699 30 -12.5s12.5 -18.5 12.5 -30.5s-4.16699 -22.167 -12.5 -30.5s-18.333 -12.5 -30 -12.5s-21.667 4.16699 -30 12.5s-12.5 18.5 -12.5 30.5s4.16699 22.167 12.5 30.5s18.333 12.5 30 12.5zM170.5 235c11.667 0 21.667 -4.16699 30 -12.5
s12.5 -18.5 12.5 -30.5s-4.16699 -22.167 -12.5 -30.5s-18.333 -12.5 -30 -12.5s-21.667 4.16699 -30 12.5s-12.5 18.5 -12.5 30.5s4.16699 22.167 12.5 30.5s18.333 12.5 30 12.5z" />
    <glyph glyph-name="uniF19D" unicode="&#xf19d;" horiz-adv-x="341" 
d="M299 384h42v-384h-42v43h-43v-43h-171v43h-42v-43h-43v384h43v-43h42v43h171v-43h43v43zM85 85v43h-42v-43h42zM85 171v42h-42v-42h42zM85 256v43h-42v-43h42zM299 85v43h-43v-43h43zM299 171v42h-43v-42h43zM299 256v43h-43v-43h43z" />
    <glyph glyph-name="uniF19E" unicode="&#xf19e;" 
d="M341 363h86v-299c0 -12 -4.16699 -22.167 -12.5 -30.5s-18.5 -12.5 -30.5 -12.5h-341c-12 0 -22.167 4.16699 -30.5 12.5s-12.5 18.5 -12.5 30.5v256c0 12 4.16699 22.167 12.5 30.5s18.5 12.5 30.5 12.5h21l43 -86h64l-43 86h43l42 -86h64l-42 86h42l43 -86h64z" />
    <glyph glyph-name="uniF19F" unicode="&#xf19f;" horiz-adv-x="430" 
d="M430 252c0 -38 -12.499 -71.001 -37.499 -99.001s-56.167 -44.333 -93.5 -49v-83h64v-42h-342v106h-21v86c0 5.33301 2.16699 10.166 6.5 14.499s9.16602 6.5 14.499 6.5h64c6 0 11.167 -2.16699 15.5 -6.5s6.5 -9.16602 6.5 -14.499v-86h-22v-64h171v84
c-35.333 6 -64.833 22.833 -88.5 50.5s-35.5 59.834 -35.5 96.501c0 41.333 14.5 76.666 43.5 105.999s64.167 44 105.5 44s76.5 -14.667 105.5 -44s43.5 -64.666 43.5 -105.999zM53.501 212.999c-9 0 -16.667 3.16699 -23 9.5s-9.5 14 -9.5 23s3.16699 16.5 9.5 22.5
s14 9 23 9s16.5 -3 22.5 -9s9 -13.5 9 -22.5s-3 -16.667 -9 -23s-13.5 -9.5 -22.5 -9.5z" />
    <glyph glyph-name="uniF1A0" unicode="&#xf1a0;" horiz-adv-x="302" 
d="M171 104v-83.001h128v-42h-299v42h128v84c-35.333 6 -64.833 22.833 -88.5 50.5s-35.5 59.834 -35.5 96.501c0 41.333 14.5 76.666 43.5 105.999s64.167 44 105.5 44s76.5 -14.667 105.5 -44s43.5 -64.666 43.5 -105.999c0 -38 -12.5 -71 -37.5 -99
s-56.167 -44.333 -93.5 -49z" />
    <glyph glyph-name="uniF1A1" unicode="&#xf1a1;" horiz-adv-x="320" 
d="M160 405l160 -390l-15 -15l-145 64l-145 -64l-15 15z" />
    <glyph glyph-name="uniF1A2" unicode="&#xf1a2;" horiz-adv-x="384" 
d="M341 363c12 0 22.167 -4.16699 30.5 -12.5s12.5 -18.5 12.5 -30.5v-256c0 -12 -4.16699 -22.167 -12.5 -30.5s-18.5 -12.5 -30.5 -12.5h-85v43h85v213h-298v-213h85v-43h-85c-12 0 -22.167 4.16699 -30.5 12.5s-12.5 18.5 -12.5 30.5v256c0 12 4.16699 22.167 12.5 30.5
s18.5 12.5 30.5 12.5h298zM192 235l85 -86h-64v-128h-42v128h-64z" />
    <glyph glyph-name="uniF1A3" unicode="&#xf1a3;" horiz-adv-x="384" 
d="M341 43v149h43v-149c0 -12 -4.16699 -22.167 -12.5 -30.5s-18.5 -12.5 -30.5 -12.5h-298c-12 0 -22.167 4.16699 -30.5 12.5s-12.5 18.5 -12.5 30.5v298c0 12 4.16699 22.167 12.5 30.5s18.5 12.5 30.5 12.5h149v-43h-149v-298h298zM235 384h149v-149h-43v76l-209 -209
l-30 30l209 209h-76v43z" />
    <glyph glyph-name="uniF1A4" unicode="&#xf1a4;" horiz-adv-x="384" 
d="M192 384c53.333 0 98.667 -16.666 136 -49.999s56 -73.666 56 -120.999c0 -29.333 -10.5 -54.333 -31.5 -75s-46.167 -31 -75.5 -31h-37c-9.33301 0 -17 -3.16699 -23 -9.5s-9 -13.833 -9 -22.5c0 -8 2.66699 -15 8 -21c5.33301 -6.66699 8 -14 8 -22
c0 -8.66699 -3.16699 -16.167 -9.5 -22.5s-13.833 -9.5 -22.5 -9.5c-53.333 0 -98.666 18.667 -135.999 56s-56 82.666 -56 135.999s18.667 98.666 56 135.999s82.666 56 135.999 56zM74.501 192.001c9 0 16.667 3.16699 23 9.5s9.5 13.833 9.5 22.5
s-3.16699 16.167 -9.5 22.5s-14 9.5 -23 9.5s-16.5 -3.16699 -22.5 -9.5s-9 -13.833 -9 -22.5s3 -16.167 9 -22.5s13.5 -9.5 22.5 -9.5zM138.501 277.001c9 0 16.667 3.16699 23 9.5s9.5 14 9.5 23s-3.16699 16.5 -9.5 22.5s-14 9 -23 9s-16.5 -3 -22.5 -9
s-9 -13.5 -9 -22.5s3 -16.667 9 -23s13.5 -9.5 22.5 -9.5zM245.501 277.001c9 0 16.5 3.16699 22.5 9.5s9 14 9 23s-3 16.5 -9 22.5s-13.5 9 -22.5 9s-16.667 -3 -23 -9s-9.5 -13.5 -9.5 -22.5s3.16699 -16.667 9.5 -23s14 -9.5 23 -9.5zM309.501 192.001
c9 0 16.5 3.16699 22.5 9.5s9 13.833 9 22.5s-3 16.167 -9 22.5s-13.5 9.5 -22.5 9.5s-16.667 -3.16699 -23 -9.5s-9.5 -13.833 -9.5 -22.5s3.16699 -16.167 9.5 -22.5s14 -9.5 23 -9.5z" />
    <glyph glyph-name="uniF1A5" unicode="&#xf1a5;" horiz-adv-x="277" 
d="M149 384c35.333 0 65.5 -12.5 90.5 -37.5s37.5 -55.167 37.5 -90.5s-12.5 -65.5 -37.5 -90.5s-55.167 -37.5 -90.5 -37.5h-64v-128h-85v384h149zM154 213c11.333 0 21.166 4.16699 29.499 12.5s12.5 18.5 12.5 30.5s-4.16699 22.167 -12.5 30.5
s-18.166 12.5 -29.499 12.5h-69v-86h69z" />
    <glyph glyph-name="uniF1A6" unicode="&#xf1a6;" horiz-adv-x="384" 
d="M341 405c12 0 22.167 -4.16699 30.5 -12.5s12.5 -18.166 12.5 -29.499v-299c0 -12 -4.16699 -22.167 -12.5 -30.5s-18.5 -12.5 -30.5 -12.5h-85l-64 -64l-64 64h-85c-12 0 -22.167 4.16699 -30.5 12.5s-12.5 18.5 -12.5 30.5v299c0 11.333 4.16699 21.166 12.5 29.499
s18.5 12.5 30.5 12.5h298zM192 335c-16 0 -29.667 -5.66699 -41 -17s-17 -25 -17 -41s5.66699 -29.5 17 -40.5s25 -16.5 41 -16.5s29.667 5.5 41 16.5s17 24.5 17 40.5s-5.66699 29.667 -17 41s-25 17 -41 17zM320 107l-0.00195312 19
c0 13.333 -7.83301 25.166 -23.5 35.499s-33.167 18 -52.5 23s-36.666 7.5 -51.999 7.5s-32.666 -2.5 -51.999 -7.5s-36.833 -12.667 -52.5 -23s-23.5 -22.166 -23.5 -35.499v-19h256z" />
    <glyph glyph-name="uniF1A7" unicode="&#xf1a7;" horiz-adv-x="384" 
d="M341 405c12 0 22.167 -4.16699 30.5 -12.5s12.5 -18.166 12.5 -29.499v-299c0 -12 -4.16699 -22.167 -12.5 -30.5s-18.5 -12.5 -30.5 -12.5h-85l-64 -64l-64 64h-85c-12 0 -22.167 4.16699 -30.5 12.5s-12.5 18.5 -12.5 30.5v299c0 11.333 4.16699 21.166 12.5 29.499
s18.5 12.5 30.5 12.5h298zM232 173l88 40l-88 40l-40 88l-40 -88l-88 -40l88 -40l40 -88z" />
    <glyph glyph-name="uniF1A8" unicode="&#xf1a8;" horiz-adv-x="299" 
d="M277 277c0 -18 -4.33203 -38.333 -12.999 -61s-19.334 -43.667 -32.001 -63l-37.5 -55c-12.333 -17.333 -22.833 -30.666 -31.5 -39.999l-14 -15c-3.33301 3.33301 -7.83301 8.33301 -13.5 15s-15.834 19.667 -30.501 39s-27.667 38.166 -39 56.499
s-21.666 39 -30.999 62s-14 43.5 -14 61.5c0 35.333 12.5 65.5 37.5 90.5s55.167 37.5 90.5 37.5s65.5 -12.5 90.5 -37.5s37.5 -55.167 37.5 -90.5zM107.001 277.5c0 -11.667 4.16699 -21.667 12.5 -30s18.333 -12.5 30 -12.5s21.667 4.16699 30 12.5s12.5 18.333 12.5 30
s-4.16699 21.667 -12.5 30s-18.333 12.5 -30 12.5s-21.667 -4.16699 -30 -12.5s-12.5 -18.333 -12.5 -30zM0.000976562 21h299v-42h-299v42z" />
    <glyph glyph-name="uniF1A9" unicode="&#xf1a9;" horiz-adv-x="384" 
d="M341 405c12 0 22.167 -4.16699 30.5 -12.5s12.5 -18.166 12.5 -29.499v-299c0 -12 -4.16699 -22.167 -12.5 -30.5s-18.5 -12.5 -30.5 -12.5h-85l-64 -64l-64 64h-85c-12 0 -22.167 4.16699 -30.5 12.5s-12.5 18.5 -12.5 30.5v299c0 11.333 4.16699 21.166 12.5 29.499
s18.5 12.5 30.5 12.5h298zM213 64v43h-42v-43h42zM257 229c13.333 13.333 20 29.334 20 48.001c0 24 -8.33301 44.333 -25 61s-36.667 25 -60 25s-43.333 -8.33301 -60 -25s-25 -37 -25 -61h42c0 12 4.16699 22.167 12.5 30.5s18.5 12.5 30.5 12.5
s22.167 -4.16699 30.5 -12.5s12.5 -18.5 12.5 -30.5c0 -11.333 -4.33301 -21.333 -13 -30l-26 -27c-16.667 -16.667 -25 -36.667 -25 -60v-11h42c0 14.667 2 26.167 6 34.5s10.333 17.166 19 26.499z" />
    <glyph glyph-name="uniF1AA" unicode="&#xf1aa;" horiz-adv-x="384" 
d="M213 309c-15.333 0 -28.3311 -6 -38.998 -18l-68 68c29.333 30.667 65 46 107 46c41.333 0 76.666 -14.5 105.999 -43.5s44 -64.167 44 -105.5c0 -32 -12.333 -71 -37 -117l-77 78c12 10.667 18 23.667 18 39c0 14.667 -5.33301 27.167 -16 37.5
s-23.334 15.5 -38.001 15.5zM307.002 105l77 -78l-27 -27l-72 71c-10.667 -15.333 -22 -30.833 -34 -46.5s-21.333 -27.167 -28 -34.5l-10 -11c-4 4 -9.33301 10 -16 18s-18.5 23.5 -35.5 46.5s-32.167 45.333 -45.5 67s-25.333 46.167 -36 73.5s-16 51.333 -16 72
c0 10.667 1.33301 21.667 4 33l-68 68l27 27l178 -178l3 -3z" />
    <glyph glyph-name="uniF1AB" unicode="&#xf1ab;" horiz-adv-x="299" 
d="M149 405c41.333 0 76.668 -14.5 106.001 -43.5s44 -64.167 44 -105.5c0 -20.667 -5.16699 -44.5 -15.5 -71.5s-22.833 -52 -37.5 -75s-29.334 -44.667 -44.001 -65s-27 -36.5 -37 -48.5l-16 -17c-4 4 -9.33301 10 -16 18s-18.5 23.5 -35.5 46.5s-32.167 45.333 -45.5 67
s-25.333 46.167 -36 73.5s-16 51.333 -16 72c0 41.333 14.5 76.5 43.5 105.5s64.167 43.5 105.5 43.5zM149.002 203c14.667 0 27.334 5.16699 38.001 15.5s16 22.833 16 37.5s-5.33301 27.167 -16 37.5s-23.334 15.5 -38.001 15.5s-27.167 -5.16699 -37.5 -15.5
s-15.5 -22.833 -15.5 -37.5s5.16699 -27.167 15.5 -37.5s22.833 -15.5 37.5 -15.5z" />
    <glyph glyph-name="uniF1AC" unicode="&#xf1ac;" horiz-adv-x="384" 
d="M192 405c37.333 0 72.501 -7.5 105.501 -22.5s61.833 -35.833 86.5 -62.5l-192 -341l-192 341c24 26.667 52.667 47.5 86 62.5s68.666 22.5 105.999 22.5zM85.001 298.5c0 -11.667 4.16699 -21.667 12.5 -30s18.333 -12.5 30 -12.5s21.667 4.16699 30 12.5
s12.5 18.333 12.5 30s-4.16699 21.667 -12.5 30s-18.333 12.5 -30 12.5s-21.667 -4.16699 -30 -12.5s-12.5 -18.333 -12.5 -30zM191.501 128c11.667 0 21.667 4.16699 30 12.5s12.5 18.333 12.5 30s-4.16699 21.667 -12.5 30s-18.333 12.5 -30 12.5
s-21.667 -4.16699 -30 -12.5s-12.5 -18.333 -12.5 -30s4.16699 -21.667 12.5 -30s18.333 -12.5 30 -12.5z" />
    <glyph glyph-name="uniF1AD" unicode="&#xf1ad;" horiz-adv-x="428" 
d="M336 192l85.999 -85c4 -4.66699 6 -9.83398 6 -15.501s-2 -10.5 -6 -14.5l-93 -93c-4 -4 -9 -6 -15 -6s-11 2 -15 6l-85 85l-85 -85c-4 -4 -9 -6 -15 -6s-11 2 -15 6l-93 93c-4 4 -6 8.83301 -6 14.5s2 10.834 6 15.501l85 85l-85 84c-4 4.66699 -6 9.83398 -6 15.501
s2 10.834 6 15.501l93 92c4 4 8.83301 6 14.5 6s10.834 -2 15.501 -6l85 -85l85 85c4 4 9 6 15 6s11 -2 15 -6l92 -92c4.66699 -4.66699 7 -9.83398 7 -15.501s-2.33301 -10.834 -7 -15.501zM213.999 256c-6 0 -11 -2.16699 -15 -6.5s-6 -9.33301 -6 -15s2 -10.667 6 -15
s9 -6.5 15 -6.5s11.167 2.16699 15.5 6.5s6.5 9.33301 6.5 15s-2.16699 10.667 -6.5 15s-9.5 6.5 -15.5 6.5zM113.999 214l77 78l-77 77l-78 -78zM171.499 171c5.66699 0 10.667 2 15 6s6.5 9 6.5 15s-2.16699 11 -6.5 15s-9.33301 6 -15 6s-10.667 -2 -15 -6
s-6.5 -9 -6.5 -15s2.16699 -11 6.5 -15s9.33301 -6 15 -6zM213.999 128c6 0 11.167 2.16699 15.5 6.5s6.5 9.33301 6.5 15s-2.16699 10.667 -6.5 15s-9.5 6.5 -15.5 6.5s-11 -2.16699 -15 -6.5s-6 -9.33301 -6 -15s2 -10.667 6 -15s9 -6.5 15 -6.5zM256.999 213
c-6 0 -11 -2 -15 -6s-6 -9 -6 -15s2 -11 6 -15s9 -6 15 -6s11 2 15 6s6 9 6 15s-2 11 -6 15s-9 6 -15 6zM313.999 14l77 78l-77 77l-78 -78z" />
    <glyph glyph-name="uniF1AE" unicode="&#xf1ae;" horiz-adv-x="341" 
d="M64 -64v43h43v-43h-43zM149 -64v43h43v-43h-43zM192 405v-213h-43v213h43zM268 353c22.667 -15.333 40.5 -35.332 53.5 -59.999s19.5 -51.334 19.5 -80.001c0 -46.667 -16.667 -86.667 -50 -120s-73.5 -50 -120.5 -50s-87.167 16.667 -120.5 50s-50 73.333 -50 120
c0 28.667 6.5 55.334 19.5 80.001s30.833 44.667 53.5 60l31 -30c-18.667 -12 -33.5 -27.667 -44.5 -47s-16.5 -40.333 -16.5 -63c0 -35.333 12.5 -65.5 37.5 -90.5s55.167 -37.5 90.5 -37.5s65.5 12.5 90.5 37.5s37.5 55.167 37.5 90.5c0 22.667 -5.66699 43.667 -17 63
s-26.333 34.666 -45 45.999zM235 -63.999v43h42v-43h-42z" />
    <glyph glyph-name="uniF1AF" unicode="&#xf1af;" horiz-adv-x="384" 
d="M213 384v-213h-42v213h42zM316 338c45.333 -38.667 67.998 -87.333 67.998 -146c0 -53.333 -18.667 -98.666 -56 -135.999s-82.666 -56 -135.999 -56s-98.666 18.667 -135.999 56s-56 82.666 -56 135.999c0 58.667 22.667 107.334 68 146.001l30 -30
c-36.667 -30 -55 -68.667 -55 -116c0 -41.333 14.5 -76.5 43.5 -105.5s64.167 -43.5 105.5 -43.5s76.5 14.5 105.5 43.5s43.5 64.167 43.5 105.5c0 47.333 -18.333 85.666 -55 114.999z" />
    <glyph glyph-name="uniF1B0" unicode="&#xf1b0;" 
d="M363 277c17.333 0 32.333 -6.16699 45 -18.5s19 -27.5 19 -45.5v-128h-86v-85h-256v85h-85v128c0 18 6.16699 33.167 18.5 45.5s27.5 18.5 45.5 18.5h299zM299 43v106h-171v-106h171zM362.5 192c5.66699 0 10.667 2.16699 15 6.5s6.5 9.33301 6.5 15
s-2.16699 10.667 -6.5 15s-9.33301 6.5 -15 6.5s-10.667 -2.16699 -15 -6.5s-6.5 -9.33301 -6.5 -15s2.16699 -10.667 6.5 -15s9.33301 -6.5 15 -6.5zM341 384v-85h-256v85h256z" />
    <glyph glyph-name="uniF1B1" unicode="&#xf1b1;" horiz-adv-x="448" 
d="M395 213c14.667 0 27.166 -5.16699 37.499 -15.5s15.5 -22.833 15.5 -37.5s-5.16699 -27.167 -15.5 -37.5s-22.833 -15.5 -37.5 -15.5h-32v-86c0 -11.333 -4.16699 -21.166 -12.5 -29.499s-18.5 -12.5 -30.5 -12.5h-81v32c0 16 -5.66699 29.5 -17 40.5s-25 16.5 -41 16.5
s-29.5 -5.5 -40.5 -16.5s-16.5 -24.5 -16.5 -40.5v-32h-81c-12 0 -22.167 4.16699 -30.5 12.5s-12.5 18.166 -12.5 29.499v81h32c16 0 29.667 5.66699 41 17s17 25 17 41s-5.66699 29.667 -17 41s-25 17 -41 17h-32v81c0 11.333 4.16699 21.166 12.5 29.499
s18.5 12.5 30.5 12.5h85v32c0 14.667 5.16699 27.334 15.5 38.001s22.833 16 37.5 16s27.334 -5.33301 38.001 -16s16 -23.334 16 -38.001v-32h85c12 0 22.167 -4.16699 30.5 -12.5s12.5 -18.166 12.5 -29.499v-86h32z" />
    <glyph glyph-name="uniF1B2" unicode="&#xf1b2;" horiz-adv-x="299" 
d="M21 85l43 86h-64v128h128v-128l-43 -86h-64zM192 85l43 86h-64v128h128v-128l-43 -86h-64z" />
    <glyph glyph-name="uniF1B3" unicode="&#xf1b3;" horiz-adv-x="341" 
d="M0 117l0.00292969 224c0 18 4.16699 33 12.5 45s21 20.833 38 26.5s34.667 9.5 53 11.5s40.666 3 66.999 3s48.666 -1 66.999 -3s36 -5.83301 53 -11.5s29.667 -14.5 38 -26.5s12.5 -27 12.5 -45v-224c0 -20.667 -7.16699 -38.167 -21.5 -52.5s-31.833 -21.5 -52.5 -21.5
l32 -32v-11h-256v11l32 32c-20.667 0 -38.334 7.16699 -53.001 21.5s-22 31.833 -22 52.5zM170.503 85c11.667 0 21.667 4.16699 30 12.5s12.5 18.5 12.5 30.5s-4.16699 22.167 -12.5 30.5s-18.333 12.5 -30 12.5s-21.667 -4.16699 -30 -12.5s-12.5 -18.5 -12.5 -30.5
s4.16699 -22.167 12.5 -30.5s18.333 -12.5 30 -12.5zM299.003 235v106h-256v-106h256z" />
    <glyph glyph-name="uniF1B4" unicode="&#xf1b4;" horiz-adv-x="384" 
d="M320 85v43h-256v-43h256zM320 171v42h-256v-42h256zM320 256v43h-256v-43h256zM0 -21v426l32 -32l32 32l32 -32l32 32l32 -32l32 32l32 -32l32 32l32 -32l32 32l32 -32l32 32v-426l-32 32l-32 -32l-32 32l-32 -32l-32 32l-32 -32l-32 32l-32 -32l-32 32l-32 -32l-32 32z
" />
    <glyph glyph-name="uniF1B5" unicode="&#xf1b5;" horiz-adv-x="469" 
d="M384 277l85 -85.001h-64c0 -47.333 -16.667 -87.666 -50 -120.999s-73.333 -50 -120 -50c-32.667 0 -63 9 -91 27l31 31c18 -10 38 -15 60 -15c35.333 0 65.5 12.5 90.5 37.5s37.5 55.167 37.5 90.5h-64zM107 191.999l64.001 0.000976562l-86 -85l-85 85h64
c0 47.333 16.667 87.666 50 120.999s73.666 50 120.999 50c32.667 0 63 -9 91 -27l-32 -31c-18 10 -37.667 15 -59 15c-35.333 0 -65.5 -12.5 -90.5 -37.5s-37.5 -55.167 -37.5 -90.5z" />
    </font>
</defs>
</svg>
