<svg xmlns="http://www.w3.org/2000/svg" width="177" height="178" viewBox="0 0 177 178"><style>.st0{fill:#fae3f6}.st1{opacity:7e-2}</style><circle class="st0" cx="88.5" cy="88.5" r="88.5"/><g class="st1"><path d="M88.5 133.7l-38.7-22.4V66.6l38.7-22.4 38.7 22.4v44.7l-38.7 22.4zm-37.4-23.1l37.4 21.6 37.4-21.6V67.4L88.5 45.8 51.1 67.4v43.2z"/><path d="M87.8.6h1.3V45h-1.3zm0 132.4h1.3v44.4h-1.3zm39.3-44.7h49.8v1.3h-49.8zm-127 0h50.2v1.3H.1zm12.229-44.101l38.45 22.2-.65 1.125-38.45-22.2zm114.588 66.184l38.45 22.2-.65 1.125-38.45-22.2zm5.216-98.278l1.126.65-24.9 43.127-1.126-.65zM68.848 121.738l1.126.65-25.1 43.473-1.126-.65zm-18.784-11.343l.65 1.126-38.45 22.2-.65-1.126zm114.678-66.124l.65 1.126-38.45 22.2-.65-1.126zM44.924 12.13l24.9 43.128-1.126.65-24.9-43.127zm63.246 109.682l25.1 43.473-1.127.65-25.1-43.473z"/><path d="M50.155 23.498l1.153.6-17.345 33.358-1.153-.6z"/><path d="M50.844 23.118l37.766 1.569-.054 1.298-37.766-1.569zM69.12 54.84l.06 1.298-35.761 1.647-.06-1.299z"/><path d="M87.947 25.072l1.094.701-19.317 30.14-1.095-.701zM50.5 23.223l.618 1.143L12.32 45.331l-.618-1.143z"/><path d="M88.135.079l.68 1.107L51.09 24.403l-.681-1.107zm38.74 23.398l17.348 33.358-1.153.6-17.349-33.359z"/><path d="M126.247 23.139l.054 1.298-37.766 1.57-.054-1.3zm-18.402 31.736l35.76 1.645-.06 1.298-35.76-1.645z"/><path d="M89.087 25.058l19.318 30.14-1.095.702-19.317-30.14zm37.455-1.767l38.8 20.966-.618 1.143-38.8-20.965zM88.811.065l37.726 23.222-.681 1.107L88.13 1.172zM33.283 56.903l1.096.699-20.217 31.7-1.097-.699z"/><path d="M14.155 88.516l20.242 31.922-1.097.697-20.242-31.923zm20.322-31.601l16.458 31.794-1.155.598-16.457-31.794z"/><path d="M49.697 88.694l1.155.597-16.443 31.8-1.155-.596zM13.028 44.751l1.245 44.082-1.3.037-1.244-44.082zm-.105 44.138l1.3.036-1.246 44.283-1.3-.037zM144.148 56.86l20.217 31.704-1.096.7-20.218-31.705z"/><path d="M163.211 88.553l1.098.696-20.242 31.922-1.098-.696zm-20.208-31.65l1.155.598-16.457 31.794-1.155-.598z"/><path d="M127.786 88.721l16.443 31.802-1.155.597-16.443-31.802zm36.636-43.931l1.3.037-1.245 44.083-1.3-.037zm.046 44.121l1.245 44.282-1.3.037-1.245-44.282zm-130.435 31.61l17.349 33.359-1.153.6-17.35-33.359z"/><path d="M88.477 151.984l.053 1.299-37.766 1.569-.053-1.3zm-55.03-31.81l35.76 1.645-.06 1.298-35.76-1.645z"/><path d="M69.682 122.09L89 152.23l-1.094.702-19.318-30.14zm-57.413 10.517l38.8 20.965-.619 1.144-38.8-20.965zm38.864 21.001L88.86 176.83l-.681 1.107-37.726-23.222zm91.818-33.123l1.154.6-17.345 33.358-1.153-.6z"/><path d="M88.542 151.912l37.766 1.569-.054 1.299-37.766-1.57zm55.048-31.806l.059 1.298-35.76 1.645-.06-1.298z"/><path d="M107.288 122.078l1.094.702-19.317 30.14-1.095-.702zm57.482 10.547l.618 1.143-38.8 20.965-.617-1.143z"/><path d="M125.92 153.583l.68 1.107-37.725 23.217-.682-1.107z"/></g></svg>