<svg xmlns="http://www.w3.org/2000/svg" width="84.4" height="109.3" viewBox="0 0 84.4 109.3"><style>.st0{fill:#d463c1}</style><path class="st0" d="M54.9 28.1l4.2-15c.1-.3 0-.6-.1-.8-.2-.2-.4-.4-.7-.4h-.9l1.5-1.5s0-.1.1-.1l.1-.1v-.7l-.1-.1s0-.1-.1-.1L51.2.4c-.1-.1-.2-.2-.4-.2h-.3l-8.3.1-9.1-.3h-.3c-.1 0-.3.1-.4.2l-6.9 8.9v.1l-.1.1v.7l.1.1s0 .1.1.1L27 12h-.9c-.3 0-.5.1-.7.4-.2.2-.2.5-.1.8l4.2 15C12.4 33.5 0 49.2 0 67.8c0 22.9 18.9 41.5 42.2 41.5 23.3 0 42.2-18.6 42.2-41.5 0-18.6-12.4-34.3-29.5-39.7zm-12.7 79.4c-22.3 0-40.4-17.8-40.4-39.7 0-22 18.1-39.8 40.4-39.8 22.3 0 40.4 17.8 40.4 39.7 0 22-18.1 39.8-40.4 39.8zM28.3 10.7h5.1l5.4 10.7-10.5-10.7zm17 11l5.3-11h5.5l-10.8 11zM33 8.9h-5l4.4-5.7.6 5.7zm1.1-7.1l6.1.1-1.8 1.9-3.7 4-.3-2.9-.3-3.1zm10.1.1l5.4-.1-.3 5.8-4.5-5.1-.6-.6zm4.4 8.8l-6.4 13.4-6.7-13.4h13.1zM36 8.9l6.1-6.6L48 8.9H36zm15 0l.3-5.8 5 5.8H51zm-7.6 17.4l12.2-12.5H57l-3.9 13.9c-3.1-.9-6.3-1.4-9.7-1.4zm-2.4 0c-3.4.1-6.6.6-9.8 1.4l-3.9-13.9h1.4L41 26.3z"/><path class="st0" d="M42.2 31.7C22 31.7 5.5 47.9 5.5 67.8c0 19.9 16.4 36.1 36.7 36.1 20.2 0 36.7-16.2 36.7-36.1-.1-19.9-16.5-36.1-36.7-36.1zm0 70.4C23 102.1 7.3 86.7 7.3 67.8S23 33.5 42.2 33.5s34.9 15.4 34.9 34.3-15.7 34.3-34.9 34.3z"/></svg>