<svg xmlns="http://www.w3.org/2000/svg" width="74" height="95" viewBox="0 0 74 95"><style>.st0{fill:none}.st1{fill:#d463c1}</style><path class="st0" d="M41.8 45.8h-.2c-1.4-.2-2.9-.5-4.6-.5-1.9 0-3.4.3-4.8.5H32c-5.4 3-10.3 11.1-13 22.4-1.5 6.4-.3 12.8 3.5 17.8 3.5 4.5 8.6 7.1 14.5 7.3 5.8-.1 11-2.7 14.5-7.3 3.8-4.9 5.1-11.4 3.5-17.8-2.7-11.3-7.6-19.4-13.2-22.4zm-12.9-3.1c-.3.5-.4.9-.2 1.1.1.2.2.5 1 .5.6 0 1.4-.1 2.4-.3 1.4-.2 3-.5 4.9-.5 2 0 3.7.3 5.1.5.9.2 1.7.3 2.4.3.8 0 .9-.2 1-.4.2-.3.1-.7-.2-1.2-1-1.7-4.1-3.4-8.1-3.4-4.2 0-7.3 1.7-8.3 3.4z"/><path class="st1" d="M35.8 32.2l.1-.1-.1-.1v.2zm2.7 0v-.4l-.2.2c.1.1.1.2.2.2zm-8.2-3.3c-.8-.2-1.6.1-2.4.6-.5-.8-1-1.5-1.7-1.7-.8-.3-1.8 0-2.8.3-.4-1-.8-1.8-1.6-2.3-.7-.4-1.6-.3-2.5-.1-.2-.9-.5-1.7-1.2-2.2-.7-.5-1.7-.5-2.8-.5-.1-1-.2-2-.9-2.6-.6-.6-1.4-.7-2.3-.8 0-.9 0-1.8-.5-2.5s-1.5-1-2.5-1.2c.2-1 .3-1.9-.1-2.7-.4-.7-1.1-1.1-1.9-1.4.3-.9.5-1.8.2-2.6s-1.1-1.4-2-1.8c.5-.9.8-1.7.6-2.6-.2-.8-.8-1.4-1.5-1.9.6-.8 1-1.6 1-2.5L3.7.6c0 .3-.3.8-.7 1.3-.6-.5-1.2-1-1.3-1.3L0 .7c.1 1.1 1 1.8 1.9 2.5C1.3 4.1.7 5.1.9 6c.2.9 1 1.5 1.9 2-.5 1-.9 2-.6 2.9.4 1 1.4 1.5 2.6 1.9-.4 1.1-.7 2.1-.2 3 .5.8 1.4 1.2 2.4 1.4-.2 1.1-.3 2.1.3 2.9.6.9 1.8 1 3 1.1-.1 1.2-.1 2.3.7 3 .7.7 1.7.7 2.7.7.1 1.1.3 2.1 1.1 2.7.9.6 2 .5 3.1.2.2 1.2.6 2.2 1.5 2.7.8.5 1.8.2 2.8-.1.4 1 .9 1.9 1.8 2.2 1 .4 2-.1 3-.7.6 1.1 1.2 2 2.2 2.2 1 .2 1.8-.3 2.7-1 .6.7 1.2 1.3 2 1.5v-4.9c-.6.2-1.1.5-1.6.9-.5-.7-1.1-1.5-2-1.7zM74 .4L72.3.3c0 .3-.6.8-1.2 1.2-.4-.5-.8-1.1-.7-1.4L68.6 0c-.1.9.5 1.7 1.1 2.5-.7.6-1.4 1.2-1.5 2-.2.8.1 1.6.6 2.4-.9.5-1.7 1-2 1.9-.3.8-.1 1.8.3 2.7-.8.3-1.6.8-2 1.5-.4.7-.3 1.6-.1 2.5-1 .2-2 .5-2.5 1.2s-.6 1.7-.5 2.6c-.9.1-1.7.3-2.3.8-.6.6-.8 1.5-.8 2.4-1-.1-2-.1-2.8.5-.7.5-1 1.4-1.2 2.4-.9-.2-1.7-.2-2.4.2s-1.2 1.2-1.5 2.2c-1-.4-1.9-.6-2.8-.3-.8.3-1.3 1-1.8 1.9-.8-.4-1.6-.7-2.4-.5-.8.2-1.5.9-2.1 1.7-.5-.4-1.1-.8-1.7-.9v5.1c.8-.2 1.4-.9 2-1.7.8.6 1.7 1.1 2.6.9 1-.2 1.6-1.1 2.2-2.1 1 .6 2.1 1.1 3.1.7.9-.4 1.4-1.3 1.8-2.4 1 .4 2 .5 2.8.1.9-.5 1.2-1.5 1.4-2.6 1.2.3 2.3.4 3.2-.2.8-.6 1-1.7 1.1-2.8 1.1.1 2 0 2.7-.7.7-.7.7-1.8.7-2.9 1.2-.1 2.3-.2 3-1.1.6-.8.5-1.9.2-3.1 1-.2 2-.6 2.4-1.4.5-.9.2-1.9-.2-2.9 1.1-.4 2.1-.9 2.5-1.9.4-1-.1-2-.7-3 .9-.5 1.8-1.1 2-2.1.2-.9-.3-1.8-.9-2.7 1-.7 1.8-1.5 1.9-2.5z"/><path class="st1" d="M56.7 67.7c-2-8.4-5.9-17.2-11.4-21.8.8-.2 1.3-.6 1.6-1.3.4-.8.3-1.8-.3-2.8-.9-1.5-3.2-3.1-6.3-3.8v-9.5c0-1.2-1.2-2-3.1-2-1.9 0-3.1.8-3.1 2v9.4c-3.3.7-5.7 2.3-6.6 3.9-.6 1-.7 2-.3 2.8.3.7.8 1.2 1.6 1.4-5.5 4.6-9.4 13.4-11.4 21.8-1.8 6.8-.4 13.8 3.7 19.2 3.8 5 9.5 7.8 15.8 8 6.4-.1 12-3 15.8-8 4.3-5.4 5.7-12.4 4-19.3zM37.2 28.3c.8 0 1.3.2 1.4.2v9.2c-.5 0-1-.1-1.5-.1-.4 0-.8 0-1.2.1v-8.9c0-.3.5-.5 1.3-.5zm-8.5 15.5c-.1-.3 0-.7.2-1.1 1-1.7 4.1-3.4 8.1-3.4 3.9 0 7 1.7 8.1 3.4.3.5.4.9.2 1.2-.1.2-.2.4-1 .4-.6 0-1.4-.1-2.4-.3-1.4-.2-3-.5-5.1-.5-1.9 0-3.6.3-4.9.5-.9.2-1.7.3-2.4.3s-.7-.2-.8-.5zm22.8 42.1C48 90.5 42.9 93 37 93.2c-5.8-.1-11-2.7-14.5-7.3-3.8-4.9-5.1-11.4-3.5-17.7 2.7-11.2 7.6-19.3 13.2-22.4h.2c1.4-.2 2.9-.5 4.8-.5 1.7 0 3.3.3 4.6.5h.2c5.5 3.1 10.4 11.2 13.1 22.4 1.4 6.3.1 12.8-3.6 17.7z"/></svg>