<svg xmlns="http://www.w3.org/2000/svg" width="64.3" height="114.2" viewBox="0 0 64.3 114.2"><style>.st0{fill:#d463c1}</style><path class="st0" d="M32.2 30.2c-1.7 0-3.1-1.4-3.1-3v-3.3c0-1.7 1.4-3 3-3 1.7 0 3.1 1.4 3.1 3v3.3c0 1.7-1.4 3-3 3zm0-7.5c-.7 0-1.2.5-1.2 1.2v3.3c0 .6.5 1.2 1.2 1.2.6 0 1.2-.5 1.2-1.2v-3.3c-.1-.7-.6-1.2-1.2-1.2z"/><path class="st0" d="M32.1 38.8c-2.6 0-4.7-2.1-4.7-4.7s2.1-4.7 4.7-4.7 4.7 2.1 4.7 4.7c.1 2.6-2 4.7-4.7 4.7zm0-7.6c-1.6 0-2.9 1.3-2.9 2.9 0 1.6 1.3 2.9 2.9 2.9 1.6 0 2.9-1.3 2.9-2.9 0-1.6-1.3-2.9-2.9-2.9zM7.2 48l-.5-1.8.3.9-.3-.9c.3-.1 8.4-2.7 7.4-15.1-.6-6.8-1.4-29.2 11.1-30.9 4.4-.6 7.8.2 10.1 2.3 2.1 2 3.1 5.2 2.7 9-.3 3.7-2.1 6-3.5 7.6-.8 1-1.5 1.8-1.4 2.5l-1.8.3c-.3-1.4.6-2.6 1.7-3.9 1.2-1.5 2.8-3.5 3.1-6.6.2-1.9.1-5.4-2.2-7.5-1.8-1.7-4.7-2.3-8.5-1.8-8.6 1.2-10.6 15.7-9.5 28.9 1.2 13.9-8.6 17-8.7 17z"/><path class="st0" d="M32.1 102.1c-12 0-21.8-9.8-21.8-21.8C10.4 68.4 20 38 32.1 38c12.1 0 21.7 30.4 21.7 42.3.1 12-9.7 21.8-21.7 21.8zm0-62.2c-10.9 0-19.9 29.4-19.9 40.4s8.9 19.9 19.9 19.9c11 0 19.9-8.9 19.9-19.9 0-11.1-9-40.4-19.9-40.4z"/><path class="st0" d="M32.1 96.5c-8.9 0-16.1-7.2-16.1-16.1 0-12.6 9.7-36.7 16.1-36.7 6.5 0 16.1 24.1 16.1 36.7.1 8.8-7.1 16.1-16.1 16.1zm0-51c-4.4 0-14.3 22.2-14.3 34.8 0 7.9 6.4 14.3 14.3 14.3s14.3-6.4 14.3-14.3c0-12.6-9.8-34.8-14.3-34.8zM7 96.5c-3.9 0-7-3.1-7-7s3.1-7 7-7 7 3.1 7 7c0 3.8-3.1 7-7 7zm0-12.2c-2.8 0-5.1 2.3-5.1 5.1s2.3 5.1 5.1 5.1 5.1-2.3 5.1-5.1-2.3-5.1-5.1-5.1zm50.3 12.2c-3.9 0-7-3.1-7-7s3.1-7 7-7 7 3.1 7 7c0 3.8-3.1 7-7 7zm0-12.2c-2.8 0-5.1 2.3-5.1 5.1s2.3 5.1 5.1 5.1 5.1-2.3 5.1-5.1-2.3-5.1-5.1-5.1zm-9.1 24.8c-3.9 0-7-3.1-7-7s3.1-7 7-7 7 3.1 7 7-3.2 7-7 7zm0-12.1c-2.8 0-5.1 2.3-5.1 5.1s2.3 5.1 5.1 5.1 5.1-2.3 5.1-5.1S51 97 48.2 97zm-32.1 12.1c-3.9 0-7-3.1-7-7s3.1-7 7-7 7 3.1 7 7-3.1 7-7 7zm0-12.1c-2.8 0-5.1 2.3-5.1 5.1s2.3 5.1 5.1 5.1 5.1-2.3 5.1-5.1c.1-2.8-2.2-5.1-5.1-5.1zm16 17.2c-3.9 0-7-3.1-7-7s3.1-7 7-7 7 3.1 7 7c.1 3.9-3.1 7-7 7zm0-12.1c-2.8 0-5.1 2.3-5.1 5.1s2.3 5.1 5.1 5.1 5.1-2.3 5.1-5.1-2.2-5.1-5.1-5.1z"/></svg>