<svg xmlns="http://www.w3.org/2000/svg" width="100" height="94.4" viewBox="0 0 100 94.4"><style>.st0{fill:#b8b8b8}</style><path class="st0" d="M58.6 0c-1.7-.2-3.2 1.1-3.3 2.7v28.9c0 1.6 1.2 2.8 2.7 3 11 1.1 21 4.5 28.4 9.6-8.4 7-22.1 11.2-36.4 11.2-14.2 0-28-4.3-36.3-11.2 7.4-5.1 17.4-8.5 28.4-9.6 1.6-.2 2.7-1.4 2.7-3V2.7c-.2-1.6-1.6-2.9-3.3-2.7C17.4 2.6 0 15.4 0 30.5v32.9c0 1.1.1 2.2.3 3.2 1.4 8.2 7.8 15.6 18.2 20.8 1.8.9 3.8 1.8 5.7 2.5l.2.1c1.3.5 2.7.9 4 1.3l.5.1c.6.2 1.1.3 1.7.5l.4.1c.6.2 1.3.3 1.9.5.5.1 1.1.2 1.7.4l1.7.3c1.2.2 2.4.4 3.7.6l.6.1c1.5.2 2.9.3 4.3.4h1.4c1.2.1 2.5.1 3.7.1 1.2 0 2.5 0 3.7-.1h1.4c1.4-.1 2.8-.2 4.3-.4l.6-.1c1.2-.2 2.5-.3 3.7-.6l1.8-.3c.5-.1 1-.2 1.6-.3.6-.1 1.3-.3 2-.5l.2-.1c.6-.1 1.1-.3 1.7-.5l.5-.1c1.3-.4 2.7-.8 4-1.3l.2-.1c2-.7 3.9-1.6 5.9-2.6 10.1-5.1 16.4-12.2 18-20.3l.1-.5c.2-1.1.3-2.2.3-3.2V30.5C100 15.4 82.6 2.6 58.6 0zM75 83.2c-1.3.5-2.6.9-3.9 1.3l-.5.1c-.5.2-1.1.3-1.7.5l-.4.1c-.6.2-1.2.3-1.8.4-.5.1-1 .2-1.7.3l-1.7.3c-1.2.2-2.4.4-3.6.5l-.6.1c-1.5.2-2.9.3-4.2.4h-1.4c-2.4.1-4.8.1-7.2 0h-1.4c-1.3-.1-2.7-.2-4.2-.4l-.6-.1c-1.2-.2-2.4-.3-3.6-.5l-1.6-.2c-.5-.1-1.1-.2-1.6-.3-.6-.1-1.2-.3-1.8-.4l-.4-.1c-.6-.1-1.1-.3-1.7-.5l-.4-.2c-1.3-.4-2.6-.8-3.9-1.3l-.2-.1c-1.9-.7-3.8-1.5-5.7-2.5C9.4 75.7 3 68.8 1.7 61.2V43.6c2.7 6.2 8.4 11.7 16.7 15.9 1.8.9 3.8 1.8 5.7 2.5l.2.1c1.3.5 2.7.9 4 1.3l.5.1c.6.2 1.1.3 1.7.5l.4.1c.6.2 1.3.3 1.9.5.5.1 1.1.2 1.7.4l1.7.3c1.2.2 2.4.4 3.7.6l.6.1c1.5.2 2.9.3 4.3.4h1.4c1.2.1 2.5.1 3.7.1 1.2 0 2.5 0 3.7-.1H55c1.4-.1 2.8-.2 4.3-.4l.6-.1c1.2-.2 2.5-.3 3.7-.6l1.8-.3c.5-.1 1-.2 1.6-.3.6-.1 1.3-.3 2-.5l.2-.1c.6-.1 1.1-.3 1.7-.5l.5-.1c1.3-.4 2.7-.8 4-1.3l.2-.1c2-.7 3.9-1.6 5.9-2.6 8.2-4.1 13.9-9.7 16.6-15.8v17.6c-1.3 7.6-7.6 14.5-17.5 19.5-1.8.9-3.6 1.7-5.6 2.4zM41.9 32.9C30.4 34 20 37.6 12.3 43.1c-.2-.2-.4-.4-.6-.5l-.7-.7c-.3-.3-.5-.6-.7-.8-.2-.2-.4-.5-.6-.7l-.6-.9c-.1-.3-.3-.5-.4-.8-.2-.3-.4-.6-.5-.9-.1-.2-.3-.5-.4-.7-.2-.3-.3-.6-.4-.9-.2-.2-.3-.5-.4-.7-.1-.3-.2-.7-.3-1-.1-.2-.1-.4-.2-.7-.1-.4-.2-.7-.2-1.1 0-.2-.1-.4-.1-.5-.1-.6-.1-1.1-.1-1.7 0-.7.1-1.5.2-2.2.1-.5.2-1 .3-1.4.1-.2.1-.5.2-.7C10 16.3 24.1 8 42.1 6.1c.3 0 .7-.1 1-.3v25.8c0 .7-.5 1.2-1.2 1.3zm1.2-29.8c0 .6-.5 1.2-1.2 1.3C20.5 6.7 4.3 17.9 4.3 30.5c0 5 2.5 10 7.3 14.3 8.5 7.6 23.2 12.3 38.3 12.3 15.2 0 29.9-4.7 38.3-12.3 4.8-4.3 7.3-9.3 7.3-14.3 0-12.6-16.2-23.9-37.6-26.2-.7-.1-1.2-.6-1.2-1.3 0-.7.6-1.3 1.4-1.3C81.2 4.2 98 16.3 98 30.5c0 5.6-2.7 11.1-7.7 15.8-9 8.4-24.1 13.4-40.5 13.4s-31.6-5-40.5-13.4c-5.1-4.7-7.7-10.2-7.7-15.8 0-14.2 16.8-26.3 40-28.8.9 0 1.5.6 1.5 1.4zm13.8 28.5V5.8c.3.1.6.2 1 .3 18 2 32 10.2 35.3 20.1.1.2.1.5.2.7.1.5.3 1 .4 1.4.1.7.2 1.5.2 2.2 0 .6 0 1.1-.1 1.7 0 .2-.1.4-.1.5-.1.4-.1.7-.2 1.1-.1.2-.1.4-.2.6-.1.3-.2.7-.3 1-.1.2-.2.5-.3.7-.1.3-.3.6-.4.9-.1.2-.3.5-.4.7-.2.3-.3.6-.5.9-.2.2-.3.5-.5.7l-.6.9c-.2.2-.4.5-.6.7-.2.3-.5.6-.7.8-.2.2-.4.5-.7.7-.2.2-.4.4-.6.5-7.6-5.4-18.1-9-29.6-10.2-.8.1-1.3-.4-1.3-1.1zm36.8 14c.2-.2.4-.5.6-.7.4-.5.8-.9 1.2-1.4l.6-.9c.3-.4.6-.9.9-1.3.2-.3.3-.6.5-.9l.3-.6c-1.7 7.1-7.7 13.5-17 18.2-1.8.9-3.6 1.7-5.6 2.4l-.2.1c-1.3.5-2.6.9-3.9 1.3l-.5.1c-.5.2-1.1.3-1.7.5l-.4.1c-.6.2-1.2.3-1.8.4-.5.1-1 .2-1.7.3l-1.7.3c-1.2.2-2.4.4-3.6.5l-.6.1c-1.5.2-2.9.3-4.2.4h-1.4c-2.4.1-4.8.1-7.2 0h-1.4c-1.3-.1-2.7-.2-4.2-.4l-.6-.1c-1.2-.2-2.4-.3-3.6-.5l-1.7-.3c-.5-.1-1.1-.2-1.6-.3-.6-.1-1.2-.3-1.8-.4l-.4-.1c-.6-.1-1.1-.3-1.7-.5l-.3-.1c-1.3-.4-2.6-.8-3.9-1.3l-.2-.1c-1.9-.7-3.8-1.5-5.7-2.5C9.9 53.3 4 46.9 2.3 39.8l.3.6c.2.3.3.6.5.9.3.5.6.9.9 1.4.2.3.4.6.6.8.4.5.8 1 1.2 1.4.2.2.4.5.6.7.6.7 1.3 1.4 2 2 9.3 8.7 24.9 13.9 41.7 13.9s32.4-5.2 41.7-13.9c.6-.6 1.3-1.3 1.9-2zM75 88.4c-1.3.5-2.6.9-3.9 1.3l-.5.1c-.5.2-1.1.3-1.7.5l-.4.1c-.6.2-1.2.3-1.8.4-.5.1-1 .2-1.7.3l-1.7.3c-1.2.2-2.4.4-3.6.5l-.6.1c-1.5.2-2.9.3-4.2.4h-1.4c-2.4.1-4.8.1-7.2 0h-1.4c-1.3-.1-2.7-.2-4.2-.4l-.6-.1c-1.2-.2-2.4-.3-3.6-.5l-1.7-.3c-.5-.1-1.1-.2-1.6-.3-.6-.1-1.2-.3-1.8-.4l-.4-.1c-.6-.1-1.1-.3-1.7-.5l-.3-.1c-1.3-.4-2.6-.8-3.9-1.3 0 0-4-1.6-5.9-2.5-9.4-4.8-15.4-11.3-17-18.6 2.9 5.8 8.4 11 16.3 15 1.8.9 3.8 1.8 5.7 2.5l.2.1c1.3.5 2.7.9 4 1.3l.5.1c.6.2 1.1.3 1.7.5l.4.1c.6.2 1.3.3 1.9.5.5.1 1.1.2 1.7.4l1.7.3c1.2.2 2.4.4 3.7.6l.6.1c1.5.2 2.9.3 4.3.4h1.4c1.2.1 2.5.1 3.7.1 1.2 0 2.5 0 3.7-.1h1.4c1.4-.1 2.8-.2 4.3-.4l.6-.1c1.2-.2 2.5-.3 3.7-.6l1.8-.3c.5-.1 1-.2 1.6-.3.6-.1 1.3-.3 2-.5l.2-.1c.6-.1 1.1-.3 1.7-.5l.5-.1c1.3-.4 2.7-.8 4-1.3l.2-.1c2-.7 3.9-1.6 5.9-2.6 7.8-3.9 13.3-9.1 16.2-14.9-1.6 7.3-7.6 13.8-17.1 18.6-1.8.9-3.6 1.7-5.6 2.4H75z"/></svg>