<svg xmlns="http://www.w3.org/2000/svg" width="30.2" height="48.8" viewBox="0 0 30.2 48.8"><style>.st0{fill:none;stroke:#d463c1;stroke-miterlimit:10}</style><path class="st0" d="M29.2 25.5c-.7-1.4-2.6-2.5-5.2-.5-3.4 2.7-9 2.7-9 2.7s-5.5 0-9-2.7c-2.6-2-4.5-.9-5.2.5-1.2 2.4.2 3.6 3.2 5.6 2.6 1.7 6.2 2.3 8.6 2.6l-1.9 1.9-7.2 7.2c-1.1 1.1-1.1 2.9 0 4l.3.5c.5.5 1.3 1 2 1s1.4-.4 2-1L15 40l7.2 7.2c1.1 1.1 2.9 1.1 4 0l.3-.3c1.1-1.1 1.1-2.9 0-4l-7.2-7.2-2-2c2.3-.2 5.9-.9 8.5-2.6 3.3-2 4.6-3.1 3.4-5.6zM15.1 5.7c3.3 0 6 2.7 6 6s-2.7 6-6 6-6-2.7-6-6c-.1-3.3 2.6-6 6-6zm0 18.3c6.8 0 12.3-5.5 12.3-12.3 0-6.8-5.5-12.3-12.3-12.3C8.3-.5 2.8 5 2.8 11.8 2.8 18.6 8.3 24 15.1 24z"/></svg>