<svg xmlns="http://www.w3.org/2000/svg" width="29.2" height="48.8" viewBox="0 0 29.2 48.8"><style>.st0{fill:#fff}</style><path class="st0" d="M28.7 26c-.7-1.4-2.6-2.5-5.2-.5-3.4 2.7-9 2.7-9 2.7s-5.5 0-9-2.7c-2.6-2-4.5-.9-5.2.5-1.2 2.4.2 3.6 3.2 5.6 2.6 1.7 6.2 2.3 8.6 2.6l-1.9 1.9L3 43.3c-1.1 1.1-1.1 2.9 0 4l.3.5c.5.5 1.3 1 2 1s1.4-.4 2-1l7.2-7.3 7.2 7.2c1.1 1.1 2.9 1.1 4 0l.3-.3c1.1-1.1 1.1-2.9 0-4l-7.2-7.2-2-2c2.3-.2 5.9-.9 8.5-2.6 3.3-2 4.6-3.1 3.4-5.6zM14.6 6.2c3.3 0 6 2.7 6 6s-2.7 6-6 6-6-2.7-6-6c-.1-3.3 2.6-6 6-6zm0 18.3c6.8 0 12.3-5.5 12.3-12.3C26.9 5.5 21.4 0 14.6 0 7.8 0 2.3 5.5 2.3 12.3c0 6.8 5.5 12.2 12.3 12.2z"/></svg>