<svg xmlns="http://www.w3.org/2000/svg" width="58.7" height="34.9" viewBox="0 0 58.7 34.9"><style>.st0{fill:none;stroke:#d463c1;stroke-miterlimit:10}</style><path class="st0" d="M28.7 34.4h3.4s1-.7 1.6-1.3c.5-.5.5-1.8.5-1.8s-.1-4.8 2.1-5.5c2.1-.7 4.8 4.4 7.7 6.4 2.2 1.5 3.8 1.1 3.8 1.1l7.7-.1s4-.3 2.1-3.4c-.2-.3-1.1-2.3-5.7-6.6-4.8-4.5-4.2-3.8 1.6-11.5C57 7 58.5 4.1 58 2.9c-.4-1.2-3-.9-3-.9l-8.7.1s-.6-.1-1.1.2c-.5.3-.8.9-.8.9S43 6.9 41.2 10c-3.9 6.6-5.4 6.9-6 6.5-1.5-.9-1.1-3.8-1.1-5.8 0-6.4 1-9-1.9-9.7-.9-.2-1.6-.4-4-.4-3.1 0-5.7 0-7.2.7-1 .5-1.7 1.6-1.3 1.6.6.1 1.9.4 2.6 1.3.9 1.2.9 3.9.9 3.9s.5 7.5-1.2 8.4c-1.2.6-2.8-.7-6.2-6.6-1.8-3-3.1-6.4-3.1-6.4s-.3-.6-.7-1c-.6-.4-1.4-.5-1.4-.5H2.4s-1.2 0-1.7.6C.3 3.1.7 4 .7 4s6.5 15.7 13.8 23.3c6.6 7 14.2 7.1 14.2 7.1z"/></svg>