<svg xmlns="http://www.w3.org/2000/svg" width="45.9" height="59.5" viewBox="0 0 45.9 59.5"><style>.st0{fill:none;stroke:#d463c1;stroke-miterlimit:10}</style><path class="st0" d="M11.6 50h-6L.5 43.1c0-6.4 13.3-12 16.9-12.6 1.1-.2 1.1-3.1 1.1-3.1s-3.3-3.1-4-7.4c-1.9 0-3.1-4.5-1.2-6.1C13.2 12.2 10.8.6 22.9.6c12 0 9.6 11.6 9.6 13.3 1.9 1.6.7 6.2-1.2 6.2-.7 4.3-4 7.5-4 7.5s0 .8.2 1.5c.2.8.4 1.6 1 1.7 3.6.6 16.9 6.1 16.9 12.4l-5 6.9h-6.8"/><path class="st0" d="M30.1 53h-6v4.4c0 .5.5 1.6-.1 1.6h-3.5c-.5 0-.4-1.1-.4-1.6V53h-6.3c-.5 0-.7-.7-.7-1.2v-2.1c0-.5 2-.6 2.5-.6h4.5v-5.7c0-.5.8-.3 1.3-.3h2.1c.5 0 .6-.3.6.3V49h6c1 0 1 4 0 4z"/></svg>