<svg xmlns="http://www.w3.org/2000/svg" width="44.9" height="58.5" viewBox="0 0 44.9 58.5"><style>.st0{fill:#fff}</style><path class="st0" d="M11.1 49.5h-6L0 42.6c0-6.4 13.3-12 16.9-12.6 1.1-.2 1.1-3.1 1.1-3.1s-3.3-3.1-4-7.4c-1.9 0-3.1-4.5-1.2-6.1 0-1.8-2.4-13.4 9.6-13.4S32 11.6 32 13.3c1.9 1.6.7 6.2-1.2 6.2-.7 4.3-4 7.5-4 7.5s0 .8.2 1.5c.2.8.4 1.6 1 1.7 3.6.6 16.9 6.1 16.9 12.4l-5 6.9h-6.8"/><path class="st0" d="M29.6 52.5h-6v4.4c0 .5.5 1.6-.1 1.6H20c-.5 0-.4-1.1-.4-1.6v-4.4h-6.3c-.5 0-.7-.7-.7-1.2v-2.1c0-.5 2-.6 2.5-.6h4.5v-5.7c0-.5.8-.3 1.3-.3H23c.5 0 .6-.3.6.3v5.7h6c1-.1 1 3.9 0 3.9z"/></svg>