<svg xmlns="http://www.w3.org/2000/svg" width="57.7" height="33.9" viewBox="0 0 57.7 33.9"><style>.st0{fill:#fff}</style><path class="st0" d="M28.2 33.9h3.4s1-.7 1.6-1.3c.5-.5.5-1.8.5-1.8s-.1-4.8 2.1-5.5c2.1-.7 4.8 4.4 7.7 6.4 2.2 1.5 3.8 1.1 3.8 1.1l7.7-.1s4-.3 2.1-3.4c-.1-.2-1.1-2.3-5.7-6.6-4.8-4.5-4.2-3.8 1.6-11.5 3.5-4.7 5-7.6 4.5-8.8-.4-1.2-3-.9-3-.9l-8.7.1s-.6-.1-1.1.2c-.4.2-.7.9-.7.9s-1.4 3.7-3.2 6.8c-3.9 6.6-5.4 6.9-6 6.5-1.5-.9-1.1-3.8-1.1-5.8 0-6.4 1-9-1.9-9.7-.9-.2-1.6-.4-4-.4-3.1 0-5.7 0-7.2.7-1 .5-1.7 1.6-1.3 1.6.6.1 1.9.4 2.6 1.3.9 1.2.9 3.9.9 3.9s.5 7.5-1.2 8.4c-1.2.6-2.8-.7-6.2-6.6-1.8-3-3.1-6.4-3.1-6.4s-.3-.6-.7-1c-.6-.4-1.3-.5-1.3-.5H1.9s-1.2 0-1.7.6c-.4.5 0 1.5 0 1.5S6.7 19.3 14 26.9c6.6 6.9 14.2 7 14.2 7z"/></svg>