<svg xmlns="http://www.w3.org/2000/svg" width="49.1" height="38" viewBox="0 0 49.1 38"><style>.st0{fill:none;stroke:#d463c1;stroke-miterlimit:10}</style><path class="st0" d="M47.7 4.9c-1.7.7-3.5 1.2-5.4 1.5 1.9-1.2 3.4-3 4.1-5.2-1.8 1.1-3.8 1.8-5.9 2.3-1.7-1.8-4.1-3-6.8-3-5.2 0-9.3 4.2-9.3 9.3 0 .7.1 1.4.2 2.1-7.8-.3-14.7-4-19.3-9.7C4.5 3.6 4 5.2 4 6.9c0 3.2 1.1 6.1 3.6 7.8-1.5 0-3.8-.5-4.8-1.2v.1c0 4.5 3.8 8.3 8.1 9.2-.8.2-1.3.3-2.2.3-.6 0-1-.1-1.6-.2 1.2 3.7 4.7 6.4 8.8 6.5-3.2 2.5-7.2 4-11.6 4-.8 0-1.5 0-2.2-.1 4.1 2.7 9.1 4.2 14.3 4.2C33.6 37.5 43 23.3 43 10.9V9.7c1.8-1.3 3.4-2.9 4.7-4.8z"/></svg>