<?xml version="1.0" encoding="utf-8"?>
<!-- Generator: Adobe Illustrator 19.2.1, SVG Export Plug-In . SVG Version: 6.00 Build 0)  -->
<svg version="1.1" id="Layer_1" xmlns="http://www.w3.org/2000/svg" xmlns:xlink="http://www.w3.org/1999/xlink" x="0px" y="0px"
	 viewBox="0 0 880.2 88.3" style="enable-background:new 0 0 880.2 88.3;" xml:space="preserve">
<style type="text/css">
	.st0{fill:#FFFFFF;}
</style>
<path class="st0" d="M0,0v88.3h880.2V0H0z M1.9,32.1v6.5v8.2v7v13H1.1v-13v-7v-8.2v-6.5V20.7h0.8V32.1z M3,34.1v5.2V46v5.7v10.7H2.2
	V51.7V46v-6.6v-5.2V25H3V34.1z M4.1,36.2v4v5.1v4.4V58H3.3v-8.4v-4.4v-5.1v-4v-6.8h0.8V36.2z M5.1,38.2v2.7v3.5v3.2v6.1H4.3v-6.1
	v-3.2v-3.5v-2.7v-4.5h0.8V38.2z M6.2,40.3v1.4v2v1.9v3.8H5.4v-3.8v-1.9v-2v-1.4v-2.1h0.8V40.3z M7.3,39.6v1.8v2.5v2.3v4.5H6.5v-4.5
	v-2.3v-2.5v-1.8v-2.9h0.8V39.6z M8.4,36.9v3.5v4.5v4v7.6H7.6v-7.6v-4v-4.5v-3.5V31h0.8V36.9z M9.4,35.7v4.2v5.4v4.7V59H8.6v-8.9
	v-4.7v-5.4v-4.2v-7.3h0.8V35.7z M10.5,37.6v3.1v4v3.6V55H9.7v-6.8v-3.6v-4v-3.1v-5.2h0.8V37.6z M11.6,36.9v3.5v4.5v4v7.6h-0.8v-7.6
	v-4v-4.5v-3.5V31h0.8V36.9z M12.7,36.2v3.9v5v4.4v8.3h-0.8v-8.3v-4.4v-5v-3.9v-6.7h0.8V36.2z M13.7,38.2v2.7v3.5v3.2v6.1h-0.8v-6.1
	v-3.2v-3.5v-2.7v-4.4h0.8V38.2z M14.8,37.8v2.9v3.9V48v6.6H14V48v-3.4v-3.9v-2.9v-4.9h0.8V37.8z M15.9,40.3v1.4v2v1.9v3.7h-0.8v-3.7
	v-1.9v-2v-1.4v-2.1h0.8V40.3z M17,39.3v2V44v2.5v4.8h-0.8v-4.8V44v-2.7v-2v-3.2H17V39.3z M18,41.5v0.7v1.1v1.1v2.4h-0.8v-2.4v-1.1
	v-1.1v-0.7v-0.8H18V41.5z M19.1,40.9v1v1.5v1.5V48h-0.8v-3.1v-1.5v-1.5v-1v-1.4h0.8V40.9z M20.2,40.9v1v1.5v1.5V48h-0.8v-3.1v-1.5
	v-1.5v-1v-1.4h0.8V40.9z M21.3,41.5v0.7v1.1v1.1v2.4h-0.8v-2.4v-1.1v-1.1v-0.7v-0.8h0.8V41.5z M22.3,39.3v2V44v2.5v4.8h-0.8v-4.8V44
	v-2.7v-2v-3.2h0.8V39.3z M23.4,40.3v1.4v2v1.9v3.7h-0.8v-3.7v-1.9v-2v-1.4v-2.1h0.8V40.3z M24.5,37.8v2.9v3.9V48v6.6h-0.8V48v-3.4
	v-3.9v-2.9v-4.9h0.8V37.8z M25.6,38.2v2.7v3.5v3.2v6.1h-0.8v-6.1v-3.2v-3.5v-2.7v-4.4h0.8V38.2z M26.6,36.2v3.9v5v4.4v8.3h-0.8v-8.3
	v-4.4v-5v-3.9v-6.7h0.8V36.2z M27.7,38.7v2.4v3.2v2.9v5.6h-0.8v-5.6v-2.9v-3.2v-2.4v-4h0.8V38.7z M28.8,39.1v2.1v2.8v2.6v5.1H28
	v-5.1v-2.6v-2.8v-2.1v-3.4h0.8V39.1z M29.9,37.8v2.9v3.8V48v6.6h-0.8V48v-3.4v-3.8v-2.9v-4.9h0.8V37.8z M30.9,38.7V41v3.2v2.9v5.6
	h-0.8v-5.6v-2.9V41v-2.4v-4h0.8V38.7z M32,40.6v1.2v1.8v1.7v3.5h-0.8v-3.5v-1.7v-1.8v-1.2v-1.8H32V40.6z M33.1,41v0.9v1.4v1.4v2.9
	h-0.8v-2.9v-1.4v-1.4V41v-1.3h0.8V41z M34.2,39.6v1.8v2.5v2.3v4.6h-0.8v-4.6v-2.3v-2.5v-1.8v-2.9h0.8V39.6z M35.2,38.1v2.7v3.6v3.2
	v6.2h-0.8v-6.2v-3.2v-3.6v-2.7v-4.5h0.8V38.1z M36.3,36.7v3.6V45v4.1v7.8h-0.8v-7.8V45v-4.7v-3.6v-6.2h0.8V36.7z M37.4,35.2v4.5v5.8
	v5V60h-0.8v-9.5v-5v-5.8v-4.5v-7.8h0.8V35.2z M38.5,33.8v5.4v6.9V52v11.1h-0.8V52v-5.9v-6.9v-5.4v-9.5h0.8V33.8z M39.5,32.3v6.3v8
	v6.8v12.7h-0.8V53.5v-6.8v-8v-6.3V21.2h0.8V32.3z M40.6,37.3v3.3v4.2v3.7v7.2h-0.8v-7.2v-3.7v-4.2v-3.3v-5.5h0.8V37.3z M41.7,33.9
	v5.4v6.8v5.9v11h-0.8v-11v-5.9v-6.8v-5.4v-9.4h0.8V33.9z M42.8,35.1v4.6v5.9v5.1v9.6H42v-9.6v-5.1v-5.9v-4.6v-8h0.8V35.1z
	 M43.8,37.7v3v3.9V48v6.6H43V48v-3.5v-3.9v-3v-5h0.8V37.7z M44.9,36.4v3.8v4.9v4.3v8.2h-0.8v-8.2v-4.3v-4.9v-3.8v-6.5h0.8V36.4z
	 M46,32.3v6.3v8v6.8v12.7h-0.8V53.5v-6.8v-8v-6.3V21.2H46V32.3z M47.1,31.8v6.7v8.4V54v13.4h-0.8V54v-7.2v-8.4v-6.7V20h0.8V31.8z
	 M48.1,33.1V39v7.4v6.3v11.8h-0.8V52.7v-6.3V39v-5.8V22.9h0.8V33.1z M49.2,35.1v4.6v5.9v5.1v9.6h-0.8v-9.6v-5.1v-5.9v-4.6v-7.9h0.8
	V35.1z M50.3,33.8v5.4v6.9V52v11h-0.8V52v-5.9v-6.9v-5.4v-9.4h0.8V33.8z M51.4,31.7v6.7v8.4V54v13.4h-0.8V54v-7.2v-8.4v-6.7V20h0.8
	V31.7z M52.4,29.1v8.3v10.4v8.8V73h-0.8V56.6v-8.8V37.5v-8.3V14.5h0.8V29.1z M53.5,34.2v5.2v6.6v5.7v10.6h-0.8V51.6v-5.7v-6.6v-5.2
	v-9h0.8V34.2z M54.6,38.2v2.7v3.5v3.2v6.1h-0.8v-6.1v-3.2v-3.5v-2.7v-4.4h0.8V38.2z M55.7,37.4v3.2v4.1v3.6v7h-0.8v-7v-3.6v-4.1
	v-3.2v-5.3h0.8V37.4z M56.7,36.6v3.7V45v4.1V57h-0.8v-7.9V45v-4.7v-3.7v-6.2h0.8V36.6z M57.8,35.8V40v5.3v4.6v8.8H57v-8.8v-4.6V40
	v-4.1v-7.1h0.8V35.8z M58.9,35.6v4.3v5.5v4.8v9h-0.8v-9v-4.8v-5.5v-4.3v-7.4h0.8V35.6z M60,33.8v5.4v6.9V52v11h-0.8V52v-5.9v-6.9
	v-5.4v-9.4H60V33.8z M61,30.4v7.5v9.4v8v14.9h-0.8V55.4v-8v-9.4v-7.5V17.1H61V30.4z M62.1,30v7.8v9.7v8.3v15.4h-0.8V55.8v-8.3v-9.7
	V30V16.3h0.8V30z M63.2,29.6v8v10v8.5V72h-0.8V56.2v-8.5v-10v-8V15.4h0.8V29.6z M64.3,31.7v6.7v8.5v7.2v13.5h-0.8V54.1v-7.2v-8.5
	v-6.7V19.9h0.8V31.7z M65.3,31v7.2v9v7.7v14.3h-0.8V54.8v-7.7v-9V31V18.4h0.8V31z M66.4,34v5.3V46v5.8v10.9h-0.8V51.8V46v-6.7V34
	v-9.2h0.8V34z M67.5,33.4v5.7v7.2v6.2V64h-0.8V52.4v-6.2v-7.2v-5.7v-9.9h0.8V33.4z M68.6,35v4.7v6v5.2v9.7h-0.8v-9.7v-5.2v-6V35
	v-8.1h0.8V35z M69.6,36.7v3.6V45v4.1v7.8h-0.8v-7.8V45v-4.7v-3.6v-6.2h0.8V36.7z M70.7,35.8V40v5.3V50v8.8h-0.8V50v-4.6V40v-4.2
	v-7.1h0.8V35.8z M71.8,36.7v3.6V45v4.1v7.8H71v-7.8V45v-4.7v-3.6v-6.2h0.8V36.7z M72.9,38.1v2.7v3.6v3.2v6.2h-0.8v-6.2v-3.2v-3.6
	v-2.7v-4.5h0.8V38.1z M73.9,39.6v1.8v2.5v2.3v4.6h-0.8v-4.6v-2.3v-2.5v-1.8v-2.9h0.8V39.6z M75,41v0.9v1.4v1.4v2.9h-0.8v-2.9v-1.4
	v-1.4V41v-1.3H75V41z M76.1,40.6v1.2v1.8v1.7v3.5h-0.8v-3.5v-1.7v-1.8v-1.2v-1.8h0.8V40.6z M77.2,38.7V41v3.2v2.9v5.6h-0.8v-5.6
	v-2.9V41v-2.4v-4h0.8V38.7z M78.2,37.8v2.9v3.8V48v6.6h-0.8V48v-3.4v-3.8v-2.9v-4.9h0.8V37.8z M79.3,38.7v2.4v3.2v2.9v5.6h-0.8v-5.6
	v-2.9v-3.2v-2.4v-4h0.8V38.7z M80.4,38.2v2.7v3.6v3.2v6.1h-0.8v-6.1v-3.2v-3.6v-2.7v-4.5h0.8V38.2z M81.5,39.6v1.8v2.5v2.3v4.5h-0.8
	v-4.5v-2.3v-2.5v-1.8v-2.9h0.8V39.6z M82.5,39.3v2V44v2.5v4.9h-0.8v-4.9V44v-2.7v-2V36h0.8V39.3z M83.6,41.1V42v1.4v1.4v2.9h-0.8
	v-2.9v-1.4V42v-0.9v-1.2h0.8V41.1z M84.7,40.4v1.3v1.9v1.8v3.7h-0.8v-3.7v-1.8v-1.9v-1.3v-2h0.8V40.4z M85.8,35.8V40v5.3V50v8.8H85
	V50v-4.6V40v-4.2v-7.1h0.8V35.8z M86.8,36.7v3.6V45v4.1v7.8h-0.8v-7.8V45v-4.7v-3.6v-6.2h0.8V36.7z M87.9,35v4.7v6v5.2v9.7h-0.8
	v-9.7v-5.2v-6V35v-8.1h0.8V35z M89,33.4v5.7v7.2v6.2V64h-0.8V52.4v-6.2v-7.2v-5.7v-9.9H89V33.4z M90.1,34v5.3V46v5.8v10.9h-0.8V51.8
	V46v-6.7V34v-9.2h0.8V34z M91.1,31v7.2v9v7.7v14.3h-0.8V54.8v-7.7v-9V31V18.4h0.8V31z M92.2,31.7v6.7v8.5v7.2v13.5h-0.8V54.1v-7.2
	v-8.5v-6.7V19.9h0.8V31.7z M93.3,29.6v8v10v8.5V72h-0.8V56.2v-8.5v-10v-8V15.4h0.8V29.6z M94.4,30v7.8v9.7v8.3v15.4h-0.8V55.8v-8.3
	v-9.7V30V16.3h0.8V30z M95.4,31.4v6.9V47v7.4v13.8h-0.8V54.4V47v-8.7v-6.9V19.3h0.8V31.4z M96.5,33.8v5.4v6.9V52v11h-0.8V52v-5.9
	v-6.9v-5.4v-9.4h0.8V33.8z M97.6,35.6v4.3v5.5v4.8v9h-0.8v-9v-4.8v-5.5v-4.3v-7.4h0.8V35.6z M98.7,35.8V40v5.3v4.6v8.8h-0.8v-8.8
	v-4.6V40v-4.1v-7.1h0.8V35.8z M99.7,36.6v3.7V45v4.1V57H99v-7.9V45v-4.7v-3.7v-6.2h0.8V36.6z M100.8,37.4v3.2v4.1v3.6v7H100v-7v-3.6
	v-4.1v-3.2v-5.3h0.8V37.4z M101.9,38.2v2.7v3.5v3.2v6.1h-0.8v-6.1v-3.2v-3.5v-2.7v-4.4h0.8V38.2z M103,36.7v3.6V45v4.1V57h-0.8v-7.8
	V45v-4.7v-3.6v-6.2h0.8V36.7z M104,37.9v2.8v3.7v3.3v6.4h-0.8v-6.4v-3.3v-3.7v-2.8v-4.8h0.8V37.9z M105.1,39.2v2V44v2.5v5h-0.8v-5
	V44v-2.8v-2v-3.3h0.8V39.2z M106.2,37.9v2.9v3.8v3.4v6.4h-0.8v-6.4v-3.4v-3.8v-2.9v-4.8h0.8V37.9z M107.3,36.6v3.7V45v4.2v7.9h-0.8
	v-7.9V45v-4.8v-3.7v-6.3h0.8V36.6z M108.3,33.3V39v7.3v6.2v11.7h-0.8V52.5v-6.2V39v-5.8v-10h0.8V33.3z M109.4,33.9v5.3V46v5.8v10.9
	h-0.8V51.9V46v-6.8v-5.3v-9.3h0.8V33.9z M110.5,32.6v6.2v7.8v6.6v12.4h-0.8V53.2v-6.6v-7.8v-6.2V21.8h0.8V32.6z M111.6,29.1v8.3
	v10.4v8.8V73h-0.8V56.6v-8.8V37.5v-8.3V14.5h0.8V29.1z M112.6,31.7v6.7v8.4V54v13.4h-0.8V54v-7.2v-8.4v-6.7V20h0.8V31.7z
	 M113.7,33.8v5.4v6.9V52v11h-0.8V52v-5.9v-6.9v-5.4v-9.4h0.8V33.8z M114.8,35.1v4.6v5.9v5.1v9.6H114v-9.6v-5.1v-5.9v-4.6v-7.9h0.8
	V35.1z M115.9,33.1V39v7.4v6.3v11.8h-0.8V52.7v-6.3V39v-5.8V22.9h0.8V33.1z M116.9,31.8v6.7v8.4V54v13.4h-0.8V54v-7.2v-8.4v-6.7V20
	h0.8V31.8z M118,32.3v6.3v8v6.8v12.7h-0.8V53.5v-6.8v-8v-6.3V21.2h0.8V32.3z M119.1,36.4v3.8v4.9v4.3v8.2h-0.8v-8.2v-4.3v-4.9v-3.8
	v-6.5h0.8V36.4z M120.2,37.7v3v3.9V48v6.6h-0.8V48v-3.5v-3.9v-3v-5h0.8V37.7z M121.2,35.1v4.6v5.9v5.1v9.6h-0.8v-9.6v-5.1v-5.9v-4.6
	v-8h0.8V35.1z M122.3,33.9v5.4v6.8v5.9v11h-0.8v-11v-5.9v-6.8v-5.4v-9.4h0.8V33.9z M123.4,37.3v3.3v4.2v3.7v7.2h-0.8v-7.2v-3.7v-4.2
	v-3.3v-5.5h0.8V37.3z M124.5,32.3v6.3v8v6.8v12.7h-0.8V53.5v-6.8v-8v-6.3V21.2h0.8V32.3z M125.5,33.8v5.4v6.9V52v11.1h-0.8V52v-5.9
	v-6.9v-5.4v-9.5h0.8V33.8z M126.6,35.2v4.5v5.8v5V60h-0.8v-9.5v-5v-5.8v-4.5v-7.8h0.8V35.2z M127.7,34.1v5.2V46v5.7v10.7h-0.8V51.7
	V46v-6.6v-5.2V25h0.8V34.1z M128.8,36.2v4v5.1v4.4V58H128v-8.4v-4.4v-5.1v-4v-6.8h0.8V36.2z M129.8,38.2v2.7v3.5v3.2v6.1h-0.8v-6.1
	v-3.2v-3.5v-2.7v-4.5h0.8V38.2z M130.9,40.3v1.4v2v1.9v3.8h-0.8v-3.8v-1.9v-2v-1.4v-2.1h0.8V40.3z M132,39.6v1.8v2.5v2.3v4.5h-0.8
	v-4.5v-2.3v-2.5v-1.8v-2.9h0.8V39.6z M133.1,36.9v3.5v4.5v4v7.6h-0.8v-7.6v-4v-4.5v-3.5V31h0.8V36.9z M134.1,35.7v4.2v5.4v4.7V59
	h-0.8v-8.9v-4.7v-5.4v-4.2v-7.3h0.8V35.7z M135.2,37.6v3.1v4v3.6V55h-0.8v-6.8v-3.6v-4v-3.1v-5.2h0.8V37.6z M136.3,36.9v3.5v4.5v4
	v7.6h-0.8v-7.6v-4v-4.5v-3.5V31h0.8V36.9z M137.4,36.2v3.9v5v4.4v8.3h-0.8v-8.3v-4.4v-5v-3.9v-6.7h0.8V36.2z M138.4,38.2v2.7v3.5
	v3.2v6.1h-0.8v-6.1v-3.2v-3.5v-2.7v-4.4h0.8V38.2z M139.5,37.8v2.9v3.9V48v6.6h-0.8V48v-3.4v-3.9v-2.9v-4.9h0.8V37.8z M140.6,40.3
	v1.4v2v1.9v3.7h-0.8v-3.7v-1.9v-2v-1.4v-2.1h0.8V40.3z M141.7,39.3v2V44v2.5v4.8h-0.8v-4.8V44v-2.7v-2v-3.2h0.8V39.3z M142.7,41.5
	v0.7v1.1v1.1v2.4H142v-2.4v-1.1v-1.1v-0.7v-0.8h0.8V41.5z M143.8,40.9v1v1.5v1.5V48H143v-3.1v-1.5v-1.5v-1v-1.4h0.8V40.9z
	 M144.9,40.9v1v1.5v1.5V48h-0.8v-3.1v-1.5v-1.5v-1v-1.4h0.8V40.9z M146,41.5v0.7v1.1v1.1v2.4h-0.8v-2.4v-1.1v-1.1v-0.7v-0.8h0.8
	V41.5z M147,39.3v2V44v2.5v4.8h-0.8v-4.8V44v-2.7v-2v-3.2h0.8V39.3z M148.1,40.3v1.4v2v1.9v3.7h-0.8v-3.7v-1.9v-2v-1.4v-2.1h0.8
	V40.3z M149.2,37.8v2.9v3.9V48v6.6h-0.8V48v-3.4v-3.9v-2.9v-4.9h0.8V37.8z M150.3,38.2v2.7v3.5v3.2v6.1h-0.8v-6.1v-3.2v-3.5v-2.7
	v-4.4h0.8V38.2z M151.3,36.9v3.5v4.5v4v7.6h-0.8v-7.6v-4v-4.5v-3.5V31h0.8V36.9z M152.4,37.6v3.1v4v3.6V55h-0.8v-6.8v-3.6v-4v-3.1
	v-5.2h0.8V37.6z M153.5,35.7v4.2v5.4v4.7V59h-0.8v-8.9v-4.7v-5.4v-4.2v-7.3h0.8V35.7z M154.6,36.9v3.5v4.5v4v7.6h-0.8v-7.6v-4v-4.5
	v-3.5V31h0.8V36.9z M155.6,39.6v1.8v2.5v2.3v4.5h-0.8v-4.5v-2.3v-2.5v-1.8v-2.9h0.8V39.6z M156.7,40.3v1.4v2v1.9v3.8h-0.8v-3.8v-1.9
	v-2v-1.4v-2.1h0.8V40.3z M157.8,38.2v2.7v3.5v3.2v6.1H157v-6.1v-3.2v-3.5v-2.7v-4.5h0.8V38.2z M158.9,36.2v4v5.1v4.4V58h-0.8v-8.4
	v-4.4v-5.1v-4v-6.8h0.8V36.2z M159.9,34.1v5.2V46v5.7v10.7h-0.8V51.7V46v-6.6v-5.2V25h0.8V34.1z M161,32.1v6.5v8.2v7v13h-0.8v-13v-7
	v-8.2v-6.5V20.7h0.8V32.1z M162.1,30v7.8v9.7v8.3v15.3h-0.8V55.8v-8.3v-9.7V30V16.3h0.8V30z M163.2,27.9V37v11.3v9.5v17.7h-0.8V57.8
	v-9.5V37v-9.1v-16h0.8V27.9z M164.2,34.9v4.7v6v5.2v9.8h-0.8v-9.8v-5.2v-6v-4.7v-8.1h0.8V34.9z M165.3,30.1v7.7v9.6v8.2v15.2h-0.8
	V55.7v-8.2v-9.6v-7.7V16.6h0.8V30.1z M166.4,31.9v6.6v8.3v7.1v13.3h-0.8V53.9v-7.1v-8.3v-6.6V20.2h0.8V31.9z M167.5,35.6v4.3v5.5
	v4.8v9h-0.8v-9v-4.8v-5.5v-4.3v-7.4h0.8V35.6z M168.5,33.7v5.5v7v6v11.2h-0.8V52.1v-6v-7v-5.5v-9.6h0.8V33.7z M169.6,27.9V37v11.3
	v9.6v17.7h-0.8V57.9v-9.6V37v-9.1v-16h0.8V27.9z M170.7,27.2v9.6v11.9v10v18.5h-0.8V58.6v-10V36.7v-9.6V10.2h0.8V27.2z M171.8,29.1
	v8.4v10.4v8.9v16.4H171V56.7v-8.9V37.4v-8.4V14.3h0.8V29.1z M172.8,31.9v6.6v8.3v7.1v13.2h-0.8V53.9v-7.1v-8.3v-6.6V20.3h0.8V31.9z
	 M173.9,30.1v7.7v9.7v8.2V71h-0.8V55.7v-8.2v-9.7v-7.7V16.4h0.8V30.1z M175,27.1v9.6v11.9v10.1v18.6h-0.8V58.7V48.6V36.7v-9.6V10.2
	h0.8V27.1z M176.1,23.5v11.9V50v12.3v22.7h-0.8V62.3V50V35.3V23.5V2.4h0.8V23.5z M177.1,30.6V38v9.3v7.9v14.7h-0.8V55.2v-7.9V38
	v-7.4V17.5h0.8V30.6z M178.2,36.3v3.9v5v4.4v8.3h-0.8v-8.3v-4.4v-5v-3.9v-6.6h0.8V36.3z M179.3,35.2v4.6v5.8v5.1v9.5h-0.8v-9.5v-5.1
	v-5.8v-4.6v-7.9h0.8V35.2z M180.4,34v5.3V46v5.8v10.8h-0.8V51.7V46v-6.7V34v-9.2h0.8V34z M181.4,32.9v6v7.5v6.5v12.1h-0.8V52.9v-6.5
	v-7.5v-6V22.5h0.8V32.9z M182.5,32.6v6.2v7.8v6.7v12.4h-0.8V53.2v-6.7v-7.8v-6.2V21.8h0.8V32.6z M183.6,30.1v7.7v9.7v8.2V71h-0.8
	V55.7v-8.2v-9.7v-7.7V16.4h0.8V30.1z M184.7,25.2V36v13.4v11.3v20.8h-0.8V60.6V49.3V36V25.2V6.1h0.8V25.2z M185.7,24.6v11.1v13.8
	v11.6v21.4H185V61.1V49.5V35.8V24.6V4.9h0.8V24.6z M186.8,24.1v11.5v14.2v12v22H186v-22v-12V35.6V24.1V3.7h0.8V24.1z M187.9,27v9.6
	v12v10.1v18.7h-0.8V58.8V48.6v-12V27V10h0.8V27z M189,26v10.2V49v10.7v19.8h-0.8V59.8V49V36.3V26V7.9h0.8V26z M190,30.3v7.6v9.5v8.1
	v15h-0.8v-15v-8.1v-9.5v-7.6V16.9h0.8V30.3z M191.1,29.4v8.1v10.2v8.6v16h-0.8v-16v-8.6V37.6v-8.1V15.1h0.8V29.4z M192.2,31.7v6.7
	v8.4v7.2v13.4h-0.8V54.1v-7.2v-8.4v-6.7V20h0.8V31.7z M193.3,34.1v5.2V46v5.7v10.7h-0.8V51.7V46v-6.6v-5.2V25h0.8V34.1z M194.3,32.9
	v6v7.5v6.5V65h-0.8V52.9v-6.5v-7.5v-6V22.5h0.8V32.9z M195.4,34.1v5.2V46v5.7v10.7h-0.8V51.7V46v-6.6v-5.2V25h0.8V34.1z M196.5,36.2
	v4v5.1v4.4V58h-0.8v-8.4v-4.4v-5.1v-4v-6.8h0.8V36.2z M197.6,38.2v2.7v3.5v3.2v6.1h-0.8v-6.1v-3.2v-3.5v-2.7v-4.5h0.8V38.2z
	 M198.6,40.3v1.4v2v1.9v3.8h-0.8v-3.8v-1.9v-2v-1.4v-2.1h0.8V40.3z M199.7,39.6v1.8v2.5v2.3v4.5h-0.8v-4.5v-2.3v-2.5v-1.8v-2.9h0.8
	V39.6z M200.8,36.9v3.5v4.5v4v7.6H200v-7.6v-4v-4.5v-3.5V31h0.8V36.9z M201.9,35.7v4.2v5.4v4.7V59h-0.8v-8.9v-4.7v-5.4v-4.2v-7.3
	h0.8V35.7z M202.9,36.9v3.5v4.5v4v7.6h-0.8v-7.6v-4v-4.5v-3.5V31h0.8V36.9z M204,36.2v3.9v5v4.4v8.3h-0.8v-8.3v-4.4v-5v-3.9v-6.7
	h0.8V36.2z M205.1,38.2v2.7v3.5v3.2v6.1h-0.8v-6.1v-3.2v-3.5v-2.7v-4.4h0.8V38.2z M206.2,37.8v2.9v3.9V48v6.6h-0.8V48v-3.4v-3.9
	v-2.9v-4.9h0.8V37.8z M207.2,40.3v1.4v2v1.9v3.7h-0.8v-3.7v-1.9v-2v-1.4v-2.1h0.8V40.3z M208.3,39.3v2V44v2.5v4.8h-0.8v-4.8V44v-2.7
	v-2v-3.2h0.8V39.3z M209.4,35.9V40v5.2v4.6v8.6h-0.8v-8.6v-4.6V40v-4.1v-7h0.8V35.9z M210.5,36.8v3.6V45v4v7.7h-0.8V49v-4v-4.6v-3.6
	v-6.1h0.8V36.8z M211.5,35.1v4.6v5.9v5.1v9.6h-0.8v-9.6v-5.1v-5.9v-4.6v-7.9h0.8V35.1z M212.6,33.5v5.6v7.1v6.1v11.4h-0.8V52.3v-6.1
	v-7.1v-5.6v-9.7h0.8V33.5z M213.7,34.1v5.2V46v5.7v10.7h-0.8V51.7V46v-6.6v-5.2v-9h0.8V34.1z M214.8,31.2v7.1v8.8v7.5v14H214v-14
	v-7.5v-8.8v-7.1V18.8h0.8V31.2z M215.8,31.9v6.6v8.3v7.1v13.2h-0.8V53.9v-7.1v-8.3v-6.6V20.3h0.8V31.9z M216.9,29.8v7.9v9.9V56v15.5
	h-0.8V56v-8.4v-9.9v-7.9V15.9h0.8V29.8z M218,30.2v7.7v9.6v8.1v15.1h-0.8V55.6v-8.1v-9.6v-7.7V16.7h0.8V30.2z M219.1,31.6v6.8v8.5
	v7.3v13.6h-0.8V54.2v-7.3v-8.5v-6.8V19.7h0.8V31.6z M220.1,34v5.3V46v5.8v10.9h-0.8V51.8V46v-6.7V34v-9.2h0.8V34z M221.2,35.7v4.2
	v5.4v4.7V59h-0.8v-8.9v-4.7v-5.4v-4.2v-7.3h0.8V35.7z M222.3,36V40v5.2v4.6v8.6h-0.8v-8.6v-4.6V40V36v-7h0.8V36z M223.4,36.7v3.6V45
	V49v7.8h-0.8V49V45v-4.6v-3.6v-6.1h0.8V36.7z M224.4,37.5v3.1v4.1v3.6v6.9h-0.8v-6.9v-3.6v-4.1v-3.1v-5.2h0.8V37.5z M225.5,38.3v2.6
	v3.5v3.1v6h-0.8v-6v-3.1v-3.5v-2.6V34h0.8V38.3z M226.6,36.8v3.6V45V49v7.7h-0.8V49V45v-4.6v-3.6v-6.1h0.8V36.8z M227.7,38v2.8v3.7
	v3.3v6.3h-0.8v-6.3v-3.3v-3.7V38v-4.7h0.8V38z M228.7,39.3v2V44v2.5v4.9H228v-4.9V44v-2.7v-2V36h0.8V39.3z M229.8,38v2.8v3.7v3.3
	v6.4H229v-6.4v-3.3v-3.7V38v-4.7h0.8V38z M230.9,36.7v3.6V45v4.1v7.8h-0.8v-7.8V45v-4.7v-3.6v-6.2h0.8V36.7z M232,33.4v5.7v7.2v6.1
	v11.5h-0.8V52.4v-6.1v-7.2v-5.7v-9.9h0.8V33.4z M233,34.1v5.2V46v5.7v10.7h-0.8V51.7V46v-6.7v-5.2V25h0.8V34.1z M234.1,32.8v6.1v7.6
	V53v12.2h-0.8V53v-6.5v-7.6v-6.1V22.2h0.8V32.8z M235.2,29.4v8.2v10.2v8.7v16h-0.8v-16v-8.7V37.5v-8.2V15h0.8V29.4z M236.3,31.9v6.6
	v8.3v7.1V67h-0.8V53.9v-7.1v-8.3v-6.6V20.4h0.8V31.9z M237.3,34v5.3V46v5.8v10.9h-0.8V51.8V46v-6.7V34v-9.2h0.8V34z M238.4,35.2v4.5
	v5.8v5V60h-0.8v-9.4v-5v-5.8v-4.5v-7.8h0.8V35.2z M239.5,33.3V39v7.3v6.2v11.7h-0.8V52.5v-6.2V39v-5.7v-10h0.8V33.3z M240.6,32v6.6
	v8.3v7.1V67h-0.8V53.8v-7.1v-8.3V32V20.5h0.8V32z M241.6,32.5v6.2v7.9v6.7v12.5h-0.8V53.3v-6.7v-7.9v-6.2V21.6h0.8V32.5z
	 M242.7,36.5v3.8v4.9v4.2v8.1h-0.8v-8.1v-4.2v-4.9v-3.8v-6.4h0.8V36.5z M243.8,37.8v2.9v3.8V48v6.5H243V48v-3.4v-3.8v-2.9v-4.9h0.8
	V37.8z M244.9,35.2v4.5v5.8v5V60h-0.8v-9.5v-5v-5.8v-4.5v-7.8h0.8V35.2z M245.9,34v5.3V46v5.8v10.8h-0.8V51.8V46v-6.7V34v-9.2h0.8
	V34z M247,37.4v3.2v4.2v3.7v7h-0.8v-7v-3.7v-4.2v-3.2V32h0.8V37.4z M248.1,32.5v6.2v7.8v6.7v12.5h-0.8V53.3v-6.7v-7.8v-6.2V21.6h0.8
	V32.5z M249.2,33.9v5.3V46v5.8v10.9h-0.8V51.9V46v-6.8v-5.3v-9.3h0.8V33.9z M250.2,35.4v4.4v5.7v4.9v9.3h-0.8v-9.3v-4.9v-5.7v-4.4
	v-7.7h0.8V35.4z M251.3,36.8v3.6V45v4v7.7h-0.8V49v-4v-4.6v-3.6v-6.1h0.8V36.8z M252.4,38.2v2.7v3.5v3.2v6.1h-0.8v-6.1v-3.2v-3.5
	v-2.7v-4.5h0.8V38.2z M253.5,39.6v1.8v2.5v2.3v4.5h-0.8v-4.5v-2.3v-2.5v-1.8v-2.8h0.8V39.6z M254.5,40.6v1.2v1.7v1.7v3.4h-0.8v-3.4
	v-1.7v-1.7v-1.2v-1.7h0.8V40.6z M255.6,40v1.5v2.2v2v4h-0.8v-4v-2v-2.2V40v-2.4h0.8V40z M256.7,38.7v2.4v3.1v2.8v5.5h-0.8v-5.5v-2.8
	v-3.1v-2.4v-3.9h0.8V38.7z M257.8,37.9v2.9v3.8v3.4v6.5H257v-6.5v-3.4v-3.8v-2.9v-4.8h0.8V37.9z M258.8,39.2v2.1V44v2.5v5h-0.8v-5
	V44v-2.8v-2.1v-3.3h0.8V39.2z M259.9,38.7v2.3v3.1v2.8v5.5h-0.8v-5.5v-2.8v-3.1v-2.3v-3.9h0.8V38.7z M261,38.3v2.6v3.5v3.1v6h-0.8
	v-6v-3.1v-3.5v-2.6v-4.4h0.8V38.3z M262.1,39.6v1.8v2.5v2.3v4.5h-0.8v-4.5v-2.3v-2.5v-1.8v-2.8h0.8V39.6z M263.1,39.3v2V44v2.5v4.8
	h-0.8v-4.8V44v-2.7v-2v-3.2h0.8V39.3z M264.2,40.7v1.2v1.7v1.6v3.3h-0.8v-3.3v-1.6v-1.7v-1.2V39h0.8V40.7z M265.3,39.8v1.7v2.3V46
	v4.3h-0.8V46v-2.2v-2.3v-1.7v-2.7h0.8V39.8z M266.4,41.6v0.5v0.9v1v2.2h-0.8v-2.2v-1v-0.9v-0.5v-0.6h0.8V41.6z M267.4,41.2V42v1.3
	v1.3v2.8h-0.8v-2.8v-1.3V42v-0.8V40h0.8V41.2z M268.5,41.2V42v1.3v1.3v2.8h-0.8v-2.8v-1.3V42v-0.8V40h0.8V41.2z M269.6,41.6v0.5v0.9
	v1v2.2h-0.8v-2.2v-1v-0.9v-0.5v-0.6h0.8V41.6z M270.7,39.8v1.7v2.3V46v4.3h-0.8V46v-2.2v-2.3v-1.7v-2.7h0.8V39.8z M271.7,40.7v1.2
	v1.7v1.6v3.3H271v-3.3v-1.6v-1.7v-1.2V39h0.8V40.7z M272.8,39.3v2V44v2.5v4.8H272v-4.8V44v-2.7v-2v-3.2h0.8V39.3z M273.9,39.6v1.8
	v2.5v2.3v4.5h-0.8v-4.5v-2.3v-2.5v-1.8v-2.8h0.8V39.6z M275,38.3v2.6v3.5v3.1v6h-0.8v-6v-3.1v-3.5v-2.6v-4.4h0.8V38.3z M276,38.7
	v2.3v3.1v2.8v5.5h-0.8v-5.5v-2.8v-3.1v-2.3v-3.9h0.8V38.7z M277.1,39.2v2.1V44v2.5v5h-0.8v-5V44v-2.8v-2.1v-3.3h0.8V39.2z
	 M278.2,37.9v2.9v3.8v3.4v6.5h-0.8v-6.5v-3.4v-3.8v-2.9v-4.8h0.8V37.9z M279.3,38.7v2.4v3.1v2.8v5.5h-0.8v-5.5v-2.8v-3.1v-2.4v-3.9
	h0.8V38.7z M280.3,40v1.5v2.2v2v4h-0.8v-4v-2v-2.2V40v-2.4h0.8V40z M281.4,40.6v1.2v1.7v1.7v3.4h-0.8v-3.4v-1.7v-1.7v-1.2v-1.7h0.8
	V40.6z M282.5,39.6v1.8v2.5v2.3v4.5h-0.8v-4.5v-2.3v-2.5v-1.8v-2.8h0.8V39.6z M283.6,38.2v2.7v3.5v3.2v6.1h-0.8v-6.1v-3.2v-3.5v-2.7
	v-4.5h0.8V38.2z M284.6,36.8v3.6V45v4v7.7h-0.8V49v-4v-4.6v-3.6v-6.1h0.8V36.8z M285.7,35.4v4.4v5.7v4.9v9.3h-0.8v-9.3v-4.9v-5.7
	v-4.4v-7.7h0.8V35.4z M286.8,33.9v5.3V46v5.8v10.9H286V51.9V46v-6.8v-5.3v-9.3h0.8V33.9z M287.9,32.5v6.2v7.8v6.7v12.5h-0.8V53.3
	v-6.7v-7.8v-6.2V21.6h0.8V32.5z M288.9,37.4v3.2v4.2v3.7v7h-0.8v-7v-3.7v-4.2v-3.2V32h0.8V37.4z M290,34v5.3V46v5.8v10.8h-0.8V51.8
	V46v-6.7V34v-9.2h0.8V34z M291.1,35.2v4.5v5.8v5V60h-0.8v-9.5v-5v-5.8v-4.5v-7.8h0.8V35.2z M292.2,37.8v2.9v3.8V48v6.5h-0.8V48v-3.4
	v-3.8v-2.9v-4.9h0.8V37.8z M293.2,36.5v3.8v4.9v4.2v8.1h-0.8v-8.1v-4.2v-4.9v-3.8v-6.4h0.8V36.5z M294.3,32.5v6.2v7.9v6.7v12.5h-0.8
	V53.3v-6.7v-7.9v-6.2V21.6h0.8V32.5z M295.4,32v6.6v8.3v7.1V67h-0.8V53.8v-7.1v-8.3V32V20.5h0.8V32z M296.5,33.3V39v7.3v6.2v11.7
	h-0.8V52.5v-6.2V39v-5.7v-10h0.8V33.3z M297.5,35.2v4.5v5.8v5V60h-0.8v-9.4v-5v-5.8v-4.5v-7.8h0.8V35.2z M298.6,34v5.3V46v5.8v10.9
	h-0.8V51.8V46v-6.7V34v-9.2h0.8V34z M299.7,31.9v6.6v8.3v7.1V67h-0.8V53.9v-7.1v-8.3v-6.6V20.4h0.8V31.9z M300.8,29.4v8.2v10.2v8.7
	v16H300v-16v-8.7V37.5v-8.2V15h0.8V29.4z M301.8,34.3v5.1v6.5v5.6v10.5h-0.8V51.5v-5.6v-6.5v-5.1v-8.8h0.8V34.3z M302.9,38.3v2.6
	v3.5v3.1v6h-0.8v-6v-3.1v-3.5v-2.6V34h0.8V38.3z M304,37.5v3.1v4.1v3.6v6.9h-0.8v-6.9v-3.6v-4.1v-3.1v-5.2h0.8V37.5z M305.1,36.7
	v3.6V45V49v7.8h-0.8V49V45v-4.6v-3.6v-6.1h0.8V36.7z M306.1,36V40v5.2v4.6v8.6h-0.8v-8.6v-4.6V40V36v-7h0.8V36z M307.2,35.7v4.2v5.4
	v4.7V59h-0.8v-8.9v-4.7v-5.4v-4.2v-7.3h0.8V35.7z M308.3,34v5.3V46v5.8v10.9h-0.8V51.8V46v-6.7V34v-9.2h0.8V34z M309.4,30.6V38v9.3
	v7.9v14.7h-0.8V55.2v-7.9V38v-7.4v-13h0.8V30.6z M310.4,30.2v7.7v9.6v8.1v15.1h-0.8V55.6v-8.1v-9.6v-7.7V16.7h0.8V30.2z M311.5,29.8
	v7.9v9.9V56v15.5h-0.8V56v-8.4v-9.9v-7.9V15.9h0.8V29.8z M312.6,31.9v6.6v8.3v7.1v13.2h-0.8V53.9v-7.1v-8.3v-6.6V20.3h0.8V31.9z
	 M313.7,31.2v7.1v8.8v7.5v14h-0.8v-14v-7.5v-8.8v-7.1V18.8h0.8V31.2z M314.7,32v6.5v8.2v7v13.1H314V53.8v-7v-8.2V32V20.5h0.8V32z
	 M315.8,31.2v7v8.8v7.5v14H315v-14v-7.5v-8.8v-7V18.9h0.8V31.2z M316.9,33.2V39v7.3v6.3v11.7h-0.8V52.6v-6.3V39v-5.8V23.2h0.8V33.2z
	 M318,35.3v4.5v5.7v5v9.4h-0.8v-9.4v-5v-5.7v-4.5v-7.8h0.8V35.3z M319,34.2v5.1v6.5v5.6v10.6h-0.8V51.5v-5.6v-6.5v-5.1v-8.9h0.8
	V34.2z M320.1,35.3v4.5v5.7v5v9.4h-0.8v-9.4v-5v-5.7v-4.5v-7.8h0.8V35.3z M321.2,37.1v3.4v4.4v3.9v7.4h-0.8v-7.4v-3.9v-4.4v-3.4
	v-5.8h0.8V37.1z M322.3,38.8v2.3v3.1V47v5.4h-0.8V47v-2.8v-3.1v-2.3v-3.7h0.8V38.8z M323.3,40.6v1.2v1.7v1.7v3.4h-0.8v-3.4v-1.7
	v-1.7v-1.2v-1.7h0.8V40.6z M324.4,40v1.5v2.2v2v4h-0.8v-4v-2v-2.2V40v-2.4h0.8V40z M325.5,37.7v3v3.9v3.5v6.7h-0.8v-6.7v-3.5v-3.9
	v-3v-5h0.8V37.7z M326.6,36.7v3.6V45v4.1V57h-0.8v-7.9V45v-4.7v-3.6v-6.2h0.8V36.7z M327.6,37.7v3v3.9v3.5v6.7h-0.8v-6.7v-3.5v-3.9
	v-3v-5h0.8V37.7z M328.7,37.1v3.3v4.4v3.8V56h-0.8v-7.3v-3.8v-4.4v-3.3v-5.7h0.8V37.1z M329.8,38.2v2.7v3.5v3.2v6.1H329v-6.1v-3.2
	v-3.5v-2.7v-4.4h0.8V38.2z M330.9,37.8v2.9v3.9V48v6.6h-0.8V48v-3.4v-3.9v-2.9v-4.9h0.8V37.8z M331.9,40.3v1.4v2v1.9v3.7h-0.8v-3.7
	v-1.9v-2v-1.4v-2.1h0.8V40.3z M333,39.3v2V44v2.5v4.8h-0.8v-4.8V44v-2.7v-2v-3.2h0.8V39.3z M334.1,32.9v6v7.5v6.5V65h-0.8V52.9v-6.5
	v-7.5v-6V22.5h0.8V32.9z M335.2,34.1v5.2V46v5.7v10.7h-0.8V51.7V46v-6.6v-5.2V25h0.8V34.1z M336.2,31.7v6.7v8.4v7.2v13.4h-0.8V54.1
	v-7.2v-8.4v-6.7V20h0.8V31.7z M337.3,29.4v8.1v10.2v8.6v16h-0.8v-16v-8.6V37.6v-8.1V15.1h0.8V29.4z M338.4,30.3v7.6v9.5v8.1v15h-0.8
	v-15v-8.1v-9.5v-7.6V16.9h0.8V30.3z M339.5,26v10.2V49v10.7v19.8h-0.8V59.8V49V36.3V26V7.9h0.8V26z M340.5,27v9.6v12v10.1v18.7h-0.8
	V58.8V48.6v-12V27V10h0.8V27z M341.6,24.1v11.5v14.2v12v22h-0.8v-22v-12V35.6V24.1V3.7h0.8V24.1z M342.7,24.6v11.1v13.8v11.6v21.4
	h-0.8V61.1V49.5V35.8V24.6V4.9h0.8V24.6z M343.8,26.6v9.9v12.3v10.4v19.1H343V59.2V48.8V36.5v-9.9V9.1h0.8V26.6z M344.8,30.1v7.7
	v9.7v8.2V71h-0.8V55.7v-8.2v-9.7v-7.7V16.4h0.8V30.1z M345.9,32.6v6.2v7.8v6.7v12.4h-0.8V53.2v-6.7v-7.8v-6.2V21.8h0.8V32.6z
	 M347,32.9v6v7.5v6.5v12.1h-0.8V52.9v-6.5v-7.5v-6V22.5h0.8V32.9z M348.1,34v5.3V46v5.8v10.8h-0.8V51.7V46v-6.7V34v-9.2h0.8V34z
	 M349.1,35.2v4.6v5.8v5.1v9.5h-0.8v-9.5v-5.1v-5.8v-4.6v-7.9h0.8V35.2z M350.2,36.3v3.9v5v4.4v8.3h-0.8v-8.3v-4.4v-5v-3.9v-6.6h0.8
	V36.3z M351.3,34.1v5.2V46v5.7v10.7h-0.8V51.7V46v-6.6v-5.2V25h0.8V34.1z M352.4,35.9V40v5.3v4.6v8.7h-0.8v-8.7v-4.6V40v-4.1v-7.1
	h0.8V35.9z M353.4,37.7v3v3.9v3.5v6.7h-0.8v-6.7v-3.5v-3.9v-3v-5h0.8V37.7z M354.5,35.8V40v5.3V50v8.8h-0.8V50v-4.6V40v-4.2v-7.1
	h0.8V35.8z M355.6,34v5.3V46v5.8v10.9h-0.8V51.8V46v-6.7V34v-9.2h0.8V34z M356.7,29.3v8.2v10.3v8.7v16.2h-0.8V56.5v-8.7V37.5v-8.2
	V14.7h0.8V29.3z M357.7,30.2v7.6v9.6v8.1v15.1H357V55.6v-8.1v-9.6v-7.6V16.8h0.8V30.2z M358.8,28.3v8.8v11v9.3v17.2H358V57.4v-9.3
	v-11v-8.8V12.8h0.8V28.3z M359.9,23.5v11.9V50v12.3v22.7h-0.8V62.3V50V35.3V23.5V2.4h0.8V23.5z M361,27.1v9.6v11.9v10.1v18.6h-0.8
	V58.7V48.6V36.7v-9.6V10.2h0.8V27.1z M362,30.1v7.7v9.7v8.2V71h-0.8V55.7v-8.2v-9.7v-7.7V16.4h0.8V30.1z M363.1,31.9v6.6v8.3v7.1
	v13.2h-0.8V53.9v-7.1v-8.3v-6.6V20.3h0.8V31.9z M364.2,29.1v8.4v10.4v8.9v16.4h-0.8V56.7v-8.9V37.4v-8.4V14.3h0.8V29.1z M365.3,27.2
	v9.6v11.9v10v18.5h-0.8V58.6v-10V36.7v-9.6V10.2h0.8V27.2z M366.3,27.9V37v11.3v9.6v17.7h-0.8V57.9v-9.6V37v-9.1v-16h0.8V27.9z
	 M367.4,33.7v5.5v7v6v11.2h-0.8V52.1v-6v-7v-5.5v-9.6h0.8V33.7z M368.5,35.6v4.3v5.5v4.8v9h-0.8v-9v-4.8v-5.5v-4.3v-7.4h0.8V35.6z
	 M369.6,31.9v6.6v8.3v7.1v13.3h-0.8V53.9v-7.1v-8.3v-6.6V20.2h0.8V31.9z M370.6,30.1v7.7v9.6v8.2v15.2h-0.8V55.7v-8.2v-9.6v-7.7
	V16.6h0.8V30.1z M371.7,34.9v4.7v6v5.2v9.8h-0.8v-9.8v-5.2v-6v-4.7v-8.1h0.8V34.9z M372.8,27.9V37v11.3v9.5v17.7H372V57.8v-9.5V37
	v-9.1v-16h0.8V27.9z M373.9,30v7.8v9.7v8.3v15.3h-0.8V55.8v-8.3v-9.7V30V16.3h0.8V30z M374.9,32.1v6.5v8.2v7v13h-0.8v-13v-7v-8.2
	v-6.5V20.7h0.8V32.1z M376,34.1v5.2V46v5.7v10.7h-0.8V51.7V46v-6.6v-5.2V25h0.8V34.1z M377.1,36.2v4v5.1v4.4V58h-0.8v-8.4v-4.4v-5.1
	v-4v-6.8h0.8V36.2z M378.2,38.2v2.7v3.5v3.2v6.1h-0.8v-6.1v-3.2v-3.5v-2.7v-4.5h0.8V38.2z M379.2,40.3v1.4v2v1.9v3.8h-0.8v-3.8v-1.9
	v-2v-1.4v-2.1h0.8V40.3z M380.3,39.6v1.8v2.5v2.3v4.5h-0.8v-4.5v-2.3v-2.5v-1.8v-2.9h0.8V39.6z M381.4,36.9v3.5v4.5v4v7.6h-0.8v-7.6
	v-4v-4.5v-3.5V31h0.8V36.9z M382.5,35.7v4.2v5.4v4.7V59h-0.8v-8.9v-4.7v-5.4v-4.2v-7.3h0.8V35.7z M383.5,37.6v3.1v4v3.6V55h-0.8
	v-6.8v-3.6v-4v-3.1v-5.2h0.8V37.6z M384.6,36.9v3.5v4.5v4v7.6h-0.8v-7.6v-4v-4.5v-3.5V31h0.8V36.9z M385.7,36.2v3.9v5v4.4v8.3h-0.8
	v-8.3v-4.4v-5v-3.9v-6.7h0.8V36.2z M386.8,38.2v2.7v3.5v3.2v6.1H386v-6.1v-3.2v-3.5v-2.7v-4.4h0.8V38.2z M387.8,37.8v2.9v3.9V48v6.6
	h-0.8V48v-3.4v-3.9v-2.9v-4.9h0.8V37.8z M388.9,40.3v1.4v2v1.9v3.7h-0.8v-3.7v-1.9v-2v-1.4v-2.1h0.8V40.3z M390,39.3v2V44v2.5v4.8
	h-0.8v-4.8V44v-2.7v-2v-3.2h0.8V39.3z M391.1,41.5v0.7v1.1v1.1v2.4h-0.8v-2.4v-1.1v-1.1v-0.7v-0.8h0.8V41.5z M392.1,40.9v1v1.5v1.5
	V48h-0.8v-3.1v-1.5v-1.5v-1v-1.4h0.8V40.9z M393.2,40.9v1v1.5v1.5V48h-0.8v-3.1v-1.5v-1.5v-1v-1.4h0.8V40.9z M394.3,41.5v0.7v1.1
	v1.1v2.4h-0.8v-2.4v-1.1v-1.1v-0.7v-0.8h0.8V41.5z M395.4,39.3v2V44v2.5v4.8h-0.8v-4.8V44v-2.7v-2v-3.2h0.8V39.3z M396.4,40.3v1.4v2
	v1.9v3.7h-0.8v-3.7v-1.9v-2v-1.4v-2.1h0.8V40.3z M397.5,37.8v2.9v3.9V48v6.6h-0.8V48v-3.4v-3.9v-2.9v-4.9h0.8V37.8z M398.6,38.2v2.7
	v3.5v3.2v6.1h-0.8v-6.1v-3.2v-3.5v-2.7v-4.4h0.8V38.2z M399.7,36.9v3.5v4.5v4v7.6h-0.8v-7.6v-4v-4.5v-3.5V31h0.8V36.9z M400.7,37.6
	v3.1v4v3.6V55H400v-6.8v-3.6v-4v-3.1v-5.2h0.8V37.6z M401.8,35.7v4.2v5.4v4.7V59H401v-8.9v-4.7v-5.4v-4.2v-7.3h0.8V35.7z
	 M402.9,40.4v1.3v1.8v1.8v3.6h-0.8v-3.6v-1.8v-1.8v-1.3v-1.9h0.8V40.4z M404,41.5v0.6v1v1.1v2.3h-0.8v-2.3v-1.1v-1v-0.6v-0.7h0.8
	V41.5z M405.1,41.8v0.4v0.8V44v2h-0.8v-2v-0.9v-0.8v-0.4v-0.4h0.8V41.8z M406.1,41v0.9v1.4v1.4v3h-0.8v-3v-1.4v-1.4V41v-1.3h0.8V41z
	 M407.2,40.1v1.5v2.1v2v3.9h-0.8v-3.9v-2v-2.1v-1.5v-2.3h0.8V40.1z M408.3,39.3v2V44v2.5v4.9h-0.8v-4.9V44v-2.7v-2v-3.2h0.8V39.3z
	 M409.4,38.5V41v3.3v3v5.8h-0.8v-5.8v-3V41v-2.5v-4.2h0.8V38.5z M410.4,37.6v3v4v3.5v6.8h-0.8v-6.8v-3.5v-4v-3v-5.1h0.8V37.6z
	 M411.5,36.8v3.6V45v4v7.7h-0.8V49v-4v-4.6v-3.6v-6.1h0.8V36.8z M412.6,39.6v1.8v2.5v2.3v4.5h-0.8v-4.5v-2.3v-2.5v-1.8v-2.8h0.8
	V39.6z M413.7,37.7v3v3.9v3.5v6.7h-0.8v-6.7v-3.5v-3.9v-3v-5.1h0.8V37.7z M414.7,38.4v2.6v3.4v3v5.9h-0.8v-5.9v-3v-3.4v-2.6v-4.3
	h0.8V38.4z M415.8,39.9v1.6v2.2v2.1V50H415v-4.2v-2.1v-2.2v-1.6v-2.5h0.8V39.9z M416.9,39.1v2.1v2.8v2.6v5.1h-0.8v-5.1v-2.6v-2.8
	v-2.1v-3.4h0.8V39.1z M418,36.8v3.6V45v4v7.7h-0.8V49v-4v-4.6v-3.6v-6.1h0.8V36.8z M419,36.5v3.8v4.9v4.2v8.1h-0.8v-8.1v-4.2v-4.9
	v-3.8V30h0.8V36.5z M420.1,37.2v3.3v4.3v3.8v7.2h-0.8v-7.2v-3.8v-4.3v-3.3v-5.5h0.8V37.2z M421.2,38.4V41v3.4v3v5.9h-0.8v-5.9v-3V41
	v-2.6v-4.2h0.8V38.4z M422.3,37.6v3v4v3.5v6.7h-0.8v-6.7v-3.5v-4v-3v-5.1h0.8V37.6z M423.3,36.5v3.8v4.9v4.3v8.1h-0.8v-8.1v-4.3
	v-4.9v-3.8V30h0.8V36.5z M424.4,35v4.7v6v5.2v9.8h-0.8v-9.8v-5.2v-6V35v-8.1h0.8V35z M425.5,37.9v2.9v3.8v3.4v6.5h-0.8v-6.5v-3.4
	v-3.8v-2.9V33h0.8V37.9z M426.6,40.2v1.4v2v1.9v3.9h-0.8v-3.9v-1.9v-2v-1.4V38h0.8V40.2z M427.6,39.7v1.7v2.4v2.2v4.4h-0.8v-4.4
	v-2.2v-2.4v-1.7V37h0.8V39.7z M428.7,39.3v2V44v2.5v4.9h-0.8v-4.9V44v-2.7v-2V36h0.8V39.3z M429.8,38.8v2.3v3.1V47v5.4H429V47v-2.8
	v-3.1v-2.3V35h0.8V38.8z M430.9,38.7v2.4v3.2v2.9v5.6h-0.8v-5.6v-2.9v-3.2v-2.4v-3.9h0.8V38.7z M431.9,37.7v3v4v3.5v6.7h-0.8v-6.7
	v-3.5v-4v-3v-5.1h0.8V37.7z M433,35.7v4.3v5.5v4.7v9h-0.8v-9v-4.7v-5.5v-4.3v-7.3h0.8V35.7z M434.1,35.4v4.4v5.6v4.9v9.2h-0.8v-9.2
	v-4.9v-5.6v-4.4v-7.6h0.8V35.4z M435.2,35.2v4.5v5.8v5V60h-0.8v-9.5v-5v-5.8v-4.5v-7.8h0.8V35.2z M436.2,36.4v3.8v4.9v4.3v8.1h-0.8
	v-8.1v-4.3v-4.9v-3.8v-6.5h0.8V36.4z M437.3,36v4v5.2v4.5v8.6h-0.8v-8.6v-4.5v-5.2v-4v-6.9h0.8V36z M438.4,37.7v3v3.9V48v6.6h-0.8
	V48v-3.4v-3.9v-3v-5h0.8V37.7z M439.5,37.4v3.2v4.2v3.7v7h-0.8v-7v-3.7v-4.2v-3.2V32h0.8V37.4z M440.5,38.3v2.6v3.4v3.1v6h-0.8v-6
	v-3.1v-3.4v-2.6V34h0.8V38.3z M441.6,39.3v2V44v2.5v4.9h-0.8v-4.9V44v-2.7v-2v-3.2h0.8V39.3z M442.7,38.8v2.3v3.1V47v5.4h-0.8V47
	v-2.8v-3.1v-2.3V35h0.8V38.8z M443.8,39.3v2V44v2.5v4.9H443v-4.9V44v-2.7v-2v-3.2h0.8V39.3z M444.8,40.1v1.5v2.1v2v3.9H444v-3.9v-2
	v-2.1v-1.5v-2.3h0.8V40.1z M445.9,41v0.9v1.4v1.4v3h-0.8v-3v-1.4v-1.4V41v-1.3h0.8V41z M447,41.8v0.4v0.8V44v2h-0.8v-2v-0.9v-0.8
	v-0.4v-0.4h0.8V41.8z M448.1,41.5v0.6v1v1.1v2.3h-0.8v-2.3v-1.1v-1v-0.6v-0.7h0.8V41.5z M449.1,40.4v1.3v1.8v1.8v3.6h-0.8v-3.6v-1.8
	v-1.8v-1.3v-1.9h0.8V40.4z M450.2,40v1.6v2.2v2.1V50h-0.8v-4.1v-2.1v-2.2V40v-2.5h0.8V40z M451.3,40.4v1.3v1.8v1.8v3.6h-0.8v-3.6
	v-1.8v-1.8v-1.3v-1.9h0.8V40.4z M452.4,40.2v1.5v2.1v1.9v3.9h-0.8v-3.9v-1.9v-2.1v-1.5v-2.2h0.8V40.2z M453.4,41v0.9v1.4v1.4v3h-0.8
	v-3v-1.4v-1.4V41v-1.3h0.8V41z M454.5,40.8v1.1v1.6V45v3.2h-0.8V45v-1.5v-1.6v-1.1v-1.5h0.8V40.8z M455.6,41.8v0.4V43v0.9v2h-0.8v-2
	V43v-0.8v-0.4v-0.4h0.8V41.8z M456.7,41.7v0.5v0.9v1v2.1h-0.8v-2.1v-1v-0.9v-0.5v-0.5h0.8V41.7z M457.7,34.9v4.7v6.1v5.2v9.9h-0.8
	v-9.9v-5.2v-6.1v-4.7v-8.2h0.8V34.9z M458.8,35.8V40v5.3V50v8.8H458V50v-4.6V40v-4.1v-7.1h0.8V35.8z M459.9,33.9v5.3V46v5.8v10.9
	h-0.8V51.9V46v-6.8v-5.3v-9.3h0.8V33.9z M461,32.1v6.5v8.2v7v13h-0.8v-13v-7v-8.2v-6.5V20.7h0.8V32.1z M462,32.8v6.1v7.6V53v12.2
	h-0.8V53v-6.5v-7.6v-6.1V22.2h0.8V32.8z M463.1,29.4v8.2v10.2v8.7v16.1h-0.8V56.4v-8.7V37.5v-8.2V14.9h0.8V29.4z M464.2,30.2v7.7
	v9.6v8.2v15.2h-0.8V55.6v-8.2v-9.6v-7.7V16.6h0.8V30.2z M465.3,27.8V37v11.4V58v17.8h-0.8V58v-9.6V37v-9.2V11.6h0.8V27.8z
	 M466.3,28.2v8.9v11.1v9.4v17.3h-0.8V57.5v-9.4V37.1v-8.9V12.6h0.8V28.2z M467.4,29.8v7.9v9.9V56v15.5h-0.8V56v-8.4v-9.9v-7.9V15.9
	h0.8V29.8z M468.5,32.6v6.2v7.8v6.7v12.4h-0.8V53.2v-6.7v-7.8v-6.2V21.8h0.8V32.6z M469.6,34.6v4.9v6.3v5.4v10.2h-0.8V51.2v-5.4
	v-6.3v-4.9v-8.5h0.8V34.6z M470.6,34.9v4.7v6v5.2v9.8h-0.8v-9.8v-5.2v-6v-4.7v-8.2h0.8V34.9z M471.7,30.3v7.6v9.5v8.1v15.1h-0.8
	V55.5v-8.1v-9.5v-7.6V16.8h0.8V30.3z M472.8,35.8V40v5.4V50v8.8H472V50v-4.7V40v-4.2v-7.2h0.8V35.8z M473.9,36.7v3.6V45v4.1v7.8
	h-0.8v-7.8V45v-4.7v-3.6v-6.2h0.8V36.7z M474.9,37.6v3.1v4v3.5V55h-0.8v-6.8v-3.5v-4v-3.1v-5.2h0.8V37.6z M476,35.8V40v5.3V50v8.8
	h-0.8V50v-4.6V40v-4.2v-7.1h0.8V35.8z M477.1,37.3v3.3v4.2v3.7v7.1h-0.8v-7.1v-3.7v-4.2v-3.3v-5.5h0.8V37.3z M478.2,38.7v2.3v3.1
	v2.8v5.5h-0.8v-5.5v-2.8v-3.1v-2.3v-3.9h0.8V38.7z M479.2,37.2v3.3v4.3v3.8v7.2h-0.8v-7.2v-3.8v-4.3v-3.3v-5.6h0.8V37.2z
	 M480.3,35.7v4.2v5.4v4.7V59h-0.8v-8.9v-4.7v-5.4v-4.2v-7.3h0.8V35.7z M481.4,31.9v6.6v8.3v7.1V67h-0.8V53.8v-7.1v-8.3v-6.6V20.4
	h0.8V31.9z M482.5,32.7v6.1v7.7v6.6v12.3h-0.8V53.1v-6.6v-7.7v-6.1V22.1h0.8V32.7z M483.5,31.2v7v8.8v7.5v14h-0.8v-14v-7.5v-8.8v-7
	V18.9h0.8V31.2z M484.6,27.3v9.5v11.8v10v18.4h-0.8V58.5v-10V36.8v-9.5V10.5h0.8V27.3z M485.7,30.2v7.6v9.6v8.1v15.1h-0.8V55.6v-8.1
	v-9.6v-7.6V16.8h0.8V30.2z M486.8,32.6v6.2v7.8v6.7v12.4H486V53.2v-6.7v-7.8v-6.2V21.8h0.8V32.6z M487.8,34.1v5.3V46v5.7v10.8H487
	V51.7V46v-6.7v-5.3v-9.1h0.8V34.1z M488.9,31.8v6.7v8.4V54v13.3h-0.8V54v-7.2v-8.4v-6.7V20.1h0.8V31.8z M490,30.3v7.6v9.5v8.1v15.1
	h-0.8V55.5v-8.1v-9.5v-7.6V16.8h0.8V30.3z M491.1,30.9v7.2v9.1v7.7v14.4h-0.8V54.9v-7.7v-9.1v-7.2V18.2h0.8V30.9z M492.1,35.5v4.4
	v5.6v4.9v9.2h-0.8v-9.2v-4.9v-5.6v-4.4v-7.5h0.8V35.5z M493.2,37v3.4v4.4v3.9v7.4h-0.8v-7.4v-3.9v-4.4V37v-5.8h0.8V37z M494.3,34
	v5.3V46v5.8v10.8h-0.8V51.8V46v-6.7V34v-9.2h0.8V34z M495.4,32.6v6.1v7.7v6.6v12.4h-0.8V53.1v-6.6v-7.7v-6.1V21.9h0.8V32.6z
	 M496.4,36.5v3.7v4.8v4.2v8h-0.8v-8v-4.2v-4.8v-3.7v-6.4h0.8V36.5z M497.5,30.9v7.2v9.1v7.7v14.3h-0.8V54.9v-7.7v-9.1v-7.2V18.2h0.8
	V30.9z M498.6,32.5v6.2v7.8v6.7v12.5h-0.8V53.2v-6.7v-7.8v-6.2V21.7h0.8V32.5z M499.7,34.2v5.2v6.6v5.7v10.6h-0.8V51.6v-5.7v-6.6
	v-5.2v-9h0.8V34.2z M500.7,35.8V40v5.3V50v8.8h-0.8V50v-4.6V40v-4.1v-7.1h0.8V35.8z M501.8,37.5v3.1v4.1v3.6v6.9H501v-6.9v-3.6v-4.1
	v-3.1v-5.3h0.8V37.5z M502.9,39.1v2.1v2.8v2.6v5.1h-0.8v-5.1v-2.6v-2.8v-2.1v-3.4h0.8V39.1z M504,40.8v1.1v1.6V45v3.2h-0.8V45v-1.6
	v-1.6v-1.1v-1.6h0.8V40.8z M505,40.2v1.4v2v1.9v3.8h-0.8v-3.8v-1.9v-2v-1.4v-2.2h0.8V40.2z M506.1,38.1v2.8v3.6v3.2V54h-0.8v-6.2
	v-3.2v-3.6v-2.8v-4.6h0.8V38.1z M507.2,37.1v3.4v4.4v3.8V56h-0.8v-7.3v-3.8v-4.4v-3.4v-5.7h0.8V37.1z M508.3,38.6V41v3.2v2.9v5.6
	h-0.8v-5.6v-2.9V41v-2.4v-4h0.8V38.6z M509.3,38.1v2.7v3.6v3.2v6.2h-0.8v-6.2v-3.2v-3.6v-2.7v-4.6h0.8V38.1z M510.4,37.5v3.1v4v3.6
	v6.8h-0.8v-6.8v-3.6v-4v-3.1v-5.2h0.8V37.5z M511.5,39.1v2.1v2.8v2.6v5h-0.8v-5v-2.6v-2.8v-2.1v-3.4h0.8V39.1z M512.6,38.8v2.3v3.1
	V47v5.4h-0.8V47v-2.8v-3.1v-2.3V35h0.8V38.8z M513.6,40.8v1v1.6V45v3.2h-0.8V45v-1.5v-1.6v-1v-1.5h0.8V40.8z M514.7,40v1.5v2.2v2v4
	h-0.8v-4v-2v-2.2V40v-2.4h0.8V40z M515.8,41.7v0.5v0.9v1v2.1H515v-2.1v-1v-0.9v-0.5v-0.5h0.8V41.7z M516.9,41.3V42v1.2v1.2v2.6h-0.8
	v-2.6v-1.2V42v-0.8v-1h0.8V41.3z M517.9,41.3V42v1.2v1.2v2.6h-0.8v-2.6v-1.2V42v-0.8v-1h0.8V41.3z M519,41.7v0.5v0.9v1v2.1h-0.8
	v-2.1v-1v-0.9v-0.5v-0.5h0.8V41.7z M520.1,40v1.5v2.2v2v4h-0.8v-4v-2v-2.2V40v-2.4h0.8V40z M521.2,40.8v1v1.6V45v3.2h-0.8V45v-1.5
	v-1.6v-1v-1.5h0.8V40.8z M522.2,38.8v2.3v3.1V47v5.4h-0.8V47v-2.8v-3.1v-2.3V35h0.8V38.8z M523.3,38.2v2.7v3.5v3.2v6.1h-0.8v-6.1
	v-3.2v-3.5v-2.7v-4.4h0.8V38.2z M524.4,36.2v3.9v5v4.4v8.3h-0.8v-8.3v-4.4v-5v-3.9v-6.7h0.8V36.2z M525.5,38.7v2.4v3.2v2.9v5.6h-0.8
	v-5.6v-2.9v-3.2v-2.4v-4h0.8V38.7z M526.5,39.1v2.1v2.8v2.6v5.1h-0.8v-5.1v-2.6v-2.8v-2.1v-3.4h0.8V39.1z M527.6,37.8v2.9v3.8V48
	v6.6h-0.8V48v-3.4v-3.8v-2.9v-4.9h0.8V37.8z M528.7,38.7V41v3.2v2.9v5.6h-0.8v-5.6v-2.9V41v-2.4v-4h0.8V38.7z M529.8,40.6v1.2v1.8
	v1.7v3.5H529v-3.5v-1.7v-1.8v-1.2v-1.8h0.8V40.6z M530.8,41v0.9v1.4v1.4v2.9H530v-2.9v-1.4v-1.4V41v-1.3h0.8V41z M531.9,39.6v1.8
	v2.5v2.3v4.6h-0.8v-4.6v-2.3v-2.5v-1.8v-2.9h0.8V39.6z M533,38.1v2.7v3.6v3.2v6.2h-0.8v-6.2v-3.2v-3.6v-2.7v-4.5h0.8V38.1z
	 M534.1,36.7v3.6V45v4.1v7.8h-0.8v-7.8V45v-4.7v-3.6v-6.2h0.8V36.7z M535.1,35.2v4.5v5.8v5V60h-0.8v-9.5v-5v-5.8v-4.5v-7.8h0.8V35.2
	z M536.2,33.8v5.4v6.9V52v11.1h-0.8V52v-5.9v-6.9v-5.4v-9.5h0.8V33.8z M537.3,32.3v6.3v8v6.8v12.7h-0.8V53.5v-6.8v-8v-6.3V21.2h0.8
	V32.3z M538.4,37.3v3.3v4.2v3.7v7.2h-0.8v-7.2v-3.7v-4.2v-3.3v-5.5h0.8V37.3z M539.4,33.9v5.4v6.8v5.9v11h-0.8v-11v-5.9v-6.8v-5.4
	v-9.4h0.8V33.9z M540.5,35.1v4.6v5.9v5.1v9.6h-0.8v-9.6v-5.1v-5.9v-4.6v-8h0.8V35.1z M541.6,37.7v3v3.9V48v6.6h-0.8V48v-3.5v-3.9v-3
	v-5h0.8V37.7z M542.7,36.4v3.8v4.9v4.3v8.2h-0.8v-8.2v-4.3v-4.9v-3.8v-6.5h0.8V36.4z M543.7,32.3v6.3v8v6.8v12.7h-0.8V53.5v-6.8v-8
	v-6.3V21.2h0.8V32.3z M544.8,31.8v6.7v8.4V54v13.4H544V54v-7.2v-8.4v-6.7V20h0.8V31.8z M545.9,33.1V39v7.4v6.3v11.8h-0.8V52.7v-6.3
	V39v-5.8V22.9h0.8V33.1z M547,35.1v4.6v5.9v5.1v9.6h-0.8v-9.6v-5.1v-5.9v-4.6v-7.9h0.8V35.1z M548,33.8v5.4v6.9V52v11h-0.8V52v-5.9
	v-6.9v-5.4v-9.4h0.8V33.8z M549.1,31.7v6.7v8.4V54v13.4h-0.8V54v-7.2v-8.4v-6.7V20h0.8V31.7z M550.2,29.1v8.3v10.4v8.8V73h-0.8V56.6
	v-8.8V37.5v-8.3V14.5h0.8V29.1z M551.3,34.2v5.2v6.6v5.7v10.6h-0.8V51.6v-5.7v-6.6v-5.2v-9h0.8V34.2z M552.3,38.2v2.7v3.5v3.2v6.1
	h-0.8v-6.1v-3.2v-3.5v-2.7v-4.4h0.8V38.2z M553.4,37.4v3.2v4.1v3.6v7h-0.8v-7v-3.6v-4.1v-3.2v-5.3h0.8V37.4z M554.5,36.6v3.7V45v4.1
	V57h-0.8v-7.9V45v-4.7v-3.7v-6.2h0.8V36.6z M555.6,35.8V40v5.3v4.6v8.8h-0.8v-8.8v-4.6V40v-4.1v-7.1h0.8V35.8z M556.6,35.6v4.3v5.5
	v4.8v9h-0.8v-9v-4.8v-5.5v-4.3v-7.4h0.8V35.6z M557.7,33.8v5.4v6.9V52v11h-0.8V52v-5.9v-6.9v-5.4v-9.4h0.8V33.8z M558.8,30.4v7.5
	v9.4v8v14.9H558V55.4v-8v-9.4v-7.5V17.1h0.8V30.4z M559.9,30v7.8v9.7v8.3v15.4h-0.8V55.8v-8.3v-9.7V30V16.3h0.8V30z M560.9,29.6v8
	v10v8.5V72h-0.8V56.2v-8.5v-10v-8V15.4h0.8V29.6z M562,31.7v6.7v8.5v7.2v13.5h-0.8V54.1v-7.2v-8.5v-6.7V19.9h0.8V31.7z M563.1,31
	v7.2v9v7.7v14.3h-0.8V54.8v-7.7v-9V31V18.4h0.8V31z M564.2,34v5.3V46v5.8v10.9h-0.8V51.8V46v-6.7V34v-9.2h0.8V34z M565.2,33.4v5.7
	v7.2v6.2V64h-0.8V52.4v-6.2v-7.2v-5.7v-9.9h0.8V33.4z M566.3,35v4.7v6v5.2v9.7h-0.8v-9.7v-5.2v-6V35v-8.1h0.8V35z M567.4,36.7v3.6
	V45v4.1v7.8h-0.8v-7.8V45v-4.7v-3.6v-6.2h0.8V36.7z M568.5,35.8V40v5.3V50v8.8h-0.8V50v-4.6V40v-4.2v-7.1h0.8V35.8z M569.5,36.7v3.6
	V45v4.1v7.8h-0.8v-7.8V45v-4.7v-3.6v-6.2h0.8V36.7z M570.6,38.1v2.7v3.6v3.2v6.2h-0.8v-6.2v-3.2v-3.6v-2.7v-4.5h0.8V38.1z
	 M571.7,39.6v1.8v2.5v2.3v4.6h-0.8v-4.6v-2.3v-2.5v-1.8v-2.9h0.8V39.6z M572.8,41v0.9v1.4v1.4v2.9H572v-2.9v-1.4v-1.4V41v-1.3h0.8
	V41z M573.8,40.6v1.2v1.8v1.7v3.5H573v-3.5v-1.7v-1.8v-1.2v-1.8h0.8V40.6z M574.9,38.7V41v3.2v2.9v5.6h-0.8v-5.6v-2.9V41v-2.4v-4
	h0.8V38.7z M576,37.8v2.9v3.8V48v6.6h-0.8V48v-3.4v-3.8v-2.9v-4.9h0.8V37.8z M577.1,38.7v2.4v3.2v2.9v5.6h-0.8v-5.6v-2.9v-3.2v-2.4
	v-4h0.8V38.7z M578.1,38.2v2.7v3.6v3.2v6.1h-0.8v-6.1v-3.2v-3.6v-2.7v-4.5h0.8V38.2z M579.2,39.6v1.8v2.5v2.3v4.5h-0.8v-4.5v-2.3
	v-2.5v-1.8v-2.9h0.8V39.6z M580.3,39.3v2V44v2.5v4.9h-0.8v-4.9V44v-2.7v-2V36h0.8V39.3z M581.4,41.1V42v1.4v1.4v2.9h-0.8v-2.9v-1.4
	V42v-0.9v-1.2h0.8V41.1z M582.4,40.4v1.3v1.9v1.8v3.7h-0.8v-3.7v-1.8v-1.9v-1.3v-2h0.8V40.4z M583.5,35.8V40v5.3V50v8.8h-0.8V50
	v-4.6V40v-4.2v-7.1h0.8V35.8z M584.6,36.7v3.6V45v4.1v7.8h-0.8v-7.8V45v-4.7v-3.6v-6.2h0.8V36.7z M585.7,38.7v2.4v3.2v2.9v5.6h-0.8
	v-5.6v-2.9v-3.2v-2.4v-3.9h0.8V38.7z M586.7,37.8v2.9v3.8V48v6.6h-0.8V48v-3.4v-3.8v-2.9v-4.9h0.8V37.8z M587.8,38.1v2.7v3.6v3.2
	v6.2H587v-6.2v-3.2v-3.6v-2.7v-4.6h0.8V38.1z M588.9,36.5v3.7v4.8v4.2v8h-0.8v-8v-4.2v-4.8v-3.7v-6.4h0.8V36.5z M590,36.9v3.5v4.5v4
	v7.6h-0.8v-7.6v-4v-4.5v-3.5v-5.9h0.8V36.9z M591,35.8V40v5.4V50v8.8h-0.8V50v-4.7V40v-4.2v-7.2h0.8V35.8z M592.1,36V40v5.2v4.5v8.6
	h-0.8v-8.6v-4.5V40V36v-7h0.8V36z M593.2,36.7v3.6V45v4.1v7.8h-0.8v-7.8V45v-4.6v-3.6v-6.1h0.8V36.7z M594.3,38v2.8v3.7v3.3V54h-0.8
	v-6.3v-3.3v-3.7V38v-4.7h0.8V38z M595.3,39v2.2v3v2.7V52h-0.8v-5.2v-2.7v-3V39v-3.6h0.8V39z M596.4,39.1v2.1v2.9v2.6v5.1h-0.8v-5.1
	v-2.6v-2.9v-2.1v-3.4h0.8V39.1z M597.5,39.5v1.8v2.5v2.3v4.6h-0.8v-4.6v-2.3v-2.5v-1.8v-3h0.8V39.5z M598.6,40v1.6v2.2v2.1v4.1h-0.8
	v-4.1v-2.1v-2.2V40v-2.5h0.8V40z M599.6,40.4v1.3v1.9v1.8V49h-0.8v-3.6v-1.8v-1.9v-1.3v-2h0.8V40.4z M600.7,39.6v1.8v2.5v2.3v4.6
	h-0.8v-4.6v-2.3v-2.5v-1.8v-2.9h0.8V39.6z M601.8,40.2v1.4v2v1.9v3.8H601v-3.8v-1.9v-2v-1.4v-2.2h0.8V40.2z M602.9,40.9v1v1.5v1.5v3
	h-0.8v-3v-1.5v-1.5v-1v-1.4h0.8V40.9z M603.9,40.2v1.4v2v1.9v3.8h-0.8v-3.8v-1.9v-2v-1.4V38h0.8V40.2z M605,39.5v1.9v2.6v2.3v4.6
	h-0.8v-4.6v-2.3v-2.6v-1.9v-3h0.8V39.5z M606.1,37.7v3v3.9v3.5v6.6h-0.8v-6.6v-3.5v-3.9v-3v-5h0.8V37.7z M607.2,38.1v2.7v3.6v3.2
	v6.2h-0.8v-6.2v-3.2v-3.6v-2.7v-4.6h0.8V38.1z M608.2,37.4v3.2v4.2v3.7v7h-0.8v-7v-3.7v-4.2v-3.2V32h0.8V37.4z M609.3,35.5v4.3v5.6
	v4.8v9.1h-0.8v-9.1v-4.8v-5.6v-4.3v-7.5h0.8V35.5z M610.4,36.9v3.5v4.5v4v7.5h-0.8v-7.5v-4v-4.5v-3.5V31h0.8V36.9z M611.5,38v2.8
	v3.7v3.3v6.3h-0.8v-6.3v-3.3v-3.7V38v-4.7h0.8V38z M612.5,38.7v2.3v3.1v2.8v5.5h-0.8v-5.5v-2.8v-3.1v-2.3v-3.9h0.8V38.7z
	 M613.6,37.7v3v4v3.5v6.7h-0.8v-6.7v-3.5v-4v-3v-5.1h0.8V37.7z M614.7,36.9v3.5v4.5v4v7.5h-0.8v-7.5v-4v-4.5v-3.5V31h0.8V36.9z
	 M615.8,37.2v3.3v4.3v3.8v7.2H615v-7.2v-3.8v-4.3v-3.3v-5.6h0.8V37.2z M616.8,39.4v1.9V44v2.4v4.8H616v-4.8V44v-2.6v-1.9v-3.1h0.8
	V39.4z M617.9,40.1v1.5v2.1v2v3.9h-0.8v-3.9v-2v-2.1v-1.5v-2.3h0.8V40.1z M619,38.7v2.4v3.2v2.8v5.5h-0.8v-5.5v-2.8v-3.2v-2.4v-3.9
	h0.8V38.7z M620.1,38.1v2.8v3.6v3.3V54h-0.8v-6.3v-3.3v-3.6v-2.8v-4.6h0.8V38.1z M621.1,37.3v3.3v4.2v3.7v7.2h-0.8v-7.2v-3.7v-4.2
	v-3.3v-5.5h0.8V37.3z M622.2,32.3v6.3v8v6.8v12.7h-0.8V53.5v-6.8v-8v-6.3V21.2h0.8V32.3z M623.3,33.8v5.4v6.9V52v11.1h-0.8V52v-5.9
	v-6.9v-5.4v-9.5h0.8V33.8z M624.4,35.2v4.5v5.8v5V60h-0.8v-9.5v-5v-5.8v-4.5v-7.8h0.8V35.2z M625.4,34.1v5.2V46v5.7v10.7h-0.8V51.7
	V46v-6.6v-5.2V25h0.8V34.1z M626.5,36.2v4v5.1v4.4V58h-0.8v-8.4v-4.4v-5.1v-4v-6.8h0.8V36.2z M627.6,38.2v2.7v3.5v3.2v6.1h-0.8v-6.1
	v-3.2v-3.5v-2.7v-4.5h0.8V38.2z M628.7,40.3v1.4v2v1.9v3.8h-0.8v-3.8v-1.9v-2v-1.4v-2.1h0.8V40.3z M629.7,39.6v1.8v2.5v2.3v4.5h-0.8
	v-4.5v-2.3v-2.5v-1.8v-2.9h0.8V39.6z M630.8,36.9v3.5v4.5v4v7.6H630v-7.6v-4v-4.5v-3.5V31h0.8V36.9z M631.9,35.7v4.2v5.4v4.7V59
	h-0.8v-8.9v-4.7v-5.4v-4.2v-7.3h0.8V35.7z M633,37.6v3.1v4v3.6V55h-0.8v-6.8v-3.6v-4v-3.1v-5.2h0.8V37.6z M634,36.9v3.5v4.5v4v7.6
	h-0.8v-7.6v-4v-4.5v-3.5V31h0.8V36.9z M635.1,36.2v3.9v5v4.4v8.3h-0.8v-8.3v-4.4v-5v-3.9v-6.7h0.8V36.2z M636.2,38.2v2.7v3.5v3.2
	v6.1h-0.8v-6.1v-3.2v-3.5v-2.7v-4.4h0.8V38.2z M637.3,37.8v2.9v3.9V48v6.6h-0.8V48v-3.4v-3.9v-2.9v-4.9h0.8V37.8z M638.3,40.3v1.4v2
	v1.9v3.7h-0.8v-3.7v-1.9v-2v-1.4v-2.1h0.8V40.3z M639.4,39.3v2V44v2.5v4.8h-0.8v-4.8V44v-2.7v-2v-3.2h0.8V39.3z M640.5,41.5v0.7v1.1
	v1.1v2.4h-0.8v-2.4v-1.1v-1.1v-0.7v-0.8h0.8V41.5z M641.6,40.9v1v1.5v1.5V48h-0.8v-3.1v-1.5v-1.5v-1v-1.4h0.8V40.9z M642.6,40.9v1
	v1.5v1.5V48h-0.8v-3.1v-1.5v-1.5v-1v-1.4h0.8V40.9z M643.7,41.5v0.7v1.1v1.1v2.4h-0.8v-2.4v-1.1v-1.1v-0.7v-0.8h0.8V41.5z
	 M644.8,39.3v2V44v2.5v4.8H644v-4.8V44v-2.7v-2v-3.2h0.8V39.3z M645.9,40.3v1.4v2v1.9v3.7h-0.8v-3.7v-1.9v-2v-1.4v-2.1h0.8V40.3z
	 M646.9,37.8v2.9v3.9V48v6.6h-0.8V48v-3.4v-3.9v-2.9v-4.9h0.8V37.8z M648,38.2v2.7v3.5v3.2v6.1h-0.8v-6.1v-3.2v-3.5v-2.7v-4.4h0.8
	V38.2z M649.1,36.9v3.5v4.5v4v7.6h-0.8v-7.6v-4v-4.5v-3.5V31h0.8V36.9z M650.2,37.6v3.1v4v3.6V55h-0.8v-6.8v-3.6v-4v-3.1v-5.2h0.8
	V37.6z M651.2,35.7v4.2v5.4v4.7V59h-0.8v-8.9v-4.7v-5.4v-4.2v-7.3h0.8V35.7z M652.3,36.9v3.5v4.5v4v7.6h-0.8v-7.6v-4v-4.5v-3.5V31
	h0.8V36.9z M653.4,39.6v1.8v2.5v2.3v4.5h-0.8v-4.5v-2.3v-2.5v-1.8v-2.9h0.8V39.6z M654.5,40.3v1.4v2v1.9v3.8h-0.8v-3.8v-1.9v-2v-1.4
	v-2.1h0.8V40.3z M655.5,38.2v2.7v3.5v3.2v6.1h-0.8v-6.1v-3.2v-3.5v-2.7v-4.5h0.8V38.2z M656.6,36.2v4v5.1v4.4V58h-0.8v-8.4v-4.4
	v-5.1v-4v-6.8h0.8V36.2z M657.7,34.1v5.2V46v5.7v10.7h-0.8V51.7V46v-6.6v-5.2V25h0.8V34.1z M658.8,32.1v6.5v8.2v7v13H658v-13v-7
	v-8.2v-6.5V20.7h0.8V32.1z M659.8,32.8v6v7.6V53v12.2H659V53v-6.5v-7.6v-6V22.2h0.8V32.8z M660.9,31.2v7v8.8v7.5v14h-0.8v-14v-7.5
	v-8.8v-7V18.8h0.8V31.2z M662,34.9v4.7v6v5.2v9.8h-0.8v-9.8v-5.2v-6v-4.7v-8.1h0.8V34.9z M663.1,32.9v6v7.6v6.5V65h-0.8V52.9v-6.5
	v-7.6v-6V22.4h0.8V32.9z M664.1,31.9v6.6v8.3v7.1v13.3h-0.8V53.9v-7.1v-8.3v-6.6V20.2h0.8V31.9z M665.2,35.6v4.3v5.5v4.8v9h-0.8v-9
	v-4.8v-5.5v-4.3v-7.4h0.8V35.6z M666.3,33.7v5.5v7v6v11.2h-0.8V52.1v-6v-7v-5.5v-9.6h0.8V33.7z M667.4,31.2v7.1v8.9v7.5v14h-0.8v-14
	v-7.5v-8.9v-7.1V18.8h0.8V31.2z M668.4,32.1v6.5v8.2v7v13h-0.8v-13v-7v-8.2v-6.5V20.7h0.8V32.1z M669.5,31.9v6.6v8.3v7.1v13.2h-0.8
	V53.9v-7.1v-8.3v-6.6V20.3h0.8V31.9z M670.6,32.8v6v7.6V53v12.2h-0.8V53v-6.5v-7.6v-6V22.3h0.8V32.8z M671.7,30.5V38v9.3v7.9V70
	h-0.8V55.2v-7.9V38v-7.4V17.4h0.8V30.5z M672.7,27.7v9.2v11.5v9.7v18h-0.8v-18v-9.7V36.9v-9.2V11.3h0.8V27.7z M673.8,33.2V39v7.3
	v6.2v11.7H673V52.5v-6.2V39v-5.8v-10h0.8V33.2z M674.9,36.3v3.9v5v4.4v8.3h-0.8v-8.3v-4.4v-5v-3.9v-6.6h0.8V36.3z M676,35.2v4.6v5.8
	v5.1v9.5h-0.8v-9.5v-5.1v-5.8v-4.6v-7.9h0.8V35.2z M677,34v5.3V46v5.8v10.8h-0.8V51.7V46v-6.7V34v-9.2h0.8V34z M678.1,32.9v6v7.5
	v6.5v12.1h-0.8V52.9v-6.5v-7.5v-6V22.5h0.8V32.9z M679.2,32.6v6.2v7.8v6.7v12.4h-0.8V53.2v-6.7v-7.8v-6.2V21.8h0.8V32.6z
	 M680.3,32.8v6v7.6v6.5v12.1h-0.8V52.9v-6.5v-7.6v-6V22.3h0.8V32.8z M681.3,29v8.4v10.5v8.9v16.4h-0.8V56.8v-8.9V37.4V29V14.2h0.8
	V29z M682.4,28.6v8.7V48v9.1v16.9h-0.8V57.2V48V37.3v-8.7V13.3h0.8V28.6z M683.5,28.2v8.9v11.1v9.4V75h-0.8V57.6v-9.4V37.1v-8.9
	V12.4h0.8V28.2z M684.6,30.5V38v9.4v8v14.8h-0.8V55.3v-8V38v-7.5V17.3h0.8V30.5z M685.6,29.7v8v10v8.5v15.7h-0.8V56.1v-8.5v-10v-8
	V15.6h0.8V29.7z M686.7,33v5.9v7.5v6.4v11.9h-0.8V52.8v-6.4v-7.5V33V22.7h0.8V33z M687.8,32.3v6.3v8v6.8v12.7H687V53.4v-6.8v-8v-6.3
	V21.3h0.8V32.3z M688.9,31.7v6.7v8.4v7.2v13.4h-0.8V54.1v-7.2v-8.4v-6.7V20h0.8V31.7z M689.9,34.1v5.2V46v5.7v10.7h-0.8V51.7V46
	v-6.6v-5.2V25h0.8V34.1z M691,32.9v6v7.5v6.5V65h-0.8V52.9v-6.5v-7.5v-6V22.5h0.8V32.9z M692.1,34.1v5.2V46v5.7v10.7h-0.8V51.7V46
	v-6.6v-5.2V25h0.8V34.1z M693.2,36.2v4v5.1v4.4V58h-0.8v-8.4v-4.4v-5.1v-4v-6.8h0.8V36.2z M694.2,38.2v2.7v3.5v3.2v6.1h-0.8v-6.1
	v-3.2v-3.5v-2.7v-4.5h0.8V38.2z M695.3,40.3v1.4v2v1.9v3.8h-0.8v-3.8v-1.9v-2v-1.4v-2.1h0.8V40.3z M696.4,39.6v1.8v2.5v2.3v4.5h-0.8
	v-4.5v-2.3v-2.5v-1.8v-2.9h0.8V39.6z M697.5,36.9v3.5v4.5v4v7.6h-0.8v-7.6v-4v-4.5v-3.5V31h0.8V36.9z M698.5,35.7v4.2v5.4v4.7V59
	h-0.8v-8.9v-4.7v-5.4v-4.2v-7.3h0.8V35.7z M699.6,36.9v3.5v4.5v4v7.6h-0.8v-7.6v-4v-4.5v-3.5V31h0.8V36.9z M700.7,36.2v3.9v5v4.4
	v8.3h-0.8v-8.3v-4.4v-5v-3.9v-6.7h0.8V36.2z M701.8,38.2v2.7v3.5v3.2v6.1H701v-6.1v-3.2v-3.5v-2.7v-4.4h0.8V38.2z M702.8,37.8v2.9
	v3.9V48v6.6h-0.8V48v-3.4v-3.9v-2.9v-4.9h0.8V37.8z M703.9,40.3v1.4v2v1.9v3.7h-0.8v-3.7v-1.9v-2v-1.4v-2.1h0.8V40.3z M705,39.3v2
	V44v2.5v4.8h-0.8v-4.8V44v-2.7v-2v-3.2h0.8V39.3z M706.1,35.9V40v5.2v4.6v8.6h-0.8v-8.6v-4.6V40v-4.1v-7h0.8V35.9z M707.1,36.8v3.6
	V45v4v7.7h-0.8V49v-4v-4.6v-3.6v-6.1h0.8V36.8z M708.2,35.1v4.6v5.9v5.1v9.6h-0.8v-9.6v-5.1v-5.9v-4.6v-7.9h0.8V35.1z M709.3,33.5
	v5.6v7.1v6.1v11.4h-0.8V52.3v-6.1v-7.1v-5.6v-9.7h0.8V33.5z M710.4,34.1v5.2V46v5.7v10.7h-0.8V51.7V46v-6.6v-5.2v-9h0.8V34.1z
	 M711.4,31.2v7.1v8.8v7.5v14h-0.8v-14v-7.5v-8.8v-7.1V18.8h0.8V31.2z M712.5,31.9v6.6v8.3v7.1v13.2h-0.8V53.9v-7.1v-8.3v-6.6V20.3
	h0.8V31.9z M713.6,29.8v7.9v9.9V56v15.5h-0.8V56v-8.4v-9.9v-7.9V15.9h0.8V29.8z M714.7,30.2v7.7v9.6v8.1v15.1h-0.8V55.6v-8.1v-9.6
	v-7.7V16.7h0.8V30.2z M715.7,31.6v6.8v8.5v7.3v13.6H715V54.2v-7.3v-8.5v-6.8V19.7h0.8V31.6z M716.8,34v5.3V46v5.8v10.9H716V51.8V46
	v-6.7V34v-9.2h0.8V34z M717.9,35.7v4.2v5.4v4.7V59h-0.8v-8.9v-4.7v-5.4v-4.2v-7.3h0.8V35.7z M719,36V40v5.2v4.6v8.6h-0.8v-8.6v-4.6
	V40V36v-7h0.8V36z M720,36.7v3.6V45V49v7.8h-0.8V49V45v-4.6v-3.6v-6.1h0.8V36.7z M721.1,37.5v3.1v4.1v3.6v6.9h-0.8v-6.9v-3.6v-4.1
	v-3.1v-5.2h0.8V37.5z M722.2,38.3v2.6v3.5v3.1v6h-0.8v-6v-3.1v-3.5v-2.6V34h0.8V38.3z M723.3,36.8v3.6V45V49v7.7h-0.8V49V45v-4.6
	v-3.6v-6.1h0.8V36.8z M724.3,38v2.8v3.7v3.3v6.3h-0.8v-6.3v-3.3v-3.7V38v-4.7h0.8V38z M725.4,39.3v2V44v2.5v4.9h-0.8v-4.9V44v-2.7
	v-2V36h0.8V39.3z M726.5,38v2.8v3.7v3.3v6.4h-0.8v-6.4v-3.3v-3.7V38v-4.7h0.8V38z M727.6,36.7v3.6V45v4.1v7.8h-0.8v-7.8V45v-4.7
	v-3.6v-6.2h0.8V36.7z M728.6,33.4v5.7v7.2v6.1v11.5h-0.8V52.4v-6.1v-7.2v-5.7v-9.9h0.8V33.4z M729.7,34.1v5.2V46v5.7v10.7h-0.8V51.7
	V46v-6.7v-5.2V25h0.8V34.1z M730.8,32.8v6.1v7.6V53v12.2H730V53v-6.5v-7.6v-6.1V22.2h0.8V32.8z M731.9,29.4v8.2v10.2v8.7v16h-0.8
	v-16v-8.7V37.5v-8.2V15h0.8V29.4z M732.9,31.9v6.6v8.3v7.1V67h-0.8V53.9v-7.1v-8.3v-6.6V20.4h0.8V31.9z M734,34v5.3V46v5.8v10.9
	h-0.8V51.8V46v-6.7V34v-9.2h0.8V34z M735.1,35.2v4.5v5.8v5V60h-0.8v-9.4v-5v-5.8v-4.5v-7.8h0.8V35.2z M736.2,33.3V39v7.3v6.2v11.7
	h-0.8V52.5v-6.2V39v-5.7v-10h0.8V33.3z M737.2,32v6.6v8.3v7.1V67h-0.8V53.8v-7.1v-8.3V32V20.5h0.8V32z M738.3,32.5v6.2v7.9v6.7v12.5
	h-0.8V53.3v-6.7v-7.9v-6.2V21.6h0.8V32.5z M739.4,36.5v3.8v4.9v4.2v8.1h-0.8v-8.1v-4.2v-4.9v-3.8v-6.4h0.8V36.5z M740.5,37.8v2.9
	v3.8V48v6.5h-0.8V48v-3.4v-3.8v-2.9v-4.9h0.8V37.8z M741.5,35.2v4.5v5.8v5V60h-0.8v-9.5v-5v-5.8v-4.5v-7.8h0.8V35.2z M742.6,34v5.3
	V46v5.8v10.8h-0.8V51.8V46v-6.7V34v-9.2h0.8V34z M743.7,37.4v3.2v4.2v3.7v7h-0.8v-7v-3.7v-4.2v-3.2V32h0.8V37.4z M744.8,32.5v6.2
	v7.8v6.7v12.5H744V53.3v-6.7v-7.8v-6.2V21.6h0.8V32.5z M745.8,33.9v5.3V46v5.8v10.9h-0.8V51.9V46v-6.8v-5.3v-9.3h0.8V33.9z
	 M746.9,35.4v4.4v5.7v4.9v9.3h-0.8v-9.3v-4.9v-5.7v-4.4v-7.7h0.8V35.4z M748,36.8v3.6V45v4v7.7h-0.8V49v-4v-4.6v-3.6v-6.1h0.8V36.8z
	 M749.1,38.2v2.7v3.5v3.2v6.1h-0.8v-6.1v-3.2v-3.5v-2.7v-4.5h0.8V38.2z M750.1,39.6v1.8v2.5v2.3v4.5h-0.8v-4.5v-2.3v-2.5v-1.8v-2.8
	h0.8V39.6z M751.2,40.6v1.2v1.7v1.7v3.4h-0.8v-3.4v-1.7v-1.7v-1.2v-1.7h0.8V40.6z M752.3,40v1.5v2.2v2v4h-0.8v-4v-2v-2.2V40v-2.4
	h0.8V40z M753.4,38.7v2.4v3.1v2.8v5.5h-0.8v-5.5v-2.8v-3.1v-2.4v-3.9h0.8V38.7z M754.4,37.9v2.9v3.8v3.4v6.5h-0.8v-6.5v-3.4v-3.8
	v-2.9v-4.8h0.8V37.9z M755.5,39.2v2.1V44v2.5v5h-0.8v-5V44v-2.8v-2.1v-3.3h0.8V39.2z M756.6,38.7v2.3v3.1v2.8v5.5h-0.8v-5.5v-2.8
	v-3.1v-2.3v-3.9h0.8V38.7z M757.7,38.3v2.6v3.5v3.1v6h-0.8v-6v-3.1v-3.5v-2.6v-4.4h0.8V38.3z M758.7,39.6v1.8v2.5v2.3v4.5H758v-4.5
	v-2.3v-2.5v-1.8v-2.8h0.8V39.6z M759.8,39.3v2V44v2.5v4.8H759v-4.8V44v-2.7v-2v-3.2h0.8V39.3z M760.9,40.7v1.2v1.7v1.6v3.3h-0.8
	v-3.3v-1.6v-1.7v-1.2V39h0.8V40.7z M762,39.8v1.7v2.3V46v4.3h-0.8V46v-2.2v-2.3v-1.7v-2.7h0.8V39.8z M763,41.6v0.5v0.9v1v2.2h-0.8
	v-2.2v-1v-0.9v-0.5v-0.6h0.8V41.6z M764.1,41.2V42v1.3v1.3v2.8h-0.8v-2.8v-1.3V42v-0.8V40h0.8V41.2z M765.2,41.2V42v1.3v1.3v2.8
	h-0.8v-2.8v-1.3V42v-0.8V40h0.8V41.2z M766.3,41.6v0.5v0.9v1v2.2h-0.8v-2.2v-1v-0.9v-0.5v-0.6h0.8V41.6z M767.3,39.8v1.7v2.3V46v4.3
	h-0.8V46v-2.2v-2.3v-1.7v-2.7h0.8V39.8z M768.4,40.7v1.2v1.7v1.6v3.3h-0.8v-3.3v-1.6v-1.7v-1.2V39h0.8V40.7z M769.5,39.3v2V44v2.5
	v4.8h-0.8v-4.8V44v-2.7v-2v-3.2h0.8V39.3z M770.6,39.6v1.8v2.5v2.3v4.5h-0.8v-4.5v-2.3v-2.5v-1.8v-2.8h0.8V39.6z M771.6,38.3v2.6
	v3.5v3.1v6h-0.8v-6v-3.1v-3.5v-2.6v-4.4h0.8V38.3z M772.7,38.7v2.3v3.1v2.8v5.5h-0.8v-5.5v-2.8v-3.1v-2.3v-3.9h0.8V38.7z
	 M773.8,39.2v2.1V44v2.5v5H773v-5V44v-2.8v-2.1v-3.3h0.8V39.2z M774.9,37.9v2.9v3.8v3.4v6.5h-0.8v-6.5v-3.4v-3.8v-2.9v-4.8h0.8V37.9
	z M775.9,38.7v2.4v3.1v2.8v5.5h-0.8v-5.5v-2.8v-3.1v-2.4v-3.9h0.8V38.7z M777,40v1.5v2.2v2v4h-0.8v-4v-2v-2.2V40v-2.4h0.8V40z
	 M778.1,40.6v1.2v1.7v1.7v3.4h-0.8v-3.4v-1.7v-1.7v-1.2v-1.7h0.8V40.6z M779.2,39.6v1.8v2.5v2.3v4.5h-0.8v-4.5v-2.3v-2.5v-1.8v-2.8
	h0.8V39.6z M780.2,38.2v2.7v3.5v3.2v6.1h-0.8v-6.1v-3.2v-3.5v-2.7v-4.5h0.8V38.2z M781.3,36.8v3.6V45v4v7.7h-0.8V49v-4v-4.6v-3.6
	v-6.1h0.8V36.8z M782.4,35.4v4.4v5.7v4.9v9.3h-0.8v-9.3v-4.9v-5.7v-4.4v-7.7h0.8V35.4z M783.5,33.9v5.3V46v5.8v10.9h-0.8V51.9V46
	v-6.8v-5.3v-9.3h0.8V33.9z M784.5,32.5v6.2v7.8v6.7v12.5h-0.8V53.3v-6.7v-7.8v-6.2V21.6h0.8V32.5z M785.6,37.4v3.2v4.2v3.7v7h-0.8
	v-7v-3.7v-4.2v-3.2V32h0.8V37.4z M786.7,34v5.3V46v5.8v10.8h-0.8V51.8V46v-6.7V34v-9.2h0.8V34z M787.8,35.2v4.5v5.8v5V60H787v-9.5
	v-5v-5.8v-4.5v-7.8h0.8V35.2z M788.8,37.8v2.9v3.8V48v6.5h-0.8V48v-3.4v-3.8v-2.9v-4.9h0.8V37.8z M789.9,36.5v3.8v4.9v4.2v8.1h-0.8
	v-8.1v-4.2v-4.9v-3.8v-6.4h0.8V36.5z M791,32.5v6.2v7.9v6.7v12.5h-0.8V53.3v-6.7v-7.9v-6.2V21.6h0.8V32.5z M792.1,32v6.6v8.3v7.1V67
	h-0.8V53.8v-7.1v-8.3V32V20.5h0.8V32z M793.1,33.3V39v7.3v6.2v11.7h-0.8V52.5v-6.2V39v-5.7v-10h0.8V33.3z M794.2,38.8v2.3v3.1V47
	v5.4h-0.8V47v-2.8v-3.1v-2.3V35h0.8V38.8z M795.3,38.1v2.7v3.6v3.2v6.2h-0.8v-6.2v-3.2v-3.6v-2.7v-4.6h0.8V38.1z M796.4,37v3.4v4.4
	v3.9v7.5h-0.8v-7.5v-3.9v-4.4V37v-5.8h0.8V37z M797.4,35.6v4.3v5.5v4.8v9h-0.8v-9v-4.8v-5.5v-4.3v-7.4h0.8V35.6z M798.5,38.3v2.6
	v3.5v3.1v6h-0.8v-6v-3.1v-3.5v-2.6v-4.4h0.8V38.3z M799.6,40.4v1.3v1.9v1.8V49h-0.8v-3.6v-1.8v-1.9v-1.3v-2h0.8V40.4z M800.7,40v1.6
	v2.2v2v4.1h-0.8v-4.1v-2v-2.2V40v-2.4h0.8V40z M801.7,39.6v1.8v2.5v2.3v4.5H801v-4.5v-2.3v-2.5v-1.8v-2.9h0.8V39.6z M802.8,39.2v2.1
	v2.8v2.6v5H802v-5v-2.6v-2.8v-2.1v-3.4h0.8V39.2z M803.9,39v2.2v2.9v2.6v5.2h-0.8v-5.2v-2.6v-2.9V39v-3.5h0.8V39z M805,38.1v2.7v3.6
	v3.2v6.2h-0.8v-6.2v-3.2v-3.6v-2.7v-4.6h0.8V38.1z M806,36.3v3.9v5v4.4v8.3h-0.8v-8.3v-4.4v-5v-3.9v-6.6h0.8V36.3z M807.1,36.1v4
	v5.1v4.5v8.5h-0.8v-8.5v-4.5v-5.1v-4v-6.9h0.8V36.1z M808.2,35.9V40v5.3v4.6v8.7h-0.8v-8.7v-4.6V40v-4.1v-7.1h0.8V35.9z M809.3,37
	v3.4v4.5v3.9v7.5h-0.8v-7.5v-3.9v-4.5V37v-5.8h0.8V37z M810.3,36.6v3.7V45v4.2v7.9h-0.8v-7.9V45v-4.8v-3.7v-6.3h0.8V36.6z M811.4,37
	v3.4v4.4v3.9v7.4h-0.8v-7.4v-3.9v-4.4V37v-5.8h0.8V37z M812.5,36.6v3.7V45v4.1V57h-0.8v-7.9V45v-4.7v-3.7v-6.2h0.8V36.6z
	 M813.6,37.7v3v3.9v3.5v6.7h-0.8v-6.7v-3.5v-3.9v-3v-5h0.8V37.7z M814.6,38.8v2.3v3.1V47v5.4h-0.8V47v-2.8v-3.1v-2.3V35h0.8V38.8z
	 M815.7,38.2v2.6v3.5v3.1v6.1h-0.8v-6.1v-3.1v-3.5v-2.6v-4.4h0.8V38.2z M816.8,38.8v2.3v3.1V47v5.4H816V47v-2.8v-3.1v-2.3V35h0.8
	V38.8z M817.9,39.8v1.7v2.4V46v4.3h-0.8V46v-2.2v-2.4v-1.7v-2.7h0.8V39.8z M818.9,40.7v1.1v1.6v1.6v3.3h-0.8v-3.3v-1.6v-1.6v-1.1
	v-1.6h0.8V40.7z M820,41.7v0.5v0.9v1v2.2h-0.8v-2.2v-1v-0.9v-0.5v-0.6h0.8V41.7z M821.1,41.4v0.7v1.2v1.2V47h-0.8v-2.6v-1.2v-1.2
	v-0.7v-0.9h0.8V41.4z M822.2,40.1v1.5v2.1v2v4h-0.8v-4v-2v-2.1v-1.5v-2.3h0.8V40.1z M823.2,39.5v1.8v2.5v2.3v4.6h-0.8v-4.6v-2.3
	v-2.5v-1.8v-3h0.8V39.5z M824.3,40.1v1.5v2.1v2v4h-0.8v-4v-2v-2.1v-1.5v-2.3h0.8V40.1z M825.4,39.8v1.7v2.3V46v4.3h-0.8V46v-2.2
	v-2.3v-1.7v-2.7h0.8V39.8z M826.5,40.4v1.3v1.9v1.8v3.6h-0.8v-3.6v-1.8v-1.9v-1.3v-2h0.8V40.4z M827.5,40.1v1.5v2.1v2v3.9h-0.8v-3.9
	v-2v-2.1v-1.5v-2.3h0.8V40.1z M828.6,41.5v2.8v2.4h-0.8v-2.4v-2.8v-0.7h0.8V41.5z M829.7,41v3.8v3h-0.8v-3V41v-1.3h0.8V41z
	 M830.8,37.5v10.7v6.9H830v-6.9V37.5v-5.2h0.8V37.5z M831.8,38.2v9.4v6.1h-0.8v-6.1v-9.4v-4.5h0.8V38.2z M832.9,36.9v12v7.6h-0.8
	v-7.6v-12V31h0.8V36.9z M834,35.7v14.5v9h-0.8v-9V35.7v-7.3h0.8V35.7z M835.1,36.1v13.5v8.4h-0.8v-8.4V36.1v-6.8h0.8V36.1z
	 M836.1,33.8v18.1v11h-0.8v-11V33.8v-9.4h0.8V33.8z M837.2,34.4v17v10.4h-0.8V51.4v-17v-8.8h0.8V34.4z M838.3,32.8V53v12.2h-0.8V53
	V32.8V22.2h0.8V32.8z M839.4,33.1v19.6v11.9h-0.8V52.7V33.1V22.9h0.8V33.1z M840.4,34.2v17.5v10.7h-0.8V51.6V34.2v-9h0.8V34.2z
	 M841.5,36v13.8v8.6h-0.8v-8.6V36v-6.9h0.8V36z M842.6,37.4v11.1v7.1h-0.8v-7.1V37.4v-5.4h0.8V37.4z M843.7,37.5v10.7v6.9h-0.8v-6.9
	V37.5v-5.2h0.8V37.5z M844.7,38.1v9.5v6.2H844v-6.2v-9.5v-4.5h0.8V38.1z M845.8,38.7V47v5.5H845V47v-8.3v-3.9h0.8V38.7z M846.9,39.3
	v7.1v4.8h-0.8v-4.8v-7.1v-3.2h0.8V39.3z M848,38.2v9.5v6.1h-0.8v-6.1v-9.5v-4.5h0.8V38.2z M849,39.1v7.5v5.1h-0.8v-5.1v-7.5v-3.4
	h0.8V39.1z M850.1,40.1v5.6v4h-0.8v-4v-5.6v-2.3h0.8V40.1z M851.2,39.1v7.6v5.1h-0.8v-5.1v-7.6v-3.5h0.8V39.1z M852.3,38.1v9.6v6.2
	h-0.8v-6.2v-9.6v-4.6h0.8V38.1z M853.3,35.6v14.6v9.1h-0.8v-9.1V35.6v-7.4h0.8V35.6z M854.4,36.1v13.6v8.5h-0.8v-8.5V36.1v-6.8h0.8
	V36.1z M855.5,35.1v15.6v9.6h-0.8v-9.6V35.1v-8h0.8V35.1z M856.6,32.5v20.9v12.6h-0.8V53.3V32.5V21.5h0.8V32.5z M857.6,34.4v16.9
	v10.4h-0.8V51.4V34.4v-8.7h0.8V34.4z M858.7,36v13.8v8.6h-0.8v-8.6V36v-6.9h0.8V36z M859.8,37v11.8v7.5H859v-7.5V37v-5.8h0.8V37z
	 M860.9,35.5v14.9v9.2h-0.8v-9.2V35.5v-7.6h0.8V35.5z M861.9,34.4v16.9v10.3h-0.8V51.3V34.4v-8.7h0.8V34.4z M863,37.5v16.1v9.9h-0.8
	v-9.9V37.5v-8.2h0.8V37.5z M864.1,40.6v9.9v6.4h-0.8v-6.4v-9.9v-4.8h0.8V40.6z M865.2,41.6v7.8v5.2h-0.8v-5.2v-7.8V38h0.8V41.6z
	 M866.2,39.6v11.9V59h-0.8v-7.5V39.6v-5.9h0.8V39.6z M867.3,38.7v13.7V61h-0.8v-8.5V38.7v-6.9h0.8V38.7z M868.4,41.3v8.5v5.6h-0.8
	v-5.6v-8.5v-4h0.8V41.3z M869.5,37.5v16.1v9.9h-0.8v-9.9V37.5v-8.2h0.8V37.5z M870.5,38.6v13.8v8.6h-0.8v-8.6V38.6v-7h0.8V38.6z
	 M871.6,39.7v11.6v7.4h-0.8v-7.4V39.7V34h0.8V39.7z M872.7,40.8v9.4v6.1h-0.8v-6.1v-9.4v-4.5h0.8V40.8z M873.8,41.9v7.2v4.9H873
	v-4.9v-7.2v-3.3h0.8V41.9z M874.8,43v5v3.7h-0.8v-3.7v-5v-2h0.8V43z M875.9,44.1V47v2.4h-0.8V47v-2.8v-0.8h0.8V44.1z M877,43.8v3.5
	v2.8h-0.8v-2.8v-3.5v-1.2h0.8V43.8z M878.1,42.3v6.4v4.4h-0.8v-4.4v-6.4v-2.8h0.8V42.3z M879.1,41.7v7.7v5.2h-0.8v-5.2v-7.7v-3.5
	h0.8V41.7z"/>
</svg>
