<?xml version="1.0" encoding="utf-8"?>
<!-- Generator: Adobe Illustrator 17.1.0, SVG Export Plug-In . SVG Version: 6.00 Build 0)  -->
<!DOCTYPE svg PUBLIC "-//W3C//DTD SVG 1.1//EN" "http://www.w3.org/Graphics/SVG/1.1/DTD/svg11.dtd">
<svg version="1.1" id="Layer_1" xmlns="http://www.w3.org/2000/svg" xmlns:xlink="http://www.w3.org/1999/xlink" x="0px" y="0px"
	 viewBox="0 0 47.7 46.6" enable-background="new 0 0 47.7 46.6" xml:space="preserve">
<path fill="#ACD1EB" d="M45.1,28.2c0.4-1.6,2.5-3.1,2.5-4.9s-2.2-3.2-2.5-4.9c-0.4-1.7,0.9-4,0.2-5.5c-0.8-1.6-3.3-1.9-4.4-3.3
	c-1.1-1.3-0.9-4-2.2-5c-1.3-1.1-3.8-0.3-5.4-1c-1.5-0.7-2.5-3.2-4.2-3.6c-1.6-0.4-3.6,1.4-5.3,1.4c-1.7,0-3.7-1.8-5.3-1.4
	c-1.7,0.4-2.7,2.8-4.2,3.6c-1.5,0.7-4,0-5.4,1c-1.3,1.1-1.2,3.7-2.2,5C5.7,11,3.1,11.4,2.4,13c-0.7,1.5,0.6,3.8,0.2,5.5
	C2.2,20.1,0,21.5,0,23.3s2.2,3.2,2.6,4.9c0.4,1.7-0.9,4-0.2,5.5c0.8,1.6,3.3,1.9,4.4,3.3c1.1,1.3,0.9,4,2.2,5c1.3,1.1,3.8,0.3,5.4,1
	c1.5,0.7,2.5,3.2,4.2,3.6c1.6,0.4,3.6-1.4,5.3-1.4c1.8,0,3.7,1.8,5.3,1.4c1.7-0.4,2.7-2.8,4.2-3.6c1.5-0.7,4,0,5.4-1
	c1.3-1.1,1.2-3.7,2.2-5c1.1-1.3,3.7-1.7,4.4-3.3C46,32.1,44.7,29.8,45.1,28.2z M23.8,40.5c-9.5,0-17.2-7.7-17.2-17.2
	S14.3,6.1,23.8,6.1c9.5,0,17.2,7.7,17.2,17.2S33.3,40.5,23.8,40.5z"/>
<g>
	<path fill="#ACD1EB" d="M34.3,30.3c-0.1,0-0.3,0-0.4-0.1L16.9,13c-0.2-0.2-0.2-0.5,0-0.7s0.5-0.2,0.7,0l17.1,17.1
		c0.2,0.2,0.2,0.5,0,0.7C34.6,30.2,34.4,30.3,34.3,30.3z"/>
</g>
<g>
	<path fill="#ACD1EB" d="M33.6,22.6c-0.1,0-0.3,0-0.4-0.1L23.9,13c-0.2-0.2-0.2-0.5,0-0.7s0.5-0.2,0.7,0l9.4,9.4
		c0.2,0.2,0.2,0.5,0,0.7C33.9,22.6,33.8,22.6,33.6,22.6z"/>
</g>
<g>
	<path fill="#ACD1EB" d="M23.8,26.7c-0.1,0-0.3,0-0.4-0.1l-8.7-8.7c-0.2-0.2-0.2-0.5,0-0.7s0.5-0.2,0.7,0l8.7,8.7
		c0.2,0.2,0.2,0.5,0,0.7C24.1,26.7,24,26.7,23.8,26.7z"/>
</g>
</svg>
