<?xml version="1.0" encoding="utf-8"?>
<!-- Generator: Adobe Illustrator 17.1.0, SVG Export Plug-In . SVG Version: 6.00 Build 0)  -->
<!DOCTYPE svg PUBLIC "-//W3C//DTD SVG 1.1//EN" "http://www.w3.org/Graphics/SVG/1.1/DTD/svg11.dtd">
<svg version="1.1" id="Layer_1" xmlns="http://www.w3.org/2000/svg" xmlns:xlink="http://www.w3.org/1999/xlink" x="0px" y="0px"
	 viewBox="0 0 41.5 46.3" enable-background="new 0 0 41.5 46.3" xml:space="preserve">
<path fill="#ACD1EB" d="M34,43.2v-6.9l-0.2,0.1c-0.8,1.3-2.2,2.2-3.7,2.4c-0.2,0-0.5,0.1-0.8,0.1c-1.3,0-2.5-0.5-3.4-1.3l-6.7-6
	c-1-0.9-1.7-2.2-1.7-3.6c-0.1-1.4,0.4-2.7,1.3-3.8c1-1.1,2.4-1.7,3.9-1.7c1.3,0,2.5,0.5,3.4,1.3l2.2,1.9l5.5-8.8l0-2.3
	c-0.1-1.4-1.2-2.3-2.6-2.3h-6V8.1C25,3.6,21.5,0,17,0c-4.5,0-8,3.6-8,8.1v4.1H2.2c-1.4,0-2.2,0.8-2.2,2.2v29.3c0,0.7,0,1.3,0.5,1.8
	c0.5,0.5,1,0.7,1.7,0.7h29c0.7,0,1.6-0.2,2-0.7C34,44.7,34,43.2,34,43.2z M14,8.1c0-1.9,1.1-3.4,3-3.4s3,1.5,3,3.4v4.1h-6V8.1z"/>
<g>
	<path fill="#ACD1EB" d="M40.7,20.4l-7.1,11.2l-2.1,3.4c-0.4,0.7-1.1,1.1-1.9,1.3c-0.1,0-0.3,0-0.4,0c-0.7,0-1.3-0.2-1.8-0.7l-6.7-6
		c-1.1-1-1.2-2.7-0.2-3.9c0.5-0.6,1.3-0.9,2-0.9c0.7,0,1.3,0.2,1.8,0.7l4.3,3.8l5-8l2.4-3.8c0.5-0.8,1.4-1.3,2.3-1.3
		c0.5,0,1,0.1,1.5,0.4C41.2,17.4,41.5,19.1,40.7,20.4z"/>
</g>
<path fill="#ACD1EB" stroke="#FFFFFF" stroke-width="3" stroke-miterlimit="10" d="M41.5,16.2"/>
</svg>
