<svg version="1.1"
	 xmlns="http://www.w3.org/2000/svg" xmlns:xlink="http://www.w3.org/1999/xlink" xmlns:a="http://ns.adobe.com/AdobeSVGViewerExtensions/3.0/"
	 x="0px" y="0px"  viewBox="0 0 38 41" style="enable-background:new 0 0 38 41;"
	 xml:space="preserve">
<style type="text/css">
	.st0{fill:#99D6F3;}
</style>

<g>
	<path class="st0" d="M20.3,41h9.8c2.5,0,4.5-2,4.5-4.5V21.2c0-0.7-0.6-1.4-1.4-1.4h-13V41z M20.3,41"/>
	<path class="st0" d="M2.8,36.5c0,2.5,2,4.5,4.5,4.5h10.4V19.8H4.2c-0.8,0-1.4,0.6-1.4,1.4V36.5z M2.8,36.5"/>
	<path class="st0" d="M0,15.9c0,0.7,0.6,1.4,1.4,1.4h16.4V9.7H4.5C2,9.7,0,11.7,0,14.2V15.9z M0,15.9"/>
	<path class="st0" d="M20.3,9.7v7.6h15.8c0.7,0,1.4-0.6,1.4-1.4v-1.7c0-2.5-2-4.5-4.5-4.5H20.3z M20.3,9.7"/>
	<path class="st0" d="M32,6.5C32,2.7,29.9,0,26.6,0c-1.8,0-4.3,0.8-7.6,4.2C15.7,0.8,12.9,0,11.2,0C7.9,0,5.5,2.7,5.5,6.5
		c0,0.7,0.6,1.4,1.4,1.4h23.8C31.4,7.9,32,7.3,32,6.5L32,6.5z M8.5,5.2c0.3-1.3,1.1-2.4,2.7-2.4c1.4,0,3.1,0.9,4.8,2.4H8.5z M22,5.2
		c1.8-1.5,3.4-2.4,4.8-2.4c1.6,0,2.4,1.1,2.7,2.4H22z M22,5.2"/>
</g>
</svg>
